<?xml version="1.0" encoding="utf-8"?>
<!-- Generator: Adobe Illustrator 16.0.0, SVG Export Plug-In . SVG Version: 6.00 Build 0)  -->
<!DOCTYPE svg PUBLIC "-//W3C//DTD SVG 1.1//EN" "http://www.w3.org/Graphics/SVG/1.1/DTD/svg11.dtd">
<svg version="1.1" id="Layer_1" xmlns="http://www.w3.org/2000/svg"
     xmlns:xlink="http://www.w3.org/1999/xlink" x="0px" y="0px"
     xmlns:ev="http://www.w3.org/2001/xml-events"
     width="883px" height="490.184px" viewBox="381.3 33.216 883 458.184"
     style="enable-background:new 381.3 33.216 883 458.184;">
  <script type="text/javascript"><![CDATA[

  function stickmanAnimStart(guyId, animIds) {
    var key = guyId + 'Animating';
    if (document[key]) return;
    for (var i = 0; i < animIds.length; i++) {
      document.getElementById(animIds[i]).beginElement();
    }
    document[key] = true;
    // Safari somehow doesnt fire onend event, so we call end manually
    if (navigator.userAgent.search("Safari") >= 0 && navigator.userAgent.search("Chrome") < 0) {
      setTimeout(function() {
        stickmanAnimEnd(guyId);
      }, 3000);
    }
  }

  function stickmanAnimEnd(guyId) {
    document[guyId + 'Animating'] = false;
  }

  ]]></script>
  <g id="homeSvg">
    <!--right guy-->
    <g transform="translate(-10, 0)" id="rightGuy" onmouseover="stickmanAnimStart('rightGuy', ['rightGuyLowerBody','rightGuyMiddleBody', 'rightGuyUpperBody', 'rightGuyHead',
	 'rightGuyRightArmUp', 'rightGuyRightHandUp', 'rightGuyLeftArm'])">

      <line style="fill:none;stroke:#222;stroke-width:12;stroke-linecap:round;stroke-miterlimit:10;" x1="1196.5"
            y1="328" x2="1196.5" y2="328"/>
      <g>
        <!--lower body-->
        <animateTransform id="rightGuyLowerBody" attributeName="transform" type="rotate" begin="indefinite" dur="1.4s"
                          values="0 1196.5 328;-20 1196.5 328;0 1196.5 328"
                          keyTimes="0;0.5;1" calcMode="spline"
                          keySplines="0.215 0.61 0.355 1;0.215 0.61 0.355 1"
                          onend="stickmanAnimEnd('rightGuy')"/>
        <line style="fill:none;stroke:#222;stroke-width:15;stroke-linecap:round;stroke-miterlimit:10;" x1="1196.5"
              y1="328" x2="1206.5" y2="294"/>
        <g>
          <!--middle body-->
          <animateTransform id="rightGuyMiddleBody" attributeName="transform" type="rotate" begin="indefinite" dur="1.4s"
                            values="0 1206.5 294;30 1206.5 294;0 1206.5 294"
                            keyTimes="0;0.5;1" calcMode="spline"
                            keySplines="0.215 0.61 0.355 1;0.215 0.61 0.355 1"/>
          <line style="fill:none;stroke:#222;stroke-width:14;stroke-linecap:round;stroke-miterlimit:10;" x1="1206.5"
                y1="294" x2="1205.5" y2="272"/>
          <g>
            <!--upper body-->
            <animateTransform id="rightGuyUpperBody" attributeName="transform" type="rotate" begin="indefinite" dur="1.4s"
                              values="0 1205.5 272;40 1205.5 272;0 1205.5 272"
                              keyTimes="0;0.5;1" calcMode="spline"
                              keySplines="0.215 0.61 0.355 1;0.215 0.61 0.355 1"/>
            <line style="fill:none;stroke:#222;stroke-width:14;stroke-linecap:round;stroke-miterlimit:10;" x1="1205.5"
                  y1="272" x2="1193.3" y2="261.4"/>
            <g>
              <!--neck-->
              <line style="fill:none;" x1="1193.3" y1="261.4" x2="1181.3" y2="246.5"/>

              <g>
                <!--head-->
                <animateTransform id="rightGuyHead" attributeName="transform" type="rotate" begin="indefinite" dur="1.4s"
                                  values="0 1193.3 261.4;40 1193.3 261.4;0 1193.3 261.4"
                                  keyTimes="0;0.5;1" calcMode="spline"
                                  keySplines="0.215 0.61 0.355 1;0.215 0.61 0.355 1"/>
                <path style="fill:#222;stroke:#222;stroke-width:22;stroke-linecap:round;stroke-miterlimit:10;" d="M1181.3,246.5
								c-5.899,3.9-13.8,2.4-17.7-3.5c-3.899-5.9-2.199-13.8,3.7-17.7c5.9-3.9,13.8-2.3,17.7,3.6S1187.2,242.6,1181.3,246.5z"/>
              </g>
            </g>
            <g>
              <!--left arm-->
              <animateTransform id="rightGuyLeftArm" attributeName="transform" type="rotate" begin="indefinite" dur="1.4s"
                                values="0 1193.3 261.4;-130 1193.3 261.4;0 1193.3 261.4"
                                keyTimes="0;0.5;1" calcMode="spline"
                                keySplines="0.215 0.61 0.355 1;0.215 0.61 0.355 1"/>
              <line style="fill:none;stroke:#222;stroke-width:15;stroke-linecap:round;stroke-miterlimit:10;" x1="1193.3"
                    y1="261.4" x2="1169.1" y2="294.8"/>
              <g>

                <line style="fill:none;stroke:#222;stroke-width:15;stroke-linecap:round;stroke-miterlimit:10;"
                      x1="1169.1" y1="294.8" x2="1155.6" y2="266"/>
              </g>
            </g>
            <g>
              <!--right arm-->
              <animateTransform id="rightGuyRightArmUp" attributeName="transform" type="rotate" begin="indefinite" dur="1.4s"
                                values="0 1193.3 261.4;270 1193.3 261.4;0 1193.3 261.4"
                                keyTimes="0;0.5;1" calcMode="spline"
                                keySplines="0.215 0.61 0.355 1;0.215 0.61 0.355 1"/>
              <line style="fill:none;stroke:#222;stroke-width:15;stroke-linecap:round;stroke-miterlimit:10;" x1="1193.3"
                    y1="261.4" x2="1225" y2="235.1"/>
              <g>

                <!--right arm-->
                <animateTransform id="rightGuyRightHandUp" attributeName="transform" type="rotate" begin="indefinite" dur="1.4s"
                                  values="0 1225 235.1;-40 1225 235.1;0 1225 235.1"
                                  keyTimes="0;0.5;1" calcMode="spline"
                                  keySplines="0.215 0.61 0.355 1;0.215 0.61 0.355 1"/>
                <line style="fill:none;stroke:#222;stroke-width:15;stroke-linecap:round;stroke-miterlimit:10;" x1="1225"
                      y1="235.1" x2="1256.8" y2="234.2"/>
              </g>
            </g>
          </g>
        </g>
      </g>
      <g>

        <line style="fill:none;stroke:#222;stroke-width:22;stroke-linecap:round;stroke-miterlimit:10;" x1="1196.5"
              y1="328" x2="1150.5" y2="332.6"/>
        <g>

          <line style="fill:none;stroke:#222;stroke-width:22;stroke-linecap:round;stroke-miterlimit:10;" x1="1150.5"
                y1="332.6" x2="1172.1" y2="379.8"/>
          <g>

            <line style="fill:none;stroke:#222;stroke-width:22;stroke-linecap:round;stroke-miterlimit:10;" x1="1172.1"
                  y1="379.8" x2="1159.5" y2="382.4"/>
          </g>
        </g>
      </g>
      <g>

        <line style="fill:none;stroke:#222;stroke-width:22;stroke-linecap:round;stroke-miterlimit:10;" x1="1196.5"
              y1="328" x2="1207.5" y2="373"/>
        <g>

          <line style="fill:none;stroke:#222;stroke-width:22;stroke-linecap:round;stroke-miterlimit:10;" x1="1207.5"
                y1="373" x2="1236.5" y2="330"/>
          <g>

            <line style="fill:none;stroke:#222;stroke-width:22;stroke-linecap:round;stroke-miterlimit:10;" x1="1236.5"
                  y1="330" x2="1246.5" y2="338"/>
          </g>
        </g>
      </g>
    </g>
    <!--left up guy-->
    <g id="upGuy"
       onmouseover="stickmanAnimStart('upGuy', ['upGuyRightLeg', 'upGuyRightCalf', 'upGuyRightFoot', 'upGuyUpperBody'])">

      <line style="fill:none;stroke:#222;stroke-width:16.5;stroke-linecap:round;stroke-miterlimit:10;" x1="706.5"
            y1="160" x2="706.5" y2="160"/>
      <g>
        <!--lower body-->
        <line style="fill:none;stroke:#222;stroke-width:18.2;stroke-linecap:round;stroke-miterlimit:10;" x1="706.5"
              y1="160" x2="707.5" y2="122"/>
        <g>
          <!--upper body-->
          <animateTransform id="upGuyUpperBody" attributeName="transform" type="rotate" begin="indefinite" dur="1s"
                            from="0 707.5 122" to="15 707.5 122"
                            keyTimes="0;1" calcMode="spline" keySplines="0.215 0.61 0.355 1" fill="freeze"/>
          <animateTransform attributeName="transform" type="rotate" begin="upGuyLeftCalfBack.begin" dur="0.7s"
                            from="15 707.5 122" to="0 707.5 122"
                            keyTimes="0;1" calcMode="spline" keySplines="0.215 0.61 0.355 1" fill="freeze"/>
          <line style="fill:none;stroke:#222;stroke-width:18.2;stroke-linecap:round;stroke-miterlimit:10;" x1="707.5"
                y1="122" x2="701.1" y2="88.3"/>
          <g>

            <line style="fill:none;stroke:#222;stroke-width:18.2;stroke-linecap:round;stroke-miterlimit:10;" x1="701.1"
                  y1="88.3" x2="666.7" y2="104.2"/>
            <g>

              <line style="fill:none;stroke:#222;stroke-width:18.2;stroke-linecap:round;stroke-miterlimit:10;"
                    x1="666.7" y1="104.2" x2="695.7" y2="117"/>
            </g>
          </g>
          <g>

            <line style="fill:none;stroke:#222;stroke-width:18.2;stroke-linecap:round;stroke-miterlimit:10;" x1="701.1"
                  y1="88.3" x2="737.6" y2="98.4"/>
            <g>

              <line style="fill:none;stroke:#222;stroke-width:18.2;stroke-linecap:round;stroke-miterlimit:10;"
                    x1="737.6" y1="98.4" x2="729.4" y2="67.8"/>
            </g>
          </g>
          <g>
            <path style="fill:#222;stroke:#222;stroke-width:9.9;stroke-linecap:round;stroke-miterlimit:10;" d="M701.1,88.3
						c-10.699,1.4-20.6-6.2-22-16.9c-1.399-10.7,6.2-20.6,16.9-22s20.6,6.1,22,16.8C719.4,76.9,711.8,86.9,701.1,88.3z"/>
          </g>
        </g>
      </g>
      <g>
        <!--left leg-->
        <line style="fill:none;stroke:#222;stroke-width:22.3;stroke-linecap:round;stroke-miterlimit:10;" x1="706.5"
              y1="160" x2="668.3" y2="154.1"/>
        <g>
          <!--left calf-->
          <animateTransform id="upGuyLeftCalf" attributeName="transform" type="rotate" begin="upGuyRightLeg.end"
                            dur="0.7s" from="0 668.3 154.1" to="120 668.3 154.1"
                            keyTimes="0;1" calcMode="spline" keySplines="1 0 0 1" fill="freeze"/>
          <animateTransform id="upGuyLeftCalfBack" attributeName="transform" type="rotate" begin="upGuyLeftCalf.end+0.3"
                            dur="0.7s" from="120 668.3 154.1" to="0 668.3 154.1"
                            keyTimes="0;1" calcMode="spline" keySplines="0.215 0.61 0.355 1" fill="freeze"/>
          <line style="fill:none;stroke:#222;stroke-width:22.3;stroke-linecap:round;stroke-miterlimit:10;" x1="668.3"
                y1="154.1" x2="682.1" y2="191.4"/>
          <g>

            <line style="fill:none;stroke:#222;stroke-width:22.3;stroke-linecap:round;stroke-miterlimit:10;" x1="682.1"
                  y1="191.4" x2="675.9" y2="199.7"/>
          </g>
        </g>
      </g>
      <g>
        <!--right leg-->
        <animateTransform id="upGuyRightLeg" attributeName="transform" type="rotate" begin="indefinite" dur="0.7s"
                          from="0 706.5 160" to="-80 706.5 160"
                          keyTimes="0;1" calcMode="spline" keySplines="0.215 0.61 0.355 1" fill="freeze"/>
        <animateTransform attributeName="transform" type="rotate" begin="upGuyLeftCalfBack.begin" dur="0.7s"
                          from="-80 706.5 160" to="0 706.5 160"
                          keyTimes="0;1" calcMode="spline" keySplines="0.215 0.61 0.355 1"
                          onend="stickmanAnimEnd('upGuy')" fill="freeze"/>
        <line style="fill:none;stroke:#222;stroke-width:22.3;stroke-linecap:round;stroke-miterlimit:10;" x1="706.5"
              y1="160" x2="717.9" y2="197"/>
        <g>
          <!--right Calf-->
          <animateTransform id="upGuyRightCalf" attributeName="transform" type="rotate" begin="indefinite" dur="1.4s"
                            values="0 717.9 197;120 717.9 197;0 717.9 197"
                            keyTimes="0;0.5;1" calcMode="spline" keySplines="0.215 0.61 0.355 1;1 0 0 1"/>
          <line style="fill:none;stroke:#222;stroke-width:22.3;stroke-linecap:round;stroke-miterlimit:10;" x1="717.9"
                y1="197" x2="728.7" y2="235.2"/>
          <g>
            <!--right foot-->
            <animateTransform id="upGuyRightFoot" attributeName="transform" type="rotate" begin="indefinite" dur="700ms"
                              from="0 728.7 235.2" to="-45 728.7 235.2"
                              keyTimes="0;1" calcMode="spline" keySplines="0.215 0.61 0.355 1" fill="freeze"/>
            <animateTransform attributeName="transform" type="rotate" begin="upGuyLeftCalfBack.begin" dur="700ms"
                              from="-45 728.7 235.2" to="0 728.7 235.2"
                              keyTimes="0;1" calcMode="spline" keySplines="0.215 0.61 0.355 1" fill="freeze"/>
            <line style="fill:none;stroke:#222;stroke-width:22.3;stroke-linecap:round;stroke-miterlimit:10;" x1="728.7"
                  y1="235.2" x2="730.3" y2="245.5"/>
          </g>
        </g>
      </g>
    </g>
    <!--gun guy-->
    <g id="gunGuy" onmouseover="stickmanAnimStart('gunGuy', ['gunBlast', 'gunGuyGunArm', 'gunGuyGunHand', 'gunSmoke'])">

      <line style="fill:none;stroke:#222;stroke-width:12;stroke-linecap:round;stroke-miterlimit:10;" x1="480.5" y1="325"
            x2="480.5" y2="325"/>
      <g>

        <line style="fill:none;stroke:#222;stroke-width:12;stroke-linecap:round;stroke-miterlimit:10;" x1="480.5"
              y1="325" x2="496.8" y2="297.5"/>
        <g>

          <line style="fill:none;stroke:#222;stroke-width:12;stroke-linecap:round;stroke-miterlimit:10;" x1="496.8"
                y1="297.5" x2="513.1" y2="269.9"/>
          <g>

            <line style="fill:none;stroke:#222;stroke-width:12;stroke-linecap:round;stroke-miterlimit:10;" x1="513.1"
                  y1="269.9" x2="494.1" y2="303"/>
            <g>

              <line style="fill:none;stroke:#222;stroke-width:12;stroke-linecap:round;stroke-miterlimit:10;" x1="494.1"
                    y1="303" x2="465.5" y2="331.4"/>
            </g>
          </g>
          <g>
            <!--gun arm-->
            <animateTransform id="gunGuyGunArm" attributeName="transform" type="rotate" begin="indefinite" dur="1s"
                              values="0 513.1 269.9; -20 513.1 269.9;0 513.1 269.9"
                              keyTimes="0;0.1;1" calcMode="spline" keySplines="0.075, 0.82, 0.165, 1;0.215 0.61 0.355 1"
                              onend="stickmanAnimEnd('gunGuy')"/>
            <line style="fill:none;stroke:#222;stroke-width:12;stroke-linecap:round;stroke-miterlimit:10;" x1="513.1"
                  y1="269.9" x2="476.1" y2="279.4"/>
            <g>
              <!--gun hand-->
              <animateTransform id="gunGuyGunHand" attributeName="transform" type="rotate" begin="indefinite" dur="1s"
                                values="0 476.1 279.4; 40 476.1 279.4;0 476.1 279.4"
                                keyTimes="0;0.1;1" calcMode="spline"
                                keySplines="0.075, 0.82, 0.165, 1;0.215 0.61 0.355 1"/>
              <line style="fill:none;stroke:#222;stroke-width:12;stroke-linecap:round;stroke-miterlimit:10;" x1="476.1"
                    y1="279.4" x2="455.8" y2="244.6"/>
              <g>
                <!-- pistol -->

                <defs>
                  <filter xmlns="http://www.w3.org/2000/svg" id="smokeFilter" x="0%" y="0%" height="100%" width="100%">
                    <feTurbulence baseFrequency=".05, .01" numOctaves="2">
                    </feTurbulence>
                    <feComponentTransfer>
                      <feFuncA type="linear" intercept="1" slope="0"/>
                      <feFuncR type="linear" intercept="-.5" slope="2.5"/>
                      <feFuncG type="linear" intercept="-.5" slope="2.5"/>
                      <feFuncB type="linear" intercept="-.5" slope="2.5"/>
                    </feComponentTransfer>
                    <feColorMatrix type="saturate" values="0"/>
                    <feColorMatrix type="matrix" result="two" values="
                          1  0  0 0 0
                          0  1  0 0 0
                          0  0  1 0 0
                          1  1  1 0.5 -0.7">
                    </feColorMatrix>
                    <feGaussianBlur stdDeviation="1"/>
                  </filter>
                  <radialGradient id="smokeGradient" cx="50%" cy="50%" r="50%" fx="50%" fy="51%">
                    <stop offset="0%" stop-color="#fff" stop-opacity="1"/>
                    <stop offset="20%" stop-color="#000" stop-opacity="0.5"/>
                    <stop offset="100%" stop-color="#000" stop-opacity="0"/>
                  </radialGradient>
                  <mask id="Mask">
                    <ellipse cx="468" cy="170" rx="60" ry="300" fill="url(#smokeGradient)"></ellipse>
                  </mask>
                </defs>
                <!--smoke-->
                <g mask="url(#Mask)">
                  <animate id="gunSmoke" attributeName="opacity" dur="5s" attributeType="XML" begin="indefinite"
                           from="0" to="1"></animate>
                  <g filter="url(#smokeFilter)">
                    <animateTransform xmlns="http://www.w3.org/2000/svg" attributeName="transform" type="translate"
                                      values="0 0;0 -30000;0 -30000" dur="1200" repeatCount="indefinite"
                                      additive="sum"/>
                    <rect x="370" y="100" width="200" height="200" style="fill:#333;">
                      <animateTransform xmlns="http://www.w3.org/2000/svg" attributeName="transform" type="translate"
                                        values="0 0;0 30000;0 30000" dur="1200" repeatCount="indefinite"/>
                    </rect>
                  </g>
                </g>
                <g>
                  <polygon display="none" fill="#FFD351" stroke="#E1492A" stroke-width="2" stroke-miterlimit="10"
                           points="460.272,200.926 431.573,200.926
		462.026,204.598 470.04,202.592 491.706,191.4 470.04,199.7 475.87,188.926 468.372,195.55 463.04,163.05 461.013,195.55
		445.923,192.237 	">
                    <animate id="gunBlast" attributeName="display" dur="100ms" attributeType="XML" begin="indefinite"
                             values="block;none" keyTimes="0;1"></animate>
                  </polygon>
                </g>
                <g style="fill:#222;stroke:#222">

                  <line style="fill:none;stroke:#222;stroke-width:3.9;stroke-linecap:round;stroke-miterlimit:10;"
                        x1="447.5"
                        y1="255" x2="447.5" y2="255"/>
                  <g>

                    <line
                        style="display:none;fill:none;stroke:#222;stroke-width:3.9;stroke-linecap:round;stroke-miterlimit:10;"
                        x1="447.5" y1="255" x2="444.9" y2="206"/>
                    <g id="Layer_1_1_">
                      <path d="M472.3,253.6c-0.2-0.1-0.5-0.6-0.7-0.8c-0.199-0.2-0.699-0.8-0.699-0.8s-3.601,1.3-4.101,1.5s-0.6-0.2-0.7-0.4
					c-0.1-0.199-0.399-0.899-0.6-1.399s-0.5-1-1-1.6s-1.7-0.5-2.1-0.4c-0.4,0.1-0.7,0.4-0.801,0.4c-0.1,0-0.199-0.1-0.3-0.1
					c-0.1,0-0.2,0.3-0.3,0.4s0-0.2-0.2-0.1c-0.2,0.1-0.1,0.2-0.2,0.3c-0.199,0.101-0.1,0-0.3,0s0,0.2-0.2,0.301
					c-0.199,0.1-0.1-0.101-0.3,0c-0.2,0.1,0,0.1-0.1,0.199c-0.101,0.101-0.101-0.1-0.3,0c-0.2,0.101-0.101,0.101-0.2,0.2
					c-0.101,0.101-0.101-0.1-0.3,0c-0.2,0.101-0.101,0.2-0.2,0.3c-0.101,0.101-0.101-0.199-0.3-0.1c-0.2,0.1,0,0.2-0.2,0.3
					c-0.2,0.101-0.101-0.1-0.3,0c-0.2,0.101,0,0.2-0.2,0.3c-0.2,0.101-0.2-0.199-0.3-0.1c-0.2,0.1-0.101,0.2-0.2,0.3
					c-0.101,0.101-0.2-0.2-0.3-0.1c-0.101,0.1,0,0.2-0.2,0.3s-0.101-0.2-0.3-0.1c-0.2,0.1,0.1,0.199-0.101,0.3
					c-0.2,0.1-0.2-0.2-0.399-0.101c-0.2,0.101,0,0.2-0.2,0.301c-0.2,0.1-0.2-0.101-0.3-0.101c-0.101,0,0,0.2-0.2,0.3
					c-0.2,0.101-0.101-0.1-0.3-0.1c-0.2,0,0,0.2-0.2,0.3c-0.2,0.101-0.101-0.2-0.3-0.1c-0.2,0.1,0,0.2-0.2,0.3s-0.101-0.2-0.3-0.1
					c-0.2,0.1,0,0.1-0.2,0.199c-0.2,0.101-0.101-0.1-0.3-0.1c-0.2,0,0,0.2-0.2,0.3c-0.2,0.101-0.101-0.1-0.3-0.1
					c-0.2,0,0,0.3-0.2,0.3s-0.101-0.1-0.3-0.1c-0.2,0-0.101,0.199-0.2,0.199c-0.101,0-0.2-0.1-0.3-0.1c-0.101,0-0.2,0.3-0.301,0.3
					c-0.1,0-0.1-0.1-0.199-0.1c-0.101,0-0.2,0-0.2,0.1c0,0.101-0.2,0.2-0.2,0.101c0-0.101,0-0.301,0-0.301h-0.2v0.2
					c0,0-0.6,0.101-1.2,0.2c-0.6,0.1-0.699,0-0.8-0.1c-0.1-0.101-0.1-1.9-0.1-1.9s0,0-0.101,0c-0.1,0-0.399,0-0.399,0
					s-1.601-10.2-1.4-10.5s0.601-0.2,0.601-0.1s0.1,0.4,0.199,0.6c0.101,0.2,1.7,0.4,1.7,0.4v0.4h0.2v-0.2c0,0,2-0.2,2.1-0.2
					c0.101,0,0.301,0.1,0.2-0.1c-0.1-0.2,0.2-0.2,0.2-0.1c0,0.1,0.2,0,0.2-0.1c0-0.1,0.3-0.2,0.3-0.1s0.2,0.2,0.2,0
					c0-0.2,0.2-0.2,0.3-0.1s0.2,0,0.2-0.1s0.2-0.2,0.3-0.1c0.1,0.1,0.3,0.1,0.3-0.1c0-0.2,0.101-0.2,0.2-0.1s0.2,0,0.3-0.1
					c-0.1-0.2,0.2-0.2,0.2-0.1s0.3,0.1,0.3-0.1c0-0.2,0.2-0.2,0.2-0.1c0,0.1,0.2,0.1,0.2-0.1c0-0.2,0.1-0.2,0.2-0.1
					c0.1,0.1,0.3,0.1,0.3-0.1s0.2-0.1,0.3,0s0.2,0.1,0.2-0.1c0-0.2,0.3-0.2,0.3-0.1c0,0.1,0.2,0.1,0.2-0.1c0-0.2,0.2-0.2,0.2-0.1
					s0.3,0,0.3-0.1s0.2-0.2,0.3-0.1s0.3,0,0.3-0.1c0-0.1,0.2-0.1,0.3,0c0.101,0.1,0.2-0.1,0.2-0.2s0.2-0.1,0.3,0
					c0.101,0.1,0.2-0.1,0.2-0.2s0.3-0.1,0.4-0.1c0.1,0,0.3-0.2,0.5-0.3s0.2,0.1,0.3,0.2c0.1,0.1,0.3,0,0.2-0.1
					c-0.101-0.1,0.1-0.5,0.1-0.5s-0.2-0.1-0.3-0.2s0.1-0.4,0.2-0.7c0.1-0.3,0.1-0.6,0-0.7c-0.3-0.3-0.7-1.4-0.7-1.8
					c0-0.4-0.3-6.4-0.4-7.4c-0.1-1,0.601-1.2,0.9-1.3s3.4-1.2,3.4-1.2s-0.7-12.5-0.7-12.6c0-0.1,0.1-0.2,0.1-0.2l0.8-0.3
					c0,0,0.5-0.2,1.2-0.4c0.7-0.2,0.8-0.6,0.7-0.8s-0.5-0.2-0.7-0.1s-1.7,0.5-1.8,0.6s-0.3,0.1-0.3,0.1l-0.101-1
					c0,0,1.9-0.8,2.301-0.9c0.399-0.1,0.5-0.3,0.399-0.6c-0.1-0.3-0.5-0.3-0.7-0.2c-0.199,0.1-1.3,0.5-1.6,0.6s-0.5,0.2-0.5,0.1
					s0-0.8,0-0.9c0-0.1,0.1-0.1,0.1-0.1s0.5-0.3,0.601-0.3c0.1,0,1-0.5,1.5-0.6c0.5-0.1,0.5-0.3,0.5-0.5c0-0.2-0.4-0.4-0.601-0.3
					c-0.199,0.1-2.199,0.8-2.199,0.8s0.1-0.8,0-1c0-0.2,0.699-0.5,0.699-0.5l5.5-2l0.2-0.1v-0.1l2.4-0.2v0.2h0.6
					c0.101,0,0.3,0.1,0.3,0.2c0,0.1,0.4,8,0.4,8.2c0,0.2-0.1,0.2-0.2,0.2c-0.1,0-0.6,0-0.6,0v0.4h0.3h0.3l0.3,0.2v0.4h1l0.801,0.3
					v1.6l-1.5,0.7l0.6,12.4l-0.1,0.1l0.3,5.2l0.1-0.1l0.5,10.1h0.7l0.4,0.3l0.199,3.8l0.4,0.2l0.1,0.8l0.4,0.3v0.3l-1.5,0.1
					l-0.2-0.2h-0.2v0.3l-1.399,0.6c0,0-0.4,0.601-0.4,0.801c0,0.199,0.101,0.4,0.3,0.6c0.2,0.2,0.2,0.6-0.1,0.9
					C472.7,253.8,472.5,253.699,472.3,253.6L472.3,253.6z M463.5,238.1c0.7-0.2,1.4-0.4,1.7-0.7c0.3-0.3,0.2-0.9,0.2-1.4h0.199
					l-0.1-1.4h-0.3c0,0-0.9,0.3-1.601,0.4c-0.399,0.1-1,0-1.5-0.2c-0.1,0.1-0.1,0.3-0.1,0.3c0,0.1,0,0.1,0.1,0.1
					c0.101,0,0.101,0.2,0,0.1c-0.1-0.1-0.5-0.2-0.6-0.3s0,0,0.1,0c0.101,0,0.2,0,0.2-0.1c0,0,0.101-0.1,0.2-0.2
					c-0.5-0.3-1-0.6-1.2-1.3c-0.2-0.8-0.2-1.2-0.1-1.2c0.1,0,0.1,0.5,0.3,0.9s0.9,1,1.6,1.1c0.7,0.1,1.601-0.2,1.801-0.3
					c0.199-0.1,0.3-0.3,0.399-0.3c0.101,0,0.4,0,0.4,0l-0.2-5.1c0,0-0.4,0.1-0.7,0.1s-0.7-0.2-0.7-0.6s-0.1-1.1-0.1-1.1
					s-2.6,1-2.9,1.1c-0.3,0.1-0.8,0.4-0.8,1s0.101,2.5,0.101,2.6s0.3,0.6,0.3,1.2c0,0.6-0.2,0.9-0.2,1.2s0.1,1.3,0.1,1.7
					c0,0.4,0.5,1.7,1.301,2.1C462.2,238.2,462.8,238.3,463.5,238.1L463.5,238.1z"/>
                    </g>
                  </g>
                </g>
              </g>
            </g>
          </g>
          <g>
            <path style="fill:#222;stroke:#222;stroke-width:12;stroke-linecap:round;stroke-miterlimit:10;" d="M513.1,269.9
						c-11-0.4-19.699-9.601-19.3-20.601c0.4-11,9.7-19.7,20.7-19.3s19.7,9.6,19.3,20.6C533.4,261.6,524.1,270.3,513.1,269.9z"/>
          </g>
        </g>
      </g>
      <g>

        <line style="fill:none;stroke:#222;stroke-width:12;stroke-linecap:round;stroke-miterlimit:10;" x1="480.5"
              y1="325" x2="432.2" y2="311.6"/>
        <g>

          <line style="fill:none;stroke:#222;stroke-width:12;stroke-linecap:round;stroke-miterlimit:10;" x1="432.2"
                y1="311.6" x2="387.3" y2="334"/>
        </g>
      </g>
      <g>

        <line style="fill:none;stroke:#222;stroke-width:12;stroke-linecap:round;stroke-miterlimit:10;" x1="480.5"
              y1="325" x2="441.3" y2="293.7"/>
        <g>

          <line style="fill:none;stroke:#222;stroke-width:12;stroke-linecap:round;stroke-miterlimit:10;" x1="441.3"
                y1="293.7" x2="413.1" y2="335.1"/>
        </g>
      </g>
    </g>
    <!--ninja guy-->
    <g opacity="0">
      <line style="fill:none;stroke:#222;stroke-width:3;stroke-linecap:round;stroke-miterlimit:10;opacity: 0.3" x1="810"
            y1="120" x2="890" y2="120">
      </line>
      <line style="fill:none;stroke:#222;stroke-width:3;stroke-linecap:round;stroke-miterlimit:10;opacity: 0.3" x1="840"
            y1="90" x2="900" y2="90">
      </line>
      <line style="fill:none;stroke:#222;stroke-width:3;stroke-linecap:round;stroke-miterlimit:10;opacity: 0.3" x1="800"
            y1="200" x2="850" y2="200">
      </line>
      <line style="fill:none;stroke:#222;stroke-width:3;stroke-linecap:round;stroke-miterlimit:10;opacity: 0.3" x1="820"
            y1="145" x2="870" y2="145">
      </line>
      <animateTransform id="ninjaAirLines" attributeName="transform" type="translate" begin="indefinite" dur="1s"
                        to="200 0" calcMode="spline" keySplines="0.86 0 0.07 1"/>
      <animate id="ninjaAirLinesOpacity" attributeName="opacity" attributeType="XML" dur="0.5s" to="1"
               begin="indefinite" fill="freeze"></animate>
      <animate attributeName="opacity" attributeType="XML" dur="0.5s" to="0" begin="ninjaAirLinesOpacity.end"
               fill="freeze"></animate>
    </g>

    <g id="ninja"
       onmouseover="stickmanAnimStart('ninja', ['ninjaBody', 'ninjaHeadband1', 'ninjaHeadband2', 'ninjaAirLines', 'ninjaAirLinesOpacity'])">
      <animateTransform id="ninjaBody" attributeName="transform" type="translate" begin="indefinite" dur="1.5s"
                        values="0 0;0 10; 0 -10;00"
                        keyTimes="0;0.33;0.66;1" calcMode="spline"
                        keySplines="0.215 0.61 0.355 1;0.215 0.61 0.355 1;0.215 0.61 0.355 1"
                        onend="stickmanAnimEnd('ninja')"/>
      <line style="fill:none;stroke:#222;stroke-width:12.4;stroke-linecap:round;stroke-miterlimit:10;" x1="943.5"
            y1="159" x2="943.5" y2="159"/>
      <g>

        <line style="fill:none;stroke:#222;stroke-width:15.5;stroke-linecap:round;stroke-miterlimit:10;" x1="943.5"
              y1="159" x2="970.2" y2="134.2"/>
        <g>

          <line style="fill:none;stroke:#222;stroke-width:14.4;stroke-linecap:round;stroke-miterlimit:10;" x1="970.2"
                y1="134.2" x2="977.9" y2="112.8"/>
          <g>

            <line style="fill:none;stroke:#222;stroke-width:14.4;stroke-linecap:round;stroke-miterlimit:10;" x1="977.9"
                  y1="112.8" x2="971.4" y2="97.5"/>
            <g>

              <line style="fill:none;stroke:#222;stroke-width:15.5;stroke-linecap:round;stroke-miterlimit:10;"
                    x1="971.4" y1="97.5" x2="931.8" y2="112.9"/>
              <g>

                <line style="fill:none;stroke:#222;stroke-width:15.5;stroke-linecap:round;stroke-miterlimit:10;"
                      x1="931.8" y1="112.9" x2="899.7" y2="106.6"/>
              </g>
            </g>
            <g>

              <line style="fill:none;stroke:#222;stroke-width:15.5;stroke-linecap:round;stroke-miterlimit:10;"
                    x1="971.4" y1="97.5" x2="1012.7" y2="107.3"/>
              <g>

                <line style="fill:none;stroke:#222;stroke-width:15.5;stroke-linecap:round;stroke-miterlimit:10;"
                      x1="1012.7" y1="107.3" x2="982.1" y2="118.8"/>
              </g>
            </g>
            <g>
              <line style="fill:none;" x1="971.4" y1="97.5" x2="965.2" y2="83.2"/>
              <g>
                <!--head-->
                <path style="fill:#FFFFFF;stroke:#222;stroke-width:6.2;stroke-linecap:round;stroke-miterlimit:10;" d="M965.2,83.2
								C954.1,89,940.6,85,934.8,73.9s-1.6-24.7,9.5-30.5c11.101-5.8,24.5-1.7,30.3,9.4C980.4,63.9,976.3,77.4,965.2,83.2z"/>
                <g>
                  <line style="fill:none;" x1="944.3" y1="43.4" x2="975" y2="53.3"/>
                  <g>
                    <!--headband1-->
                    <animateTransform id="ninjaHeadband1" attributeName="transform" type="rotate" begin="indefinite"
                                      dur="1.5s"
                                      values="0 975 53.3;-30 975 53.3;10 975 53.3;0 975 53.3"
                                      keyTimes="0;0.33;0.66;1" calcMode="spline"
                                      keySplines="0.215 0.61 0.355 1;0.215 0.61 0.355 1;0.215 0.61 0.355 1"/>
                    <path
                        style="fill:#FFFFFF;fill-opacity:0;stroke:#222;stroke-width:6;stroke-linecap:round;stroke-miterlimit:10;"
                        d="
										M975,53.3c11.9-10,47.4,1.7,47.4,1.7"/>
                  </g>
                  <g>
                    <!--headband2-->
                    <animateTransform id="ninjaHeadband2" attributeName="transform" type="rotate" begin="indefinite"
                                      dur="1.5s"
                                      values="0 975 53.3;-15 975 53.3;10 975 53.3;0 975 53.3"
                                      keyTimes="0;0.33;0.66;1" calcMode="spline"
                                      keySplines="0.215 0.61 0.355 1;0.215 0.61 0.355 1;0.215 0.61 0.355 1"/>
                    <path
                        style="fill:#FFFFFF;fill-opacity:0;stroke:#222;stroke-width:5.7;stroke-linecap:round;stroke-miterlimit:10;"
                        d="
										M975,53.3c-0.5-26.1,41.8-14.8,41.8-14.8"/>
                  </g>
                  <g>
                    <line style="fill:none;stroke:#222;stroke-width:6.2;stroke-miterlimit:10;" x1="975" y1="53.3"
                          x2="932.6" y2="68.9"/>
                  </g>
                </g>
              </g>
            </g>
          </g>
        </g>
      </g>
      <!--left leg-->
      <g>

        <line style="fill:none;stroke:#222;stroke-width:22.7;stroke-linecap:round;stroke-miterlimit:10;" x1="943.5"
              y1="159" x2="895.8" y2="160.6"/>
        <g>

          <line style="fill:none;stroke:#222;stroke-width:22.7;stroke-linecap:round;stroke-miterlimit:10;" x1="895.8"
                y1="160.6" x2="842.6" y2="165.5"/>
          <g>

            <line style="fill:none;stroke:#222;stroke-width:22.7;stroke-linecap:round;stroke-miterlimit:10;" x1="842.6"
                  y1="165.5" x2="832.6" y2="156.7"/>
          </g>
        </g>
      </g>
      <g>

        <line style="fill:none;stroke:#222;stroke-width:22.7;stroke-linecap:round;stroke-miterlimit:10;" x1="943.5"
              y1="159" x2="989.8" y2="171"/>
        <g>

          <line style="fill:none;stroke:#222;stroke-width:22.7;stroke-linecap:round;stroke-miterlimit:10;" x1="989.8"
                y1="171" x2="942.2" y2="195.2"/>
          <g>

            <line style="fill:none;stroke:#222;stroke-width:22.7;stroke-linecap:round;stroke-miterlimit:10;" x1="942.2"
                  y1="195.2" x2="942.7" y2="208.4"/>
          </g>
        </g>
      </g>
    </g>
    <!--midget stickman-->
    <g id="midget"
       onmouseover="stickmanAnimStart('midget', ['midgetLeftArm', 'midgetRightHand', 'midgetRightLeg', 'midgetLeftLeg', 'midgetHead', 'midgetRightFoot'])">
      <line style="fill:none;stroke:#222;stroke-width:24;stroke-linecap:round;stroke-miterlimit:10;" x1="800.5" y1="432"
            x2="800.5" y2="432"/>
      <g>

        <line style="fill:none;stroke:#222;stroke-width:24;stroke-linecap:round;stroke-miterlimit:10;" x1="800.5"
              y1="432" x2="799.3" y2="410.6"/>
        <g>

          <line style="fill:none;stroke:#222;stroke-width:24;stroke-linecap:round;stroke-miterlimit:10;" x1="799.3"
                y1="410.6" x2="800.1" y2="387.6"/>
          <g>
            <animateTransform id="midgetLeftArm" attributeName="transform" type="rotate" begin="indefinite" dur="0.8s"
                              values="0 800.1 387.6;45 800.1 387.6;0 800.1 387.6"
                              keyTimes="0;0.5;1" calcMode="spline" keySplines="0.215 0.61 0.355 1;0.215 0.61 0.355 1"
                              onend="stickmanAnimEnd('midget')"/>
            <!--left arm-->
            <line style="fill:none;stroke:#222;stroke-width:24;stroke-linecap:round;stroke-miterlimit:10;" x1="800.1"
                  y1="387.6" x2="774.5" y2="390">

            </line>
            <g>
              <!--left hand-->
              <line style="fill:none;stroke:#222;stroke-width:24;stroke-linecap:round;stroke-miterlimit:10;" x1="774.5"
                    y1="390" x2="757.6" y2="385.8"/>
            </g>
          </g>
          <g>
            <!--right arm-->
            <line style="fill:none;stroke:#222;stroke-width:24;stroke-linecap:round;stroke-miterlimit:10;" x1="800.1"
                  y1="387.6" x2="824.6" y2="380.2"/>
            <g>
              <!--right hand-->
              <animateTransform id="midgetRightHand" attributeName="transform" type="rotate" dur="0.8s"
                                begin="indefinite"
                                values="0 824.6 380.2;-20 824.6 380.2; 0 824.6 380.2"
                                keyTimes="0;0.5;1" calcMode="spline"
                                keySplines="0.215 0.61 0.355 1;0.215 0.61 0.355 1"/>
              <line style="fill:none;stroke:#222;stroke-width:24;stroke-linecap:round;stroke-miterlimit:10;" x1="824.6"
                    y1="380.2" x2="840.9" y2="373.5">
              </line>
            </g>
          </g>
          <g>

            <line style="fill:none;stroke:#222;stroke-width:24;stroke-linecap:round;stroke-miterlimit:10;" x1="800.1"
                  y1="387.6" x2="800.1" y2="374.4"/>
            <g>
              <!--midget head-->
              <animateTransform id="midgetHead" attributeName="transform" type="rotate" dur="0.8s" begin="indefinite"
                                values="0 800.1 374.4;20 800.1 374.4; 0 800.1 374.4"
                                keyTimes="0;0.5;1" calcMode="spline"
                                keySplines="0.215 0.61 0.355 1;0.215 0.61 0.355 1"/>
              <path style="fill:#222;stroke:#222;stroke-width:17.3;stroke-linecap:round;stroke-miterlimit:10;" d="M800.1,374.4
							c-8.3-0.7-14.5-8-13.8-16.301c0.7-8.3,8-14.5,16.3-13.8c8.301,0.7,14.4,8,13.7,16.3C815.6,368.9,808.4,375.1,800.1,374.4z"/>
            </g>
          </g>
        </g>
      </g>
      <g>
        <!--right thigh-->
        <animateTransform id="midgetRightLeg" attributeName="transform" type="rotate" dur="0.8s" begin="indefinite"
                          values="0 800.5 432.4;120 800.5 432; 0 800.5 432.4"
                          keyTimes="0;0.5;1" calcMode="spline" keySplines="0.215 0.61 0.355 1;0.215 0.61 0.355 1"/>
        <line style="fill:none;stroke:#222;stroke-width:24;stroke-linecap:round;stroke-miterlimit:10;" x1="800.5"
              y1="432" x2="821.3" y2="457.2"/>
        <g>

          <!--right calf-->
          <line style="fill:none;stroke:#222;stroke-width:24;stroke-linecap:round;stroke-miterlimit:10;" x1="821.3"
                y1="457.2" x2="850.1" y2="458.8"/>
          <g>
            <!--right foot-->
            <animateTransform id="midgetRightFoot" attributeName="transform" type="rotate" dur="0.8s" begin="indefinite"
                              values="0 850.1 458.8;-30 850.1 458.8; 0 850.1 458.8"
                              keyTimes="0;0.5;1" calcMode="spline" keySplines="0.215 0.61 0.355 1;0.215 0.61 0.355 1"/>
            <line style="fill:none;stroke:#222;stroke-width:24;stroke-linecap:round;stroke-miterlimit:10;" x1="850.1"
                  y1="458.8" x2="844.8" y2="466.5"/>
          </g>
        </g>
      </g>
      <g>
        <animateTransform id="midgetLeftLeg" attributeName="transform" type="rotate" dur="0.8s" begin="indefinite"
                          values="0 800.5 432;-115 800.5 432; 0 800.5 432"
                          keyTimes="0;0.5;1" calcMode="spline" keySplines="0.215 0.61 0.355 1;0.215 0.61 0.355 1"/>
        <line style="fill:none;stroke:#222;stroke-width:24;stroke-linecap:round;stroke-miterlimit:10;" x1="800.5"
              y1="432" x2="775.8" y2="453.4"/>
        <g>

          <line style="fill:none;stroke:#222;stroke-width:24;stroke-linecap:round;stroke-miterlimit:10;" x1="775.8"
                y1="453.4" x2="763.4" y2="479.4"/>
          <g>

            <line style="fill:none;stroke:#222;stroke-width:24;stroke-linecap:round;stroke-miterlimit:10;" x1="763.4"
                  y1="479.4" x2="755.1" y2="475"/>
          </g>
        </g>
      </g>
    </g>
    <!--disapainted text-->
    <g>
      <g>

        <line style="display:none;fill:none;stroke:#222;stroke-width:27.7;stroke-linecap:round;stroke-miterlimit:10;"
              x1="505.5" y1="363" x2="1117" y2="364"/>
        <g id="Layer_1_2_">
          <path style="fill:#222;stroke:#222;stroke-width:2;stroke-miterlimit:10;" d="M554.6,279.5l0.101-38.4
					c0-2.5,1.899-4.4,4.399-4.4s4.4,1.9,4.4,4.4l-0.1,68.7c0,18.3-11.4,27.2-27.2,27.2c-17.9,0-28.3-10.7-28.3-33.4
					c0-22.699,10-33.1,27.899-33.1C544.7,270.5,551.4,275.1,554.6,279.5L554.6,279.5z M554.6,290.7c0,0-5.3-12.2-18.3-12.2
					c-12.6,0-19.5,8.1-19.5,25.1c0,17.301,6.7,25.4,19.4,25.4c10.7,0,18.3-6,18.3-19.2L554.6,290.7z"/>
          <path style="fill:#222;stroke:#222;stroke-width:2;stroke-miterlimit:10;" d="M580.5,253.1c0-4,2-5.5,5.3-5.5
					s5.2,1.5,5.2,5.5c0,3.301-1.9,5.301-5.2,5.301S580.5,256.4,580.5,253.1L580.5,253.1z M590.2,275.8c0-2.5-2-4.399-4.5-4.399
					s-4.4,1.899-4.4,4.399l-0.1,56.2c0,2.5,1.899,4.4,4.399,4.4s4.5-1.9,4.5-4.4L590.2,275.8z"/>
          <path style="fill:#222;stroke:#222;stroke-width:2;stroke-miterlimit:10;" d="M615.5,287.5c0,14.5,36.3,9.2,36.3,31.3
					c0,12.601-10.399,18.2-23.5,18.2c-11.399,0-20.1-5.4-23.7-10c-0.699-1-0.899-1.6-0.899-2.6c0-2.2,1.8-4,4-4
					c0.8,0,1.899,0.3,3,1.399c4.3,4.3,9.8,6.8,17.6,6.8c7.9,0,14.7-2.6,14.7-9.8c0-14.3-36.4-8.6-36.4-31.3
					c0-11.5,9.4-16.8,21.2-16.8c9.4,0,16.8,3.2,21.101,8.899c0.399,0.601,0.899,1.5,0.899,2.7c0,2.2-1.8,4-4,4
					c-0.7,0-1.8-0.2-2.899-1.3c-3.7-3.6-7.9-5.8-15.101-5.8C621.6,279.2,615.5,281.1,615.5,287.5L615.5,287.5z"/>
          <path style="fill:#222;stroke:#222;stroke-width:2;stroke-miterlimit:10;" d="M673.9,286c-1.4,1.5-2.4,2-3.601,2
					c-2.2,0-4-1.8-4-4c0-1,0.3-1.7,0.7-2.4c3.9-6.1,11.4-10.899,23-10.899c16.1,0,24.9,9.5,24.9,23.6l-0.101,38
					c0,2.4-1.899,4.3-4.3,4.3s-4.3-1.899-4.3-4.3v-5c-3.5,6.5-11.5,10-19.8,10c-14.7,0-23.9-7.2-23.9-19.899
					c0-12.2,9.4-19.4,24.3-19.4h19.5v-3.7c0-9.399-6.2-15.3-16.3-15.3C682.7,279,678.2,281.2,673.9,286L673.9,286z M706.2,311.6
					l0.1-5.899h-19.6c-9,0-15.2,3.8-15.2,11.8c0,7.2,5,11.7,15.8,11.7C697,329.2,706.2,323.4,706.2,311.6z"/>
          <path style="fill:#222;stroke:#222;stroke-width:2;stroke-miterlimit:10;" d="M740.4,276v4.5c2.6-4.7,9.5-9.7,18.8-9.7
					c18,0,28.899,10.601,28.899,33.3c0,22.7-11,33.301-29,33.301c-9.3,0-15.899-5-18.8-9.7l-0.1,31.3c0,2.4-2,4.4-4.4,4.4
					c-2.399,0-4.399-2.101-4.399-4.5l0.1-82.9c0-2.5,2-4.4,4.4-4.4C738.3,271.6,740.4,273.5,740.4,276L740.4,276z M759.1,329.4
					c12.7,0,20-8,20-25.301c0-17.3-7.5-25.3-20.199-25.3c-10.2,0-18.9,7.2-18.9,25.2C740,321.9,748.3,329.4,759.1,329.4L759.1,329.4
					z"/>
          <path style="fill:#222;stroke:#222;stroke-width:2;stroke-miterlimit:10;" d="M809,286.3c-1.4,1.5-2.4,1.9-3.6,1.9
					c-2.2,0-4-1.8-4-4c0-1,0.3-1.7,0.699-2.4c3.9-6.1,11.4-10.899,23-10.899c16.101,0,24.9,9.5,24.9,23.6l-0.1,38.1
					c0,2.4-1.9,4.2-4.301,4.2c-2.399,0-4.3-1.899-4.3-4.3v-4.9c-3.5,6.5-11.5,9.9-19.8,9.9c-14.7,0-23.9-7.1-23.9-19.8
					c0-12.2,9.4-19.5,24.301-19.5h19.5v-3.7c0-9.4-6.2-15.3-16.301-15.3C817.8,279.2,813.3,281.5,809,286.3L809,286.3z M841.3,311.8
					l0.101-5.8l-19.601-0.1c-9,0-15.2,3.8-15.2,11.8c0,7.2,5,11.8,15.801,11.8C832.1,329.5,841.3,323.6,841.3,311.8L841.3,311.8z"/>
          <path style="fill:#222;stroke:#222;stroke-width:2;stroke-miterlimit:10;" d="M865.7,253.5c0-4,1.899-5.5,5.2-5.5
					c3.3,0,5.3,1.6,5.3,5.6c0,3.301-2,5.2-5.3,5.2C867.6,258.8,865.7,256.8,865.7,253.5z M875.3,276.3c0-2.5-1.899-4.5-4.399-4.5
					s-4.4,1.9-4.4,4.4l-0.1,56.2c0,2.5,1.899,4.5,4.399,4.5s4.4-1.9,4.4-4.4L875.3,276.3z"/>
          <path style="fill:#222;stroke:#222;stroke-width:2;stroke-miterlimit:10;" d="M946,295.6v37c0,2.5-2,4.4-4.5,4.4
					s-4.4-1.9-4.4-4.4L937.2,297.4c0-10.9-3.2-18.4-16.601-18.4c-13.699,0-18.5,8.2-18.5,19.3v34.2c0,2.5-2,4.4-4.5,4.4
					s-4.399-1.9-4.399-4.4l0.1-56.2c0-2.5,2-4.399,4.5-4.399s4.4,1.899,4.4,4.399v4.4c2.6-5.3,9.399-9.601,18.399-9.601
					C941.9,271.1,946,283.8,946,295.6L946,295.6z"/>
          <path style="fill:#222;stroke:#222;stroke-width:2;stroke-miterlimit:10;" d="M966.2,258.6c0-2.399,2-4.5,4.399-4.5
					c2.5,0,4.4,2.101,4.4,4.5v14.5h9c2.4,0,4.1,1.801,4.1,4.2c0,2.4-1.699,4.101-4.1,4.101h-9l-0.1,38.199c0,6,3.3,9.2,8,9.2
					c2.399,0,4.3,1.7,4.3,4.101c0,2.399-1.9,4.199-4.3,4.199c-10.9,0-16.801-7.399-16.801-17.5V281.4H960.7
					c-2.4,0-4.101-1.801-4.101-4.2c0-2.4,1.7-4.101,4.101-4.101h5.399L966.2,258.6L966.2,258.6z"/>
          <path style="fill:#222;stroke:#222;stroke-width:2;stroke-miterlimit:10;" d="M1025.7,271.2
					c22.1,0,26.399,17.7,26.399,27.1c0,4-0.1,8.8-5.6,8.8h-40.4c0,13.7,7.801,22.601,20.801,22.601c8,0,12.8-3.101,16.699-6
					c0.801-0.601,1.4-0.8,2.5-0.8c2.2,0,4,1.8,4,4c0,1.5-0.8,2.399-1.6,3.199c-2.1,2.101-9.3,7.7-21.6,7.7
					c-18.4,0-29.801-10.1-29.801-33.399C997.1,283.1,1007.7,271.2,1025.7,271.2L1025.7,271.2z M1025.6,279.3
					c-12,0-18.699,7.7-19.5,20l37.2,0.101C1043.3,289.4,1039.9,279.3,1025.6,279.3z"/>
          <path style="fill:#222;stroke:#222;stroke-width:2;stroke-miterlimit:10;" d="M1108.3,280.4V242c0-2.5,2-4.4,4.5-4.4
					s4.4,2,4.4,4.5l-0.101,68.6c0,18.3-11.399,27.2-27.199,27.2c-17.9,0-28.301-10.7-28.301-33.4s10-33.1,27.9-33.1
					C1098.4,271.4,1105.1,276,1108.3,280.4L1108.3,280.4z M1108.3,291.6c0,0-5.3-12.199-18.3-12.199c-12.6,0-19.5,8.1-19.5,25.1
					c0,17.3,6.7,25.4,19.4,25.4c10.699,0,18.3-6,18.3-19.2L1108.3,291.6z"/>
          <circle id="yellowDot" class="dp-text-dot" style="fill:#FFCC00;" cx="871.3" cy="253.099" r="11.3">
            <animate attributeName="r" dur="400ms" attributeType="XML" begin="yellowDot.mouseover" to="20" fill="freeze"
                     keyTimes="0;1" calcMode="spline" keySplines="0.215 0.61 0.355 1"></animate>
            <animate attributeName="r" dur="200ms" attributeType="XML" begin="yellowDot.mouseleave" to="11.3"
                     fill="freeze"></animate>
          </circle>
          <circle id="redDot" class="dp-text-dot" style="fill:#E61A66;" cx="585.2" cy="252.599" r="11.3">
            <animate attributeName="r" dur="400ms" attributeType="XML" begin="redDot.mouseover" to="20" fill="freeze"
                     keyTimes="0;1" calcMode="spline" keySplines="0.215 0.61 0.355 1"></animate>
            <animate attributeName="r" dur="200ms" attributeType="XML" begin="redDot.mouseleave" to="11.3"
                     fill="freeze"></animate>
          </circle>
        </g>
      </g>
    </g>
  </g>
</svg>
