<?xml version="1.0" encoding="utf-8"?>
<!-- Generator: Adobe Illustrator 16.0.0, SVG Export Plug-In . SVG Version: 6.00 Build 0)  -->
<!DOCTYPE svg PUBLIC "-//W3C//DTD SVG 1.1//EN" "http://www.w3.org/Graphics/SVG/1.1/DTD/svg11.dtd">
<svg version="1.1" id="Layer_1" xmlns="http://www.w3.org/2000/svg" xmlns:xlink="http://www.w3.org/1999/xlink" x="0px" y="0px"
	 width="154.198px" height="176.704px" viewBox="0 0 154.198 176.704" style="enable-background:new 0 0 154.198 176.704;"
	 xml:space="preserve">
<g>
	<path style="fill:#141112;" d="M123.827,58.021c30.115,18.657,39.403,58.197,20.745,88.312
		c-18.655,30.115-58.194,39.402-88.31,20.748c-30.117-18.66-39.405-58.198-20.747-88.315
		C54.174,48.651,93.712,39.364,123.827,58.021z"/>
	
		<rect x="17.453" y="64.153" transform="matrix(0.5267 -0.8501 0.8501 0.5267 -48.1631 70.3697)" style="fill:#141112;" width="43.307" height="28.56"/>
	<g>
		<path style="fill:#141112;" d="M20.144,27.605c-1.662,1.359-4.109,3.46-6.303,6.884c-0.513,0.869-1.117,1.768-1.551,2.801
			c-0.234,0.511-0.475,1.033-0.717,1.565c-0.192,0.555-0.385,1.123-0.583,1.697c-0.098,0.292-0.195,0.586-0.293,0.882
			c-0.072,0.304-0.145,0.607-0.217,0.917c-0.14,0.618-0.29,1.251-0.415,1.898c-0.154,1.299-0.367,2.654-0.342,4.05
			c0.111,6.544,2.703,14.139,6.41,19.561c2.39,3.496,6.6,10.043,10.637,11.961c0.105,0.057,1.428-2.527,1.533-2.475l2.514-6.426
			c-0.689-0.519-1.356-1.096-2.053-1.645c-0.855-0.804-1.761-1.571-2.577-2.465c-1.669-1.741-3.274-3.649-4.64-5.776
			c-2.729-4.24-4.523-8.758-5.063-13.083c-0.197-1.079-0.195-2.138-0.277-3.185c0.013-0.521,0.024-1.035,0.037-1.542
			c0.006-0.256,0.012-0.51,0.017-0.763c0.03-0.248,0.059-0.494,0.087-0.74c0.053-0.498,0.104-0.986,0.156-1.466
			c0.094-0.476,0.188-0.943,0.28-1.401c0.14-0.938,0.452-1.789,0.679-2.639c1.042-3.367,2.547-5.968,3.608-7.77
			c1.175-1.757,1.828-2.735,1.828-2.735S21.906,26.327,20.144,27.605z"/>
	</g>
	<path style="fill:#141112;" d="M34.845,20.578c1.281-0.159,2.557-0.513,3.771-0.882c-2.397-0.578-9.128,1.197-9.936,3.954
		c1.316,1.154,3.196,1.755,4.816,1.753c-0.823,0.021-1.755,0.379-2.435,0.483c0.799,0.229,1.652,0.978,2.189,1.227
		c-1.151,0.511-2.604,0.484-3.852,0.568c-0.158,0.19,0.158,0.291,0.033,0.505c-1.294-0.257-2.884-0.817-4.166-0.234
		c0.407,0.58,0.543,1.497,1.078,2.078c-1.166-0.504-2.374-0.964-3.565-1.362c-0.516,2.101,7.634,7.393,9.553,5.656l-0.121-0.077
		c0.613-0.098,1.137-0.39,1.471-0.973c-1.188-1.385-3.163-1.975-4.406-3.118c1.531,0.258,2.934,0.816,4.384,1.356
		c-0.523-0.615-0.84-1.839-1.229-2.409c2.11,0.114,4.762,1.513,6.857,0.794c-0.226-0.41-0.339-0.845-0.513-1.24
		c2.489-1.372,6.577-0.117,9.353,0.359c-1.377-0.537-2.605-1.354-3.56-2.451c1.89-1.058,4.499,0.091,6.693-0.605
		c-4.99-2.369-10.699-0.634-15.707-2.183c1.201,0.278,2.507,0.345,3.702,0.195c-1.481-0.491-3.147-0.633-4.611-1.261
		c1.698-0.471,3.354-1.103,5.04-1.606C38.155,20.507,36.471,20.367,34.845,20.578z"/>
	<path style="fill:#141112;" d="M31.983,6.045c-0.379,0.378-0.766,0.958-1.146,1.589c-0.82,0.225-1.593,0.628-2.264,1.184
		c0.858-0.706,1.082-1.644,1.549-2.545c-0.613,0.019-1.372-0.388-2.114-0.247c0.653-0.958,1.191-2.104,1.531-3.271
		c-0.466,0.038-1.283-0.243-1.851-0.133c0.966-0.74,1.028-1.642,1.596-2.591c-5.841-0.67-6.854,9.644-5.595,13.404
		c1.291-1.232,2.402-2.881,4.014-3.53c-1.046,2.734,0.348,5.334-2.251,7.502c0.691-0.616,1.691-0.837,2.406-1.209
		c0.003,2.563-3.717,2.723-4.336,5.442c0.526,0.426,1.188,0.53,1.762,0.548c-0.057,0.107-0.114,0.215-0.174,0.32
		c1.119-0.454,2.272-1.066,3.33-1.799l-0.977,0.882c2.839-1.018,5.287-4.305,7.375-6.606c-1.564,0.685-3.063,1.79-4.557,2.685
		c1.222-1.224,2.887-2.415,3.529-4.048c-0.884,0.021-1.928-0.315-2.896,0.097c0.832-0.709,2.291-1.265,3.008-2.092
		c0.68-0.786,0.188-1.905,0.779-2.631c2.546-3.134,7.409-4.337,9.055-8.218C40.91-0.639,33.949,4.081,31.983,6.045z"/>
	<g>
		<path style="fill:#141112;" d="M13.276,18.278c-0.146-0.16-0.294-0.32-0.438-0.479c-0.498-0.321-1.007-0.638-1.507-0.909
			C12.042,17.588,12.477,17.807,13.276,18.278z"/>
		<path style="fill:#141112;" d="M18.066,14.591c-1.607-1.093-2.758-2.746-4.272-3.954c0.816,1.055,1.636,2.301,2.149,3.432
			C9.737,12.654,5.799,5.337,0,3.025c3.919,5.22,8.441,9.944,12.838,14.773c0.428,0.28,0.847,0.563,1.236,0.835
			c-4.02-0.958-8.093-0.955-12.173-2.797c2.873,2.659,5.769,5.016,9.497,6.362c-0.597-0.231-1.315-0.335-1.723-0.427
			c0.725,0.388,1.338,0.991,1.969,1.415c-0.468-0.038-0.906-0.046-1.398-0.128c1.912,0.816,5.384,1.484,7.707,0.542
			c0.313,0.077,0.612,0.094,0.861-0.03c0.542-0.265,0.752-0.698,0.78-1.21c0.317-0.44,0.555-0.968,0.656-1.622l-0.941,0.087
			c-0.354-1.034-0.904-2.092-0.93-2.74c0.957,0.496,2.117,0.681,2.938,1.388c-0.696-0.897-0.957-2.109-1.336-3.055
			c0.671,0.354,1.619,0.43,2.285,0.792c-1.534-4.447-5.048-9.7-9.059-12.063C15.283,8.095,16.923,11.255,18.066,14.591z"/>
	</g>
	<path style="fill:#FFFFFF;" d="M40.372,136.311c0,0,45.918,45.245,90.699,3.457c0,0-16.578,26.758-55.396,21.959
		c0,0,21.099,18.568,66.341-24.691c0,0-14.483,22.164-35.528,31.068C86.498,176.563,60.446,172.797,40.372,136.311z"/>
</g>
</svg>
