<?xml version="1.0" encoding="utf-8"?>
<!-- Generator: Adobe Illustrator 16.0.0, SVG Export Plug-In . SVG Version: 6.00 Build 0)  -->
<!DOCTYPE svg PUBLIC "-//W3C//DTD SVG 1.1//EN" "http://www.w3.org/Graphics/SVG/1.1/DTD/svg11.dtd">
<svg version="1.1" id="Layer_1" xmlns="http://www.w3.org/2000/svg" xmlns:xlink="http://www.w3.org/1999/xlink" x="0px" y="0px"
	 width="128.373px" height="81.344px" viewBox="-1.475 -20.637 128.373 81.344"
	 style="enable-background:new -1.475 -20.637 128.373 81.344;" xml:space="preserve">
<g>
	<path style="fill:#B8E152;" d="M37.673-7.053C23.933-3.422,15.737,10.66,19.368,24.4C23,38.141,37.082,46.335,50.823,42.705
		c13.74-3.631,21.936-17.713,18.304-31.454C65.496-2.49,51.413-10.685,37.673-7.053z M48.049,32.208
		c-7.943,2.1-16.085-2.639-18.184-10.582c-2.1-7.944,2.638-16.085,10.582-18.185c7.943-2.099,16.084,2.638,18.184,10.583
		C60.73,21.968,55.992,30.109,48.049,32.208z"/>
	<path style="opacity:0.35;fill:#B8E152;" d="M37.673-7.053C23.933-3.422,15.737,10.66,19.368,24.4
		C23,38.141,37.082,46.335,50.823,42.705c13.74-3.631,21.936-17.713,18.304-31.454C65.496-2.49,51.413-10.685,37.673-7.053z
		 M48.049,32.208c-7.943,2.1-16.085-2.639-18.184-10.582c-2.1-7.944,2.638-16.085,10.582-18.185
		c7.943-2.099,16.084,2.638,18.184,10.583C60.73,21.968,55.992,30.109,48.049,32.208z"/>
	<path style="fill:#624F5B;" d="M120.66-5.817c2.187,8.272,6.574,13.723-1.698,15.908L18.827,39.743
		c-8.272,2.186-17.538-5.728-19.725-14l0,0C-3.083,17.47,1.063,6.012,9.335,3.827l101.71-23.691
		c8.272-2.187,8.693,4.176,10.88,12.448L120.66-5.817z"/>
	<path style="fill:#B8E152;" d="M21.582,10.087C7.842,13.718-0.354,27.801,3.278,41.542c3.631,13.741,17.714,21.936,31.454,18.305
		c13.74-3.632,21.936-17.714,18.305-31.454C49.405,14.652,35.323,6.457,21.582,10.087z M31.958,49.349
		c-7.943,2.1-16.085-2.638-18.184-10.581c-2.1-7.944,2.639-16.085,10.582-18.185s16.085,2.639,18.185,10.582
		C44.64,39.109,39.902,47.25,31.958,49.349z"/>
	
		<ellipse transform="matrix(0.9668 -0.2555 0.2555 0.9668 5.3637 29.9504)" style="fill:#624F5B;" cx="117.981" cy="-5.673" rx="8.284" ry="15.32"/>
	
		<ellipse transform="matrix(0.9668 -0.2555 0.2555 0.9668 5.3637 29.9504)" style="opacity:0.27;fill:#624F5B;" cx="117.981" cy="-5.673" rx="8.284" ry="15.32"/>
	
		<ellipse transform="matrix(0.9668 -0.2555 0.2555 0.9668 5.3669 29.9604)" style="fill:#B8E152;" cx="117.98" cy="-5.673" rx="5.874" ry="10.862"/>
</g>
</svg>
