<?xml version="1.0" encoding="utf-8"?>
<!-- Generator: Adobe Illustrator 16.0.0, SVG Export Plug-In . SVG Version: 6.00 Build 0)  -->
<!DOCTYPE svg PUBLIC "-//W3C//DTD SVG 1.1//EN" "http://www.w3.org/Graphics/SVG/1.1/DTD/svg11.dtd">
<svg version="1.1" id="Layer_1" xmlns="http://www.w3.org/2000/svg" xmlns:xlink="http://www.w3.org/1999/xlink" x="0px" y="0px"
	 width="84.509px" height="115.217px" viewBox="20.778 -36.743 84.509 115.217"
	 style="enable-background:new 20.778 -36.743 84.509 115.217;" xml:space="preserve">
<g>
	<g>
		<g>
			<path style="fill:#624F5B;" d="M86.579,48.382c0,16.619-13.473,30.092-30.092,30.092l0,0c-16.62,0-30.092-13.473-30.092-30.092
				V20.175c0-16.619,13.472-30.092,30.092-30.092l0,0c16.619,0,30.092,13.473,30.092,30.092V48.382z"/>
		</g>
		<g>
			<polygon style="fill:#BAE252;" points="87.182,63.865 26.149,63.865 29.84,78.475 83.491,78.475 			"/>
		</g>
		<g>
			<polygon style="fill:#BAE252;" points="92.553,29.789 20.778,29.789 22.912,15.18 90.419,15.18 			"/>
		</g>
		<g>
			<polygon style="fill:#BAE252;" points="90.419,54.886 22.912,54.886 20.778,40.277 92.553,40.277 			"/>
		</g>
		<path style="fill:#624F5B;" d="M105.092,22.449L87.714-20.269c-0.073-0.181-0.165-0.344-0.271-0.497
			c1.189-1.657,1.896-3.682,1.896-5.876c0-5.578-4.523-10.101-10.102-10.101s-10.1,4.522-10.1,10.101s4.521,10.099,10.1,10.099
			c1.41,0,2.752-0.29,3.971-0.812l17.002,41.789c0.415,1.022,1.401,1.643,2.441,1.643c0.33,0,0.666-0.062,0.992-0.194
			C104.992,25.333,105.641,23.796,105.092,22.449z M72.778-26.642c0-3.568,2.893-6.461,6.46-6.461c3.568,0,6.461,2.893,6.461,6.461
			c0,3.567-2.893,6.46-6.461,6.46C75.671-20.182,72.778-23.075,72.778-26.642z"/>
		<path style="fill:#BAE252;" d="M83.491-9.917H66.019v-12.929h10.94c2.098,0,3.799-1.7,3.799-3.797
			c0-2.099-1.701-3.799-3.799-3.799h-10.94v-5.332H46.956v25.856H29.84l-3.69,14.61h61.032L83.491-9.917z"/>
	</g>
	<path style="opacity:0.33;fill:#BAE252;" d="M87.182,63.865h-4.889c1.646-2.739,2.865-5.763,3.573-8.979h4.553l2.134-14.609h-5.974
		V29.789h5.974L90.419,15.18h-4.261c-0.631-3.78-1.963-7.323-3.865-10.486h4.889l-3.69-14.61H66.019v-12.929h3.864
		c1.502,3.694,5.122,6.302,9.355,6.302c1.41,0,2.752-0.29,3.971-0.812l17.002,41.789c0.415,1.022,1.401,1.643,2.441,1.643
		c0.33,0,0.666-0.062,0.992-0.194c1.348-0.549,1.996-2.086,1.447-3.434L87.714-20.269c-0.073-0.181-0.165-0.344-0.271-0.497
		c1.189-1.657,1.896-3.682,1.896-5.876c0-5.578-4.523-10.101-10.102-10.101c-4.232,0-7.853,2.607-9.354,6.302h-3.865v-5.332h-9.353
		V78.475h26.826L87.182,63.865z M76.959-30.441h-2.938c1.174-1.611,3.07-2.662,5.217-2.662c3.568,0,6.461,2.893,6.461,6.461
		c0,3.567-2.893,6.46-6.461,6.46c-2.146,0-4.043-1.052-5.219-2.663h2.939c2.098,0,3.799-1.7,3.799-3.797
		C80.758-28.741,79.057-30.441,76.959-30.441z"/>
</g>
</svg>
