<?xml version="1.0" encoding="utf-8"?>
<!-- Generator: Adobe Illustrator 16.0.0, SVG Export Plug-In . SVG Version: 6.00 Build 0)  -->
<!DOCTYPE svg PUBLIC "-//W3C//DTD SVG 1.1//EN" "http://www.w3.org/Graphics/SVG/1.1/DTD/svg11.dtd">
<svg version="1.1" id="Layer_1" xmlns="http://www.w3.org/2000/svg" xmlns:xlink="http://www.w3.org/1999/xlink" x="0px" y="0px"
	 width="159.516px" height="78.307px" viewBox="-16.584 -17.785 159.516 78.307"
	 style="enable-background:new -16.584 -17.785 159.516 78.307;" xml:space="preserve">
<g>
	<g>
		<polygon style="fill:#786872;" points="37.898,8.568 36.473,19.369 18.727,19.369 18.727,22.879 36.008,22.879 37.898,22.879 
			39.789,22.879 41.678,8.568 		"/>
		<polygon style="fill:#624F5B;" points="-2.183,-4.623 -8.934,-4.623 -7.064,-14.432 -2.183,-14.432 		"/>
		<polygon style="fill:#786872;" points="135.663,1.475 -7.064,1.475 -3.353,-10.721 135.663,-10.721 		"/>
		<polygon style="fill:#FFFFFF;" points="136.989,-10.721 -3.353,-10.721 -2.003,-14.432 136.989,-14.432 		"/>
		<rect x="135.663" y="-8.424" style="fill:#624F5B;" width="7.269" height="9.898"/>
		<rect x="121.69" y="-17.785" style="fill:#624F5B;" width="11.341" height="3.354"/>
		<polygon style="fill:#624F5B;" points="113.001,5.887 110.09,5.887 113.001,-5.492 115.912,-5.492 		"/>
		<polyline style="fill:#624F5B;" points="115.912,5.887 118.824,-5.492 121.734,-5.492 118.824,5.887 		"/>
		<polyline style="fill:#624F5B;" points="121.734,5.887 124.646,-5.492 127.558,-5.492 124.646,5.887 		"/>
		<polygon style="fill:#624F5B;" points="6.997,-14.432 -7.064,-14.432 -6.452,-17.785 6.997,-17.785 		"/>
		<rect x="-0.028" y="-6.957" style="fill:#624F5B;" width="14.051" height="2.932"/>
		<polygon style="fill:#624F5B;" points="17.394,52.871 -9.521,52.871 -3.398,5.887 23.517,5.887 		"/>
		<polygon style="fill:#786872;" points="14.984,49.676 -5.693,49.676 -0.989,13.58 19.688,13.58 		"/>
		<path style="fill:#624F5B;" d="M-10.554,10.297c0,0,8.371,0,8.371,9.182l12.602-7.117L6.997,4.357l-17.551,1.529V10.297z"/>
		<circle style="fill:#624F5B;" cx="6.998" cy="29.379" r="3.421"/>
		<circle style="fill:#624F5B;" cx="5.647" cy="42.16" r="3.421"/>
		<polygon style="fill:#786872;" points="18.991,56.74 -11.839,56.74 -9.521,52.871 17.394,52.871 		"/>
		<rect x="-11.839" y="56.74" style="fill:#624F5B;" width="30.83" height="3.781"/>
		<path style="fill:#624F5B;" d="M-16.584,1.475v8.822h41.428c0.883,2.242,3.055,3.836,5.612,3.836v-2.154
			c-1.013-0.326-1.9-0.92-2.604-1.682H38.86l-1.427,10.801H19.688v3.51H36.97h1.891h1.89l1.891-14.311h93.022V1.475H-16.584z"/>
	</g>
	<polygon style="fill:none;" points="36.473,19.369 37.67,10.297 35.215,10.297 35.215,19.369 	"/>
	<polygon style="fill:#624F5B;" points="-2.183,-13.936 -2.003,-14.432 -2.183,-14.432 	"/>
	<path style="opacity:0.25;fill:#624F5B;" d="M21.76,19.369l1.182-9.072h1.902c0.883,2.242,3.055,3.836,5.612,3.836v-2.154
		c-1.013-0.326-1.9-0.92-2.604-1.682h7.363v-24.729H6.997v-3.354H-6.452l-0.612,3.354l-1.869,9.809h3.725l-1.855,6.098h-9.52v8.822
		h6.03c0,0,3.741,0.006,6.222,2.752l-5.189,39.822l-2.317,3.869v3.781h30.83V56.74l-1.598-3.869l3.684-28.264h14.138v-5.238H21.76z
		 M-2.183-13.936v-0.496h0.18L-2.183-13.936z"/>
</g>
</svg>
