<?xml version="1.0" encoding="utf-8"?>
<!-- Generator: Adobe Illustrator 16.0.0, SVG Export Plug-In . SVG Version: 6.00 Build 0)  -->
<!DOCTYPE svg PUBLIC "-//W3C//DTD SVG 1.1//EN" "http://www.w3.org/Graphics/SVG/1.1/DTD/svg11.dtd">
<svg version="1.1" id="Layer_1" xmlns="http://www.w3.org/2000/svg" xmlns:xlink="http://www.w3.org/1999/xlink" x="0px" y="0px"
	 width="131.943px" height="101.945px" viewBox="-2.132 -29.397 131.943 101.945"
	 style="enable-background:new -2.132 -29.397 131.943 101.945;" xml:space="preserve">
<g>
	<g>
		<polygon style="fill:#786872;" points="68.797,4.912 66.941,18.974 43.838,18.974 43.838,23.544 66.336,23.544 68.797,23.544 
			71.258,23.544 73.719,4.912 		"/>
		<polygon style="fill:#624F5B;" points="16.616,-12.262 7.827,-12.262 10.261,-25.03 16.616,-25.03 		"/>
		<polygon style="fill:#786872;" points="120.348,-4.324 10.261,-4.324 15.093,-20.199 120.348,-20.199 		"/>
		<polygon style="fill:#FFFFFF;" points="122.074,-20.199 15.093,-20.199 16.851,-25.03 122.074,-25.03 		"/>
		<rect x="120.348" y="-17.21" style="fill:#624F5B;" width="9.463" height="12.886"/>
		<rect x="102.158" y="-29.397" style="fill:#624F5B;" width="14.764" height="4.367"/>
		<polygon style="fill:#624F5B;" points="90.846,1.42 87.055,1.42 90.846,-13.394 94.635,-13.394 		"/>
		<polyline style="fill:#624F5B;" points="94.635,1.42 98.426,-13.394 102.215,-13.394 98.426,1.42 		"/>
		<polyline style="fill:#624F5B;" points="102.215,1.42 106.006,-13.394 109.795,-13.394 106.006,1.42 		"/>
		<polygon style="fill:#624F5B;" points="28.568,-25.03 10.261,-25.03 11.058,-29.397 28.568,-29.397 		"/>
		<rect x="19.421" y="-15.301" style="fill:#624F5B;" width="18.293" height="3.816"/>
		<polygon style="fill:#624F5B;" points="42.103,62.588 7.063,62.588 15.034,1.42 50.074,1.42 		"/>
		<polygon style="fill:#786872;" points="38.966,58.43 12.046,58.43 18.17,11.438 45.09,11.438 		"/>
		<path style="fill:#624F5B;" d="M5.718,7.163c0,0,10.898,0,10.898,11.952l16.406-9.265L28.568-0.571L5.718,1.42V7.163z"/>
		<circle style="fill:#624F5B;" cx="28.569" cy="32.004" r="4.453"/>
		<circle style="fill:#624F5B;" cx="26.811" cy="48.644" r="4.453"/>
		<polygon style="fill:#786872;" points="44.183,67.627 4.045,67.627 7.063,62.588 42.103,62.588 		"/>
		<rect x="4.045" y="67.627" style="fill:#624F5B;" width="40.138" height="4.921"/>
		<path style="fill:#624F5B;" d="M-2.132-4.324V7.163h53.934c1.149,2.919,3.978,4.993,7.307,4.993V9.351
			c-1.319-0.424-2.474-1.196-3.39-2.188h14.33l-1.855,14.062H45.09v4.569h22.498h2.461h2.461l2.461-18.631h45.377V-4.324H-2.132z"/>
	</g>
	<polygon style="fill:none;" points="66.941,18.974 68.5,7.163 65.305,7.163 65.305,18.974 	"/>
	<polygon style="fill:#624F5B;" points="16.616,-24.385 16.851,-25.03 16.616,-25.03 	"/>
	<path style="opacity:0.25;fill:#624F5B;" d="M47.786,18.974l1.539-11.811h2.476c1.149,2.919,3.978,4.993,7.307,4.993V9.351
		c-1.319-0.424-2.474-1.196-3.39-2.188h9.586V-25.03H28.568v-4.367h-17.51l-0.797,4.367L7.827-12.262h4.85l-2.417,7.938H-2.132
		V7.163h7.85c0,0,4.872,0.006,8.101,3.581L7.063,62.588l-3.017,5.039v4.921h40.138v-4.921l-2.081-5.039l4.795-36.794h18.407v-6.82
		H47.786z M16.616-24.385v-0.646h0.235L16.616-24.385z"/>
</g>
</svg>
