<?xml version="1.0" encoding="utf-8"?>
<!-- Generator: Adobe Illustrator 16.0.0, SVG Export Plug-In . SVG Version: 6.00 Build 0)  -->
<!DOCTYPE svg PUBLIC "-//W3C//DTD SVG 1.1//EN" "http://www.w3.org/Graphics/SVG/1.1/DTD/svg11.dtd">
<svg version="1.1" id="Layer_1" xmlns="http://www.w3.org/2000/svg" xmlns:xlink="http://www.w3.org/1999/xlink" x="0px" y="0px"
	 width="152.335px" height="90.771px" viewBox="-56.631 1.653 152.335 90.771"
	 style="enable-background:new -56.631 1.653 152.335 90.771;" xml:space="preserve">
<path style="fill:#000;" d="M-56.26,15.402c0.414,0.445,1.941,1.527,2.515,2.005c0.571,0.478,2.48,1.91,2.48,1.91
	s-3.406,11.457-3.85,13.11c-0.446,1.656,0.827,1.847,1.37,2.004c0.54,0.161,2.863,0.987,4.423,1.497
	c1.56,0.509,2.959,1.432,4.965,2.992c2.003,1.561,1.814,5.346,1.59,6.493c-0.222,1.144-0.892,2.132-1.018,2.481
	c-0.129,0.351,0.317,0.574,0.222,0.925c-0.096,0.348-0.764,0.475-0.955,0.827c-0.189,0.349,0.351,0.125,0.224,0.731
	c-0.128,0.604-0.764,0.256-0.955,0.731c-0.191,0.478,0.223,0.382,0.126,0.955c-0.095,0.574-0.572,0.062-0.764,0.541
	c-0.191,0.478,0.128,0.447-0.032,0.923c-0.16,0.478-0.381,0.159-0.604,0.542c-0.223,0.383,0.287,0.318,0.128,0.858
	c-0.16,0.542-0.542,0.191-0.764,0.639c-0.223,0.445,0.318,0.348,0.127,0.922c-0.19,0.574-0.604,0.191-0.859,0.636
	c-0.255,0.447,0.35,0.478,0.158,1.018c-0.19,0.543-0.635,0.034-0.826,0.543c-0.191,0.508,0.317,0.381,0.159,0.922
	c-0.159,0.541-0.637,0.16-0.859,0.669c-0.222,0.509,0.446,0.509,0.254,0.985c-0.191,0.478-0.637,0.224-0.892,0.699
	c-0.254,0.479,0.416,0.353,0.255,0.797c-0.158,0.446-0.413,0-0.668,0.604c-0.254,0.604,0.51,0.382,0.222,0.987
	c-0.285,0.604-0.508-0.063-0.763,0.542c-0.254,0.605,0.383,0.605,0.191,1.114c-0.191,0.509-0.637-0.129-0.922,0.571
	c-0.288,0.7,0.572,0.542,0.445,0.987c-0.128,0.447-0.669,0.222-0.86,0.731c-0.19,0.512,0.541,0.382,0.416,0.86
	c-0.128,0.479-0.733-0.064-0.924,0.604c-0.189,0.67,0.479,0.541,0.319,1.05c-0.16,0.511-0.604,0.063-0.796,0.638
	c-0.191,0.574,0.446,0.157,0.288,0.796c-0.161,0.636-0.606,0.253-0.733,0.827c-0.128,0.574,0.478,0.382,0.351,0.893
	c-0.128,0.508-0.701,0.094-0.892,0.635c-0.191,0.543,0.509,0.287,0.413,0.827c-0.094,0.542-0.635,0.351-0.763,0.829
	c-0.127,0.476,0.478,0.317,0.382,0.858c-0.096,0.542-0.637,0.316-0.733,0.73c-0.095,0.416,0.351,0.478,0.351,0.86
	s-0.604,0.478-0.7,0.766c-0.095,0.286,0.286,0.443,0.319,0.604c0.03,0.157,0.063,0.637-0.382,0.731
	c-0.446,0.095-0.484,0.574-0.192,0.574c0.292,0,0.764,0,0.764,0v0.796h-0.54c0,0-0.255,1.718-0.517,3.627
	c-0.261,1.909,0.325,2.228,0.58,2.48c0.253,0.256,5.983,0,5.983,0s0.191,0.256,0.063,0.447c-0.127,0.191,0.064,1.018,0.064,1.018
	s31.824,3.184,32.779,2.609c0.956-0.573,0.319-1.591,0-1.655c-0.318-0.062-1.335-0.38-1.909-0.636
	c-0.573-0.253-1.401-5.281-1.401-5.281h-1.144v-0.574l0.636-0.126c0,0,0-5.857,0-6.24c0-0.38-0.063-0.763,0.508-0.636
	c0.574,0.127,0.319-0.701,0.129-0.762c-0.191-0.064-0.129-0.892,0.317-0.766c0.446,0.127,0.382-0.7,0.127-0.827
	c-0.254-0.129-0.574-0.639,0.191-0.639c0.764,0,0.636-0.762,0.255-1.079c-0.383-0.32-0.128-0.574,0.318-0.574
	s0.446-0.765,0.191-0.956c-0.255-0.19-0.191-0.889,0.318-0.826c0.508,0.064,0.636-0.573,0.317-0.763
	c-0.317-0.19-0.125-0.572,0.066-0.764c0.571,0.125,0.635-0.701,0.38-0.765c-0.254-0.062-0.254-0.636,0.255-0.763
	c0.51-0.129,0.51-0.572,0.191-0.699c-0.318-0.127-0.254-0.509,0.255-0.574c0.509-0.064,0.574-0.636,0.255-0.827
	c-0.318-0.192-0.446-1.018,0.254-1.018c0.7,0,0.446-0.447,0.128-0.7c-0.318-0.256-0.254-0.766,0.318-0.766s0.444-0.699,0.127-0.826
	c-0.319-0.127-0.127-0.701,0.38-0.765c0.511-0.063,0.319-0.701,0.128-0.762c-0.191-0.065-0.255-0.83,0.191-0.83
	c0.446,0,0.573-0.636,0.255-0.954c-0.319-0.317,0-0.765,0.381-0.826c0.383-0.065,0.319-0.701,0.065-0.892
	c-0.255-0.192,0.063-0.766,0.509-0.701c0.446,0.063,0.191-0.764-0.063-0.955c-0.256-0.191,0.381-0.571,0.571-0.636
	c0.191-0.065,0.191-0.827,0.318-1.274c0.128-0.444,0.574-0.954,0.892-1.527c0.318-0.574-0.254-0.635-0.637-0.954
	c-0.381-0.32-0.063-1.02,0.128-0.83c0.191,0.192,1.401-0.126,1.401-0.126s0.317,0.701,0.763,0.892
	c0.446,0.191,1.401-0.318,2.228-0.766c0.828-0.444,1.783-0.636,2.229-0.317c0.891,0.765,4.328,1.848,5.601,1.848s19.795,0,22.914,0
	c3.12,0,3.816-1.721,4.075-2.801c0.253-1.083,3.183-10.886,3.183-10.886s38.764,0,39.078,0c0.319,0,0.446-0.318,0.446-0.318
	l0.892-2.418c0,0,0.512-1.718,1.019-3.946c0.51-2.227,1.528-2.418,2.291-2.165c0.765,0.256,0.958,1.527,0.699,2.292
	c-0.253,0.764-1.525,5.219-1.779,5.664c-0.256,0.447-0.129,0.957-0.129,0.957h2.992c0,0,2.102-6.047,2.481-7.321
	c0.382-1.274,0.765-1.782,1.721-1.4c0.952,0.381,1.019,1.718,0.825,2.292c-0.192,0.573-1.208,4.137-1.591,5.092
	c-0.38,0.954-0.319,1.401-0.127,1.401s2.291,0,2.61,0s0.445-0.382,0.445-0.382s0.827-1.591,0.827-1.848
	c0-0.252,1.019-3.245,1.4-4.707c0.383-1.466,0.828-1.847,1.592-1.847c0.763,0,1.4,1.273,1.145,1.909
	c-0.253,0.639-2.163,6.875-2.163,6.875s2.673-0.129,3.183,0c0.509,0.127,1.271-2.292,1.271-2.292l5.476-17.315v-0.782l0.446-0.044
	l0.157-7.478h-0.604V8.591c0.031-0.382-0.512-0.765-0.828-0.765c-0.319,0-24.951,0-25.459,0c-0.511,0-0.544,0.352-0.544,0.765
	s0,1.814,0,1.814h-1.08V9.674V8.591l-0.925-0.922h-1.176V4.837l-1.082-2.418h-5.06l-1.877,5.042H18.545l-0.366,0.365H2.138V7.447
	h-31.284v-2.04l-0.986-1.145h-11.903l-0.827-1.305h-2.515l-0.922-1.305h-0.987v4.68l0.604,0.731v0.604h-0.859l-1.496,4.455
	c0,0-1.91,1.148-2.514,1.273c-0.604,0.126-1.241-0.287-2.006-0.731c-0.763-0.447-1.685-0.478-2.514,0.445
	C-56.897,14.033-56.675,14.955-56.26,15.402z M-6.996,40.065c0.511-2.194,1.242-4.55,2.101-5.377
	c0.859-0.826,2.61-0.987,4.073-0.987c0.08-0.079,0-0.54,0-0.54h4.519v1.019c0,0-0.889,2.8-1.081,5.028
	c-0.097,1.125,0.132,2.906,0.984,4.555c-0.238,0.197-0.633,0.504-0.762,0.504c-0.191,0-0.413,0.064-0.541-0.317
	c-0.127-0.382-0.557-0.175-0.35,0.031c0.208,0.208,0.812,1.64,0.986,1.814c0.176,0.177,0.382-0.032,0.224-0.38
	c-0.161-0.351-0.127-0.574,0.031-0.669c0.106-0.063,0.417-0.36,0.644-0.565c0.86,1.451,2.239,2.743,4.354,3.301
	c2.481,0.573,3.659,0.352,3.659,0.096c0-0.253-1.591-0.413-2.705-0.827c-1.114-0.413-3.564-2.418-3.852-4.679
	c-0.286-2.257,0.191-5.09,0.606-5.599c0.413-0.509,0.954-1.147,1.017-1.401c0.065-0.255,0-1.243,0-1.243h15.754
	c0,0-0.192,1.114-0.253,1.974c-0.066,0.861,0.76,2.323,1.971,2.323c1.209,0,3.406,0.031,3.406,0.031s-2.58,8.372-2.899,9.294
	c-0.314,0.923-1.143,2.514-2.924,2.514c-1.784,0-7.703,0-7.989,0c-0.288,0-1.781-0.604-3.787-0.604c-2.004,0-2.833,0.67-3.66,0.67
	c-0.828,0-4.073,0-5.378,0c-1.305,0-5.41-1.305-6.683-3.597C-6.804,44.141-7.505,42.262-6.996,40.065z"/>
</svg>
