<?xml version="1.0" encoding="utf-8"?>
<!-- Generator: Adobe Illustrator 16.0.0, SVG Export Plug-In . SVG Version: 6.00 Build 0)  -->
<!DOCTYPE svg PUBLIC "-//W3C//DTD SVG 1.1//EN" "http://www.w3.org/Graphics/SVG/1.1/DTD/svg11.dtd">
<svg version="1.1" id="Layer_1" xmlns="http://www.w3.org/2000/svg" xmlns:xlink="http://www.w3.org/1999/xlink" x="0px" y="0px"
	 width="96.977px" height="68.776px" viewBox="-9.057 3.334 96.977 68.776"
	 style="enable-background:new -9.057 3.334 96.977 68.776;" xml:space="preserve">
<path style="fill:#000;" d="M87.92,11.897c0-2.485-1.028-3.171-1.028-3.171s0-1.065-0.562-0.95
	c0.006-0.481-0.037-1.148-0.037-1.148h-0.942c0-0.066,0-0.396,0-1.757c0-2.056-1.371-1.542-1.972-1.285s-6.391,2.742-6.391,2.742
	h-0.636l-3.234,1.522c-6.714-0.02-13.477-0.064-13.477-0.064s-0.255-0.343-0.34-0.601c-0.089-0.257-0.431-0.171-1.029-0.257
	c-0.601-0.085-1.887-0.6-2.142-0.772c-0.259-0.171-24.767,0-24.767,0s-1.627-0.941-2.056-1.199c-2.399,0-3.599,0-3.599,0
	l-0.942-1.114H22.88l-1.113,1.886v2.4c0,0,0.428,0.514,0.686,0.086c-0.322,0.534-0.341,0.535-1,1.304
	c-0.548-0.003-1.439-0.085-2-0.533c-0.857-0.686-2.913-1.714-5.227-0.856c-0.771,0.343-0.514,1.114,0.172,1.2
	c0.685,0.085,2.57,0.257,3.342,1.113c0.485,0.54,1.106,1.249,1.585,1.658c-0.33,0.573-2.713,4.482-6.642,5.197
	c-4.242,0.771-6.428,1.67-6.813,3.728c-1.543,0-3.085,0.384-3.085,1.284c0,0.9,0.128,5.785-2.957,8.869
	c-3.084,3.085-9.254,14.14-8.869,21.467c0.385,7.326,4.627,17.481,8.74,18.896c4.114,1.413,9.126-0.129,9.769-1.029
	c0.644-0.898,1.415-5.227,2.614-6.77c1.2-1.542,1.456-1.885,0.771-4.626c-0.342-2.229-0.085-4.199,0.858-5.228
	c0.941-1.028,2.142-1.285,1.199-3.684c-0.943-2.399-1.199-5.056,1.371-6.94c2.571-1.886,4.198-2.229,9.084,0
	c0.257,0,0.513-0.43,0.257-0.858c-0.257-0.428,0.085-0.771,0.085-0.771s1.372,3.771,4.371,4.285c3,0.516,7.541,0.344,11.996-1.542
	c4.458-1.885,5.914-2.228,6.771-4.371c0.857-2.142,0.686-5.142,1.371-6.169c0.684-1.028,1.97-1.714,3.084-1.714s3.428,0,4.027,0
	c0.601,0,0.944-0.514,0.944-1.287c0-0.771-0.257-6.169-0.257-7.198c0-1.027,1.371-3.598,1.626-3.685c0.688,0,26.565,0,27.079,0
	c0.516,0,0.944-2.827,0.601-4.198C87.32,15.753,87.92,14.382,87.92,11.897z M47.302,40.004c-0.855,1.971-5.313,3.257-7.54,4.028
	c-2.229,0.771-5.399,1.457-8.484,1.114c-3.085-0.344-4.542-2.743-4.798-6.085c-0.258-3.341,1.285-4.541,2.998-6.512
	c0.429,1.029,2.143,1.2,3.514,1.714c-1.629,6.17,4.028,8.826,5.055,8.999c1.029,0.171,1.715-0.43,0.601-0.771
	c-1.114-0.343-2.485-1.287-3.599-3.343c-1.114-2.056,0.686-4.199,1.458-5.227c0.771-1.028,0.771-2.057,0.514-2.143
	c0,0,6.34-0.685,8.913,0.943C48.501,34.348,48.16,38.033,47.302,40.004z"/>
</svg>
