<?xml version="1.0" encoding="utf-8"?>
<!-- Generator: Adobe Illustrator 16.0.0, SVG Export Plug-In . SVG Version: 6.00 Build 0)  -->
<!DOCTYPE svg PUBLIC "-//W3C//DTD SVG 1.1//EN" "http://www.w3.org/Graphics/SVG/1.1/DTD/svg11.dtd">
<svg version="1.1" id="Layer_1" xmlns="http://www.w3.org/2000/svg" xmlns:xlink="http://www.w3.org/1999/xlink" x="0px" y="0px"
	 width="112.263px" height="47.714px" viewBox="-9.242 3.656 112.263 47.714"
	 style="enable-background:new -9.242 3.656 112.263 47.714;" xml:space="preserve">
<path style="fill:#000;" d="M-8.979,51.311c0,0,19.635,0.133,19.855,0c0.222-0.132,0.355-0.62,0.222-0.886
	c-0.133-0.266-0.798-2.217-0.798-9.485c-0.311-8.465,5.674-9.662,6.294-9.839c0.621-0.177,2.924-0.088,3.013,0.399
	c0.045,3.457,1.907,4.654,3.945,4.964c2.038,0.31,5.673-0.531,8.997-2.127c3.324-1.597,2.926-5.452,2.837-6.427
	c-0.089-0.975,0.842-1.728,1.285-1.728c0.443,0,5.097,0,5.629,0c0.532,0,0.666,0.133,0.709,0c0.043-0.133,0.133-0.886-0.089-1.064
	c-0.221-0.177-0.31-0.842-0.31-1.462s0.31-2.172,0.355-3.413c0.044-1.241,1.817-2.792,1.817-2.792s14.315-0.043,15.068,0
	c0.754,0.044,0.754-0.132,1.02-0.93c0.266-0.798,1.774-3.059,1.907-2.926c0.131,0.133,37.894,0.045,38.735,0
	c0.843-0.044,1.508-1.019,1.508-3.058s-0.486-2.526-0.486-2.526V6.37h-0.401V5.527c-0.62,0-0.264-1.773-1.328-1.862
	s-0.976,0.444-2.038,0.886c-1.065,0.444-2.129,0.887-2.129,0.887h-3.102L91.52,6.37h-0.288H44.96V6.148H42.39V5.704H25.724
	c-0.886,0.045-1.817-0.753-1.817-0.753s-3.057,0-3.457,0c-0.088-0.444-0.62-0.576-0.62-0.576V3.71h-0.443v0.753
	c0,0-0.621,0.177-0.708,0.931c-0.09,0.753,0.354,0.886,0.62,1.152c0.267,0.267,0.399,0.444,0.355,0.576
	c-0.045,0.133-1.108,2.083-1.108,2.083l-0.266-0.266c0,0-1.64-0.576-1.862-0.487c-0.221,0.088-0.753,0.531-1.286,1.152
	c-0.531,0.62-1.019,0.666-1.462,0.4c-0.443-0.267-0.132-0.753-0.576-1.109C12.649,8.541,9.592,7.876,9.37,7.832
	C9.149,7.788,9.06,7.92,8.927,8.23c-0.133,0.311,0,0.975,0.709,1.197c0.709,0.223,2.438,1.109,3.146,1.773
	c0.709,0.664,1.463,1.417,1.064,1.817c-2.438,0.797-3.812,2.57-3.812,2.57s-0.266,0-0.975,0.311
	c-1.684,0.665-3.767,0.665-4.21,1.063c-0.443,0.399-0.398,2.438-0.398,4.122c0,1.684-0.621,2.615-2.66,5.052
	c-4.742,5.584-8.199,17.641-8.554,19.103c-0.354,1.462-1.507,3.856-2.171,4.831C-9.599,51.045-8.979,51.311-8.979,51.311z
	 M20.672,31.101c0.221-2.682,0.885-3.945,2.682-4.919c0.398,0.2,0.974,0.82,1.971,0.886c-0.111,0.731,0.266,4.809,2.881,5.541
	c1.95,0.51,2.282,0.51,2.348,0.398c0.067-0.11-0.021-0.621-0.376-0.621c-0.354,0-1.773-0.487-2.127-0.775
	c-0.598-0.488-1.108-1.396-1.063-2.681c0.033-0.94,0.863-2.462,1.152-2.837c0.288-0.377,0.665-0.776,1.64-0.776
	s2.039,0.023,3.081,1.02c0.668,0.64,1.794,2.614,1.307,4.454c-0.488,1.84-2.216,3.082-4.986,3.901
	c-2.771,0.819-5.141,1.019-6.029,0.642C22.268,34.957,20.45,33.783,20.672,31.101z"/>
</svg>
