<?xml version="1.0" encoding="utf-8"?>
<!-- Generator: Adobe Illustrator 16.0.0, SVG Export Plug-In . SVG Version: 6.00 Build 0)  -->
<!DOCTYPE svg PUBLIC "-//W3C//DTD SVG 1.1//EN" "http://www.w3.org/Graphics/SVG/1.1/DTD/svg11.dtd">
<svg version="1.1" id="Layer_1" xmlns="http://www.w3.org/2000/svg" xmlns:xlink="http://www.w3.org/1999/xlink" x="0px" y="0px"
	 width="83.677px" height="48.52px" viewBox="10.606 2.85 83.677 48.52" style="enable-background:new 10.606 2.85 83.677 48.52;"
	 xml:space="preserve">
<path style="fill:#000;" d="M12.486,51.37c1.561,0,16.749,0,17.755,0c1.005,0,1.118-0.782,0.894-1.507
	c-0.224-0.727-1.117-11.112-1.172-13.512c-0.057-2.401,1.674-4.523,2.958-5.25c1.284-0.724,4.802-0.446,5.304-0.446
	c0.502,0,0.725-0.559,0.725,0.167c-0.056,0.781,0.56,2.4,1.842,4.132c1.284,1.73,7.539,3.518,11.557,1.507
	c4.021-2.009,3.91-6.588,3.91-7.929c0-1.339,1.898-2.065,2.569-2.065c0.67,0,3.017,0.056,3.74,0.056
	c0.727,0,1.453-0.167,1.508-0.447c0.056-0.28,1.061-4.076,1.061-4.522c0-0.447,1.229-5.082,1.229-5.082s25.963,0,26.52,0
	c0.559,0,0.614-0.334,0.614-0.614c0-0.278,0-3.126,0-3.126l0.39,0.112c0,0,0.393-1.229,0.393-3.127c0-1.897-0.501-2.68-0.782-2.68
	L93.39,5.139h-0.726c0,0-0.029-0.475,0-1.201c0.029-0.727-0.475-1.033-0.809-0.921c-0.337,0.111-4.578,1.285-4.578,1.285
	L71.754,5.027h-6.197l-0.305,0.112H47.41l-0.99-0.811h-3.729l-0.375-0.627l-0.07-0.852h-0.587L41.59,2.989h-0.406L41.13,2.85h-0.671
	v2.345l0.28,0.95c0,0,0,0-0.391,0.112c-0.391,0.111-0.95,1.396-0.95,1.396L38.17,7.373c0,0-0.279,0.669-0.783,1.172
	c-0.501,0.502-2.078-0.081-3.125-0.725c-1.27-0.782-3.015-1.229-4.188-1.284c-1.172-0.057-0.614,0.614-0.334,0.614
	c0.278,0,2.004,0.292,2.624,0.502c0.823,0.278,3.322,2.33,3.657,3.057c0.43,0.932,0.782,1.493-0.083,1.689
	c-2.457,0.223-4.69,2.736-4.69,2.736s-1.954,0.054-3.963,0.223c-2.012,0.167-2.793,1.731-3.071,3.07
	c-0.281,1.34-0.95,2.625-1.34,3.183c-0.392,0.56-2.85,4.021-5.807,8.989c-3.798,5.807-6.032,17.477-6.366,19.096
	C10.364,51.314,10.922,51.37,12.486,51.37z M83.927,6.172h5.081v0.475h-5.081V6.172z M70.497,6.172h5.082v0.475h-5.082V6.172z
	 M44.349,21.368c0-0.149,0.039-2.303,0-2.457c-0.074-0.298,0.408-0.968,0.408,1.08c0,0.297-0.148,0.968,0.15,0.968
	s12.842,0,13.399,0c0.559,0,0.633-0.187,0.633-0.187v-4.317h0.67c0,0,0.037,3.833,0.037,4.206s-0.522,0.707-1.153,0.707
	C57.861,21.368,44.349,21.517,44.349,21.368z M40.263,29.538c0.141-1.367,1.844-2.735,2.876-3.378
	c0.224,0.669,1.87,1.954,2.317,1.954c0.446,0,0.417,0.308,0.083,1.368c-0.334,1.062,0.084,3.016,1.34,4.355
	c1.256,1.341,2.959,1.564,3.545,1.536c0.586-0.028,0.252-0.334,0.139-0.334c-0.111,0-0.864-0.196-1.729-0.698
	c-0.867-0.503-1.34-1.982-1.397-3.209c-0.055-1.229,1.286-2.263,1.815-2.876c0.53-0.614,0.362-2.262,0.362-2.262
	c1.145-0.699,2.819-0.056,3.546,0.391c0.727,0.446,1.842,1.981,1.927,3.098c0.084,1.117-0.141,2.932-1.145,4.495
	c-1.005,1.564-3.379,2.317-5.611,2.317c-2.233,0-4.607-0.027-6.561-1.786C39.816,32.749,40.125,30.906,40.263,29.538z"/>
</svg>
