<?xml version="1.0" encoding="utf-8"?>
<!-- Generator: Adobe Illustrator 16.0.0, SVG Export Plug-In . SVG Version: 6.00 Build 0)  -->
<!DOCTYPE svg PUBLIC "-//W3C//DTD SVG 1.1//EN" "http://www.w3.org/Graphics/SVG/1.1/DTD/svg11.dtd">
<svg version="1.1" id="Layer_1" xmlns="http://www.w3.org/2000/svg" xmlns:xlink="http://www.w3.org/1999/xlink" x="0px" y="0px"
	 width="90.362px" height="56.547px" viewBox="0.495 3.68 90.362 56.547" style="enable-background:new 0.495 3.68 90.362 56.547;"
	 xml:space="preserve">
<path style="fill:#000;" d="M0.511,56.571c0.048,0.818,0.433,3.657,2.406,3.657c1.974,0,3.897,0,4.282,0
	c0.384,0,0.338-0.915,0.338-0.915s11.352,0,11.738,0c0.384,0,0.625-0.24,1.249-0.24c0.626,0,3.657-0.097,4.283-0.097
	c0.625,0,1.009-0.144,1.009-0.529c0-0.384-0.289-0.578-1.009-0.578c0-0.24-0.096-0.336-0.192-0.577
	c-0.096-0.241-0.771-1.588-0.771-2.261c0-0.675-0.048-2.068,0.145-2.791c0.192-0.721,4.666-15.923,4.859-16.501
	c0.192-0.576,1.396-1.923,2.789-2.356c1.396-0.433,2.79-0.481,3.898,0.144c1.105,0.626,4.52,0.674,6.734,0.674
	c2.213,0,6.833-1.829,7.747-3.512c0.913-1.683,1.057-3.802,1.49-4.619c0.436-0.818,1.541-2.501,3.466-3.415
	c1.922-0.915,3.751-1.058,3.991-1.106s1.105-0.578,1.445-1.06c0.336-0.48,0.721-0.817,1.346-1.057
	c0.625-0.241,1.973-0.338,1.973-0.866c0-0.529,0-2.31,0-2.31s0.048-0.914,0.048-1.059c0-0.143,0.24-0.481,0.289-0.672
	c0.048-0.194,0-1.347,0-1.347h19.051l0.192,0.239h5.917l0.24-0.288l0.48,0.049c0,0,0.913-0.963,0.913-2.695
	c0-1.731-0.48-3.127-0.721-3.127s-0.529,0-0.529,0V6.299l-0.384-0.097c0,0-0.385-1.347-2.502-1.395c-1.25,0-1.638,0.048-1.638,0.048
	l-0.336,1.203L83.307,7.02c-0.192,0.242-18.282,0-18.859,0c-0.576,0-0.769-0.145-0.769-0.53c0-0.384-0.145-0.721-0.724-0.721
	c-0.577,0-2.886,0-3.463,0s-0.721,0.289-0.721,0.673c0,0.386-0.192,0.626-0.192,0.626H39.911c0,0,0-0.481,0-0.77
	c0-0.29-0.144-0.771-0.961-0.771c-0.819,0-23.429,0-23.429,0l-0.53-1.057c0,0-0.673-0.721-0.817-0.769c-0.144-0.049-1.875,0-1.875,0
	l-0.192,2.02L10.615,5.77c0,0-1.685,1.396-1.877,1.925c-0.48,0.095-0.913,0-1.105-0.194C7.44,7.308,6.428,6.442,5.179,6.635
	C3.926,6.829,3.638,7.646,3.784,7.886c0.143,0.241,0.674,1.011,0.674,1.011s1.441,0.096,1.874,0.481
	c0.433,0.384,0.818,1.202,0.818,1.539s-0.626,3.127-0.866,3.367c-0.24,0.242-1.105,0.866-1.105,1.011s-0.048,0.675-0.434,1.06
	c-0.384,0.384-1.875,1.25-2.356,1.539c-0.482,0.29-0.771,2.02,1.249,2.934c2.021,0.915,4.283,1.638,5.052,2.358
	c0.771,0.721,1.566,2.8,1.107,4.859C9.074,31.266-0.306,42.092,0.8,55.514C0.511,55.801,0.463,55.753,0.511,56.571z M32.937,23.472
	c1.105-0.769,2.838-0.96,3.607-0.96c0.384,0.624,0.865,1.058,1.491,1.732c-0.963,4.088,1.828,6.976,3.271,7.361
	c1.443,0.384,2.454,0.384,2.598,0c0.146-0.385,0-0.481-1.251-0.724c-2.164-0.384-2.742-3.079-2.742-4.811s1.589-3.606,1.589-3.606
	c2.742-0.194,5.098,0.239,6.302,0.721c1.201,0.481,2.55,2.31,2.262,4.522c-0.289,2.214-2.021,3.512-5.005,4.425
	c-2.982,0.914-5.821,0.675-9.428-0.046c-3.609-0.723-4.476-2.743-4.571-4.668C30.964,25.495,31.829,24.244,32.937,23.472z"/>
</svg>
