<?xml version="1.0" encoding="utf-8"?>
<!-- Generator: Adobe Illustrator 16.0.0, SVG Export Plug-In . SVG Version: 6.00 Build 0)  -->
<!DOCTYPE svg PUBLIC "-//W3C//DTD SVG 1.1//EN" "http://www.w3.org/Graphics/SVG/1.1/DTD/svg11.dtd">
<svg version="1.1" id="Layer_1" xmlns="http://www.w3.org/2000/svg" xmlns:xlink="http://www.w3.org/1999/xlink" x="0px" y="0px"
	 width="113.088px" height="65.011px" viewBox="-22.237 4.933 113.088 65.011"
	 style="enable-background:new -22.237 4.933 113.088 65.011;" xml:space="preserve">
<path style="fill:#000;" d="M-21.826,27.643c0.431,0.003,7.347-0.028,8.902,0.073c1.552,0.1,2.973,1.021,4.561,2.632
	c1.583,1.611,1.811,4.984,0.971,7.354c-0.837,2.369-4.177,8.866-5.595,12.917c-1.417,4.049-2.412,9.358-2.652,12.768
	c-0.249,3.411,1.263,3.9,2.037,3.907c0.777,0.006,4.839,0.041,4.839,0.041l-0.398,1.422l-0.43,0.083c0,0-0.095,0.519-0.008,0.778
	c0.083,0.26,18.058,0.322,18.492,0.326c0.434,0.005,2.424-0.498,3.288-0.576c0.865-0.078,0.435-0.515-0.083-0.694
	c-0.518-0.174-1.899-0.188-1.899-0.188s-0.249-1.297,0.186-1.122c1.034,0.267,2.16-0.327,2.419-0.671
	c0.265-0.346-0.074-1.381-0.58-2.77c-0.505-1.389-0.328-2.076-0.229-3.114c0.095-1.037,2.74-17.953,4.742-19.579
	c2.001-1.627,4.327-0.569,5.021-0.564c0.687,0.006,9.763,0.343,11.488,0.357c1.729,0.014,1.998-1.021,1.998-1.454
	c0.004-0.432,0.023-2.679,0.047-5.358c0.02-2.678,1.504-4.222,2.815-5.765c1.31-1.546,4.781-3.074,6.158-3.061
	c1.381,0.01,41.483,0.346,42.09,0.352c0.601,0.006,1.576-2.407,1.576-2.407l2.921-8.271c0,0-0.424-1.559-0.5-1.993
	c-0.084-0.432-0.242-2.421-0.233-3.373c0.008-0.951-0.163-1.124-0.945-1.131L87.49,8.549l0.018-1.945
	c-0.211-0.605-0.905-0.441-1.252-0.27c-0.348,0.169-3.691,2.172-3.691,2.172l-5.487-0.045l-0.005,0.69l-1.814-0.015l0.007-0.778
	L49.727,8.145l-0.003,0.736l-1.69-0.014l0.008-0.779c0,0-22.857-0.191-23.466-0.195c0.052-0.519-0.387-0.479-0.387-0.479
	S8.332,7.239,8.162,7.281C7.988,7.319,1.138,7.373,1.138,7.373l-2.376-2.417l-2.594-0.022L-3.855,7.74l-1.469-0.012l-3.399,3.299
	l-0.272,1.25c-0.691-0.005-2.894,0.192-3.885-0.334c-0.987-0.525-1.508-0.488-1.986-0.017c-0.477,0.473-0.316,1.209-0.229,1.338
	c0.087,0.13,0.6,0.439,1.543,1.614c0.94,1.173,1.872,3.599,1.599,5.672c-0.28,2.072-1.496,2.581-2.408,3.134
	c-0.912,0.554-2.381,0.369-3.853,0.616c-1.469,0.248-2.511,1.015-3.423,1.7C-22.553,26.686-22.257,27.639-21.826,27.643z
	 M18.338,30.786c0.213-0.302,0.387,0.091,0.17,0.519c-0.222,0.434-0.111,2.12,0.612,4.024c0.715,1.908,3.171,3.313,3.861,3.319
	c0.691,0.005,0.478-0.431-0.167-1.04c-0.643-0.609-1.271-2.863-1.385-5.024c-0.106-2.162,1.725-4.351,2.112-4.349
	c0.387,0.005,5.444,0.047,6.005,0.051c0.56,0.004,1.121,0.399,2.155,1.098c1.031,0.702,2.014,1.962,2.049,2.742
	c0,0,0.004,4.665-0.004,5.619c-0.008,0.95-1.35,1.585-2.042,1.58c-0.69-0.005-7.351,0.326-10.027-0.084
	c-2.676-0.409-3.861-3.143-4.279-4.615C16.977,33.154,18.117,31.089,18.338,30.786z"/>
</svg>
