<?xml version="1.0" encoding="utf-8"?>
<!-- Generator: Adobe Illustrator 16.0.0, SVG Export Plug-In . SVG Version: 6.00 Build 0)  -->
<!DOCTYPE svg PUBLIC "-//W3C//DTD SVG 1.1//EN" "http://www.w3.org/Graphics/SVG/1.1/DTD/svg11.dtd">
<svg version="1.1" id="Layer_1" xmlns="http://www.w3.org/2000/svg" xmlns:xlink="http://www.w3.org/1999/xlink" x="0px" y="0px"
	 width="290.434px" height="57.004px" viewBox="-81.965 -7.797 290.434 57.004"
	 style="enable-background:new -81.965 -7.797 290.434 57.004;" xml:space="preserve">
<g>
	<g>
		<path style="fill-rule:evenodd;clip-rule:evenodd;fill:#000;" d="M203.719,24.099c1.16-0.143,1.758,1.157,2.037,0
			C208.734,25.064,202.564,26.895,203.719,24.099z"/>
		<path style="fill-rule:evenodd;clip-rule:evenodd;fill:#000;" d="M208.469,17.313c0,2.262,0,4.524,0,6.786
			c-1.252,3.044-0.641,7.953-4.07,8.821c-20.871-3.196-44.262,1.357-66.502,1.357c-13.988,0-26.496-0.455-39.357-2.036
			c-4.875-0.599-9.346-2.005-12.895-1.357c-7.885,1.439-14.543,8.482-12.893,18.322c-0.678,0-1.357,0-2.035,0
			c-2.654-5.037-3.697-11.686-4.75-18.322C20.502,27.782-49.088,38.791-81.965,17.313c19.672-11.394,51.8-14.7,81.431-12.893
			c1.686,0.103,3.112,1.278,4.75,1.357c1.53,0.075,3.102-1.423,4.75-1.357C8.842,4.415,9.751,5.823,11,5.777
			c1.009-0.038,1.268-0.761,2.036-0.678c1.102,0.118,2.284,1.31,3.394,1.357c0.843,0.036,1.117-1.262,2.035-1.357
			C19.586,4.983,19.618,5.8,20.5,5.777c1.605-0.042,3.046-0.709,4.072-0.678c0.347,0.01,0.835,1.348,2.035,1.357
			c1.756,0.013,4.074-2.547,4.75,0.679c2.797-0.237,4.102-3.592,5.43,0c2.797-0.237,4.102-3.592,5.428,0
			c3.123-0.781,4.049-1.88,6.787,0c1.988-0.047,1.486-2.584,4.07-2.036c4.103,1.489,9.58,1.576,13.572,0
			c2.582-3.978,0.047-13.073,6.787-12.894c-0.543,2.631,0.416,4.828,1.355,6.786C79.998,9.83,95.941,5.663,110.754,4.42
			c7.961-0.669,16.268-1.272,23.75-1.357c25.652-0.291,46.59,5.149,70.572,2.036C207.523,7.854,207.324,13.256,208.469,17.313z
			 M205.756,24.099c-0.279,1.157-0.877-0.143-2.037,0C202.564,26.895,208.734,25.064,205.756,24.099z"/>
	</g>
</g>
</svg>
