<?xml version="1.0" encoding="utf-8"?>
<!-- Generator: Adobe Illustrator 16.0.0, SVG Export Plug-In . SVG Version: 6.00 Build 0)  -->
<!DOCTYPE svg PUBLIC "-//W3C//DTD SVG 1.1//EN" "http://www.w3.org/Graphics/SVG/1.1/DTD/svg11.dtd">
<svg version="1.1" id="Layer_1" xmlns="http://www.w3.org/2000/svg" xmlns:xlink="http://www.w3.org/1999/xlink" x="0px" y="0px"
	 width="282.387px" height="43.643px" viewBox="-77.965 -1.797 282.387 43.643"
	 style="enable-background:new -77.965 -1.797 282.387 43.643;" xml:space="preserve">
<g>
	<g>
		<path style="fill-rule:evenodd;clip-rule:evenodd;fill:#000;" d="M-77.965-1.797c0.657,0,1.313,0,1.97,0
			c66.263,6.909,147.89,7.265,214.089,5.254c11.055-0.336,22.1-0.656,44-0.656c9.82,0,18.176-3.053,22.328,3.939
			c0,1.313,0,2.627,0,3.94c-2.084,3.837-0.59,18.647-6.566,21.015c-3.867,1.531-9.766-1.989-13.791-2.627
			c-2.471-0.391-5.643-0.607-8.537-0.656c-21.813-0.367-52.754,2.186-77.492,1.97c-1.325,1.563-2.458,2.536-3.284,5.254
			c-0.61,2.01,1.624,6.387-1.97,5.91c-5.324,2.127-4.053-7.672-7.225-9.851c-5.865-0.264-13.338,1.079-16.418-1.97
			c-2.027,2.165-2.542,2.659-5.254,3.283c-8.074,1.859-22.051-0.548-34.149-1.313c-27.969-1.769-52.926-4.606-78.149-9.851
			c-12.441-2.587-15.468-4.043-22.329-12.478C-73.979,5.386-76.932,1.361-77.965-1.797z M189.318,15.934
			c-0.256-1.835-3.744-2.232-1.971-3.94c-1.242-0.147-1.449,0.74-2.627,0.656c-0.684,3.046,1.211,5.686,0,7.225
			c1.652,0.604,4.504,1.26,4.598-1.313C186.979,18.43,189.533,17.483,189.318,15.934z"/>
	</g>
</g>
</svg>
