<?xml version="1.0" encoding="utf-8"?>
<!-- Generator: Adobe Illustrator 16.0.0, SVG Export Plug-In . SVG Version: 6.00 Build 0)  -->
<!DOCTYPE svg PUBLIC "-//W3C//DTD SVG 1.1//EN" "http://www.w3.org/Graphics/SVG/1.1/DTD/svg11.dtd">
<svg version="1.1" id="Layer_1" xmlns="http://www.w3.org/2000/svg" xmlns:xlink="http://www.w3.org/1999/xlink" x="0px" y="0px"
	 width="168.106px" height="57.189px" viewBox="-19.147 305.246 168.106 57.189"
	 style="enable-background:new -19.147 305.246 168.106 57.189;" xml:space="preserve">
<g>
	<path style="fill:#000;" d="M84.813,333.868c0.307,0.505,1.676,1.968,1.607,3.36s-1.154,2.447-1.29,2.57
		c-0.137,0.121-0.033,0.389,0.257,0.3c0.293-0.086,1.966-1.646,2.034-3.052c0.069-1.407-0.327-2.75-0.942-3.702L84.813,333.868z"/>
	<path style="fill:#000;" d="M-19.147,325.201c0,1.592,0.531,2.441,0.531,2.441h10.19v-0.424h13.13v-0.744H9.48l0.106,0.638
		h8.015v0.477l-0.69,0.69h-1.38v0.955h2.335v0.637h1.804v-2.439h5.732v2.229h2.653v1.805h0.303v1.593h-3.381v-0.637h-0.743v-0.372
		h-1.167v0.372h-0.637v-0.32h-0.318v-0.372h-2.124v0.372h-1.273v5.413h1.273v0.373h2.124v-0.373h0.318v-0.316h0.637v0.368h1.167
		v-0.368h0.743v-0.638h5.201v0.425h6.9v-0.955h0.531v-0.722c0.678-0.094,1.552-0.291,2.229-0.716
		c-0.013,0.891-0.319,5.957-0.319,9.186c0,3.29,0.85,5.308,0.85,5.308v1.378h1.911h1.061l0.53-0.424l0.107-1.273
		c0,0,0.849-0.85,0.849-3.608c0-2.879-0.383-8.561-0.555-10.972c0.573-0.004,1.139-0.017,1.659-0.069
		c0.668-0.067,1.24-0.146,1.795-0.218c1.187-0.159,2.309-0.311,4.106-0.311c1.5,0,2.273-0.619,2.896-1.112
		c0.545-0.436,0.875-0.694,1.548-0.498c0.576,0.17,1.009,0.485,1.466,0.822c0.836,0.612,1.783,1.309,3.554,0.769
		c0.759-0.231,1.296-0.666,1.595-1.294c0.304-0.638,0.292-1.357,0.203-1.917l1.476-0.063v0.639h1.486l0.742,0.849v6.052
		c0,0,0,0.528-0.317,0.849c-0.319,0.317,0.955,0.743,0.955,0.743s-0.319,6.156-0.425,7.429c-0.106,1.274-2.653,9.553-3.078,10.615
		c-0.424,1.062-0.105,1.697,0.637,2.018c0.743,0.316,7.748,2.228,8.811,2.759c1.062,0.531,1.168-0.105,1.698-1.272
		c0.53-1.17,3.397-9.978,3.821-12.1c0.424-2.124,0.849-7.325,1.167-7.325c0.319,0,11.782,0,11.782,0s1.061,1.379,1.593,1.91
		c0.53,0.529-0.425,2.441,0.106,2.972c0.529,0.53,1.063,0.107,1.805,0.85c0.742,0.744,3.184,4.988,2.971,5.733
		c-0.212,0.74-0.425,1.589,0.851,1.485c1.273-0.108,6.05-1.062,7.642-1.7c1.593-0.637,1.38-1.591,0.637-2.548
		c-0.743-0.954-7.642-11.144-8.385-12.312c-0.744-1.169-0.212-3.184-0.212-3.184l1.697-2.23c0,0,2.122-0.318,2.972-0.318
		s0.955-0.849,0.955-0.849v-2.55l1.063,0.214l0.53-0.53c0,0,6.476,0,9.022,0c0,0.637,1.168,0.955,1.168,0.955v1.167h6.687
		c0,0,0,3.396,0,4.032c0,0.638,0.638,1.063,1.169,1.063c0.529,0,2.865,0,2.865,0v1.274h1.805v-1.274c0,0,1.699,0,2.123,0
		s4.936,3.45,5.731,4.246c0.796,0.797,1.38-0.424,1.38-0.424s0-0.745,0-1.486c0-0.743,0.105-1.062,0.955-0.849
		s5.839,3.288,7.006,3.715c1.168,0.424,1.699-0.639,1.805-1.063c0.105-0.423,1.061-4.032,1.061-4.776
		c0-0.742,0.106-8.916,0.106-10.508s0.106-4.139-1.062-4.139c-1.166,0-5.519,0-7.43,0c-1.91,0-2.441,1.698-2.441,1.698
		s-20.168,0-21.122,0c-0.956,0-1.487,0.53-1.487,0.53h-8.916l-0.637-0.744h-3.236v-2.387c0,0-2.012,0-3.875,0v-0.957h2.281v-0.742
		c0,0-3.927,0-4.776,0c0-1.168-1.538-1.38-2.069-1.168c-0.531,0.213-4.724,2.177-4.724,2.177l-0.212,0.69h-3.715v-0.797l0.316-0.266
		v-1.645l1.009-1.434l1.964-0.105l0.426,0.478h2.176l0.742-0.743h4.883c0,0,0.638-0.902,0.638-3.078s-0.425-3.344-0.425-3.344
		h-0.955v-2.654h-0.426v-0.689h-0.796v0.796h-0.318v2.548l-0.318,0.212h-2.919l-0.053-0.849h-1.592l-1.115,1.168h-1.061
		c0,0,0-0.902,0-1.221c0-0.319-0.689-0.955-0.689-0.955h-2.973v2.016h-5.998l-2.229-2.016h-4.671v-0.957h-1.38v1.063
		c0,0-1.061,0.53-0.424,1.379c0.637,0.851,3.502,5.52,3.502,5.52v1.168l-1.273,1.486l-3.185,0.318v2.867l-0.85-0.213v0.531h-0.849
		v-0.531H64.57l0.213,1.379l-0.425-0.105v0.637h-0.425l-0.105-0.849h-2.336c0,0-1.38,0.954-1.911,0.424c0,0,0,0,0-0.424
		c0.637-0.53,0.212-1.274-0.212-1.274c-0.424,0-0.424,0.53-0.424,0.53l-0.743-0.212v-1.592h-0.743l-0.107-1.061h-4.707v-0.504
		h-0.889v-0.418h-0.379v0.418h-0.718v-0.445H50.11v-0.418h-0.431v0.418h-0.563v0.445h-0.739v-0.418H48v0.418H47.13v0.504H32.09
		l-0.213,1.273l-1.486-0.213l-0.106,1.273h-2.016c0,0-0.318,1.486-0.637,1.805h-0.637l-0.318-1.061c0,0-4.437-5.646-4.777-6.051
		c-0.449-0.535-1.438-2.138-2.442-2.172c-1.379-0.045-1.856,0.897-1.856,1.854c0,0.955,0,7.643,0,9.074v0.479H9.586l-0.106,0.637
		H4.704v-0.742h-13.13v-0.426h-10.19C-18.616,322.76-19.147,323.609-19.147,325.201z M140.422,322.484
		c-0.293,0-0.53-0.237-0.53-0.53c0-0.294,0.237-0.531,0.53-0.531h5.731c0.293,0,0.531,0.237,0.531,0.531
		c0,0.293-0.238,0.53-0.531,0.53H140.422z M138.873,331.57c0-0.35,0.285-0.637,0.637-0.637h4.883c0.352,0,0.637,0.287,0.637,0.637
		c0,0.351-0.285,0.637-0.637,0.637h-4.883C139.158,332.207,138.873,331.921,138.873,331.57z M95.83,319.523
		c0.213-0.213,0.479-0.957,0.479-0.957h1.309v0.957C96.813,319.523,96.142,319.523,95.83,319.523z M80.869,338.082
		c0-1.563,1.18-2.833,2.637-2.833h4.115c1.455,0,2.637,1.27,2.637,2.833c0,1.562-1.182,2.83-2.637,2.83h-4.115
		C82.049,340.912,80.869,339.644,80.869,338.082z M57.035,331.358H59.9v-1.698l2.123,0.742l0.217-0.01
		c0.083,0.447,0.117,1.033-0.117,1.521c-0.194,0.406-0.545,0.681-1.073,0.842c-1.364,0.416-2-0.05-2.806-0.643
		C57.893,331.855,57.505,331.574,57.035,331.358z M44.211,333.335c-0.013-0.177-0.021-0.277-0.021-0.277l0.849-0.957l0.637-0.742
		h9.154c-0.224,0.132-0.428,0.292-0.63,0.453c-0.572,0.454-1.165,0.927-2.367,0.927c-1.854,0-3.004,0.154-4.22,0.317
		c-0.546,0.074-1.112,0.148-1.766,0.216C45.345,333.321,44.782,333.334,44.211,333.335z M34.955,331.465h2.442l1.062,0.423
		l1.167,0.957c0,0,0.083,0.373,0.146,0.835c-0.135,0.055-0.261,0.113-0.373,0.187c-0.519,0.33-1.214,0.498-1.789,0.583v-0.861
		h-0.531v-0.955h-2.124V331.465z M29.453,331.465h3.911v1.168h-3.185v0.425h-0.726V331.465z M19.564,323.396
		c0-0.293,0.237-0.529,0.53-0.529h4.034c0.293,0,0.53,0.236,0.53,0.529c0,0.294-0.237,0.531-0.53,0.531h-4.034
		C19.801,323.928,19.564,323.69,19.564,323.396z M18.65,318.622c0,0,0-0.427,0.19-0.522c0.189-0.095,1.115-0.07,1.115-0.783
		c0-0.711,0-1.637,0-1.637h1.707c0,0,3.131,4.104,3.345,4.413c0.213,0.308,0.403,1.161-0.356,1.161s-6.001,0-6.001,0V318.622z
		 M-17.98,325.308c0-0.175,0.119-0.317,0.266-0.317h3.715c0.146,0,0.265,0.143,0.265,0.317c0,0.176-0.12,0.319-0.265,0.319h-3.715
		C-17.861,325.627-17.98,325.483-17.98,325.308z"/>
</g>
</svg>
