<?xml version="1.0" encoding="utf-8"?>
<!-- Generator: Adobe Illustrator 16.0.0, SVG Export Plug-In . SVG Version: 6.00 Build 0)  -->
<!DOCTYPE svg PUBLIC "-//W3C//DTD SVG 1.1//EN" "http://www.w3.org/Graphics/SVG/1.1/DTD/svg11.dtd">
<svg version="1.1" id="Layer_1" xmlns="http://www.w3.org/2000/svg" xmlns:xlink="http://www.w3.org/1999/xlink" x="0px" y="0px"
	 width="154.76px" height="50.308px" viewBox="-13.068 308.305 154.76 50.308"
	 style="enable-background:new -13.068 308.305 154.76 50.308;" xml:space="preserve">
<path style="fill:#000;" d="M139.577,319.872c0,0-0.132-0.593-0.793-0.593s-34.442,0-34.442,0v0.331h-4.496v-0.728l-1.125-0.266
	l0.134-0.464h0.925v-0.856l-0.99-0.066l-1.058-0.33c0,0-1.092-4.198-1.257-4.365h-3.174v-0.464h1.521c0,0,0.133-2.047,0-2.313
	c-0.135-0.265-0.926-1.454-1.322-1.454c-0.398,0-4.431,0-4.431,0s0,0.264,0,0.46c-2.512,0.135-2.512,0.863-2.512,1.521
	c0,0.666-0.066,1.191-0.066,1.191l-0.528,0.067l-2.049,3.369H82.79v2.514h-0.859v-0.598h-0.925v0.598h-1.092v-0.598h-0.928v0.598
	h-1.089v-0.598h-0.927v0.598h-1.09v-0.598h-0.926v0.598h-1.09v-0.598h-0.928v0.598H71.85v-0.598h-0.928v0.598h-1.09v-0.598h-0.926
	v0.598h-1.09v-0.598h-0.926v0.598h-1.09v-0.598h-0.928v0.598H63.7v-0.598h-2.198v1.853h-0.727v-0.989l-3.107,0.397v0.526H57.14
	v-0.526h-0.264v-1.19h-1.322v0.658H55.09h-0.131V316.9h-0.86l-0.286,0.235v0.423h-0.771V316.9h-0.859l-0.287,0.235v0.423h-0.904
	V316.9h-0.859l-0.287,0.235v0.423h-0.683V316.9h-0.86l-0.286,0.235v0.423h-0.772V316.9h-0.858l-0.286,0.235v0.423h-0.903V316.9
	h-0.86l-0.286,0.235v0.423h-0.64V316.9h-0.859l-0.286,0.235v0.423h-0.772V316.9h-0.86l-0.286,0.235v0.423h-0.904V316.9h-0.859
	l-0.287,0.235v0.423h-0.682V316.9h-0.86l-0.286,0.235v0.423h-0.771V316.9h-0.86l-0.286,0.235v0.423h-0.904V316.9h-0.858
	l-0.286,0.235v0.423h-0.662V316.9h-0.859l-0.287,0.235v0.423h-0.64V316.9h-0.859l-0.287,0.235v0.423h-0.771V316.9h-0.86
	l-0.286,0.235v0.423h-0.197v1.259h-0.662c0,0-5.487-7.01-6.015-7.803c-0.529-0.793-1.255-1.189-2.248-1.189
	c-0.991,0-1.455,0.858-1.455,1.92c0,1.052,0,9.188,0,9.188H10.4l-0.464,0.325H5.971l-0.594-0.262h-9.585
	c0,0-0.067-0.264-0.463-0.264c-0.397,0-0.397,0.33-0.397,0.33h-1.125c-0.263-0.201-5.751,0-6.279,0
	c-0.281,0-0.596,0.663-0.596,1.787c0,1.121,0.315,1.782,0.596,1.782c0.528,0,6.016,0.199,6.279,0h1.125c0,0,0,0.333,0.397,0.333
	c0.396,0,0.463-0.269,0.463-0.269h9.585l0.594-0.262h3.965l0.464,0.331h6.28l-0.066,0.529l-0.792,0.264v0.992h1.189l0.53,0.924
	h1.256l0.329-0.593v-1.259v-0.792h4.495c0,0,0.198,1.783,0.198,1.982c0,0.198,0.331,0.595,0.728,0.528
	c0.396-0.063,0.991-0.856,0.991-0.856s0.396-0.201,0.729,0.065c0.329,0.263,0.528,0.66,0.528,0.66v0.991h0.197v0.423l0.286,0.239
	h0.86v-0.662h0.771v0.423l0.287,0.239h0.859v-0.662h0.64v0.423l0.287,0.239h0.859v-0.662h0.662v0.423l0.286,0.239h0.858v-0.662
	h0.904v0.423l0.286,0.239h0.86v-0.662h0.771v0.423l0.286,0.239h0.86v-0.662h0.682v0.423l0.287,0.239h0.859v-0.662h0.904v0.423
	l0.286,0.239h0.86v-0.662h0.772v0.423l0.286,0.239h0.859v-0.662h0.64v0.423l0.286,0.239h0.86v-0.662H46.1v0.423l0.286,0.239h0.858
	v-0.662h0.772v0.423l0.286,0.239h0.86v-0.662h0.683v0.423l0.287,0.239h0.859v-0.662h0.904v0.423l0.287,0.239h0.859v-0.662h0.771
	v0.423l0.286,0.239h0.86v-0.662h0.131h0.464v0.662h1.322v-1.19h0.264v-0.53h0.362l3.076,0.661l-0.1-1.684l1.29,0.097v0.895
	c0,0-0.694,0.793,0,1.189c0.695,0.396,2.181,0.496,2.281,2.181c0.099,1.684,0,5.454,0,5.454s-0.396,0.2-0.396,0.694
	s0.894,0.694,0.894,0.694s0.297,3.668-0.198,6.248c-0.442,2.293-1.588,6.742-2.381,8.922c-0.818,2.256-1.289,2.58-0.496,3.177
	c0.794,0.593,8.826,2.575,9.52,2.774c0.693,0.197,1.487,0.497,2.28-0.992c2.579-4.261,3.966-18.016,3.966-18.016
	s0.596,0.067,0.992,0.067s0.597-0.396,0.597-0.396h7.402l0.131,0.396c0,0,2.777-0.13,2.777,0.199c0,0,0.595-0.133,1.125,0.13
	c0.528,0.269,0.661,1.59,0.462,2.116c-0.196,0.53-0.595,0.994-0.331,1.457c0.265,0.459,0.729,0.262,1.322,0.332
	c0.595,0.065,0.728,0.396,1.059,0.924c0.329,0.526,1.255,2.38,1.915,3.569c0.663,1.189,0.397,1.584,0.268,2.181
	c-0.133,0.597,0.526,1.719,1.981,1.653c1.455-0.063,5.686-0.991,6.941-1.521c1.257-0.53,1.125-1.585,0.396-2.576
	c-0.726-0.993-6.412-10.449-7.205-11.438c-0.794-0.993-1.653-3.173-0.529-5.159c1.125-1.98,3.306-1.718,4.23-1.718
	c0.927,0,0.994-0.596,0.994-1.056c0-0.466,0-2.316,0-2.316s0.461,0,1.717,0c-0.196,0.463,0.66,1.983,1.653,1.983
	c0.199,0.396,1.188,0.53,1.188,0.53l1.854,3.567l2.84-0.128l1.126,0.855h2.113v1.458h1.919v-1.323h2.712c0,0,5.75,3.966,6.211,3.966
	c0.464,0,0.729-0.464,0.729-0.994c0-0.526,0-1.585,0-1.585l9.65,7.537c0,0,0.729,2.184,2.578,2.184c1.062,0,2.578-1.26,2.845-2.844
	c0.265-1.589,0.792-15.868,0.792-18.84C141.692,319.674,139.577,319.872,139.577,319.872z M-11.999,321.453h3.279
	c0.176,0,0.319,0.091,0.319,0.206s-0.143,0.204-0.319,0.204h-3.279c-0.177,0-0.318-0.089-0.318-0.204
	S-12.175,321.453-11.999,321.453z M-8.72,324.376h-3.279c-0.177,0-0.318-0.091-0.318-0.202c0-0.117,0.141-0.208,0.318-0.208h3.279
	c0.176,0,0.319,0.091,0.319,0.208C-8.4,324.285-8.543,324.376-8.72,324.376z M-8.589,323.247h-3.569
	c-0.192,0-0.348-0.155-0.348-0.349s0.155-0.348,0.348-0.348h3.569c0.193,0,0.348,0.154,0.348,0.348S-8.396,323.247-8.589,323.247z
	 M23.081,321.177H19.37c-0.264,0-0.48-0.218-0.48-0.48c0-0.268,0.216-0.481,0.48-0.481h3.711c0.265,0,0.482,0.214,0.482,0.481
	C23.563,320.959,23.346,321.177,23.081,321.177z M23.292,318.883c-0.795,0-3.869,0-4.463,0c-0.594,0-0.693,0-0.693-0.596
	c0-0.594-0.099-1.189-0.099-1.488c0-0.298-0.099-0.396,0.396-0.694c0.496-0.296,0.694-1.089,0.694-1.089
	c0-0.498,0-1.587,0.495-1.587c0.497,0,0.994,0.397,1.391,0.991c0.395,0.596,2.578,3.074,2.776,3.369
	C23.987,318.091,24.085,318.883,23.292,318.883z M28.647,326.748c-0.73,0-1.323-0.358-1.323-0.803c0-0.445,0.593-0.807,1.323-0.807
	s1.321,0.361,1.321,0.807C29.968,326.39,29.377,326.748,28.647,326.748z M28.647,320.665c-0.73,0-1.323-0.359-1.323-0.804
	c0-0.445,0.593-0.802,1.323-0.802s1.321,0.356,1.321,0.802C29.968,320.306,29.377,320.665,28.647,320.665z M32.91,326.748
	c-0.73,0-1.321-0.358-1.321-0.803c0-0.445,0.591-0.807,1.321-0.807c0.731,0,1.324,0.361,1.324,0.807
	C34.234,326.39,33.642,326.748,32.91,326.748z M32.91,320.665c-0.73,0-1.321-0.359-1.321-0.804c0-0.445,0.591-0.802,1.321-0.802
	c0.731,0,1.324,0.356,1.324,0.802C34.234,320.306,33.642,320.665,32.91,320.665z M37.175,326.748c-0.73,0-1.322-0.358-1.322-0.803
	c0-0.445,0.591-0.807,1.322-0.807c0.729,0,1.321,0.361,1.321,0.807C38.496,326.39,37.904,326.748,37.175,326.748z M37.175,320.665
	c-0.73,0-1.322-0.359-1.322-0.804c0-0.445,0.591-0.802,1.322-0.802c0.729,0,1.321,0.356,1.321,0.802
	C38.496,320.306,37.904,320.665,37.175,320.665z M41.439,326.748c-0.731,0-1.324-0.358-1.324-0.803c0-0.445,0.593-0.807,1.324-0.807
	c0.729,0,1.323,0.361,1.323,0.807C42.762,326.39,42.168,326.748,41.439,326.748z M41.439,320.665c-0.731,0-1.324-0.359-1.324-0.804
	c0-0.445,0.593-0.802,1.324-0.802c0.729,0,1.323,0.356,1.323,0.802C42.762,320.306,42.168,320.665,41.439,320.665z M45.703,326.748
	c-0.73,0-1.323-0.358-1.323-0.803c0-0.445,0.592-0.807,1.323-0.807c0.73,0,1.322,0.361,1.322,0.807
	C47.025,326.39,46.433,326.748,45.703,326.748z M45.703,320.665c-0.73,0-1.323-0.359-1.323-0.804c0-0.445,0.592-0.802,1.323-0.802
	c0.73,0,1.322,0.356,1.322,0.802C47.025,320.306,46.433,320.665,45.703,320.665z M49.965,326.748c-0.729,0-1.321-0.358-1.321-0.803
	c0-0.445,0.592-0.807,1.321-0.807c0.731,0,1.324,0.361,1.324,0.807C51.289,326.39,50.696,326.748,49.965,326.748z M49.965,320.665
	c-0.729,0-1.321-0.359-1.321-0.804c0-0.445,0.592-0.802,1.321-0.802c0.731,0,1.324,0.356,1.324,0.802
	C51.289,320.306,50.696,320.665,49.965,320.665z M54.23,326.748c-0.73,0-1.322-0.358-1.322-0.803c0-0.445,0.592-0.807,1.322-0.807
	c0.731,0,1.324,0.361,1.324,0.807C55.554,326.39,54.961,326.748,54.23,326.748z M54.23,320.665c-0.73,0-1.322-0.359-1.322-0.804
	c0-0.445,0.592-0.802,1.322-0.802c0.731,0,1.324,0.356,1.324,0.802C55.554,320.306,54.961,320.665,54.23,320.665z M86.363,337.674
	c-0.41,0.277-0.541,0.524-0.541,0.802h-7.001l-0.032-0.311c-0.131-0.294-1.084-1.313-1.084-2.514c0-1.198,1.066-2.661,2.005-2.661
	c0.935,0,3.844,0,3.844,0s0.954,0.919,0.954,2.236c0,1.313-0.806,2.084-1.035,2.233c-0.23,0.148-0.099,0.396,0.131,0.345
	c0.23-0.05,1.546-1.283,1.692-2.27c0.147-0.983-0.016-2.018-0.146-2.266c-0.132-0.248,0.015-0.279,0.213-0.279
	c0.195,0,1.89,0.377,2.169,1.791S86.774,337.395,86.363,337.674z M133.211,331.623h-8.245c-0.325,0-0.585-0.264-0.585-0.584
	c0-0.323,0.26-0.585,0.585-0.585h8.245c0.322,0,0.584,0.262,0.584,0.585C133.795,331.359,133.533,331.623,133.211,331.623z
	 M135.341,338.906c0,0.229-0.185,0.412-0.412,0.412c-0.229,0-0.412-0.184-0.412-0.412v-0.72c0-0.23,0.184-0.412,0.412-0.412
	c0.228,0,0.412,0.182,0.412,0.412V338.906z M135.547,335.179c0,0.275-0.222,0.497-0.499,0.497c-0.274,0-0.497-0.222-0.497-0.497
	v-2.577c0-0.275,0.223-0.497,0.497-0.497c0.277,0,0.499,0.222,0.499,0.497V335.179z"/>
</svg>
