<?xml version="1.0" encoding="utf-8"?>
<!-- Generator: Adobe Illustrator 16.0.0, SVG Export Plug-In . SVG Version: 6.00 Build 0)  -->
<!DOCTYPE svg PUBLIC "-//W3C//DTD SVG 1.1//EN" "http://www.w3.org/Graphics/SVG/1.1/DTD/svg11.dtd">
<svg version="1.1" id="Layer_1" xmlns="http://www.w3.org/2000/svg" xmlns:xlink="http://www.w3.org/1999/xlink" x="0px" y="0px"
	 width="146.381px" height="43.272px" viewBox="-9.71 312.311 146.381 43.272"
	 style="enable-background:new -9.71 312.311 146.381 43.272;" xml:space="preserve">
<path style="fill:#000;" d="M135.203,324.634l-1.289,0.386c0,0-1.674-0.129-3.477-0.129c-1.801,0-18.281-0.257-20.854-0.257
	c-2.574,0-8.24-1.158-9.271-2.188c-1.027-1.032-2.314-1.032-2.314-1.032v-0.515h-3.561v-0.426h-0.475v-1.674h1.547l0.256-0.516
	v-3.906l-0.559-0.344h-1.16l-0.771-0.858h-0.021v-0.476H92.42v-0.389h-0.758v0.389h-0.746v-0.389h-0.758v0.389h-0.746v-0.389h-0.76
	v0.389h-0.684v-0.389h-0.76v0.389h-0.686v-0.389h-0.758v0.389H84.99v-0.389h-0.762v0.389h-0.594v-0.389h-0.762v0.389h-0.758v-0.389
	h-0.762v0.389H80.67v-0.389h-0.76v0.778c-1.32,0-23.484,0-24.568,0c-1.116,0-1.758,0.343-2.273,0.773
	c-0.513,0.429-7.512,7.165-7.854,7.251c-0.342,0.088-0.687,0.389-0.687,0.389s-24.545,0-25.189,0c-0.643,0-0.859,0.299-1.501,1.242
	c-0.645,0.945-1.116,2.488-1.16,2.876h-4.162v-0.431l-0.602-0.256H8.698l-0.428,0.472h-9.743v-0.386h-2.959l-0.258,0.514
	l-0.556,0.043l-0.044-0.557h-3.948c0,0-0.472,0.389-0.472,1.586c0,1.203,0.472,1.59,0.472,1.59h3.948l0.044-0.559l0.556,0.041
	l0.258,0.518h2.959v-0.387H8.27l0.428,0.472h3.218l0.602-0.258v-0.428h3.26l0.43,0.942l0.257,1.244l-2.017,0.045v0.385h1.932v0.73
	l0.428,0.428h0.517l0.514-0.211v-0.817h0.428c0,0,0,0.642,0.386,0.9h3.39l0.129-0.729l2.851,0.039v1.613h1.125v-0.409h0.766v0.409
	h0.904v-0.409h0.765v0.409h0.904v-0.409h0.766v0.409h0.904v-0.409h0.765v0.409h0.904v-0.409h0.766v0.409h0.903v-0.409h0.767v0.409
	h0.902v-0.409h0.767v0.409h2.233v-1.43l21.93,0.292l0.43,0.132c0,0,0.643,0,3.003,1.63c2.361,1.632,2.189,3.562,2.189,3.562
	l0.3,0.083c-0.901,7.253-2.874,13.134-3.259,14.721c-0.602,0-0.691,1.073-0.174,1.287c0.514,0.213,7.422,2.79,8.24,3.087
	c0.814,0.303,0.9-0.729,0.857-0.77c1.846-3.647,4.033-16.521,4.334-16.563l0.043-0.346l1.113,0.172v0.816l0.346,0.944H78.9v-1.587
	l0.318,0.015l0.613,0.873l6.307,0.622l2.668-1.928c0.006,0.098,0.006,0.16,0.006,0.16s3.693,7.683,4.078,8.408
	c0.385,0.73,0.43,1.375,0.172,1.762c-0.256,0.385,0.213,0.729,0.559,0.601c0.342-0.129,4.246-2.445,5.15-2.963
	c0.898-0.515,0.77-1.029,0.514-1.415c-0.258-0.384-3.09-5.149-4.506-7.597c-1.418-2.445,0-4.245,0.514-4.245
	c0.518,0,2.705,0,2.705,0l0.773-0.646h2.059l0.385,0.515c0,0,9.914,0,10.686,0s7.596,1.417,12.361,2.961
	c4.762,1.548,6.949,7.981,6.949,8.883c0,0.904,0.387,1.419,0.387,1.419s2.832,0,3.605,0c0.771,0,1.414,0,1.285-0.515
	c-0.127-0.518-0.643-6.052-0.643-9.915c0-3.861,0.387-8.885,0.771-9.656S135.203,324.634,135.203,324.634z M36.648,322.596h2.041
	c0.187,0,0.34,0.153,0.34,0.342c0,0.188-0.153,0.34-0.34,0.34h-2.041c-0.188,0-0.338-0.152-0.338-0.34
	C36.31,322.749,36.46,322.596,36.648,322.596z M32.524,322.596h2.039c0.189,0,0.343,0.153,0.343,0.342
	c0,0.188-0.153,0.34-0.343,0.34h-2.039c-0.189,0-0.339-0.152-0.339-0.34C32.186,322.749,32.335,322.596,32.524,322.596z
	 M28.4,322.596h2.042c0.187,0,0.341,0.153,0.341,0.342c0,0.188-0.154,0.34-0.341,0.34H28.4c-0.188,0-0.339-0.152-0.339-0.34
	C28.061,322.749,28.212,322.596,28.4,322.596z M22.192,323.277h-2.04c-0.188,0-0.341-0.152-0.341-0.34
	c0-0.188,0.153-0.342,0.341-0.342h2.04c0.191,0,0.341,0.153,0.341,0.342C22.533,323.125,22.383,323.277,22.192,323.277z
	 M23.934,322.938c0-0.188,0.154-0.342,0.343-0.342h2.041c0.187,0,0.341,0.153,0.341,0.342c0,0.188-0.154,0.34-0.341,0.34h-2.041
	C24.088,323.277,23.934,323.125,23.934,322.938z M42.813,323.277h-2.042c-0.187,0-0.34-0.152-0.34-0.34
	c0-0.188,0.153-0.342,0.34-0.342h2.042c0.188,0,0.34,0.153,0.34,0.342C43.153,323.125,43,323.277,42.813,323.277z M79.242,321.413
	v0.216c0,0-25.486,0-25.229,0l0.042,0.945h6.823v0.47c0,0-10.47,0-10.77,0c-0.298,0-0.449-0.214-0.449-0.448
	c0-0.236,0-1.353,0-1.353s2.423-3.518,2.81-4.033c0.385-0.515,1.887-2.919,4.505-2.919c2.618,0,19.784,0,20.728,0
	s1.541,0.256,1.541,1.246C79.242,316.521,79.242,321.413,79.242,321.413z M85.996,339.174l-5.879-0.581l-0.316-0.45v-3.555
	c0,0,0.172,0,0.559,0c0.389,0,0.43-0.644,0.43-0.644l3.563,0.085l0.514,0.346h0.629c0.088,0.315,0.137,0.641,0.137,0.964
	c0,1.647-0.934,2.951-1.049,3.107c-0.115,0.149-0.012,0.456,0.246,0.341c0.262-0.122,1.697-2.057,1.697-3.72
	c0-0.233-0.01-0.465-0.025-0.692h0.725c0,0,1.162,1.8,1.375,2.317c0.066,0.154,0.107,0.33,0.141,0.497L85.996,339.174z
	 M110.873,330.256c0,0.427-0.348,0.771-0.775,0.771h-5.578c-0.428,0-0.771-0.344-0.771-0.771v-2.746
	c0-0.429,0.344-0.773,0.771-0.773h5.578c0.428,0,0.775,0.345,0.775,0.773V330.256z M129.922,334.576
	c-0.301,0-0.545-0.246-0.545-0.547c0-0.299,0.244-0.543,0.545-0.543s0.547,0.244,0.547,0.543
	C130.469,334.33,130.223,334.576,129.922,334.576z M130.613,333.049c-0.197-0.14-0.434-0.219-0.691-0.219
	c-0.662,0-1.199,0.539-1.199,1.199c0,0.204,0.057,0.391,0.143,0.559l-15.506-2.908c-0.424,0-0.771-0.348-0.771-0.774v-4.513
	c0-0.426,0.348-0.772,0.771-0.772h16.48c0.426,0,0.773,0.347,0.773,0.772V333.049z"/>
</svg>
