<?xml version="1.0" encoding="utf-8"?>
<!-- Generator: Adobe Illustrator 16.0.0, SVG Export Plug-In . SVG Version: 6.00 Build 0)  -->
<!DOCTYPE svg PUBLIC "-//W3C//DTD SVG 1.1//EN" "http://www.w3.org/Graphics/SVG/1.1/DTD/svg11.dtd">
<svg version="1.1" id="Layer_1" xmlns="http://www.w3.org/2000/svg" xmlns:xlink="http://www.w3.org/1999/xlink" x="0px" y="0px"
	 width="159.484px" height="47.034px" viewBox="-15.408 310.461 159.484 47.034"
	 style="enable-background:new -15.408 310.461 159.484 47.034;" xml:space="preserve">
<path style="fill:#000;" d="M144.025,336.883c-0.238-1.064-0.475-2.479-0.65-4.252c-0.178-1.771-0.355-9.979-0.119-11.754
	c0.234-1.77-0.943-2.24-1.713-2.24c-0.768,0-4.131,0-5.256,0c-0.592,0-0.883,0.394-1.018,0.85h-23.252v-0.198h-3.898v-1.479h-4.078
	l-1,0.294v1.419h-3.838v-0.828c-0.709,0-1.123-1.119-1.123-1.119l-1.242-1.833h-0.648c0,0-2.48-2.125-2.717-2.361
	c-0.236-0.237-0.709-0.475-1.299-0.475s-35.848,0-35.848,0v-0.648h-1.753v-0.276c0.189-0.061,0.346-0.192,0.443-0.36h0.594
	c0.381,0,0.602-0.299,0.673-0.476l0.016-0.037v-0.587h-0.415v0.499c-0.032,0.06-0.121,0.183-0.273,0.183h-0.498
	c-0.018-0.412-0.354-0.742-0.775-0.742c-0.418,0-0.757,0.33-0.774,0.742h-3.414l-0.437-0.127c0,0-3.718,0-4.191,0
	c-0.471,0-1.121,0.297-1.121,0.828s0,0.828,0,0.828H43.28v-0.935h0.768v-0.042l0,0v-1.229h-1.641v0.453H41.38v-0.453h-0.737v0.453
	h-1.051v-0.453h-0.737v0.453h-1.051v-0.453h-0.739v0.453h-1.05v-0.453h-0.739v0.453h-1.053v-0.453h-0.737v0.453h-1.052v-0.453
	h-0.739v0.453h-1.053v-0.453h-0.738v0.453h-1.051v-0.453h-0.737v0.453h-1.053v-0.453h-0.736v0.453h-1.052v-0.453h-0.736v0.453
	h-1.476v-0.453h-0.74v0.453l0,0v0.817h2.216v0.244h0.019v0.155h-1.005l-0.798,1.17H9.228c0,0-1.106,4.303-4.798,4.426v0.34H-6.562
	v-0.602c0,0-2.765-5.455-2.941-5.781c-0.174-0.326-0.501-1.207-0.904-1.207c-0.399,0-1.182,0-1.482,0
	c-0.3,0-0.502,0.204-0.502,0.631s0,5.953,0,5.953h-0.754l-0.1,0.932c0,0-1.534,0-1.759,0c-0.226,0-0.403,0.5-0.403,1.432
	c0,0.928,0.478,1.354,0.703,1.354c0.228,0,1.936,0,1.936,0l0.127,0.506h0.325l0.427,1.056h1.608l0.023-0.154H8.767v0.275h1.532
	v-0.248h12.991v0.854l0.426,0.275v1.759h1.908l0.05-0.299h0.354c0,0,0.05,0.853,0.955,0.853c0.127,0.201,0.653,0.879,0.653,0.879
	v2.037c0,0-0.354,0.351-0.354,1.256c0,1.156,0.706,1.355,0.73,1.507c0.022,0.15,0,0.505,0,0.678v1.785l-0.05,0.979h-0.404v0.554
	h0.254v0.629H27.41v0.576h0.376v0.705h-0.351v0.554h0.276v0.653l-0.126,0.125v0.399c0.15,0,0.277,2.515,0.277,2.515l0.173,0.101
	v1.759c0,0-0.149,0.202-0.173,0.353c-0.026,0.15,0,0.753,0,1.18s0.853,0.932,1.608,0.453c0.753-0.478,3.24-2.663,3.466-2.89
	c0.227-0.229,0.503-0.352,0.503-0.806c0-0.452,0-8.139,0-8.139l0.177-0.429v-4.371h0.602l1.358-1.307l0.198-0.303h1.558v-0.955
	h-0.601v-0.527h0.577v-0.249h0.729v-0.505h0.781v0.505h1.028v-0.505h0.602v0.505h1.283v-0.479h0.755v0.527h6.206c0,0,3.365,0,3.67,0
	c0.299,0,0.398-0.302,0.398-0.577c0-0.276,0-0.476,0-0.476h7.866v1.631h0.503c0,0-1.91,11.369-9.293,17.452
	c-0.586,0.119-2.359,0.06-2.538,0.235c-0.177,0.179-1.771,1.536-1.771,1.536l0.297,1.417c0,0-0.178,0.414-0.416,0.414
	c-0.235,0-1.062,0.354-0.708,1.179c0.355,0.828,5.258,8.031,5.433,8.446c0.181,0.414,0.771,0.769,0.947,0.769s1.181-1.3,1.533-1.537
	c0.357-0.233,1.358-1.299,1.653-1.534c0.297-0.236,12.108-10.395,14.883-22.913c0.592-0.888,1.301-2.244,1.301-2.244l0.355-0.061
	l0.174,0.532l0.473,0.355l-0.059,2.421h0.412v-2.186h2.146v0.828l0.975,0.885h7.658l0.029-0.013c0.043-0.014,0.982-0.367,1.18-1.583
	c0.721,0.243,1.713,0.852,2.068,1.83c0.473,1.303,0.057,2.188-0.059,2.48c-0.119,0.295,0,0.889,0.412,1.123
	c0.201,0.115,0.654,0.404,0.902,0.935c0.262,0.558,0.311,1.36,0.221,1.663c-0.176,0.593,0.119,0.886,0.354,1.063
	c0.111,0.083,0.561,0.3,0.83,0.839c0.305,0.607,0.418,1.56,0.293,1.997c-0.236,0.827-0.496,1.645,0.117,1.892
	c0.59,0.234,3.246,0.293,5.197-0.238c1.949-0.53,3.781-1.301,3.896-1.891c0.119-0.588,0.119-0.826-0.648-2.655
	c-0.768-1.832-3.898-6.143-4.135-6.853c-0.236-0.708-0.592-1.947,0-2.832c0.592-0.886,1.002-2.365,0.828-2.422
	c0,0-0.18-1.005,0-1.005c0.174,0,10.451,0,10.451,0v-0.824h-0.531v-1.655h1.299c0,0,0,1.828,0,2.246
	c0,0.414,0.709,0.707,0.709,0.707s0.059,0.472,0.65,0.472c0.59,0,3.367,0,3.367,0v-0.708h8.148c0.951,0,2.381,0,5.053,1.78
	c1.688,1.123,6.811,4.377,10.422,6.662c0.004,0.391,0.076,1.258,0.469,1.536c0.414,0.295,1.949,1.652,2.422,2.188
	c0.471,0.53,1.182,0.708,1.656,0.708c0.471,0,1.002,0.116,2.24,0C143.672,339.363,144.26,337.947,144.025,336.883z M-10.854,317.068
	c-0.412,0-0.273-0.455-0.273-0.455s0-0.828,0-1.15c0-0.32,0.134-0.412,0.503-0.412c0,0,1.148-0.044,1.515-0.044
	c0.365,0,0.369,0.32,0.369,0.32s0.321,0.871,0.504,1.194c0.183,0.32-0.048,0.547-0.368,0.547
	C-8.926,317.068-10.44,317.068-10.854,317.068z M4.75,321.523H-9.202l0.092-0.597h2.204v-0.277H4.063v0.37H4.75V321.523z
	 M10.809,317.027l0.507-0.32h9.408l0.366,0.227h0.551l0.043,1.057H10.809V317.027z M22.926,321.568H10.854v-0.32l-0.412-0.094
	v-0.412h11.199l0.181,0.366h1.104V321.568z M33.435,316.707h-0.687l-0.231,0.32l-5.6,0.041l0.872-0.916h5.003v0.319h0.643V316.707z
	 M40.112,317.162h-1.604c-0.294,0-0.529-0.234-0.529-0.527s0.235-0.525,0.529-0.525h1.604c0.294,0,0.528,0.232,0.528,0.525
	S40.406,317.162,40.112,317.162z M44.219,317.118h-1.054c-0.155,0-0.276-0.127-0.276-0.276c0-0.15,0.121-0.277,0.276-0.277h1.054
	c0.152,0,0.277,0.127,0.277,0.277C44.497,316.991,44.372,317.118,44.219,317.118z M51.583,311.621h2.078
	c0.093,0.168,0.253,0.3,0.442,0.36v0.276h-0.316L51.583,311.621z M84.521,331.688h-7.455l-0.758-0.689v-1.261h-0.02v-4.371h4.727
	c0.547,0.705,1.156,1.652,1.156,2.597c0,1.51-1.119,2.713-1.262,2.851c-0.139,0.141-0.016,0.42,0.297,0.312
	c0.311-0.11,2.041-1.885,2.041-3.41c0-0.829-0.15-1.627-0.4-2.349h1.707v4.371c0,0,0.061,0.591,0.65,0.591
	c0.07,0,0.154,0.011,0.244,0.026C85.311,331.296,84.662,331.628,84.521,331.688z M135.873,332.396
	c-0.037,0.052-0.068,0.188-0.096,0.366c-3.506-2.223-7.934-5.036-9.445-6.043c-3.176-2.117-5.121-2.117-6.166-2.117h-8.148v-3.105
	h23.297c0.033,0.148,0.068,0.27,0.088,0.328c0.059,0.179,0.354,2.068,0.471,4.076C135.992,327.907,136.053,332.16,135.873,332.396z"
	/>
</svg>
