<?xml version="1.0" encoding="utf-8"?>
<!-- Generator: Adobe Illustrator 16.0.0, SVG Export Plug-In . SVG Version: 6.00 Build 0)  -->
<!DOCTYPE svg PUBLIC "-//W3C//DTD SVG 1.1//EN" "http://www.w3.org/Graphics/SVG/1.1/DTD/svg11.dtd">
<svg version="1.1" id="Layer_1" xmlns="http://www.w3.org/2000/svg" xmlns:xlink="http://www.w3.org/1999/xlink" x="0px" y="0px"
	 width="165.762px" height="43.394px" viewBox="-19.573 311.658 165.762 43.394"
	 style="enable-background:new -19.573 311.658 165.762 43.394;" xml:space="preserve">
<path style="fill:#000;" d="M145.197,320.912c-0.552,0-1.103,0.109-1.103,0.109s-0.219-0.441-1.102-0.549
	c-0.883-0.111-40.89,0.926-41.549,0.877c-0.357-0.02-0.897-0.436-0.897-0.436s-0.727-0.66-0.727-0.924
	c0.264-0.197,0.33-1.389-0.199-1.389c-0.531,0-1.124,0-1.124,0l-1.453-3.307h-0.795v-2.115l-1.455-1.521l-3.569,0.268l0.066,0.396
	c0,0-20.098,1.584-21.353,1.848c-1.257,0.268-1.257,1.457-1.257,2.316s0,4.23,0,4.23h-0.66l-0.067-1.121l-2.512,0.326v0.465h-0.529
	c0,0,0,0,0-0.529s-0.528-0.926-1.19-0.926c-0.661,0-46.01,0.463-46.736,0.463c-0.729,0-0.86,0.463-0.86,0.463h-0.925
	c0,0-4.959-7.471-6.28-7.471c-1.324,0-1.721,0.926-1.721,1.854c0,0.922,0,8.326,0,8.326h-18.907l-0.593-0.262h-6.413
	c0,0-0.86,0.396-0.86,1.65c0,1.256,0.53,1.852,0.53,1.852h6.545l0.542-0.268H7.551v0.773h1.102l0.33-0.328h0.771h3.528
	c0,0,0,0.658,0,0.988s0.109,1.105,0.881,1.105s0.771-0.775,0.771-0.775h0.661c0,0,0.99,1.104,1.433,1.215
	c0.442,0.109,47.167,0.66,47.608,0.66c0.44,0,0.66-1.432,0.66-1.432l2.978,0.771v-1.545h0.438c0,0,0,1.324,0.664,1.545
	c0.66,0.219,1.32,0.879,1.32,1.434c0,0.547,0,3.416,0,4.629c-0.44,0-0.552,0.219-0.44,0.658c0.108,0.441,0.772,0.441,0.772,0.441
	s0.109,2.316,0,3.193c-0.112,0.883-2.426,10.473-2.755,11.791c-0.331,1.324,0.109,1.658,0.771,1.877
	c0.66,0.219,6.282,1.982,7.713,2.424c1.434,0.439,1.765-0.883,2.096-1.873c0.329-0.99,1.652-5.619,2.205-7.271
	c0.549-1.654,0.88-4.631,0.88-6.283c0-1.654,0.441-1.766,1.214-1.766c0.77,0,8.264,0.225,8.596,0.332
	c0.328,0.111,1.652,2.092,1.321,2.645c-0.33,0.551-0.33,1.104,0.44,1.104c0.772,0,0.882-0.109,1.435,0.66
	c0.549,0.771,2.204,4.518,1.87,5.289c-0.328,0.771,0.112,1.436,0.884,1.324c0.772-0.109,5.07-1.324,6.944-1.652
	c1.871-0.33,0.991-2.094,0.328-3.088c-0.661-0.992-5.179-6.941-6.062-8.377c-0.881-1.428-1.319-3.195-0.659-4.625
	c0.659-1.432,1.872-1.543,2.976-1.432c1.102,0.107,7.271,1.318,8.266,1.432c0.99,0.107,32.951,10.25,32.951,10.25
	s0.99,0.219,1.434,0.328c0.44,0.111,0.989-0.328,1.211-1.984c0.222-1.65,1.102-14.877,1.102-16.861S145.747,320.912,145.197,320.912
	z M-15.706,325.482h-2.776c-0.164,0-0.298-0.094-0.298-0.205c0-0.115,0.134-0.203,0.298-0.203h2.776
	c0.164,0,0.297,0.088,0.297,0.203C-15.409,325.389-15.542,325.482-15.706,325.482z M-15.706,324.352h-2.776
	c-0.164,0-0.298-0.135-0.298-0.295c0-0.166,0.134-0.301,0.298-0.301h2.776c0.164,0,0.297,0.135,0.297,0.301
	C-15.409,324.217-15.542,324.352-15.706,324.352z M-15.706,323.102h-2.776c-0.164,0-0.298-0.088-0.298-0.203
	c0-0.111,0.134-0.203,0.298-0.203h2.776c0.164,0,0.297,0.092,0.297,0.203C-15.409,323.014-15.542,323.102-15.706,323.102z
	 M9.098,319.762c0-0.336,0-1.201,0-1.311s0.044-0.301,0.379-0.301c0.337,0,0.401-0.141,0.499-0.254
	c0.098-0.105,0.195-0.477,0.195-0.668c0-0.26-0.032-0.783,0.345-0.783c0.314,0,0.456,0.316,0.673,0.564
	c0.17,0.195,1.688,2.232,1.862,2.484c0.174,0.244,0.142,0.539-0.152,0.539c-0.291,0-3.118,0-3.313,0
	C9.39,320.033,9.098,320.098,9.098,319.762z M13.084,322.436H9.78c-0.146,0-0.267-0.121-0.267-0.266s0.12-0.262,0.267-0.262h3.304
	c0.146,0,0.265,0.117,0.265,0.262S13.23,322.436,13.084,322.436z M73.146,317.939c-0.231-0.654-0.854-1.125-1.589-1.125
	c-0.325,0-0.629,0.098-0.888,0.258c-0.086-0.189-0.136-0.398-0.136-0.621c0-0.818,0.667-1.486,1.486-1.486h15.142
	c0.819,0,1.485,0.668,1.485,1.486c0,0.824-0.666,1.488-1.485,1.488H73.146z M88.58,336.648h-3.9c-1.313,0-2.38-1.066-2.38-2.379
	s1.066-2.379,2.38-2.379h2.9c0.31,0.486,0.564,1.043,0.564,1.605c0,1.268-0.94,2.273-1.06,2.391
	c-0.117,0.119-0.014,0.354,0.249,0.262s1.713-1.58,1.713-2.861c0-0.477-0.059-0.938-0.161-1.377c1.17,0.15,2.075,1.146,2.075,2.359
	C90.961,335.582,89.895,336.648,88.58,336.648z"/>
</svg>
