<?xml version="1.0" encoding="utf-8"?>
<!-- Generator: Adobe Illustrator 16.0.0, SVG Export Plug-In . SVG Version: 6.00 Build 0)  -->
<!DOCTYPE svg PUBLIC "-//W3C//DTD SVG 1.1//EN" "http://www.w3.org/Graphics/SVG/1.1/DTD/svg11.dtd">
<svg version="1.1" id="Layer_1" xmlns="http://www.w3.org/2000/svg" xmlns:xlink="http://www.w3.org/1999/xlink" x="0px" y="0px"
	 width="156.018px" height="48.107px" viewBox="-14.202 309.545 156.018 48.107"
	 style="enable-background:new -14.202 309.545 156.018 48.107;" xml:space="preserve">
<g>
	<path style="fill:#000;" d="M82.076,322.812c0.404,0.599,2.161,2.301,2.161,4.004c0,1.702-1.264,3.055-1.422,3.214
		c-0.158,0.158-0.019,0.475,0.332,0.35c0.351-0.123,2.3-2.123,2.3-3.845s-0.561-3.337-1.368-4.459L82.076,322.812z"/>
	<path style="fill:#000;" d="M141.811,323.302c-0.101-0.861-0.658-1.064-0.911-1.064s-22.049-2.677-23.062-2.83
		c-1.01-0.152-1.161,0.201-1.616,0.608c-0.456,0.402-2.884,0.856-4.501,0.502c-1.617-0.353-10.316-2.123-10.316-2.123l-0.252-0.757
		h-1.266v-0.762l-5.057-4.397H57.659l-0.455-0.454v-0.353l0.277-0.28v-1.542h-0.479v0.656h-0.608v-0.456h-0.506l-0.251,0.255
		l-0.456,0.457h-5.412h-3.59l-0.758,0.958v0.407h-0.911v-0.612c0,0-0.353-0.807-1.518-0.807c-1.162,0-16.334,0-17.094,0
		c-0.758,0-1.01,0.807-1.01,1.316c-0.354,0.354-0.581,0.58-0.581,0.58h-0.734v-0.478h-1.618v0.503H10.476
		c0,0-1.82,4.147-5.511,4.197c0,0.354,0,0.354,0,0.354H-5.856l-2.529-6.067c0,0-0.355-1.569-1.67-1.569
		c-1.314,0-1.566,0.455-1.566,1.217c0,0.753,0,5.509,0,5.509h-0.86v0.507h-1.72v2.63h2.125v0.554h0.353l0.329,0.332v1.189h0.479
		l0.709-0.408H9.416l0.404,0.608h1.163l0.304-0.608h12.541c0,0,0,0.408,0,0.81c0,0.407,0.81,0.96,1.314,0.96
		c0.406,0.405,0.455,0.559,3.036,0.559c2.579,0,14.058-0.201,15.22-0.201c1.165,0,2.429,0.101,3.693,0.91
		c1.264,0.81,2.377,1.365,3.793,1.365c1.417,0,1.619-1.365,2.225-1.365c0.605,0,8.676,0.056,8.676,0.056v2.1h0.988
		c0,0-2.837,15.677-13.825,22.093c1.604,2.592,6.542,9.136,6.542,9.136s1.112,0.246,1.606,0.123
		c0.494-0.123,13.826-11.109,17.283-28.76c0.861,0.988,0.676,0.967,0.676,0.967v1.869l0.28,0.278l0.177,0.429
		c0.303,0,0.303,0,0.303,0v-2.02l0.861-0.407h0.602c0.008,0.188,0.02,0.397,0.033,0.639l0.008,0.101l1.109,0.986h7.914l1.391-1.146
		v-1.286h0.625c0,0,0.707,0.151,1.162,1.213c0.455,1.063,4.299,9.51,4.451,9.965c0.151,0.455,0,1.213,0,1.769
		c0,0.554,0,1.821,1.467,1.92c1.465,0.103,2.983-0.099,4.399-1.467c1.415-1.363,1.819-2.272,1.214-3.486
		c-0.607-1.215-3.085-6.978-3.39-7.688c-0.304-0.709-0.606-1.722-0.048-2.276c0.555-0.555,1.01-1.213,0.959-1.667
		c-0.05-0.456,0-1.719,0-1.719h1.871c0,0,10.619,3.386,16.587,5.207c5.969,1.821,18.005,5.969,19.065,6.423
		c1.063,0.456,3.236,0.757,3.895-0.306C140.646,336.096,141.91,324.159,141.811,323.302z M-10.511,315.893v-1.848h2.327
		c0,0,0.657,1.166,0.759,1.417c0.101,0.253,0.101,0.431-0.43,0.431S-10.511,315.893-10.511,315.893z M5.016,319.907v0.203v0.207
		H-8.385v-0.41h2.225v-0.246H5.016V319.907z M11.691,316.02h10.822v1.013H11.691V316.02z M22.666,320.418H11.691v-0.608h10.975
		V320.418z M32.5,316.271h-3.438c-0.183,0-0.33-0.146-0.33-0.326c0-0.181,0.147-0.332,0.33-0.332H32.5
		c0.181,0,0.329,0.151,0.329,0.332C32.83,316.124,32.682,316.271,32.5,316.271z M41.251,316.271H37.81
		c-0.181,0-0.328-0.146-0.328-0.326c0-0.181,0.147-0.332,0.328-0.332h3.441c0.181,0,0.328,0.151,0.328,0.332
		C41.579,316.124,41.432,316.271,41.251,316.271z M87.247,330.323l-1.079,0.895h-7.556l-0.822-0.733
		c-0.011-0.168-0.021-0.341-0.024-0.51h0.275v-4.198l0.556-0.707h7.989l0.305,0.507v3.186v0.506h0.356V330.323z"/>
</g>
</svg>
