<?xml version="1.0" encoding="utf-8"?>
<!-- Generator: Adobe Illustrator 16.0.0, SVG Export Plug-In . SVG Version: 6.00 Build 0)  -->
<!DOCTYPE svg PUBLIC "-//W3C//DTD SVG 1.1//EN" "http://www.w3.org/Graphics/SVG/1.1/DTD/svg11.dtd">
<svg version="1.1" id="Layer_1" xmlns="http://www.w3.org/2000/svg" xmlns:xlink="http://www.w3.org/1999/xlink" x="0px" y="0px"
	 width="147.56px" height="101.836px" viewBox="-10.589 -29.698 147.56 101.836"
	 style="enable-background:new -10.589 -29.698 147.56 101.836;" xml:space="preserve">
<path style="fill:none;" d="M136.907-22.372l-3.9-7.008c-0.134-0.242-0.439-0.328-0.68-0.193L19.643,33.144
	c-0.001,0-0.002,0-0.003,0L-0.356,44.273c-2.442,1.359-3.428,3.535-4.301,5.836l-5.882,15.719c-0.097,0.258,0.035,0.545,0.294,0.643
	l15.062,5.637c0.056,0.021,0.115,0.031,0.175,0.031c0.071,0,0.142-0.014,0.207-0.045c0.121-0.055,0.215-0.154,0.262-0.279
	l5.058-13.516l17.653-9.826c0.013-0.006,0.023-0.014,0.035-0.021l3.809-2.117l0.618,1.109c1.165,2.096,3.38,3.396,5.779,3.396
	c1.118,0,2.228-0.289,3.21-0.836c1.543-0.859,2.658-2.266,3.143-3.965c0.483-1.697,0.276-3.482-0.582-5.025l-0.617-1.109
	L64.52,28.242l1.008,1.813c0.064,0.115,0.172,0.201,0.3,0.236c0.045,0.014,0.091,0.02,0.137,0.02c0.084,0,0.168-0.021,0.243-0.063
	l39.419-21.939c1.412-0.785,2.433-2.074,2.875-3.627c0.12-0.422,0.19-0.85,0.218-1.277l25.794-14.357
	c0.116-0.064,0.201-0.172,0.237-0.299c0.037-0.127,0.021-0.264-0.044-0.381l-2.691-4.834c-0.134-0.242-0.439-0.326-0.68-0.193
	L105.531-2.299c-0.737-0.395-1.556-0.633-2.41-0.695l33.593-18.697c0.116-0.064,0.201-0.172,0.237-0.301
	C136.988-22.12,136.972-22.256,136.907-22.372z"/>
<g>
	<path style="fill:#B8E152;" d="M31.551,36.481c-1.548-2.779-4.487-4.508-7.672-4.508c-1.482,0-2.955,0.385-4.258,1.109
		L-0.375,44.211c-2.442,1.359-3.428,3.535-4.301,5.836l-5.882,15.719c-0.097,0.258,0.035,0.545,0.294,0.643l15.062,5.636
		c0.056,0.021,0.115,0.031,0.175,0.031c0.071,0,0.142-0.014,0.207-0.045c0.121-0.055,0.215-0.154,0.262-0.279L10.5,58.237
		l17.653-9.826C32.378,46.061,33.903,40.708,31.551,36.481z"/>
	<g>
		<path style="fill:#624F5B;" d="M136.889-22.433l-3.9-7.008c-0.133-0.242-0.439-0.328-0.68-0.193L14.265,36.065
			c-4.225,2.35-5.749,7.699-3.397,11.924c1.546,2.781,4.485,4.508,7.669,4.508c0.001,0,0.001,0,0.001,0
			c1.481,0,2.953-0.383,4.256-1.107l9.203-5.117l0.618,1.109c1.165,2.096,3.38,3.396,5.779,3.396c1.118,0,2.228-0.289,3.21-0.836
			c1.543-0.859,2.658-2.266,3.143-3.965c0.483-1.697,0.276-3.482-0.582-5.025l-0.617-1.109l51.664-28.754
			c0.242-0.133,0.328-0.438,0.193-0.68l-3.9-7.01l45.191-25.152c0.117-0.064,0.201-0.172,0.238-0.301
			C136.971-22.181,136.953-22.318,136.889-22.433z M41.734,44.961c-0.196,1.043-0.765,1.873-1.601,2.34
			c-1.677,0.932-4.097-0.018-5.144-1.898l-0.338-0.607l1.979-1.102l0.065,0.893c0.074,1.002,0.97,1.773,1.971,1.701
			c1.012-0.076,1.774-0.961,1.7-1.971l-0.19-2.598l0.717-0.398l0.339,0.607C41.742,42.842,41.924,43.948,41.734,44.961z"/>
		<path style="fill:#624F5B;" d="M131.996-16.529c-0.133-0.242-0.439-0.326-0.68-0.193l-34.75,19.34
			c-0.115,0.064-0.201,0.172-0.236,0.301c-0.037,0.127-0.021,0.264,0.043,0.379l2.691,4.836c0.092,0.164,0.262,0.256,0.438,0.256
			c0.082,0,0.166-0.02,0.242-0.063l34.75-19.342c0.117-0.064,0.201-0.172,0.238-0.299s0.02-0.264-0.045-0.381L131.996-16.529z"/>
	</g>
	<path style="fill:#B8E152;" d="M107.951,0.02c-1.066-1.916-3.094-3.107-5.289-3.107c-1.023,0-2.039,0.264-2.938,0.766
		L60.307,19.618c-0.241,0.133-0.328,0.438-0.193,0.68l5.396,9.695c0.064,0.115,0.172,0.201,0.299,0.236
		c0.045,0.014,0.092,0.02,0.137,0.02c0.084,0,0.168-0.021,0.244-0.063l39.418-21.939c1.412-0.785,2.434-2.074,2.875-3.627
		C108.926,3.065,108.736,1.432,107.951,0.02z"/>
</g>
</svg>
