<?xml version="1.0" encoding="utf-8"?>
<!-- Generator: Adobe Illustrator 16.0.0, SVG Export Plug-In . SVG Version: 6.00 Build 0)  -->
<!DOCTYPE svg PUBLIC "-//W3C//DTD SVG 1.1//EN" "http://www.w3.org/Graphics/SVG/1.1/DTD/svg11.dtd">
<svg version="1.1" id="Layer_1" xmlns="http://www.w3.org/2000/svg" xmlns:xlink="http://www.w3.org/1999/xlink" x="0px" y="0px"
	 width="80.149px" height="125.79px" viewBox="0 0 80.149 125.79" enable-background="new 0 0 80.149 125.79" xml:space="preserve">
<g>
	<path fill="#3F6277" d="M61.044,37.007c8.402,0.197,15.403-7.927,15.643-18.146c0.24-10.218-6.377-18.66-14.778-18.858
		C53.509-0.194,46.504,7.932,46.266,18.15C46.026,28.367,52.644,36.812,61.044,37.007z M61.749,6.856
		c5.281,0.124,9.455,5.451,9.307,11.873c-0.152,6.425-4.57,11.551-9.851,11.427c-5.281-0.123-9.458-5.449-9.306-11.873
		C52.049,11.858,56.469,6.732,61.749,6.856z"/>
	<path fill="#658098" d="M70.505,31.029l-18.097,1.179c0,0-6.4,79.721-52.408,93.524C0,125.731,64.188,131.407,70.505,31.029z"/>
	
		<rect x="43.117" y="19.433" transform="matrix(-0.9949 -0.1009 0.1009 -0.9949 119.459 61.0279)" fill="#DA832E" width="36.311" height="16.119"/>
</g>
</svg>
