<?xml version="1.0" encoding="utf-8"?>
<!-- Generator: Adobe Illustrator 16.0.0, SVG Export Plug-In . SVG Version: 6.00 Build 0)  -->
<!DOCTYPE svg PUBLIC "-//W3C//DTD SVG 1.1//EN" "http://www.w3.org/Graphics/SVG/1.1/DTD/svg11.dtd">
<svg version="1.1" id="Layer_1" xmlns="http://www.w3.org/2000/svg" xmlns:xlink="http://www.w3.org/1999/xlink" x="0px" y="0px"
	 width="98.059px" height="142.26px" viewBox="0 0 98.059 142.26" enable-background="new 0 0 98.059 142.26" xml:space="preserve">
<g>
	<g>
		<path fill="#F0CC53" d="M6.455,45.989c2.736,1.71,6.117,2.361,9.951,1.866c9.501-1.229,19.99-9.636,22.006-17.64l-6.468-1.626
			c-1.233,4.899-9.04,11.7-16.394,12.652c-3.773,0.486-6.385-0.689-7.988-3.594c-2.064-3.745-0.516-9.797,3.947-15.414
			c4.767-6,11.307-9.485,15.549-8.286l1.816-6.416c-8.012-2.266-17.117,3.667-22.588,10.554c-6.236,7.85-7.984,16.58-4.564,22.783
			C2.938,43.072,4.539,44.791,6.455,45.989z"/>
	</g>
	<path fill="#3F6277" d="M29.243,0.297c-10.271,3.049-5.874,20.646-0.767,26.449c3.428,3.896,9.297,5.257,11.646-0.409
		c-2.623-3.609-4.617-8.862-4.713-13.351c-0.049-2.422,2.123-6.586,1.318-8.769C35.309,0.364,32.15-0.565,29.243,0.297z"/>
	<path fill="#658098" d="M38.72,22.965c0,0,4.046,48.142,51.841,86.664c0,0-4.127,18.289,7.498,32.631
		c0,0-79.129-5.83-69.803-116.397L38.72,22.965z"/>
	<path fill="#7592A9" d="M88.69,135.057c2.355,1.471,4.745,2.844,7.161,4.143c0.666,1.033,1.395,2.057,2.207,3.061
		c0,0-79.129-5.83-69.803-116.397l0.08-0.021C28.738,68.797,50.19,110.994,88.69,135.057z"/>
	
		<rect x="29.154" y="13.821" transform="matrix(-0.3179 -0.9481 0.9481 -0.3179 19.4346 68.2959)" fill="#DA832E" width="10.26" height="26.673"/>
</g>
</svg>
