<?xml version="1.0" encoding="utf-8"?>
<!-- Generator: Adobe Illustrator 16.0.0, SVG Export Plug-In . SVG Version: 6.00 Build 0)  -->
<!DOCTYPE svg PUBLIC "-//W3C//DTD SVG 1.1//EN" "http://www.w3.org/Graphics/SVG/1.1/DTD/svg11.dtd">
<svg version="1.1" id="Layer_1" xmlns="http://www.w3.org/2000/svg" xmlns:xlink="http://www.w3.org/1999/xlink" x="0px" y="0px"
	 width="240.829px" height="185.019px" viewBox="0 0 240.829 185.019" style="enable-background:new 0 0 240.829 185.019;"
	 xml:space="preserve">
<g>
	<path style="fill:#E6E6E6;" d="M70.774,126.723c0,0,86.999-20.85,113.696-78.389c0,0,1.382-6.905,6.905-6.444
		c5.524,0.46,34.523-9.667,48.333-41.89c0,0,15.19,62.583-66.284,109.085c0,0-46.952,27.62-99.889,38.672L70.774,126.723z"/>
	<path style="fill:#A45D2B;" d="M80.265,118.637c0,0-5.524-4.068-3.452,8.928c2.071,12.996,12.309,27.455,1.493,36.624
		s-19.101,17.307-42.921,19.971c-23.822,2.662-30.382-0.811-28.655-11.157c0,0,2.417-4.454,8.977-1.531c0,0-9.667,4.821-2.072,6.808
		c7.597,1.984,24.622,3.229,45.917-6.808c21.295-10.038,17.607-20.906,9.321-25.046c0,0-10.012-4.798-13.464,3.99
		c0,0-8.732-3.063-10.581,3.727c0,0-8.753-3.756-10.824,2.207c0,0-10.356-2.93-17.952,4.969c-7.595,7.898-6.904,8.434-11.048,0.57
		c-4.142-7.863-7.94-24.056-1.726-23.21c6.215,0.847,5.524,3.567,11.393,2.207c5.869-1.36,31.071-9.885,40.738-8.73
		c9.667,1.156,7.939-1.816,11.737-7.408S71.29,108.45,80.265,118.637z"/>
</g>
</svg>
