<?xml version="1.0" encoding="utf-8"?>
<!-- Generator: Adobe Illustrator 16.0.0, SVG Export Plug-In . SVG Version: 6.00 Build 0)  -->
<!DOCTYPE svg PUBLIC "-//W3C//DTD SVG 1.1//EN" "http://www.w3.org/Graphics/SVG/1.1/DTD/svg11.dtd">
<svg version="1.1" id="Layer_1" xmlns="http://www.w3.org/2000/svg" xmlns:xlink="http://www.w3.org/1999/xlink" x="0px" y="0px"
	 width="163.725px" height="147.275px" viewBox="0 0 163.725 147.275" style="enable-background:new 0 0 163.725 147.275;"
	 xml:space="preserve">
<g>
	<path style="fill:#8D5C50;" d="M141.783,117.355c0,0,11.195,0,15.828,1.545c4.633,1.543,6.43,2.518,6.068,5.391
		c-0.18,1.42,0.108,5.418-7.613,4.647c-5.008-0.502-18.143-4.633-18.143-4.633"/>
	<path style="fill:#8D5C50;" d="M136.766,117.742c0,0-85.701-18.916-103.459-89.947c0,0-27.795-1.545-30.111-27.795
		c0,0-4.536,5.982-2.799,19.301c4.431,33.967,29.629,101.723,133.28,103.459L136.766,117.742z"/>
	<path style="fill:#E8D315;" d="M156.066,110.021c0,0,5.02-4.633-2.315-8.107s-19.302,7.334-22.391,29.725
		c-3.089,22.391,16.601,17.371,14.284,5.791C145.645,137.43,127.5,117.355,156.066,110.021z"/>
</g>
</svg>
