<?xml version="1.0" encoding="utf-8"?>
<!-- Generator: Adobe Illustrator 16.0.0, SVG Export Plug-In . SVG Version: 6.00 Build 0)  -->
<!DOCTYPE svg PUBLIC "-//W3C//DTD SVG 1.1//EN" "http://www.w3.org/Graphics/SVG/1.1/DTD/svg11.dtd">
<svg version="1.1" id="Layer_1" xmlns="http://www.w3.org/2000/svg" xmlns:xlink="http://www.w3.org/1999/xlink" x="0px" y="0px"
	 width="309.293px" height="183.813px" viewBox="0 0 309.293 183.813" style="enable-background:new 0 0 309.293 183.813;"
	 xml:space="preserve">
<g>
	<path style="fill:#EFA000;" d="M277.091,163.138c-0.646,1.087-1.065,2.022-0.979,2.64c0.271,1.894,2.82,1.94,3.736,3.423
		c0.918,1.487,0.328,3.909,1.311,5.666c1.924,3.435,5.85,5.251,9.179,7.015c4.256,2.257,9.525,3.129,13.174-0.703
		c7.881-8.277,9.066-16.949-5.124-22.467c-14.189-5.52-9.543,5.38-16.949-4.73C282.653,155.636,278.943,160.014,277.091,163.138z"/>
	<path style="fill:#49372B;" d="M211.669,103.833c0,0,39.813,29.256,47.696,32.016c0,0,2.364-1.577,10.643,4.73
		c8.276,6.306,6.701,7.49,11.036,5.913c4.336-1.577,5.914,1.971,5.125,6.7c-0.789,4.73-7.49,25.228-19.314,20.104
		c0,0-1.972-1.577-3.548-5.52c-1.577-3.941-3.941,0.395-9.461-1.971c-5.518-2.364-5.911-8.672-13.006-10.642
		c-7.095-1.972-46.514-25.622-46.514-25.622L211.669,103.833z"/>
	<path style="fill:#CCCCCC;" d="M206.152,103.044c0,0-105.638-63.374-148.21-82.293C15.372,1.83,14.979-1.717,0,0.647
		c0,0,2.759,10.643,16.949,20.497c14.19,9.854,135.201,91.448,175.406,108.397L206.152,103.044z"/>
	<path style="fill:#EFA000;" d="M201.421,58.287c0.002,0.002,22.467,18.922-4.729,55.973c0,0-14.386,25.53-51.24,27.199
		c2.363,3.455,7.543,6.34,11.903,6.797c10.6,1.111,20.78-1.549,31.453-7.283c11.946-6.418,20.457-20.927,27.199-32.717
		c5.492-9.608,7.133-24.285,1.78-34.682C213.986,66.195,210.093,61.351,201.421,58.287z"/>
</g>
</svg>
