<?xml version="1.0" encoding="utf-8"?>
<!-- Generator: Adobe Illustrator 16.0.0, SVG Export Plug-In . SVG Version: 6.00 Build 0)  -->
<!DOCTYPE svg PUBLIC "-//W3C//DTD SVG 1.1//EN" "http://www.w3.org/Graphics/SVG/1.1/DTD/svg11.dtd">
<svg version="1.1" id="Layer_1" xmlns="http://www.w3.org/2000/svg" xmlns:xlink="http://www.w3.org/1999/xlink" x="0px" y="0px"
	 width="141.821px" height="104.389px" viewBox="-7.385 -31.729 141.821 104.389"
	 style="enable-background:new -7.385 -31.729 141.821 104.389;" xml:space="preserve">
<g>
	<rect x="34.279" y="28.02" style="fill:#624F5B;" width="79.475" height="14.904"/>
	<rect x="34.279" y="28.02" style="opacity:0.38;fill:#624F5B;" width="79.475" height="14.904"/>
	<rect x="67.584" y="-1.356" style="fill:#624F5B;" width="39.338" height="11.838"/>
	<rect x="67.584" y="-1.356" style="opacity:0.38;fill:#624F5B;" width="39.338" height="11.838"/>
	<rect x="34.279" y="10.482" style="fill:#624F5B;" width="40.782" height="14.305"/>
	<path style="fill:#737240;" d="M13.404,41.736c-6.98,0-12.639,5.658-12.639,12.64c0,6.977,5.658,12.639,12.639,12.639
		c6.977,0,12.637-5.662,12.637-12.639C26.041,47.395,20.38,41.736,13.404,41.736z"/>
	<path style="fill:#624F5B;" d="M13.404,41.736c-6.98,0-12.639,5.658-12.639,12.64c0,6.977,5.658,12.639,12.639,12.639
		c6.977,0,12.637-5.662,12.637-12.639C26.041,47.395,20.38,41.736,13.404,41.736z"/>
	<path style="fill:#624F5B;" d="M46.917,41.736c-6.982,0-12.639,5.658-12.639,12.64c0,6.977,5.656,12.639,12.639,12.639
		c6.975,0,12.637-5.662,12.637-12.639C59.554,47.395,53.892,41.736,46.917,41.736z"/>
	<path style="fill:#624F5B;" d="M80.43,41.736c-6.98,0-12.639,5.658-12.639,12.64c0,6.977,5.658,12.639,12.639,12.639
		c6.977,0,12.639-5.662,12.639-12.639C93.068,47.395,87.406,41.736,80.43,41.736z"/>
	<path style="fill:#624F5B;" d="M113.943,41.736c-6.98,0-12.639,5.658-12.639,12.64c0,6.977,5.658,12.639,12.639,12.639
		c6.975,0,12.637-5.662,12.637-12.639C126.58,47.395,120.918,41.736,113.943,41.736z"/>
	<path style="fill:#8D8949;" d="M24.324,34.344c0.589,0,1.193-0.002,1.812-0.01c0.645-0.008,1.306-0.016,1.976-0.016h93.922
		c0.43,0,0.775-0.346,0.775-0.773V7.711c0-0.429-0.346-0.774-0.775-0.774H39.094c-14.831,0-24.672,12.209-24.672,20.282
		C14.422,33.803,19.106,34.344,24.324,34.344z M60.365,19.565l2.521-6.651c0.318-0.836,1.25-1.255,2.084-0.939
		c0.836,0.316,1.256,1.248,0.939,2.083l-2.521,6.652c-0.317,0.835-1.252,1.257-2.084,0.942C60.468,21.333,60.049,20.4,60.365,19.565
		z M53.263,19.565l2.521-6.651c0.315-0.836,1.247-1.255,2.083-0.939c0.836,0.316,1.256,1.248,0.939,2.083l-2.521,6.652
		c-0.315,0.835-1.252,1.257-2.087,0.942C53.365,21.333,52.945,20.4,53.263,19.565z M46.156,19.565l2.523-6.651
		c0.316-0.836,1.248-1.255,2.086-0.939c0.835,0.316,1.254,1.248,0.938,2.083l-2.521,6.652c-0.316,0.835-1.25,1.257-2.085,0.942
		C46.261,21.333,45.841,20.4,46.156,19.565z M39.054,19.565l2.521-6.651c0.317-0.836,1.248-1.255,2.083-0.939
		c0.838,0.316,1.257,1.248,0.94,2.083l-2.523,6.652c-0.316,0.835-1.248,1.257-2.084,0.942C39.158,21.333,38.736,20.4,39.054,19.565z
		"/>
	<path style="fill:none;" d="M57.867,11.974c-0.836-0.315-1.768,0.104-2.083,0.939l-2.521,6.651
		c-0.318,0.835,0.102,1.769,0.935,2.087c0.835,0.314,1.771-0.107,2.087-0.942l2.521-6.652
		C59.123,13.222,58.703,12.291,57.867,11.974z"/>
	<path style="fill:none;" d="M43.659,11.974c-0.835-0.315-1.766,0.104-2.083,0.939l-2.521,6.651
		c-0.318,0.835,0.104,1.769,0.938,2.087c0.836,0.314,1.768-0.107,2.084-0.942l2.523-6.652
		C44.916,13.222,44.497,12.291,43.659,11.974z"/>
	<path style="fill:none;" d="M64.971,11.974c-0.834-0.315-1.766,0.104-2.084,0.939l-2.521,6.651
		c-0.315,0.835,0.104,1.769,0.939,2.087c0.832,0.314,1.768-0.107,2.084-0.942l2.521-6.652
		C66.227,13.222,65.807,12.291,64.971,11.974z"/>
	<path style="fill:none;" d="M50.765,11.974c-0.838-0.315-1.77,0.104-2.086,0.939l-2.523,6.651c-0.314,0.835,0.105,1.769,0.94,2.087
		c0.835,0.314,1.769-0.107,2.085-0.942l2.521-6.652C52.019,13.222,51.6,12.291,50.765,11.974z"/>
	<path style="fill:#B8E152;" d="M122.809,7.711c0-0.429-0.346-0.774-0.775-0.774H39.094c-14.831,0-24.672,12.209-24.672,20.282
		c0,0.283,0.021,0.539,0.036,0.801h108.35V7.711z M44.599,14.057l-2.523,6.652c-0.316,0.835-1.248,1.257-2.084,0.942
		c-0.834-0.318-1.256-1.252-0.938-2.087l2.521-6.651c0.317-0.836,1.248-1.255,2.083-0.939
		C44.497,12.291,44.916,13.222,44.599,14.057z M51.703,14.057l-2.521,6.652c-0.316,0.835-1.25,1.257-2.085,0.942
		c-0.835-0.318-1.255-1.252-0.94-2.087l2.523-6.651c0.316-0.836,1.248-1.255,2.086-0.939C51.6,12.291,52.019,13.222,51.703,14.057z
		 M58.806,14.057l-2.521,6.652c-0.315,0.835-1.252,1.257-2.087,0.942c-0.833-0.318-1.253-1.252-0.935-2.087l2.521-6.651
		c0.315-0.836,1.247-1.255,2.083-0.939C58.703,12.291,59.123,13.222,58.806,14.057z M65.91,14.057l-2.521,6.652
		c-0.317,0.835-1.252,1.257-2.084,0.942c-0.836-0.318-1.255-1.252-0.939-2.087l2.521-6.651c0.318-0.836,1.25-1.255,2.084-0.939
		C65.807,12.291,66.227,13.222,65.91,14.057z"/>
	<path style="fill:#8D8949;" d="M28.111,34.318h93.922c0.43,0,0.775-0.346,0.775-0.773V28.02H14.458
		c0.379,5.814,4.871,6.324,9.865,6.324c0.589,0,1.193-0.002,1.812-0.01C26.78,34.326,27.441,34.318,28.111,34.318z"/>
	<path style="fill:#624F5B;" d="M28.111,34.318h93.922c0.43,0,0.775-0.346,0.775-0.773V28.02H14.458
		c0.379,5.814,4.871,6.324,9.865,6.324c0.589,0,1.193-0.002,1.812-0.01C26.78,34.326,27.441,34.318,28.111,34.318z"/>
	<path style="fill:#B8E152;" d="M17.768-23.285L66.445-9.956c-2.051,3.563-3.231,7.692-3.231,12.091c0,1.07,0.868,1.938,1.938,1.938
		h44.768c1.068,0,1.936-0.868,1.936-1.938c0-13.411-10.91-24.319-24.322-24.319c-6.365,0-12.164,2.462-16.504,6.479L19.552-29.802
		c-1.801-0.494-3.659,0.566-4.152,2.365C14.909-25.635,15.966-23.778,17.768-23.285z"/>
	<path style="fill:#624F5B;" d="M20.275-31.487c-0.514-0.16-1.043-0.242-1.575-0.242c-2.315,0-4.337,1.486-5.028,3.698
		c-0.421,1.345-0.293,2.771,0.36,4.019c0.653,1.247,1.752,2.165,3.097,2.585c0.041,0.013,0.082,0.02,0.123,0.02
		c0.066,0,0.133-0.017,0.193-0.047c0.098-0.052,0.17-0.14,0.203-0.244l2.9-9.269C20.617-31.186,20.494-31.418,20.275-31.487z"/>
	<path style="opacity:0.38;fill:#624F5B;" d="M13.404,41.736c-6.98,0-12.639,5.658-12.639,12.64c0,6.977,5.658,12.639,12.639,12.639
		c6.977,0,12.637-5.662,12.637-12.639C26.041,47.395,20.38,41.736,13.404,41.736z"/>
	<path style="opacity:0.38;fill:#624F5B;" d="M46.917,41.736c-6.982,0-12.639,5.658-12.639,12.64
		c0,6.977,5.656,12.639,12.639,12.639c6.975,0,12.637-5.662,12.637-12.639C59.554,47.395,53.892,41.736,46.917,41.736z"/>
	<path style="opacity:0.38;fill:#624F5B;" d="M80.43,41.736c-6.98,0-12.639,5.658-12.639,12.64c0,6.977,5.658,12.639,12.639,12.639
		c6.977,0,12.639-5.662,12.639-12.639C93.068,47.395,87.406,41.736,80.43,41.736z"/>
	<path style="opacity:0.38;fill:#624F5B;" d="M113.943,41.736c-6.98,0-12.639,5.658-12.639,12.64
		c0,6.977,5.658,12.639,12.639,12.639c6.975,0,12.637-5.662,12.637-12.639C126.58,47.395,120.918,41.736,113.943,41.736z"/>
	<path style="opacity:0.38;fill:#624F5B;" d="M20.275-31.487c-0.514-0.16-1.043-0.242-1.575-0.242c-2.315,0-4.337,1.486-5.028,3.698
		c-0.421,1.345-0.293,2.771,0.36,4.019c0.653,1.247,1.752,2.165,3.097,2.585c0.041,0.013,0.082,0.02,0.123,0.02
		c0.066,0,0.133-0.017,0.193-0.047c0.098-0.052,0.17-0.14,0.203-0.244l2.9-9.269C20.617-31.186,20.494-31.418,20.275-31.487z"/>
	<path style="fill:#6B97B3;" d="M110.639-5.443c-3.09-9.396-11.754-16.279-22.066-16.715v16.715H110.639z"/>
	<path style="fill:#FFFDFC;" d="M92.373-21.696l-3.801,2.355v3.443l7.58-4.697C94.936-21.057,93.674-21.432,92.373-21.696z"/>
	<path style="fill:#FFFDFC;" d="M98.703-19.442l-10.131,6.301v3.447l12.932-8.043C100.611-18.366,99.678-18.936,98.703-19.442z"/>
	<path style="fill:#B8E152;" d="M116.998,37.787H10.053c-9.63,0-17.438,7.809-17.438,17.435c0,9.631,7.809,17.438,17.438,17.438
		h106.945c9.629,0,17.438-7.807,17.438-17.438C134.436,45.596,126.627,37.787,116.998,37.787z M13.296,66.072
		c-6.392,0-11.574-5.182-11.574-11.574c0-6.392,5.183-11.574,11.574-11.574c6.393,0,11.576,5.182,11.576,11.574
		C24.873,60.89,19.689,66.072,13.296,66.072z M46.781,66.072c-6.391,0-11.574-5.182-11.574-11.574
		c0-6.392,5.184-11.574,11.574-11.574c6.395,0,11.576,5.182,11.576,11.574C58.357,60.89,53.175,66.072,46.781,66.072z
		 M80.266,66.072c-6.389,0-11.572-5.182-11.572-11.574c0-6.392,5.184-11.574,11.572-11.574c6.395,0,11.576,5.182,11.576,11.574
		C91.842,60.89,86.66,66.072,80.266,66.072z M113.754,66.072c-6.393,0-11.574-5.182-11.574-11.574
		c0-6.392,5.182-11.574,11.574-11.574s11.574,5.182,11.574,11.574C125.328,60.89,120.146,66.072,113.754,66.072z"/>
	<path style="fill:#624F5B;" d="M13.404,47.555c-3.768,0-6.82,3.055-6.82,6.822c0,3.766,3.053,6.82,6.82,6.82
		c3.764,0,6.819-3.055,6.819-6.82C20.223,50.609,17.167,47.555,13.404,47.555z"/>
	<circle style="fill:#624F5B;" cx="46.918" cy="54.376" r="6.821"/>
	<circle style="fill:#624F5B;" cx="80.432" cy="54.376" r="6.821"/>
	<path style="fill:#624F5B;" d="M113.949,47.555c-3.768,0-6.82,3.055-6.82,6.822c0,3.766,3.053,6.82,6.82,6.82
		c3.764,0,6.816-3.055,6.816-6.82C120.766,50.609,117.713,47.555,113.949,47.555z"/>
</g>
</svg>
