<?xml version="1.0" encoding="utf-8"?>
<!-- Generator: Adobe Illustrator 16.0.0, SVG Export Plug-In . SVG Version: 6.00 Build 0)  -->
<!DOCTYPE svg PUBLIC "-//W3C//DTD SVG 1.1//EN" "http://www.w3.org/Graphics/SVG/1.1/DTD/svg11.dtd">
<svg version="1.1" id="Layer_1" xmlns="http://www.w3.org/2000/svg" xmlns:xlink="http://www.w3.org/1999/xlink" x="0px" y="0px"
	 width="145.271px" height="45.329px" viewBox="-9.531 -1.781 145.271 45.329"
	 style="enable-background:new -9.531 -1.781 145.271 45.329;" xml:space="preserve">
<g>
	<path style="fill:#624F5B;" d="M102.328,3.759H28.817c-4.367,0-8.341,1.682-11.313,4.428L8.97-0.344
		c-1.914-1.916-5.018-1.916-6.933,0c-1.915,1.914-1.915,5.02,0,6.934l7.441,7.439h-9.661c-3.785,0-9.349,6.854-9.349,6.854
		s5.563,6.854,9.349,6.854h9.661l-7.441,7.441c-1.915,1.914-1.915,5.02,0,6.934c1.915,1.916,5.019,1.916,6.933,0l9.008-9.006
		c2.915,2.496,6.699,4.008,10.839,4.008h73.511c9.209,0,16.676-7.467,16.676-16.676S111.537,3.759,102.328,3.759z"/>
	<path style="fill:#6DC0CF;" d="M103.068,3.777v33.318c9.311-0.207,32.672-7.766,32.672-16.658S112.379,3.984,103.068,3.777z"/>
	
		<ellipse transform="matrix(0.9295 0.3689 -0.3689 0.9295 13.6224 -42.5381)" style="fill:#FFFFFF;" cx="118.05" cy="14.354" rx="9.331" ry="5.143"/>
	<path style="opacity:0.27;fill:#624F5B;" d="M52.083,27.007c-3.382,0-6.123-2.742-6.123-6.125l0,0c0-3.381,2.741-6.123,6.123-6.123
		h26.977c3.383,0,6.123,2.742,6.123,6.123l0,0c0,3.383-2.74,6.125-6.123,6.125H52.083z"/>
</g>
</svg>
