<?xml version="1.0" encoding="utf-8"?>
<!-- Generator: Adobe Illustrator 16.0.0, SVG Export Plug-In . SVG Version: 6.00 Build 0)  -->
<!DOCTYPE svg PUBLIC "-//W3C//DTD SVG 1.1//EN" "http://www.w3.org/Graphics/SVG/1.1/DTD/svg11.dtd">
<svg version="1.1" id="Layer_1" xmlns="http://www.w3.org/2000/svg" xmlns:xlink="http://www.w3.org/1999/xlink" x="0px" y="0px"
	 width="56.449px" height="218.322px" viewBox="35.728 224.488 56.449 218.322"
	 style="enable-background:new 35.728 224.488 56.449 218.322;" xml:space="preserve">
<g>
	<path style="fill:#000;" d="M67.549,386.816c0.32-6.1,2.24-10.57,2.24-10.57s1.307-118.627,0-130.08s-5.555-21.678-5.555-21.678v162.223
		c0.037,0,0.074-0.002,0.111,0C65.434,386.697,66.502,386.736,67.549,386.816z M60.361,386.889c1.08-0.109,2.185-0.172,3.311-0.178
		V224.488c0,0-4.248,10.225-5.555,21.678s0,130.08,0,130.08S60.052,380.75,60.361,386.889z M85.204,394.014
		c-4.855-3.219-12.437-6.428-21.251-6.326c-8.815-0.102-16.396,3.107-21.252,6.326c-4.932,3.227-7.138,6.461-6.963,6.582
		c0.283,0.594,11.348-10.705,28.215-10.467c16.867-0.238,27.932,11.061,28.215,10.467C92.343,400.475,90.137,397.24,85.204,394.014z
		 M60.963,396.465h5.979c0.574,0,1.04-0.465,1.04-1.039v-3.553c0-0.574-0.466-1.039-1.04-1.039h-5.979
		c-0.575,0-1.04,0.465-1.04,1.039v3.553C59.923,396,60.389,396.465,60.963,396.465z M59.923,401.768c0,0.572,0.465,1.037,1.04,1.037
		h5.979c0.574,0,1.04-0.465,1.04-1.037v-3.553c0-0.576-0.466-1.041-1.04-1.041h-5.979c-0.575,0-1.04,0.465-1.04,1.041V401.768z
		 M59.923,408.107c0,0.572,0.465,1.041,1.04,1.041h5.979c0.574,0,1.04-0.469,1.04-1.041v-3.553c0-0.576-0.466-1.041-1.04-1.041
		h-5.979c-0.575,0-1.04,0.465-1.04,1.041V408.107z M59.923,414.447c0,0.572,0.465,1.041,1.04,1.041h5.979
		c0.574,0,1.04-0.469,1.04-1.041v-3.553c0-0.574-0.466-1.041-1.04-1.041h-5.979c-0.575,0-1.04,0.467-1.04,1.041V414.447z
		 M59.923,420.787c0,0.576,0.465,1.041,1.04,1.041h5.979c0.574,0,1.04-0.465,1.04-1.041v-3.553c0-0.574-0.466-1.039-1.04-1.039
		h-5.979c-0.575,0-1.04,0.465-1.04,1.039V420.787z M59.923,427.127c0,0.576,0.465,1.041,1.04,1.041h5.979
		c0.574,0,1.04-0.465,1.04-1.041v-3.553c0-0.574-0.466-1.039-1.04-1.039h-5.979c-0.575,0-1.04,0.465-1.04,1.039V427.127z
		 M59.923,433.467c0,0.576,0.465,1.041,1.04,1.041h5.979c0.574,0,1.04-0.465,1.04-1.041v-3.551c0-0.576-0.466-1.041-1.04-1.041
		h-5.979c-0.575,0-1.04,0.465-1.04,1.041V433.467z M69.203,434.996h-10.5c-0.54,0-0.977,0.438-0.977,0.977
		c0,0.541,0.438,0.979,0.977,0.979h10.5c0.539,0,0.977-0.438,0.977-0.979C70.18,435.434,69.742,434.996,69.203,434.996z
		 M58.756,437.602c-0.004,0.082-0.013,0.162-0.013,0.242c0,2.744,2.333,4.967,5.21,4.967c2.877,0,5.209-2.223,5.209-4.967
		c0-0.08-0.008-0.16-0.013-0.242H58.756z"/>
</g>
</svg>
