<?xml version="1.0" encoding="utf-8"?>
<!-- Generator: Adobe Illustrator 16.0.0, SVG Export Plug-In . SVG Version: 6.00 Build 0)  -->
<!DOCTYPE svg PUBLIC "-//W3C//DTD SVG 1.1//EN" "http://www.w3.org/Graphics/SVG/1.1/DTD/svg11.dtd">
<svg version="1.1" id="Layer_1" xmlns="http://www.w3.org/2000/svg" xmlns:xlink="http://www.w3.org/1999/xlink" x="0px" y="0px"
	 width="92.034px" height="204.649px" viewBox="19.34 231.173 92.034 204.649"
	 style="enable-background:new 19.34 231.173 92.034 204.649;" xml:space="preserve">
<g>
	<path style="fill:#000;" d="M62.517,427.262h-7.962c-0.439,0-0.795,0.355-0.795,0.795v2.389c0,0.441,0.356,0.797,0.795,0.797h7.962
		c0.439,0,0.796-0.355,0.796-0.797v-2.389C63.313,427.617,62.956,427.262,62.517,427.262z M54.723,432.371
		c-0.014,0.107-0.021,0.219-0.021,0.328c0,1.725,1.672,3.123,3.733,3.123s3.733-1.398,3.733-3.123c0-0.109-0.007-0.221-0.021-0.328
		H54.723z M62.517,422.264h-7.962c-0.439,0-0.795,0.355-0.795,0.797v2.387c0,0.443,0.356,0.797,0.795,0.797h7.962
		c0.439,0,0.796-0.354,0.796-0.797v-2.387C63.313,422.619,62.956,422.264,62.517,422.264z M41.267,236.665
		c0.003-0.016,0.006-0.034,0.007-0.05c0.157-0.215,0.314-0.429,0.476-0.643l-11.045-4.8c-15.153,20.235-15.153,45.06,0,65.296
		c3.677-1.6,7.355-3.195,11.032-4.793C21.234,268.752,38.119,241.336,41.267,236.665z M58.839,261.906l3.478-2.859V246.02h-7.563
		v12.613L58.839,261.906z M58.438,255.195c0.668,0,1.24,0.396,1.507,0.963c-0.219-0.398-0.627-0.68-1.114-0.68
		c-0.713,0-1.29,0.578-1.29,1.289c0,0.713,0.577,1.289,1.29,1.289c0.687,0,1.235-0.541,1.274-1.219c0,0.01,0.003,0.018,0.003,0.027
		c0,0.922-0.748,1.67-1.67,1.67s-1.67-0.748-1.67-1.67S57.516,255.195,58.438,255.195z M62.517,417.266h-7.962
		c-0.439,0-0.795,0.355-0.795,0.797v2.389c0,0.439,0.356,0.795,0.795,0.795h7.962c0.439,0,0.796-0.355,0.796-0.795v-2.389
		C63.313,417.621,62.956,417.266,62.517,417.266z M62.716,242.941h-8.36v2.178h8.36V242.941z M62.517,392.281h-7.962
		c-0.439,0-0.795,0.357-0.795,0.795v2.389c0,0.439,0.356,0.797,0.795,0.797h7.962c0.439,0,0.796-0.357,0.796-0.797v-2.389
		C63.313,392.639,62.956,392.281,62.517,392.281z M62.517,382.287h-7.962c-0.439,0-0.795,0.355-0.795,0.795v2.387
		c0,0.441,0.356,0.797,0.795,0.797h7.962c0.439,0,0.796-0.355,0.796-0.797v-2.387C63.313,382.643,62.956,382.287,62.517,382.287z
		 M63.029,257.996l0.025-0.027v-0.023L63.029,257.996z M58.865,265.898l-4.111,3.377v112.283h7.563V268.662L58.865,265.898z
		 M58.438,272.484c-0.922,0-1.67-0.748-1.67-1.672c0-0.92,0.748-1.668,1.67-1.668c0.67,0,1.244,0.396,1.509,0.967
		c-0.218-0.402-0.628-0.684-1.117-0.684c-0.712,0-1.289,0.576-1.289,1.289c0,0.711,0.577,1.289,1.289,1.289
		c0.688,0,1.237-0.543,1.275-1.223c0,0.012,0.003,0.02,0.003,0.029C60.108,271.736,59.36,272.484,58.438,272.484z M63.057,254.68
		v3.287l-0.003,0.002v1.018l1.424-0.646l-5.634,4.186l-0.099-0.068l-6.84-4.758l2.186,0.9v-0.5l0.015,0.012v-5.371
		c-5.958-3.164-9.163-6.652-10.76-9.508c-1.819-3.242-1.601-5.688-1.47-6.567c-3.125,4.64-19.798,31.708,0.048,54.528l-0.042-0.17
		c-0.132-0.842-0.411-3.338,1.422-6.688c1.588-2.908,4.796-6.471,10.802-9.701v-3.311h0.009v-2.006l-2.701,1.152l7.446-5.293
		l5.766,4.213l-1.572-0.566v1.303l0.003,0.002v1.869c25.041-9.354,48.317,2.283,48.317,2.283
		C97.648,258.17,70.365,255.195,63.057,254.68z M62.517,412.268h-7.962c-0.439,0-0.795,0.357-0.795,0.797v2.391
		c0,0.438,0.356,0.797,0.795,0.797h7.962c0.439,0,0.796-0.359,0.796-0.797v-2.391C63.313,412.625,62.956,412.268,62.517,412.268z
		 M62.517,407.273h-7.962c-0.439,0-0.795,0.355-0.795,0.795v2.389c0,0.439,0.356,0.797,0.795,0.797h7.962
		c0.439,0,0.796-0.357,0.796-0.797v-2.389C63.313,407.629,62.956,407.273,62.517,407.273z M62.517,387.283h-7.962
		c-0.439,0-0.795,0.357-0.795,0.797v2.389c0,0.439,0.356,0.795,0.795,0.795h7.962c0.439,0,0.796-0.355,0.796-0.795v-2.389
		C63.313,387.641,62.956,387.283,62.517,387.283z M62.517,402.275h-7.962c-0.439,0-0.795,0.355-0.795,0.797v2.387
		c0,0.439,0.356,0.797,0.795,0.797h7.962c0.439,0,0.796-0.357,0.796-0.797v-2.387C63.313,402.631,62.956,402.275,62.517,402.275z
		 M62.517,397.277h-7.962c-0.439,0-0.795,0.359-0.795,0.797v2.389c0,0.439,0.356,0.797,0.795,0.797h7.962
		c0.439,0,0.796-0.357,0.796-0.797v-2.389C63.313,397.637,62.956,397.277,62.517,397.277z"/>
</g>
</svg>
