<?xml version="1.0" encoding="utf-8"?>
<!-- Generator: Adobe Illustrator 16.0.0, SVG Export Plug-In . SVG Version: 6.00 Build 0)  -->
<!DOCTYPE svg PUBLIC "-//W3C//DTD SVG 1.1//EN" "http://www.w3.org/Graphics/SVG/1.1/DTD/svg11.dtd">
<svg version="1.1" id="Layer_1" xmlns="http://www.w3.org/2000/svg" xmlns:xlink="http://www.w3.org/1999/xlink" x="0px" y="0px"
	 width="280.866px" height="234.497px" viewBox="-71.336 -96.049 280.866 234.497"
	 style="enable-background:new -71.336 -96.049 280.866 234.497;" xml:space="preserve">
<g>
	<g>
		<path style="fill:#262510;" d="M132.679,138.448c-1.41-20.679-4.568-42.437-4.518-63.052c-4.809,0.465-10.486,4.442-14.395,7.117
			c-2.945-8.344-3.413-17.8-3.856-26.848c-0.468-9.519-3.307-20.218-2.075-29.5c5.107,1.569,36.474,16.641,33.623,1.635
			c3.267,4.924,17.088,7.456,21.927,4.807c5.408-2.961,8.265-13.301,8.388-18.964c13.899,20.053,38.658-8.214,37.732-24.184
			c-0.953-16.444-35.118-39.842-49.082-23.838c-9.686-16.229-34.65-33.664-49.006-13.772C97.869-67.766,64.078-86.765,41.198-90.096
			C23.451-92.68-14.988-79.547,6.324-57.076c-6.498-0.112-19.082-3.726-21.329,5.133c-1.504,5.925,6.168,12.906,7.853,18.265
			C-25.361-40.82-75.519-31.26-58.979-1.83c11.47,20.41,55.041,21.228,75.495,16.996c-2.226,8.12-5.17,12.811,3.032,18.25
			c6.248,4.143,20.733,6.242,27.05,2.28c0.274,24.662,28.981,17.833,38.176,2.182c2.167,9.854,5.099,19.563,7.396,29.374
			c1.555,6.643,4.242,23.666,9.109,28.365c7.112,6.869,9.59-7.606,17.804-8.864c8.661-1.326,7.415,13.58,8.505,20.801
			c1.223,8.102,2.142,23.577,5.825,28.691L132.679,138.448z"/>
		<g>
			<path style="fill:#FFFCE8;" d="M123.864,133.063c-1.41-20.679-4.569-42.438-4.518-63.053c-4.808,0.465-10.486,4.442-14.395,7.117
				c-2.944-8.344-3.412-17.799-3.856-26.847c-0.468-9.519-3.306-20.218-2.076-29.5c5.108,1.568,36.476,16.64,33.623,1.635
				c3.269,4.923,17.09,7.455,21.928,4.805c5.408-2.96,8.266-13.301,8.389-18.964c13.899,20.055,38.658-8.214,37.731-24.184
				c-0.954-16.443-35.118-39.843-49.081-23.839c-9.688-16.229-34.651-33.664-49.007-13.772
				c-13.548-19.614-47.339-38.612-70.22-41.943C14.637-98.065-23.804-84.934-2.489-62.463c-6.5-0.112-19.084-3.725-21.33,5.132
				c-1.503,5.927,6.168,12.907,7.852,18.265c-18.207-7.141-68.366,2.418-51.825,31.849c11.471,20.41,55.042,21.229,75.495,16.995
				C5.477,17.9,2.533,22.59,10.735,28.029c6.248,4.143,20.731,6.242,27.048,2.28c0.276,24.662,28.982,17.833,38.176,2.181
				c2.169,9.855,5.1,19.564,7.397,29.375c1.554,6.642,4.241,23.664,9.107,28.365c7.114,6.869,9.592-7.606,17.806-8.863
				c8.66-1.328,7.415,13.578,8.505,20.799c1.223,8.102,2.14,23.576,5.824,28.693L123.864,133.063z"/>
			<path style="fill:#262510;" d="M123.62,133.078c-0.09-1.33-0.188-2.666-0.293-4.005l0,0c-2.87-6.431-3.688-19.608-4.796-26.871
				l0,0c-0.524-3.489-0.512-8.702-1.303-13.028l0,0c-0.802-4.348-2.358-7.658-5.917-7.646l0,0c-0.316,0-0.652,0.026-1.007,0.08l0,0
				c-3.208,0.484-5.563,3.1-7.693,5.649l0,0c-2.135,2.53-4.014,5.032-6.52,5.058l0,0c-1.175,0-2.421-0.578-3.797-1.908l0,0
				c-4.979-4.85-7.609-21.848-9.179-28.485l0,0c-2.248-9.604-5.107-19.12-7.264-28.781l0,0
				c-5.032,8.069-15.135,13.664-23.736,13.672l0,0c-7.757,0.025-14.313-4.657-14.57-16.075l0,0c-2.405,1.358-5.771,1.928-9.387,1.93
				l0,0c-6.397-0.004-13.572-1.795-17.561-4.433l0,0c-4.154-2.745-5.545-5.394-5.536-8.36l0,0c0.005-2.839,1.22-5.925,2.297-9.774
				l0,0c-5.995,1.204-13.869,1.979-22.316,1.979l0,0c-20.691-0.013-44.838-4.618-53.05-19.175l0,0
				c-2.301-4.092-3.329-7.819-3.329-11.184l0,0c0.063-15.937,22.793-23.275,40.615-23.289l0,0
				c5.499,0.001,10.545,0.701,14.354,2.092l0,0c-1.746-4.722-7.866-10.727-7.893-16.259l0,0c0-0.556,0.063-1.109,0.201-1.654l0,0
				c1.266-4.999,5.76-6.155,10.494-6.141l0,0c3.691,0.001,7.615,0.677,10.492,0.806l0,0c-4.155-4.519-5.933-8.688-5.933-12.448l0,0
				c0.008-6.651,5.522-11.86,12.799-15.409l0,0c7.288-3.552,16.387-5.465,23.749-5.466l0,0c1.736,0,3.377,0.106,4.874,0.324l0,0
				c22.859,3.338,56.443,22.168,70.188,41.764l0,0c4.578-6.197,10.25-8.719,16.132-8.715l0,0
				c12.634,0.018,26.208,11.48,32.91,22.498l0,0c3.316-3.654,7.726-5.193,12.507-5.191l0,0c15.836,0.038,35.99,16.648,36.78,29.426
				l0,0c0.017,0.296,0.024,0.597,0.024,0.9l0,0c-0.035,12.23-13.591,30.42-26.355,30.473l0,0c-4.087,0.004-8.078-1.906-11.431-6.454
				l0,0c-0.344,5.839-3.148,15.501-8.485,18.458l0,0c-1.4,0.765-3.45,1.097-5.771,1.099l0,0c-5.663-0.016-12.92-1.986-15.897-5.249
				l0,0c0.033,0.319,0.05,0.623,0.05,0.914l0,0c0.006,1.826-0.671,3.131-1.838,3.934l0,0c-1.163,0.805-2.771,1.123-4.647,1.124l0,0
				c-8.665-0.007-23.469-6.847-27.358-8.153l0,0c-0.189,1.526-0.269,3.091-0.268,4.685l0,0c-0.002,7.957,1.993,16.602,2.382,24.481
				l0,0c0.437,8.938,0.902,18.253,3.738,26.478l0,0c3.901-2.669,9.439-6.507,14.245-6.979l0,0l0.27-0.026l-0.002,0.272
				c0,0.164,0,0.328,0,0.494l0,0c0,19.095,2.721,39.172,4.22,58.463l0,0c0.305,0.672,0.633,1.261,0.986,1.747l0,0l0.073,0.101
				l-0.774,2.322L123.62,133.078L123.62,133.078z M123.865,133.063l0.244-0.018L123.865,133.063L123.865,133.063z M124.022,131.812
				l0.305-0.913c-0.145-0.21-0.284-0.434-0.42-0.672l0,0C123.947,130.755,123.984,131.285,124.022,131.812L124.022,131.812z
				 M117.711,89.088c0.801,4.387,0.785,9.615,1.304,13.041l0,0c1.012,6.754,1.845,18.641,4.182,25.299l0,0
				c-1.52-18.789-4.096-38.305-4.096-56.922l0,0c0-0.074,0-0.148,0-0.225l0,0c-4.646,0.568-10.182,4.42-14.01,7.047l0,0
				l-0.263,0.181l-0.107-0.301c-2.96-8.392-3.425-17.868-3.869-26.915l0,0c-0.383-7.817-2.382-16.471-2.384-24.506l0,0
				c0.001-1.712,0.091-3.397,0.31-5.04l0,0l0.038-0.286l0.276,0.084c3.473,1.074,18.804,8.228,27.492,8.22l0,0
				c3.669-0.033,5.978-1.187,5.995-4.567l0,0c0.001-0.522-0.057-1.102-0.178-1.737l0,0l0.445-0.182
				c2.241,3.428,10.117,5.782,16.07,5.765l0,0c2.271,0.002,4.263-0.339,5.535-1.039l0,0c5.256-2.839,8.157-13.155,8.261-18.755l0,0
				l0.017-0.752l0.43,0.618c3.379,4.868,7.351,6.82,11.444,6.824l0,0c6.148,0.007,12.639-4.478,17.569-10.495l0,0
				c4.933-6.01,8.301-13.538,8.296-19.487l0,0c0-0.294-0.006-0.586-0.023-0.872l0,0c-0.668-12.355-20.763-29.001-36.291-28.966l0,0
				c-4.787,0.004-9.119,1.56-12.361,5.274l0,0l-0.222,0.254l-0.173-0.289c-6.555-11-20.221-22.562-32.661-22.545l0,0
				c-5.826,0.005-11.393,2.5-15.937,8.791l0,0l-0.203,0.282l-0.196-0.287C88.924-72.932,55.14-91.933,32.348-95.241l0,0
				c-1.47-0.214-3.088-0.319-4.804-0.319l0,0c-7.279-0.001-16.331,1.903-23.534,5.416l0,0c-7.215,3.518-12.532,8.624-12.523,14.97
				l0,0c-0.001,3.713,1.809,7.912,6.201,12.543l0,0l0.402,0.423l-0.584-0.011c-2.983-0.052-7.178-0.824-11.069-0.823l0,0
				c-4.704,0.013-8.83,1.091-10.019,5.771l0,0c-0.128,0.504-0.188,1.014-0.188,1.534l0,0c-0.027,5.384,6.445,11.62,8.035,16.597l0,0
				l0.154,0.489l-0.477-0.186c-3.773-1.481-8.972-2.246-14.664-2.245l0,0c-8.86-0.001-18.926,1.844-26.749,5.626l0,0
				c-7.831,3.79-13.377,9.478-13.376,17.174l0,0c0,3.265,0.996,6.907,3.266,10.944l0,0C-59.604,6.912-35.589,11.6-14.957,11.588l0,0
				c8.601,0,16.61-0.809,22.609-2.048l0,0l0.392-0.081L7.938,9.844c-1.115,4.057-2.391,7.245-2.386,10.029l0,0
				c0.007,2.798,1.234,5.234,5.317,7.952l0,0c3.849,2.558,10.986,4.355,17.289,4.353l0,0c3.749,0.002,7.205-0.637,9.494-2.075l0,0
				l0.369-0.231l0.007,0.436c0.154,11.534,6.441,15.988,14.087,16.015l0,0c8.575,0.008,18.83-5.769,23.632-13.954l0,0l0.315-0.538
				l0.135,0.608c2.165,9.843,5.096,19.551,7.396,29.371l0,0c1.54,6.646,4.285,23.693,9.041,28.244l0,0
				c1.328,1.283,2.453,1.773,3.457,1.773l0,0c2.129,0.025,4.013-2.316,6.144-4.884l0,0c2.138-2.548,4.552-5.286,7.996-5.819l0,0
				c0.376-0.058,0.736-0.085,1.08-0.085l0,0C115.271,81.049,116.923,84.723,117.711,89.088L117.711,89.088z"/>
		</g>
	</g>
	<g>
		<path style="fill:#262510;" d="M140.796,16.975c-0.015,0.01-1.229,1.303-3.393,3.222c-1.946,2.077-6.8,4.173-11.609,2.782
			c-5.02-1.185-7.769-5.207-9.15-7.493c-1.464-2.453-2.293-4.045-2.29-4.06c-0.017,0.002,1.628,0.852,3.918,2.574
			c2.346,1.712,5.099,3.951,8.617,4.711c3.587,0.944,6.764,0.656,9.426-0.429C138.983,17.343,140.813,16.967,140.796,16.975z"/>
	</g>
	<g>
		<path style="fill:#262510;" d="M163.975-21.546c-0.183,0.213-1.641-9.28-10.114-13.313c-4.071-2.128-8.296-3.309-11.409-3.063
			c-3.164,0.185-5.229,1.123-5.244,1.033c0.052,0.099,1.337-1.769,4.761-3.183c3.45-1.467,8.98-1.327,14.019,1.354
			c5.189,2.621,7.854,7.967,8.172,11.482C164.567-23.635,163.892-21.546,163.975-21.546z"/>
	</g>
	<g>
		<path style="fill:#262510;" d="M57.225,29.054c-0.011,0.001-1.97,0.764-5.237,1.687c-3.147,0.975-8.536,1.711-13.714-0.567
			c-5.167-2-8.846-6.437-9.55-10.121c-0.774-3.716,0.548-5.714,0.426-5.689c0.074-0.042,0.017,2.276,1.625,4.886
			c1.564,2.616,4.893,5.157,9.203,6.86c4.243,1.865,8.387,2.296,11.782,2.439C55.103,28.726,57.234,29.052,57.225,29.054z"/>
	</g>
	<g>
		<path style="fill:#262510;" d="M31.931,23.882c0.046-0.314-4.608,3.105-11.102,0.018c-3.138-1.827-4.237-5.076-4.418-7.019
			c-0.215-2.046,0.132-3.284,0.096-3.282c0.104-0.122,2.896,4.491,6.543,6.496C26.889,22.161,32.062,23.732,31.931,23.882z"/>
	</g>
	<g>
		<path style="fill:#262510;" d="M20.179-67.192c0.192,0.299-8.62,0.817-16.013,4.896c-7.142,4.342-7.939,13.802-8.225,13.466
			c0.073-0.005-0.654-1.952-0.626-5.365c-0.021-3.241,1.519-8.798,6.527-11.847c4.908-2.921,9.887-2.633,13.11-2.297
			C18.249-67.888,20.173-67.163,20.179-67.192z"/>
	</g>
</g>
</svg>
