<?xml version="1.0" encoding="utf-8"?>
<!-- Generator: Adobe Illustrator 16.0.0, SVG Export Plug-In . SVG Version: 6.00 Build 0)  -->
<!DOCTYPE svg PUBLIC "-//W3C//DTD SVG 1.1//EN" "http://www.w3.org/Graphics/SVG/1.1/DTD/svg11.dtd">
<svg version="1.1" id="Layer_1" xmlns="http://www.w3.org/2000/svg" xmlns:xlink="http://www.w3.org/1999/xlink" x="0px" y="0px"
	 width="147.346px" height="107.228px" viewBox="0 0 147.346 107.228" style="enable-background:new 0 0 147.346 107.228;"
	 xml:space="preserve">
<path style="fill:#67917A;" d="M17.298,38.485c-1.733-3.004-2.709-6.479-2.667-10.171c0.126-11.206,9.521-20.187,20.986-20.053
	L36.5,8.291c2.251-4.899,8.336-8.371,15.454-8.289c8.007,0.086,14.604,4.643,15.874,10.544c1.381-0.162,2.797-0.247,4.243-0.23
	c4.705,0.053,9.099,1.108,12.855,2.89c2.904-4.704,8.131-7.812,14.059-7.741c6.48,0.071,12.033,3.918,14.604,9.424
	c3.465-2.105,7.58-3.308,11.994-3.262c12.15,0.141,21.898,9.716,21.762,21.394c-0.068,6.611-3.305,12.479-8.299,16.297
	c1.977,2.752,3.121,6.076,3.082,9.646c-0.107,9.329-8.227,16.799-18.137,16.687c-1.859-0.02-3.648-0.31-5.332-0.822
	c-2.605,3.684-7.004,6.081-11.967,6.021c-3.15-0.034-6.045-1.055-8.387-2.75c-8.186,18.603-34.018,35.229-57.328,26.943
	c-0.653-0.232-1.295-0.48-1.935-0.733c10.504-2.505,16.154-11.065,20.563-21.523c-2.832,0.944-5.911,1.451-9.135,1.412
	c-8.73-0.1-16.359-4.135-20.695-10.142c-2.591,0.915-5.432,1.401-8.409,1.367C9.448,75.287-0.117,66.826,0.001,56.53
	C0.102,47.567,7.512,40.163,17.298,38.485z"/>
</svg>
