<?xml version="1.0" encoding="utf-8"?>
<!-- Generator: Adobe Illustrator 16.0.0, SVG Export Plug-In . SVG Version: 6.00 Build 0)  -->
<!DOCTYPE svg PUBLIC "-//W3C//DTD SVG 1.1//EN" "http://www.w3.org/Graphics/SVG/1.1/DTD/svg11.dtd">
<svg version="1.1" id="Layer_1" xmlns="http://www.w3.org/2000/svg" xmlns:xlink="http://www.w3.org/1999/xlink" x="0px" y="0px"
	 width="120.214px" height="122.626px" viewBox="0 0 120.214 122.626" style="enable-background:new 0 0 120.214 122.626;"
	 xml:space="preserve">
<g>
	<path style="fill:#E33258;" d="M20.081,101.329c0.278,4.984,4.544,8.799,9.524,8.521c4.985-0.275,8.802-4.538,8.522-9.523
		c-0.276-4.984-4.542-8.799-9.525-8.521C23.622,92.08,19.807,96.346,20.081,101.329z"/>
	<path style="fill:#E33258;" d="M12.935,116.672c0.196,3.475,3.169,6.137,6.646,5.944c3.478-0.193,6.139-3.168,5.948-6.646
		c-0.194-3.476-3.171-6.137-6.646-5.944C15.405,110.218,12.744,113.193,12.935,116.672z"/>
	<polygon style="fill:#E33258;" points="72.521,0.598 57.441,11.779 40.805,0 34.881,16.626 14.258,13.116 19.082,30.733 0,36.434 
		14.276,50.319 1.845,63.703 21.748,70.14 19.305,87.619 39.501,84.878 47.693,101.771 62.772,90.59 79.41,102.371 85.333,85.744 
		105.954,89.253 101.131,71.637 120.214,65.937 105.939,52.051 118.371,38.667 98.462,32.229 100.911,14.751 80.715,17.491 	"/>
</g>
</svg>
