<?xml version="1.0" encoding="utf-8"?>
<!-- Generator: Adobe Illustrator 16.0.0, SVG Export Plug-In . SVG Version: 6.00 Build 0)  -->
<!DOCTYPE svg PUBLIC "-//W3C//DTD SVG 1.1//EN" "http://www.w3.org/Graphics/SVG/1.1/DTD/svg11.dtd">
<svg version="1.1" id="Layer_1" xmlns="http://www.w3.org/2000/svg" xmlns:xlink="http://www.w3.org/1999/xlink" x="0px" y="0px"
	 width="233.225px" height="190.349px" viewBox="-56.502 -74.809 233.225 190.349"
	 style="enable-background:new -56.502 -74.809 233.225 190.349;" xml:space="preserve">
<g>
	<g>
		<g>
			<path style="fill:#262510;" d="M-13.195,86.083c-8.573-14.847,5.25-24.945,17.328-31.681
				C-20.503,42.057-3.609-0.052,20.14,13.711C14.637-6.039,9.673-30.977,32.385-42.646c18.637-9.575,41.479-1.294,44.585,19.984
				c7.356-3.067,22.146-8.329,29.853-3.101c6.495,4.407,6.604,18.478,1.795,24.158c9.146-10.368,28.44-0.047,31.037,11.694
				c2.837,12.832-6.012,31.754-17.372,38.023c8.308-13.109,38.382-9.609,47.847,0.373c12.643,13.331,5.239,36.748-6.548,47.664
				c-13.303,12.32-35.99,18.874-53.872,19.319c-11.774,0.292-23.672-0.239-35.097-3.312c-10.802-2.906-20.394-9.234-31.782-9.615
				C22.493,101.863-0.686,107.746-13.195,86.083z"/>
			<g>
				<path style="fill:#FFFCE8;" d="M-23.809,79.598c-8.573-14.848,5.25-24.945,17.328-31.682
					C-31.116,35.571-14.223-6.538,9.526,7.225C4.024-12.524-0.94-37.462,21.772-49.132c18.636-9.575,41.478-1.294,44.583,19.984
					c7.357-3.066,22.146-8.328,29.854-3.1c6.495,4.406,6.602,18.477,1.795,24.157c9.146-10.367,28.441-0.047,31.037,11.694
					c2.836,12.832-6.012,31.754-17.372,38.023c8.306-13.109,38.382-9.609,47.847,0.373c12.642,13.331,5.238,36.748-6.548,47.664
					c-13.304,12.32-35.989,18.875-53.872,19.319c-11.773,0.294-23.673-0.239-35.098-3.312c-10.801-2.906-20.392-9.234-31.781-9.615
					C11.879,95.378-11.3,101.261-23.809,79.598z"/>
				<path style="fill:#262510;" d="M63.922,105.956c-10.863-2.93-20.433-9.235-31.716-9.604l0,0c-1.25-0.041-2.512-0.06-3.78-0.06
					l0,0c-5.386,0-10.919,0.306-16.36,0.306l0,0C-2,96.607-15.532,94.535-24.065,79.744l0,0l0.255-0.146l0.255-0.148
					c8.4,14.533,21.579,16.549,35.62,16.559l0,0c5.419,0,10.951-0.305,16.36-0.305l0,0c1.274,0,2.542,0.018,3.801,0.06l0,0
					c11.496,0.392,21.107,6.743,31.848,9.624l0,0c9.64,2.593,19.629,3.372,29.604,3.371l0,0c1.805,0.001,3.608-0.025,5.409-0.068
					l0,0c17.819-0.439,40.464-6.992,53.679-19.242l0,0c7.382-6.83,13.054-18.662,13.048-29.74l0,0
					c-0.002-6.461-1.917-12.657-6.511-17.504l0,0c-5.017-5.308-16.136-8.822-26.547-8.814l0,0
					c-5.007-0.002-9.839,0.808-13.761,2.578l0,0c-2.197,2.46-4.625,4.5-7.185,5.918l0,0l-0.391-0.416
					c1.676-2.636,4.192-4.604,7.225-5.993l0,0c6.257-7.073,10.646-17.676,10.634-26.693l0,0c0.002-1.782-0.167-3.5-0.526-5.116l0,0
					c-1.78-8.165-11.981-15.753-20.898-15.733l0,0c-3.635,0.002-7.037,1.237-9.629,4.17l0,0l-0.445-0.385
					c2.131-2.513,3.304-6.819,3.3-11.15l0,0c0.006-5.138-1.642-10.284-5.036-12.573l0,0c-2.287-1.553-5.244-2.167-8.473-2.165l0,0
					c-7.336-0.003-16.009,3.167-21.102,5.293l0,0l-0.35,0.147l-0.056-0.376C63.84-44.3,51.488-52.778,37.813-52.787l0,0
					c-5.281,0-10.755,1.271-15.908,3.917l0,0C9.089-42.275,5.19-31.495,5.178-19.718l0,0c0,8.91,2.262,18.361,4.632,26.863l0,0
					l0.194,0.698L9.378,7.479C6.145,5.605,3.059,4.788,0.195,4.788l0,0c-5.354,0-9.961,2.866-13.248,7.201l0,0
					c-3.285,4.335-5.227,10.132-5.226,15.915l0,0c0.005,7.784,3.494,15.517,11.929,19.748l0,0l0.499,0.25l-0.487,0.271
					c-9.458,5.261-19.867,12.587-19.84,22.425l0,0c0,2.729,0.788,5.669,2.625,8.851l0,0l-0.255,0.148l-0.255,0.146
					c-1.879-3.254-2.704-6.303-2.704-9.146l0,0c0.028-10.125,10.326-17.403,19.666-22.672l0,0
					c-8.299-4.385-11.772-12.222-11.767-20.023l0,0c0.003-11.81,7.9-23.682,19.064-23.705l0,0c2.791-0.001,5.771,0.749,8.858,2.423
					l0,0C6.75-1.719,4.59-10.949,4.589-19.718l0,0c-0.012-11.893,4.012-22.99,17.048-29.676l0,0
					c5.235-2.689,10.801-3.982,16.177-3.983l0,0c13.798-0.009,26.372,8.546,28.778,23.813l0,0c5.163-2.13,13.648-5.191,20.979-5.195
					l0,0c3.301,0.001,6.377,0.623,8.802,2.268l0,0c3.652,2.491,5.292,7.811,5.298,13.061l0,0c-0.004,3.417-0.699,6.817-2.054,9.428
					l0,0c2.405-1.848,5.269-2.654,8.237-2.652l0,0c9.229,0.019,19.566,7.678,21.475,16.195l0,0c0.368,1.664,0.541,3.425,0.541,5.244
					l0,0c-0.01,8.818-4.061,19.019-10.007,26.176l0,0c3.803-1.49,8.29-2.159,12.894-2.161l0,0
					c10.543,0.008,21.744,3.501,26.975,8.999l0,0c4.715,4.972,6.674,11.335,6.672,17.91l0,0
					c-0.004,11.277-5.727,23.213-13.234,30.174l0,0c-13.392,12.392-36.119,18.945-54.066,19.397l0,0
					c-1.804,0.044-3.613,0.069-5.424,0.069l0,0C83.672,109.348,73.631,108.567,63.922,105.956L63.922,105.956z M112.709,40.667
					c1.665-1.063,3.271-2.401,4.78-3.948l0,0C115.595,37.766,113.967,39.075,112.709,40.667L112.709,40.667z"/>
			</g>
		</g>
		<g>
			<path style="fill:#262510;" d="M78.336-12.7c0.303,0.134-5.041-9.279-14.098-13.164c-9.736-3.518-19.767-0.263-19.708-0.595
				c0.028,0.052,1.801-1.693,5.467-3.436c3.549-1.723,9.691-3.213,15.981-0.981c6.707,2.757,9.566,8.096,11.143,11.776
				C78.656-15.258,78.293-12.655,78.336-12.7z"/>
		</g>
		<g>
			<path style="fill:#262510;" d="M118.824,58.842c-0.053,0.016-0.432-2.738-1.496-6.788c-1.01-4.027-3.244-9.306-7.331-12.82
				c-9.269-6.612-21.332-5.371-21.048-5.55c0.008,0.076,2.354-1.468,6.818-2.283c4.334-0.728,11.226-0.945,17.513,3.664
				c6.021,5.247,6.923,12.359,6.685,16.704C119.734,56.262,118.766,58.833,118.824,58.842z"/>
		</g>
		<g>
			<path style="fill:#262510;" d="M43.744,82.427c-0.038-0.139-1.963,2.232-6.668,3.522c-4.723,1.349-11.479,0.718-18.188-1.912
				C11.592,81.292,7.514,73.939,8.002,68.944c0.503-4.736,1.238-7.267,1.149-7.351c0.083-0.088,0.693,2.91,1.492,7.092
				c0.978,3.906,4.659,8.358,10.297,10.458c5.942,2.308,11.646,4.126,15.818,4.172C40.981,83.471,43.723,82.317,43.744,82.427z"/>
		</g>
		<g>
			<path style="fill:#262510;" d="M13.157,75.328c0.329,0.057-7.86,2.688-15.802-3.148c-3.88-2.783-5.964-7.761-5.118-11.073
				c0.751-3.243,2.487-4.295,2.348-4.35c0.105-0.011-0.352,1.957,0.305,4.317c0.64,2.38,2.71,4.623,5.686,6.888
				C6.487,72.541,13.058,75.406,13.157,75.328z"/>
		</g>
	</g>
	<g>
		<path style="fill:#262510;" d="M64.971-71.271c-0.123,0.144,5.681,4.406,8.931,12.646c3.19,8.744-0.799,15.892-0.677,15.656
			c-0.07-0.092-1.6-6.851-4.318-13.866C66.095-64.03,64.791-71.277,64.971-71.271z"/>
	</g>
	<g>
		<path style="fill:#262510;" d="M96.811-74.809c0.078,0.065-3.959,6.341-9.255,12.518c-5.562,5.863-8.588,11.925-8.433,12.247
			c0.062,0.017-0.783-1.766-0.486-4.905c0.24-3.125,1.906-7.268,4.852-10.75C89.502-72.652,96.898-74.727,96.811-74.809z"/>
	</g>
	<g>
		<path style="fill:#262510;" d="M96.811-52.403c-0.036,0.032-2.774,3.364-6.398,5.059c-3.58,1.597-7.637,1.92-7.752,2.017
			c-0.131,0.124,0.965-4.729,5.491-6.817C92.561-54.174,96.874-52.386,96.811-52.403z"/>
	</g>
	<g>
		<path style="fill:#262510;" d="M-56.494,69.063c-0.147,0.17,1.602-8.279,9.531-14.148c7.85-6.168,16.714-4.919,16.413-4.72
			c-0.205-0.074-6.581,3.614-13.22,8.959C-50.674,64.165-56.462,68.944-56.494,69.063z"/>
	</g>
	<g>
		<path style="fill:#262510;" d="M-56.494,32.504c0.015-0.041,5.539,1.195,10.4,4.53c4.751,3.284,8.371,7.207,8.468,7.263
			c0.138,0.03-5.925,0.893-11.416-2.852C-54.369,37.782-56.457,32.473-56.494,32.504z"/>
	</g>
	<g>
		<path style="fill:#262510;" d="M-49.418,14.815c0.056,0.024,4.77,2.743,8.323,7.456c3.614,4.746,4.663,10.228,4.649,10.233
			c0.009-0.013-5.159-2.146-8.89-7.044C-49.083,20.483-49.417,14.751-49.418,14.815z"/>
	</g>
</g>
</svg>
