<?xml version="1.0" encoding="utf-8"?>
<!-- Generator: Adobe Illustrator 16.0.0, SVG Export Plug-In . SVG Version: 6.00 Build 0)  -->
<!DOCTYPE svg PUBLIC "-//W3C//DTD SVG 1.1//EN" "http://www.w3.org/Graphics/SVG/1.1/DTD/svg11.dtd">
<svg version="1.1" id="Layer_1" xmlns="http://www.w3.org/2000/svg" xmlns:xlink="http://www.w3.org/1999/xlink" x="0px" y="0px"
	 width="230.554px" height="215.257px" viewBox="-52.253 -86.55 230.554 215.257"
	 style="enable-background:new -52.253 -86.55 230.554 215.257;" xml:space="preserve">
<g>
	<g>
		<g>
			<g>
				<g>
					<g>
						<g>
							<g>
								<path d="M160.934,7.595c3.006-0.505,14.717-2.48,17.367-2.547c0,0-54.786-8.133-19.262-38.522
									c0,0-12.816,7.982-19.94,11.593c-14.169,5.279-27.867,1.778-10.449-46.69c0,0-11.099,14.97-18.743,23.899
									c-7.701,8.333-16.067,15.208-21.492,13.336c-12.41-4.277-15.836-32.956-17.976-55.214c0,0-1.64,12.136-2.015,14.888
									c-2.353,14.801-6.671,34.941-12.476,32.195c-9.051-4.279-23.605-27.394-32.594-42.804c0,0,14.554,55.645,0,53.933
									c-11.917-1.403-53.528-19.477-54.786-20.545c-0.265-0.224-0.59-0.494-0.847-0.545c6.846,10.413,16.083,19.457,23.416,29.586
									C-3.571-12.532,7.708,0.029,3.435,9.928c-4.92,11.379-52.071,18.119-55.688,19.52c17.151,7.746,39.975,4.324,54.512,17.769
									c5.427,5.019,7.479,11.829,6.537,19.09c-0.677,5.202-2.712,10.19-5.089,14.827c-1.522,2.973-10.391,16.98-12.025,18.08
									c7.231-4.861,15.526-8.709,23.727-11.598c11.904-4.191,28.692-5.291,37.542,5.662c7.976,9.871,6.083,23.791,8.199,35.43
									c-0.516-2.84,7.493-11.547,9.255-13.693c4.117-5.018,8.861-9.564,14.078-13.432c9.604-7.121,21.195-12.17,32.019-4.588
									c7.24,5.072,12.374,12.82,17.698,19.715c-3.68-7.404-6.086-18.543-6.337-26.824c-0.236-7.789,2.051-15.82,10.181-18.475
									c6.678-2.18,15.355,0.553,21.406,3.451c0,0,0.08,0.039,0.076,0.031c1.482,0.615,3.027,1.299,4.65,2.063
									C164.176,76.955,120.413,20.427,160.934,7.595z"/>
							</g>
						</g>
					</g>
				</g>
			</g>
		</g>
	</g>
	<g>
		<g>
			<g>
				<g>
					<g>
						<g>
							<g>
								<path style="fill:#FFFFFF;" d="M138.748,16.308c2.625-5.527,7.012-9.766,13.113-12.694
									c-5.469-3.142-10.174-7.479-11.879-13.406c-0.506-1.751-0.723-3.529-0.654-5.33c-3.334,1.18-6.707,1.945-9.848,1.945
									c-0.002,0-0.002,0-0.004,0c-6.814,0-10.598-3.345-12.572-6.149c-3.072-4.368-4.096-10.8-3.035-19.635
									c-7.721,8.2-16.344,15.095-23.506,15.097c-0.002,0-0.002,0-0.004,0c-1.361,0-2.68-0.216-3.916-0.642
									c-7.883-2.718-12.715-11.17-15.9-22.425c-3.242,10.685-7.105,15.093-12.631,15.095c0,0-0.002,0-0.004,0
									c-1.275,0-2.523-0.285-3.711-0.847c-2.033-0.961-6.906-3.266-16.988-16.979c0.951,10.122,0.525,19.565-3.146,24.321
									c-2.055,2.661-5.004,4.129-8.301,4.13c-0.002,0-0.004,0-0.004,0c-0.438,0-0.889-0.024-1.355-0.08
									c-7.525-0.886-19.662-4.348-31.012-8.611c1.867,2.281,3.703,4.612,5.438,7.011c0.639,0.883,1.373,1.848,2.156,2.878
									C7.182-11.848,16.551,0.491,11.479,12.24C7.035,22.514-6.467,26.894-18.35,29.47c9.715,1.889,19.299,4.709,27.189,12.005
									c6.584,6.089,9.537,14.604,8.316,23.981c-0.617,4.747-2.197,9.614-4.955,15.223c6.816-2.555,14.525-4.549,21.975-4.549
									c9.262,0,16.83,2.984,22.496,8.871c5.074,5.27,8.414,12.805,9.994,22.512c8.543-10.512,21.482-22.385,36.338-22.385
									c7.186,0,13.932,2.66,20.178,7.938c-1.455-9.193-1.004-17.375,2.963-23.109c2.293-3.317,6.795-7.27,15.225-7.27
									c1.777,0,3.664,0.174,5.672,0.523C139.533,49.858,131.891,30.748,138.748,16.308z"/>
							</g>
						</g>
					</g>
				</g>
			</g>
		</g>
	</g>
</g>
</svg>
