<?xml version="1.0" encoding="utf-8"?>
<!-- Generator: Adobe Illustrator 16.0.0, SVG Export Plug-In . SVG Version: 6.00 Build 0)  -->
<!DOCTYPE svg PUBLIC "-//W3C//DTD SVG 1.1//EN" "http://www.w3.org/Graphics/SVG/1.1/DTD/svg11.dtd">
<svg version="1.1" id="Layer_1" xmlns="http://www.w3.org/2000/svg" xmlns:xlink="http://www.w3.org/1999/xlink" x="0px" y="0px"
	 width="331.975px" height="224.346px" viewBox="-107.379 -84.816 331.975 224.346"
	 style="enable-background:new -107.379 -84.816 331.975 224.346;" xml:space="preserve">
<g>
	<g>
		<g>
			<g>
				<g>
					<g>
						<g>
							<g>
								<path d="M-73.9,30.168c-5.571-13.194-7.481-26.94-5-40.555c9.878-54.214,85.586-85.827,169.099-70.61
									C173.712-65.78,233.404-9.496,223.526,44.719c-9.879,54.213-85.586,85.825-169.101,70.607
									c-26.009-4.738-49.708-13.462-69.713-24.865c-30.643,7.117-79.659,19.379-92.092,49.068
									C-107.379,139.529-102.251,80.572-73.9,30.168z"/>
							</g>
						</g>
					</g>
				</g>
			</g>
		</g>
	</g>
	<g>
		<g>
			<g>
				<g>
					<g>
						<g>
							<g>
								<path style="fill:#FFFFFF;" d="M-65.705,23.689c-5.367-12.167-7.259-24.823-4.98-37.333
									c9.076-49.812,80.818-78.46,160.243-63.988c79.422,14.471,136.449,66.583,127.373,116.395
									c-9.077,49.813-80.818,78.462-160.241,63.989C31.954,98.245,9.391,90.085-9.681,79.482
									c-29.068,6.371-80.934,14.736-92.578,41.974C-102.259,121.456-92.351,69.893-65.705,23.689z"/>
							</g>
						</g>
					</g>
				</g>
			</g>
		</g>
	</g>
	<g>
		<g>
			<g>
				<g>
					<g>
						<g>
							<g>
								<path d="M88.401-63.511C17.245-76.477-47.18-51.703-57.891-7.965c0.128-1.062,0.278-2.122,0.471-3.182
									c8.325-45.688,74.127-71.966,146.975-58.692C162.403-56.565,214.71-8.767,206.386,36.922
									c-0.193,1.06-0.428,2.105-0.682,3.144C211.108-4.639,159.56-50.545,88.401-63.511z"/>
							</g>
						</g>
					</g>
				</g>
			</g>
		</g>
	</g>
</g>
</svg>
