<?xml version="1.0" encoding="utf-8"?>
<!-- Generator: Adobe Illustrator 16.0.0, SVG Export Plug-In . SVG Version: 6.00 Build 0)  -->
<!DOCTYPE svg PUBLIC "-//W3C//DTD SVG 1.1//EN" "http://www.w3.org/Graphics/SVG/1.1/DTD/svg11.dtd">
<svg version="1.1" id="Layer_1" xmlns="http://www.w3.org/2000/svg" xmlns:xlink="http://www.w3.org/1999/xlink" x="0px" y="0px"
	 width="137.167px" height="108.135px" viewBox="0 0 137.167 108.135" style="enable-background:new 0 0 137.167 108.135;"
	 xml:space="preserve">
<path style="fill:#CCBF82;" d="M0,64.393c0,8.215,6.662,14.873,14.873,14.873c14.579,0,39.031-6.697,51.245,2.836
	c12.278,9.594,4.577,24.146-11.332,23.967c17.907,6.824,28.069-4.297,40.766-18.158c8.311-9.082,9.775-7.451,20.387-9.457
	c9.359-1.766,21.229,0.66,21.229-14.139c0-3.021,0-49.44,0-49.44C137.167,6.661,130.505,0,122.296,0H14.873
	C6.662,0,0,6.661,0,14.875V64.393z"/>
</svg>
