<?xml version="1.0" encoding="utf-8"?>
<!-- Generator: Adobe Illustrator 16.0.0, SVG Export Plug-In . SVG Version: 6.00 Build 0)  -->
<!DOCTYPE svg PUBLIC "-//W3C//DTD SVG 1.1//EN" "http://www.w3.org/Graphics/SVG/1.1/DTD/svg11.dtd">
<svg version="1.1" id="Layer_1" xmlns="http://www.w3.org/2000/svg" xmlns:xlink="http://www.w3.org/1999/xlink" x="0px" y="0px"
	 width="281.938px" height="252.024px" viewBox="-79.672 -105.295 281.938 252.024"
	 style="enable-background:new -79.672 -105.295 281.938 252.024;" xml:space="preserve">
<g>
	<g>
		<g>
			<g>
				<g>
					<g>
						<g>
							<g>
								<path d="M93.619,138.444c-1.424-1.009-34.333-24.659-44.358-59.644c-2.343-1.516-4.155-3.146-5.546-4.82
									c-2.103,1.34-4.466,1.981-6.758,1.981c-4.215,0-8.174-2.105-10.401-5.514c-5.988,2.777-12.652,3.332-17.015,3.332
									c-2.84,0-5.752-0.235-8.424-0.68c-12.869-2.141-18.495-8.182-22.073-16.35c-1.164,0.424-2.346,0.617-3.462,0.617
									c-3.665,0-7.276-1.969-9.508-5.004c-4.23,2.313-8.706,3.561-13.039,3.561c-6.756,0-12.883-2.894-17.719-8.369
									c-5.069-5.736-7.809-12.61-7.518-18.857c0.054-1.17,1.071-6.527,3.566-11.048c-1.201-1.673-1.665-3.613-1.599-5.383
									c0.094-2.525,1.195-4.949,2.888-6.866c-8.046-8.017-13.8-17.306-11.993-31.363c1.311-10.197,7.157-21.079,16.38-26.079
									c-0.432-1.957-0.134-3.637,0.151-4.621c0.876-3.026,3.195-5.512,5.783-7.322c-5.217-7.715-5.774-14.211-5.132-18.632
									c1.124-7.722,6.302-14.344,15.388-19.681c3.389-1.99,7.321-2.999,11.688-2.999c9.05,0,19.716,4.727,26.399,12.346
									c0.12-0.142,0.241-0.281,0.366-0.42c2.925-3.27,6.352-5.071,9.65-5.071c0.795,0,1.621,0.114,2.437,0.359
									c4.063-3.804,10.774-5.731,19.967-5.731c5.545,0,10.21,0.703,11.959,1.004c10.263,1.772,20.889,6.741,26.876,14.551
									c2.072-1.539,4.443-2.391,6.728-2.391c1.547,0,3,0.376,4.271,1.088c4.941-4.361,12.338-6.782,21.43-6.782
									c5.293,0,10.689,0.851,15.197,2.395c9.242,3.168,15.488,9.068,18.188,16.996c1.748-0.529,3.6-0.81,5.48-0.81
									c3.762,0,6.955,1.162,9.061,3.21c3.508-1.688,7.367-2.574,11.398-2.574c7.473,0,14.916,2.975,20.961,8.377
									c10.346,9.257,13.826,23.786,9.316,35.627c0.813,0.952,1.455,2.086,1.857,3.349c0.273,0.859,0.432,1.817,0.436,2.827
									c4.982,3.016,8.492,9.676,9.268,15.967c0.857,6.962-1.314,12.902-5.887,16.915c0.766,1.069,1.424,2.25,1.945,3.519
									c1.199,2.925,1.467,5.904,0.848,8.586c8.307,8.718,11.268,21.917,7.717,35.494c-4.193,16.028-16.043,27.856-30.191,30.132
									c-4.525,0.729-8.287,1.068-11.832,1.068c0,0,0,0-0.002,0c-4.818,0-9.457-0.651-14.184-1.991
									c-0.127-0.036-8.922-2.573-14.883-6.706c-1.34,0.979-3.107,1.791-5.531,2.148c-0.721,0.105-1.441,0.158-2.148,0.158
									c-2.773,0-5.289-0.823-7.203-2.314c-4.066,3.34-8.279,5.883-12.717,7.681c-2.342,12.095-5.092,27.14-0.021,49.06
									l3.23,13.957L93.619,138.444z"/>
							</g>
						</g>
					</g>
				</g>
			</g>
		</g>
	</g>
	<g>
		<g>
			<g>
				<g>
					<g>
						<g>
							<g>
								<path style="fill:#FFFFFF;" d="M186.494,19.393c3.967-4.733-0.84-13.586-6.656-14.14c20.754-5.196,7.531-33.74-1.268-27.523
									c6.488-4.586,0.334-10.654-1.785-7.692c7.734-10.815,4.443-26.159-5.127-34.722c-9.857-8.811-24.443-10.034-33.512,0.622
									c7.387-8.679-7.729-11.226-13.705-4.169c-0.318-10.281-6.281-17.228-16.008-20.561C96.828-92.77,75.088-92.26,72.463-76.92
									c2.822-13.149-10.273-8.996-10.533,1.058c-1.184-12.651-16.285-19.7-27.158-21.578c-7.99-1.38-30.396-3.057-29.861,9.955
									c-0.521-12.631-14.691-0.84-12.677,8.459c-1.937-14.339-23.844-25.854-36.243-18.574
									c-16.003,9.398-16.786,22.402-4.304,35.779c-0.833-0.893-16.144,6.106-5.912,12.567
									c-11.225,1.454-18.401,13.808-19.71,23.984C-75.89-10.055-67.451-1.44-56.713,7.694c-4.845-4.122-13.921,7.9-2.714,8.733
									c-3.914-0.291-7.208,9.847-7.332,12.523c-0.254,5.459,2.636,11.01,6.159,14.998c9.27,10.495,22.475,7.29,31.624-2.215
									c-6.554,6.807,7.304,16.545,10.089,4.436c3.691,12.47,7.091,19.26,20.899,21.557c9.06,1.508,23.017,0.629,29.103-7.613
									c-5.364,10.792,12.458,16.247,13.948,0.94c-0.651,6.69,3.366,11.176,8.881,14.2C62.792,109.918,96.77,134,96.77,134
									c-5.771-24.945-1.902-41.403,0.563-54.353c6.959-2.23,13.281-6.396,19.529-12.98c-1.268,4.526,2.316,6.747,6.51,6.13
									c4.16-0.612,4.43-2.883,6.666-5.732c-3.02,3.849,14.395,9.976,16.029,10.439c8.18,2.318,15.178,2.151,23.666,0.785
									C194.836,74.251,206.883,35.583,186.494,19.393z"/>
							</g>
						</g>
					</g>
				</g>
			</g>
		</g>
	</g>
</g>
</svg>
