<?xml version="1.0" encoding="utf-8"?>
<!-- Generator: Adobe Illustrator 16.0.0, SVG Export Plug-In . SVG Version: 6.00 Build 0)  -->
<!DOCTYPE svg PUBLIC "-//W3C//DTD SVG 1.1//EN" "http://www.w3.org/Graphics/SVG/1.1/DTD/svg11.dtd">
<svg version="1.1" id="Layer_1" xmlns="http://www.w3.org/2000/svg" xmlns:xlink="http://www.w3.org/1999/xlink" x="0px" y="0px"
	 width="156.759px" height="114.245px" viewBox="0 0 156.759 114.245" style="enable-background:new 0 0 156.759 114.245;"
	 xml:space="preserve">
<g>
	<path style="fill:#67917A;" d="M15.624,19.592c1.719-7.736,9.218-13.563,18.202-13.563c5.417,0,10.292,2.116,13.688,5.492
		C48.877,5.04,59.16,0,71.646,0c11.7,0,21.469,4.427,23.775,10.316c4.056-2.844,11.519-4.753,20.062-4.753
		c12.154,0,22.135,3.867,23.205,8.797c9.979,0.003,18.07,7.494,18.07,16.735c0,9.24-8.092,16.734-18.075,16.734
		c-1.141,0-2.252-0.102-3.335-0.29c-0.908,9.192-9.151,16.391-19.19,16.391c-1.993,0-3.917-0.283-5.72-0.812
		c-3.756,5.809-10.535,9.685-18.274,9.685c-5.826,0-11.113-2.199-14.97-5.767c-5.536,3.352-12.705,5.371-20.533,5.371
		c-6.643,0-12.805-1.452-17.904-3.938c-0.668,0.076-1.345,0.12-2.036,0.12c-9.244,0-16.77-7.159-17.076-16.104L19.21,52.49
		C8.601,52.49,0,45.063,0,35.898C0,27.789,6.73,21.044,15.624,19.592z"/>
	<ellipse style="fill:#67917A;" cx="65.981" cy="85.109" rx="11.926" ry="10.874"/>
	<ellipse style="fill:#67917A;" cx="46.284" cy="99.092" rx="8.906" ry="7.565"/>
	<path style="fill:#67917A;" d="M19.809,107.39c0,3.785,3.613,6.855,8.074,6.855c4.454,0,8.068-3.07,8.068-6.855
		c0-3.788-3.614-6.858-8.068-6.858C23.422,100.531,19.809,103.602,19.809,107.39z"/>
</g>
</svg>
