<?xml version="1.0" encoding="utf-8"?>
<!-- Generator: Adobe Illustrator 16.0.0, SVG Export Plug-In . SVG Version: 6.00 Build 0)  -->
<!DOCTYPE svg PUBLIC "-//W3C//DTD SVG 1.1//EN" "http://www.w3.org/Graphics/SVG/1.1/DTD/svg11.dtd">
<svg version="1.1" id="Layer_1" xmlns="http://www.w3.org/2000/svg" xmlns:xlink="http://www.w3.org/1999/xlink" x="0px" y="0px"
	 width="35.266px" height="131.524px" viewBox="45.822 -45.208 35.266 131.524"
	 style="enable-background:new 45.822 -45.208 35.266 131.524;" xml:space="preserve">
<g>
	<g>
		<g>
			<g>
				<g>
					<g>
						<g>
							<g>
								<g>
									<polygon points="45.822,-37.192 81.088,-45.208 68.037,52.656 50.044,61.16 									"/>
								</g>
							</g>
						</g>
					</g>
				</g>
			</g>
		</g>
		<g>
			<g>
				<g>
					<g>
						<g>
							<g>
								<g>
									<polygon style="fill:#FFFFFF;" points="47.961,-34.032 74.361,-40.032 62.361,49.968 51.783,54.968 									"/>
								</g>
							</g>
						</g>
					</g>
				</g>
			</g>
		</g>
	</g>
	<g>
		<g>
			<g>
				<g>
					<g>
						<g>
							<g>
								<g>
									<path d="M62.288,85.824c-3.427,1.023-6.731,0.438-9.066-1.611c-4.144-3.637-3.823-10.805,0.717-15.979
										c1.869-2.129,4.18-3.65,6.683-4.398c3.428-1.023,6.733-0.436,9.067,1.611c4.145,3.637,3.824,10.807-0.717,15.979
										C67.104,83.555,64.791,85.076,62.288,85.824z"/>
								</g>
							</g>
						</g>
					</g>
				</g>
			</g>
		</g>
		<g>
			<g>
				<g>
					<g>
						<g>
							<g>
								<g>
									
										<ellipse transform="matrix(0.6595 -0.7517 0.7517 0.6595 -34.702 71.1319)" style="fill:#FFFFFF;" cx="61.168" cy="73.872" rx="10.483" ry="8"/>
								</g>
							</g>
						</g>
					</g>
				</g>
			</g>
		</g>
	</g>
</g>
</svg>
