<?xml version="1.0" encoding="utf-8"?>
<!-- Generator: Adobe Illustrator 16.0.0, SVG Export Plug-In . SVG Version: 6.00 Build 0)  -->
<!DOCTYPE svg PUBLIC "-//W3C//DTD SVG 1.1//EN" "http://www.w3.org/Graphics/SVG/1.1/DTD/svg11.dtd">
<svg version="1.1" id="Layer_1" xmlns="http://www.w3.org/2000/svg" xmlns:xlink="http://www.w3.org/1999/xlink" x="0px" y="0px"
	 width="71.15px" height="116.516px" viewBox="0 0 71.15 116.516" style="enable-background:new 0 0 71.15 116.516;"
	 xml:space="preserve">
<path style="fill:#000;" d="M69.102,78.323c-1.652-4.056-5.676-6.817-3.939-13.906c-2.721,3.255-3.93,7.962-3.408,11.636
	c0.389,2.734,1.039,5.213,1.967,7.623c-4.785-5.037-9.215-9.974-9.752-17.744c-0.506-7.561,2.064-11.535,5.234-17.716
	c1.764-3.86,3.555-7.297,2.328-11.788c0.16,3.795-2.695,6.539-6.125,5.546c-3.838-1.145-5.063-5.635-5.379-9.194
	c-0.668-7.327,3.82-13.76,6.311-20.63c1.348-3.712,2.85-7.831,0.43-12.15c1.248,6.249-2.984,10.865-4.311,12.707
	c-2.713,3.996-7.074,6.597-8.969,10.901c-1.736,4.066-2.598,8.824,0.795,13.603c2.941,4.139,6.777,8.145,7.365,13.574
	c0.715,4.972-12.068,8.008-14.068,18.341c-6.667-9-18.792-12.271-18.078-17.244c0.588-5.429,4.424-9.435,7.364-13.574
	c-8.274,5.446-6.789,4.644-10.627,5.789c-3.429,0.992-6.78-2.777-6.621-6.572c-1.226,4.49,0.564,7.928,2.328,11.788
	c3.171,6.181,5.741,10.155,5.234,17.716C16.644,74.8,12.214,79.736,7.43,84.773c0.927-2.41,1.577-4.888,1.966-7.623
	c0.522-3.674-0.687-8.381-3.407-11.636c1.735,7.089-2.287,9.851-3.94,13.906c-9.111,22.321,14.584,36.761,23.863,36.285
	c2.836,0.524,5.857,0.81,8.997,0.81c9.094,0,17.219-2.375,22.602-6.104C66.629,104.635,75.189,93.239,69.102,78.323z"/>
</svg>
