<?xml version="1.0" encoding="utf-8"?>
<!-- Generator: Adobe Illustrator 16.0.0, SVG Export Plug-In . SVG Version: 6.00 Build 0)  -->
<!DOCTYPE svg PUBLIC "-//W3C//DTD SVG 1.1//EN" "http://www.w3.org/Graphics/SVG/1.1/DTD/svg11.dtd">
<svg version="1.1" id="Layer_1" xmlns="http://www.w3.org/2000/svg" xmlns:xlink="http://www.w3.org/1999/xlink" x="0px" y="0px"
	 width="55.582px" height="100.434px" viewBox="0 0 55.582 100.434" style="enable-background:new 0 0 55.582 100.434;"
	 xml:space="preserve">
<path style="fill:#000;" d="M55.578,76.327c-0.004-10.488-2.779-21.373-5.598-31.4
	c-1.536,6.536-3.623,10.265-5.557,14.709c-1.781,4.093-7.769,8.231-10.035,1.857c-1.236-3.479-0.549-7.835-0.138-11.412
	C36.397,31.446,37.163,10.037,22.221,0c2.224,12.129-0.227,28.025-6.588,40.831C10.534,51.094,3.82,60.594,1.041,71.86
	C-0.9,79.729-0.707,88.926,6.725,93.927c7.997,5.383,15.473,6.828,25.1,6.45c12.883-1.104,23.638-10.115,23.758-23.5
	C55.583,76.693,55.578,76.51,55.578,76.327z"/>
</svg>
