<?xml version="1.0" encoding="utf-8"?>
<!-- Generator: Adobe Illustrator 16.0.0, SVG Export Plug-In . SVG Version: 6.00 Build 0)  -->
<!DOCTYPE svg PUBLIC "-//W3C//DTD SVG 1.1//EN" "http://www.w3.org/Graphics/SVG/1.1/DTD/svg11.dtd">
<svg version="1.1" id="Layer_1" xmlns="http://www.w3.org/2000/svg" xmlns:xlink="http://www.w3.org/1999/xlink" x="0px" y="0px"
	 width="109.631px" height="117.582px" viewBox="0 0 109.631 117.582" style="enable-background:new 0 0 109.631 117.582;"
	 xml:space="preserve">
<path style="fill:#000;" d="M103.085,82.685c-0.639-0.555-1.459,0.074-0.965,0.81c3.359,5.004,3.23,12.169-2.278,15.637
	c-2.854,1.796-6.436,3.053-9.411,0.263c-1.705-1.6-1.936-3.355-0.761-5.278c2.638-4.312,7.128-7.177,9.704-11.529
	c2.393-4.038,2.147-8.451-0.245-12.45c-1.145-1.914-3.884-4.869-6.421-4.436c-0.812,0.139-0.044,1.338,0.316,1.524
	c2.228,1.148,2.74,6.459,1.657,8.431c-1.045,1.901-2.472,3.545-4.251,4.8c-2.834,1.999-6.104,3.143-8.981,5.026
	c-4.488,2.937-8.551,6.986-10.318,12.103c-4.192-6.032,0.599-10.852,5.383-14.972c3.32-2.858,6.85-5.782,9.142-9.585
	c4.147-6.886,7.074-15.026,7.006-23.152c-0.064-7.631-2.17-15.449-6.747-21.65C80.409,20.764,73.153,17.7,64.81,14.331
	c-0.688-0.278-1.154,0.282-0.771,0.938c1.151,1.966,2.862,3.63,4.099,5.558c2.982,4.65,5.354,9.751,6.61,15.15
	c2.13,9.151,1.064,17.452-4.149,24.741c-1.675-7.881-4.447-21.776-4.671-23.558C63.554,18.139,57.157,5.445,43.361,0
	c5.14,11.505,9.648,16.725,6.426,30.977c-2.187,9.686-8.422,20.188-10.289,30.389c-5.624-7.442-6.808-15.966-4.615-25.388
	c1.257-5.399,3.626-10.5,6.609-15.15c1.237-1.928,2.947-3.592,4.099-5.558c0.383-0.656-0.081-1.217-0.77-0.938
	c-8.345,3.369-15.601,6.433-21.105,13.894c-4.577,6.201-6.682,14.02-6.746,21.65c-0.069,8.126,2.858,16.267,7.006,23.152
	c2.292,3.803,5.819,6.727,9.141,9.585c4.785,4.12,9.576,8.939,5.383,14.972c-1.767-5.115-5.829-9.166-10.318-12.103
	c-2.877-1.884-6.146-3.027-8.981-5.026c-1.779-1.255-3.205-2.898-4.25-4.8c-1.084-1.972-0.57-7.282,1.657-8.431
	c0.36-0.187,1.128-1.386,0.315-1.524c-2.538-0.434-5.275,2.521-6.421,4.436c-2.393,3.999-2.639,8.412-0.245,12.45
	c2.576,4.353,7.067,7.218,9.705,11.529c1.175,1.923,0.944,3.679-0.762,5.278c-2.976,2.79-6.556,1.533-9.41-0.263
	C4.279,95.663,4.15,88.498,7.51,83.494c0.493-0.735-0.325-1.364-0.964-0.81c-7.229,6.264-8.692,14.679-3.277,22.598
	c6.776,9.909,19.667,12.411,30.877,12.296c7.036-0.414,34.304-0.414,41.34,0c11.21,0.115,24.099-2.387,30.877-12.296
	C111.777,97.363,110.313,88.948,103.085,82.685z"/>
</svg>
