<?xml version="1.0" encoding="utf-8"?>
<!-- Generator: Adobe Illustrator 16.0.0, SVG Export Plug-In . SVG Version: 6.00 Build 0)  -->
<!DOCTYPE svg PUBLIC "-//W3C//DTD SVG 1.1//EN" "http://www.w3.org/Graphics/SVG/1.1/DTD/svg11.dtd">
<svg version="1.1" id="Layer_1" xmlns="http://www.w3.org/2000/svg" xmlns:xlink="http://www.w3.org/1999/xlink" x="0px" y="0px"
	 width="80.434px" height="110.053px" viewBox="0 0 80.434 110.053" style="enable-background:new 0 0 80.434 110.053;"
	 xml:space="preserve">
<path style="fill:#000" d="M77.168,32.61c-3.071,9.473-10.336,14.835-17.003,19.72C55.681,39.5,68.014,5.833,54.014,2.5
	c-1.667,14.333-8.333,24.833-13.797,31.333C32.181,22.667,31.812,7.225,29.514,0c-6,6.5-7.889,18.66-4.224,29.325
	c2.886,8.402,6.229,16.062,6.838,25.06c0.53,7.847-1.353,15.539-5.452,22.076c-0.189,0.303-0.358,0.615-0.557,0.913
	c0.546-5.624,0.617-9.858-7.272-20.54c-7.89-10.681-9.5-5.5-14.5-23.25c-11.25,27-0.263,67.703,28.306,76.47
	c-1.993-4.282-3.523-7.26-3.556-11.907s2.936-6.45,6.651-10.474c2.962-3.208,4.39-11.626,4.469-16.339
	c4.567,3.188,6.797,6.334,8.214,15.167c3.416-7.083,5.854-8.854,7.154-14.38c3.012,4.463,3.977,8.799,3.527,14.111
	s-1.828,10.727-15.737,23.422c4.987,1.211,21.319-6.827,22.854-15.699c1.533-8.871,0.527-11.629,2.313-17.128
	c0.516-1.585,1.215-3.165,2.22-4.749C77.689,61.165,84.74,46.887,77.168,32.61z"/>
</svg>
