<?xml version="1.0" encoding="utf-8"?>
<!-- Generator: Adobe Illustrator 16.0.0, SVG Export Plug-In . SVG Version: 6.00 Build 0)  -->
<!DOCTYPE svg PUBLIC "-//W3C//DTD SVG 1.1//EN" "http://www.w3.org/Graphics/SVG/1.1/DTD/svg11.dtd">
<svg version="1.1" id="Layer_1" xmlns="http://www.w3.org/2000/svg" xmlns:xlink="http://www.w3.org/1999/xlink" x="0px" y="0px"
	 width="75.377px" height="139.348px" viewBox="0 0 75.377 139.348" style="enable-background:new 0 0 75.377 139.348;"
	 xml:space="preserve">
<path style="fill:#000;" d="M2.36,98.646c4.288-6.205,5.874-11.889,5.987-17.516S7.02,72.072,5.944,68.844
	c6.454,5.381,10.758,24.742,16.136,16.137c3.765-5.646,0.21-12.76-2.341-20.268c-0.363-1.072-0.705-2.152-0.988-3.229
	c-2.049-3.396-0.975-8.775,2.254-10.926c0,8.604,6.453,13.984,11.878,19.188c0.737,0.813,1.452,1.645,2.128,2.5
	c2.023,2.566,3.69,5.363,4.568,8.645c0.399,1.152,0.717,2.326,0.934,3.502c0.65,3.525,0.393,7.041-1.221,10.27
	c4.707-3.766,5.295-11.648,3.22-17.734c-0.295-0.869-0.646-1.701-1.046-2.48c-0.544-1.938-1.288-3.729-2.139-5.439
	c-0.426-0.855-0.875-1.688-1.325-2.49c-6.241-10.58-7.315-23.488-4.862-35.146c0.283-1.117,0.583-2.207,0.849-3.309
	C36.401,18.152,35.795,7.26,28.534,0c15.061,3.227,24.742,21.514,20.031,36.406c-0.283,0.904-0.596,1.797-0.917,2.686
	c-0.24,0.666-0.487,1.33-0.732,1.992c-0.245,0.664-0.489,1.33-0.726,1.994c-1.52,5.33-2.596,11.781,2.784,16.084
	c-3.228-3.225-2.152-7.527-1.677-11.994c0.23-0.809,0.52-1.59,0.854-2.33c0.666-1.48,1.512-2.805,2.458-3.854
	c0.603-0.738,1.259-1.436,1.956-2.09c2.1-1.955,4.584-3.504,7.166-4.471c-0.808,0.984-1.511,2-2.115,3.043
	c-0.604,1.043-1.111,2.113-1.529,3.209c-2.48,8.168-1.031,15.748,1.668,23.084c0.385,1.053,0.797,2.1,1.229,3.152
	c1.686,4.229,4.24,8.244,6.781,12.316c0.635,1.018,1.271,2.039,1.898,3.076c11.725,15.619,8.973,38.387-0.809,46.838
	c-11.249,9.719-24.397,11.724-37.581,9.226C15.148,135.691-7.352,122.441,2.36,98.646z"/>
</svg>
