<?xml version="1.0" encoding="utf-8"?>
<!-- Generator: Adobe Illustrator 16.0.0, SVG Export Plug-In . SVG Version: 6.00 Build 0)  -->
<!DOCTYPE svg PUBLIC "-//W3C//DTD SVG 1.1//EN" "http://www.w3.org/Graphics/SVG/1.1/DTD/svg11.dtd">
<svg version="1.1" id="Layer_1" xmlns="http://www.w3.org/2000/svg" xmlns:xlink="http://www.w3.org/1999/xlink" x="0px" y="0px"
	 width="94.753px" height="109.122px" viewBox="0 0 94.753 109.122" style="enable-background:new 0 0 94.753 109.122;"
	 xml:space="preserve">
<path style="fill:#000;" d="M71.58,20.372c2.566,5.614,3.053,15.119-2.133,19.73C60.671,6.821,38.969,0,38.969,0
	c2.567,17.163-9.301,35.931-20.749,49.954c-0.401-6.842-0.83-11.566-4.427-18.115C12.982,44.272,3.482,54.405,0.91,66.862
	c-3.484,16.865,2.608,29.216,25.746,42.26c-0.016-0.017-0.004-0.014,0.008-0.012c-7.26-15.121-3.387-23.787,2.201-31.953
	c6.12-8.948,7.697-17.807,7.697-17.807s0.014,0.019,0.019,0.024c0.002-0.009,0.007-0.036,0.007-0.036s4.804,6.246,2.893,16.018
	c8.476-9.467,10.074-24.513,8.793-30.282c0.011,0.008,0.021,0.017,0.032,0.024c-0.002-0.012-0.004-0.025-0.006-0.036
	c19.215,13.429,27.428,42.505,16.362,64.054C123.49,75.808,79.279,25.985,71.58,20.372z"/>
</svg>
