<?xml version="1.0" encoding="utf-8"?>
<!-- Generator: Adobe Illustrator 16.0.0, SVG Export Plug-In . SVG Version: 6.00 Build 0)  -->
<!DOCTYPE svg PUBLIC "-//W3C//DTD SVG 1.1//EN" "http://www.w3.org/Graphics/SVG/1.1/DTD/svg11.dtd">
<svg version="1.1" id="Layer_1" xmlns="http://www.w3.org/2000/svg" xmlns:xlink="http://www.w3.org/1999/xlink" x="0px" y="0px"
	 width="68.277px" height="96.359px" viewBox="0 0 68.277 96.359" style="enable-background:new 0 0 68.277 96.359;"
	 xml:space="preserve">
<path style="fill:#000;" d="M65.907,39.913c-5.667,0.25-10.377,7.729-15.275,10.951c-0.042,0.028-0.086,0.056-0.128,0.084
	c2.338-5.383,3.926-10.792,3.699-16.994c-0.354-9.61-5.967-18.651-10.293-26.92c-2.857,5.816-5.323,21.435-11.051,30.111
	c-0.792-7.109-1.3-14.01-5.085-20.419C23.701,9.827,16.99,2.226,9.492,0c2.957,7.871,3.819,14.749,4.255,22.556
	c0.463,8.286-1.208,16.558-3.388,24.503c-0.519,1.89-1.087,3.766-1.695,5.63C6.933,58,4.875,63.212,2.672,68.333
	c-2.3,5.349-3.577,10.465-1.921,16.153c0.037,0.126,0.087,0.236,0.144,0.338c0.002,0.003,0.002,0.007,0.003,0.011
	c3.64,8.56,13.587,12.861,22.33,11.156c0.207-0.04-9.239-9.641-8.801-18.266s4-15.938,12.188-20.438
	c-1.679,5.333,3.286,21.38,0.938,26.5c3.085,0.73,8.065-0.374,12.813-10.626c12.938,16.063-7.143,22.575-7.125,22.626
	c7.727,0.875,10.2-0.236,15.529-0.909c8.965-1.134,16.26-7.923,18.594-16.511c0.182-0.663,0.314-1.326,0.438-1.989
	C70.061,64.266,63.411,52.131,65.907,39.913z"/>
</svg>
