<?xml version="1.0" encoding="utf-8"?>
<!-- Generator: Adobe Illustrator 16.0.0, SVG Export Plug-In . SVG Version: 6.00 Build 0)  -->
<!DOCTYPE svg PUBLIC "-//W3C//DTD SVG 1.1//EN" "http://www.w3.org/Graphics/SVG/1.1/DTD/svg11.dtd">
<svg version="1.1" id="Layer_1" xmlns="http://www.w3.org/2000/svg" xmlns:xlink="http://www.w3.org/1999/xlink" x="0px" y="0px"
	 width="56.95px" height="107.772px" viewBox="0 0 56.95 107.772" style="enable-background:new 0 0 56.95 107.772;"
	 xml:space="preserve">
<g>
	<g>
		<path style="fill:#000;" d="M51.842,64.499c-0.49-0.813-0.99-1.612-1.488-2.41c-1.99-3.191-3.994-6.338-5.313-9.652
			c-0.34-0.824-0.662-1.646-0.965-2.47c-2.115-5.749-3.25-11.689-1.305-18.09c0.326-0.859,0.725-1.698,1.197-2.516
			c0.475-0.815,1.025-1.612,1.656-2.385c-2.021,0.759-3.969,1.973-5.613,3.505c-0.547,0.512-1.063,1.059-1.533,1.637
			c-0.742,0.822-1.404,1.859-1.928,3.02c-0.262,0.58-0.486,1.191-0.668,1.826c-0.373,3.5-1.217,6.872,1.313,9.4
			c-4.215-3.372-3.371-8.429-2.18-12.604c0.184-0.522,0.375-1.042,0.568-1.562c0.191-0.521,0.385-1.041,0.574-1.563
			c0.252-0.696,0.494-1.396,0.717-2.105C40.568,16.86,32.98,2.529,21.178,0c5.691,5.69,6.165,14.226,4.274,21.992
			c-0.208,0.863-0.443,1.718-0.665,2.593c-1.923,9.135-1.08,19.251,3.811,27.543c0.353,0.629,0.705,1.281,1.038,1.951
			c0.667,1.341,1.25,2.744,1.674,4.263c0.314,0.61,0.59,1.263,0.822,1.944c1.625,4.77,1.164,10.947-2.524,13.897
			c1.264-2.529,1.467-5.285,0.958-8.048c-0.17-0.921-0.419-1.842-0.732-2.744c-0.688-2.571-1.995-4.763-3.581-6.774
			c-0.529-0.671-1.089-1.322-1.667-1.96c-4.251-4.077-9.309-8.293-9.309-15.036c-2.529,1.686-3.372,5.9-1.767,8.563
			c0.223,0.844,0.49,1.689,0.775,2.53c1.998,5.884,4.784,11.457,1.834,15.883c-4.215,6.744-7.587-8.43-12.645-12.646
			c0.843,2.529,2.528,5.059,1.709,7.219c0.026,0.668,0.075,1.389,0.174,2.409c-0.068,0.722-0.184,1.433-0.337,2.144
			c-0.773,3.551-2.529,7.071-4.355,11.583c-0.176,0.874-0.315,1.758-0.422,2.647c-0.742,6.226,0.215,12.738,2.707,18.371
			c0.389,0.629,0.817,1.261,1.285,1.886c1.768,2.636,5.14,4.322,7.303,5.659c0.736,0.375,1.49,0.714,2.26,1.018
			c0.671,0.265,1.355,0.495,2.047,0.708c-2.274-1.923-4.157-3.806-5.034-4.863c-4.614-5.217,0.371-15.604,3.836-21.062
			c3.3-5.58,7.671-9.861,3.812-17.303c3.85,2.174,7.427,4.689,8.709,9.847c1.116,4.493-1.836,8.087-2.927,12.227
			c-2.597,12.959,11.403,10.459,13.403,4.292s5.752-6.742,7.834-7.667c-2.205,2.579-1.002,7.5-0.5,12
			c0.5,4.5-4.451,8.17-9.178,12.707c2.561-0.611,5.023-1.424,7.297-2.397c0.842-0.527,1.652-1.097,2.428-1.705
			C57.16,94.546,61.031,76.74,51.842,64.499z"/>
	</g>
</g>
</svg>
