<?xml version="1.0" encoding="utf-8"?>
<!-- Generator: Adobe Illustrator 16.0.0, SVG Export Plug-In . SVG Version: 6.00 Build 0)  -->
<!DOCTYPE svg PUBLIC "-//W3C//DTD SVG 1.1//EN" "http://www.w3.org/Graphics/SVG/1.1/DTD/svg11.dtd">
<svg version="1.1" id="Layer_1" xmlns="http://www.w3.org/2000/svg" xmlns:xlink="http://www.w3.org/1999/xlink" x="0px" y="0px"
	 width="60.099px" height="117.399px" viewBox="0 0 60.099 117.399" style="enable-background:new 0 0 60.099 117.399;"
	 xml:space="preserve">
<g>
	<g>
		<path style="fill:#000;" d="M49.976,52.104c-0.034-0.05-0.067-0.096-0.101-0.144c0.028-0.055,0.048-0.106,0.078-0.162
			c-0.051,0.02-0.096,0.045-0.146,0.065c-2.155-3.103-4.3-5.86-6.394-8.605c5.471-14.961,10.104-29.377,0.039-43.173
			c4.221,8.988-1.044,21.673-5.58,27.535c-0.877,1.134-1.797,2.268-2.741,3.404c-0.546-0.979-1.085-1.989-1.612-3.056
			C29.51,19.869,29.471,8.312,36.144,0c-4.919,1.733-8.233,4.052-12.008,7.379c-3.579,3.15-6.385,8.439-7.607,13.032
			c-1.074,4.134-1.228,8.323-0.922,12.608c0.307,3.981,1.224,7.907,0.307,12.652c-1.853,9.589-8.141,15.516-12.257,24.51
			c-3.827,8.354-5.223,19.203-1.367,27.85c8.112,18.207,23.868,19.227,24.572,19.367h0.522c9.341-1.225,17.005-5.434,23.287-12.631
			c5.969-6.736,8.953-14.537,9.414-23.569C60.391,70.788,55.948,60.523,49.976,52.104z M37.815,100.917
			c-1.643,5.324-6.229,10.754-11.808,12.867l-0.589,0.362c-2.834-4.172-4.695-8.899-5.195-11.112
			C17.111,89.25,21.289,75.182,33.108,64.46c-3.213,3.557-0.775,10.907,0.674,14.731C36.629,86.723,40.336,92.768,37.815,100.917z"
			/>
	</g>
</g>
</svg>
