<?xml version="1.0" encoding="utf-8"?>
<!-- Generator: Adobe Illustrator 16.0.0, SVG Export Plug-In . SVG Version: 6.00 Build 0)  -->
<!DOCTYPE svg PUBLIC "-//W3C//DTD SVG 1.1//EN" "http://www.w3.org/Graphics/SVG/1.1/DTD/svg11.dtd">
<svg version="1.1" id="Layer_1" xmlns="http://www.w3.org/2000/svg" xmlns:xlink="http://www.w3.org/1999/xlink" x="0px" y="0px"
	 width="96.73px" height="116.941px" viewBox="0 0 96.73 116.941" style="enable-background:new 0 0 96.73 116.941;"
	 xml:space="preserve">
<path style="fill:#000;" d="M78.137,34.285c5.625,14.995-2.229,39.154-7.25,41.121c5.125-21.25-10.08-40.81-15.125-46
	c1,24.75-10.375,33.875-13.916,34.124c3.211-12.176,1.452-27.517-2.71-39.374C36.765,17.398,29.512,6.78,21.467,0
	c0.896,7.269,2.604,14.471,2.321,21.83C23.442,30.8,17.49,38.721,13.27,46.295C6.363,58.686-0.389,72.443,0.018,86.968
	c0.633,22.544,24.888,35.906,45.143,27.377c-9.523-2.189-19.618-11.222-23.795-19.619c-4.721-11.1-4.159-21.979,5.502-29.246
	c-0.668,9.608,2.585,21.303,11.02,28.051c0.625-8.25,3.964-12.156,7.281-14.217c-0.323,4.209,0.026,8.615,2.146,12.256
	c2.489,4.278,14.074,11.836,20.199,0.086c7.125,9.25-7.625,17-13.871,21.328c2.051,0.942,5.518,0.157,7.646-0.028
	c5.822-0.509,11.492-1.956,16.889-4.183c9.139-3.771,14.162-9.467,16.43-18.934C100.762,64.156,93.012,39.165,78.137,34.285z"/>
</svg>
