<?xml version="1.0" encoding="utf-8"?>
<!-- Generator: Adobe Illustrator 16.0.0, SVG Export Plug-In . SVG Version: 6.00 Build 0)  -->
<!DOCTYPE svg PUBLIC "-//W3C//DTD SVG 1.1//EN" "http://www.w3.org/Graphics/SVG/1.1/DTD/svg11.dtd">
<svg version="1.1" id="Layer_1" xmlns="http://www.w3.org/2000/svg" xmlns:xlink="http://www.w3.org/1999/xlink" x="0px" y="0px"
	 width="86.529px" height="122.313px" viewBox="0 0 86.529 122.313" style="enable-background:new 0 0 86.529 122.313;"
	 xml:space="preserve">
<path style="fill:#000;" d="M73.299,76.741c0.921-4.194,0.813-8.332-0.298-12.76c-1.559-6.202-3.649-13.005-6.424-17.98
	c-1.476,6.393-10.374,16.41-17.204,21.37c2.306-5.776,5.229-14.811,6.062-22.645C56.606,33.712,44.769,4.56,33.102,0
	c3.75,18.56-15.071,65.604-18.833,63.977s-5.75-3.666-11.954-13.32c-4.106,12.326-2.805,42.923,4.354,53.862
	c6.612,8.897,9.684,15.041,30.6,17.795c-8.667-11.087-10.212-26.171-7.837-38.033c1.091-5.451,2.838-10.844,4.799-16.078
	c3.425,5.355,13.372,13.108,7.636,32.959c7.928-0.671,13.961-7.176,17.936-13.945c0.675,4.721,0.82,9.592-0.081,14.228
	c-1.404,7.216-11.396,19.495-10.667,19.768c12.296,4.609,24.377-7.311,29.803-17.13c6.02-10.889,9.76-35.823,6.419-37.589
	C84.019,71.061,76.987,73.619,73.299,76.741z"/>
</svg>
