<?xml version="1.0" encoding="utf-8"?>
<!-- Generator: Adobe Illustrator 16.0.0, SVG Export Plug-In . SVG Version: 6.00 Build 0)  -->
<!DOCTYPE svg PUBLIC "-//W3C//DTD SVG 1.1//EN" "http://www.w3.org/Graphics/SVG/1.1/DTD/svg11.dtd">
<svg version="1.1" id="Layer_1" xmlns="http://www.w3.org/2000/svg" xmlns:xlink="http://www.w3.org/1999/xlink" x="0px" y="0px"
	 width="86.446px" height="107.646px" viewBox="0 0 86.446 107.646" style="enable-background:new 0 0 86.446 107.646;"
	 xml:space="preserve">
<g>
	<g>
		<path style="fill:#000;" d="M85.29,62.448c-2.96-8.608-6.202-15.51-12.49-20.896
			c-9.699-8.305-13.112-9.135-19.354-17.869C44.981,11.842,51.832,4.256,56.064,0c-5.976,1.877-12.092,6.324-15.849,10.092
			c-6.547,6.564-7.715,13.861-3.144,21.138c4.217,7.276,3.029,10.407,2.614,19.155c-1.407-5.164-8.426-7.687-15.048-10.273
			c-5.584-2.183-13.818-2.701-19.899-1.526c5.977,0.704,11.118,4.207,12.73,7.033c3.254,5.703,1.008,11.708-4.232,18.167
			c-4.794,5.911-6.768,14.181,3.427,19.109C8.4,80.741,2.28,71.21,9.309,65.107C4.739,68.394,1.395,71.445,0.34,76.14
			c-3.109,14.539,15.423,33.961,42.257,31.251c-7.899-6.03-14.417-13.874-14.583-21.374s1.591-11.375,4.242-15.392
			c2.979-4.518,2.317-9.852-3.092-12.307c10.032,0.661,14.113,8.837,13.69,14.57c1.49-1.234,6.302-4.198,5.735-11.247
			c-0.666-8.301-6.324-21.15,2.387-27.171c-8.559,8.89,5.939,19.169,11.875,23.51c5.651,4.152,12.323,16.048,9.656,27.647
			c-1.215,5.283-7.245,13.975-15.262,20.174c9.445-3.328,18.669-9.033,23.399-16.245C86.233,81.038,87.789,69.718,85.29,62.448z"/>
	</g>
</g>
</svg>
