<?xml version="1.0" encoding="utf-8"?>
<!-- Generator: Adobe Illustrator 16.0.0, SVG Export Plug-In . SVG Version: 6.00 Build 0)  -->
<!DOCTYPE svg PUBLIC "-//W3C//DTD SVG 1.1//EN" "http://www.w3.org/Graphics/SVG/1.1/DTD/svg11.dtd">
<svg version="1.1" id="Layer_1" xmlns="http://www.w3.org/2000/svg" xmlns:xlink="http://www.w3.org/1999/xlink" x="0px" y="0px"
	 width="47.512px" height="118.472px" viewBox="0 0 47.512 118.472" style="enable-background:new 0 0 47.512 118.472;"
	 xml:space="preserve">
<path style="fill:#000;" d="M45.583,53.316C40.504,34.814,30.963,17.618,23.578,0c-1.228,9.675-0.694,22.304-3.1,32.339
	c-0.544,2.27-1.332,4.422-2.259,6.506C13.58,49.269,5.075,57.817,1.812,68.949c-3.003,10.242-2.508,21.186,3.263,30.277
	c2.898,4.564,7.04,8.292,11.186,11.688c3.075,2.516,7.947,4.879,12.613,7.559c0.727-9.297,0.953-14.629,2.539-20.172
	c3.012-8.177,10.422-11.15,13.635-19.174C48.492,70.53,47.997,62.115,45.583,53.316z"/>
</svg>
