<?xml version="1.0" encoding="utf-8"?>
<!-- Generator: Adobe Illustrator 16.0.0, SVG Export Plug-In . SVG Version: 6.00 Build 0)  -->
<!DOCTYPE svg PUBLIC "-//W3C//DTD SVG 1.1//EN" "http://www.w3.org/Graphics/SVG/1.1/DTD/svg11.dtd">
<svg version="1.1" id="Layer_1" xmlns="http://www.w3.org/2000/svg" xmlns:xlink="http://www.w3.org/1999/xlink" x="0px" y="0px"
	 width="92.523px" height="122.988px" viewBox="0 0 92.523 122.988" style="enable-background:new 0 0 92.523 122.988;"
	 xml:space="preserve">
<g>
	<path style="fill-rule:evenodd;clip-rule:evenodd;fill:#000;" d="M76.896,81.097c-2.972-3.277,0.289-13.764,8.036-23.627
		c0,0-9.14-2.664-18.961,13.34c-6.304-7.404-0.923-26.893,5.481-35.516c-4.328-0.035-10.877,3.028-16.852,9.108
		c-5.976,6.079-5.375-5.751-0.69-19.823c4.683-14.072-1.422-25.215-7.915-24.551c5.005,1.964,5.344,7.271-5.184,15.047
		c-10.529,7.775-13.068,26.238-10.32,37.906c0,0-7.413-0.43-6.954-10.542c-3.758,1.466-12.608,15.275,1.334,29.945
		c-7.611,2.389-17.951-9.605-19.008-21.119C-4.391,64.469,0.021,74.617,9.752,89.018c-3.555,1.389-5.795-0.467-9.063-3.354
		c-0.52,11.151,21.637,36.672,41.521,37.324c-19.853-13.079-20.98-21.053-20.272-25.393c0.837,3.855,7.803,5.106,9.148,4.221
		c-6.96-7.779-2.574-15.881-0.204-20.192c-1.846,6.618,2.484,10.296,6.481,13.597c3.996-4.636,4.436-15.01-0.13-25.343
		C47.871,73.723,51.506,88.667,49.935,93.9c-1.569,5.232-0.345,6.215,3.889,2.507c4.234-3.706,8.038-14.915,8.038-14.915
		s0.896,9.104-1.299,17.847c5.058-3.345,7.531-3.706,11.407-2.667c-4.422,3.871-5.069,11.019-8.526,14.072
		c0,0,2.648,1.651,8.65-2.108c0.766,5.088-12.178,14.303-12.178,14.303s2.066,0.853,11.406-4.487
		c12.406-6.381,15.26-37.337,21.201-39.519C86.704,73.355,81.006,80.751,76.896,81.097z"/>
</g>
</svg>
