<?xml version="1.0" encoding="utf-8"?>
<!-- Generator: Adobe Illustrator 16.0.0, SVG Export Plug-In . SVG Version: 6.00 Build 0)  -->
<!DOCTYPE svg PUBLIC "-//W3C//DTD SVG 1.1//EN" "http://www.w3.org/Graphics/SVG/1.1/DTD/svg11.dtd">
<svg version="1.1" id="Layer_1" xmlns="http://www.w3.org/2000/svg" xmlns:xlink="http://www.w3.org/1999/xlink" x="0px" y="0px"
	 width="89.026px" height="112.67px" viewBox="0 0 89.026 112.67" style="enable-background:new 0 0 89.026 112.67;"
	 xml:space="preserve">
<path style="fill:#000;" d="M79.966,38.894c-2.63,2.777-1.4,10.99-11.59,14.825c-7.315,2.753,4.406-22.084-6.337-38.848
	C57.332,7.524,46.957,1.882,39.036,0.002c-1.012-0.24,21.747,17.131,7.247,41.131c-3.901-14.775-21.333-20.917-27.102-22.15
	c3.524,11.044,21.652,28.774,12.466,40.343c-5.364-3.193-14.614-6.443-20.477-34.765c-0.447,1.009-0.869,2.029-1.281,3.054
	C5.174,39.375,2.781,52.153,1.11,64.632c-1.919,14.325-2.666,29.379,9.123,39.772c0.09,0.08,0.184,0.145,0.277,0.199
	c7.12,5.34,18.352,6.549,26.877,8.043c1.093,0.191,1.961-0.815,1.828-1.711c-0.002-0.017,0.001-0.033-0.002-0.05
	c-0.067-0.347-0.275-0.674-0.704-0.902c-9.299-4.957-21.352-16.475-15.219-30.994c3.958,6.117,10.862,13.946,18.271,13.606
	c0.711-0.032,1.563-0.643,1.457-1.457c-1.345-10.187-4.964-18.917,0.19-28.027c0.772,7.078,1.74,15.731,8.28,19.064
	c6.029,3.072,9.442-2.473,12.033-7.687c-0.305,5.603-1.117,11.231-3.411,16.318c-2.142,4.749-6.269,8.532-9.319,12.706
	c-0.375,0.513-0.225,1.159,0.133,1.621c0.113,0.145,0.245,0.273,0.39,0.372c13.248,9.081,31.235-5.523,35.643-18.351
	C92.647,70.603,85.364,54.46,79.966,38.894z"/>
</svg>
