<?xml version="1.0" encoding="utf-8"?>
<!-- Generator: Adobe Illustrator 16.0.0, SVG Export Plug-In . SVG Version: 6.00 Build 0)  -->
<!DOCTYPE svg PUBLIC "-//W3C//DTD SVG 1.1//EN" "http://www.w3.org/Graphics/SVG/1.1/DTD/svg11.dtd">
<svg version="1.1" id="Layer_1" xmlns="http://www.w3.org/2000/svg" xmlns:xlink="http://www.w3.org/1999/xlink" x="0px" y="0px"
	 width="203.473px" height="99.46px" viewBox="-38.125 -28.427 203.473 99.46"
	 style="enable-background:new -38.125 -28.427 203.473 99.46;" xml:space="preserve">
<g>
	<g>
		<g>
			<g>
				<g>
					<g>
						<g>
							<g>
								<g>
									<g>
										<path d="M69.066,14.91c-0.369,0.053-0.729,0.104-1.1,0.156c-1.967,0.29-4.002,0.59-6.097,0.898
											c-2.079,0.383-4.218,0.778-6.412,1.184c-2.192,0.415-4.441,0.826-6.733,1.292c-2.284,0.519-4.616,1.048-6.991,1.587
											c-4.768,1.005-9.607,2.475-14.583,3.89c-0.621,0.18-1.24,0.359-1.858,0.538c-0.608,0.207-1.217,0.413-1.822,0.618
											c-1.208,0.418-2.408,0.833-3.602,1.246c-2.375,0.85-4.742,1.607-7.009,2.52c-2.254,0.944-4.468,1.872-6.637,2.78
											c-1.081,0.459-2.151,0.913-3.209,1.362c-1.046,0.474-2.054,1.006-3.063,1.499c-4.004,2.037-7.88,3.814-11.266,5.943
											c-1.715,1.017-3.371,1.997-4.962,2.942c-0.791,0.479-1.579,0.924-2.322,1.405c-0.73,0.504-1.445,0.995-2.144,1.476
											c-2.774,1.933-5.284,3.679-7.489,5.214c-2.116,1.655-3.902,3.126-5.37,4.311c-2.912,2.388-4.523,3.709-4.523,3.709
											s1.768-1.104,4.963-3.102c1.585-1.003,3.523-2.23,5.775-3.655c2.321-1.302,4.963-2.784,7.884-4.422
											C-7.76,41.903,9.048,34.288,28.55,28.506c4.891-1.389,9.618-2.906,14.294-4.024c2.323-0.609,4.606-1.207,6.842-1.794
											c2.254-0.539,4.46-1.065,6.613-1.58c2.152-0.523,4.252-1.034,6.291-1.53c2.046-0.439,4.033-0.869,5.955-1.282
											L69.066,14.91z"/>
									</g>
								</g>
							</g>
						</g>
					</g>
				</g>
			</g>
		</g>
		<g>
			<g>
				<g>
					<g>
						<g>
							<g>
								<g>
									<g>
										<path d="M69.066,26.463c-0.369,0.053-0.729,0.104-1.1,0.156c-1.967,0.29-4.002,0.59-6.097,0.898
											c-2.079,0.383-4.218,0.778-6.412,1.184c-2.192,0.415-4.441,0.826-6.733,1.292c-2.284,0.519-4.616,1.048-6.991,1.587
											c-4.768,1.005-9.607,2.475-14.583,3.89c-0.621,0.18-1.24,0.359-1.858,0.538c-0.608,0.207-1.217,0.413-1.822,0.618
											c-1.208,0.418-2.408,0.833-3.602,1.246c-2.375,0.85-4.742,1.607-7.009,2.52c-2.254,0.944-4.468,1.872-6.637,2.78
											c-1.081,0.459-2.151,0.913-3.209,1.362c-1.046,0.474-2.054,1.006-3.063,1.499c-4.004,2.037-7.88,3.814-11.266,5.943
											c-1.715,1.017-3.371,1.997-4.962,2.942c-0.791,0.479-1.579,0.924-2.322,1.405c-0.73,0.504-1.445,0.995-2.144,1.476
											c-2.774,1.933-5.284,3.679-7.489,5.214c-2.116,1.655-3.902,3.126-5.37,4.311c-2.912,2.388-4.523,3.708-4.523,3.708
											s1.768-1.104,4.963-3.101c1.585-1.003,3.523-2.23,5.775-3.655c2.321-1.302,4.963-2.784,7.884-4.422
											C-7.76,53.457,9.048,45.841,28.55,40.06c4.891-1.389,9.618-2.906,14.294-4.024c2.323-0.609,4.606-1.207,6.842-1.794
											c2.254-0.539,4.46-1.065,6.613-1.58c2.152-0.523,4.252-1.034,6.291-1.53c2.046-0.439,4.033-0.869,5.955-1.282
											L69.066,26.463z"/>
									</g>
								</g>
							</g>
						</g>
					</g>
				</g>
			</g>
		</g>
		<g>
			<g>
				<g>
					<g>
						<g>
							<g>
								<g>
									<g>
										<path d="M67.479,35.631c-0.178,0.056-0.352,0.11-0.531,0.167c-7.458,2.411-15.459,5.252-23.936,8.289
											c-8.474,3.043-16.523,5.989-23.703,9.114c-7.195,3.052-13.681,5.806-19.011,8.32c-10.708,4.957-17.25,8.236-17.25,8.236
											s6.983-2.163,18.145-6.01c5.57-1.964,12.229-4.14,19.549-6.76c7.287-2.683,15.43-5.345,23.884-8.382
											c7.69-2.755,15.032-5.628,21.735-8.236L67.479,35.631z"/>
									</g>
								</g>
							</g>
						</g>
					</g>
				</g>
			</g>
		</g>
	</g>
	<g>
		<g>
			<g>
				<g>
					<g>
						<g>
							<g>
								<g>
									<polygon points="106.344,47.499 72.441,55.249 86.912,23.625 69.066,-6.223 103.613,-2.232 126.486,-28.427 133.365,5.662 
										165.348,19.32 135.053,36.397 131.945,71.033 									"/>
								</g>
							</g>
						</g>
					</g>
				</g>
			</g>
		</g>
		<g>
			<g>
				<g>
					<g>
						<g>
							<g>
								<g>
									<polygon style="fill:#FFFFFF;" points="127.871,60.497 107.791,42.039 81.203,48.117 92.553,23.315 78.557,-0.093 
										105.65,3.038 123.588,-17.507 128.984,9.227 154.066,19.939 130.307,33.332 									"/>
								</g>
							</g>
						</g>
					</g>
				</g>
			</g>
		</g>
	</g>
</g>
</svg>
