<?xml version="1.0" encoding="utf-8"?>
<!-- Generator: Adobe Illustrator 16.0.0, SVG Export Plug-In . SVG Version: 6.00 Build 0)  -->
<!DOCTYPE svg PUBLIC "-//W3C//DTD SVG 1.1//EN" "http://www.w3.org/Graphics/SVG/1.1/DTD/svg11.dtd">
<svg version="1.1" id="Layer_1" xmlns="http://www.w3.org/2000/svg" xmlns:xlink="http://www.w3.org/1999/xlink" x="0px" y="0px"
	 width="118.471px" height="155.783px" viewBox="0 0 118.471 155.783" enable-background="new 0 0 118.471 155.783"
	 xml:space="preserve">
<g>
	<path fill="#658098" d="M58.944,0C47.848,0,38.851,8.995,38.851,20.094s8.997,20.094,20.094,20.094
		c11.098,0,20.094-8.995,20.094-20.094S70.042,0,58.944,0z M58.944,32.264c-6.71,0-12.169-5.459-12.169-12.17
		s5.459-12.17,12.169-12.17c6.711,0,12.17,5.459,12.17,12.17S65.655,32.264,58.944,32.264z"/>
	<g>
		<rect x="27.532" y="53.349" fill="#658098" width="70.186" height="9.338"/>
		<circle fill="#658098" cx="24.135" cy="58.018" r="10.188"/>
		<circle fill="#658098" cx="97.718" cy="58.018" r="10.188"/>
	</g>
	<path fill="#658098" d="M118.471,110.944l-27.167,6.793l12.251,0.383c-4.437,3.834-9.016,7.523-13.925,10.736
		c-5.059,3.313-13.611,5.889-18.557,0.846c-5.949-6.066-7.298-77.307-7.508-93.167c-0.002-0.191-0.051-3.823-0.051-3.823
		c-0.002,0-2.064,0.027-4.278,0.057c-2.214-0.029-4.278-0.057-4.278-0.057s-0.049,3.632-0.051,3.823
		c-0.212,15.859-1.558,87.1-7.51,93.167c-4.945,5.043-13.496,2.467-18.557-0.846c-4.908-3.213-9.488-6.902-13.924-10.736
		l12.253-0.383L0,110.944l12.454,24.621c0,0-2.535-12.887-2.537-12.891c0.765,3.891,6.525,9.195,9.151,12.025
		c3.737,4.023,7.913,7.648,12.464,10.727c9.328,6.311,20.606,12.117,32.033,9.859c18.996-3.748,34.907-16.332,44.991-32.611
		l-2.537,12.891L118.471,110.944z"/>
</g>
</svg>
