<?xml version="1.0" encoding="utf-8"?>
<!-- Generator: Adobe Illustrator 16.0.0, SVG Export Plug-In . SVG Version: 6.00 Build 0)  -->
<!DOCTYPE svg PUBLIC "-//W3C//DTD SVG 1.1//EN" "http://www.w3.org/Graphics/SVG/1.1/DTD/svg11.dtd">
<svg version="1.1" id="Layer_1" xmlns="http://www.w3.org/2000/svg" xmlns:xlink="http://www.w3.org/1999/xlink" x="0px" y="0px"
	 width="70.01px" height="70.01px" viewBox="0 0 70.01 70.01" style="enable-background:new 0 0 70.01 70.01;" xml:space="preserve"
	>
<g>
	<g>
		<path style="fill:#FDBB17;" d="M35.005,0C15.673,0,0,15.672,0,35.005c0,3.448,0.52,6.772,1.449,9.919
			c0.972-1.613,2.028-3.739,2.908-5.521c3.692-7.477,8.747-17.718,18.735-23.708c11.633-6.979,27.244-1.48,33.979,7.813
			c5.981,8.253,4.467,17.586-4.049,24.967C41.942,58.077,36.656,64.03,35.021,70.01C54.346,70.001,70.01,54.332,70.01,35.005
			C70.01,15.672,54.338,0,35.005,0z"/>
		<path style="fill:#FDBB17;" d="M49.806,44.766c8.876-7.692,5.871-14.813,3.289-18.376c-5.475-7.554-18.393-11.936-27.478-6.483
			c-8.749,5.247-13.436,14.74-16.857,21.672c-1.866,3.781-3.391,6.824-5.22,8.69C8.516,60.504,18.312,67.93,29.992,69.609
			C31.71,61.848,37.988,55.007,49.806,44.766z"/>
	</g>
</g>
</svg>
