<?xml version="1.0" encoding="utf-8"?>
<!-- Generator: Adobe Illustrator 16.0.0, SVG Export Plug-In . SVG Version: 6.00 Build 0)  -->
<!DOCTYPE svg PUBLIC "-//W3C//DTD SVG 1.1//EN" "http://www.w3.org/Graphics/SVG/1.1/DTD/svg11.dtd">
<svg version="1.1" id="Layer_1" xmlns="http://www.w3.org/2000/svg" xmlns:xlink="http://www.w3.org/1999/xlink" x="0px" y="0px"
	 width="89.608px" height="133.813px" viewBox="19.845 267.992 89.608 133.813"
	 style="enable-background:new 19.845 267.992 89.608 133.813;" xml:space="preserve">
<g>
	<path style="fill-rule:evenodd;clip-rule:evenodd;fill:#CED8D8;" d="M104.418,287.344c-4.916-8.879-19.752-20.891-30.908-19.189
		c-0.945-0.068-1.885-0.042-2.811,0.099c-1.418-0.245-2.83-0.21-4.193,0.22c-0.031,0.009-0.059,0.024-0.088,0.033
		c-0.961-0.253-1.961-0.215-2.934,0.105c-0.049-0.012-0.098-0.033-0.146-0.044c-1.328-0.296-2.683-0.284-4.034-0.045
		c-1.228-0.206-2.433-0.239-3.614-0.153c-0.057-0.006-0.118-0.012-0.171-0.018c-11.624-1.234-25.242,10.197-30.189,19.628
		c-5.647,10.756-6.114,24.708-1.651,38.001c3.977,11.844,10.586,22.264,17.49,30.341h-0.069l15.479,19.593h0.467v4.081h0.998
		l1.384,12.364h-0.514c-0.042,0.436-0.065,0.883-0.065,1.34c0,3.485,1.292,6.521,3.197,8.106h6.04
		c1.906-1.585,3.197-4.621,3.197-8.106c0-0.457-0.021-0.904-0.064-1.34h-0.514l1.381-12.364h1.002v-4.081h0.465l15.479-19.593
		h-0.068c6.906-8.077,13.512-18.497,17.49-30.341C111.01,312.402,110.412,298.178,104.418,287.344z M59.941,392.359l-1.384-12.364
		h6.251v12.364H59.941z M70.189,392.359H65.32v-12.364h6.25L70.189,392.359z"/>
	<g>
		<path style="fill-rule:evenodd;clip-rule:evenodd;fill:#FFCE85;stroke:#C7B299;stroke-miterlimit:10;" d="M57.544,391.555
			l-1.422-12.834h0.499l1.423,12.834H57.544L57.544,391.555z M63.279,391.555v-12.834h-0.5v12.834H63.279L63.279,391.555z
			 M68.512,391.555l1.424-12.834h-0.5l-1.422,12.834H68.512z"/>
		<path style="fill-rule:evenodd;clip-rule:evenodd;fill:#D64752;" d="M101.309,288.424c5.832,10.641,6.414,24.61,1.979,37.943
			c-9.096,27.342-32.311,47.012-40.258,47.012c-7.947,0-31.162-19.67-40.258-47.012c-4.343-13.054-3.887-26.756,1.604-37.318
			c4.813-9.261,18.062-20.488,29.365-19.275c2.682,0.287,6.326,0.381,9.187,1.352c2.346-1.037,5.692-1.08,7.958-1.494
			C81.775,267.639,96.477,279.607,101.309,288.424z"/>
		<path style="fill-rule:evenodd;clip-rule:evenodd;fill:#998675;" d="M69.012,391.555c0.043,0.43,0.064,0.869,0.064,1.317
			c0,3.423-1.256,6.405-3.109,7.96h-5.875c-1.854-1.555-3.109-4.537-3.109-7.96c0-0.448,0.021-0.888,0.063-1.317H69.012z"/>
		<path style="fill-rule:evenodd;clip-rule:evenodd;fill:#ED8E98;" d="M87.74,278.419c11.172,10.64,14.121,29.659,9.023,47.948
			c-7.621,27.342-27.074,47.012-33.735,47.012c-6.66,0-26.112-19.67-33.734-47.012c-5.03-18.047-2.265-36.938,8.559-47.604
			c5.15-5.076,11.953-10.133,19.609-8.817c1.663,0.286,3.943,0.317,5.614,0.933c1.505-0.856,3.509-0.891,5.24-1.184
			C75.41,268.494,83.365,274.251,87.74,278.419z"/>
		<path style="fill-rule:evenodd;clip-rule:evenodd;fill:#D64752;" d="M82.266,280.781c6.467,10.897,7.922,28.711,4.6,45.586
			c-5.387,27.342-19.131,47.012-23.836,47.012c-4.705,0-18.451-19.67-23.836-47.012c-3.361-17.068-1.83-35.057,4.828-45.921
			c3.775-6.161,10.89-11.907,17.33-10.461c0.531,0.12,1.066,0.337,1.613,0.618c0.456-0.316,0.948-0.549,1.465-0.713
			C71.027,267.792,78.797,274.938,82.266,280.781z"/>
		<path style="fill-rule:evenodd;clip-rule:evenodd;fill:#ED8E98;" d="M67.604,272.226c5.795,7.528,7.684,31.351,5.74,54.142
			c-2.33,27.342-8.277,47.012-10.315,47.012c-2.037,0-7.984-19.67-10.315-47.012c-1.944-22.811-0.089-47.059,5.754-54.16
			C61.199,268.886,65.115,268.992,67.604,272.226z"/>
		<polygon style="fill-rule:evenodd;clip-rule:evenodd;fill:#EFC12E;" points="86.342,356.164 71.285,375.405 54.773,375.405 
			39.716,356.164 		"/>
		<rect x="55.226" y="375.405" style="fill-rule:evenodd;clip-rule:evenodd;fill:#998675;" width="15.606" height="4.009"/>
	</g>
</g>
</svg>
