<?xml version="1.0" encoding="utf-8"?>
<!-- Generator: Adobe Illustrator 16.0.0, SVG Export Plug-In . SVG Version: 6.00 Build 0)  -->
<!DOCTYPE svg PUBLIC "-//W3C//DTD SVG 1.1//EN" "http://www.w3.org/Graphics/SVG/1.1/DTD/svg11.dtd">
<svg version="1.1" id="Layer_1" xmlns="http://www.w3.org/2000/svg" xmlns:xlink="http://www.w3.org/1999/xlink" x="0px" y="0px"
	 width="153.743px" height="174.183px" viewBox="0 0 153.743 174.183" enable-background="new 0 0 153.743 174.183"
	 xml:space="preserve">
<g>
	<path fill-rule="evenodd" clip-rule="evenodd" fill="#696978" d="M0,2.549v3.17c0,0.348,0.281,0.629,0.623,0.629h109.946
		c0.344,0,0.625-0.281,0.625-0.629v-3.17c0-0.348-0.281-0.625-0.625-0.625H0.623C0.281,1.924,0,2.201,0,2.549L0,2.549z"/>
	<path fill-rule="evenodd" clip-rule="evenodd" fill="#8CADCF" d="M11.067,145.422l-0.108-29.652l10.318,1.215
		c0.004,0.973,0.776,1.768,1.725,1.768h96.401l0.098,26.67c0.02,6.688-5.249,12.121-11.772,12.121H22.931
		C16.412,157.543,11.092,152.11,11.067,145.422L11.067,145.422z"/>
	<path fill-rule="evenodd" clip-rule="evenodd" fill="#FFFFFF" d="M103.087,174.036c-1.516-0.277-2.864-0.949-3.772-2.051
		c-1.682-2.035-1.443-4.918,0.698-7.545c0.058-0.066,0.126-0.139,0.193-0.205c2.914-2.76,4.052-5.246,4.204-7.492
		c0.158-2.273-0.68-4.629-2.381-7.158c-0.274-0.406-0.387-0.863-0.342-1.307c2.229-0.518,4.983,0.605,6.444,2.865
		c0.76,1.873,1.146,3.828,1.009,5.871c-0.223,3.283-1.805,6.473-4.883,9.596l-0.494,0.48l-0.274,0.375
		c-0.657,0.992-0.596,1.674-0.386,1.918c0.179,0.229,1.111,0.848,3.771,0.199c1.26-0.305,2.558,0.381,2.9,1.531
		c0.332,1.156-0.412,2.334-1.677,2.645C106.285,174.202,104.584,174.305,103.087,174.036L103.087,174.036z"/>
	<path fill-rule="evenodd" clip-rule="evenodd" fill="#FFFFFF" d="M98.487,155.598c-0.793-4.389,0.808-6.646,2.989-7.268
		l2.564,0.125c5.769,10.867,1.895,15.484-4.811,17.146C100.572,161.786,99.925,158.725,98.487,155.598L98.487,155.598z"/>
	<polygon fill-rule="evenodd" clip-rule="evenodd" fill="#CFE0F5" points="108.234,17.457 108.234,86.756 150.881,86.756 
		150.881,17.457 108.234,17.457 	"/>
	<path fill-rule="evenodd" clip-rule="evenodd" fill="#FFFFFF" d="M105.539,89.34V13.961h48.204V89.34H105.539L105.539,89.34z
		 M148.353,84.17V19.125h-37.418V84.17H148.353L148.353,84.17z"/>
	<polygon fill-rule="evenodd" clip-rule="evenodd" fill="#FFFFFF" points="108.234,55.49 108.234,50.32 150.887,50.32 
		150.887,55.49 108.234,55.49 	"/>
	<polygon fill-rule="evenodd" clip-rule="evenodd" fill="#FFFFFF" points="127.153,86.758 127.153,17.457 132.541,17.457 
		132.541,86.758 127.153,86.758 	"/>
	<path fill-rule="evenodd" clip-rule="evenodd" fill="#FFFFFF" d="M7.998,117.551l0.02,5.354c0.004,1.09,0.893,1.973,1.979,1.973
		h112.179c1.087,0,1.969-0.883,1.966-1.973l-0.021-5.354c-0.004-1.086-0.891-1.973-1.979-1.973H9.959
		C8.871,115.579,7.994,116.465,7.998,117.551L7.998,117.551z"/>
	<path fill-rule="evenodd" clip-rule="evenodd" fill="#FFFFFF" d="M24.725,174.03c1.518-0.271,2.859-0.943,3.773-2.045
		c1.678-2.035,1.437-4.918-0.707-7.545c-0.059-0.066-0.123-0.139-0.191-0.205c-2.91-2.768-4.049-5.246-4.204-7.492
		c-0.151-2.273,0.677-4.629,2.382-7.158c0.277-0.406,0.387-0.863,0.346-1.314c-2.232-0.51-4.984,0.605-6.441,2.869
		c-0.76,1.877-1.152,3.832-1.014,5.871c0.225,3.279,1.806,6.477,4.883,9.6l0.488,0.477l0.281,0.379
		c0.657,0.992,0.596,1.674,0.389,1.918c-0.185,0.229-1.116,0.848-3.773,0.199c-1.264-0.309-2.559,0.381-2.9,1.531
		c-0.34,1.148,0.416,2.334,1.678,2.645C21.527,174.198,23.225,174.305,24.725,174.03L24.725,174.03z"/>
	<path fill-rule="evenodd" clip-rule="evenodd" fill="#FFFFFF" d="M29.322,155.598c0.793-4.389-0.807-6.646-2.993-7.268
		l-2.562,0.125c-5.768,10.867-1.895,15.479,4.813,17.139C27.241,161.78,27.885,158.725,29.322,155.598L29.322,155.598z"/>
	<path fill-rule="evenodd" clip-rule="evenodd" fill="#FFFFFF" d="M18.539,7.783v4.074c0,2.826,0.831,5.119,1.85,5.119l0,0
		c1.021,0,1.848-2.293,1.848-5.119V7.783c0-2.822-0.826-5.115-1.848-5.115l0,0C19.37,2.668,18.539,4.961,18.539,7.783L18.539,7.783z
		"/>
	<path fill-rule="evenodd" clip-rule="evenodd" fill="#FFFFFF" d="M28.531,7.787v4.074c0,2.826,0.831,5.119,1.852,5.119l0,0
		c1.02,0,1.847-2.293,1.847-5.119V7.787c0-2.822-0.827-5.117-1.847-5.117l0,0C29.362,2.67,28.531,4.965,28.531,7.787L28.531,7.787z"
		/>
	<path fill-rule="evenodd" clip-rule="evenodd" fill="#FFFFFF" d="M38.444,7.783v4.074c0,2.826,0.831,5.119,1.851,5.119l0,0
		c1.021,0,1.846-2.293,1.846-5.119V7.783c0-2.822-0.825-5.115-1.846-5.115l0,0C39.275,2.668,38.444,4.961,38.444,7.783L38.444,7.783
		z"/>
	<path fill-rule="evenodd" clip-rule="evenodd" fill="#FFFFFF" d="M48.922,7.783v4.074c0,2.826,0.83,5.119,1.852,5.119l0,0
		c1.019,0,1.85-2.293,1.85-5.119V7.783c0-2.822-0.831-5.115-1.85-5.115l0,0C49.752,2.668,48.922,4.961,48.922,7.783L48.922,7.783z"
		/>
	<path fill-rule="evenodd" clip-rule="evenodd" fill="#FFFFFF" d="M58.864,7.783v4.074c0,2.826,0.831,5.119,1.85,5.119l0,0
		c1.021,0,1.849-2.293,1.849-5.119V7.783c0-2.822-0.828-5.115-1.849-5.115l0,0C59.695,2.668,58.864,4.961,58.864,7.783L58.864,7.783
		z"/>
	<path fill-rule="evenodd" clip-rule="evenodd" fill="#FFFFFF" d="M69.343,7.783v4.074c0,2.826,0.829,5.119,1.85,5.119l0,0
		c1.02,0,1.847-2.293,1.847-5.119V7.783c0-2.822-0.827-5.115-1.847-5.115l0,0C70.172,2.668,69.343,4.961,69.343,7.783L69.343,7.783z
		"/>
	<path fill-rule="evenodd" clip-rule="evenodd" fill="#696978" d="M110.68,0c2.287,0,4.145,1.857,4.145,4.143
		c0,2.287-1.857,4.145-4.145,4.145c-2.286,0-4.145-1.857-4.145-4.145C106.535,1.857,108.394,0,110.68,0L110.68,0z"/>
	<path fill-rule="evenodd" clip-rule="evenodd" fill="#DEE359" d="M15.529,136.674c-0.117-0.168-0.246-0.326-0.385-0.469V12.652
		h62.574v123.116c-0.343,0.248-0.657,0.551-0.938,0.906c-1.813,2.285-5.192,2.301-6.815,0c-1.615-2.295-4.99-2.303-6.804,0
		c-1.807,2.285-5.174,2.301-6.798,0c-1.615-2.295-4.984-2.303-6.805,0c-1.805,2.285-5.19,2.301-6.814,0
		c-1.615-2.295-4.984-2.303-6.801,0c-1.813,2.285-5.182,2.301-6.795,0c-1.616-2.295-5.012-2.303-6.823,0
		C20.516,138.959,17.146,138.975,15.529,136.674L15.529,136.674z"/>
	<path fill-rule="evenodd" clip-rule="evenodd" fill="#C7CC45" d="M23.157,134.846V34.164c0-4.576,1.132-8.293,2.528-8.293l0,0
		c1.394,0,2.525,3.717,2.525,8.293v100.682c0,0.311-0.004,0.625-0.014,0.936c-1.465-1.023-3.508-0.986-5.018,0.123
		C23.164,135.557,23.157,135.204,23.157,134.846L23.157,134.846z"/>
	<path fill-rule="evenodd" clip-rule="evenodd" fill="#C7CC45" d="M42.223,136.129c-1.346-1.258-3.396-1.426-5.01-0.496
		c-0.01-0.258-0.01-0.523-0.01-0.787V45.783c0-4.572,1.129-8.285,2.521-8.285h0.008c1.393,0,2.521,3.713,2.521,8.285v89.063
		C42.254,135.282,42.24,135.709,42.223,136.129L42.223,136.129z"/>
	<path fill-rule="evenodd" clip-rule="evenodd" fill="#C7CC45" d="M50.195,134.846V31.385c0-4.58,1.132-8.297,2.525-8.297l0,0
		c1.396,0,2.531,3.717,2.531,8.297v103.461c0,0.273-0.006,0.549-0.01,0.82c-1.512-0.947-3.547-0.82-5.016,0.383
		C50.207,135.657,50.195,135.256,50.195,134.846L50.195,134.846z"/>
	<path fill-rule="evenodd" clip-rule="evenodd" fill="#C7CC45" d="M69.271,135.981c-1.393-1.162-3.437-1.248-5.016-0.246
		c-0.011-0.291-0.011-0.588-0.011-0.889V40.475c0-4.576,1.128-8.285,2.524-8.285l0,0c1.394,0,2.528,3.709,2.528,8.285v94.372
		C69.298,135.233,69.288,135.606,69.271,135.981L69.271,135.981z"/>
</g>
</svg>
