<?xml version="1.0" encoding="utf-8"?>
<!-- Generator: Adobe Illustrator 16.0.0, SVG Export Plug-In . SVG Version: 6.00 Build 0)  -->
<!DOCTYPE svg PUBLIC "-//W3C//DTD SVG 1.1//EN" "http://www.w3.org/Graphics/SVG/1.1/DTD/svg11.dtd">
<svg version="1.1" id="Layer_1" xmlns="http://www.w3.org/2000/svg" xmlns:xlink="http://www.w3.org/1999/xlink" x="0px" y="0px"
	 width="99.938px" height="147.241px" viewBox="0 0 99.938 147.241" style="enable-background:new 0 0 99.938 147.241;"
	 xml:space="preserve">
<g>
	<g>
		<g>
			<path style="fill:none;" d="M79.472,111.904c-0.305,0.063-0.623,0.12-0.949,0.174C78.849,112.024,79.167,111.968,79.472,111.904z
				"/>
		</g>
	</g>
	<g>
		<g>
			<path style="fill:none;" d="M80.833,111.575c-0.309,0.086-0.633,0.165-0.965,0.243C80.2,111.74,80.524,111.661,80.833,111.575z"
				/>
		</g>
	</g>
	<g>
		<g>
			<path style="fill:none;" d="M82.108,111.165c-0.322,0.119-0.666,0.229-1.02,0.335C81.444,111.395,81.784,111.284,82.108,111.165z
				"/>
		</g>
	</g>
	<g>
		<g>
			<path style="fill:none;" d="M65.712,103.896c0.178-0.034,0.355-0.07,0.533-0.104C66.067,103.826,65.89,103.862,65.712,103.896z"
				/>
		</g>
	</g>
	<g>
		<g>
			<path style="fill:none;" d="M72.884,112.388c-0.637-0.026-1.297-0.069-1.984-0.135C71.587,112.318,72.247,112.361,72.884,112.388
				z"/>
		</g>
	</g>
	<g>
		<g>
			<path style="fill:none;" d="M76.431,112.329c-0.34,0.025-0.693,0.041-1.047,0.055C75.737,112.37,76.091,112.354,76.431,112.329z"
				/>
		</g>
	</g>
	<g>
		<g>
			<path style="fill:none;" d="M78.007,112.158c-0.313,0.043-0.641,0.079-0.973,0.113C77.366,112.237,77.694,112.201,78.007,112.158
				z"/>
		</g>
	</g>
	<g>
		<g>
			<path style="fill:none;" d="M74.722,112.41c-0.389,0.004-0.801-0.004-1.217-0.013C73.921,112.406,74.331,112.414,74.722,112.41z"
				/>
		</g>
	</g>
	<g>
		<g>
			<path style="fill:none;" d="M65.358,127.442c0.086-0.002,0.174-0.002,0.256-0.005C65.532,127.44,65.444,127.44,65.358,127.442z"
				/>
		</g>
	</g>
	<g>
		<g>
			<path style="fill:none;" d="M63.431,127.482c-0.754,0.003-1.523-0.008-2.311-0.033C61.907,127.475,62.677,127.485,63.431,127.482
				z"/>
		</g>
	</g>
	<g>
		<g>
			<path style="fill:#C6CCD6;" d="M65.614,127.438c1.422-0.056,2.766-0.161,4.049-0.313h0.006
				C68.384,127.273,67.034,127.38,65.614,127.438z"/>
		</g>
	</g>
	<g>
		<g>
			<path style="fill:#C6CCD6;" d="M65.358,127.442c-0.631,0.023-1.27,0.038-1.928,0.04C64.089,127.48,64.728,127.463,65.358,127.442
				z"/>
		</g>
	</g>
	<g>
		<g>
			<path style="fill:#C6CCD6;" d="M81.089,111.5c-0.086,0.025-0.174,0.049-0.256,0.075C80.915,111.549,81.003,111.525,81.089,111.5z
				"/>
		</g>
	</g>
	<g>
		<g>
			<path style="fill:#C6CCD6;" d="M79.868,111.818c-0.129,0.028-0.262,0.058-0.396,0.086
				C79.606,111.876,79.739,111.847,79.868,111.818z"/>
		</g>
	</g>
	<g>
		<g>
			<path style="fill:#C6CCD6;" d="M75.384,112.384c-0.221,0.008-0.436,0.022-0.662,0.026
				C74.948,112.406,75.163,112.392,75.384,112.384z"/>
		</g>
	</g>
	<g>
		<g>
			<path style="fill:#C6CCD6;" d="M77.034,112.271c-0.201,0.02-0.398,0.041-0.604,0.058
				C76.636,112.313,76.833,112.292,77.034,112.271z"/>
		</g>
	</g>
	<g>
		<g>
			<path style="fill:#C6CCD6;" d="M62.952,104.396c0.934-0.148,1.85-0.319,2.76-0.5C64.804,104.077,63.886,104.248,62.952,104.396z"
				/>
		</g>
	</g>
	<g>
		<g>
			<path style="fill:#C6CCD6;" d="M82.185,111.139c-0.027,0.009-0.051,0.017-0.076,0.026
				C82.134,111.155,82.157,111.147,82.185,111.139z"/>
		</g>
	</g>
	<g>
		<g>
			<path style="fill:#C6CCD6;" d="M73.505,112.397c-0.207-0.003-0.408-0.002-0.621-0.01
				C73.097,112.396,73.298,112.395,73.505,112.397z"/>
		</g>
	</g>
	<g>
		<g>
			<path style="fill:#C6CCD6;" d="M66.245,103.792c6.93-1.425,13.162-3.717,18.32-6.658c0-0.005,0-0.009-0.002-0.017
				C79.405,100.063,73.175,102.364,66.245,103.792z"/>
		</g>
	</g>
	<g>
		<g>
			<path style="fill:#C6CCD6;" d="M78.522,112.078c-0.17,0.028-0.34,0.055-0.516,0.08C78.183,112.133,78.353,112.106,78.522,112.078
				z"/>
		</g>
	</g>
	<g>
		<g>
			<path style="fill:#918BC1;" d="M26.665,102.109c-0.096-0.029-0.191-0.059-0.289-0.089
				C26.474,102.051,26.569,102.08,26.665,102.109z"/>
		</g>
	</g>
	<g>
		<g>
			<path style="fill:#918BC1;" d="M32.079,103.538c-0.186-0.042-0.371-0.084-0.559-0.128
				C31.708,103.454,31.894,103.495,32.079,103.538z"/>
		</g>
	</g>
	<g>
		<g>
			<path style="fill:#918BC1;" d="M14.958,97.137c3.381,1.928,7.221,3.575,11.418,4.884c-4.193-1.309-8.037-2.961-11.418-4.891
				C14.958,97.134,14.958,97.135,14.958,97.137z"/>
		</g>
	</g>
	<g>
		<g>
			<path style="fill:#918BC1;" d="M31.521,103.41c-1.664-0.384-3.285-0.817-4.855-1.301
				C28.237,102.593,29.856,103.028,31.521,103.41z"/>
		</g>
	</g>
	<g>
		<g>
			<path style="fill:#918BC1;" d="M34.56,104.05c-0.84-0.156-1.662-0.332-2.48-0.512C32.897,103.718,33.72,103.894,34.56,104.05z"/>
		</g>
	</g>
	<g>
		<g>
			<g>
				<g>
					<rect x="29.585" y="123.388" style="fill:#695A42;" width="16.918" height="18.32"/>
				</g>
			</g>
			<g>
				<g>
					<rect x="54.554" y="123.388" style="fill:#877B58;" width="16.92" height="18.32"/>
				</g>
			</g>
			<g>
				<g>
					<path style="fill:#695A42;" d="M38.042,135.313c-6.582,0-11.924,5.341-11.924,11.929h23.85
						C49.968,140.653,44.632,135.313,38.042,135.313z"/>
				</g>
			</g>
			<g>
				<g>
					<path style="fill:#877B58;" d="M63.011,135.313c-6.582,0-11.922,5.341-11.922,11.929H74.94
						C74.94,140.653,69.599,135.313,63.011,135.313z"/>
				</g>
			</g>
		</g>
		<g>
			<g>
				<g>
					<path style="fill:#695A42;" d="M15.581,95.008c-1.146,3.243-1.783,6.698-1.783,10.3c0,18.381,16.193,33.28,36.17,33.28v-27.842
						C35.438,110.746,22.735,104.442,15.581,95.008z"/>
				</g>
			</g>
			<g>
				<g>
					<path style="fill:#877B58;" d="M49.968,110.746v27.842c19.975,0,36.172-14.899,36.172-33.28c0-3.602-0.637-7.057-1.785-10.3
						C77.2,104.442,64.497,110.746,49.968,110.746z"/>
				</g>
			</g>
			<g>
				<g>
					<path style="fill:#695A42;" d="M49.968,72.035c-16.061,0-29.666,9.64-34.387,22.973c7.154,9.435,19.857,15.738,34.387,15.738
						s27.232-6.304,34.387-15.738C79.632,81.675,66.032,72.035,49.968,72.035z"/>
				</g>
			</g>
		</g>
	</g>
	<g>
		<g>
			<g>
				<path style="fill:#F6F3CF;" d="M35.341,115.238c0,0,0.143,0.04,0.393,0.109c0.236,0.065,0.574,0.163,1.006,0.26
					c0.854,0.215,2.006,0.432,3.178,0.594c0.295,0.052,0.582,0.058,0.873,0.088c0.291,0.024,0.576,0.049,0.855,0.073
					c0.555-0.004,1.074-0.007,1.518-0.009c0.871-0.111,1.486-0.21,1.486-0.21s-0.525,0.277-1.375,0.688
					c-0.441,0.151-0.957,0.328-1.51,0.518c-0.283,0.069-0.576,0.141-0.873,0.213c-0.299,0.068-0.607,0.161-0.912,0.209
					c-1.229,0.233-2.477,0.407-3.418,0.48c-0.467,0.048-0.875,0.068-1.162,0.084c-0.271,0.014-0.426,0.021-0.426,0.021
					c-0.881,0.045-1.629-0.632-1.672-1.51c-0.045-0.88,0.633-1.627,1.51-1.671c0.176-0.009,0.346,0.011,0.504,0.055L35.341,115.238z
					"/>
			</g>
			<g>
				<path style="fill:#F6F3CF;" d="M35.341,118.87c0,0,0.143,0.04,0.393,0.109c0.236,0.065,0.574,0.163,1.006,0.26
					c0.854,0.215,2.006,0.432,3.178,0.594c0.295,0.052,0.582,0.058,0.873,0.088c0.291,0.024,0.576,0.05,0.855,0.073
					c0.555-0.003,1.074-0.007,1.518-0.009c0.871-0.111,1.486-0.21,1.486-0.21s-0.525,0.277-1.375,0.688
					c-0.441,0.151-0.957,0.328-1.51,0.518c-0.283,0.069-0.576,0.141-0.873,0.214c-0.299,0.067-0.607,0.16-0.912,0.208
					c-1.229,0.233-2.477,0.407-3.418,0.48c-0.467,0.048-0.875,0.068-1.162,0.084c-0.271,0.015-0.426,0.021-0.426,0.021
					c-0.881,0.045-1.629-0.632-1.672-1.51c-0.045-0.879,0.633-1.627,1.51-1.671c0.176-0.009,0.346,0.011,0.504,0.055L35.341,118.87z
					"/>
			</g>
			<g>
				<path style="fill:#F6F3CF;" d="M35.663,121.688c0,0,0.133,0.065,0.365,0.18c0.223,0.107,0.537,0.265,0.943,0.439
					c0.799,0.368,1.893,0.794,3.014,1.168c0.281,0.104,0.563,0.163,0.842,0.246c0.281,0.078,0.559,0.154,0.826,0.229
					c0.547,0.099,1.059,0.191,1.496,0.271c0.875,0.051,1.498,0.066,1.498,0.066s-0.566,0.177-1.477,0.424
					c-0.463,0.068-1.002,0.146-1.58,0.23c-0.291,0.017-0.592,0.033-0.898,0.051c-0.307,0.012-0.625,0.046-0.934,0.037
					c-1.25,0.004-2.51-0.056-3.449-0.155c-0.469-0.039-0.871-0.093-1.156-0.131c-0.27-0.036-0.424-0.058-0.424-0.058
					c-0.871-0.117-1.482-0.92-1.365-1.791c0.117-0.872,0.92-1.483,1.791-1.364c0.174,0.023,0.336,0.073,0.486,0.146L35.663,121.688z
					"/>
			</g>
			<g>
				<path style="fill:#F6F3CF;" d="M34.157,124.43c0,0,0.115,0.093,0.316,0.256c0.191,0.154,0.463,0.378,0.82,0.64
					c0.697,0.535,1.668,1.193,2.678,1.809c0.25,0.164,0.512,0.284,0.766,0.428c0.258,0.139,0.51,0.274,0.756,0.406
					c0.51,0.219,0.988,0.423,1.396,0.598c0.842,0.244,1.445,0.398,1.445,0.398s-0.592,0.046-1.535,0.084
					c-0.465-0.037-1.008-0.081-1.59-0.127c-0.287-0.049-0.584-0.1-0.887-0.151c-0.301-0.058-0.619-0.094-0.92-0.172
					c-1.219-0.274-2.432-0.613-3.326-0.919c-0.447-0.142-0.83-0.286-1.098-0.385c-0.256-0.097-0.402-0.151-0.402-0.151
					c-0.822-0.309-1.24-1.227-0.932-2.05c0.311-0.824,1.229-1.241,2.051-0.933c0.164,0.063,0.313,0.147,0.441,0.252L34.157,124.43z"
					/>
			</g>
			<g>
				<path style="fill:#695A42;" d="M28.71,128.151c-0.727,0-1.467-0.096-2.203-0.296c-9.67-2.63-14.012-8.238-16.611-12.072
					c-6.811-10.046-3.301-24.938-2.998-25.932l17.104,6.852l0,0c-1.303,4.875,1.02,13.392,6.902,14.991
					c4.463,1.214,7.096,5.815,5.883,10.278C35.772,125.7,32.396,128.151,28.71,128.151z"/>
			</g>
		</g>
		<g>
			<g>
				<path style="fill:#F6F3CF;" d="M64.597,115.238c0,0-0.145,0.04-0.393,0.109c-0.238,0.065-0.576,0.163-1.006,0.26
					c-0.854,0.215-2.008,0.432-3.178,0.594c-0.295,0.052-0.582,0.058-0.873,0.088c-0.291,0.024-0.578,0.049-0.855,0.073
					c-0.555-0.004-1.074-0.007-1.518-0.009c-0.871-0.111-1.486-0.21-1.486-0.21s0.523,0.277,1.375,0.688
					c0.441,0.151,0.957,0.328,1.51,0.518c0.283,0.069,0.576,0.141,0.873,0.213c0.299,0.068,0.607,0.161,0.912,0.209
					c1.229,0.233,2.477,0.407,3.418,0.48c0.467,0.048,0.875,0.068,1.16,0.084c0.271,0.014,0.428,0.021,0.428,0.021
					c0.879,0.045,1.627-0.632,1.672-1.51c0.043-0.88-0.633-1.627-1.512-1.671c-0.174-0.009-0.344,0.011-0.504,0.055L64.597,115.238z
					"/>
			</g>
			<g>
				<path style="fill:#F6F3CF;" d="M64.597,118.87c0,0-0.145,0.04-0.393,0.109c-0.238,0.065-0.576,0.163-1.006,0.26
					c-0.854,0.215-2.008,0.432-3.178,0.594c-0.295,0.052-0.582,0.058-0.873,0.088c-0.291,0.024-0.578,0.05-0.855,0.073
					c-0.555-0.003-1.074-0.007-1.518-0.009c-0.871-0.111-1.486-0.21-1.486-0.21s0.523,0.277,1.375,0.688
					c0.441,0.151,0.957,0.328,1.51,0.518c0.283,0.069,0.576,0.141,0.873,0.214c0.299,0.067,0.607,0.16,0.912,0.208
					c1.229,0.233,2.477,0.407,3.418,0.48c0.467,0.048,0.875,0.068,1.16,0.084c0.271,0.015,0.428,0.021,0.428,0.021
					c0.879,0.045,1.627-0.632,1.672-1.51c0.043-0.879-0.633-1.627-1.512-1.671c-0.174-0.009-0.344,0.011-0.504,0.055L64.597,118.87z
					"/>
			</g>
			<g>
				<path style="fill:#F6F3CF;" d="M64.272,121.688c0,0-0.133,0.065-0.365,0.18c-0.221,0.107-0.535,0.265-0.941,0.439
					c-0.801,0.368-1.893,0.794-3.016,1.168c-0.279,0.104-0.563,0.163-0.84,0.246c-0.283,0.078-0.561,0.154-0.828,0.229
					c-0.547,0.099-1.057,0.191-1.494,0.271c-0.877,0.051-1.5,0.066-1.5,0.066s0.566,0.177,1.479,0.424
					c0.463,0.068,1,0.146,1.58,0.23c0.291,0.017,0.592,0.033,0.896,0.051c0.307,0.012,0.625,0.046,0.936,0.037
					c1.25,0.004,2.508-0.056,3.447-0.155c0.469-0.039,0.873-0.093,1.156-0.131c0.271-0.036,0.426-0.058,0.426-0.058
					c0.871-0.117,1.482-0.92,1.365-1.791c-0.119-0.872-0.92-1.483-1.793-1.364c-0.172,0.023-0.336,0.073-0.484,0.146L64.272,121.688
					z"/>
			</g>
			<g>
				<path style="fill:#F6F3CF;" d="M65.778,124.43c0,0-0.115,0.093-0.314,0.256c-0.191,0.154-0.463,0.378-0.82,0.64
					c-0.697,0.535-1.67,1.193-2.68,1.809c-0.248,0.164-0.51,0.284-0.766,0.428c-0.256,0.139-0.51,0.274-0.754,0.406
					c-0.512,0.219-0.988,0.423-1.396,0.598c-0.844,0.244-1.447,0.398-1.447,0.398s0.592,0.046,1.535,0.084
					c0.465-0.037,1.01-0.081,1.592-0.127c0.287-0.049,0.584-0.1,0.885-0.151c0.303-0.058,0.621-0.094,0.92-0.172
					c1.219-0.274,2.434-0.613,3.326-0.919c0.449-0.142,0.83-0.286,1.1-0.385c0.254-0.097,0.4-0.151,0.4-0.151
					c0.824-0.309,1.24-1.227,0.932-2.05c-0.309-0.824-1.229-1.241-2.051-0.933c-0.164,0.063-0.311,0.147-0.439,0.252L65.778,124.43z
					"/>
			</g>
			<g>
				<path style="fill:#877B58;" d="M71.226,128.151c0.729,0,1.467-0.096,2.203-0.296c9.672-2.63,14.014-8.238,16.613-12.072
					c6.811-10.046,3.299-24.938,2.998-25.932l-17.105,6.852l0,0c1.305,4.875-1.018,13.392-6.9,14.991
					c-4.463,1.214-7.098,5.815-5.883,10.278C64.163,125.7,67.54,128.151,71.226,128.151z"/>
			</g>
		</g>
	</g>
	<g>
		<g>
			<g>
				<g>
					<path style="fill:#877B58;" d="M76.812,0C68.94,0,62.563,7.737,62.563,15.607s6.377,14.249,14.248,14.249
						c7.869,0,14.252-6.379,14.252-14.249S84.681,0,76.812,0z"/>
				</g>
			</g>
			<g>
				<g>
					<path style="fill:#695A42;" d="M23.124,0c-7.869,0-14.25,7.737-14.25,15.607s6.381,14.249,14.25,14.249
						c7.873,0,14.25-6.379,14.25-14.249S30.997,0,23.124,0z"/>
				</g>
			</g>
		</g>
		<g>
			<path style="fill:#877B58;" d="M50.151,10.428c-0.064,0-0.127-0.004-0.195-0.004v65.354c12.514,0,23.084,10.164,26.52,24.116
				c2.986-1.104,5.764-2.385,8.281-3.823c0,0.008,0,0.012,0,0.017c9.344-5.33,15.154-12.782,15.154-21.035
				C99.911,70.973,102.739,10.428,50.151,10.428z"/>
			<path style="fill:#695A42;" d="M49.956,75.777V10.424c-51.195,0-49.953,60.549-49.953,64.628c0,8.252,5.809,15.706,15.15,21.038
				c0-0.002,0-0.003,0-0.007c2.52,1.438,5.295,2.72,8.283,3.823C26.868,85.947,37.44,75.777,49.956,75.777z"/>
			<path style="fill:#F6F3CF;" d="M49.956,75.777v28.913c0.158,0.003,0.332,0.01,0.479,0.01c6.625,0,15.471-1.85,15.471-1.85
				c0.176-0.035,0.355-0.071,0.533-0.105c3.547-0.73,6.906-1.693,10.037-2.852C73.04,85.941,62.47,75.777,49.956,75.777z"/>
			<path style="fill:#F6F3CF;" d="M26.86,101.063c1.568,0.483,3.191,0.917,4.854,1.301c0.186,0.044,0.373,0.086,0.559,0.128
				c0.816,0.18,2.48,0.512,2.48,0.512s9.979,1.595,15.203,1.688V75.777c-12.516,0-23.088,10.17-26.52,24.129
				c1.021,0.377,2.066,0.733,3.135,1.067C26.667,101.004,26.763,101.033,26.86,101.063z"/>
		</g>
		<g>
			<g>
				<g>
					<g>
						<path style="fill:#3C3C3B;" d="M75.599,62.029c0,3.049-2.469,5.522-5.521,5.522c-3.051,0-5.521-2.474-5.521-5.522
							c0-3.05,2.471-5.521,5.521-5.521C73.13,56.508,75.599,58.979,75.599,62.029z"/>
					</g>
				</g>
			</g>
			<g>
				<g>
					<g>
						<circle style="fill:#3C3C3B;" cx="29.859" cy="62.029" r="5.521"/>
					</g>
				</g>
			</g>
			<g>
				<g>
					<path style="fill:#FFFFFF;" d="M33.944,60.374c0,1.118-0.906,2.026-2.029,2.026c-1.117,0-2.023-0.908-2.023-2.026
						c0-1.119,0.906-2.026,2.023-2.026C33.038,58.348,33.944,59.255,33.944,60.374z"/>
				</g>
			</g>
			<g>
				<g>
					<circle style="fill:#FFFFFF;" cx="71.766" cy="60.374" r="2.026"/>
				</g>
			</g>
		</g>
		<g>
			<g>
				<path style="fill:#3C3C3B;" d="M59.343,85.359c0-0.029-0.006-0.061-0.01-0.09c0-0.003,0-0.005,0-0.009
					c0-0.001-0.004-0.002-0.004-0.005c-0.119-2.347-4.26-4.23-9.361-4.23c-5.098,0-9.238,1.884-9.363,4.23
					c0,0.003-0.002,0.004-0.002,0.005c0,0.004,0.002,0.006,0.002,0.009c-0.002,0.029-0.01,0.061-0.01,0.09
					c0,2.169,3.436,5.065,7.924,5.602v6.453c-0.445,0.526-1.477,1.521-2.525,0.962c-0.664-0.359-1.488-0.11-1.842,0.552
					c-0.354,0.659-0.107,1.484,0.553,1.841c0.666,0.358,1.318,0.506,1.934,0.506c1.314,0,2.469-0.68,3.316-1.449
					c0.83,0.771,1.977,1.45,3.305,1.45c0.617,0,1.273-0.145,1.953-0.498c0.666-0.345,0.928-1.165,0.582-1.832
					c-0.344-0.667-1.166-0.927-1.834-0.581c-1.121,0.578-2.113-0.401-2.541-0.932v-6.472C55.907,90.425,59.343,87.528,59.343,85.359
					z"/>
			</g>
		</g>
	</g>
</g>
</svg>
