<?xml version="1.0" encoding="utf-8"?>
<!-- Generator: Adobe Illustrator 16.0.0, SVG Export Plug-In . SVG Version: 6.00 Build 0)  -->
<!DOCTYPE svg PUBLIC "-//W3C//DTD SVG 1.1//EN" "http://www.w3.org/Graphics/SVG/1.1/DTD/svg11.dtd">
<svg version="1.1" id="Layer_1" xmlns="http://www.w3.org/2000/svg" xmlns:xlink="http://www.w3.org/1999/xlink" x="0px" y="0px"
	 width="140.173px" height="67.733px" viewBox="-7.063 35.525 140.173 67.733"
	 style="enable-background:new -7.063 35.525 140.173 67.733;" xml:space="preserve">
<g>
	<path style="fill:#EFE9D5;" d="M112.582,47.557c0,4.419-3.582,8-8,8H91.201c-4.418,0-8-3.581-8-8v-1.084c0-4.418,3.582-8,8-8
		h13.381c4.418,0,8,3.582,8,8V47.557z"/>
	<g>
		<polygon style="fill:#804F2A;" points="117.777,35.525 117.777,82.401 61.848,82.401 61.848,93.481 117.777,93.481 
			117.777,103.259 133.109,103.259 133.109,35.525 		"/>
		<path style="fill:#FF9F00;" d="M108.582,79.215c2.762,0,5-2.238,5-5v-9.001c0-2.762-2.238-5-5-5H61.848v19.001H108.582z"/>
		<polygon style="fill:#B2805F;" points="8.27,82.401 8.27,62.655 -7.063,62.655 -7.063,103.259 8.27,103.259 8.27,93.481 
			61.848,93.481 61.848,82.401 		"/>
		<path style="fill:#FBC16C;" d="M12.604,65.214v9.001c0,2.762,2.238,5,5,5h44.244V60.214H17.604
			C14.842,60.214,12.604,62.452,12.604,65.214z"/>
	</g>
</g>
</svg>
