<?xml version="1.0" encoding="utf-8"?>
<!-- Generator: Adobe Illustrator 16.0.0, SVG Export Plug-In . SVG Version: 6.00 Build 0)  -->
<!DOCTYPE svg PUBLIC "-//W3C//DTD SVG 1.1//EN" "http://www.w3.org/Graphics/SVG/1.1/DTD/svg11.dtd">
<svg version="1.1" id="Layer_1" xmlns="http://www.w3.org/2000/svg" xmlns:xlink="http://www.w3.org/1999/xlink" x="0px" y="0px"
	 width="188.458px" height="119.665px" viewBox="-32.498 8.75 188.458 119.665"
	 style="enable-background:new -32.498 8.75 188.458 119.665;" xml:space="preserve">
<g>
	<g>
		<path style="fill:none;" d="M21.927,68.304C14.384,82.34,7.266,92.938,6.656,93.846L1.17,90.131
			C1.315,89.914,8.582,79.1,16.215,64.873c-3.757-1.711-7.914-2.686-12.303-2.686c-16.436,0-29.805,13.366-29.805,29.801
			c0,16.438,13.372,29.805,29.805,29.805s29.803-13.371,29.803-29.805C33.715,82.328,29.079,73.758,21.927,68.304z"/>
		<path style="fill:#804F2A;" d="M28.762,52.449c0.728-1.551,7.566-19.425,13.522-33.854c1.458-2.514,2.514-2.868,4.233-2.813
			l0.007,2.174v-7.439c-7.194,0.091-9.667,6.914-9.667,6.914c-4.678,10.416-8.009,21.096-13.313,32.735
			C9.171,44.687-4.1,47.082-6.432,47.207c-6.526,0.947-9.092,6.357-3.431,6.051c21.725-3.041,30.542,2.935,30.542,2.935
			s-0.929,1.876-1.393,2.806c-4.679-2.188-9.872-3.446-15.36-3.446c-20.084,0.003-36.424,16.347-36.424,36.433
			c0,20.088,16.343,36.426,36.424,36.426c20.084,0,36.428-16.338,36.428-36.426c0-12.207-6.066-23.002-15.301-29.617
			c0.566-1.128,1.136-2.265,1.699-3.411c2.788,1.076,6.76,4.748,6.76,4.748s12.762,10.844,10.986,28.284
			c-0.789,4.242,3.951,6.082,5.121,0.113c0.67-5.078-0.167-14.555-3.18-19.35c0,0,10.152,7.359,15.686,17.047
			c-0.049,2.369,0.523,4.342,1.513,5.875V83.357C60.573,79.029,50.752,66.839,28.762,52.449z M33.715,91.988
			c0,16.434-13.37,29.805-29.803,29.805s-29.805-13.367-29.805-29.805c0-16.436,13.369-29.801,29.805-29.801
			c4.389,0,8.546,0.975,12.303,2.686C8.582,79.1,1.315,89.914,1.17,90.131l5.485,3.715c0.61-0.908,7.729-11.506,15.271-25.542
			C29.079,73.758,33.715,82.328,33.715,91.988z"/>
		<path style="fill:#804F2A;" d="M61.393,67.503c-1.796,0.582-1.002,3.323,0,3.309c0.548-0.006,1.494-0.006,2.246-0.004v-3.301
			C62.521,67.505,61.64,67.503,61.393,67.503z"/>
		<path style="fill:#673E20;" d="M155.797,91.988c-0.023-20.084-16.361-36.426-36.438-36.426c-1.348,0-2.664,0.087-3.967,0.225
			h-10.08c1.271-0.767,2.809-1.496,4.713-2.053c6.951-2.038,23.813-3.184,40.154,12.324c4.266,4.182,8.869-0.949,3.002-6.563
			c-14.848-13.197-33.445-15.672-45.344-12.023c-6.93,2.107-10.65,6.106-12.289,8.309h-1.494l13.598-23.523c0,0,9.398,0,11.707,0
			c5.221-2.676,2.098-6.469,0-6.617c-1.146-0.039-20.213,0-21.83,0c-5.578,1.209-2.734,6.619-0.057,6.623
			c0.949-0.105,2.543,0,2.543,0L71.123,82.256c-0.182-0.012-0.348-0.061-0.531-0.061c-0.135,0-0.258,0.039-0.383,0.047l-2.098-11.43
			c0,0,2.258,0,2.484,0c1.717-1.41,0.566-3.208,0-3.309c-0.207,0.016-4.279,0.01-6.957,0.004v3.301
			c0.623,0.002,1.113,0.004,1.113,0.004l2.232,12.207c-1.33,0.801-1.83,1.33-2.221,2.029c0,0-0.352-0.6-1.125-1.691v12.316
			c1.537,2.375,4.088,3.682,6.965,3.682c3.068,0,5.75-1.633,7.26-4.059h5.256c1.686,18.537,17.293,33.117,36.266,33.117
			C139.467,128.414,155.797,112.076,155.797,91.988z M83.105,88.68h-4.236c-0.316-1.23-0.896-2.35-1.672-3.311l13.863-22.956h7.123
			C89.816,68.421,84.084,77.863,83.105,88.68z M115.84,62.414h0.207V88.68H89.752C91.275,74.957,102.146,64.033,115.84,62.414z
			 M119.359,121.793c-15.318,0-27.959-11.611-29.605-26.492h32.914V62.388c14.883,1.652,26.492,14.293,26.492,29.6
			C149.16,108.426,135.789,121.793,119.359,121.793z"/>
	</g>
	<g>
		<g>
			<path style="fill:none;" d="M116.047,62.414h-0.207c-13.693,1.619-24.564,12.543-26.088,26.266h26.295V62.414z"/>
			<path style="fill:none;" d="M98.184,62.414h-7.123L77.197,85.369c0.775,0.961,1.355,2.08,1.672,3.311h4.236
				C84.084,77.863,89.816,68.421,98.184,62.414z"/>
			<path style="fill:none;" d="M21.927,68.304C14.384,82.34,7.266,92.938,6.656,93.846L1.17,90.131
				C1.315,89.914,8.582,79.1,16.215,64.873c-3.757-1.711-7.914-2.686-12.303-2.686c-16.436,0-29.805,13.366-29.805,29.801
				c0,16.438,13.372,29.805,29.805,29.805s29.803-13.371,29.803-29.805C33.715,82.328,29.079,73.758,21.927,68.304z"/>
			<path style="fill:none;" d="M122.668,62.388v32.913H89.754c1.646,14.881,14.287,26.492,29.605,26.492
				c16.43,0,29.801-13.367,29.801-29.805C149.16,76.682,137.551,64.041,122.668,62.388z"/>
			<path style="fill:#804F2A;" d="M60.932,17.976c0,0,0.01-0.009,0.024-0.021H46.525C49.647,18.09,54.138,17.98,60.932,17.976z"/>
			<path style="fill:#FF7845;" d="M46.676,8.763C51.35,8.73,54.641,8.792,61.125,8.75h-14.6v1.766c0.048,0,0.091-0.008,0.14-0.008
				L46.676,8.763z"/>
			<path style="fill:#FF7845;" d="M60.957,17.955c0.377-0.334,5.358-4.91,0.168-9.205c-6.483,0.043-9.774-0.02-14.448,0.014
				l-0.012,1.744c-0.049,0-0.092,0.008-0.14,0.008v7.439H60.957z"/>
		</g>
		<circle style="fill:#A0D8B6;" cx="3.862" cy="91.953" r="11.271"/>
		<circle style="fill:#FFFFFF;" cx="3.862" cy="91.953" r="4.271"/>
		<circle style="fill:#A0D8B6;" cx="121.164" cy="91.953" r="11.271"/>
		<circle style="fill:#FFFFFF;" cx="121.164" cy="91.953" r="4.271"/>
		<g>
			<path style="fill:#FF7845;" d="M121.164,80.682c6.225,0,11.271,5.047,11.271,11.271s-5.047,11.271-11.271,11.271
				c-0.549,0-1.084-0.053-1.611-0.127l-48.639-3.873c-4.568,0-8.271-3.703-8.271-8.271s3.703-8.271,8.271-8.271L121.164,80.682
				 M121.164,77.682h-0.06l-0.06,0.002L70.85,79.682c-6.186,0.035-11.207,5.078-11.207,11.271c0,6.172,4.987,11.202,11.143,11.271
				l48.441,3.857c0.718,0.098,1.335,0.144,1.937,0.144c7.869,0,14.271-6.402,14.271-14.271S129.033,77.682,121.164,77.682
				L121.164,77.682z"/>
		</g>
	</g>
</g>
</svg>
