<?xml version="1.0" encoding="utf-8"?>
<!-- Generator: Adobe Illustrator 16.0.0, SVG Export Plug-In . SVG Version: 6.00 Build 0)  -->
<!DOCTYPE svg PUBLIC "-//W3C//DTD SVG 1.1//EN" "http://www.w3.org/Graphics/SVG/1.1/DTD/svg11.dtd">
<svg version="1.1" id="Layer_1" xmlns="http://www.w3.org/2000/svg" xmlns:xlink="http://www.w3.org/1999/xlink" x="0px" y="0px"
	 width="220.792px" height="248.325px" viewBox="-93.206 -51.327 220.792 248.325"
	 style="enable-background:new -93.206 -51.327 220.792 248.325;" xml:space="preserve">
<g>
	<g>
		<polygon style="fill:#785033;" points="-5.346,146.093 -6.717,146.093 -7.231,144.334 -7.795,142.454 -8.345,144.334 
			-8.857,146.093 -10.232,146.093 -10.232,148.214 -5.346,148.214 		"/>
		<polygon style="fill:#DA6426;" points="-12.443,142.558 -13.358,142.558 -13.358,139.06 -13.831,139.06 -14.191,136.521 
			-14.659,133.219 -15.136,136.521 -15.486,139.06 -15.961,139.06 -15.961,142.558 -16.883,142.558 -16.883,148.214 
			-12.443,148.214 		"/>
		<polygon style="fill:#785033;" points="-34.479,146.093 -35.856,146.093 -36.37,144.334 -36.927,142.454 -37.473,144.334 
			-37.911,145.811 -37.911,148.214 -34.479,148.214 		"/>
		<polygon style="fill:#DA6426;" points="-26.926,142.213 -27.841,142.213 -27.841,138.846 -28.317,138.846 -28.679,136.409 
			-29.139,133.219 -29.614,136.409 -29.969,138.846 -30.444,138.846 -30.444,142.213 -31.371,142.213 -31.371,148.214 
			-26.926,148.214 		"/>
		<polygon style="fill:#785033;" points="-19.975,146.093 -21.341,146.093 -21.867,144.334 -22.414,142.454 -22.97,144.334 
			-23.488,146.093 -24.854,146.093 -24.854,148.214 -19.975,148.214 		"/>
		<polygon style="fill:#DA6426;" points="2.048,142.213 1.111,142.213 1.111,138.846 0.643,138.846 0.289,136.409 -0.18,133.219 
			-0.646,136.409 -1.005,138.846 -1.487,138.846 -1.487,142.213 -2.398,142.213 -2.398,148.214 2.048,148.214 		"/>
		<polygon style="fill:#785033;" points="38.184,146.093 36.812,146.093 36.293,144.334 35.736,142.454 35.187,144.334 
			34.667,146.093 33.299,146.093 33.299,148.214 38.184,148.214 		"/>
		<polygon style="fill:#785033;" points="9.166,146.093 7.79,146.093 7.277,144.334 6.717,142.454 6.666,142.636 6.17,144.334 
			5.653,146.093 4.277,146.093 4.277,148.214 9.166,148.214 		"/>
		<polygon style="fill:#DA6426;" points="31.012,142.045 30.092,142.045 30.092,138.732 29.613,138.732 29.253,136.345 
			28.785,133.219 28.323,136.345 27.96,138.732 27.485,138.732 27.485,142.045 26.572,142.045 26.572,148.214 31.012,148.214 		"/>
		<polygon style="fill:#785033;" points="52.778,145.563 51.394,145.563 50.867,143.786 50.304,141.884 49.754,143.786 
			49.225,145.563 47.836,145.563 47.836,147.625 52.778,147.625 		"/>
		<polygon style="fill:#DA6426;" points="60.144,141.302 59.214,141.302 59.214,138.026 58.731,138.026 58.369,135.653 
			57.894,132.553 57.418,135.653 57.062,138.026 56.576,138.026 56.576,141.302 55.653,141.302 55.653,147.625 60.144,147.625 		"/>
		<polygon style="fill:#785033;" points="67.448,145.563 66.06,145.563 65.53,143.786 64.987,141.884 64.42,143.786 63.891,145.563 
			62.499,145.563 62.499,147.625 67.448,147.625 		"/>
		<polygon style="fill:#DA6426;" points="45.505,141.645 44.571,141.645 44.571,138.243 44.089,138.243 43.729,135.774 
			43.251,132.553 43.166,133.161 43.166,133.918 42.81,136.409 42.446,138.846 41.971,138.846 41.971,142.213 41.048,142.213 
			41.048,147.625 45.505,147.625 		"/>
		<polygon style="fill:#785033;" points="96.783,145.563 95.392,145.563 94.873,143.786 94.303,141.884 93.753,143.786 
			93.223,145.563 91.849,145.563 91.849,147.625 96.783,147.625 		"/>
		<polygon style="fill:#DA6426;" points="89.418,141.645 88.502,141.645 88.502,138.243 88.013,138.243 87.656,135.774 
			87.175,132.553 86.696,135.774 86.343,138.243 85.868,138.243 85.868,141.645 84.935,141.645 84.935,147.625 89.418,147.625 		"/>
		<polygon style="fill:#E2AA15;" points="99.883,147.871 96.668,147.99 96.668,147.625 91.729,147.625 91.729,147.99 89.418,147.99 
			89.418,147.625 84.935,147.625 84.935,147.99 82.002,147.99 82.002,147.625 77.057,147.625 77.057,147.99 74.782,147.99 
			74.782,147.625 70.299,147.625 70.299,147.99 67.329,147.99 67.329,147.625 62.384,147.625 62.384,147.99 60.144,147.99 
			60.144,147.625 55.653,147.625 55.653,147.99 52.66,147.99 52.66,147.625 47.718,147.625 47.718,147.99 45.505,147.99 
			45.505,147.625 41.048,147.625 41.048,148.214 98.871,148.214 41.048,148.214 41.048,148.492 38.068,148.492 38.068,148.214 
			33.181,148.214 33.181,148.492 31.012,148.492 31.012,148.214 26.572,148.214 26.572,148.492 23.558,148.492 23.558,148.214 
			18.67,148.214 18.67,148.492 16.525,148.492 16.525,148.214 12.086,148.214 12.086,148.492 9.049,148.492 9.049,148.214 
			4.16,148.214 4.16,148.492 2.048,148.492 2.048,148.214 -2.398,148.214 -2.398,148.492 -5.463,148.492 -5.463,148.214 
			-10.349,148.214 -10.349,148.492 -12.443,148.492 -12.443,148.214 -16.883,148.214 -16.883,148.492 -19.975,148.492 
			-19.975,148.214 -24.854,148.214 -24.854,148.492 -26.926,148.492 -26.926,148.214 -31.371,148.214 -31.371,148.492 
			-34.479,148.492 -34.479,148.214 -37.911,148.214 -37.911,196.998 6.515,196.998 6.544,196.998 99.577,196.998 		"/>
		<polygon style="fill:#785033;" points="82.121,145.563 80.732,145.563 80.193,143.786 79.646,141.884 79.093,143.786 
			78.561,145.563 77.172,145.563 77.172,147.625 82.121,147.625 		"/>
		<polygon style="fill:#DA6426;" points="74.782,141.302 73.85,141.302 73.85,138.026 73.367,138.026 73.011,135.653 
			72.532,132.553 72.061,135.653 71.701,138.026 71.223,138.026 71.223,141.302 70.299,141.302 70.299,147.625 74.782,147.625 		"/>
		<path style="fill:#DA6426;" d="M126.693,136.584v-8.679h-0.211c-0.444-1.552-1.704-2.79-3.323-3.298l-0.661-2.661l-0.995-3.958
			l-1.004,3.958l-0.659,2.661c-1.456,0.444-2.616,1.498-3.16,2.832h-0.573v-14.438h-1.575v-8.06h-1.096l-0.706-3.506l-1.334-6.684
			l-1.334,6.684l-0.699,3.506h-1.113v8.06h-1.571v14.438h-3.363v6.937l-3.737,2.344v60.278h27.492l0.068-48.786l0.448-0.222v-9.862
			L126.693,136.584z"/>
		<polygon style="fill:#785033;" points="23.673,146.093 22.306,146.093 21.786,144.334 21.24,142.454 20.673,144.334 
			20.157,146.093 18.786,146.093 18.786,148.214 23.673,148.214 		"/>
		<polygon style="fill:#DA6426;" points="16.525,142.558 15.604,142.558 15.604,139.06 15.133,139.06 14.775,136.521 
			14.301,133.219 13.84,136.521 13.478,139.06 12.996,139.06 12.996,142.558 12.086,142.558 12.086,148.214 16.525,148.214 		"/>
	</g>
	<g>
		<path style="fill:#F9BB14;" d="M-63.817,48.767c-0.06,0-0.081,0.069-0.153,0.073l-8.624-8.494l-2.288,2.362l8.702,8.502
			c0.015,1.353,1.119,2.422,2.421,2.41c0.251-0.001,0.486-0.053,0.712-0.124l-0.073-5.333l-0.616,0.626L-63.817,48.767z"/>
		<path style="fill:#E2AA15;" d="M-61.359,51.161c0,0-0.025-0.024-0.025-0.047l11.556-11.798l-2.347-2.301l-10.944,11.148
			l0.073,5.333C-62.059,53.179-61.349,52.261-61.359,51.161z"/>
		<path style="fill:#F9BB14;" d="M-62.79,71.838c-0.263,0.013-0.522,0.043-0.789,0.046c-11.406,0.119-20.77-9.055-20.89-20.483
			c-0.115-11.406,9.057-20.771,20.465-20.888c0.217-0.003,0.425,0.022,0.642,0.024l-0.039-2.754l-25.175,0.228v0.012l-4.629,0.049
			l0.034,3.243l0.734-0.01l0.432,41.784l29.229-0.31L-62.79,71.838z"/>
		<polygon style="fill:#F26E25;" points="-62.777,72.778 -92.006,73.088 -92.005,73.142 -90.037,73.121 -89.007,196.998 
			-61.389,196.998 		"/>
		<path style="fill:#785033;" d="M-64.498-51.326l-0.911,0.01c-0.754,5.064-11.844,38.188-12.617,40.145l-0.24,0.002l0.147,14.028
			l-10.488,20.311h-0.022l0.052,4.84l25.175-0.228L-64.498-51.326z"/>
		<path style="fill:#69462C;" d="M-39.442,27.636l-0.064-4.974L-50.514,2.585h0.049l-0.144-14.04l-0.202,0.001
			c-0.864-1.938-12.597-34.826-13.466-39.875l-0.221,0.001l1.096,79.108L-39.442,27.636z"/>
		<path style="fill:#E2AA15;" d="M-35.518,30.718l0.704-0.009l-0.032-3.185l-28.555,0.258l0.039,2.754
			c11.121,0.229,20.143,9.235,20.256,20.436c0.116,11.164-8.619,20.333-19.684,20.865l0.013,0.94l27.69-0.292L-35.518,30.718z"/>
		<polygon style="fill:#DA6426;" points="-37.066,72.585 -35.085,72.564 -35.087,72.486 -62.777,72.778 -61.389,196.998 
			-36.032,196.998 		"/>
	</g>
</g>
</svg>
