<?xml version="1.0" encoding="utf-8"?>
<!-- Generator: Adobe Illustrator 16.0.0, SVG Export Plug-In . SVG Version: 6.00 Build 0)  -->
<!DOCTYPE svg PUBLIC "-//W3C//DTD SVG 1.1//EN" "http://www.w3.org/Graphics/SVG/1.1/DTD/svg11.dtd">
<svg version="1.1" id="Layer_1" xmlns="http://www.w3.org/2000/svg" xmlns:xlink="http://www.w3.org/1999/xlink" x="0px" y="0px"
	 width="262.8px" height="161.161px" viewBox="0 0 262.8 161.161" style="enable-background:new 0 0 262.8 161.161;"
	 xml:space="preserve">
<path style="fill:#FF6D32;" d="M39.514,92.688C27.425,85.616,13.552,83.268,0,88.026c2.167,11.927,31.267,18.486,40.187,13.374
	C40.281,100.757,40.273,100.112,39.514,92.688"/>
<path style="fill:#009AAE;" d="M165.034,122.818c20.547-4.564,38.606-3.717,59.263-1.599c10.845,1.113,28.575,3.196,38.504,8.29
	C253.418,143.732,160.753,156.851,165.034,122.818"/>
<path style="fill:#2BC2D4;" d="M76.899,98.708c5.517-13.489-15.383-33.529-26.282-34.218c-11.017-0.706-19.796,11.9-21.4,23.606
	c-3.748,27.271,24.702,36.964,40.397,20.579c-6.995,66.458,108.15,70.898,108.799,7.054c0.376-36.806-44.036-52.511-69.622-41.943
	C99.457,77.645,79.434,87.391,76.899,98.708"/>
<path style="fill:#009AAE;" d="M106.945,109.258C117.86,71.402,136.475,36.602,150.207,0c4.193,15.793,8.834,37.661-1.127,52.034
	c5.047-9.641,29.24-22.036,35.985-9.579c9.616,17.753-19.726,33.265-29.718,37.987c11.221,3.585,7.934,18.884,1.525,26.044
	c-6.658,7.441-16.603,9.252-25.867,8.112C125.145,113.866,118.885,114.723,106.945,109.258"/>
<path style="fill:#009AAE;" d="M47.526,86.189c0,2.022-1.463,3.673-3.255,3.673c-1.808,0-3.255-1.65-3.255-3.673
	c0-2.03,1.447-3.672,3.255-3.672C46.063,82.518,47.526,84.159,47.526,86.189"/>
</svg>
