<?xml version="1.0" encoding="utf-8"?>
<!-- Generator: Adobe Illustrator 16.0.0, SVG Export Plug-In . SVG Version: 6.00 Build 0)  -->
<!DOCTYPE svg PUBLIC "-//W3C//DTD SVG 1.1//EN" "http://www.w3.org/Graphics/SVG/1.1/DTD/svg11.dtd">
<svg version="1.1" id="Layer_1" xmlns="http://www.w3.org/2000/svg" xmlns:xlink="http://www.w3.org/1999/xlink" x="0px" y="0px"
	 width="119.652px" height="107.838px" viewBox="0 0 119.652 107.838" enable-background="new 0 0 119.652 107.838"
	 xml:space="preserve">
<g>
	<g>
		<polygon fill="#466277" points="82.562,99.596 81.665,97.809 76.396,100.452 76.178,76.161 74.178,76.178 74.403,101.182 
			69.445,101.19 69.448,103.19 74.117,103.182 76.049,103.592 81.751,105.813 82.477,103.95 77.638,102.065 		"/>
		<polygon fill="#466277" points="67.322,103.288 61.844,103.288 61.624,78.862 59.624,78.879 59.844,103.288 54.966,106.057 
			55.876,107.838 60.64,105.403 63.454,107.721 64.726,106.176 63.646,105.288 67.322,105.288 		"/>
	</g>
	<polygon fill="#466277" points="83.599,20.307 80.405,3.055 75.983,9.861 70.295,0 69.966,8.044 63.287,4.975 65.758,12.407 
		60.741,13.4 64.387,16.078 60.91,19.756 70.425,22.631 	"/>
	<path fill="#C06817" d="M112.748,15.881c-8.635-4.916-22.018,4.338-28.129,10.214l3.597,16.282
		c11.475-22.5,31.437-13.643,31.437-13.644c-0.357-3.388-1.797-7.87-4.075-10.502C114.713,17.233,113.763,16.459,112.748,15.881z"/>
	<polygon fill="#466277" points="36.666,66.979 2.001,62.473 4.202,72.661 0,82.543 36.666,73.938 	"/>
	<path fill="#DA832E" d="M96.414,41.881c-0.109-3.301-0.424-6.617-1.175-9.839c-1.416-6.077-4.622-12.215-11.102-13.919
		c-7.341-1.93-17.243,2.258-18.603,10.342c-0.711,4.23,0.828,8.746-0.953,12.802c-7.26,16.537-32.261,24.718-32.261,24.718
		c-4.647,2.115-8.333,3.521-8.333,3.521c5.334,3.963,18.758,9.928,20.347,10.791c5.195,2.816,11.008,4.658,16.966,4.51
		c8.302-0.209,16.597-3.867,22.986-9.092c8.076-6.604,11.199-15.986,11.971-25.744C96.471,47.286,96.505,44.573,96.414,41.881z"/>
	<ellipse fill="#FFFFFF" cx="84.112" cy="31.3" rx="3.8" ry="4.347"/>
	<circle fill="#25292C" cx="84.62" cy="31.262" r="2.828"/>
</g>
</svg>
