<?xml version="1.0" encoding="utf-8"?>
<!-- Generator: Adobe Illustrator 16.0.0, SVG Export Plug-In . SVG Version: 6.00 Build 0)  -->
<!DOCTYPE svg PUBLIC "-//W3C//DTD SVG 1.1//EN" "http://www.w3.org/Graphics/SVG/1.1/DTD/svg11.dtd">
<svg version="1.1" id="Layer_1" xmlns="http://www.w3.org/2000/svg" xmlns:xlink="http://www.w3.org/1999/xlink" x="0px" y="0px"
	 width="175.278px" height="174.431px" viewBox="-24.187 -17.914 175.278 174.431"
	 style="enable-background:new -24.187 -17.914 175.278 174.431;" xml:space="preserve">
<g>
	<polygon style="fill:#FFFFFF;" points="83.19,117.046 83.19,-17.914 -24.187,117.046 	"/>
	<path style="fill:#DCDCDC;" d="M83.18,13.055c0,2.548,2.332,6.437,7.004,11.676c4.668,5.229,10.258,11.172,16.762,17.823
		c6.509,6.646,13.017,13.721,19.523,21.219c6.508,7.497,11.744,15.986,15.704,25.466c3.96,9.478,5.517,18.745,4.669,27.797H83.18
		V13.055z"/>
	<path style="fill:#EF3522;" d="M146.424,125.533h-29.709H83.527v18.332v8.339v4.313h30.219h2.122h0.423h3.502
		c0,0,5.693-2.406,7.955-3.822c2.266-1.413,3.963-2.685,5.096-3.817l1.697-1.698l16.55-21.646H146.424z"/>
	<polygon style="fill:#FF7845;" points="0.428,125.533 0.428,144.031 0.428,152.694 0.428,156.517 83.527,156.517 83.527,152.204 
		83.527,144.031 83.527,125.533 	"/>
	<polygon style="fill:#FBC16C;" points="0.402,134.517 0.402,140.256 83.527,140.256 83.527,134.481 	"/>
	<polygon style="fill:#FF9F00;" points="144.513,134.452 83.527,134.481 83.527,140.256 139.815,140.256 	"/>
</g>
</svg>
