<?xml version="1.0" encoding="utf-8"?>
<!-- Generator: Adobe Illustrator 16.0.0, SVG Export Plug-In . SVG Version: 6.00 Build 0)  -->
<!DOCTYPE svg PUBLIC "-//W3C//DTD SVG 1.1//EN" "http://www.w3.org/Graphics/SVG/1.1/DTD/svg11.dtd">
<svg version="1.1" id="Layer_1" xmlns="http://www.w3.org/2000/svg" xmlns:xlink="http://www.w3.org/1999/xlink" x="0px" y="0px"
	 width="85.046px" height="146.03px" viewBox="0 0 85.046 146.03" style="enable-background:new 0 0 85.046 146.03;"
	 xml:space="preserve">
<polygon style="fill-rule:evenodd;clip-rule:evenodd;fill:#FFC405;" points="23.278,15.073 23.278,49.44 32.28,49.44 32.28,15.073 
	23.278,15.073 "/>
<polygon style="fill-rule:evenodd;clip-rule:evenodd;fill:#FFC405;" points="40.96,15.073 40.96,49.44 49.958,49.44 49.958,15.073 
	40.96,15.073 "/>
<polygon style="fill-rule:evenodd;clip-rule:evenodd;fill:#FFC405;" points="39.626,66.065 39.626,95.271 30.896,95.271 
	30.896,66.065 39.626,66.065 "/>
<polygon style="fill-rule:evenodd;clip-rule:evenodd;fill:#FFC405;" points="22.484,60.589 22.484,95.271 13.755,95.271 
	13.755,60.589 22.484,60.589 "/>
<polygon style="fill-rule:evenodd;clip-rule:evenodd;fill:#FFC405;" points="73.923,66.062 73.923,95.267 65.193,95.267 
	65.193,66.062 73.923,66.062 "/>
<polygon style="fill-rule:evenodd;clip-rule:evenodd;fill:#FFC405;" points="56.785,60.585 56.785,95.267 48.055,95.267 
	48.055,60.585 56.785,60.585 "/>
<polygon style="fill-rule:evenodd;clip-rule:evenodd;fill:#FFC405;" points="61.239,105.548 61.239,139.915 52.241,139.915 
	52.241,105.548 61.239,105.548 "/>
<polygon style="fill-rule:evenodd;clip-rule:evenodd;fill:#FFC405;" points="43.558,105.548 43.558,139.915 34.557,139.915 
	34.557,105.548 43.558,105.548 "/>
<polygon style="fill-rule:evenodd;clip-rule:evenodd;fill:#FFFFFF;" points="14.605,18.514 14.605,49.444 23.606,49.444 
	23.606,18.514 14.605,18.514 "/>
<polygon style="fill-rule:evenodd;clip-rule:evenodd;fill:#FFFFFF;" points="48.038,60.589 48.038,95.271 39.309,95.271 
	39.309,60.589 48.038,60.589 "/>
<polygon style="fill-rule:evenodd;clip-rule:evenodd;fill:#FFFFFF;" points="69.916,108.983 69.916,139.915 60.915,139.915 
	60.915,108.983 69.916,108.983 "/>
<polygon style="fill-rule:evenodd;clip-rule:evenodd;fill:#FFFFFF;" points="35.271,110.704 35.271,139.907 26.273,139.907 
	26.273,110.704 35.271,110.704 "/>
<polygon style="fill-rule:evenodd;clip-rule:evenodd;fill:#8CADCF;" points="32.283,19.946 32.283,49.446 41.284,49.446 
	41.284,19.946 32.283,19.946 "/>
<path style="fill-rule:evenodd;clip-rule:evenodd;fill:#8CADCF;" d="M64.896,15.581h-4.252
	c-0.143,12.203-13.115,19.352-6.563,34.328l6.453-0.174h4.464l6.463,0.174C78.004,34.933,65.034,27.784,64.896,15.581L64.896,15.581
	z"/>
<polygon style="fill-rule:evenodd;clip-rule:evenodd;fill:#8CADCF;" points="30.894,60.589 30.894,95.271 22.167,95.271 
	22.167,60.589 30.894,60.589 "/>
<polygon style="fill-rule:evenodd;clip-rule:evenodd;fill:#8CADCF;" points="65.19,60.585 65.19,95.267 56.46,95.267 56.46,60.585 
	65.19,60.585 "/>
<polygon style="fill-rule:evenodd;clip-rule:evenodd;fill:#8CADCF;" points="52.234,110.415 52.234,139.917 43.233,139.917 
	43.233,110.415 52.234,110.415 "/>
<polygon style="fill-rule:evenodd;clip-rule:evenodd;fill:#8CADCF;" points="26.271,105.228 26.271,139.907 17.27,139.907 
	17.27,105.228 26.271,105.228 "/>
<path style="fill-rule:evenodd;clip-rule:evenodd;fill:#EB380D;" d="M5.5,146.03v-6.178h0.068L0.2,6.141H0V0h85.046v6.141H84.86
	l-5.364,133.712h0.046v6.178H5.5L5.5,146.03z M73.06,139.853l1.479-37.041H10.519l1.489,37.041H73.06L73.06,139.853z M74.847,95.243
	l1.539-38.291H8.678l1.536,38.291H74.847L74.847,95.243z M76.687,49.38l1.74-43.239H6.639L8.377,49.38H76.687L76.687,49.38z"/>
</svg>
