<?xml version="1.0" encoding="utf-8"?>
<!-- Generator: Adobe Illustrator 16.0.0, SVG Export Plug-In . SVG Version: 6.00 Build 0)  -->
<!DOCTYPE svg PUBLIC "-//W3C//DTD SVG 1.1//EN" "http://www.w3.org/Graphics/SVG/1.1/DTD/svg11.dtd">
<svg version="1.1" id="Layer_1" xmlns="http://www.w3.org/2000/svg" xmlns:xlink="http://www.w3.org/1999/xlink" x="0px" y="0px"
	 width="87.915px" height="87.915px" viewBox="0 0 87.915 87.915" enable-background="new 0 0 87.915 87.915" xml:space="preserve">
<g>
	<path fill="#57778D" d="M53.752,27.978C38.721,12.75,35.198,16.272,28.683,15.819c-4.176-0.29-8.297-4.703-10.727-7.842
		l-9.979,9.978c3.139,2.43,7.553,6.551,7.842,10.727c0.452,6.515-3.069,10.039,12.158,25.069
		c8.661,8.551,17.048,17.378,25.745,25.891c2.549,2.498,10.957,13.746,18.828,4.987c1.899-2.112,3.961-4.221,5.899-6.18
		c1.959-1.938,4.068-4,6.18-5.899c8.758-7.871-2.488-16.279-4.987-18.828C71.13,45.025,62.304,36.639,53.752,27.978z"/>
	<path fill="#658098" d="M84.589,71.439c-0.164,0.164-0.337,0.328-0.519,0.49c-2.112,1.9-4.232,3.971-6.208,5.926
		c-1.962,1.982-4.032,4.103-5.933,6.215c-0.164,0.184-0.326,0.354-0.49,0.518c-1.713,1.714-3.491,2.528-5.434,2.49
		c-4.338-0.088-8.428-4.52-10.625-6.898c-0.424-0.462-0.786-0.852-1.073-1.133c-4.615-4.52-9.223-9.205-13.679-13.736
		c-3.933-4.002-8-8.142-12.064-12.152c-12.289-12.13-12.107-16.539-11.917-21.206c0.044-1.05,0.088-2.137,0.005-3.328
		c-0.282-4.074-4.034-7.997-7.42-10.742l8.65-8.651c2.745,3.386,6.669,7.138,10.742,7.42c1.19,0.083,2.277,0.039,3.328-0.004
		c4.666-0.191,9.075-0.373,21.205,11.916c4.011,4.065,8.149,8.131,12.152,12.065c4.531,4.455,9.217,9.063,13.735,13.678
		c0.283,0.289,0.673,0.65,1.134,1.075c2.38,2.197,6.813,6.286,6.898,10.623C87.117,67.947,86.303,69.725,84.589,71.439
		L84.589,71.439z"/>
	<g>
		
			<ellipse transform="matrix(0.7071 -0.7071 0.7071 0.7071 -5.5652 13.4364)" fill="#658098" cx="13.437" cy="13.436" rx="11.25" ry="3.654"/>
		
			<ellipse transform="matrix(0.7071 -0.7071 0.7071 0.7071 -5.3708 12.9664)" fill="#8AAAC3" cx="12.967" cy="12.967" rx="11.25" ry="3.653"/>
		<g>
			<path fill="#DA832E" d="M0.126,12.491L12.49,0.126c-0.219,0.219,3.318,5.916,3.574,6.373c1.04,1.853,2.302,3.103-0.068,6.033
				c-1.358,1.68-3.45,3.657-5.251,4.693c-3.037,1.744-5.076-1.297-6.677-2.291C2.754,14.121,1.44,13.306,0.126,12.491z"/>
			
				<ellipse transform="matrix(0.7071 -0.7071 0.7071 0.7071 -2.6131 6.3084)" fill="#F0CC53" cx="6.308" cy="6.308" rx="8.743" ry="1.767"/>
		</g>
	</g>
	<path fill="#8AAAC3" d="M19.61,29.826c-0.102-0.387-2.472,7.563,13.178,22.834c15.649,15.271,26.24,27.717,32.391,27.566
		c0,0-6.372-1.734-16.742-13.236S23.237,43.785,19.61,29.826z"/>
</g>
</svg>
