<?xml version="1.0" encoding="utf-8"?>
<!-- Generator: Adobe Illustrator 16.0.0, SVG Export Plug-In . SVG Version: 6.00 Build 0)  -->
<!DOCTYPE svg PUBLIC "-//W3C//DTD SVG 1.1//EN" "http://www.w3.org/Graphics/SVG/1.1/DTD/svg11.dtd">
<svg version="1.1" id="Layer_1" xmlns="http://www.w3.org/2000/svg" xmlns:xlink="http://www.w3.org/1999/xlink" x="0px" y="0px"
	 width="79.139px" height="241.276px" viewBox="0 0 79.139 241.276" style="enable-background:new 0 0 79.139 241.276;"
	 xml:space="preserve">
<g>
	<polygon style="fill:#464047;" points="51.302,24.707 55.204,0 40.534,0 36.673,10.037 35.901,0 22.776,1.545 27.12,24.707 	"/>
	<path style="fill:#E8D315;" d="M77.595,119.287c-3.475-13.898-25.094-28.953-25.094-28.953V35.902h7.336V23.549h-7.721H27.022
		h-7.721v12.354h7.336v54.432c0,0-21.619,15.055-25.094,28.953c-3.166,12.668-0.561,100.065-0.074,115.426
		c0,0,3.162,6.563,37.135,6.563c33.971,0,39.064-6.563,39.064-6.563C78.155,219.352,80.761,131.955,77.595,119.287z"/>
</g>
</svg>
