<?xml version="1.0" encoding="utf-8"?>
<!-- Generator: Adobe Illustrator 16.0.0, SVG Export Plug-In . SVG Version: 6.00 Build 0)  -->
<!DOCTYPE svg PUBLIC "-//W3C//DTD SVG 1.1//EN" "http://www.w3.org/Graphics/SVG/1.1/DTD/svg11.dtd">
<svg version="1.1" id="Layer_1" xmlns="http://www.w3.org/2000/svg" xmlns:xlink="http://www.w3.org/1999/xlink" x="0px" y="0px"
	 width="260.189px" height="222.042px" viewBox="-124.296 -41.044 260.189 222.042"
	 style="enable-background:new -124.296 -41.044 260.189 222.042;" xml:space="preserve">
<g>
	<path style="fill:#E2AA15;" d="M96.054,23.504L79.851,22.94c0.129,0.142,0.252,0.292,0.39,0.427
		c-12.807,6.694-36.624,21.456-36.765,38.818c-0.078,9.04,2.736,17.454,7.59,24.421l73.041,0.689l0.002-0.003
		c5.005-6.897,7.967-15.294,8.042-24.366C132.295,45.566,108.747,30.413,96.054,23.504z"/>
	<path style="fill:#DA6426;" d="M51.065,86.606c0.018,0.023,0.033,0.05,0.051,0.073l-0.01,0.454l0.001,0.14l-0.104,12.464
		l72.997,0.537l0.107-12.389l-0.002-0.141v-0.449L51.065,86.606z M67.877,93.465c-0.028,3.247-2.68,5.854-5.919,5.826
		c-3.243-0.027-5.852-2.676-5.826-5.922c0.03-3.242,2.681-5.852,5.924-5.826C65.296,87.572,67.905,90.227,67.877,93.465z
		 M84.775,93.604c-0.028,3.249-2.675,5.855-5.918,5.825c-3.239-0.027-5.849-2.675-5.822-5.921c0.027-3.242,2.679-5.851,5.921-5.82
		C82.199,87.713,84.804,90.362,84.775,93.604z M101.675,93.747c-0.028,3.248-2.674,5.853-5.917,5.826
		c-3.243-0.028-5.849-2.676-5.82-5.926c0.026-3.238,2.674-5.848,5.917-5.822C99.092,87.856,101.701,90.507,101.675,93.747z
		 M118.575,93.889c-0.026,3.246-2.684,5.853-5.92,5.827c-3.242-0.03-5.852-2.675-5.827-5.926c0.028-3.24,2.68-5.849,5.925-5.817
		C115.99,87.996,118.6,90.65,118.575,93.889z"/>
	<polygon style="fill:#E2AA15;" points="50.764,128.02 123.764,128.629 124.001,100.274 51.004,99.737 	"/>
	<path style="fill:#DA6426;" d="M88.511-20.985c-2.661-0.024-4.845,2.197-4.866,4.952c-0.024,2.283,1.458,4.225,3.493,4.823
		c-3.384,0.609-5.976,3.639-6.005,7.31c-0.03,3.3,2.02,6.127,4.887,7.137c-5.237,1.05-9.22,5.799-9.266,11.532
		c-0.028,3.164,1.162,6.032,3.097,8.172l16.203,0.563c-0.002-0.002-0.006-0.003-0.007-0.004c2.205-2.14,3.598-5.166,3.628-8.541
		c0.044-5.73-3.847-10.545-9.068-11.684c2.88-0.966,4.976-3.752,5.003-7.055c0.028-3.667-2.505-6.743-5.871-7.41
		c2.033-0.563,3.537-2.479,3.559-4.763C93.317-18.707,91.182-20.964,88.511-20.985z"/>
	<path style="fill:#E2AA15;" d="M135.586,130.396l-0.409-0.005v-0.184L5.683,129.126l-0.081-0.001l-0.159,15.153
		c0.039,0.066,0.078,0.128,0.116,0.194c0.113,0.207,0.245,0.398,0.356,0.62c1.524-2.983,3.965-5.011,3.965-5.011
		s4.988,4.277,4.997,9.527l0.049,0.001l-0.348,31.388H31.87l0.349-31.244l0.057,0.001c0.088-5.25,5.151-9.443,5.151-9.443
		s4.989,4.274,4.991,9.527l0.049,0.002l-0.063,31.157h21.206l0.077-30.98l0.054,0.001c0.09-5.252,5.154-9.444,5.154-9.444
		s4.989,4.279,4.997,9.529l0.053-0.004l0.119,30.898h21.18l-0.077-30.718l0.042-0.002c0.098-5.248,5.157-9.439,5.157-9.439
		s4.987,4.276,5,9.528h0.042l-0.343,30.631h30.829L135.586,130.396z"/>
	<path style="fill:#F9BB14;" d="M-3.168,149.458l0.047-0.001c0.092-5.245,5.153-9.439,5.153-9.439s1.574,1.367,2.958,3.475
		c0.159,0.248,0.307,0.519,0.454,0.786l0.159-15.153l-0.491-0.005l-128.608-1.075l-0.024,3.287l-0.774,49.666h29.904l0.738-32.296
		l0.048,0.001c0.095-5.252,5.154-9.439,5.154-9.439s4.994,4.276,4.998,9.523l0.048,0.004l-1.226,32.207h21.772l0.674-32.032
		l0.045,0.001c0.095-5.25,5.158-9.443,5.158-9.443s4.995,4.277,5.003,9.528l0.05-0.003l-0.587,31.949h21.549l0.243-31.768
		l0.055-0.001c0.091-5.252,5.158-9.444,5.158-9.444s4.99,4.278,4.994,9.53l0.052-0.003l-0.272,31.686H-3.4L-3.168,149.458z"/>
	<path style="fill:#694031;" d="M49.754,93.361c0.039-4.796-6.687-8.994-10.313-10.894c0.626-0.595,1.026-1.428,1.035-2.366
		c0.012-1.58-1.099-2.913-2.588-3.233c0.818-0.261,1.412-1.034,1.422-1.947c0.003-1.01-0.715-1.865-1.669-2.05
		c0.574-0.156,1.003-0.681,1.007-1.312c0.007-0.766-0.605-1.387-1.366-1.392c-0.76-0.006-1.387,0.602-1.394,1.369
		c-0.004,0.628,0.422,1.156,0.996,1.331c-0.965,0.169-1.697,1.007-1.708,2.019c-0.003,0.912,0.574,1.697,1.391,1.97
		c-1.497,0.295-2.62,1.608-2.635,3.191c-0.009,0.938,0.371,1.776,0.987,2.384c-3.649,1.843-10.463,5.922-10.501,10.718
		c-0.02,2.511,0.792,4.852,2.183,6.778l-0.209,27.87l20.824,0.176l0.247-27.873C48.893,98.196,49.729,95.871,49.754,93.361z
		 M31.384,102.862c-0.007,0.927-0.764,1.681-1.697,1.671c-0.916-0.01-1.662-0.771-1.655-1.697c0.007-0.926,0.766-1.672,1.685-1.665
		C30.65,101.179,31.391,101.938,31.384,102.862z M36.218,102.904c-0.007,0.926-0.764,1.68-1.693,1.671
		c-0.923-0.007-1.669-0.772-1.666-1.698c0.009-0.926,0.768-1.672,1.693-1.666C35.482,101.221,36.226,101.979,36.218,102.904z
		 M41.041,102.942c-0.007,0.931-0.769,1.682-1.688,1.673c-0.93-0.01-1.673-0.771-1.661-1.7c0.007-0.923,0.759-1.67,1.688-1.66
		C40.299,101.261,41.049,102.019,41.041,102.942z M45.874,102.985c-0.009,0.928-0.768,1.678-1.694,1.67
		c-0.924-0.008-1.672-0.772-1.664-1.698c0.007-0.925,0.769-1.673,1.69-1.663C45.138,101.3,45.88,102.061,45.874,102.985z"/>
	<path style="fill:#F26E25;" d="M-74.683-22.372c-2.666-0.024-4.839,2.193-4.861,4.948c-0.02,2.283,1.444,4.218,3.48,4.813
		c-3.385,0.607-5.973,3.644-6.001,7.305c-0.029,3.3,2.018,6.107,4.887,7.126c-5.249,1.052-9.221,5.795-9.267,11.515
		c-0.031,3.367,1.308,6.417,3.482,8.577l15.991,0.24c-0.059-0.031-0.12-0.066-0.179-0.097c2.206-2.126,3.598-5.157,3.627-8.527
		c0.048-5.721-3.844-10.527-9.067-11.669c2.879-0.972,4.974-3.743,5.003-7.045c0.032-3.66-2.511-6.739-5.873-7.402
		c2.035-0.561,3.54-2.471,3.559-4.754C-69.878-20.093-72.01-22.351-74.683-22.372z"/>
	<path style="fill:#F9BB14;" d="M-66.971,22.152l-15.991-0.24c0.003,0.004,0.007,0.007,0.01,0.012
		c-12.813,6.681-36.617,21.417-36.76,38.765c-0.071,8.59,2.488,16.595,6.917,23.348l73.943,1.361
		c4.856-6.823,7.736-15.061,7.81-23.971C-30.895,44.161-54.238,29.09-66.971,22.152z"/>
	<path style="fill:#F26E25;" d="M-112.795,84.037c0.241,0.367,0.464,0.747,0.718,1.105l-0.009,0.985l-0.103,12.392l72.984,0.932
		l0.107-12.716l0.008-0.982c0.083-0.115,0.157-0.239,0.238-0.354L-112.795,84.037z M-95.319,92.077
		c-0.03,3.248-2.675,5.856-5.919,5.829c-3.238-0.029-5.846-2.68-5.82-5.925c0.029-3.143,2.548-5.646,5.659-5.764l0.519,0.003
		C-97.763,86.39-95.294,88.94-95.319,92.077z M-78.422,92.222c-0.027,3.244-2.673,5.855-5.918,5.825
		c-3.244-0.024-5.849-2.678-5.822-5.921c0.027-3.145,2.549-5.651,5.661-5.768l0.519,0.003
		C-80.869,86.533-78.398,89.08-78.422,92.222z M-61.521,92.361c-0.03,3.246-2.678,5.855-5.921,5.828
		c-3.243-0.029-5.844-2.68-5.818-5.924c0.026-3.139,2.541-5.648,5.658-5.767l0.518,0.005
		C-63.974,86.675-61.494,89.219-61.521,92.361z M-44.619,92.503c-0.028,3.245-2.682,5.853-5.927,5.827
		c-3.235-0.029-5.844-2.682-5.817-5.925c0.023-3.141,2.54-5.649,5.658-5.767l0.521,0.005C-47.07,86.814-44.593,89.362-44.619,92.503
		z"/>
	<polygon style="fill:#F9BB14;" points="-112.424,126.64 -39.437,127.249 -39.205,99.451 -112.188,98.52 	"/>
	<path style="fill:#F26E25;" d="M7.105-41.041c-0.016-0.002-0.028-0.004-0.041-0.003c-0.19,0-0.357,0.055-0.533,0.096
		c-0.99,0.237-1.746,1.085-1.754,2.145c-0.008,1.044,0.692,1.916,1.639,2.196c-1.588,0.274-2.805,1.642-2.817,3.312
		c-0.014,1.506,0.949,2.779,2.302,3.244c-2.46,0.482-4.329,2.63-4.351,5.237c-0.016,1.54,0.623,2.917,1.633,3.913
		c-0.016,0.009-0.036,0.019-0.052,0.027l4.002,0.103l0.204-20.218C7.257-41,7.188-41.038,7.105-41.041z"/>
	<path style="fill:#F9BB14;" d="M3.132-20.874c-6.018,3.046-17.127,9.729-17.195,17.597c-0.034,4.115,1.288,7.952,3.589,11.129
		l-0.939,119.632l16.533,0.136l0.493,0.005L7.134-20.771L3.132-20.874z M-2.617,12.672c-0.012,1.519-1.258,2.744-2.777,2.733
		c-1.525-0.012-2.748-1.259-2.737-2.778c0.013-1.524,1.26-2.747,2.785-2.737C-3.834,9.905-2.604,11.147-2.617,12.672z M5.315,12.74
		c-0.012,1.517-1.26,2.744-2.786,2.728c-1.518-0.01-2.744-1.255-2.727-2.775c0.012-1.523,1.254-2.75,2.775-2.734
		C4.102,9.969,5.326,11.214,5.315,12.74z"/>
	<path style="fill:#DA6426;" d="M9.317-38.764c0.007-1.16-0.87-2.075-1.979-2.225L7.134-20.771l3.789,0.097
		c-0.102-0.054-0.215-0.116-0.313-0.169c1.036-0.977,1.69-2.343,1.697-3.881c0.023-2.605-1.81-4.784-4.25-5.308
		c1.356-0.441,2.333-1.7,2.345-3.205c0.011-1.668-1.176-3.056-2.757-3.359C8.591-36.857,9.306-37.721,9.317-38.764z"/>
	<path style="fill:#E2AA15;" d="M27.56-2.932c0.065-7.757-10.618-14.535-16.638-17.742l-3.789-0.097L5.613,127.624h0.084
		l17.026,0.143l1.065-119.63C26.134,5,27.521,1.188,27.56-2.932z M13.247,12.804c-0.018,1.522-1.255,2.747-2.778,2.735
		c-1.525-0.016-2.75-1.262-2.736-2.779c0.01-1.524,1.259-2.749,2.778-2.733C12.035,10.036,13.257,11.278,13.247,12.804z
		 M21.174,12.872c-0.012,1.52-1.252,2.745-2.776,2.732c-1.528-0.011-2.747-1.26-2.736-2.779c0.01-1.523,1.257-2.749,2.783-2.734
		C19.968,10.102,21.187,11.35,21.174,12.872z"/>
	<path style="fill:#774939;" d="M-23.947,72.54c0.008-0.761-0.6-1.38-1.372-1.386c-0.758-0.008-1.38,0.599-1.39,1.366
		c-0.003,0.635,0.416,1.165,0.998,1.336c-0.965,0.159-1.703,1-1.71,2.018c-0.004,0.913,0.577,1.693,1.391,1.97
		c-1.496,0.303-2.631,1.607-2.644,3.187c-0.008,0.935,0.375,1.777,0.996,2.382c-3.649,1.843-10.458,5.93-10.496,10.731
		c-0.023,2.506,0.788,4.836,2.18,6.775l-0.205,26.359l20.831,0.171l0.23-26.354c1.434-1.917,2.272-4.232,2.293-6.742
		c0.04-4.803-6.688-8.999-10.312-10.902c0.629-0.593,1.026-1.429,1.036-2.366c0.008-1.577-1.101-2.902-2.601-3.23
		c0.828-0.261,1.426-1.03,1.432-1.949c0.01-1.013-0.711-1.865-1.672-2.042C-24.386,73.704-23.953,73.178-23.947,72.54z
		 M-31.214,103.857c-0.009,0.919-0.761,1.66-1.685,1.652c-0.933-0.011-1.671-0.762-1.665-1.683c0.008-0.932,0.759-1.674,1.691-1.664
		C-31.948,102.17-31.207,102.924-31.214,103.857z M-26.384,103.896c-0.006,0.92-0.763,1.661-1.694,1.652
		c-0.921-0.007-1.667-0.763-1.659-1.683c0.008-0.931,0.765-1.672,1.687-1.665C-27.121,102.211-26.377,102.963-26.384,103.896z
		 M-21.56,103.936c-0.006,0.923-0.762,1.662-1.686,1.657c-0.925-0.009-1.677-0.762-1.668-1.685c0.01-0.935,0.773-1.674,1.697-1.666
		C-22.293,102.249-21.553,103.005-21.56,103.936z M-16.728,103.976c-0.011,0.922-0.765,1.663-1.691,1.654
		c-0.923-0.008-1.67-0.762-1.664-1.681c0.008-0.933,0.767-1.675,1.694-1.668C-17.461,102.291-16.72,103.045-16.728,103.976z"/>
</g>
</svg>
