<?xml version="1.0" encoding="utf-8"?>
<!-- Generator: Adobe Illustrator 16.0.0, SVG Export Plug-In . SVG Version: 6.00 Build 0)  -->
<!DOCTYPE svg PUBLIC "-//W3C//DTD SVG 1.1//EN" "http://www.w3.org/Graphics/SVG/1.1/DTD/svg11.dtd">
<svg version="1.1" id="Layer_1" xmlns="http://www.w3.org/2000/svg" xmlns:xlink="http://www.w3.org/1999/xlink" x="0px" y="0px"
	 width="241.554px" height="189.887px" viewBox="-103.887 -36.889 241.554 189.887"
	 style="enable-background:new -103.887 -36.889 241.554 189.887;" xml:space="preserve">
<g>
	<path style="fill:#785033;" d="M17.73,38.202c-2.886,0-5.693,0.418-7.945,1.3c-6.949,2.728-15.627,6.437-19.599,9.376
		c-6.061,4.477-11.211,9.989-14.603,16.867c-3.986,8.104-3.05,15.2,2.651,21.966h40.002V38.215
		C18.067,38.212,17.899,38.202,17.73,38.202z"/>
	<path style="fill:#69462C;" d="M57.924,66.255c-2.243-4.282-5.278-8.233-8.585-11.787c-4.975-5.332-12.643-9.854-19.982-13.751
		c-2.971-1.58-7.098-2.439-11.121-2.501v49.496h37.288C60.892,81.196,61.96,73.928,57.924,66.255z"/>
	<path style="fill:#785033;" d="M-82.901-26.015c1.692-2.47,2.17-5.198,1.586-7.732c-1.015-4.373-8.441-4.137-9.21,0.436
		c-0.404,2.442,0.258,5.082,1.953,7.998c0.034,0.056,0.052,0.138,0.084,0.201h5.067C-83.281-25.401-83.117-25.701-82.901-26.015z"/>
	<path style="fill:#FDBB16;" d="M-80.346,0.138c-0.013-3.537,0-7.043,0.125-10.54c0.144-3.98-0.513-7.598-2.781-10.853
		c-0.947-1.367-1.082-2.499-0.418-3.857h-5.067c0.363,0.781,0.499,2.045,0.102,2.609c-3.191,4.493-3.542,9.506-3.326,14.769
		c0.22,5.166,0.051,10.36,0.037,15.538c0,0.418-0.022,0.83-0.047,1.239c-0.011,0.146-0.032,0.284-0.052,0.419h12.49
		C-79.892,7.91-80.331,4.365-80.346,0.138z"/>
	<path style="fill:#0D99A1;" d="M-78.504,18.066c0.209-0.537,3.204-8.444,1.724-8.133c-0.621,0.13-1.183,0.251-1.757,0.37
		c-0.264,0.056-0.518-0.255-0.749-0.84h-12.49c-0.087,0.494-0.247,0.883-0.407,0.943c-0.177,0.065-0.282,0.105-0.383,0.09
		c-0.847-0.166-1.692-0.365-2.544-0.556c-0.364-0.083,1.395,9.11,2.101,12.989h13.141C-79.585,21.287-79.154,19.707-78.504,18.066z"
		/>
	<path style="fill:#FDBB16;" d="M-80.223,25.975c0.055-1.063,0.185-2.063,0.354-3.045h-13.141c0.165,0.902,0.272,1.518,0.283,1.661
		c0.2,3.187,0.046,6.375-0.204,9.56c-0.261,3.273-1.105,6.095-2.178,7.703h16.915c-0.757-1.47-1.369-4.106-1.664-7.165
		C-80.137,31.788-80.378,28.89-80.223,25.975z"/>
	<path style="fill:#785033;" d="M-75.832,50.539c1.1-1.195,1.507-2.419,1.624-3.665c0.214-2.242-1.222-3.937-2.588-3.774
		c-0.492,0.057-0.969-0.408-1.397-1.248h-16.915c-0.654,0.985-1.397,1.517-2.142,1.422c-1.961-0.25-3.768,1.697-2.667,4.051
		c0.542,1.152,1.369,2.248,2.52,3.264h21.526C-75.857,50.572-75.846,50.555-75.832,50.539z"/>
	<path style="fill:#0D99A1;" d="M-21.766,87.711c0.169,0.202,0.33,0.403,0.508,0.604c0.325,0.367,0.64,0.895,1,1.352
		c0.571,0.722,0.571,0.882-0.385,0.882c-0.643,0-1.183,0-1.727,0c-9.558,0-19.107,0.433-28.652,0.453
		c-3.242,0.009-3.916,0.929-3.931,4.168c-0.014,5.359-0.001,11.826-0.001,17.188c0,0.502-0.103,0.969-0.275,1.412
		c-1.119,2.831-5.531,4.443-9.789,4.69c-5.919,0.349-9.131-7.554-9.004-11.986c0.081-2.689,0.095-5.369-0.491-7.992
		c-1.467-6.59-3.09-11.861-3.15-18.711c-0.059-7.91-0.027-15.843,0.104-23.763c0.023-1.827,0.543-4.136,1.688-5.418h-21.526
		c0.143,0.124,0.268,0.253,0.418,0.374c1.262,1.016,2.667,3.434,2.698,5.224c0.24,14.19,1.049,27.375-2.188,41.126
		c-0.624,2.646-1.059,5.749-1.333,8.866c-0.437,4.94-2.629,9.04-4.711,10.495c-1.018,0.706-1.374,1.805-1.374,4.181
		c0,5.891,0,11.777,0,17.674c0,2.11,0,12.335,0,14.469c2.446,0,25.192,0,48.658,0c25.996,0,52.872,0,53.998,0
		c0.052-0.595,0.393-5.356,0.393-5.978c0-20.865,8.077-37.769,17.861-37.769c0.234,0,0.475,0.021,0.708,0.036
		c0.169,0.018,0.337,0.054,0.506,0.079V87.711H-21.766z"/>
	<path style="fill:#0B8C92;" d="M133.759,116.67c-0.54-0.158,0.272-15.369,0.063-16.625c-1.156-6.677-2.961-11.594-2.978-18.573
		c-0.032-7.924-0.012-15.849,0.121-23.77c0.024-1.334,0.412-3.009,1.131-4.201h-17.852c0.52,1.205,0.77,2.655,0.793,3.902
		c0.135,8.71,0.186,17.424,0.061,26.145c-0.096,7.152-3.479,13.472-3.642,20.443c-0.18,8.068-0.069,14.323-9.586,14.893
		c-3.642,0.236-11.448-0.609-12.979-5.076c-0.171-0.496-0.285-1.024-0.285-1.615c0-0.188-0.21-6.957-0.21-7.527
		c0.072-5.349,0.025-3.348,0.025-8.703c0-4.522-0.408-5.412-4.819-5.412c-9.284,0-18.574,0-27.848,0
		c-0.513,0-1.032,0.12-1.618,0.199c-0.888,0.137-1.192-0.378-0.605-0.921c0.388-0.362,0.712-0.649,1.037-1.009
		c0.333-0.367,0.649-0.734,0.955-1.107H18.236v21.656c9.31,1.541,18.909,23.807,16.297,43.631c4.865,0,30.047,0,54.358,0
		c23.077,0,45.367,0,48.752,0c0-2.128,0-10.839,0-12.949c0-5.894,0-11.78,0-17.677C137.644,117.949,138.213,117.949,133.759,116.67z
		"/>
	<path style="fill:#69462C;" d="M127.992-31.798c-0.765-4.571-8.192-4.808-9.205-0.432c-0.535,2.321-0.162,4.814,1.211,7.119h6.733
		C127.908-27.515,128.34-29.729,127.992-31.798z"/>
	<path style="fill:#E1AB25;" d="M129.09,9.313c-0.008-5.178-0.146-10.365,0.071-15.535c0.216-5.262-0.123-10.273-3.307-14.767
		c-0.436-0.611-0.248-2.066,0.184-2.817c0.259-0.442,0.486-0.877,0.693-1.307h-6.733c0.12,0.204,0.237,0.408,0.373,0.609
		c1.23,1.791,1.257,3.101,0.106,4.76c-2.261,3.26-2.924,6.872-2.78,10.854c0.124,3.499,0.133,7.002,0.124,10.539
		c-0.013,3.17-0.26,5.958-0.64,7.812h11.912C129.094,9.414,129.09,9.363,129.09,9.313z"/>
	<path style="fill:#0B8C92;" d="M130.662,18.95c1.7-3.924,0.984-7.372,0.337-7.214c-0.376,0.1-0.747,0.188-1.169,0.276
		c-0.099,0.017-0.173-0.031-0.33-0.102c-0.176-0.075-0.362-0.672-0.381-1.356c-0.013-0.358-0.022-0.724-0.025-1.093h-11.912
		c-0.318,1.552-0.729,2.452-1.17,2.355c-0.959-0.205-1.815,1.66-1.061,3.981c0.375,1.181,0.891,2.282,1.484,4.166
		c0.285,0.909,0.364,1.93,0.375,2.965h12.108C129.466,21.578,130.093,20.264,130.662,18.95z"/>
	<path style="fill:#E1AB25;" d="M127.876,26.161c0.242-1.123,0.622-2.186,1.043-3.231h-12.108c0.012,1.193-0.072,2.411-0.067,3.501
		c0,0.695-0.078,4.971-0.119,9.23c-0.042,3.56-0.503,6.568-1.241,8.012h13.337c-1.127-1.431-1.91-4.467-1.825-8.14
		C126.969,32.383,127.207,29.246,127.876,26.161z"/>
	<path style="fill:#69462C;" d="M134.46,48.576c-0.306-2.409-2.287-4.162-4.173-4.019c-0.559,0.042-1.094-0.282-1.567-0.883h-13.337
		c-0.319,0.625-0.691,0.962-1.104,0.91c-1.361-0.167-2.799,1.521-2.6,3.756c0.127,1.244,0.525,2.458,1.632,3.649
		c0.381,0.41,0.686,0.934,0.935,1.512h17.852c0.245-0.41,0.531-0.765,0.854-1.029C134.427,51.284,134.626,49.974,134.46,48.576z"/>
</g>
</svg>
