<?xml version="1.0" encoding="utf-8"?>
<!-- Generator: Adobe Illustrator 16.0.0, SVG Export Plug-In . SVG Version: 6.00 Build 0)  -->
<!DOCTYPE svg PUBLIC "-//W3C//DTD SVG 1.1//EN" "http://www.w3.org/Graphics/SVG/1.1/DTD/svg11.dtd">
<svg version="1.1" id="Layer_1" xmlns="http://www.w3.org/2000/svg" xmlns:xlink="http://www.w3.org/1999/xlink" x="0px" y="0px"
	 width="98.083px" height="236.964px" viewBox="9.31 -25.545 98.083 236.964"
	 style="enable-background:new 9.31 -25.545 98.083 236.964;" xml:space="preserve">
<g>
	<path style="fill:#E2AA15;" d="M60.876,130.919L60.633,120c-1.547,3.79-3.078,7.621-4.559,11.499l2.781,4.638
		C59.515,134.394,60.198,132.657,60.876,130.919z"/>
	<path style="fill:#F9BB14;" d="M62.028,182.406c-0.654,1.942-1.252,3.779-1.809,5.546c-0.009,0.032-0.021,0.063-0.071,2.342
		l2.247-0.221L62.028,182.406z"/>
	<path style="fill:#F26E25;" d="M19.521,72.567c-5.745,53.683,1.379,98.016,5.486,117.481L9.31,190.07l0.02,21.349l53.341-0.053
		l-0.238-21.407l-2.856,0.024l-12.297,0.004c-0.951-1.354-1.957-2.905-2.918-4.379c0.007-0.021,0.01-0.049,0.013-0.072l-3.238-5.524
		c-0.025,0.098-0.044,0.198-0.067,0.296c-1.202-2.046-2.415-4.069-3.355-6.1c-1.576-3.338-3.731-8.562-6.023-14.234
		c0.002-0.037,0.013-0.076,0.019-0.114l-2.852-7.206c-0.005,0.013-0.009,0.025-0.012,0.039c-1.456-3.761-2.883-7.508-4.146-10.833
		c-0.47-6.35-0.729-13.224-0.888-20.332c0.018-0.074,0.034-0.146,0.05-0.227l0.088-18.326c-0.007,0.034-0.018,0.065-0.026,0.096
		c0.071-3.08,0.069-6.04,0.244-9.213c0.348,1.234,0.873,2.535,1.349,3.864c-0.001,0.006-0.003,0.014-0.006,0.02l2.54,6.062
		c0.008-0.024,0.013-0.053,0.019-0.079c0.228,0.4,0.368,0.8,0.58,1.252c1.525,2.945,4.933,9.631,9.017,17.389
		c-0.026,0.074-0.046,0.146-0.074,0.219l2.78,5.059c0.013-0.051,0.03-0.094,0.047-0.143c3.303,6.184,6.911,12.653,10.389,18.389
		c-0.031,0.084-0.057,0.168-0.087,0.254l2.863,4.588c0.027-0.072,0.052-0.148,0.076-0.225c0.201,0.262,0.389,0.625,0.551,0.898
		c2.381,3.658,4.92,7.94,7.396,12.323l-0.533-23.848c-0.128-0.21-0.248-0.419-0.376-0.63c-0.619-1.02-1.224-2.049-1.852-3.094
		c0-0.005,0.005-0.011,0.007-0.019l-2.781-4.638c-0.002,0.005-0.002,0.005-0.005,0.006c-3.768-6.259-7.308-12.415-10.604-18.31
		c0.006-0.018,0.013-0.031,0.021-0.046l-2.693-4.978c-0.003,0.013-0.011,0.026-0.014,0.039l2.87,5.604l-2.87-5.604
		c-0.007,0.013-0.012,0.026-0.016,0.038c-3.817-7.069-7.176-13.738-9.852-19.896c0.007-0.011,0.012-0.023,0.016-0.041l-2.383-5.851
		c-0.003,0.004-0.003,0.008-0.006,0.015c-0.048-0.125-0.092-0.247-0.138-0.371l-0.191-0.473l0.191,0.473
		c-1.234-3.213-2.313-6.333-3.042-9.198c-0.392-1.554-0.739-2.959-1.045-4.26c1.735-13.984,4.445-27.565,7.958-39.992
		c0.922,7.025,2.971,18.117,7.479,26.838c-0.017,0.03,0.031,0.17,0.016,0.201l2.518,4.44c0.018-0.043,0.037-0.089,0.058-0.128
		c2.814,4.609,6.583,10.932,10.712,18.023c-0.011,0.031-0.024,0.063-0.036,0.094l2.597,4.826c0.042-0.104,0.086-0.207,0.13-0.308
		c0.706,1.211,1.421,2.445,2.135,3.681l-0.542-24.443c-3.032-5.686-5.715-11.086-8.013-15.989c0.009-0.013,0.017-0.028,0.024-0.044
		l-2.994-6.287l2.994,6.287c0.026-0.046,0.048-0.089,0.074-0.136l-2.245-4.641c-0.011,0.021-0.021,0.04-0.031,0.061
		C43.07,27.585,40.073,18.72,40.073,18.72L46.15,8.038l3.361,8.769l5.834-9.84c0,0,1.189,3.303,2.907,6.512l-0.866-38.844
		C46.067-22.535,25.663,15.386,19.521,72.567z"/>
	<path style="fill:#F9BB14;" d="M23.951,102.975l-0.088,18.326c1.254-5.992,2.649-11.85,4.188-17.498l-2.54-6.062
		C24.974,99.478,24.462,101.224,23.951,102.975z"/>
	<polygon style="fill:#9B509D;" points="63.514,69.226 63.563,69.32 63.566,69.315 	"/>
	<path style="fill:#E2AA15;" d="M60.633,120l0.243,10.919c3.328-8.507,6.817-16.885,10.231-24.715l-2.649-4.57
		C65.87,107.461,63.228,113.65,60.633,120z"/>
	<path style="fill:#DA6426;" d="M57.387-25.365l0.866,38.844c0.218,0.407,0.443,0.813,0.676,1.211
		c0.576,0.968,1.581,2.758,2.93,5.208c-0.021,0.024-0.041,0.057-0.057,0.083l2.226,4.286c0.042-0.065,0.09-0.144,0.133-0.209
		c2.271,4.044,5.099,9.231,8.631,15.508c-0.033,0.06-0.066,0.13-0.095,0.188l2.523,4.444c0.009-0.018,0.019-0.035,0.023-0.052
		l-2.999-5.639l2.999,5.639c0.017-0.024,0.028-0.052,0.04-0.079c1.702,3.06,3.487,6.258,5.43,9.767
		c2.028,3.572,3.718,7.131,5.275,10.594c-0.02,0.039-0.048,0.085-0.067,0.129l2.073,5.255c0.041-0.086,0.093-0.188,0.134-0.276
		c1.131,2.824,2.128,5.601,2.944,8.097c0.933,9.548,1.359,18.635,1.58,27.445c-0.019,0.045-0.047,0.103-0.063,0.148l0.154,10.481
		c0.036-0.09,0.076-0.195,0.119-0.285c-0.033,4.602-0.096,9.127-0.267,13.423c-0.735-2.057-1.643-4.294-2.578-6.671
		c0.024-0.056,0.046-0.109,0.069-0.168l-2.352-5.385c-0.005,0.011-0.013,0.021-0.017,0.031l2.53,6.213l-2.53-6.213
		c-0.013,0.026-0.021,0.053-0.031,0.076c-2.833-6.59-6.473-14.242-10.992-23.022c0.019-0.039,0.03-0.072,0.047-0.109l-2.428-4.909
		c-0.04,0.086-0.073,0.164-0.114,0.245c-3.056-5.704-6.427-11.889-10.199-18.536c-0.169-0.325-0.341-0.599-0.507-0.922
		c0.023-0.053,0.05-0.102,0.068-0.154l-0.05-0.095l-2.833-4.786l2.833,4.786l-2.504-4.643c-0.036,0.079-0.072,0.152-0.11,0.233
		c-0.535-0.994-1.045-1.96-1.561-2.938l0.542,24.443c2.892,4.999,5.836,10.146,8.645,15.152c-0.023,0.05-0.047,0.107-0.068,0.159
		l2.649,4.57c0.014-0.027,0.023-0.056,0.038-0.084c3.565,6.472,6.819,12.466,9.224,17.19c0.864,1.727,1.63,3.459,2.416,5.246
		c-0.017,0.037-0.033,0.081-0.048,0.12l2.295,5.502c0.017-0.051,0.038-0.104,0.062-0.148c2.411,6.166,4.385,12.226,5.809,17.141
		l1.961-23.594l-1.961,23.594c0.047,0.162,0.1,0.337,0.143,0.499c-1.409,14.674-3.418,26.597-5.068,34.773
		c-0.063-0.142-0.147-0.321-0.221-0.47l-3.309,9.034l3.309-9.034c-2.3-4.864-6.503-13.413-11.945-23.617
		c0.01-0.023,0.02-0.047,0.026-0.07l-2.637-4.837c-0.008,0.009-0.013,0.023-0.017,0.039c-3.085-5.622-6.451-11.587-10.107-17.609
		l0.533,23.848c1.457,2.576,2.89,5.186,4.261,7.725c-0.015,0.046-0.031,0.087-0.048,0.129l2.643,5.174
		c0.028-0.086,0.055-0.159,0.086-0.245c0.1,0.192,0.195,0.376,0.295,0.564v-0.048v0.048c2.994,5.677,5.425,10.461,6.584,12.84
		l8.288,0.39l-8.288-0.39c0.01,0.021,0.023,0.045,0.033,0.065l-13.334-0.02l0.542,21.407l44.722-0.048l-0.023-21.344l-15.682,0.013
		l-0.005-0.026c4.056-19.463,11.111-63.823,5.234-117.481c-6.354-58.1-27.409-96.308-38.601-97.996l0.002-0.024
		c0,0-0.114,0.008-0.154,0.026c-0.07-0.013-0.151-0.031-0.151-0.031l-0.076,0.042C57.76-25.477,57.572-25.412,57.387-25.365z
		 M92.854,120.205l0.331-2.125L92.854,120.205z"/>
	<path style="fill:#E2AA15;" d="M85.032,134.179l-2.295-5.502c-3.646,8.826-7.725,18.862-11.537,28.772l2.637,4.837
		C77.477,152.839,81.404,143.042,85.032,134.179z"/>
	<path style="fill:#F9BB14;" d="M49.175,41.144l2.165,4.76c2.511-4.706,5.134-9.271,7.371-13.02l-0.2-7.718
		C55.766,29.547,52.49,35.042,49.175,41.144z"/>
	<path style="fill:#E2AA15;" d="M58.51,25.166l0.2,7.718c0.043-0.068,0.086-0.146,0.129-0.217c1.933-3.23,3.732-6.102,5.342-8.575
		l-2.305-4.264c-1.007,1.522-2.038,3.216-3.208,5.091C58.615,24.998,58.563,25.09,58.51,25.166z"/>
	<path style="fill:#E2AA15;" d="M63.504,69.545c4.557-10.237,8.834-19.296,11.773-25.423l-2.528-4.653
		c-2.746,5.617-7.112,14.758-11.868,25.276L63.504,69.545z"/>
	<path style="fill:#E2AA15;" d="M76.729,93.761c4.423-9.709,8.588-18.394,11.431-24.163l-2.19-5.278
		c-2.613,5.15-6.937,14.127-11.752,24.558L76.729,93.761z"/>
	<path style="fill:#E2AA15;" d="M87.662,116.666l2.402,5.525c0.954-2.249,1.946-4.826,2.784-6.74l-0.259-10.226
		C91.447,107.859,89.674,111.84,87.662,116.666z"/>
	<path style="fill:#F9BB14;" d="M42.794,108.172l2.693,4.978c3.843-10.33,8.285-20.842,12.379-30.418l-2.941-4.984
		C50.843,87.219,46.725,97.778,42.794,108.172z"/>
	<path style="fill:#F9BB14;" d="M30.545,82.461l2.383,5.851c3.537-10.262,7.532-19.726,11.46-28.175l-2.642-4.568
		C37.91,63.608,34.087,72.694,30.545,82.461z"/>
	<path style="fill:#E2AA15;" d="M68.574,176.54l-2.711-5.101c-1.388,3.812-2.692,7.572-3.835,10.967l0.124,7.6l2.435,0.121
		C65.699,184.676,67.113,180.634,68.574,176.54z"/>
	<path style="fill:#F9BB14;" d="M41.067,180.361l3.352,5.37c1.682-10.397,5.003-22.614,9.167-35.002l-2.863-4.588
		C46.592,157.991,43.147,169.919,41.067,180.361z"/>
	<path style="fill:#F9BB14;" d="M28.858,152.653l2.852,7.206c1.753-9.691,4.907-20.997,8.748-32.437l-2.895-5.294
		C33.987,132.562,30.926,143.302,28.858,152.653z"/>
</g>
</svg>
