<?xml version="1.0" encoding="utf-8"?>
<!-- Generator: Adobe Illustrator 16.0.0, SVG Export Plug-In . SVG Version: 6.00 Build 0)  -->
<!DOCTYPE svg PUBLIC "-//W3C//DTD SVG 1.1//EN" "http://www.w3.org/Graphics/SVG/1.1/DTD/svg11.dtd">
<svg version="1.1" id="Layer_1" xmlns="http://www.w3.org/2000/svg" xmlns:xlink="http://www.w3.org/1999/xlink" x="0px" y="0px"
	 width="133.311px" height="117.851px" viewBox="-3.147 10.282 133.311 117.851"
	 style="enable-background:new -3.147 10.282 133.311 117.851;" xml:space="preserve">
<g>
	<path style="fill:none;" d="M63.508,87.016c-1.332-1.033-2.341-2.236-3.16-3.221c-1.729-2.063-2.332-2.582-3.602-2.574
		c-1.271,0.01-1.868,0.537-3.566,2.627c-1.817,2.232-4.559,5.609-9.856,5.645c-5.299,0.033-8.088-3.305-9.932-5.512
		c-1.727-2.063-2.332-2.582-3.601-2.574c-1.271,0.01-1.867,0.537-3.564,2.629c-1.813,2.23-4.559,5.605-9.855,5.643h47.136V87.016z"
		/>
	<path style="fill:none;" d="M8.76,75.139c1.738,1.135,2.984,2.617,3.961,3.787c1.724,2.063,2.324,2.586,3.596,2.576
		s1.867-0.535,3.564-2.627c0.925-1.137,2.094-2.57,3.715-3.709H9.302C9.12,75.166,8.942,75.146,8.76,75.139z"/>
	<path style="fill:none;" d="M63.235,75.166c0.091,0.068,0.185,0.133,0.273,0.203v-0.203H63.235z"/>
	<path style="fill:none;" d="M39.667,78.736c1.729,2.066,2.332,2.584,3.602,2.576c1.271-0.008,1.867-0.535,3.566-2.625
		c0.876-1.076,1.971-2.416,3.459-3.521H36.032C37.603,76.268,38.751,77.641,39.667,78.736z"/>
	<path style="fill:#804F2A;" d="M9.302,75.166h14.294c1.561-1.094,3.541-1.918,6.139-1.936c2.671-0.02,4.701,0.818,6.297,1.936
		h14.262c1.599-1.188,3.653-2.105,6.398-2.123c2.811-0.018,4.91,0.916,6.543,2.123h0.273V50.268L34.206,73.404L5.609,50.826
		c-5.071,1.573-8.756,6.303-8.756,11.892c0,4.558,2.457,8.531,6.111,10.701c2.409,0.02,4.289,0.738,5.796,1.721
		C8.942,75.146,9.12,75.166,9.302,75.166z"/>
	<path style="fill:#FF9F00;" d="M4.903,50.268l0.706,0.558c1.167-0.362,2.407-0.558,3.693-0.558H4.903z"/>
	<path style="fill:#FF9F00;" d="M63.508,50.268H9.302c-1.286,0-2.526,0.195-3.693,0.558l28.597,22.579L63.508,50.268z"/>
	<path style="fill:#FFFE9A;" d="M63.508,50.268V10.282c-32.602,0-59.033,17.903-59.033,39.986h0.428l29.303-29.302L63.508,50.268z"
		/>
	<polygon style="fill:#FFFE9A;" points="63.508,50.268 34.206,20.966 4.903,50.268 9.302,50.268 	"/>
	<path style="fill:#A0D8B6;" d="M26.227,84.035c1.697-2.092,2.293-2.619,3.564-2.629c1.269-0.008,1.874,0.512,3.601,2.574
		c1.844,2.207,4.633,5.545,9.932,5.512c5.298-0.035,8.039-3.412,9.856-5.645c1.698-2.09,2.295-2.617,3.566-2.627
		c1.27-0.008,1.873,0.512,3.602,2.574c0.818,0.984,1.828,2.188,3.16,3.221V75.369c-0.088-0.07-0.182-0.135-0.273-0.203H50.293
		c-1.488,1.105-2.583,2.445-3.459,3.521c-1.699,2.09-2.295,2.617-3.566,2.625c-1.27,0.008-1.873-0.51-3.602-2.576
		c-0.915-1.096-2.063-2.469-3.635-3.57H23.596c-1.621,1.139-2.79,2.572-3.715,3.709c-1.697,2.092-2.293,2.617-3.564,2.627
		s-1.872-0.514-3.596-2.576c-0.977-1.17-2.223-2.652-3.961-3.787c-2.112-0.09-4.084-0.705-5.796-1.721
		c-0.059,0-0.113-0.006-0.173-0.006l0.054,8.182c1.268-0.014,1.874,0.508,3.597,2.572c0.872,1.045,1.957,2.342,3.415,3.414
		c1.626,1.197,3.722,2.117,6.515,2.098C21.668,89.641,24.415,86.266,26.227,84.035z"/>
	<path style="fill:#A0D8B6;" d="M2.964,73.418c1.712,1.016,3.684,1.631,5.796,1.721C7.253,74.156,5.374,73.438,2.964,73.418z"/>
	<path style="fill:#A0D8B6;" d="M50.293,75.166h12.941c-1.633-1.207-3.732-2.141-6.543-2.123
		C53.947,73.061,51.892,73.979,50.293,75.166z"/>
	<path style="fill:#A0D8B6;" d="M23.596,75.166h12.436c-1.596-1.117-3.626-1.955-6.297-1.936
		C27.137,73.248,25.157,74.072,23.596,75.166z"/>
	<path style="fill:#FF7845;" d="M63.508,98.832v-9.154H16.372H-1.679v9.467h12.812c0.719-0.197,1.473-0.313,2.255-0.313H63.508z"/>
	<path style="fill:#FFFE9A;" d="M11.132,99.145c-3.59,0.988-6.229,4.268-6.229,8.172v12.332c0,4.686,3.799,8.484,8.484,8.484h50.121
		V99.145H11.132z"/>
	<path style="fill:#FFFE9A;" d="M63.508,98.832H13.387c-0.782,0-1.536,0.115-2.255,0.313h52.375V98.832z"/>
	<path style="fill:#673E20;" d="M63.508,75.166h13.496c1.631-1.275,3.754-2.287,6.639-2.309c2.959-0.021,5.135,1.01,6.801,2.309
		h2.367L63.508,50.268V75.166z"/>
	<path style="fill:#673E20;" d="M121.443,50.837L92.811,75.166h10.928c1.662-1.363,3.854-2.475,6.881-2.496
		c3.102-0.023,5.338,1.111,7.033,2.496h0.063c6.875,0,12.449-5.574,12.449-12.449C130.164,57.141,126.496,52.422,121.443,50.837z"/>
	<path style="fill:#FF9F00;" d="M121.443,50.837l0.67-0.569h-4.398C119.014,50.268,120.266,50.468,121.443,50.837z"/>
	<path style="fill:#FF9F00;" d="M63.508,50.268l29.303,24.898l28.633-24.329c-1.178-0.369-2.43-0.569-3.729-0.569H63.508z"/>
	<path style="fill:#FFD35F;" d="M63.508,10.282v39.986h54.207h4.398h0.428C122.541,28.185,96.111,10.282,63.508,10.282z"/>
	<path style="fill:#42D391;" d="M124.17,80.754c-1.277,0.012-1.885-0.512-3.611-2.576c-0.768-0.916-1.701-2.027-2.906-3.012
		c-1.695-1.385-3.932-2.52-7.033-2.496c-3.027,0.021-5.219,1.133-6.881,2.496c-1.25,1.025-2.201,2.191-2.98,3.148
		c-1.701,2.092-2.301,2.619-3.574,2.627c-1.275,0.01-1.879-0.51-3.605-2.574c-0.816-0.979-1.816-2.174-3.135-3.201
		c-1.666-1.299-3.842-2.33-6.801-2.309c-2.885,0.021-5.008,1.033-6.639,2.309c-1.365,1.068-2.389,2.318-3.215,3.336
		c-1.697,2.092-2.293,2.617-3.564,2.627c-1.273,0.008-1.877-0.508-3.602-2.578c-0.813-0.971-1.807-2.158-3.115-3.182v11.646
		c1.664,1.289,3.832,2.311,6.773,2.289c5.297-0.037,8.039-3.414,9.854-5.645c1.697-2.092,2.293-2.617,3.564-2.627
		c1.273-0.008,1.879,0.508,3.604,2.576c1.848,2.211,4.635,5.543,9.936,5.51c5.303-0.037,8.047-3.412,9.863-5.645
		c1.701-2.092,2.301-2.619,3.574-2.627c1.271-0.012,1.879,0.506,3.611,2.576c1.844,2.209,4.641,5.543,9.938,5.508L124.17,80.754z"/>
	<path style="fill:#EF3522;" d="M113.629,98.832c0.781,0,1.535,0.115,2.254,0.313h12.813v-9.467H63.508v9.154H113.629z"/>
	<path style="fill:#FFD35F;" d="M122.113,119.648v-12.332c0-3.904-2.641-7.184-6.23-8.172H63.508v28.988h50.121
		C118.314,128.133,122.113,124.334,122.113,119.648z"/>
	<path style="fill:#FF9F00;" d="M63.508,98.832v0.313h52.375c-0.719-0.197-1.473-0.313-2.254-0.313H63.508z"/>
</g>
</svg>
