<?xml version="1.0" encoding="utf-8"?>
<!-- Generator: Adobe Illustrator 16.0.0, SVG Export Plug-In . SVG Version: 6.00 Build 0)  -->
<!DOCTYPE svg PUBLIC "-//W3C//DTD SVG 1.1//EN" "http://www.w3.org/Graphics/SVG/1.1/DTD/svg11.dtd">
<svg version="1.1" id="Layer_1" xmlns="http://www.w3.org/2000/svg" xmlns:xlink="http://www.w3.org/1999/xlink" x="0px" y="0px"
	 width="168.894px" height="76.275px" viewBox="0 0 168.894 76.275" style="enable-background:new 0 0 168.894 76.275;"
	 xml:space="preserve">
<g>
	<g>
		<polygon style="fill:#EC3B73;" points="128.029,43.587 43.59,43.587 53.238,0 116.599,0 		"/>
	</g>
	<g>
		<polygon style="fill:#EC3B73;" points="168.894,59.933 0,59.933 15.726,29.967 150.457,29.967 		"/>
	</g>
	<g>
		<path style="fill:#1A1A1A;" d="M65.378,58.566c0,9.78-7.925,17.709-17.706,17.709s-17.706-7.929-17.706-17.709
			c0-9.777,7.925-17.706,17.706-17.706S65.378,48.789,65.378,58.566z"/>
	</g>
	<g>
		<path style="fill:#1A1A1A;" d="M137.564,58.566c0,9.78-7.93,17.709-17.706,17.709c-9.777,0-17.706-7.929-17.706-17.709
			c0-9.777,7.929-17.706,17.706-17.706C129.635,40.86,137.564,48.789,137.564,58.566z"/>
	</g>
	<g>
		<polygon style="fill:#FFDE00;" points="73.147,27.676 50.83,27.676 60.482,5.351 73.147,5.351 		"/>
	</g>
	<g>
		<polygon style="fill:#FFDE00;" points="120.518,27.676 98.195,27.676 98.195,5.351 109.082,5.351 		"/>
	</g>
	<g>
		<rect x="78.51" y="5.351" style="fill:#FFDE00;" width="14.282" height="22.325"/>
	</g>
</g>
</svg>
