<?xml version="1.0" encoding="utf-8"?>
<!-- Generator: Adobe Illustrator 16.0.0, SVG Export Plug-In . SVG Version: 6.00 Build 0)  -->
<!DOCTYPE svg PUBLIC "-//W3C//DTD SVG 1.1//EN" "http://www.w3.org/Graphics/SVG/1.1/DTD/svg11.dtd">
<svg version="1.1" id="Layer_1" xmlns="http://www.w3.org/2000/svg" xmlns:xlink="http://www.w3.org/1999/xlink" x="0px" y="0px"
	 width="101.238px" height="82.285px" viewBox="0 0 101.238 82.285" style="enable-background:new 0 0 101.238 82.285;"
	 xml:space="preserve">
<g>
	<g>
		<g>
			<g>
				<path style="fill:#6F6F6E;" d="M28.133,75.364c-3.387,0-7.099-0.968-11.037-3.392c-5.587-3.443-8.83-7.888-9.639-13.211
					c-1.479-9.736,6.075-18.52,6.396-18.89c0.025-0.032,7.796-9.749,3.039-14.733c-1.982-2.079-4.25-3.119-6.213-2.843
					c-1.391,0.192-2.523,1.044-3.274,2.463c-0.694,1.314-0.905,2.392-0.627,3.2c0.389,1.139,1.741,1.773,1.755,1.781
					c1.658,0.745,2.438,2.696,1.719,4.367c-0.721,1.67-2.622,2.464-4.304,1.771c-0.41-0.166-4.029-1.756-5.428-5.625
					c-0.657-1.824-1.021-4.799,0.995-8.609c1.741-3.296,4.749-5.463,8.249-5.949c4.109-0.57,8.469,1.195,11.95,4.845
					c7.121,7.464,1.598,18.38-2.79,23.653c-0.104,0.122-5.903,6.931-4.876,13.595c0.515,3.331,2.655,6.115,6.544,8.51
					c11.443,7.053,18.855-3.768,19.663-5.024c0.993-1.543,3.052-2,4.597-1.014c1.546,0.986,2.009,3.033,1.027,4.584
					C43.081,69.27,36.635,75.364,28.133,75.364z"/>
			</g>
		</g>
	</g>
	<g>
		<g>
			<g>
				<g>
					<path style="fill:#D3C5C1;" d="M37.206,53.764c0,11.582,10.426,20.969,23.288,20.969V32.801
						C47.632,32.801,37.206,42.188,37.206,53.764z"/>
				</g>
			</g>
			<g>
				<g>
					<path style="fill:#F6E9E5;" d="M83.781,53.764c0-11.575-10.425-20.963-23.287-20.963v41.932
						C73.356,74.732,83.781,65.346,83.781,53.764z"/>
				</g>
			</g>
		</g>
		<g>
			<g>
				<g>
					<path style="fill:#D3C5C1;" d="M33.513,43.721c0,11.578,12.082,20.965,26.981,20.965V22.755
						C45.595,22.755,33.513,32.142,33.513,43.721z"/>
				</g>
			</g>
			<g>
				<g>
					<path style="fill:#D3C5C1;" d="M87.474,43.721c0-11.579-12.082-20.966-26.979-20.966v44.151
						C75.392,66.906,87.474,55.299,87.474,43.721z"/>
				</g>
			</g>
		</g>
		<g>
			<g>
				<g>
					<rect x="47.003" y="69.605" style="fill:#D3C5C1;" width="10.523" height="9.173"/>
				</g>
			</g>
			<g>
				<g>
					<path style="fill:#D3C5C1;" d="M44.037,82.285c0-4.544,3.685-8.228,8.228-8.228c4.545,0,8.229,3.684,8.229,8.228"/>
				</g>
			</g>
			<g>
				<g>
					<rect x="65.214" y="69.605" style="fill:#F6E9E5;" width="10.521" height="9.173"/>
				</g>
			</g>
			<g>
				<g>
					<path style="fill:#F6E9E5;" d="M62.248,82.285c0-4.544,3.684-8.228,8.225-8.228c4.548,0,8.232,3.684,8.232,8.228"/>
				</g>
			</g>
		</g>
	</g>
	<g>
		<g>
			<g>
				<g>
					<path style="fill:#6F6F6E;" d="M74.254,9.037C80.055,0.135,95.838,0,95.838,0s1.921,20.02-6.881,26.709"/>
				</g>
			</g>
			<g>
				<g>
					<path style="fill:#D76C79;" d="M91.387,4.99c0,0-7.558-0.133-12.682,5.396c-5.125,5.53,9.172,11.467,9.172,11.467
						S93.679,12.949,91.387,4.99z"/>
				</g>
			</g>
		</g>
		<g>
			<g>
				<g>
					<path style="fill:#6F6F6E;" d="M48.85,9.037C43.048,0.135,27.266,0,27.266,0s-1.922,20.02,6.879,26.709"/>
				</g>
			</g>
			<g>
				<g>
					<path style="fill:#D76C79;" d="M31.715,4.99c0,0,7.558-0.133,12.684,5.396c5.124,5.53-9.173,11.467-9.173,11.467
						S29.426,12.949,31.715,4.99z"/>
				</g>
			</g>
		</g>
	</g>
	<g>
		<g>
			<g>
				<path style="fill:#D3C5C1;" d="M60.494,38.445V2.659c0,0-5.397-0.366-13.491,2.602s-14.838,11.87-16.994,26.44
					c0,0-5.232,8.078-5.937,15.916c0,0,6.673,2.013,13.134,6.146C38.594,45.139,48.484,38.445,60.494,38.445z"/>
			</g>
		</g>
		<g>
			<g>
				<path style="fill:#F6E9E5;" d="M83.781,53.764c6.46-4.134,13.134-6.146,13.134-6.146c0-7.854-5.936-15.916-5.936-15.916
					c-2.157-14.57-8.901-23.473-16.994-26.44c-8.095-2.968-13.491-2.602-13.491-2.602v35.786
					C72.504,38.445,82.394,45.139,83.781,53.764z"/>
			</g>
		</g>
	</g>
	<g>
		<g>
			<path style="fill:#68A284;" d="M38.296,25.754c0,0,12.354-3.581,12.076,8.98C50.372,34.734,38.296,39.12,38.296,25.754"/>
		</g>
	</g>
	<g>
		<g>
			<path style="fill:#68A284;" d="M70.615,34.734c0,0,12.075,4.386,12.075-8.98C82.69,25.754,70.337,22.173,70.615,34.734"/>
		</g>
	</g>
	<g>
		<g>
			<g>
				<g>
					<path style="fill:#868686;" d="M74.529,44.124c-0.154,0-0.303-0.087-0.37-0.237c-0.093-0.205,0-0.444,0.203-0.535
						c0.73-0.328,17.942-8.009,24.403-5.278c0.205,0.086,0.301,0.323,0.215,0.528c-0.09,0.205-0.322,0.3-0.533,0.216
						c-6.136-2.603-23.577,5.192-23.753,5.271C74.639,44.114,74.584,44.124,74.529,44.124z"/>
				</g>
			</g>
		</g>
		<g>
			<g>
				<g>
					<path style="fill:#868686;" d="M78.497,47.112c-0.207,0-0.383-0.157-0.403-0.365c-0.023-0.221,0.141-0.421,0.362-0.44
						c2.092-0.214,20.489-2.04,22.552-1.041c0.201,0.1,0.288,0.34,0.19,0.539c-0.097,0.201-0.335,0.289-0.541,0.188
						c-1.406-0.679-13.996,0.298-22.12,1.117C78.523,47.111,78.507,47.112,78.497,47.112z"/>
				</g>
			</g>
		</g>
		<g>
			<g>
				<g>
					<path style="fill:#868686;" d="M95.805,54.633c-0.108,0-0.22-0.047-0.3-0.136c-1.957-2.189-11.154-2.991-14.53-3.116
						c-0.227-0.009-0.4-0.198-0.392-0.42c0.007-0.225,0.199-0.377,0.418-0.391c0.511,0.02,12.523,0.494,15.107,3.387
						c0.147,0.167,0.134,0.424-0.034,0.572C96,54.599,95.902,54.633,95.805,54.633z"/>
				</g>
			</g>
		</g>
		<g>
			<g>
				<g>
					<path style="fill:#868686;" d="M46.458,44.124c0.153,0,0.302-0.087,0.367-0.237c0.094-0.205,0.002-0.444-0.2-0.535
						c-0.733-0.328-17.943-8.009-24.404-5.278c-0.204,0.086-0.303,0.323-0.214,0.528c0.086,0.205,0.321,0.3,0.53,0.216
						c6.139-2.603,23.578,5.192,23.755,5.271C46.347,44.114,46.401,44.124,46.458,44.124z"/>
				</g>
			</g>
		</g>
		<g>
			<g>
				<g>
					<path style="fill:#868686;" d="M42.49,47.112c0.205,0,0.38-0.157,0.402-0.365c0.021-0.221-0.14-0.421-0.362-0.44
						c-2.091-0.214-20.49-2.04-22.553-1.041c-0.202,0.098-0.286,0.34-0.189,0.539c0.097,0.201,0.334,0.289,0.539,0.188
						c1.407-0.679,14,0.298,22.122,1.117C42.463,47.111,42.477,47.112,42.49,47.112z"/>
				</g>
			</g>
		</g>
		<g>
			<g>
				<g>
					<path style="fill:#868686;" d="M25.179,54.633c0.112,0,0.224-0.047,0.303-0.136c1.956-2.189,11.155-2.991,14.531-3.116
						c0.225-0.009,0.398-0.198,0.391-0.42c-0.01-0.225-0.199-0.377-0.418-0.391c-0.514,0.02-12.524,0.494-15.106,3.387
						c-0.149,0.167-0.135,0.424,0.032,0.572C24.987,54.599,25.084,54.633,25.179,54.633z"/>
				</g>
			</g>
		</g>
	</g>
	<g>
		<g>
			<g>
				<path style="fill:#D3C5C1;" d="M57.78,44.51l-6.05-4.43c-0.094-0.095-0.142-0.2-0.214-0.301
					c-7.67,2.361-13.291,7.646-14.311,13.984c1.754,1.125,3.379,2.533,5.076,3.836c3.728,2.855,7.146,4.587,18.212,4.587V45.629
					C59.519,45.635,58.535,45.266,57.78,44.51z"/>
			</g>
		</g>
		<g>
			<g>
				<path style="fill:#F6E9E5;" d="M69.425,39.764c-0.034,0.037-0.044,0.081-0.08,0.117l-6.335,4.715
					c-0.689,0.691-1.6,1.029-2.516,1.033v16.558c11.063,0,14.484-1.729,18.211-4.587c1.698-1.303,3.323-2.711,5.076-3.836
					C82.758,47.412,77.118,42.117,69.425,39.764z"/>
			</g>
		</g>
		<g>
			<g>
				<path style="fill:#3C3C3B;" d="M74.009,48.35c-0.22-0.215-0.569-0.215-0.787,0.002c-0.04,0.041-4.096,4.043-7.922,3.533
					c-1.693-0.234-3.117-1.33-4.251-3.288v-3.022c0.721-0.111,1.41-0.428,1.961-0.979l6.335-4.715
					c0.036-0.036,0.046-0.08,0.08-0.117c-2.756-0.842-5.768-1.318-8.931-1.318c-3.184,0-6.209,0.48-8.978,1.334
					c0.072,0.101,0.12,0.206,0.214,0.301l6.05,4.43c0.611,0.611,1.373,0.957,2.158,1.068v3.019c-1.13,1.951-2.559,3.058-4.248,3.288
					c-3.824,0.514-7.885-3.492-7.927-3.533c-0.217-0.219-0.566-0.219-0.785,0c-0.216,0.216-0.216,0.566-0.002,0.783
					c0.17,0.172,3.939,3.906,8.005,3.906c0.285,0,0.568-0.017,0.854-0.057c1.845-0.25,3.406-1.324,4.658-3.186
					c1.249,1.861,2.813,2.936,4.656,3.186c0.286,0.04,0.572,0.057,0.855,0.057c4.064,0,7.834-3.734,8.003-3.906
					C74.227,48.918,74.225,48.567,74.009,48.35z"/>
			</g>
		</g>
	</g>
	<g>
		<g>
			<g>
				<circle style="fill:#FFFFFF;" cx="46.394" cy="28.939" r="2.083"/>
			</g>
		</g>
		<g>
			<g>
				<circle style="fill:#FFFFFF;" cx="78.09" cy="28.939" r="2.083"/>
			</g>
		</g>
	</g>
</g>
</svg>
