<?xml version="1.0" encoding="utf-8"?>
<!-- Generator: Adobe Illustrator 16.0.0, SVG Export Plug-In . SVG Version: 6.00 Build 0)  -->
<!DOCTYPE svg PUBLIC "-//W3C//DTD SVG 1.1//EN" "http://www.w3.org/Graphics/SVG/1.1/DTD/svg11.dtd">
<svg version="1.1" id="Layer_1" xmlns="http://www.w3.org/2000/svg" xmlns:xlink="http://www.w3.org/1999/xlink" x="0px" y="0px"
	 width="33.965px" height="44.614px" viewBox="0 0 33.965 44.614" enable-background="new 0 0 33.965 44.614" xml:space="preserve">
<g>
	<g>
		<g>
			<g>
				<rect x="16.438" y="15.737" fill="#FCFCFC" width="1" height="26.85"/>
			</g>
			<g>
				<path fill="#D8695D" d="M1.674,15.263C1.674,6.833,8.508,0,16.938,0s15.264,6.833,15.264,15.263"/>
			</g>
		</g>
		<g>
			<path fill="#C9544B" d="M16.25,0c0,0-5.217,6.493-6,9.104c-0.443,1.475-0.75,6.159-0.75,6.159h13.875
				c0,0,0.002-4.573-0.634-6.235C21.918,6.875,16.25,0,16.25,0z"/>
		</g>
	</g>
	<g>
		<g>
			<g>
				<rect x="7.25" y="33.12" fill="#9C815B" width="20.75" height="1.801"/>
			</g>
			<g>
				<rect x="16.25" y="34.392" fill="#9C815B" width="1.375" height="9.692"/>
			</g>
			<g>
				<path fill="#9C815B" d="M13.875,44.36c0-0.979,1.371-1.773,3.063-1.773S20,43.38,20,44.36"/>
			</g>
		</g>
		<g>
			<g>
				<rect x="33.061" y="27.891" fill="#9C815B" width="0.904" height="16.469"/>
			</g>
			<g>
				<rect x="27.548" y="36.983" fill="#9C815B" width="5.513" height="1.475"/>
			</g>
			<g>
				<rect x="27.548" y="37.482" fill="#9C815B" width="0.833" height="7.132"/>
			</g>
		</g>
		<g>
			<g>
				<rect y="27.891" fill="#9C815B" width="0.904" height="16.469"/>
			</g>
			<g>
				<rect x="0.904" y="37.031" fill="#9C815B" width="5.512" height="1.427"/>
			</g>
			<g>
				<rect x="5.583" y="37.482" fill="#9C815B" width="0.833" height="7.132"/>
			</g>
		</g>
	</g>
</g>
</svg>
