<?xml version="1.0" encoding="utf-8"?>
<!-- Generator: Adobe Illustrator 16.0.0, SVG Export Plug-In . SVG Version: 6.00 Build 0)  -->
<!DOCTYPE svg PUBLIC "-//W3C//DTD SVG 1.1//EN" "http://www.w3.org/Graphics/SVG/1.1/DTD/svg11.dtd">
<svg version="1.1" id="Layer_1" xmlns="http://www.w3.org/2000/svg" xmlns:xlink="http://www.w3.org/1999/xlink" x="0px" y="0px"
	 width="98.226px" height="109.432px" viewBox="0 0 98.226 109.432" style="enable-background:new 0 0 98.226 109.432;"
	 xml:space="preserve">
<g>
	<g>
		<g>
			<g>
				<path style="fill:#CB8128;" d="M35.446,86.624c-1.859,0-3.366,1.508-3.366,3.367c0,6.802-5.534,12.337-12.337,12.337
					c-3.531,0-6.716-1.494-8.964-3.88c-0.63,0.641-1.505,1.044-2.473,1.044c-1.913,0-3.468-1.558-3.468-3.47
					c0-1.705,1.236-3.117,2.859-3.408c-0.086-0.389-0.154-0.782-0.201-1.185c-3.34,1.508-5.56,0.68-6.76-0.17
					c0.346,5.238,2.826,9.894,6.562,13.132c0.876-1.895,3.011-2.954,5.089-2.396c1.121,0.303,2.057,1.024,2.631,2.03
					c0.572,1.009,0.717,2.178,0.406,3.3l-2.596-0.723c0.119-0.423,0.064-0.864-0.15-1.242c-0.219-0.379-0.57-0.651-0.994-0.767
					c-0.891-0.235-1.8,0.287-2.043,1.17c-0.035,0.122-0.023,0.24-0.028,0.364c2.935,1.854,6.405,2.933,10.13,2.933
					c10.515,0,19.07-8.555,19.07-19.069C38.813,88.132,37.306,86.624,35.446,86.624z M19.153,106.733
					c-0.979,0-1.771-0.794-1.771-1.77c0-0.979,0.793-1.773,1.771-1.773s1.771,0.794,1.771,1.773
					C20.925,105.939,20.132,106.733,19.153,106.733z"/>
			</g>
		</g>
		<g>
			<g>
				<path style="fill:#CB8128;" d="M7.53,96.022c0,0.428,0.35,0.774,0.776,0.774c0.392,0,0.703-0.296,0.755-0.673
					c-0.283-0.493-0.539-1.004-0.755-1.536v0.658C7.88,95.246,7.53,95.595,7.53,96.022z"/>
			</g>
		</g>
		<g>
			<g>
				<path style="fill:#4B190D;" d="M7.497,91.43c-0.057-0.475-0.092-0.952-0.092-1.438c0-1.416,0.238-2.805,0.707-4.126
					c0.621-1.755-0.295-3.678-2.048-4.299c-1.751-0.621-3.675,0.293-4.298,2.046c-0.727,2.049-1.094,4.195-1.094,6.379
					c0,0.426,0.036,0.849,0.064,1.269C1.938,92.109,4.157,92.938,7.497,91.43z"/>
			</g>
		</g>
		<g>
			<g>
				<path style="fill:#4B190D;" d="M4.839,96.022c0,1.912,1.555,3.47,3.468,3.47c0.968,0,1.843-0.403,2.473-1.044
					c-0.661-0.7-1.234-1.483-1.718-2.324c-0.052,0.377-0.363,0.673-0.755,0.673c-0.427,0-0.776-0.347-0.776-0.774
					s0.35-0.776,0.776-0.776v-0.658c-0.256-0.633-0.46-1.292-0.608-1.974C6.075,92.905,4.839,94.317,4.839,96.022z"/>
			</g>
		</g>
		<g>
			<g>
				<path style="fill:#4B190D;" d="M11.685,104.594c0.424,0.115,0.775,0.388,0.994,0.767c0.215,0.378,0.27,0.819,0.15,1.242
					l2.596,0.723c0.311-1.122,0.166-2.291-0.406-3.3c-0.574-1.006-1.51-1.728-2.631-2.03c-2.078-0.558-4.213,0.502-5.089,2.396
					c0.728,0.633,1.495,1.219,2.314,1.736c0.005-0.124-0.007-0.242,0.028-0.364C9.885,104.881,10.794,104.358,11.685,104.594z"/>
			</g>
		</g>
		<g>
			<g>
				<path style="fill:#4B190D;" d="M19.153,103.19c-0.979,0-1.771,0.794-1.771,1.773c0,0.976,0.793,1.77,1.771,1.77
					s1.771-0.794,1.771-1.77C20.925,103.984,20.132,103.19,19.153,103.19z"/>
			</g>
		</g>
	</g>
	<g>
		<g>
			<g>
				<g>
					<path style="fill:#F39E2B;" d="M66.94,85.164c0-1.912,1.557-3.47,3.471-3.47v2.694c-0.429,0-0.777,0.348-0.777,0.775
						c0,0.429,0.349,0.775,0.777,0.775c0.426,0,0.773-0.347,0.773-0.775h2.4c1.975-3.585,3.191-7.644,3.38-11.982
						c-5.587,8.364-15.698,13.979-27.292,14.008v12.151c1.674,0,3.303-0.172,4.893-0.459v1.731
						c-2.626,2.046-4.324,5.231-4.324,8.818h22.371c0-3.587-1.696-6.772-4.32-8.818v-8.622c1.158-1.081,2.212-2.272,3.168-3.538
						c-0.332,0.106-0.68,0.18-1.049,0.18C68.497,88.633,66.94,87.077,66.94,85.164z"/>
				</g>
			</g>
			<g>
				<g>
					<path style="fill:#4B190D;" d="M71.185,85.164c0,0.429-0.348,0.775-0.773,0.775c-0.429,0-0.777-0.347-0.777-0.775
						c0-0.428,0.349-0.775,0.777-0.775v-2.694c-1.914,0-3.471,1.558-3.471,3.47c0,1.913,1.557,3.469,3.471,3.469
						c0.369,0,0.717-0.073,1.049-0.18c0.787-1.041,1.49-2.142,2.125-3.289H71.185z"/>
				</g>
			</g>
		</g>
		<g>
			<g>
				<g>
					<path style="fill:none;" d="M34.097,83.552c-0.725-0.365-1.432-0.755-2.119-1.168C32.665,82.797,33.372,83.187,34.097,83.552z"
						/>
				</g>
			</g>
			<g>
				<g>
					<path style="fill:none;" d="M29.868,81.006c-0.615-0.438-1.208-0.9-1.785-1.378C28.66,80.107,29.253,80.568,29.868,81.006z"/>
				</g>
			</g>
			<g>
				<g>
					<path style="fill:none;" d="M31.89,82.33c-0.674-0.408-1.332-0.836-1.969-1.289C30.558,81.494,31.216,81.92,31.89,82.33z"/>
				</g>
			</g>
			<g>
				<g>
					<path style="fill:none;" d="M27.789,79.383c-0.563-0.477-1.114-0.967-1.64-1.479C26.675,78.416,27.226,78.906,27.789,79.383z"
						/>
				</g>
			</g>
			<g>
				<g>
					<path style="fill:#CB8128;" d="M28.083,79.628c-0.1-0.079-0.196-0.162-0.294-0.245C27.887,79.466,27.983,79.549,28.083,79.628z
						"/>
				</g>
			</g>
			<g>
				<g>
					<path style="fill:#CB8128;" d="M34.126,83.568C34.126,83.567,34.126,83.567,34.126,83.568c-0.01-0.007-0.02-0.012-0.029-0.017
						C34.106,83.558,34.116,83.563,34.126,83.568z"/>
				</g>
			</g>
			<g>
				<g>
					<path style="fill:#CB8128;" d="M22.323,71.989c0,0.497,0.049,0.978,0.076,1.467c0.358,0.523,0.735,1.035,1.129,1.536
						c-0.394-0.501-0.771-1.013-1.129-1.536c0.227,4.213,1.424,8.157,3.34,11.652c0.668-0.083,1.348,0.028,1.963,0.334
						c0.832,0.413,1.45,1.124,1.747,2.002c0.294,0.878,0.229,1.818-0.183,2.649c-0.007,0.012-0.017,0.022-0.023,0.035
						c0.577,0.648,1.182,1.271,1.816,1.862v8.622c-2.624,2.046-4.32,5.231-4.32,8.818h22.366c0-3.587-1.694-6.772-4.32-8.818v-1.731
						c1.589,0.287,3.216,0.459,4.888,0.459V87.189c-0.027,0-0.057,0.003-0.082,0.003c-5.618,0-10.884-1.322-15.465-3.625
						c0,0,0,0,0,0.001c-0.01-0.005-0.02-0.011-0.029-0.017c-0.725-0.365-1.432-0.755-2.119-1.168
						c-0.031-0.019-0.06-0.037-0.088-0.054c-0.674-0.41-1.332-0.836-1.969-1.289c-0.02-0.014-0.035-0.024-0.053-0.035
						c-0.615-0.438-1.208-0.898-1.785-1.378c-0.1-0.079-0.196-0.162-0.294-0.245c-0.563-0.477-1.114-0.967-1.64-1.479
						c0.525,0.512,1.076,1.002,1.64,1.479c0.098,0.083,0.194,0.166,0.294,0.245c0.577,0.478,1.17,0.94,1.785,1.378
						c0.018,0.011,0.035,0.023,0.053,0.035c0.637,0.453,1.295,0.881,1.969,1.289c0.028,0.017,0.057,0.035,0.088,0.054
						c0.688,0.413,1.395,0.803,2.119,1.168c0.01,0.005,0.02,0.01,0.029,0.016c-0.307-1.814-0.58-3.725-0.879-5.729
						c2.15,0.652,4.435,1.274,6.861,1.844c-0.002,0.006-0.004,0.01-0.008,0.016c1.828,0.913,3.73,1.942,5.705,3.1
						c1.262,0.741,2.547,1.518,3.867,2.367V73.239V44.637C34.568,44.637,22.323,56.885,22.323,71.989z M23.685,75.176
						c0.35,0.439,0.707,0.87,1.081,1.289C24.392,76.046,24.034,75.615,23.685,75.176z M24.882,76.582
						c0.396,0.439,0.804,0.868,1.227,1.285C25.686,77.45,25.278,77.021,24.882,76.582z"/>
				</g>
			</g>
			<g>
				<g>
					<path style="fill:#CB8128;" d="M31.978,82.384c-0.031-0.019-0.06-0.037-0.088-0.054C31.918,82.347,31.946,82.365,31.978,82.384
						z"/>
				</g>
			</g>
			<g>
				<g>
					<path style="fill:#CB8128;" d="M29.921,81.041c-0.018-0.012-0.035-0.024-0.053-0.035
						C29.886,81.017,29.901,81.027,29.921,81.041z"/>
				</g>
			</g>
			<g>
				<g>
					<path style="fill:#4B190D;" d="M29.449,87.444c-0.297-0.878-0.915-1.589-1.747-2.002c-0.615-0.306-1.295-0.417-1.963-0.334
						c0.988,1.802,2.148,3.494,3.504,5.021c0.007-0.013,0.017-0.023,0.023-0.035C29.679,89.263,29.743,88.322,29.449,87.444z"/>
				</g>
			</g>
		</g>
		<g>
			<g>
				<path style="fill:#CB8128;" d="M49.673,44.637v28.603h0.004v11.925c1.322-0.85,2.604-1.626,3.871-2.367
					c1.973-1.157,3.874-2.187,5.703-3.1c2.479-0.581,4.807-1.212,6.992-1.88c-0.287,1.943-0.545,3.808-0.832,5.572
					c4.744-2.456,8.729-5.978,11.554-10.208c0.019-0.398,0.063-0.79,0.063-1.192C77.027,56.885,64.782,44.637,49.673,44.637z"/>
			</g>
		</g>
		<g>
			<g>
				<path style="fill:#D5D2B1;" d="M49.677,78.433h-0.004l0,0c-1.32-0.852-14.519-0.812-16.664-1.468
					c0.295,2.006,0.811,4.789,1.117,6.604c1.566,9.308,4.048,15.772,15.547,15.772V87.189c5.732-0.017,11.1-1.398,15.738-3.8
					c0.287-1.765,0.613-4.345,0.9-6.286C64.126,77.771,50.999,77.581,49.677,78.433z"/>
			</g>
		</g>
		<g>
			<g>
				<path style="fill:#F6F3CF;" d="M65.411,83.39c-4.639,2.401-10.006,3.783-15.738,3.8v12.151
					C61.514,99.341,63.876,92.798,65.411,83.39z"/>
			</g>
		</g>
		<g>
			<g>
				<path style="fill:#4B190D;" d="M30.526,76.848c-0.705-0.6-1.592-0.882-2.527-0.813c-0.922,0.076-1.762,0.505-2.361,1.211
					c-0.6,0.707-0.887,1.604-0.813,2.529c0.075,0.923,0.505,1.76,1.213,2.36c0.632,0.539,1.419,0.827,2.239,0.827
					c0.096,0,0.189-0.004,0.287-0.011l-0.219-2.686c-0.203,0.014-0.407-0.047-0.564-0.182c-0.158-0.134-0.255-0.321-0.27-0.528
					c-0.018-0.208,0.047-0.409,0.179-0.567c0.135-0.158,0.323-0.252,0.528-0.268c0.205-0.025,0.41,0.046,0.566,0.179
					c0.159,0.135,0.254,0.323,0.27,0.529l2.686-0.218C31.665,78.288,31.236,77.447,30.526,76.848z"/>
			</g>
		</g>
		<g>
			<g>
				<circle style="fill:#4B190D;" cx="31.978" cy="84.998" r="1.772"/>
			</g>
		</g>
		<g>
			<g>
				<circle style="fill:#4B190D;" cx="73.903" cy="79.551" r="1.771"/>
			</g>
		</g>
	</g>
	<g>
		<g>
			<path style="fill:#07171B;" d="M44.675,73.986c0.006,0.008,0.014,0.019,0.017,0.024c-0.003-0.008-0.011-0.017-0.013-0.026
				C44.679,73.984,44.675,73.984,44.675,73.986z"/>
		</g>
	</g>
	<g>
		<g>
			<path style="fill:#A84720;" d="M49.606,72.684c0.014,0,0.025-0.003,0.035-0.003c-0.01,0-0.021-0.002-0.035-0.002V72.684z"/>
		</g>
	</g>
	<g>
		<g>
			<g>
				<g>
					<g>
						<g>
							<circle style="fill:#AF5B2B;" cx="24.576" cy="14.567" r="14.567"/>
						</g>
					</g>
					<g>
						<g>
							<circle style="fill:#4B190D;" cx="24.576" cy="14.567" r="8.398"/>
						</g>
					</g>
				</g>
				<g>
					<g>
						<g>
							<circle style="fill:#F39E2B;" cx="73.904" cy="14.567" r="14.567"/>
						</g>
					</g>
					<g>
						<g>
							<circle style="fill:#4B190D;" cx="73.905" cy="14.567" r="8.399"/>
						</g>
					</g>
				</g>
			</g>
			<g>
				<g>
					<g>
						<circle style="fill:#F39E2B;" cx="24.576" cy="14.567" r="14.567"/>
					</g>
				</g>
				<g>
					<g>
						<circle style="fill:#4B190D;" cx="24.576" cy="14.567" r="8.398"/>
					</g>
				</g>
			</g>
			<g>
				<g>
					<path style="fill:#F39E2B;" d="M92.03,58.768c0.109,0.063,0.221,0.126,0.328,0.19c0,0-4.576-6.42-6.769-15.35
						c0-19.315-8.671-37.065-35.979-37.065v42.09v9.527c-0.007,0.004-0.013,0.005-0.019,0.01l0.019,7.367v1.757h0.002l0.032,11.929
						C72.571,82.162,93.19,60.048,93.19,60.048C92.886,59.601,92.493,59.173,92.03,58.768z"/>
				</g>
			</g>
			<g>
				<g>
					<path style="fill:#CB8128;" d="M13.676,43.608c-2.191,8.93-6.769,15.35-6.769,15.35c0.108-0.064,0.22-0.127,0.329-0.19
						c-0.463,0.405-0.856,0.833-1.159,1.28c0,0,10.879,11.657,25.615,16.917c0-0.618,0-2.395,0-7.014
						c0-5.245,0.64-7.819,1.214-9.079c5.999,2.373,10.579,5.248,11.769,7.754c1.484-0.824,3.169-1.332,4.982-1.332V48.633V6.543
						C22.349,6.543,13.676,24.293,13.676,43.608z"/>
				</g>
			</g>
			<g>
				<g>
					<path style="fill:#D5D2B1;" d="M37.864,57.367c-1.473,0.605-2.881,1.359-4.068,2.321c0,0-2.104,0.753-2.104,10.263
						c0,4.619,0,6.396,0,7.014c5.555,1.983,11.32,3.604,17.932,3.604l0.052-22.398C43.482,55.122,41.011,56.373,37.864,57.367z"/>
				</g>
			</g>
			<g>
				<g>
					<path style="fill:#F6F3CF;" d="M61.374,57.367c1.472,0.605,2.884,1.359,4.07,2.321c0,0,2.103,0.753,2.103,10.263
						c0,4.619,0,6.396,0,7.014c-5.554,1.983-11.681,3.604-17.931,3.604L49.563,58.17C55.755,55.122,58.229,56.373,61.374,57.367z"/>
				</g>
			</g>
			<g>
				<g>
					<g>
						<path style="fill:#4B190D;" d="M25.458,37.097c0,0,14.981-4.343,14.645,10.89C40.103,47.986,25.458,53.304,25.458,37.097z"/>
					</g>
				</g>
				<g>
					<g>
						<circle style="fill:#68A284;" cx="32.954" cy="42.833" r="5.555"/>
					</g>
				</g>
				<g>
					<g>
						<circle style="fill:#FFFFFF;" cx="34.812" cy="40.54" r="1.915"/>
					</g>
				</g>
				<g>
					<g>
						<path style="fill:#4B190D;" d="M73.903,37.097c0,0-14.979-4.343-14.641,10.89C59.263,47.986,73.903,53.304,73.903,37.097z"/>
					</g>
				</g>
				<g>
					<g>
						<circle style="fill:#68A284;" cx="66.313" cy="42.833" r="5.555"/>
					</g>
				</g>
				<g>
					<g>
						<circle style="fill:#FFFFFF;" cx="68.496" cy="40.54" r="1.916"/>
					</g>
				</g>
			</g>
			<g>
				<g>
					<g>
						<g>
							<path style="fill:#D76C79;" d="M48.736,63.532c-0.833-0.151-1.543-0.515-2.013-1.064c-2.211-2.591-5.127-4.386-6.684-5.264
								c1.517-0.46,4.654-1.173,9.552-1.173c4.831,0,7.996,0.717,9.525,1.176c-2.77,1.694-5.188,3.571-6.878,5.345
								c-0.475,0.498-1.107,0.829-1.879,0.98H48.736z"/>
						</g>
					</g>
					<g>
						<g>
							<path style="fill:#4B190D;" d="M49.592,56.586c3.722,0,6.434,0.431,8.149,0.831c-2.367,1.535-4.383,3.155-5.902,4.751
								c-0.385,0.404-0.9,0.676-1.533,0.809h-1.469c-0.754-0.143-1.321-0.435-1.691-0.868c-1.794-2.104-4.031-3.689-5.672-4.702
								C43.189,57.009,45.888,56.586,49.592,56.586 M49.592,55.476c-7.383,0-10.909,1.619-10.885,1.619c0,0,0,0,0.001,0
								c0.084,0.12,4.55,2.167,7.594,5.734c0.637,0.746,1.542,1.105,2.435,1.258h1.677c0.821-0.151,1.614-0.509,2.229-1.153
								c3.178-3.335,7.739-5.813,7.78-5.859C60.422,57.074,56.892,55.476,49.592,55.476L49.592,55.476z"/>
						</g>
					</g>
				</g>
				<g>
					<g>
						<path style="fill:#4B190D;" d="M48.918,67.785c-1.37,2.365-3.103,3.708-5.152,3.987c-4.636,0.622-9.56-4.235-9.61-4.284
							c-0.262-0.266-0.688-0.266-0.951,0c-0.264,0.26-0.264,0.689-0.002,0.95c0.205,0.207,4.777,4.737,9.707,4.737
							c0.344,0,0.689-0.021,1.035-0.069c2.236-0.305,4.131-1.605,5.647-3.863c1.517,2.258,3.411,3.559,5.646,3.863
							c0.347,0.049,0.693,0.069,1.038,0.069c4.929,0,9.499-4.53,9.704-4.737c0.264-0.261,0.262-0.69,0-0.952
							c-0.265-0.26-0.691-0.263-0.955,0.002c-0.048,0.049-4.965,4.9-9.604,4.284c-2.053-0.286-3.781-1.614-5.157-3.987v-3.664
							c0.052-0.008,0.1-0.024,0.149-0.034h-1.677c0.062,0.011,0.122,0.029,0.182,0.037V67.785z"/>
					</g>
				</g>
			</g>
			<g>
				<g>
					<g>
						<g>
							<g>
								<path style="fill:#8E6451;" d="M0.673,68.156c-0.162,0-0.326-0.058-0.455-0.177c-0.272-0.251-0.293-0.676-0.041-0.949
									c13.3-14.511,33.943-6.389,34.149-6.303c0.345,0.138,0.513,0.529,0.374,0.875c-0.139,0.343-0.533,0.509-0.877,0.37
									c-0.2-0.08-19.992-7.847-32.654,5.967C1.036,68.082,0.854,68.156,0.673,68.156z"/>
							</g>
						</g>
					</g>
					<g>
						<g>
							<g>
								<path style="fill:#8E6451;" d="M5.052,72.392c-0.168,0-0.338-0.063-0.469-0.19c-0.267-0.26-0.273-0.685-0.016-0.95
									c12.457-12.844,28.705-8.521,28.867-8.477c0.357,0.102,0.568,0.471,0.468,0.828c-0.099,0.359-0.463,0.572-0.829,0.47
									c-0.154-0.043-15.652-4.141-27.539,8.114C5.402,72.324,5.228,72.392,5.052,72.392z"/>
							</g>
						</g>
					</g>
					<g>
						<g>
							<g>
								<path style="fill:#8E6451;" d="M10.647,77.104c-0.134,0-0.27-0.038-0.389-0.122c-0.303-0.214-0.375-0.635-0.162-0.938
									c8.63-12.26,23.08-11.068,23.221-11.055c0.371,0.034,0.643,0.361,0.607,0.733c-0.035,0.368-0.341,0.643-0.732,0.606
									c-0.139-0.011-13.823-1.121-21.994,10.489C11.067,77.005,10.858,77.104,10.647,77.104z"/>
							</g>
						</g>
					</g>
				</g>
				<g>
					<g>
						<g>
							<g>
								<path style="fill:#8E6451;" d="M97.553,68.156c-0.183,0-0.362-0.074-0.495-0.217c-12.662-13.813-32.455-6.046-32.654-5.967
									c-0.348,0.139-0.738-0.027-0.878-0.37c-0.14-0.346,0.028-0.737,0.372-0.875c0.207-0.086,20.852-8.208,34.15,6.303
									c0.252,0.273,0.233,0.698-0.04,0.949C97.88,68.099,97.716,68.156,97.553,68.156z"/>
							</g>
						</g>
					</g>
					<g>
						<g>
							<g>
								<path style="fill:#8E6451;" d="M93.173,72.392c-0.175,0-0.35-0.067-0.482-0.205c-11.906-12.272-27.383-8.157-27.539-8.114
									c-0.36,0.102-0.729-0.11-0.828-0.468c-0.101-0.359,0.109-0.729,0.468-0.83c0.163-0.045,16.407-4.367,28.867,8.477
									c0.257,0.266,0.251,0.69-0.016,0.95C93.513,72.328,93.343,72.392,93.173,72.392z"/>
							</g>
						</g>
					</g>
					<g>
						<g>
							<g>
								<path style="fill:#8E6451;" d="M87.578,77.104c-0.213,0-0.42-0.099-0.552-0.286c-8.172-11.614-21.86-10.5-21.994-10.489
									c-0.388,0.026-0.698-0.238-0.732-0.606c-0.033-0.372,0.238-0.699,0.609-0.733c0.143-0.014,14.591-1.207,23.22,11.055
									c0.212,0.304,0.142,0.725-0.163,0.938C87.849,77.065,87.713,77.104,87.578,77.104z"/>
							</g>
						</g>
					</g>
				</g>
			</g>
		</g>
		<g>
			<g>
				<path style="fill:none;" d="M33.254,63.424c-2.66-1.589-5.612-2.938-8.677-3.735c3.361,1.121,6.221,2.457,8.656,3.866
					C33.239,63.512,33.246,63.468,33.254,63.424z"/>
			</g>
		</g>
		<g>
			<g>
				<path style="fill:#4B190D;" d="M62.136,22.294c-0.746-0.549-1.662-0.777-2.578-0.635l0.408,2.661
					c0.205-0.027,0.407,0.021,0.572,0.145c0.168,0.122,0.277,0.303,0.311,0.506c0.063,0.423-0.23,0.82-0.651,0.884
					c-0.437,0.062-0.82-0.229-0.884-0.648l-2.662,0.405c0.261,1.713,1.742,2.945,3.428,2.945c0.172,0,0.348-0.013,0.523-0.039
					c1.893-0.288,3.193-2.061,2.906-3.952C63.369,23.65,62.882,22.843,62.136,22.294z"/>
			</g>
		</g>
		<g>
			<g>
				<path style="fill:#4B190D;" d="M55.864,32.349c-0.958-0.663-2.115-0.908-3.254-0.699c-1.141,0.209-2.131,0.852-2.787,1.807
					c-0.061,0.088-0.094,0.18-0.147,0.27v4.413c0.31,0.524,0.724,0.998,1.258,1.366l1.53-2.215c-0.75-0.519-0.939-1.555-0.422-2.309
					c0.248-0.363,0.623-0.605,1.056-0.685c0.432-0.08,0.87,0.014,1.234,0.268c0.751,0.518,0.94,1.554,0.424,2.308l2.218,1.524
					C58.331,36.425,57.834,33.71,55.864,32.349z"/>
			</g>
		</g>
		<g>
			<g>
				<path style="fill:#4B190D;" d="M49.606,38.003v-4.152C48.884,35.174,48.917,36.733,49.606,38.003z"/>
			</g>
		</g>
		<g>
			<g>
				<path style="fill:#4B190D;" d="M49.606,11.933c0.014,0,0.025,0,0.035,0c0.011,0,0.022,0,0.034,0l0,0v3.621
					c0.672,0.41,1.452,0.662,2.296,0.662c2.436,0,4.418-1.981,4.418-4.42h-2.692c0,0.952-0.774,1.726-1.726,1.726
					c-0.949,0-1.725-0.773-1.725-1.726c0-0.949,0.775-1.722,1.725-1.722V7.38c-2.438,0-4.417,1.981-4.417,4.416
					c0,1.566,0.823,2.934,2.052,3.72V11.933L49.606,11.933z"/>
			</g>
		</g>
		<g>
			<g>
				<path style="fill:#4B190D;" d="M49.606,11.933c0.014,0,0.025,0,0.035,0C49.632,11.933,49.62,11.933,49.606,11.933L49.606,11.933
					z"/>
			</g>
		</g>
		<g>
			<g>
				<path style="fill:#4B190D;" d="M49.642,11.933c0.011,0,0.022,0,0.034,0l0,0C49.664,11.933,49.652,11.933,49.642,11.933z"/>
			</g>
		</g>
		<g>
			<g>
				<path style="fill:#4B190D;" d="M62.056,15.513l1.625-2.146c-0.34-0.259-0.406-0.747-0.15-1.087
					c0.258-0.341,0.744-0.41,1.086-0.152c0.34,0.26,0.408,0.745,0.15,1.089l2.15,1.622c1.152-1.524,0.85-3.703-0.676-4.857
					c-1.524-1.153-3.705-0.851-4.858,0.673C60.229,12.182,60.531,14.359,62.056,15.513z"/>
			</g>
		</g>
		<g>
			<g>
				<path style="fill:#4B190D;" d="M68.569,25.455l1.873-1.934c-0.307-0.298-0.314-0.789-0.017-1.096
					c0.297-0.31,0.791-0.314,1.098-0.018c0.147,0.143,0.233,0.337,0.235,0.543c0.005,0.208-0.074,0.404-0.219,0.552l1.934,1.876
					c0.646-0.665,0.992-1.544,0.978-2.47c-0.015-0.927-0.388-1.792-1.056-2.436c-1.373-1.33-3.571-1.295-4.904,0.078
					C67.161,21.927,67.196,24.126,68.569,25.455z"/>
			</g>
		</g>
		<g>
			<g>
				<path style="fill:#4B190D;" d="M78.676,31.915c0.179-0.108,0.384-0.138,0.587-0.088c0.201,0.051,0.371,0.176,0.477,0.354
					c0.105,0.178,0.138,0.386,0.09,0.586c-0.053,0.201-0.178,0.369-0.357,0.478l1.387,2.309c0.794-0.478,1.355-1.233,1.582-2.132
					c0.223-0.9,0.085-1.83-0.393-2.627c-0.477-0.794-1.234-1.354-2.132-1.581c-0.899-0.224-1.832-0.084-2.626,0.393
					c-1.64,0.983-2.174,3.117-1.19,4.758l2.31-1.385C78.188,32.612,78.308,32.135,78.676,31.915z"/>
			</g>
		</g>
		<g>
			<g>
				<path style="fill:#4B190D;" d="M26.88,53.854c0.316-0.287,0.81-0.264,1.098,0.051c0.139,0.154,0.21,0.354,0.2,0.561
					c-0.01,0.205-0.099,0.396-0.254,0.536c-0.314,0.288-0.808,0.263-1.097-0.054l-1.99,1.814c0.684,0.752,1.625,1.131,2.566,1.131
					c0.835,0,1.671-0.297,2.333-0.902c0.687-0.621,1.088-1.475,1.13-2.399c0.045-0.924-0.274-1.813-0.899-2.5
					c-1.287-1.411-3.483-1.513-4.899-0.229L26.88,53.854z"/>
			</g>
		</g>
		<g>
			<g>
				<path style="fill:#4B190D;" d="M19.153,46.303c1.914,0,3.469-1.556,3.469-3.468h-2.694c0,0.428-0.347,0.773-0.774,0.773
					s-0.777-0.346-0.777-0.773s0.35-0.776,0.777-0.776v-2.692c-1.913,0-3.471,1.555-3.471,3.469
					C15.683,44.747,17.24,46.303,19.153,46.303z"/>
			</g>
		</g>
		<g>
			<g>
				<path style="fill:#4B190D;" d="M31.737,17.986c0.48,0.233,0.995,0.354,1.515,0.354c0.38,0,0.765-0.066,1.136-0.194l-0.88-2.545
					c-0.196,0.067-0.409,0.054-0.593-0.036c-0.188-0.089-0.326-0.246-0.395-0.444c-0.066-0.195-0.054-0.405,0.035-0.593
					c0.091-0.186,0.248-0.324,0.447-0.394c0.193-0.067,0.404-0.055,0.592,0.037c0.186,0.088,0.324,0.248,0.393,0.443l2.545-0.877
					c-0.301-0.876-0.926-1.583-1.759-1.987c-0.835-0.407-1.775-0.464-2.649-0.161c-0.877,0.303-1.584,0.927-1.988,1.76
					c-0.406,0.835-0.462,1.775-0.16,2.649C30.278,16.875,30.902,17.582,31.737,17.986z"/>
			</g>
		</g>
		<g>
			<g>
				<path style="fill:#4B190D;" d="M41.901,28.555c1.912,0,3.467-1.555,3.467-3.467h-2.691c0,0.427-0.35,0.776-0.775,0.776
					c-0.428,0-0.777-0.35-0.777-0.776c0-0.429,0.35-0.775,0.777-0.775v-2.694c-1.916,0-3.469,1.558-3.469,3.47
					S39.985,28.555,41.901,28.555z"/>
			</g>
		</g>
		<g>
			<g>
				<path style="fill:#4B190D;" d="M31.847,34.116c0.43,0.142,0.873,0.215,1.313,0.215c0.644,0,1.283-0.153,1.875-0.453
					c2.049-1.036,2.889-3.555,1.874-5.611c-0.495-1.006-1.349-1.752-2.405-2.106c-1.061-0.354-2.191-0.271-3.19,0.236l1.216,2.403
					c0.352-0.177,0.751-0.207,1.119-0.085c0.371,0.124,0.669,0.387,0.844,0.74c0.366,0.741,0.065,1.648-0.672,2.02
					c-0.352,0.181-0.752,0.211-1.121,0.087c-0.367-0.125-0.666-0.387-0.84-0.74L29.44,32.01
					C29.936,33.016,30.79,33.763,31.847,34.116z"/>
			</g>
		</g>
		<g>
			<g>
				<path style="fill:#4B190D;" d="M81.628,48.821c0,0.426-0.35,0.775-0.776,0.775s-0.776-0.35-0.776-0.775
					c0-0.429,0.35-0.776,0.776-0.776v-2.692c-1.913,0-3.47,1.558-3.47,3.469c0,1.913,1.557,3.468,3.47,3.468
					s3.468-1.555,3.468-3.468H81.628z"/>
			</g>
		</g>
		<g>
			<g>
				<circle style="fill:#4B190D;" cx="72.714" cy="53.153" r="1.772"/>
			</g>
		</g>
		<g>
			<g>
				<path style="fill:#4B190D;" d="M68.351,55.479c0-0.979-0.792-1.773-1.771-1.773c-0.978,0-1.771,0.794-1.771,1.773
					c0,0.976,0.793,1.768,1.771,1.768C67.559,57.246,68.351,56.454,68.351,55.479z"/>
			</g>
		</g>
		<g>
			<g>
				<circle style="fill:#4B190D;" cx="24.577" cy="22.965" r="1.772"/>
			</g>
		</g>
		<g>
			<g>
				<circle style="fill:#4B190D;" cx="19.774" cy="27.314" r="1.772"/>
			</g>
		</g>
		<g>
			<g>
				<circle style="fill:#4B190D;" cx="19.774" cy="53.154" r="1.771"/>
			</g>
		</g>
		<g>
			<g>
				<circle style="fill:#4B190D;" cx="11.235" cy="56.697" r="1.771"/>
			</g>
		</g>
		<g>
			<g>
				<path style="fill:#4B190D;" d="M49.563,20.894c-0.979,0-1.771,0.795-1.771,1.771c0,0.979,0.793,1.773,1.771,1.773
					c0.018,0,0.028-0.01,0.043-0.01v-3.527C49.592,20.901,49.581,20.894,49.563,20.894z"/>
			</g>
		</g>
		<g>
			<g>
				<path style="fill:#4B190D;" d="M51.335,22.665c0-0.938-0.736-1.688-1.659-1.748v3.498
					C50.599,24.354,51.335,23.605,51.335,22.665z"/>
			</g>
		</g>
		<g>
			<g>
				<path style="fill:#4B190D;" d="M49.676,20.917c-0.023-0.002-0.044-0.014-0.069-0.016v3.527c0.025,0,0.046-0.012,0.069-0.014
					V20.917z"/>
			</g>
		</g>
		<g>
			<g>
				<circle style="fill:#4B190D;" cx="43.232" cy="38.396" r="1.771"/>
			</g>
		</g>
		<g>
			<g>
				<circle style="fill:#4B190D;" cx="47.555" cy="44.637" r="1.772"/>
			</g>
		</g>
		<g>
			<g>
				<circle style="fill:#4B190D;" cx="65.412" cy="32.428" r="1.772"/>
			</g>
		</g>
		<g>
			<g>
				<circle style="fill:#4B190D;" cx="53.697" cy="46.567" r="1.772"/>
			</g>
		</g>
		<g>
			<g>
				<path style="fill:#4B190D;" d="M53.697,50.534c-0.979,0-1.772,0.796-1.772,1.771c0,0.979,0.794,1.773,1.772,1.773
					c0.978,0,1.771-0.795,1.771-1.773C55.468,51.33,54.675,50.534,53.697,50.534z"/>
			</g>
		</g>
		<g>
			<g>
				<path style="fill:#4B190D;" d="M37.864,50.534c-0.979,0-1.771,0.796-1.771,1.771c0,0.979,0.793,1.773,1.771,1.773
					s1.771-0.795,1.771-1.773C39.636,51.33,38.843,50.534,37.864,50.534z"/>
			</g>
		</g>
		<g>
			<g>
				<circle style="fill:#4B190D;" cx="45.793" cy="51.382" r="1.772"/>
			</g>
		</g>
	</g>
</g>
</svg>
