<?xml version="1.0" encoding="utf-8"?>
<!-- Generator: Adobe Illustrator 16.0.0, SVG Export Plug-In . SVG Version: 6.00 Build 0)  -->
<!DOCTYPE svg PUBLIC "-//W3C//DTD SVG 1.1//EN" "http://www.w3.org/Graphics/SVG/1.1/DTD/svg11.dtd">
<svg version="1.1" id="Layer_1" xmlns="http://www.w3.org/2000/svg" xmlns:xlink="http://www.w3.org/1999/xlink" x="0px" y="0px"
	 width="103.586px" height="140.194px" viewBox="0 0 103.586 140.194" enable-background="new 0 0 103.586 140.194"
	 xml:space="preserve">
<g>
	<g>
		<g>
			<path fill="#AF5B2B" d="M103.586,95.106c0,24.375-23.189,44.359-51.794,44.359S0,119.481,0,95.106
				C0,70.729,23.188,50.97,51.792,50.97S103.586,70.729,103.586,95.106z"/>
		</g>
	</g>
	<g>
		<g>
			<g>
				<g>
					<path fill="#B6382F" d="M54.761,20.28c-1.64,0-2.969-1.33-2.969-2.969V7.421c0-1.642,1.329-2.969,2.969-2.969
						c1.641,0,2.967,1.327,2.967,2.969v9.891C57.728,18.95,56.401,20.28,54.761,20.28z"/>
				</g>
			</g>
		</g>
		<g>
			<g>
				<g>
					<path fill="#B6382F" d="M60.038,23.247c-1.642,0-2.968-1.328-2.968-2.967v-9.893c0-1.64,1.326-2.967,2.968-2.967
						c1.638,0,2.967,1.327,2.967,2.967v9.893C63.005,21.919,61.676,23.247,60.038,23.247z"/>
				</g>
			</g>
		</g>
	</g>
	<g>
		<g>
			<g>
				<path fill="#B66916" d="M7.056,86.46c0.026-0.02,0.054-0.039,0.081-0.061c0.026-0.025,0.056-0.049,0.084-0.074
					c0,0.006,0,0.014,0,0.02C7.168,86.386,7.109,86.421,7.056,86.46z"/>
			</g>
		</g>
		<g>
			<g>
				<path fill="#B66916" d="M96.998,86.517c0-0.008-0.002-0.012-0.002-0.02c0.031,0.025,0.057,0.047,0.083,0.072
					c0.029,0.018,0.055,0.039,0.081,0.059C97.108,86.587,97.049,86.556,96.998,86.517z"/>
			</g>
		</g>
	</g>
	<g>
		<g>
			<g>
				<path fill="#D3C5C1" d="M51.693,95.526c-0.1,0-0.197,0-0.295,0c-5.462-0.154-9.752-4.725-9.576-10.186
					c0-0.416,0.039-0.811,0.098-1.209c-0.115,0.26-0.256,0.516-0.393,0.773c-2.771,4.709-8.845,6.289-13.553,3.52
					c-4.711-2.768-6.291-8.842-3.522-13.551c0.181-0.277,0.358-0.533,0.536-0.793c-0.299,0.279-0.595,0.557-0.935,0.813
					c-3.305,2.555-7.696,2.666-11.081,0.668C9.4,86.304,9.391,98.386,9.391,98.386c0.559,23.184,19.517,41.809,42.833,41.809h0.005
					V95.476C52.046,95.483,51.879,95.526,51.693,95.526z"/>
			</g>
		</g>
		<g>
			<g>
				<path fill="#AF5B2B" d="M24.054,74.894c0.34-0.256,0.636-0.533,0.935-0.813c-0.178,0.26-0.355,0.516-0.536,0.793
					c-2.769,4.709-1.188,10.783,3.522,13.551c4.708,2.77,10.781,1.189,13.553-3.52c0.137-0.258,0.277-0.514,0.393-0.773
					c-0.059,0.398-0.098,0.793-0.098,1.209c-0.176,5.461,4.114,10.031,9.576,10.186c0.098,0,0.195,0,0.295,0
					c0.186,0,0.353-0.043,0.535-0.051V14.571h-0.005c-15.505,0-28.218,11.9-29.541,27.064l-0.016-0.02c0,0,0.003,0.086,0.006,0.225
					c-0.065,0.797-0.123,1.594-0.123,2.406c0,0.248,0.025,0.492,0.031,0.74c-0.168,2.99-0.61,7.66-1.911,12.586
					c-0.92,3.457-2.251,7.035-4.221,10.25c-1.432,2.342-2.567,5-3.477,7.738C16.357,77.56,20.749,77.448,24.054,74.894z"/>
			</g>
		</g>
		<g>
			<g>
				<path fill="#F6E9E5" d="M95.064,98.329c0,0-0.016-11.689-3.414-22.291c-3.707,2.77-8.958,2.643-12.519-0.568
					c-0.118-0.102-0.237-0.219-0.354-0.316c0.157,0.215,0.296,0.453,0.435,0.689c2.672,4.75,1.01,10.781-3.76,13.475
					c-4.748,2.689-10.781,1.008-13.474-3.76c-0.159-0.279-0.294-0.555-0.435-0.85c0.042,0.414,0.061,0.811,0.042,1.225
					c-0.153,5.18-4.267,9.27-9.358,9.543v44.719C75.565,140.194,94.531,121.54,95.064,98.329z"/>
			</g>
		</g>
		<g>
			<g>
				<path fill="#C07C61" d="M61.587,85.933c0.019-0.414,0-0.811-0.042-1.225c0.141,0.295,0.275,0.57,0.435,0.85
					c2.692,4.768,8.726,6.449,13.474,3.76c4.77-2.693,6.432-8.725,3.76-13.475c-0.139-0.236-0.277-0.475-0.435-0.689
					c0.116,0.098,0.235,0.215,0.354,0.316c3.561,3.211,8.812,3.338,12.519,0.568c-0.931-2.908-2.104-5.74-3.615-8.215
					c-1.803-2.959-3.076-6.223-3.982-9.412c-1.549-5.445-2.014-10.678-2.166-13.803c0-0.121,0.012-0.238,0.012-0.361
					c0-0.541-0.051-1.068-0.082-1.602c-0.006-0.637,0-1.029,0-1.029l-0.045,0.07c-1.303-15.188-14.021-27.115-29.543-27.115v80.904
					C57.32,95.202,61.434,91.112,61.587,85.933z"/>
			</g>
		</g>
	</g>
	<g>
		<g>
			<path fill="#EA575B" d="M44.523,0c2.018,1.618,3.354,3.29,4.553,4.705c0.609,0.74,1.043,1.137,1.656,1.823
				c0.619,0.731,1.306,1.632,1.868,2.638c1.148,2.006,1.859,4.442,1.821,6.847c-0.056,2.406-0.75,4.783-2.479,6.74
				c-1.566-2.086-2.596-3.777-3.576-5.309c-0.967-1.535-1.811-2.879-2.658-4.389c-0.432-0.758-0.845-1.558-1.309-2.53
				c-0.499-1.007-0.998-2.416-1.1-3.569C43.054,4.592,43.352,2.337,44.523,0z"/>
		</g>
	</g>
	<g>
		<g>
			<g>
				<path fill="#EA575B" d="M62.921,65.206c0-0.002,0-0.008,0-0.016c0-6.592-5.964-11.938-10.881-11.938S41.159,58.599,41.159,65.19
					c0,2.641-0.204,9.576,4.784,9.576c1.469,0,2.768-0.682,3.646-1.727c0.824,0.092,1.651,0.135,2.451,0.135
					c0.801,0,1.626-0.043,2.452-0.135c0.877,1.045,2.176,1.727,3.649,1.727C63.117,74.767,62.921,67.858,62.921,65.206z"/>
			</g>
		</g>
		<g>
			<g>
				<g>
					<path fill="#D3C5C1" d="M40.076,31.536c-7.289,0-13.203,5.615-13.203,12.547c0,6.93,5.914,12.545,13.203,12.545
						c5.457,0,10.137,0.793,12.152-3.668V39.161C50.213,34.679,45.533,31.536,40.076,31.536z"/>
				</g>
			</g>
			<g>
				<g>
					<path fill="#F6E9E5" d="M64.408,56.628c7.293,0,13.207-5.615,13.207-12.545c0-6.932-5.914-12.547-13.207-12.547
						c-5.469,0-10.16,3.156-12.164,7.656c-0.006-0.014-0.012-0.021-0.016-0.031V52.96c0.004-0.01,0.01-0.021,0.016-0.033
						C54.248,57.429,58.939,56.628,64.408,56.628z"/>
				</g>
			</g>
		</g>
		<g>
			<g>
				<g>
					<path fill="#F39E2B" d="M49.904,53.577l-3.198,2.111c-1.287,0.85-1.696,2.627-0.905,3.955l5.007,8.406
						c0.396,0.664,0.916,0.994,1.437,0.994V52.938C51.393,52.938,50.549,53.151,49.904,53.577z"/>
				</g>
			</g>
			<g>
				<g>
					<path fill="#FBDD58" d="M53.676,68.05l5.01-8.406c0.787-1.328,0.381-3.105-0.905-3.955l-3.198-2.111
						c-0.643-0.426-1.493-0.639-2.338-0.639v16.105C52.762,69.044,53.281,68.714,53.676,68.05z"/>
				</g>
			</g>
		</g>
		<g>
			<g>
				<path fill="#4E1412" d="M38.111,39.831c-0.852,0-1.639,0.254-2.307,0.682c-0.15-0.1-0.323-0.195-0.467-0.344l-1.606-1.9
					c-0.12,0.877-0.081,1.779,0.232,2.688c0.118,0.324,0.202,0.736,0.446,1.037c-0.359,0.625-0.579,1.344-0.579,2.115
					c0,2.365,1.915,4.277,4.28,4.277c2.359,0,4.277-1.912,4.277-4.277C42.389,41.747,40.471,39.831,38.111,39.831z"/>
			</g>
		</g>
		<g>
			<g>
				<path fill="#4E1412" d="M69.394,41.563c0.079-0.207,0.14-0.418,0.208-0.607c0.313-0.908,0.352-1.811,0.231-2.688l-0.195-0.033
					c-0.432,0.73-0.907,1.412-1.409,1.934c-0.074,0.074-0.154,0.135-0.237,0.191c-0.603-0.328-1.284-0.529-2.017-0.529
					c-2.368,0-4.285,1.916-4.285,4.277c0,2.365,1.917,4.277,4.285,4.277c2.359,0,4.275-1.912,4.275-4.277
					C70.25,43.151,69.925,42.274,69.394,41.563z"/>
			</g>
		</g>
		<g>
			<g>
				<circle fill="#FFFFFF" cx="39.884" cy="42.903" r="1.275"/>
			</g>
		</g>
		<g>
			<g>
				<circle fill="#FFFFFF" cx="67.853" cy="42.903" r="1.274"/>
			</g>
		</g>
	</g>
</g>
</svg>
