<?xml version="1.0" encoding="utf-8"?>
<!-- Generator: Adobe Illustrator 16.0.0, SVG Export Plug-In . SVG Version: 6.00 Build 0)  -->
<!DOCTYPE svg PUBLIC "-//W3C//DTD SVG 1.1//EN" "http://www.w3.org/Graphics/SVG/1.1/DTD/svg11.dtd">
<svg version="1.1" id="Layer_1" xmlns="http://www.w3.org/2000/svg" xmlns:xlink="http://www.w3.org/1999/xlink" x="0px" y="0px"
	 width="491.31px" height="112.263px" viewBox="-28.164 -92.418 491.31 112.263"
	 style="enable-background:new -28.164 -92.418 491.31 112.263;" xml:space="preserve">
<g>
	<defs>
		<rect id="SVGID_1_" x="-28.164" y="-92.418" width="491.31" height="112.263"/>
	</defs>
	<clipPath id="SVGID_2_">
		<use xlink:href="#SVGID_1_"  style="overflow:visible;"/>
	</clipPath>
	<g style="clip-path:url(#SVGID_2_);">
		<rect x="256.906" y="17.314" style="fill:#A0D8C0;" width="39.148" height="5.558"/>
		<rect x="264.235" y="-79.002" style="fill:#42D391;" width="24.49" height="34.458"/>
		<rect x="274.646" y="-92.418" style="fill:#42D391;" width="3.669" height="34.457"/>
		<polygon style="fill:#42D391;" points="280.035,-51.475 280.035,-57.961 296.055,-57.961 296.055,-64.132 256.906,-64.132 
			256.906,-57.961 272.926,-57.961 272.926,-51.475 256.906,-51.475 256.906,-42.906 272.926,-42.906 272.926,-36.419 
			256.906,-36.419 256.906,-27.851 272.926,-27.851 272.926,-21.364 256.906,-21.364 256.906,-12.796 272.926,-12.796 
			272.926,-6.309 256.906,-6.309 256.906,2.259 272.926,2.259 272.926,8.745 256.906,8.745 256.906,17.314 272.926,17.314 
			272.926,23.8 256.906,23.8 256.906,28.43 296.055,28.43 296.055,23.8 280.035,23.8 280.035,17.314 296.055,17.314 296.055,8.745 
			280.035,8.745 280.035,2.259 296.055,2.259 296.055,-6.309 280.035,-6.309 280.035,-12.796 296.055,-12.796 296.055,-21.364 
			280.035,-21.364 280.035,-27.851 296.055,-27.851 296.055,-36.419 280.035,-36.419 280.035,-42.906 296.055,-42.906 
			296.055,-51.475 		"/>
		<rect x="256.906" y="-57.961" style="fill:#A0D8C0;" width="16.02" height="6.486"/>
		<rect x="280.035" y="-57.961" style="fill:#A0D8C0;" width="16.02" height="6.486"/>
		<rect x="256.906" y="-42.906" style="fill:#A0D8C0;" width="16.02" height="6.486"/>
		<rect x="280.035" y="-42.906" style="fill:#A0D8C0;" width="16.02" height="6.486"/>
		<rect x="256.906" y="-27.851" style="fill:#A0D8C0;" width="16.02" height="6.486"/>
		<rect x="280.035" y="-27.851" style="fill:#A0D8C0;" width="16.02" height="6.486"/>
		<rect x="256.906" y="-12.796" style="fill:#A0D8C0;" width="16.02" height="6.487"/>
		<rect x="280.035" y="-12.796" style="fill:#A0D8C0;" width="16.02" height="6.487"/>
		<rect x="256.906" y="2.259" style="fill:#A0D8C0;" width="16.02" height="6.486"/>
		<rect x="280.035" y="2.259" style="fill:#A0D8C0;" width="16.02" height="6.486"/>
	</g>
	<g style="clip-path:url(#SVGID_2_);">
		<rect x="421.743" y="-80.282" style="fill:#EFE9D5;" width="40.664" height="186.714"/>
		<rect x="425.854" y="-75.043" style="fill:#FFFFFF;" width="32.443" height="2.028"/>
		<rect x="425.854" y="-67.9" style="fill:#FFFFFF;" width="32.443" height="2.028"/>
		<rect x="425.854" y="-60.756" style="fill:#FFFFFF;" width="32.443" height="2.027"/>
		<rect x="425.854" y="-53.614" style="fill:#FFFFFF;" width="32.443" height="2.027"/>
		<rect x="425.854" y="-46.471" style="fill:#FFFFFF;" width="32.443" height="2.028"/>
		<rect x="425.854" y="-39.328" style="fill:#FFFFFF;" width="32.443" height="2.028"/>
		<rect x="425.854" y="-32.184" style="fill:#FFFFFF;" width="32.443" height="2.027"/>
		<rect x="425.854" y="-25.042" style="fill:#FFFFFF;" width="32.443" height="2.027"/>
		<rect x="425.854" y="-17.898" style="fill:#FFFFFF;" width="32.443" height="2.028"/>
		<rect x="425.854" y="-10.756" style="fill:#FFFFFF;" width="32.443" height="2.028"/>
		<rect x="425.854" y="-3.612" style="fill:#FFFFFF;" width="32.443" height="2.027"/>
		<rect x="425.854" y="3.531" style="fill:#FFFFFF;" width="32.443" height="2.027"/>
		<rect x="425.854" y="10.674" style="fill:#FFFFFF;" width="32.443" height="2.028"/>
		<rect x="425.854" y="17.817" style="fill:#FFFFFF;" width="32.443" height="2.028"/>
		<rect x="425.854" y="24.96" style="fill:#F18C9A;" width="32.443" height="2.027"/>
		<rect x="425.854" y="32.103" style="fill:#F18C9A;" width="32.443" height="2.028"/>
		<rect x="425.854" y="39.246" style="fill:#F18C9A;" width="32.443" height="2.028"/>
		<rect x="425.854" y="46.389" style="fill:#F18C9A;" width="32.443" height="2.028"/>
		<rect x="425.854" y="53.533" style="fill:#F18C9A;" width="32.443" height="2.027"/>
		<rect x="425.854" y="60.676" style="fill:#F18C9A;" width="32.443" height="2.028"/>
		<rect x="425.854" y="67.818" style="fill:#F18C9A;" width="32.443" height="2.027"/>
		<rect x="425.854" y="74.962" style="fill:#F18C9A;" width="32.443" height="2.028"/>
		<rect x="425.854" y="82.104" style="fill:#F18C9A;" width="32.443" height="2.028"/>
		<rect x="425.854" y="89.248" style="fill:#F18C9A;" width="32.443" height="2.027"/>
	</g>
	<g style="clip-path:url(#SVGID_2_);">
		<rect x="175.554" y="-62.56" style="fill:#EFE9D5;" width="40.663" height="126.789"/>
		<polygon style="fill:#EFE9D5;" points="207.166,-44.99 184.604,-44.99 184.604,-70.158 195.886,-80.13 207.166,-70.158 		"/>
		<rect x="190.038" y="-69.911" style="fill:#FFFFFF;" width="4.055" height="9.522"/>
		<rect x="197.678" y="-69.911" style="fill:#FFFFFF;" width="4.055" height="9.522"/>
		<rect x="182.462" y="-54.512" style="fill:#FFFFFF;" width="4.056" height="9.522"/>
		<rect x="190.102" y="-54.512" style="fill:#FFFFFF;" width="4.055" height="9.522"/>
		<rect x="197.615" y="-54.512" style="fill:#FFFFFF;" width="4.056" height="9.522"/>
		<rect x="205.254" y="-54.512" style="fill:#FFFFFF;" width="4.055" height="9.522"/>
		<rect x="182.462" y="-41.404" style="fill:#FFFFFF;" width="4.056" height="9.522"/>
		<rect x="190.102" y="-41.404" style="fill:#FFFFFF;" width="4.055" height="9.522"/>
		<rect x="197.615" y="-41.404" style="fill:#FFFFFF;" width="4.056" height="9.522"/>
		<rect x="205.254" y="-41.404" style="fill:#FFFFFF;" width="4.055" height="9.522"/>
		<rect x="182.462" y="-28.296" style="fill:#FFFFFF;" width="4.056" height="9.521"/>
		<rect x="190.102" y="-28.296" style="fill:#FFFFFF;" width="4.055" height="9.521"/>
		<rect x="197.615" y="-28.296" style="fill:#FFFFFF;" width="4.056" height="9.521"/>
		<rect x="205.254" y="-28.296" style="fill:#FFFFFF;" width="4.055" height="9.521"/>
		<rect x="182.462" y="-15.189" style="fill:#FFFFFF;" width="4.056" height="9.522"/>
		<rect x="190.102" y="-15.189" style="fill:#FFFFFF;" width="4.055" height="9.522"/>
		<rect x="197.615" y="-15.189" style="fill:#FFFFFF;" width="4.056" height="9.522"/>
		<rect x="205.254" y="-15.189" style="fill:#FFFFFF;" width="4.055" height="9.522"/>
		<rect x="182.462" y="-2.081" style="fill:#FFFFFF;" width="4.056" height="9.521"/>
		<rect x="190.102" y="-2.081" style="fill:#FFFFFF;" width="4.055" height="9.521"/>
		<rect x="197.615" y="-2.081" style="fill:#FFFFFF;" width="4.056" height="9.521"/>
		<rect x="205.254" y="-2.081" style="fill:#FFFFFF;" width="4.055" height="9.521"/>
		<rect x="182.462" y="11.027" style="fill:#FFFFFF;" width="4.056" height="9.522"/>
		<rect x="190.102" y="11.027" style="fill:#FFFFFF;" width="4.055" height="9.522"/>
		<rect x="197.615" y="11.027" style="fill:#FFFFFF;" width="4.056" height="9.522"/>
		<rect x="205.254" y="11.027" style="fill:#FFFFFF;" width="4.055" height="9.522"/>
		<rect x="182.462" y="24.135" style="fill:#FFFFFF;" width="4.056" height="9.521"/>
		<rect x="190.102" y="24.135" style="fill:#FFFFFF;" width="4.055" height="9.521"/>
		<rect x="197.615" y="24.135" style="fill:#FFFFFF;" width="4.056" height="9.521"/>
		<rect x="205.254" y="24.135" style="fill:#FFFFFF;" width="4.055" height="9.521"/>
		<rect x="182.462" y="37.243" style="fill:#FFFFFF;" width="4.056" height="9.521"/>
		<rect x="190.102" y="37.243" style="fill:#FFFFFF;" width="4.055" height="9.521"/>
		<rect x="197.615" y="37.243" style="fill:#FFFFFF;" width="4.056" height="9.521"/>
		<rect x="205.254" y="37.243" style="fill:#FFFFFF;" width="4.055" height="9.521"/>
	</g>
	<g style="clip-path:url(#SVGID_2_);">
		<rect x="377.641" y="-53.768" style="fill:#42B191;" width="44.104" height="129.188"/>
		<rect x="381.695" y="-63.569" style="fill:#42B191;" width="34.979" height="14.702"/>
		<rect x="385.751" y="-72.917" style="fill:#42B191;" width="26.867" height="11.292"/>
		<rect x="383.735" y="-46.617" style="fill:#42D391;" width="5.444" height="12.035"/>
		<rect x="392.22" y="-46.617" style="fill:#42D391;" width="5.446" height="12.035"/>
		<rect x="400.704" y="-46.617" style="fill:#42D391;" width="5.445" height="12.035"/>
		<rect x="409.19" y="-46.617" style="fill:#42D391;" width="5.444" height="12.035"/>
		<rect x="383.735" y="-30.191" style="fill:#42D391;" width="5.444" height="12.036"/>
		<rect x="392.22" y="-30.191" style="fill:#42D391;" width="5.446" height="12.036"/>
		<rect x="400.704" y="-30.191" style="fill:#42D391;" width="5.445" height="12.036"/>
		<rect x="409.19" y="-30.191" style="fill:#42D391;" width="5.444" height="12.036"/>
		<rect x="383.735" y="-13.765" style="fill:#42D391;" width="5.444" height="12.035"/>
		<rect x="392.22" y="-13.765" style="fill:#42D391;" width="5.446" height="12.035"/>
		<rect x="400.704" y="-13.765" style="fill:#42D391;" width="5.445" height="12.035"/>
		<rect x="409.19" y="-13.765" style="fill:#42D391;" width="5.444" height="12.035"/>
		<rect x="383.735" y="2.661" style="fill:#42D391;" width="5.444" height="12.036"/>
		<rect x="392.22" y="2.661" style="fill:#42D391;" width="5.446" height="12.036"/>
		<rect x="400.704" y="2.661" style="fill:#42D391;" width="5.445" height="12.036"/>
		<rect x="409.19" y="2.661" style="fill:#42D391;" width="5.444" height="12.036"/>
	</g>
	<g style="clip-path:url(#SVGID_2_);">
		<polygon style="fill:#FF5B45;" points="175.554,27.697 134.757,27.697 134.757,-53.464 143.089,-68.442 166.896,-68.442 
			175.554,-53.464 		"/>
		<rect x="143.947" y="-53.074" style="fill:#EF3522;" width="5.445" height="12.036"/>
		<rect x="152.434" y="-53.074" style="fill:#EF3522;" width="5.443" height="12.036"/>
		<rect x="160.918" y="-53.074" style="fill:#EF3522;" width="5.444" height="12.036"/>
		<rect x="143.947" y="-37.982" style="fill:#EF3522;" width="5.445" height="12.035"/>
		<rect x="152.434" y="-37.982" style="fill:#EF3522;" width="5.443" height="12.035"/>
		<rect x="160.918" y="-37.982" style="fill:#EF3522;" width="5.444" height="12.035"/>
		<rect x="143.947" y="-22.891" style="fill:#EF3522;" width="5.445" height="12.035"/>
		<rect x="152.434" y="-22.891" style="fill:#EF3522;" width="5.443" height="12.035"/>
		<rect x="160.918" y="-22.891" style="fill:#EF3522;" width="5.444" height="12.035"/>
	</g>
	<g style="clip-path:url(#SVGID_2_);">
		<polygon style="fill:#FFA033;" points="134.757,19.321 93.961,19.321 93.961,-39.776 114.359,-67.36 134.757,-39.776 		"/>
		<rect x="99.527" y="-12.344" style="fill:#EFE9D5;" width="29.663" height="15.516"/>
		<path style="fill:#FCD07A;" d="M132.617-11.563l-2.105-8.811h-12.149h-7.546h-12.61L96.1-11.563
			c-0.055,0.151-0.089,0.312-0.089,0.482c0,0.779,0.632,1.411,1.412,1.411c0.779,0,1.41-0.632,1.41-1.411
			c0,0.779,0.632,1.411,1.412,1.411c0.779,0,1.411-0.632,1.411-1.411c0,0.779,0.632,1.411,1.411,1.411s1.412-0.632,1.412-1.411
			c0,0.779,0.631,1.411,1.411,1.411c0.779,0,1.411-0.632,1.411-1.411c0,0.779,0.632,1.411,1.412,1.411
			c0.778,0,1.41-0.632,1.41-1.411c0,0.779,0.633,1.411,1.412,1.411s1.411-0.632,1.411-1.411c0,0.779,0.632,1.411,1.412,1.411
			c0.779,0,1.411-0.632,1.411-1.411c0,0.779,0.632,1.411,1.411,1.411s1.411-0.632,1.411-1.411c0,0.779,0.632,1.411,1.411,1.411
			c0.78,0,1.412-0.632,1.412-1.411c0,0.779,0.632,1.411,1.412,1.411c0.778,0,1.41-0.632,1.41-1.411c0,0.779,0.632,1.411,1.411,1.411
			c0.78,0,1.412-0.632,1.412-1.411c0,0.779,0.631,1.411,1.411,1.411c0.779,0,1.411-0.632,1.411-1.411
			c0,0.779,0.632,1.411,1.411,1.411c0.78,0,1.412-0.632,1.412-1.411C132.707-11.251,132.672-11.412,132.617-11.563z"/>
		<rect x="99.719" y="-37.382" style="fill:#FCD07A;" width="4.705" height="10.777"/>
		<rect x="107.302" y="-37.382" style="fill:#FCD07A;" width="4.705" height="10.777"/>
		<rect x="114.885" y="-37.382" style="fill:#FCD07A;" width="4.706" height="10.777"/>
		<rect x="122.469" y="-37.382" style="fill:#FCD07A;" width="4.705" height="10.777"/>
	</g>
	<g style="clip-path:url(#SVGID_2_);">
		<polygon style="fill:#42B191;" points="256.906,19.321 216.11,19.321 216.11,-30.466 236.509,-58.051 256.906,-30.466 		"/>
		<path style="fill:#42D391;" d="M227.28-23.968c0-0.024,0.004-0.048,0.004-0.073c0-1.65-1.34-2.989-2.991-2.989
			c-1.65,0-2.989,1.339-2.989,2.989c0,0.025,0.004,0.049,0.004,0.073h-0.006v9.504h5.984v-9.504H227.28z"/>
		<path style="fill:#42D391;" d="M235.423-23.968c0.001-0.024,0.004-0.048,0.004-0.073c0-1.65-1.339-2.989-2.99-2.989
			s-2.99,1.339-2.99,2.989c0,0.025,0.003,0.049,0.004,0.073h-0.006v9.504h5.983v-9.504H235.423z"/>
		<path style="fill:#42D391;" d="M243.567-23.968c0-0.024,0.003-0.048,0.003-0.073c0-1.65-1.339-2.989-2.99-2.989
			s-2.99,1.339-2.99,2.989c0,0.025,0.002,0.049,0.003,0.073h-0.006v9.504h5.984v-9.504H243.567z"/>
		<path style="fill:#42D391;" d="M251.71-23.968c0-0.024,0.004-0.048,0.004-0.073c0-1.65-1.34-2.989-2.99-2.989
			c-1.652,0-2.99,1.339-2.99,2.989c0,0.025,0.002,0.049,0.002,0.073h-0.005v9.504h5.985v-9.504H251.71z"/>
		<path style="fill:#42D391;" d="M227.28-8.502c0-0.025,0.004-0.049,0.004-0.073c0-1.652-1.34-2.991-2.991-2.991
			c-1.65,0-2.989,1.339-2.989,2.991c0,0.024,0.004,0.048,0.004,0.073h-0.006v9.504h5.984v-9.504H227.28z"/>
		<path style="fill:#42D391;" d="M235.423-8.502c0.001-0.025,0.004-0.049,0.004-0.073c0-1.652-1.339-2.991-2.99-2.991
			s-2.99,1.339-2.99,2.991c0,0.024,0.003,0.048,0.004,0.073h-0.006v9.504h5.983v-9.504H235.423z"/>
		<path style="fill:#42D391;" d="M243.567-8.502c0-0.025,0.003-0.049,0.003-0.073c0-1.652-1.339-2.991-2.99-2.991
			s-2.99,1.339-2.99,2.991c0,0.024,0.002,0.048,0.003,0.073h-0.006v9.504h5.984v-9.504H243.567z"/>
		<path style="fill:#42D391;" d="M251.71-8.502c0-0.025,0.004-0.049,0.004-0.073c0-1.652-1.34-2.991-2.99-2.991
			c-1.652,0-2.99,1.339-2.99,2.991c0,0.024,0.002,0.048,0.002,0.073h-0.005v9.504h5.985v-9.504H251.71z"/>
	</g>
	<g style="clip-path:url(#SVGID_2_);">
		<polygon style="fill:#FF5B45;" points="53.163,19.321 12.367,19.321 12.367,-40.489 20.698,-51.526 44.505,-51.526 
			53.163,-40.489 		"/>
		<rect x="21.702" y="-37.219" style="fill:#EF3522;" width="22.126" height="10.139"/>
		<rect x="21.702" y="-21.753" style="fill:#EF3522;" width="22.126" height="10.139"/>
	</g>
	<g style="clip-path:url(#SVGID_2_);">
		<rect x="296.055" y="-57.88" style="fill:#FFA033;" width="40.797" height="77.201"/>
		<rect x="302.733" y="-48.709" style="fill:#FCD07A;" width="8.176" height="4.055"/>
		<rect x="312.365" y="-48.709" style="fill:#FCD07A;" width="8.176" height="4.055"/>
		<rect x="321.997" y="-48.709" style="fill:#FCD07A;" width="8.176" height="4.055"/>
		<rect x="302.733" y="-41.369" style="fill:#FCD07A;" width="8.176" height="4.056"/>
		<rect x="312.365" y="-41.369" style="fill:#FCD07A;" width="8.176" height="4.056"/>
		<rect x="321.997" y="-41.369" style="fill:#FCD07A;" width="8.176" height="4.056"/>
		<rect x="302.733" y="-34.028" style="fill:#FCD07A;" width="8.176" height="4.055"/>
		<rect x="312.365" y="-34.028" style="fill:#FCD07A;" width="8.176" height="4.055"/>
		<rect x="321.997" y="-34.028" style="fill:#FCD07A;" width="8.176" height="4.055"/>
		<rect x="302.733" y="-26.687" style="fill:#FCD07A;" width="8.176" height="4.055"/>
		<rect x="312.365" y="-26.687" style="fill:#FCD07A;" width="8.176" height="4.055"/>
		<rect x="321.997" y="-26.687" style="fill:#FCD07A;" width="8.176" height="4.055"/>
		<rect x="302.733" y="-19.346" style="fill:#FCD07A;" width="8.176" height="4.056"/>
		<rect x="312.365" y="-19.346" style="fill:#FCD07A;" width="8.176" height="4.056"/>
		<rect x="321.997" y="-19.346" style="fill:#FCD07A;" width="8.176" height="4.056"/>
		<rect x="302.733" y="-12.004" style="fill:#FCD07A;" width="8.176" height="4.055"/>
		<rect x="312.365" y="-12.004" style="fill:#FCD07A;" width="8.176" height="4.055"/>
		<rect x="321.997" y="-12.004" style="fill:#FCD07A;" width="8.176" height="4.055"/>
	</g>
	<g style="clip-path:url(#SVGID_2_);">
		<polygon style="fill:#EFE9D5;" points="12.367,19.454 -28.43,19.454 -28.43,-30.333 -8.032,-57.917 12.367,-30.333 		"/>
		<rect x="-15.79" y="-37.15" style="fill:#FFFFFF;" width="5.444" height="12.034"/>
		<rect x="-7.305" y="-37.15" style="fill:#FFFFFF;" width="5.445" height="12.034"/>
		<rect x="-15.79" y="-21.175" style="fill:#FFFFFF;" width="5.444" height="12.036"/>
		<rect x="-7.305" y="-21.175" style="fill:#FFFFFF;" width="5.445" height="12.036"/>
	</g>
	<g style="clip-path:url(#SVGID_2_);">
		<polygon style="fill:#FBC16C;" points="93.961,19.321 53.163,19.321 53.163,-30.467 73.563,-58.051 93.961,-30.467 		"/>
		<circle style="fill:#FF9F00;" cx="66.361" cy="-26.737" r="4.918"/>
		<circle style="fill:#FF9F00;" cx="80.763" cy="-26.737" r="4.917"/>
		<circle style="fill:#FF9F00;" cx="66.361" cy="-12.743" r="4.918"/>
		<circle style="fill:#FF9F00;" cx="80.763" cy="-12.743" r="4.917"/>
		<circle style="fill:#FF9F00;" cx="66.361" cy="1.251" r="4.918"/>
		<circle style="fill:#FF9F00;" cx="80.763" cy="1.251" r="4.917"/>
	</g>
	<g style="clip-path:url(#SVGID_2_);">
		<polygon style="fill:#42D391;" points="377.648,22.002 336.852,22.002 336.852,-27.786 357.25,-55.37 377.648,-27.786 		"/>
		<circle style="fill:#A0D8C0;" cx="350.048" cy="-24.056" r="4.917"/>
		<circle style="fill:#A0D8C0;" cx="364.452" cy="-24.056" r="4.917"/>
		<circle style="fill:#A0D8C0;" cx="350.048" cy="-10.062" r="4.917"/>
		<circle style="fill:#A0D8C0;" cx="364.452" cy="-10.062" r="4.917"/>
		<circle style="fill:#A0D8C0;" cx="350.048" cy="3.933" r="4.917"/>
		<circle style="fill:#A0D8C0;" cx="364.452" cy="3.933" r="4.917"/>
	</g>
</g>
</svg>
