<?xml version="1.0" encoding="utf-8"?>
<!-- Generator: Adobe Illustrator 16.0.0, SVG Export Plug-In . SVG Version: 6.00 Build 0)  -->
<!DOCTYPE svg PUBLIC "-//W3C//DTD SVG 1.1//EN" "http://www.w3.org/Graphics/SVG/1.1/DTD/svg11.dtd">
<svg version="1.1" id="Layer_1" xmlns="http://www.w3.org/2000/svg" xmlns:xlink="http://www.w3.org/1999/xlink" x="0px" y="0px"
	 width="139.526px" height="90.736px" viewBox="0 0 139.526 90.736" style="enable-background:new 0 0 139.526 90.736;"
	 xml:space="preserve">
<path style="fill:#85CDD3;" d="M108.056,27.367c-0.591,0-1.177,0.02-1.761,0.051C101.921,16.534,91.274,8.843,78.825,8.843
	c-2.922,0-5.741,0.431-8.406,1.218C65.4,3.922,57.769,0,49.221,0C36.172,0,25.264,9.135,22.524,21.356
	c-1.414-0.355-2.895-0.545-4.419-0.545C8.106,20.811,0,28.916,0,38.915c0,8.935,6.475,16.353,14.987,17.832
	c0.524,11.268,9.824,20.242,21.222,20.242c3.178,0,6.19-0.702,8.896-1.953c3.218,9.145,11.926,15.7,22.17,15.7
	c7.685,0,14.507-3.689,18.796-9.394c5.672,5.542,13.428,8.963,21.985,8.963c17.38,0,31.47-14.089,31.47-31.47
	C139.526,41.457,125.436,27.367,108.056,27.367z"/>
</svg>
