<?xml version="1.0" encoding="utf-8"?>
<!-- Generator: Adobe Illustrator 16.0.0, SVG Export Plug-In . SVG Version: 6.00 Build 0)  -->
<!DOCTYPE svg PUBLIC "-//W3C//DTD SVG 1.1//EN" "http://www.w3.org/Graphics/SVG/1.1/DTD/svg11.dtd">
<svg version="1.1" id="Layer_1" xmlns="http://www.w3.org/2000/svg" xmlns:xlink="http://www.w3.org/1999/xlink" x="0px" y="0px"
	 width="213.101px" height="50.207px" viewBox="-43.726 44.692 213.101 50.207"
	 style="enable-background:new -43.726 44.692 213.101 50.207;" xml:space="preserve">
<path style="fill:#EFE9D5;" d="M-27.146,69.704c4.238,0,8.094,1.604,11.025,4.219c4.404-8.162,13.031-13.714,22.959-13.714
	c5.457,0,10.514,1.681,14.701,4.548c7.291-12.026,20.502-20.064,35.59-20.064c13.439,0,25.382,6.381,32.984,16.272
	c1.969-0.479,4.018-0.756,6.129-0.756c14.4,0,26.074,11.675,26.074,26.072H-43.726C-43.726,77.126-36.302,69.704-27.146,69.704z"/>
<path style="fill:#FFFFFF;" d="M88.717,85.952c2.285,0,4.365,0.865,5.947,2.277c2.377-4.406,7.033-7.401,12.391-7.401
	c2.943,0,5.674,0.907,7.936,2.454c3.932-6.489,11.063-10.828,19.205-10.828c7.252,0,13.697,3.444,17.801,8.781
	c1.061-0.258,2.166-0.407,3.307-0.407c7.771,0,14.072,6.3,14.072,14.071H79.768C79.768,89.958,83.773,85.952,88.717,85.952z"/>
</svg>
