<?xml version="1.0" encoding="utf-8"?>
<!-- Generator: Adobe Illustrator 16.0.0, SVG Export Plug-In . SVG Version: 6.00 Build 0)  -->
<!DOCTYPE svg PUBLIC "-//W3C//DTD SVG 1.1//EN" "http://www.w3.org/Graphics/SVG/1.1/DTD/svg11.dtd">
<svg version="1.1" id="Layer_1" xmlns="http://www.w3.org/2000/svg" xmlns:xlink="http://www.w3.org/1999/xlink" x="0px" y="0px"
	 width="108.912px" height="59.333px" viewBox="0 0 108.912 59.333" style="enable-background:new 0 0 108.912 59.333;"
	 xml:space="preserve">
<path style="fill:#85CDD3;" d="M65.66,22.128c0.086-0.637,0.133-1.286,0.133-1.947c0-8.059-6.531-14.591-14.592-14.591
	c-1.209,0-2.387,0.15-3.514,0.429C44.095,2.31,39.066,0,33.492,0C22.847,0,14.169,8.421,13.75,18.965
	C5.734,21.853,0,29.523,0,38.535c0,11.486,9.312,20.798,20.798,20.798c6.66,0,12.584-3.135,16.391-8.006
	c3.539,2.922,8.076,4.677,13.021,4.677c11.303,0,20.465-9.163,20.465-20.464C70.675,30.408,68.783,25.721,65.66,22.128z"/>
<path style="fill:#85CDD3;" d="M80.222,26.373c-0.037-0.278-0.059-0.562-0.059-0.85c0-3.521,2.855-6.375,6.377-6.375
	c0.529,0,1.043,0.066,1.535,0.188c1.57-1.621,3.768-2.63,6.201-2.63c4.654,0,8.445,3.679,8.627,8.286
	c3.504,1.262,6.008,4.614,6.008,8.551c0,5.019-4.068,9.087-9.086,9.087c-2.912,0-5.5-1.37-7.164-3.498
	c-1.545,1.277-3.525,2.044-5.688,2.044c-4.939,0-8.943-4.004-8.943-8.942C78.031,29.991,78.859,27.942,80.222,26.373z"/>
</svg>
