<?xml version="1.0" encoding="utf-8"?>
<!-- Generator: Adobe Illustrator 16.0.0, SVG Export Plug-In . SVG Version: 6.00 Build 0)  -->
<!DOCTYPE svg PUBLIC "-//W3C//DTD SVG 1.1//EN" "http://www.w3.org/Graphics/SVG/1.1/DTD/svg11.dtd">
<svg version="1.1" id="Layer_1" xmlns="http://www.w3.org/2000/svg" xmlns:xlink="http://www.w3.org/1999/xlink" x="0px" y="0px"
	 width="80.465px" height="49.178px" viewBox="0 0 80.465 49.178" style="enable-background:new 0 0 80.465 49.178;"
	 xml:space="preserve">
<path style="fill:#6FE1ED;" d="M16.915,20.394c-3.334-5.705-11.842-9.676-15.55-2.28c-4.324,8.622,2.265,13.803,10.8,13.6
	c-4.788,2.313-8.921,10.573-4.671,14.903c5.676,5.783,13.795-0.408,16.371-5.869c-0.808,12.156,21.963,10.691,19.995-1.341
	c4.285,13.68,27.041,3.507,20.102-7.409c9.702,6.813,21.461-7.143,14.299-16.33c-4.445-5.704-15.895-6.621-21.295-1.687
	c4.219-6.798-0.939-14.444-8.467-13.959c-8.58,0.554-14.492,5.396-17.671,13.059c0.778-7.104-5.643-14.111-12.114-8.228
	C13.559,9.54,15.951,13.858,16.915,20.394"/>
</svg>
