<?xml version="1.0" encoding="utf-8"?>
<!-- Generator: Adobe Illustrator 16.0.0, SVG Export Plug-In . SVG Version: 6.00 Build 0)  -->
<!DOCTYPE svg PUBLIC "-//W3C//DTD SVG 1.1//EN" "http://www.w3.org/Graphics/SVG/1.1/DTD/svg11.dtd">
<svg version="1.1" id="Layer_1" xmlns="http://www.w3.org/2000/svg" xmlns:xlink="http://www.w3.org/1999/xlink" x="0px" y="0px"
	 width="91.51px" height="129.308px" viewBox="0 0 91.51 129.308" style="enable-background:new 0 0 91.51 129.308;"
	 xml:space="preserve">
<g>
	<g>
		<g>
			<path style="fill:#AF5B2B;" d="M91.51,91.377c0,20.506-19.506,37.316-43.569,37.316S4.37,111.883,4.37,91.377
				s19.507-37.129,43.57-37.129S91.51,70.871,91.51,91.377z"/>
		</g>
	</g>
	<g>
		<g>
			<g>
				<path style="fill:#B6382F;" d="M30.815,15.083c1.918-0.735,3.732-0.565,5.38-0.114c1.644,0.481,3.13,1.35,4.369,2.494
					c1.241,1.143,2.224,2.579,2.825,4.197c0.574,1.631,0.814,3.436,0.22,5.383c-1.898-0.731-3.214-1.488-4.418-2.256
					c-1.188-0.77-2.205-1.561-3.151-2.445c-0.95-0.883-1.826-1.857-2.688-2.998C32.494,18.18,31.681,16.9,30.815,15.083z"/>
			</g>
		</g>
		<g>
			<g>
				<path style="fill:#B6382F;" d="M47.77,3.434c1.809,1.359,2.931,2.973,3.822,4.648c0.865,1.686,1.434,3.467,1.723,5.313
					c0.283,1.845,0.279,3.763-0.113,5.698c-0.425,1.904-1.182,3.965-2.935,5.455c-0.986-2.006-1.718-3.549-2.296-5.205
					c-0.566-1.631-0.985-3.263-1.237-4.945c-0.251-1.682-0.349-3.41-0.239-5.212C46.627,7.375,46.917,5.516,47.77,3.434z"/>
			</g>
		</g>
		<g>
			<g>
				<path style="fill:#B6382F;" d="M54.738,7.387c1.437,1.588,2.149,3.271,2.621,4.963c0.444,1.696,0.578,3.418,0.411,5.139
					c-0.163,1.721-0.633,3.449-1.508,5.096c-0.886,1.581-2.205,3.331-4.332,3.939c-0.256-2.084-0.636-3.535-0.771-5.109
					c-0.148-1.539-0.167-3.048-0.013-4.574c0.152-1.526,0.465-3.064,0.997-4.631C52.702,10.641,53.42,9.059,54.738,7.387z"/>
			</g>
		</g>
	</g>
	<g>
		<g>
			<g>
				<path style="fill:#3C3C3B;" d="M0.653,55.773c2.366-1.359,5.111-1.965,7.985-2.006c1.436,0.03,2.895,0.239,4.328,0.65
					c1.419,0.434,2.796,1.067,4.074,1.857c1.275,0.791,2.54,1.646,3.682,2.645c1.138,1.002,2.013,2.237,2.581,3.584
					c1.107,2.712,1.497,5.633,0.528,8.66l-0.636,0.202c-2.523-1.873-4.097-3.751-5.62-5.47c-0.743-0.863-1.34-1.75-1.874-2.707
					c-0.52-0.964-1.115-1.912-1.891-2.676c-0.763-0.775-1.622-1.457-2.575-2.022c-0.936-0.597-1.975-1.077-3.086-1.431
					c-2.214-0.773-4.748-0.957-7.255-0.664L0.653,55.773z"/>
			</g>
		</g>
		<g>
			<g>
				<path style="fill:#3C3C3B;" d="M0,46c1.592-1.214,3.389-2.119,5.356-2.705c1.96-0.588,4.122-0.832,6.307-0.499
					c2.175,0.353,4.299,1.315,6.074,2.67c1.77,1.371,3.194,3.075,4.372,4.859c1.188,1.87,2.127,3.468,3.146,5.23
					c0.965,1.745,1.715,3.604,2.184,5.581c0.457,1.971,0.75,4.021,0.69,6.135c-0.074,2.087-0.277,4.315-1.648,6.287l-0.628-0.216
					c-1.361-3.601-3.213-6.718-4.718-10.06c-0.766-1.658-1.422-3.365-1.95-5.156c-0.515-1.748-1.052-3.703-1.72-5.19
					c-1.403-3.087-3.51-5.739-6.62-6.912c-3.096-1.257-7.02-0.821-10.496,0.544L0,46z"/>
			</g>
		</g>
		<g>
			<g>
				<path style="fill:#3C3C3B;" d="M17.268,40.802c1.678-0.724,3.594-0.79,5.501-0.368c0.942,0.232,1.874,0.596,2.756,1.069
					c0.861,0.497,1.67,1.099,2.402,1.769c0.733,0.673,1.494,1.342,2.172,2.087c0.666,0.751,1.098,1.639,1.263,2.591
					c0.163,0.947,0.164,1.924-0.064,2.905c-0.205,0.976-0.587,1.956-1.366,2.945l-0.654,0.126c-1.09-0.609-1.84-1.212-2.487-1.803
					c-0.666-0.584-1.177-1.159-1.614-1.719c-0.438-0.563-0.694-1.148-0.823-1.82c-0.121-0.672-0.257-1.365-0.554-1.953
					c-0.29-0.592-0.636-1.155-1.042-1.676c-0.387-0.544-0.846-1.049-1.381-1.498c-1.045-0.93-2.443-1.648-3.998-2L17.268,40.802z"/>
			</g>
		</g>
	</g>
	<g>
		<g>
			<g>
				<path style="fill:none;" d="M46.287,91.647h-0.005c0.312,0.044,0.625,0.076,0.948,0.086
					C46.908,91.724,46.595,91.691,46.287,91.647z"/>
			</g>
		</g>
		<g>
			<g>
				<path style="fill:#3C3C3B;" d="M47.23,91.733c-0.323-0.01-0.637-0.042-0.948-0.086c-20.413-0.824-31.378-16.71-31.378-16.71
					c-3.003,9.033-3.015,19.197-3.015,19.197c0.472,19.506,16.419,35.173,36.037,35.173v-37.62c-0.153,0.01-0.295,0.046-0.447,0.046
					C47.396,91.733,47.313,91.733,47.23,91.733z"/>
			</g>
		</g>
		<g>
			<g>
				<path style="fill:#AF5B2B;" d="M23.072,46.396l-0.011-0.014c0,0,0.001,0.072,0.001,0.186c-0.052,0.67-0.1,1.342-0.1,2.025
					c0,0.208,0.021,0.412,0.025,0.62c-0.142,2.517-0.515,6.445-1.609,10.589c-0.771,2.906-1.892,5.918-3.55,8.621
					c-1.206,1.971-2.16,4.207-2.925,6.514c0,0,10.965,15.886,31.378,16.71h0.005c0.308,0.044,0.621,0.076,0.943,0.086
					c0.083,0,0.165,0,0.249,0c0.152,0,0.294-0.036,0.447-0.046V72.091v-48.46C34.881,23.631,24.187,33.641,23.072,46.396z"/>
			</g>
		</g>
	</g>
	<g>
		<g>
			<g>
				<path style="fill:#575756;" d="M81.092,75.334c0,0-11.695,16.354-33.165,16.354v37.62c19.633,0,35.59-15.692,36.035-35.218
					C83.962,94.09,83.951,84.254,81.092,75.334z"/>
			</g>
		</g>
		<g>
			<g>
				<path style="fill:#EA8232;" d="M78.05,68.424c-1.516-2.486-2.589-5.232-3.35-7.914c-1.302-4.58-1.695-8.982-1.821-11.613
					c0-0.102,0.011-0.202,0.011-0.303c0-0.455-0.044-0.9-0.067-1.35c-0.01-0.537-0.003-0.861-0.003-0.861l-0.038,0.056
					C71.685,33.66,60.986,23.631,47.927,23.631v48.46v19.597c21.47,0,33.165-16.354,33.165-16.354
					C80.31,72.891,79.321,70.512,78.05,68.424z"/>
			</g>
		</g>
	</g>
	<g>
		<g>
			<g>
				<path style="fill:#EA575B;" d="M56.923,66.227c0-0.006,0-0.01,0-0.016c0-5.545-5.018-10.043-9.153-10.043
					s-9.153,4.498-9.153,10.043c0,2.223-0.172,8.055,4.023,8.055c1.236,0,2.33-0.569,3.067-1.449
					c0.693,0.074,1.392,0.109,2.063,0.109c0.673,0,1.369-0.035,2.064-0.109c0.735,0.88,1.829,1.449,3.067,1.449
					C57.088,74.266,56.923,68.457,56.923,66.227z"/>
			</g>
		</g>
		<g>
			<g>
				<g>
					<path style="fill:#B6382F;" d="M37.707,37.899c-6.136,0-11.109,4.726-11.109,10.554c0,5.832,4.974,10.555,11.109,10.555
						c4.587,0,8.523,0.67,10.22-3.085v-11.61C46.23,40.542,42.296,37.899,37.707,37.899z"/>
				</g>
			</g>
			<g>
				<g>
					<path style="fill:#EA575B;" d="M58.175,59.008c6.135,0,11.11-4.723,11.11-10.555c0-5.828-4.976-10.554-11.11-10.554
						c-4.601,0-8.545,2.655-10.234,6.438c-0.003-0.006-0.01-0.016-0.014-0.025v11.61c0.004-0.01,0.011-0.017,0.014-0.025
						C49.63,59.681,53.574,59.008,58.175,59.008z"/>
				</g>
			</g>
		</g>
		<g>
			<g>
				<g>
					<path style="fill:#F39E2B;" d="M45.973,56.443l-2.69,1.775c-1.082,0.715-1.424,2.21-0.761,3.324l4.212,7.073
						c0.332,0.56,0.77,0.839,1.207,0.839V55.906C47.225,55.906,46.515,56.086,45.973,56.443z"/>
				</g>
			</g>
			<g>
				<g>
					<path style="fill:#FBDD58;" d="M49.147,68.616l4.212-7.073c0.665-1.114,0.321-2.609-0.761-3.324l-2.69-1.775
						c-0.542-0.357-1.255-0.537-1.968-0.537v13.549C48.378,69.455,48.815,69.176,49.147,68.616z"/>
				</g>
			</g>
		</g>
		<g>
			<g>
				<g>
					<path style="fill:#4E1412;" d="M39.652,48.477c0,1.989-1.615,3.602-3.601,3.602c-1.989,0-3.601-1.612-3.601-3.602
						c0-1.986,1.611-3.599,3.601-3.599C38.037,44.878,39.652,46.49,39.652,48.477z"/>
				</g>
			</g>
			<g>
				<g>
					<circle style="fill:#4E1412;" cx="59.489" cy="48.477" r="3.601"/>
				</g>
			</g>
			<g>
				<g>
					<circle style="fill:#FFFFFF;" cx="37.385" cy="47.049" r="1.231"/>
				</g>
			</g>
			<g>
				<g>
					<circle style="fill:#FFFFFF;" cx="60.72" cy="47.049" r="1.23"/>
				</g>
			</g>
		</g>
	</g>
	<g>
		<g>
			<path style="fill:#EA575B;" d="M31.416,0c3.276,1.799,5.771,3.9,8.058,5.68c0.56,0.443,1.113,0.844,1.589,1.178
				c0.253,0.179,0.461,0.262,0.689,0.417l0.925,0.614c1.334,0.902,2.877,2.209,4.129,3.785c2.578,3.186,3.752,7.162,3.808,10.744
				c0.04,3.627-0.802,7.072-2.844,10.241c-2.114-3.112-3.443-5.978-4.81-8.483c-1.335-2.531-2.577-4.54-3.958-6.273
				c-0.706-0.895-1.478-1.736-2.524-2.881l-0.85-0.941c-0.354-0.375-0.71-0.841-0.987-1.241c-0.593-0.818-1.033-1.642-1.419-2.456
				C31.757,7.111,31.063,3.764,31.416,0z"/>
		</g>
	</g>
</g>
</svg>
