<?xml version="1.0" encoding="utf-8"?>
<!-- Generator: Adobe Illustrator 16.0.0, SVG Export Plug-In . SVG Version: 6.00 Build 0)  -->
<!DOCTYPE svg PUBLIC "-//W3C//DTD SVG 1.1//EN" "http://www.w3.org/Graphics/SVG/1.1/DTD/svg11.dtd">
<svg version="1.1" id="Layer_1" xmlns="http://www.w3.org/2000/svg" xmlns:xlink="http://www.w3.org/1999/xlink" x="0px" y="0px"
	 width="91.051px" height="112.563px" viewBox="17.176 12.461 91.051 112.563"
	 style="enable-background:new 17.176 12.461 91.051 112.563;" xml:space="preserve">
<g>
	<path style="fill:#DCDCDC;" d="M103.727,66.404c0,14.726-18.69,32.536-39.37,32.657V45.577
		C85.036,45.615,103.727,51.681,103.727,66.404z"/>
	<path style="fill:#FFFFFF;" d="M64.151,45.573c0.07,0,0.136,0.004,0.205,0.004v53.484c-0.069,0.002-0.135,0.013-0.205,0.013
		c-20.764,0-37.593-11.979-37.593-26.753C26.559,57.549,43.388,45.573,64.151,45.573z"/>
	<path style="fill:#3F4276;" d="M62.91,46.21l-3.529-7.059c1.634-0.099,3.294-0.165,4.976-0.185v7.189
		C63.876,46.177,63.396,46.195,62.91,46.21z"/>
	<path style="fill:#3F4276;" d="M22.149,74.817c0-15.697,6.18-25.104,15.852-30.323l3.236,6.479
		c-2.982,1.705-4.742,3.724-4.742,5.913c0,5.275,10.128,9.639,23.475,10.561l4.387,7.179v50.374
		C40.976,124.486,22.149,102.226,22.149,74.817z"/>
	<path style="fill:#3F2B3B;" d="M66.532,78.179V67.596c0.418-0.008,0.826-0.033,1.246-0.052l7.271,22.962V66.95
		c10.963-1.512,18.827-5.43,18.827-10.064c0-5.937-12.847-10.76-28.69-10.76c-0.283,0-0.557,0.018-0.83,0.03v-7.189
		c0.279,0,0.551-0.015,0.83-0.015c23.768,0,43.04,8.135,43.04,35.865c0,27.731-19.272,50.207-43.04,50.207
		c-0.277,0-0.555-0.017-0.83-0.025V74.625L66.532,78.179z"/>
	<polygon style="fill:#FBC16C;" points="62.023,60.474 46.446,29.33 21.156,12.461 17.176,18.429 40.887,34.231 54.007,60.474 	"/>
</g>
</svg>
