<?xml version="1.0" encoding="utf-8"?>
<!-- Generator: Adobe Illustrator 16.0.0, SVG Export Plug-In . SVG Version: 6.00 Build 0)  -->
<!DOCTYPE svg PUBLIC "-//W3C//DTD SVG 1.1//EN" "http://www.w3.org/Graphics/SVG/1.1/DTD/svg11.dtd">
<svg version="1.1" id="Layer_1" xmlns="http://www.w3.org/2000/svg" xmlns:xlink="http://www.w3.org/1999/xlink" x="0px" y="0px"
	 width="129.081px" height="74.74px" viewBox="0 0 129.081 74.74" style="enable-background:new 0 0 129.081 74.74;"
	 xml:space="preserve">
<path style="fill-rule:evenodd;clip-rule:evenodd;fill:#FF633B;" d="M114.182,14.037C83.9-3.62,50.248-5.831,11.691,14.384
	c-10.614,6.029-5.324,23.752,3.134,43.779l96.106,0.178C118.658,40.74,127.162,22.806,114.182,14.037L114.182,14.037z"/>
<polygon style="fill-rule:evenodd;clip-rule:evenodd;fill:#FFFFFF;" points="21.629,74.74 18.699,58.06 24.117,57.537 27.147,74.74 
	21.629,74.74 "/>
<polygon style="fill-rule:evenodd;clip-rule:evenodd;fill:#FFFFFF;" points="105.607,74.74 108.539,58.06 103.121,57.537 
	100.091,74.74 105.607,74.74 "/>
<path style="fill-rule:evenodd;clip-rule:evenodd;fill:#EB380D;" d="M8.713,57.742L8.713,57.742c0,5.061,4.641,9.168,10.365,9.168
	h88.824c5.724,0,10.368-4.107,10.368-9.168l0,0c-0.067-4.195-4.771-7.57-10.368-9.162c-27.36-7.578-57.082-7.197-88.824,0
	C13.483,49.962,8.773,53.4,8.713,57.742L8.713,57.742z"/>
<path style="fill-rule:evenodd;clip-rule:evenodd;fill:#FF8263;" d="M0.17,37.55l2.758,15.324c0.993,5.506,6.058,9.209,11.308,8.268
	h0.004c5.248-0.947,8.701-6.186,7.711-11.693L19.19,34.125c-0.989-5.51-6.056-9.209-11.305-8.264H7.883
	C2.632,26.804-0.824,32.041,0.17,37.55L0.17,37.55z"/>
<path style="fill-rule:evenodd;clip-rule:evenodd;fill:#FF8263;" d="M128.911,37.55l-2.759,15.324
	c-0.992,5.506-6.059,9.209-11.307,8.268h-0.004c-5.248-0.947-8.701-6.186-7.712-11.693l2.762-15.324
	c0.989-5.51,6.056-9.209,11.304-8.264h0.004C126.447,26.804,129.904,32.041,128.911,37.55L128.911,37.55z"/>
</svg>
