<?xml version="1.0" encoding="utf-8"?>
<!-- Generator: Adobe Illustrator 16.0.0, SVG Export Plug-In . SVG Version: 6.00 Build 0)  -->
<!DOCTYPE svg PUBLIC "-//W3C//DTD SVG 1.1//EN" "http://www.w3.org/Graphics/SVG/1.1/DTD/svg11.dtd">
<svg version="1.1" id="Layer_1" xmlns="http://www.w3.org/2000/svg" xmlns:xlink="http://www.w3.org/1999/xlink" x="0px" y="0px"
	 width="113.138px" height="126.342px" viewBox="0 0 113.138 126.342" style="enable-background:new 0 0 113.138 126.342;"
	 xml:space="preserve">
<g>
	<g>
		<g>
			<g>
				<g>
					<rect x="39.254" y="104.63" style="fill:#D3C5C1;" width="11.893" height="16.399"/>
				</g>
			</g>
			<g>
				<g>
					<rect x="61.993" y="104.63" style="fill:#F6E9E5;" width="11.894" height="16.399"/>
				</g>
			</g>
			<g>
				<g>
					<g>
						<path style="fill:#3C3C3B;" d="M45.074,123.154c0.504,0,0.912,0.408,0.912,0.91v2.277h9.565c0-5.715-4.635-10.35-10.351-10.35
							s-10.35,4.635-10.35,10.35h9.313v-2.277C44.164,123.563,44.572,123.154,45.074,123.154z"/>
					</g>
				</g>
			</g>
			<g>
				<g>
					<g>
						<path style="fill:#3C3C3B;" d="M67.811,123.154c0.505,0,0.913,0.408,0.913,0.91v2.277h9.565c0-5.715-4.636-10.35-10.353-10.35
							c-5.715,0-10.351,4.635-10.351,10.35H66.9v-2.277C66.9,123.563,67.308,123.154,67.811,123.154z"/>
					</g>
				</g>
			</g>
		</g>
		<g>
			<g style="opacity:0.39;">
				<g>
					<path style="fill:#C6CCD6;" d="M56.57,94.624c17.233,0,31.765-8.736,36.406-20.702c-4.642-16-19.173-24.744-36.406-24.744
						c-17.234,0-31.766,8.744-36.407,24.744C24.804,85.887,39.335,94.624,56.57,94.624z"/>
				</g>
			</g>
			<g>
				<g>
					<path style="fill:#D3C5C1;" d="M56.57,94.624c17.233,0,31.765-8.736,36.406-20.702c-4.642-16-19.173-24.744-36.406-24.744
						c-17.234,0-31.766,8.744-36.407,24.744C24.804,85.887,39.335,94.624,56.57,94.624z"/>
				</g>
			</g>
		</g>
		<g>
			<g>
				<g>
					<path style="fill:#F6E9E5;" d="M75.556,96.442c0.774-3.434,5.029-4.267,6.433-7.271c1.392-2.996,9.638-6.622,12.49-2.856
						c0.016-0.329,0.066-0.649,0.066-0.982c0-4.141-0.563-7.939-1.569-11.411C88.334,85.887,73.803,94.624,56.57,94.624v19.593
						c10.312,0,19.65-3.136,26.493-8.21c-1.95-0.316-3.921-1.148-5.64-2.899C77.423,103.107,74.783,99.875,75.556,96.442z"/>
				</g>
			</g>
			<g>
				<g>
					<path style="fill:#3C3C3B;" d="M94.479,86.315c-2.853-3.766-11.099-0.14-12.49,2.856c-1.403,3.004-5.658,3.837-6.433,7.271
						c-0.773,3.434,1.867,6.665,1.867,6.665c1.719,1.751,3.689,2.583,5.64,2.899C89.851,100.974,94.138,94.03,94.479,86.315z"/>
				</g>
			</g>
		</g>
	</g>
	<g>
		<g>
			<g>
				<g>
					<path style="fill:#3C3C3B;" d="M1.33,8.408c-4.645,5.369,3.371,23.166,16.421,23.166c13.049,0,17.43,0,17.43,0
						S29.187,8.408,16.138,8.408C3.087,8.408,3.751,5.608,1.33,8.408z"/>
				</g>
			</g>
			<g>
				<g>
					<path style="fill:#D76C79;" d="M7.328,12.512c-2.998,3.466,2.178,14.957,10.6,14.957c8.426,0,11.255,0,11.255,0
						s-3.87-14.957-12.295-14.957C8.463,12.512,8.891,10.705,7.328,12.512z"/>
				</g>
			</g>
		</g>
		<g>
			<g>
				<g>
					<path style="fill:#3C3C3B;" d="M111.809,8.408c4.645,5.369-3.371,23.166-16.422,23.166s-17.432,0-17.432,0
						S83.952,8.408,97,8.408C110.048,8.408,109.387,5.608,111.809,8.408z"/>
				</g>
			</g>
			<g>
				<g>
					<path style="fill:#D76C79;" d="M105.81,12.512c2.998,3.466-2.178,14.957-10.6,14.957c-8.426,0-11.255,0-11.255,0
						s3.871-14.957,12.295-14.957S104.247,10.705,105.81,12.512z"/>
				</g>
			</g>
		</g>
	</g>
	<path style="fill:#D3C5C1;" d="M21.899,33.872c0,0.525,0.03,1.007,0.044,1.509c0.045,1.42,0.161,2.738,0.309,4.021
		c0.609,5.351,1.969,9.814,3.056,15.668c0.524,2.826,1.807,8.439,1.807,8.439c0.02,0.147,0.06,0.29,0.08,0.438
		c0.927,6.045,4.35,11.699,9.345,15.926c5.271,4.457,12.291,7.324,20.032,7.324V2.593C36.415,2.593,21.899,16.597,21.899,33.872z"/>
	<path style="fill:#F6E9E5;" d="M56.365,2.593v84.603c7.743,0,14.762-2.867,20.032-7.324c4.995-4.227,8.417-9.881,9.345-15.926
		c0.021-0.147,0.06-0.29,0.08-0.438c0,0,1.281-5.613,1.807-8.439c1.088-5.854,2.446-10.317,3.057-15.667
		c0.146-1.283,0.261-2.602,0.306-4.021c0.015-0.502,0.045-0.983,0.045-1.509C91.036,16.597,76.521,2.593,56.365,2.593z"/>
	<g>
		<g>
			<ellipse style="fill:#F29E9F;" cx="56.569" cy="70.618" rx="28.546" ry="18.677"/>
		</g>
	</g>
	<g>
		<g>
			<g>
				<circle style="fill:#D76C79;" cx="39.536" cy="67.732" r="4.099"/>
			</g>
		</g>
		<g>
			<g>
				<circle style="fill:#D76C79;" cx="73.699" cy="67.732" r="4.1"/>
			</g>
		</g>
	</g>
	<g>
		<path style="fill:#D3C5C1;" d="M56.074,0c0,0,25.688-0.338,24.688,15.331c0,0-2.811-7.501-5.905-7.666s0,0,0,0
			s2.595,4.747,0,7.666c0,0-2.331-6.751-4.463-7.666c0,0,1.845,4.247-0.644,7.666c0,0-2.074-7.251-4.781-7.666
			c0,0,1.043,5.247-1.707,7.666c0,0,0.688-5.501-3.25-7.666c0,0,0.938,5.247-1.5,7.666c0,0,0.816-4.751-2.467-7.666s0,0,0,0l0,0l0,0
			L56.074,0z"/>
		<path style="fill:#D3C5C1;" d="M56.365,0c0,0-25.688-0.338-24.688,15.331c0,0,2.811-7.501,5.905-7.666s0,0,0,0
			s-2.595,4.747,0,7.666c0,0,2.331-6.751,4.463-7.666c0,0-1.845,4.247,0.644,7.666c0,0,2.074-7.251,4.781-7.666
			c0,0-1.043,5.247,1.707,7.666c0,0-0.688-5.501,3.25-7.666c0,0-0.938,5.247,1.5,7.666c0,0-0.816-4.751,2.467-7.666s0,0,0,0l0,0l0,0
			L56.365,0z"/>
	</g>
	<path style="fill:#3C3C3B;" d="M84.962,15.84c0,0-5.926,6.16-11.566,6.91S61.314,26,61.785,35.25s9.301,14.233,18.221,13.927
		s10.675-9.776,10.675-9.776S93.171,26.27,84.962,15.84"/>
	<path style="fill:#3C3C3B;" d="M27.969,15.84c0,0,5.926,6.16,11.566,6.91S51.618,26,51.147,35.25s-9.301,14.233-18.221,13.927
		s-10.675-9.776-10.675-9.776S19.76,26.27,27.969,15.84"/>
	<g>
		<g>
			<g>
				<circle style="fill:#F5F0F2;" cx="74.167" cy="33.719" r="6.479"/>
			</g>
		</g>
		<g>
			<g>
				<g>
					<circle style="fill:#3C3C3B;" cx="74.167" cy="33.719" r="4.556"/>
				</g>
			</g>
		</g>
		<g>
			<g>
				<circle style="fill:#D3C5C1;" cx="40.991" cy="33.719" r="6.478"/>
			</g>
		</g>
		<g>
			<g>
				<g>
					<circle style="fill:#3C3C3B;" cx="40.99" cy="33.719" r="4.555"/>
				</g>
			</g>
		</g>
		<g>
			<g>
				<circle style="fill:#FFFFFF;" cx="42.688" cy="32.352" r="1.672"/>
			</g>
		</g>
		<g>
			<g>
				<circle style="fill:#FFFFFF;" cx="75.558" cy="32.352" r="1.672"/>
			</g>
		</g>
	</g>
	<g>
		<path style="fill:#D3C5C1;" d="M56.57,94.624c-17.234,0-31.766-8.736-36.407-20.702c-1.007,3.472-1.569,7.271-1.569,11.411
			c0,0.334,0.019,0.664,0.033,0.995c0.04-0.094,1.041-2.404,3.272-1.623c2.277,0.797,1.277,3.963,3.61,6.13s5.684-2.334,9.342,0
			s4.51,9.168,1.584,11.834c-1.656,1.509-4.049,2.803-6.972,2.888c6.892,5.343,16.487,8.661,27.106,8.661V94.624z"/>
		<path style="fill:#3C3C3B;" d="M36.435,102.668c2.926-2.666,2.074-9.5-1.584-11.834s-7.009,2.167-9.342,0s-1.333-5.333-3.61-6.13
			c-2.231-0.781-3.232,1.529-3.272,1.623c0.333,7.481,4.401,14.238,10.837,19.229C32.386,105.471,34.779,104.177,36.435,102.668z"/>
	</g>
	<path style="fill:#3C3C3B;" d="M36.435,107.002c1.337,1.93,6.051,2.063,9.109-0.058c3.059-2.119,4.182-7.356,2.533-9.028
		c-3.482-3.532-3.534,1.718-6.592,3.837C38.426,103.874,35.097,105.072,36.435,107.002z"/>
</g>
</svg>
