<?xml version="1.0" encoding="utf-8"?>
<!-- Generator: Adobe Illustrator 16.0.0, SVG Export Plug-In . SVG Version: 6.00 Build 0)  -->
<!DOCTYPE svg PUBLIC "-//W3C//DTD SVG 1.1//EN" "http://www.w3.org/Graphics/SVG/1.1/DTD/svg11.dtd">
<svg version="1.1" id="Layer_1" xmlns="http://www.w3.org/2000/svg" xmlns:xlink="http://www.w3.org/1999/xlink" x="0px" y="0px"
	 width="118.986px" height="176.266px" viewBox="0 0 118.986 176.266" style="enable-background:new 0 0 118.986 176.266;"
	 xml:space="preserve">
<g>
	<g>
		<g>
			<path style="fill:#F6F3CF;" d="M37.994,46.583c-3.527-1.608-7.777-3.713-11.826-6.179c-2.016-1.238-4.066-2.543-6.041-3.928
				c-0.26-0.187-0.518-0.379-0.775-0.568c0.064-0.23,0.131-0.461,0.217-0.695c0.105-0.291,0.254-0.598,0.373-0.891
				c0.182-0.309,0.299-0.613,0.492-0.926c0.367-0.632,0.758-1.282,1.24-1.964c0.451-0.681,0.992-1.379,1.52-2.102
				c0.563-0.728,1.133-1.467,1.703-2.206c0.592-0.757,1.186-1.515,1.768-2.26c0.582-0.764,1.174-1.515,1.729-2.27
				c1.123-1.499,2.16-2.966,3.018-4.294c0.859-1.325,1.541-2.511,2-3.381c0.455-0.874,0.695-1.421,0.695-1.421
				s-0.594,0.07-1.564,0.324c-0.965,0.258-2.297,0.713-3.785,1.436c-2.98,1.428-6.58,3.989-9.371,7.552
				c-0.697,0.886-1.338,1.841-1.908,2.829c-0.557,1.01-1.051,2.042-1.412,3.132c-0.387,1.062-0.613,2.199-0.729,3.284
				c-0.016,0.172-0.02,0.346-0.025,0.519c-0.184-0.179-0.381-0.354-0.555-0.535c-0.334-0.391-0.729-0.771-0.988-1.153
				c-0.146-0.189-0.307-0.379-0.398-0.559l-0.168-0.27l-0.074-0.115c-0.115-0.272-0.268-0.603-0.338-0.809
				c0.016-0.083,0-0.148-0.041-0.218c-0.037-0.31-0.102-0.678-0.068-1.081c0.053-0.805,0.227-1.733,0.574-2.698
				c0.348-0.96,0.789-1.935,1.307-2.899c1.031-1.924,2.268-3.783,3.531-5.508c1.262-1.73,2.541-3.347,3.752-4.829
				c1.211-1.486,2.355-2.838,3.383-4.037c1.033-1.205,1.934-2.256,2.676-3.121c0.754-0.87,1.346-1.554,1.748-2.02
				C30.055,2.252,30.27,2,30.27,2s-0.307,0.13-0.865,0.405c-0.551,0.283-1.383,0.675-2.381,1.259
				c-2.025,1.133-4.854,2.866-8.008,5.33c-1.576,1.234-3.238,2.646-4.904,4.282c-1.521,1.503-3.047,3.202-4.457,5.187
				c-0.213-0.219-0.42-0.442-0.572-0.691c-0.264-0.359-0.393-0.756-0.471-1.088c-0.045-0.369-0.064-0.68-0.053-1.087
				c0.02-0.412,0.029-0.857,0.1-1.412c0.043-0.53,0.137-1.141,0.229-1.77c0.105-0.638,0.201-1.3,0.326-1.981
				c0.104-0.68,0.232-1.371,0.328-2.061c0.215-1.377,0.383-2.741,0.473-3.969c0.092-1.227,0.105-2.316,0.084-3.112
				C10.068,0.494,10.018,0,10.018,0S9.559,0.193,8.865,0.628C8.18,1.065,7.273,1.751,6.354,2.7C5.43,3.648,4.49,4.859,3.705,6.311
				C3.311,7.039,2.953,7.82,2.654,8.662c-0.303,0.835-0.527,1.742-0.684,2.683c-0.139,0.952-0.211,1.94-0.115,2.985
				c0.068,1.021,0.338,2.12,0.783,3.142c0.443,1.037,1.186,1.985,2.006,2.682c0.861,0.669,1.775,1.077,2.596,1.234
				c0.191,0.042,0.375,0.069,0.555,0.089c-0.207,0.397-0.418,0.786-0.611,1.207c-0.619,1.345-1.098,2.896-1.273,4.633
				c-0.1,0.871-0.063,1.785,0.053,2.752c0.107,0.556,0.24,1.117,0.406,1.662c0.141,0.391,0.25,0.622,0.377,0.941l0.047,0.112
				l0.021,0.057c0.25,0.53,0.082,0.167,0.143,0.295l0.02,0.035l0.164,0.282l0.332,0.563c0.219,0.391,0.463,0.709,0.707,1.037
				c0.479,0.687,1,1.233,1.516,1.82c2.131,2.15,4.391,3.809,6.68,5.25c2.283,1.447,4.594,2.655,6.857,3.729
				c4.529,2.141,8.883,3.705,12.664,4.868c3.781,1.16,9.521,3.26,11.795,3.695l4.719-1.721
				C52.41,52.696,41.523,48.191,37.994,46.583z"/>
			<path style="fill:#F6F3CF;" d="M51.625,51.406c-0.234-0.38-0.518-0.841-0.846-1.371c-0.301-0.527-0.648-1.081-0.973-1.697
				c-0.342-0.601-0.66-1.259-0.992-1.921c-0.141-0.351-0.311-0.685-0.467-1.03c-0.125-0.368-0.299-0.706-0.441-1.068
				c-0.115-0.379-0.285-0.727-0.412-1.104c-0.111-0.386-0.268-0.747-0.375-1.14c-0.252-0.765-0.477-1.557-0.684-2.362
				c-0.428-1.604-0.758-3.291-1.072-4.937c-0.307-1.719-0.59-3.322-0.834-4.697c-0.254-1.437-0.496-2.696-0.689-3.607
				C43.643,25.559,43.508,25,43.508,25s-0.432,0.381-1.029,1.147c-0.588,0.767-1.326,1.924-1.955,3.421
				c-0.623,1.495-1.154,3.331-1.348,5.38c-0.057,0.513-0.088,1.035-0.088,1.569c-0.02,0.533-0.002,1.076,0.035,1.624
				c0.076,1.096,0.25,2.215,0.535,3.317c0.287,1.102,0.672,2.19,1.172,3.215c0.486,1.027,1.104,1.98,1.758,2.846
				c0.35,0.42,0.686,0.834,1.045,1.211c0.383,0.36,0.742,0.718,1.115,1.039c0.396,0.302,0.773,0.595,1.15,0.857
				c0.387,0.254,0.775,0.474,1.145,0.68c0.744,0.404,1.475,0.679,2.113,0.894c0.664,0.181,1.225,0.335,1.715,0.394
				c0.98,0.115,1.539,0.103,1.539,0.103S52.125,52.177,51.625,51.406z"/>
		</g>
		<g>
			<path style="fill:#F6F3CF;" d="M80.992,46.583c3.527-1.608,7.777-3.713,11.826-6.179c2.016-1.238,4.066-2.543,6.041-3.928
				c0.26-0.187,0.518-0.379,0.775-0.568c-0.064-0.23-0.131-0.461-0.217-0.695c-0.105-0.291-0.254-0.598-0.373-0.891
				c-0.182-0.309-0.299-0.613-0.492-0.926c-0.367-0.632-0.758-1.282-1.24-1.964c-0.451-0.681-0.992-1.379-1.52-2.102
				c-0.563-0.728-1.133-1.467-1.703-2.206c-0.592-0.757-1.186-1.515-1.768-2.26c-0.582-0.764-1.174-1.515-1.729-2.27
				c-1.123-1.499-2.16-2.966-3.018-4.294c-0.859-1.325-1.541-2.511-2-3.381c-0.455-0.874-0.695-1.421-0.695-1.421
				s0.594,0.07,1.564,0.324c0.965,0.258,2.297,0.713,3.785,1.436c2.98,1.428,6.58,3.989,9.371,7.552
				c0.697,0.886,1.338,1.841,1.908,2.829c0.557,1.01,1.051,2.042,1.412,3.132c0.387,1.062,0.613,2.199,0.729,3.284
				c0.016,0.172,0.02,0.346,0.025,0.519c0.184-0.179,0.381-0.354,0.555-0.535c0.334-0.391,0.729-0.771,0.988-1.153
				c0.146-0.189,0.307-0.379,0.398-0.559l0.168-0.27l0.074-0.115c0.115-0.272,0.268-0.603,0.338-0.809
				c-0.016-0.083,0-0.148,0.041-0.218c0.037-0.31,0.102-0.678,0.068-1.081c-0.053-0.805-0.227-1.733-0.574-2.698
				c-0.348-0.96-0.789-1.935-1.307-2.899c-1.031-1.924-2.268-3.783-3.531-5.508c-1.262-1.73-2.541-3.347-3.752-4.829
				c-1.211-1.486-2.355-2.838-3.383-4.037c-1.033-1.205-1.934-2.256-2.676-3.121c-0.754-0.87-1.346-1.554-1.748-2.02
				C88.932,2.252,88.717,2,88.717,2s0.307,0.13,0.865,0.405c0.551,0.283,1.383,0.675,2.381,1.259
				c2.025,1.133,4.854,2.866,8.008,5.33c1.576,1.234,3.238,2.646,4.904,4.282c1.521,1.503,3.047,3.202,4.457,5.187
				c0.213-0.219,0.42-0.442,0.572-0.691c0.264-0.359,0.393-0.756,0.471-1.088c0.045-0.369,0.064-0.68,0.053-1.087
				c-0.02-0.412-0.029-0.857-0.1-1.412c-0.043-0.53-0.137-1.141-0.229-1.77c-0.105-0.638-0.201-1.3-0.326-1.981
				c-0.104-0.68-0.232-1.371-0.328-2.061c-0.215-1.377-0.383-2.741-0.473-3.969c-0.092-1.227-0.105-2.316-0.084-3.112
				c0.029-0.798,0.08-1.292,0.08-1.292s0.459,0.193,1.152,0.628c0.686,0.438,1.592,1.123,2.512,2.072
				c0.924,0.948,1.863,2.159,2.648,3.61c0.395,0.729,0.752,1.51,1.051,2.352c0.303,0.835,0.527,1.742,0.684,2.683
				c0.139,0.952,0.211,1.94,0.115,2.985c-0.068,1.021-0.338,2.12-0.783,3.142c-0.443,1.037-1.186,1.985-2.006,2.682
				c-0.861,0.669-1.775,1.077-2.596,1.234c-0.191,0.042-0.375,0.069-0.555,0.089c0.207,0.397,0.418,0.786,0.611,1.207
				c0.619,1.345,1.098,2.896,1.273,4.633c0.1,0.871,0.063,1.785-0.053,2.752c-0.107,0.556-0.24,1.117-0.406,1.662
				c-0.141,0.391-0.25,0.622-0.377,0.941l-0.047,0.112l-0.021,0.057c-0.25,0.53-0.082,0.167-0.143,0.295l-0.02,0.035l-0.164,0.282
				l-0.332,0.563c-0.219,0.391-0.463,0.709-0.707,1.037c-0.479,0.687-1,1.233-1.516,1.82c-2.131,2.15-4.391,3.809-6.68,5.25
				c-2.283,1.447-4.594,2.655-6.857,3.729c-4.529,2.141-8.883,3.705-12.664,4.868c-3.781,1.16-9.521,3.26-11.795,3.695l-4.719-1.721
				C66.576,52.696,77.463,48.191,80.992,46.583z"/>
			<path style="fill:#F6F3CF;" d="M67.361,51.406c0.234-0.38,0.518-0.841,0.846-1.371c0.301-0.527,0.648-1.081,0.973-1.697
				c0.342-0.601,0.66-1.259,0.992-1.921c0.141-0.351,0.311-0.685,0.467-1.03c0.125-0.368,0.299-0.706,0.441-1.068
				c0.115-0.379,0.285-0.727,0.412-1.104c0.111-0.386,0.268-0.747,0.375-1.14c0.252-0.765,0.477-1.557,0.684-2.362
				c0.428-1.604,0.758-3.291,1.072-4.937c0.307-1.719,0.59-3.322,0.834-4.697c0.254-1.437,0.496-2.696,0.689-3.607
				C75.344,25.559,75.479,25,75.479,25s0.432,0.381,1.029,1.147c0.588,0.767,1.326,1.924,1.955,3.421
				c0.623,1.495,1.154,3.331,1.348,5.38c0.057,0.513,0.088,1.035,0.088,1.569c0.02,0.533,0.002,1.076-0.035,1.624
				c-0.076,1.096-0.25,2.215-0.535,3.317c-0.287,1.102-0.672,2.19-1.172,3.215c-0.486,1.027-1.104,1.98-1.758,2.846
				c-0.35,0.42-0.686,0.834-1.045,1.211c-0.383,0.36-0.742,0.718-1.115,1.039c-0.396,0.302-0.773,0.595-1.15,0.857
				c-0.387,0.254-0.775,0.474-1.145,0.68c-0.744,0.404-1.475,0.679-2.113,0.894c-0.664,0.181-1.225,0.335-1.715,0.394
				c-0.98,0.115-1.539,0.103-1.539,0.103S66.861,52.177,67.361,51.406z"/>
		</g>
	</g>
	<g>
		<g>
			<g>
				<g style="opacity:0.39;">
					<g>
						<path style="fill:#C6CCD6;" d="M59.529,146.97c13.154,0,24.246-6.671,27.791-15.805
							c-3.545-12.214-14.637-18.889-27.791-18.889c-13.158,0-24.25,6.675-27.791,18.889C35.279,140.299,46.371,146.97,59.529,146.97
							z"/>
					</g>
				</g>
				<g>
					<g>
						<path style="fill:#64443A;" d="M59.529,146.97c13.154,0,24.246-6.671,27.791-15.805
							c-3.545-12.214-14.637-18.889-27.791-18.889c-13.158,0-24.25,6.675-27.791,18.889C35.279,140.299,46.371,146.97,59.529,146.97
							z"/>
					</g>
				</g>
				<g>
					<g>
						<path style="fill:#64443A;" d="M31.738,131.165c-0.77,2.65-1.199,5.551-1.199,8.713c0,12.177,7.527,22.048,28.99,22.048
							V146.97C46.371,146.97,35.279,140.299,31.738,131.165z"/>
					</g>
				</g>
				<g>
					<g>
						<path style="fill:#8C5C5D;" d="M87.252,131.165c0.77,2.65,1.197,5.551,1.197,8.713c0,12.177-7.361,22.666-28.988,22.048
							V146.97C72.617,146.97,83.709,140.299,87.252,131.165z"/>
					</g>
				</g>
			</g>
		</g>
		<g>
			<g>
				<g>
					<rect x="41.945" y="154.217" style="fill:#64443A;" width="12.076" height="16.652"/>
				</g>
			</g>
			<g>
				<g>
					<rect x="65.035" y="154.217" style="fill:#8C5C5D;" width="12.078" height="16.652"/>
				</g>
			</g>
			<g>
				<g>
					<g>
						<path style="fill:#3C3C3B;" d="M47.857,173.026c0.51,0,0.924,0.415,0.924,0.927v2.313h9.715
							c0-5.806-4.707-10.511-10.514-10.511c-5.805,0-10.512,4.705-10.512,10.511h9.461v-2.313
							C46.932,173.441,47.344,173.026,47.857,173.026z"/>
					</g>
				</g>
			</g>
			<g>
				<g>
					<g>
						<path style="fill:#3C3C3B;" d="M70.943,173.026c0.514,0,0.928,0.415,0.928,0.927v2.313h9.713
							c0-5.806-4.705-10.511-10.512-10.511c-5.805,0-10.51,4.705-10.51,10.511h9.459v-2.313
							C70.021,173.441,70.434,173.026,70.943,173.026z"/>
					</g>
				</g>
			</g>
		</g>
	</g>
	<g>
		<g>
			<g>
				<g>
					<g>
						<path style="fill:#8C5C5D;" d="M31.668,73.971c0,0-14.961,7.525-31.668-11.646c1.676-1.739,16.92-15.459,39.682-4.499
							L31.668,73.971z"/>
					</g>
				</g>
				<g>
					<g>
						<path style="fill:#D76C79;" d="M30.584,69.733c0,0-11.84,2.611-20.945-6.512c0,0,8.662-8.173,25.727-1.405L30.584,69.733z"/>
					</g>
				</g>
			</g>
			<g>
				<g>
					<g>
						<g>
							<path style="fill:#8C5C5D;" d="M87.318,73.971c0,0,14.961,7.525,31.668-11.646c-1.678-1.739-16.922-15.459-39.684-4.499
								L87.318,73.971z"/>
						</g>
					</g>
					<g>
						<g>
							<path style="fill:#D76C79;" d="M88.4,69.733c0,0,11.84,2.611,20.943-6.512c0,0-8.662-8.173-25.723-1.405L88.4,69.733z"/>
						</g>
					</g>
				</g>
			</g>
		</g>
		<g>
			<g>
				<g>
					<path style="fill:#64443A;" d="M27.787,105.121c0.533,2.871,1.838,8.57,1.838,8.57c2.465,13.568,14.414,24.055,29.912,24.055
						V51.832c-20.465,0-35.207,14.222-35.207,31.764C24.33,91.914,26.328,97.246,27.787,105.121z"/>
				</g>
			</g>
			<g>
				<g>
					<g>
						<path style="fill:#8C5C5D;" d="M91.268,105.121c-0.531,2.871-1.836,8.57-1.836,8.57
							c-2.467,13.568-14.412,24.055-29.914,24.055V51.832c20.467,0,35.207,14.222,35.207,31.764
							C94.725,91.914,92.727,97.246,91.268,105.121z"/>
					</g>
				</g>
			</g>
		</g>
		<g>
			<g>
				<g>
					<path style="fill:#D5D2B1;" d="M46.348,83.438c0,3.725-2.332,6.654-6.652,6.654c-3.672,0-6.652-2.979-6.652-6.654
						c0-3.673,2.98-6.65,6.652-6.65C43.373,76.787,46.348,79.763,46.348,83.438z"/>
				</g>
			</g>
		</g>
		<g>
			<g>
				<g>
					<circle style="fill:#F6F3CF;" cx="81.389" cy="83.438" r="6.652"/>
				</g>
			</g>
		</g>
		<g>
			<g>
				<g>
					<circle style="fill:#3C3C3B;" cx="39.695" cy="83.438" r="3.723"/>
				</g>
			</g>
		</g>
		<g>
			<g>
				<g>
					<circle style="fill:#3C3C3B;" cx="81.389" cy="83.438" r="3.723"/>
				</g>
			</g>
		</g>
		<g>
			<g>
				<circle style="fill:#FFFFFF;" cx="41.067" cy="82.257" r="1.315"/>
			</g>
		</g>
		<g>
			<g>
				<circle style="fill:#FFFFFF;" cx="82.704" cy="82.257" r="1.315"/>
			</g>
		</g>
		<g>
			<g>
				<g>
					<ellipse style="fill:#F6F3CF;" cx="59.656" cy="123.398" rx="24.707" ry="16.164"/>
				</g>
			</g>
			<g>
				<g>
					<g>
						<path style="fill:#3C3C3B;" d="M54.076,122.306c0,2.708-0.195,7.905-2.908,7.905c-2.707,0-6.902-5.197-6.902-7.905
							c0-2.711,2.195-4.904,4.902-4.904C51.881,117.401,54.076,119.595,54.076,122.306z"/>
					</g>
				</g>
				<g>
					<g>
						<path style="fill:#3C3C3B;" d="M75.045,122.306c0,2.708-4.195,7.905-6.906,7.905c-2.707,0-2.906-5.197-2.906-7.905
							c0-2.711,2.199-4.904,4.906-4.904C72.85,117.401,75.045,119.595,75.045,122.306z"/>
					</g>
				</g>
			</g>
		</g>
	</g>
</g>
</svg>
