<?xml version="1.0" encoding="utf-8"?>
<!-- Generator: Adobe Illustrator 16.0.0, SVG Export Plug-In . SVG Version: 6.00 Build 0)  -->
<!DOCTYPE svg PUBLIC "-//W3C//DTD SVG 1.1//EN" "http://www.w3.org/Graphics/SVG/1.1/DTD/svg11.dtd">
<svg version="1.1" id="Layer_1" xmlns="http://www.w3.org/2000/svg" xmlns:xlink="http://www.w3.org/1999/xlink" x="0px" y="0px"
	 width="91.477px" height="144.64px" viewBox="0 0 91.477 144.64" style="enable-background:new 0 0 91.477 144.64;"
	 xml:space="preserve">
<g>
	<g>
		<g>
			<g>
				<g>
					<path style="fill:#B68472;" d="M24.347,59.126c0,0-11.502,5.787-24.347-8.953c1.288-1.336,13.008-11.885,30.507-3.457
						L24.347,59.126z"/>
				</g>
			</g>
			<g>
				<g>
					<path style="fill:#D76C79;" d="M23.514,55.868c0,0-9.103,2.01-16.103-5.006c0,0,6.659-6.281,19.777-1.08L23.514,55.868z"/>
				</g>
			</g>
		</g>
		<g>
			<g>
				<g>
					<g>
						<path style="fill:#B68472;" d="M67.13,59.126c0,0,11.502,5.787,24.347-8.953c-1.289-1.336-13.009-11.885-30.508-3.457
							L67.13,59.126z"/>
					</g>
				</g>
				<g>
					<g>
						<path style="fill:#D76C79;" d="M67.963,55.868c0,0,9.102,2.01,16.101-5.006c0,0-6.659-6.281-19.775-1.08L67.963,55.868z"/>
					</g>
				</g>
			</g>
		</g>
	</g>
	<g>
		<g>
			<path style="fill:none;" d="M45.696,122.772c0.027-0.002,0.057-0.005,0.085-0.006C45.753,122.768,45.724,122.771,45.696,122.772z
				"/>
		</g>
	</g>
	<g>
		<g>
			<path style="fill:#B68472;" d="M44.56,122.837c0.808,0,1.588-0.025,2.357-0.064C46.14,122.815,45.355,122.837,44.56,122.837z"/>
		</g>
	</g>
	<g>
		<g>
			<path style="fill:#B68472;" d="M32.632,122.767c19.471-1.038,26.213-14.27,26.213-14.27
				C53.845,116.498,44.394,122.084,32.632,122.767z"/>
		</g>
	</g>
	<g>
		<g>
			<path style="fill:#F39E2B;" d="M45.842,122.772c-0.068-0.004-0.138-0.009-0.209-0.014
				C45.703,122.764,45.773,122.769,45.842,122.772z"/>
		</g>
	</g>
	<g>
		<g>
			<g>
				<path style="fill:#B68472;" d="M48.18,122.767c-0.03,0.001-0.058,0.004-0.087,0.006c-0.768,0.039-1.548,0.064-2.354,0.064v10.42
					c1.714,0,3.386-0.16,5.019-0.42v7.012h11.008v-10.998c7.33-4.454,12.236-11.879,12.625-20.354
					C74.391,108.497,67.648,121.729,48.18,122.767z"/>
			</g>
		</g>
		<g>
			<g>
				<ellipse style="fill:#8E6451;" cx="45.739" cy="96.435" rx="31.352" ry="29.678"/>
			</g>
		</g>
		<g>
			<g>
				<path style="fill:#8E6451;" d="M43.426,122.772c-0.069-0.004-0.139-0.009-0.207-0.014c-19.195-1.08-26.134-14.262-26.134-14.262
					c0.387,8.475,5.295,15.899,12.626,20.354v10.998h11.008v-7.012c1.633,0.26,3.303,0.42,5.021,0.42v-10.42
					C44.946,122.837,44.18,122.812,43.426,122.772z"/>
			</g>
		</g>
		<g>
			<g>
				<g>
					<g>
						<path style="fill:#49170C;" d="M35.1,141.688c0.465,0,0.844,0.378,0.844,0.842v2.109h8.854c0-5.291-4.293-9.582-9.583-9.582
							c-5.291,0-9.583,4.291-9.583,9.582h8.622v-2.109C34.254,142.066,34.631,141.688,35.1,141.688z"/>
					</g>
				</g>
			</g>
			<g>
				<g>
					<g>
						<path style="fill:#49170C;" d="M56.146,141.688c0.467,0,0.845,0.378,0.845,0.842v2.109h8.854c0-5.291-4.288-9.582-9.582-9.582
							c-5.292,0-9.581,4.291-9.581,9.582h8.62v-2.109C55.302,142.066,55.678,141.688,56.146,141.688z"/>
					</g>
				</g>
			</g>
		</g>
	</g>
	<g>
		<g>
			<g>
				<path style="fill:#B68472;" d="M45.739,42.081v65.305v14.342c0.794,0,1.579-0.022,2.354-0.066
					c0.029-0.002,0.057-0.004,0.087-0.006c11.886-0.451,21.274-6.143,26.211-14.27c2.447-4.027,3.891-8.594,3.891-13.492
					C78.281,78.522,76.141,42.081,45.739,42.081z"/>
			</g>
		</g>
		<g>
			<g>
				<path style="fill:#8E6451;" d="M32.528,44.925c-6.257,3.377-10.57,9.404-10.57,9.404c-8.089,12.031-8.764,29.932-8.764,39.564
					c0,4.898,1.506,9.428,3.891,13.492c4.688,7.988,13.676,13.714,26.134,14.263c0.069,0.003,0.138,0.01,0.207,0.014
					c0.763,0.042,1.533,0.065,2.313,0.065v-14.342V42.081C40.548,42.081,36.123,42.985,32.528,44.925z"/>
			</g>
		</g>
		<g>
			<g>
				<ellipse style="fill:#F5C799;" cx="33.677" cy="72.771" rx="6.56" ry="9.133"/>
			</g>
		</g>
		<g>
			<g>
				<ellipse style="fill:#F5C799;" cx="57.799" cy="72.771" rx="6.56" ry="9.133"/>
			</g>
		</g>
		<g>
			<g>
				<g>
					<path style="fill:#49170C;" d="M30.822,74.91c0,1.577,1.276,2.856,2.854,2.856l0,0c1.578,0,2.856-1.279,2.856-2.856v-4.282
						c0-1.576-1.278-2.854-2.856-2.854l0,0c-1.577,0-2.854,1.277-2.854,2.854V74.91z"/>
				</g>
			</g>
			<g>
				<g>
					<path style="fill:#49170C;" d="M54.944,74.91c0,1.577,1.277,2.856,2.854,2.856l0,0c1.579,0,2.856-1.279,2.856-2.856v-4.282
						c0-1.576-1.277-2.854-2.856-2.854l0,0c-1.576,0-2.854,1.277-2.854,2.854V74.91z"/>
				</g>
			</g>
		</g>
		<g>
			<g>
				<ellipse style="fill:#FFFFFF;" cx="58.304" cy="70.723" rx="1.479" ry="1.666"/>
			</g>
		</g>
		<g>
			<g>
				<ellipse style="fill:#FFFFFF;" cx="34.15" cy="70.723" rx="1.48" ry="1.666"/>
			</g>
		</g>
		<g>
			<g>
				<g>
					<path style="fill:#F6E9E5;" d="M44.513,94.716c-0.984,0-1.783,0.801-1.783,1.783c0,0.986,0.799,1.785,1.783,1.785
						c0.986,0,1.785-0.799,1.785-1.785C46.298,95.517,45.499,94.716,44.513,94.716z"/>
				</g>
			</g>
			<g>
				<g>
					<path style="fill:#F6E9E5;" d="M60.437,99.606c-4.688-4.959-10.759-4.82-11.029-4.816c-0.941,0.03-1.679,0.813-1.654,1.756
						c0.026,0.931,0.793,1.667,1.716,1.667c0.013,0,0.026,0,0.04-0.001c0.054,0.01,4.833-0.066,8.439,3.746
						c0.337,0.359,0.789,0.537,1.242,0.537c0.424,0,0.846-0.154,1.178-0.468C61.058,101.376,61.086,100.293,60.437,99.606z"/>
				</g>
			</g>
			<g>
				<g>
					<path style="fill:#49170C;" d="M45.739,92.433c-9.796,0-17.734,5.08-17.734,11.348c0,2.127,0.932,4.109,2.521,5.811
						c0.393-0.555,0.881-1.037,1.438-1.425c0.924-0.638,2.041-1.015,3.251-1.015c3.173,0,5.749,2.574,5.749,5.748
						c0,0.143-0.026,0.277-0.04,0.416c-0.04,0.461-0.124,0.908-0.262,1.336c1.608,0.307,3.311,0.477,5.077,0.477
						c1.765,0,3.465-0.17,5.076-0.477c-0.096-0.299-0.172-0.607-0.226-0.923c-0.045-0.27-0.075-0.545-0.075-0.829
						c0-3.174,2.574-5.748,5.748-5.748c1.59,0,3.02,0.658,4.059,1.705c0.227,0.229,0.444,0.471,0.63,0.734
						c1.591-1.701,2.522-3.684,2.522-5.811C63.474,97.513,55.533,92.433,45.739,92.433z M44.513,98.284
						c-0.984,0-1.783-0.799-1.783-1.785c0-0.982,0.799-1.783,1.783-1.783c0.986,0,1.785,0.801,1.785,1.783
						C46.298,97.485,45.499,98.284,44.513,98.284z M59.19,102.495c-0.453,0-0.905-0.178-1.242-0.537
						c-3.606-3.813-8.386-3.736-8.439-3.746c-0.014,0.001-0.027,0.001-0.04,0.001c-0.923,0-1.689-0.736-1.716-1.667
						c-0.024-0.942,0.713-1.726,1.654-1.756c0.271-0.004,6.341-0.143,11.029,4.816c0.649,0.687,0.621,1.77-0.068,2.421
						C60.036,102.341,59.614,102.495,59.19,102.495z"/>
				</g>
			</g>
		</g>
	</g>
	<g>
		<g>
			<g>
				<path style="fill:#F39E2B;" d="M35.47,32.521c-1.423-3.92-1.945-17.279-1.521-28.484c0.083-2.146-1.59-3.951-3.735-4.033
					c-2.147-0.083-3.949,1.592-4.029,3.736c-0.137,3.558-0.234,7.963-0.154,12.453c-0.131-0.014-0.259-0.039-0.394-0.039
					c-0.526,0-0.704-0.146-0.866-0.322c-1.08-1.174-1.422-4.639-1.254-6.689c0.184-2.135-1.394-4.016-3.529-4.205
					c-2.139-0.186-4.025,1.391-4.214,3.529c-0.122,1.377-0.538,8.462,3.26,12.61c1.707,1.865,3.991,2.851,6.604,2.851
					c0.251,0,0.491-0.029,0.728-0.072c0.251,3.354,0.654,6.498,1.271,9.08c-1.062,0.048-2.13,0.047-3.185-0.061
					c-4.805-0.488-4.956-7.66-4.962-7.99c-0.015-2.135-1.75-3.859-3.887-3.859c-0.002,0-0.007,0-0.011,0
					c-2.146,0.006-3.881,1.751-3.875,3.898c0.015,5.006,2.531,14.727,11.947,15.685c2.784,0.284,5.358,0.054,7.63-0.147
					c0.791-0.07,1.78-0.158,2.642-0.196c0.006,0,0.011,0.002,0.017,0.002c0.016,0,0.029-0.005,0.043-0.005
					c0.859-0.035,1.585-0.021,1.845,0.113c0.003,0.005,0.366,0.515,0.366,2.455c0,2.146,1.74,3.887,3.887,3.887
					c2.145,0,3.887-1.74,3.887-3.887c0-3.728-0.938-6.397-2.867-8.163C39.484,33.179,37.538,32.644,35.47,32.521z"/>
			</g>
		</g>
		<g>
			<g>
				<path style="fill:#F39E2B;" d="M75.905,21.034c-2.164,0.023-3.891,1.709-3.919,3.848c-0.002,0.306-0.146,7.503-4.959,7.992
					c-1.056,0.108-2.123,0.109-3.187,0.063c0.617-2.584,1.021-5.728,1.272-9.082c0.236,0.043,0.478,0.072,0.727,0.072
					c2.614,0,4.897-0.985,6.604-2.851c3.799-4.148,3.383-11.233,3.261-12.61c-0.189-2.14-2.077-3.715-4.214-3.529
					c-2.138,0.189-3.719,2.076-3.529,4.215c0.176,1.979-0.169,5.495-1.25,6.676c-0.164,0.179-0.343,0.326-0.871,0.326
					c-0.134,0-0.262,0.025-0.393,0.039c0.079-4.49-0.018-8.896-0.154-12.453c-0.079-2.145-1.912-3.815-4.029-3.736
					c-2.145,0.082-3.818,1.888-3.736,4.033c0.425,11.204-0.097,24.563-1.52,28.484c-2.066,0.123-4.016,0.656-5.642,2.146
					c-1.931,1.766-2.867,4.436-2.867,8.163c0,2.146,1.74,3.887,3.885,3.887c2.147,0,3.887-1.74,3.887-3.887
					c0-1.835,0.326-2.391,0.307-2.398c0.605-0.326,3.012-0.113,4.606,0.029c2.271,0.201,4.845,0.432,7.63,0.147
					c9.416-0.958,11.933-10.679,11.948-15.685C79.767,22.783,78.043,21.05,75.905,21.034z"/>
			</g>
		</g>
	</g>
</g>
</svg>
