<?xml version="1.0" encoding="utf-8"?>
<!-- Generator: Adobe Illustrator 16.0.0, SVG Export Plug-In . SVG Version: 6.00 Build 0)  -->
<!DOCTYPE svg PUBLIC "-//W3C//DTD SVG 1.1//EN" "http://www.w3.org/Graphics/SVG/1.1/DTD/svg11.dtd">
<svg version="1.1" id="Layer_1" xmlns="http://www.w3.org/2000/svg" xmlns:xlink="http://www.w3.org/1999/xlink" x="0px" y="0px"
	 width="99.744px" height="138.479px" viewBox="0 0 99.744 138.479" style="enable-background:new 0 0 99.744 138.479;"
	 xml:space="preserve">
<g>
	<g>
		<g>
			<path style="fill:#695A42;" d="M40.572,15.311C40.797,14.84,32.299,0,20.299,0c0,0-9.313,14.25-1.334,29.062
				c7.98,14.813,13-10.06,19-1.395L40.572,15.311z"/>
			<path style="fill:#D76C79;" d="M36.098,20.253c0,0-4.879-9.769-13.172-11.886C22.926,8.367,19.564,34.505,36.098,20.253z"/>
		</g>
		<g>
			<path style="fill:#695A42;" d="M74.906,15.311C74.682,14.84,83.18,0,95.18,0c0,0,9.314,14.25,1.334,29.062
				c-7.979,14.813-13-10.06-19-1.395L74.906,15.311z"/>
			<path style="fill:#D76C79;" d="M79.381,20.253c0,0,4.881-9.769,13.174-11.886C92.555,8.367,95.916,34.505,79.381,20.253z"/>
		</g>
	</g>
	<g>
		<g>
			<g>
				<g style="opacity:0.39;">
					<g>
						<path style="fill:#C6CCD6;" d="M57.779,108.021c15.154,0,27.932-8.08,32.016-19.143
							c-4.084-14.793-16.861-22.877-32.016-22.877c-15.156,0-27.934,8.084-32.014,22.877
							C29.846,99.94,42.623,108.021,57.779,108.021z"/>
					</g>
				</g>
				<g>
					<g>
						<path style="fill:#695A42;" d="M57.779,108.021c15.154,0,27.932-8.08,32.016-19.143
							c-4.084-14.793-16.861-22.877-32.016-22.877c-15.156,0-27.934,8.084-32.014,22.877
							C29.846,99.94,42.623,108.021,57.779,108.021z"/>
					</g>
				</g>
				<g>
					<g>
						<path style="fill:#695A42;" d="M25.766,88.878c-0.887,3.211-1.383,6.723-1.383,10.553c0,14.748,8.674,26.703,33.396,26.703
							v-18.113C42.623,108.021,29.846,99.94,25.766,88.878z"/>
					</g>
				</g>
				<g>
					<g>
						<path style="fill:#877B58;" d="M89.717,88.878c0.887,3.211,1.379,6.723,1.379,10.553c0,14.748-8.48,27.453-33.395,26.703
							v-18.113C72.857,108.021,85.635,99.94,89.717,88.878z"/>
					</g>
				</g>
			</g>
		</g>
		<g>
			<g>
				<g>
					<rect x="40.191" y="116.431" style="fill:#695A42;" width="12.076" height="16.652"/>
				</g>
			</g>
			<g>
				<g>
					<rect x="63.281" y="116.431" style="fill:#877B58;" width="12.078" height="16.652"/>
				</g>
			</g>
			<g>
				<g>
					<g>
						<path style="fill:#3C3C3B;" d="M46.104,135.241c0.51,0,0.924,0.414,0.924,0.926v2.313h9.715c0-5.805-4.707-10.51-10.514-10.51
							c-5.805,0-10.512,4.705-10.512,10.51h9.461v-2.313C45.178,135.655,45.59,135.241,46.104,135.241z"/>
					</g>
				</g>
			</g>
			<g>
				<g>
					<g>
						<path style="fill:#3C3C3B;" d="M69.189,135.241c0.514,0,0.928,0.414,0.928,0.926v2.313h9.713
							c0-5.805-4.705-10.51-10.512-10.51c-5.805,0-10.51,4.705-10.51,10.51h9.459v-2.313
							C68.268,135.655,68.68,135.241,69.189,135.241z"/>
					</g>
				</g>
			</g>
		</g>
	</g>
	<g>
		<g>
			<g>
				<path style="fill:#877B58;" d="M89.479,46.669c-0.533-2.871-1.838-8.57-1.838-8.57C85.176,24.53,73.227,7.045,57.729,7.045
					v92.913c20.465,0,38.207-12.221,38.207-29.764C95.936,61.876,90.938,54.544,89.479,46.669z"/>
			</g>
		</g>
		<g>
			<g>
				<g>
					<path style="fill:#695A42;" d="M25.998,46.669c0.531-2.871,1.836-8.57,1.836-8.57C30.301,24.53,42.246,7.045,57.748,7.045
						v92.913c-20.467,0-38.207-12.221-38.207-29.764C19.541,61.876,24.539,54.544,25.998,46.669z"/>
				</g>
			</g>
		</g>
	</g>
	<ellipse style="fill:#575756;" cx="57.738" cy="91.38" rx="16.699" ry="11.697"/>
	<g>
		<circle style="fill:#3C3C3B;" cx="50.44" cy="91.38" r="4.333"/>
		<circle style="fill:#3C3C3B;" cx="65.038" cy="91.38" r="4.333"/>
	</g>
	<g>
		<g>
			<g>
				<g>
					<path style="fill:#49170C;" d="M37.746,45.335c0,1.795,1.453,3.252,3.25,3.252l0,0c1.799,0,3.254-1.457,3.254-3.252v-4.879
						c0-1.797-1.455-3.252-3.254-3.252l0,0c-1.797,0-3.25,1.455-3.25,3.252V45.335z"/>
				</g>
			</g>
			<g>
				<g>
					<path style="fill:#49170C;" d="M71.227,45.335c0,1.795,1.457,3.252,3.252,3.252l0,0c1.799,0,3.254-1.457,3.254-3.252v-4.879
						c0-1.797-1.455-3.252-3.254-3.252l0,0c-1.795,0-3.252,1.455-3.252,3.252V45.335z"/>
				</g>
			</g>
		</g>
		<circle style="fill:#FFFFFF;" cx="41.382" cy="40.774" r="1.929"/>
		<circle style="fill:#FFFFFF;" cx="74.999" cy="40.774" r="1.929"/>
	</g>
	<path style="fill:#695A42;" d="M29.072,103.606c0,0-21.404,18.908-29.072,21.15c0,0,7,2.584,12.666-2.252c0,0-0.666,4.1-2,5.465
		c0,0,10.084-4.068,10.584-10.885c0,0,1.25,3.416-0.916,6.916C20.334,124.001,29.814,113.452,29.072,103.606z"/>
	<g>
		<path style="fill:#F6F3CF;" d="M29.123,87.897c-0.002-0.006,0.037,0.041,0.082,0.082c0.049,0.045,0.121,0.109,0.213,0.193
			c0.195,0.182,0.502,0.432,0.871,0.709c0.381,0.26,0.824,0.566,1.318,0.793c0.484,0.252,1.014,0.42,1.508,0.525
			c0.25,0.02,0.488,0.096,0.717,0.068c0.225,0.004,0.439,0.002,0.635-0.051c0.096-0.014,0.191-0.029,0.283-0.043
			c0.09-0.033,0.176-0.066,0.26-0.098c0.166-0.047,0.318-0.104,0.455-0.197c0.137-0.082,0.26-0.125,0.369-0.201
			c0.107-0.082,0.201-0.152,0.277-0.211c0.152-0.107,0.24-0.17,0.24-0.17l0.066-0.047c1.373-0.969,3.27-0.641,4.236,0.73
			c0.969,1.373,0.641,3.27-0.73,4.236c-0.252,0.178-0.533,0.314-0.811,0.406c0,0-0.238,0.078-0.652,0.213
			c-0.207,0.063-0.457,0.139-0.744,0.225c-0.293,0.076-0.652,0.119-1.023,0.176c-0.369,0.068-0.783,0.088-1.227,0.072
			c-0.217-0.006-0.439-0.01-0.668-0.016c-0.225-0.035-0.455-0.07-0.688-0.107c-0.469-0.063-0.924-0.197-1.373-0.357
			c-0.463-0.133-0.867-0.369-1.287-0.566c-0.799-0.451-1.512-0.971-2.082-1.518c-0.588-0.531-1.039-1.088-1.416-1.559
			c-0.363-0.486-0.641-0.896-0.822-1.205c-0.096-0.162-0.172-0.289-0.223-0.375c-0.043-0.08-0.066-0.123-0.066-0.123l-0.014-0.027
			c-0.363-0.68-0.105-1.525,0.574-1.887C27.992,87.255,28.707,87.407,29.123,87.897z"/>
		<path style="fill:#F6F3CF;" d="M86.355,87.897c0.002-0.006-0.037,0.041-0.082,0.082c-0.049,0.045-0.121,0.109-0.213,0.193
			c-0.195,0.182-0.502,0.432-0.871,0.709c-0.381,0.26-0.824,0.566-1.318,0.793c-0.484,0.252-1.014,0.42-1.508,0.525
			c-0.25,0.02-0.488,0.096-0.717,0.068c-0.225,0.004-0.439,0.002-0.635-0.051c-0.096-0.014-0.191-0.029-0.283-0.043
			c-0.09-0.033-0.176-0.066-0.26-0.098c-0.166-0.047-0.318-0.104-0.455-0.197c-0.137-0.082-0.26-0.125-0.369-0.201
			c-0.107-0.082-0.201-0.152-0.277-0.211c-0.152-0.107-0.24-0.17-0.24-0.17l-0.066-0.047c-1.373-0.969-3.27-0.641-4.236,0.73
			c-0.969,1.373-0.641,3.27,0.73,4.236c0.252,0.178,0.533,0.314,0.811,0.406c0,0,0.238,0.078,0.652,0.213
			c0.207,0.063,0.457,0.139,0.744,0.225c0.293,0.076,0.652,0.119,1.023,0.176c0.369,0.068,0.783,0.088,1.227,0.072
			c0.217-0.006,0.439-0.01,0.668-0.016c0.225-0.035,0.455-0.07,0.688-0.107c0.469-0.063,0.924-0.197,1.373-0.357
			c0.463-0.133,0.867-0.369,1.287-0.566c0.799-0.451,1.512-0.971,2.082-1.518c0.588-0.531,1.039-1.088,1.416-1.559
			c0.363-0.486,0.641-0.896,0.822-1.205c0.096-0.162,0.172-0.289,0.223-0.375c0.043-0.08,0.066-0.123,0.066-0.123l0.014-0.027
			c0.363-0.68,0.105-1.525-0.574-1.887C87.486,87.255,86.771,87.407,86.355,87.897z"/>
	</g>
</g>
</svg>
