<?xml version="1.0" encoding="utf-8"?>
<!-- Generator: Adobe Illustrator 16.0.0, SVG Export Plug-In . SVG Version: 6.00 Build 0)  -->
<!DOCTYPE svg PUBLIC "-//W3C//DTD SVG 1.1//EN" "http://www.w3.org/Graphics/SVG/1.1/DTD/svg11.dtd">
<svg version="1.1" id="Layer_1" xmlns="http://www.w3.org/2000/svg" xmlns:xlink="http://www.w3.org/1999/xlink" x="0px" y="0px"
	 width="123.217px" height="127.447px" viewBox="0 0 123.217 127.447" enable-background="new 0 0 123.217 127.447"
	 xml:space="preserve">
<g>
	<g>
		<g>
			<g>
				<g>
					<rect x="40.967" y="103.896" fill="#8E6451" width="16.704" height="18.09"/>
				</g>
			</g>
			<g>
				<g>
					<rect x="65.62" y="103.896" fill="#B68472" width="16.708" height="18.09"/>
				</g>
			</g>
			<g>
				<g>
					<path fill="#8E6451" d="M49.315,115.67c-6.501,0-11.771,5.273-11.771,11.777h23.55C61.095,120.943,55.821,115.67,49.315,115.67
						z"/>
				</g>
			</g>
			<g>
				<g>
					<path fill="#B68472" d="M73.977,115.67c-6.504,0-11.778,5.273-11.778,11.777h23.551
						C85.749,120.943,80.476,115.67,73.977,115.67z"/>
				</g>
			</g>
		</g>
		<g>
			<g>
				<g opacity="0.39">
					<g>
						<path fill="#C6CCD6" d="M61.72,101.127c13.902,0,25.629-7.053,29.374-16.709C87.349,71.51,75.622,64.451,61.72,64.451
							c-13.907,0-25.633,7.059-29.377,19.967C36.087,94.074,47.813,101.127,61.72,101.127z"/>
					</g>
				</g>
				<g>
					<g>
						<path fill="#8E6451" d="M61.72,101.127c13.902,0,25.629-7.053,29.374-16.709C87.349,71.51,75.622,64.451,61.72,64.451
							c-13.907,0-25.633,7.059-29.377,19.967C36.087,94.074,47.813,101.127,61.72,101.127z"/>
					</g>
				</g>
				<g>
					<g>
						<path fill="#8E6451" d="M32.343,84.418c-0.813,2.801-1.269,5.869-1.269,9.211c0,12.871,13.72,23.307,30.646,23.307v-15.809
							C47.813,101.127,36.087,94.074,32.343,84.418z"/>
					</g>
				</g>
				<g>
					<g>
						<path fill="#B68472" d="M91.021,84.418c0.816,2.801,1.27,5.869,1.27,9.211c0,12.871-13.72,23.307-30.645,23.307v-15.809
							C75.553,101.127,87.275,94.074,91.021,84.418z"/>
					</g>
				</g>
			</g>
		</g>
	</g>
	<g>
		<g>
			<g>
				<g>
					<path fill="#723E2B" d="M36.978,17.061c-1.332-1.406-3.109-2.994-4.622-3.857l-0.5-0.279c-0.085,0.35-0.288,1.043-0.44,1.854
						c-0.267,1.688-0.239,3.422-0.197,5.795c0.05,2.346,0.081,5.207-0.146,8.137c-0.218,2.939-0.666,5.926-1.284,8.807
						c-1.247,5.783-3.104,11.188-5.17,16.34l-0.123,0.307c-2.612,6.512-10.008,9.672-16.519,7.061
						c-6.511-2.609-9.672-10.004-7.061-16.518c0.443-1.107,1.066-2.164,1.76-3.066c2.78-3.576,5.289-7.207,7.278-10.885
						c0.996-1.846,1.853-3.693,2.588-5.66c0.748-1.973,1.341-4.082,2.02-6.691c0.674-2.574,1.559-5.801,3.07-8.795
						c0.734-1.52,1.596-3.111,2.967-4.795c0.69-0.838,1.528-1.705,2.609-2.51c1.074-0.795,2.413-1.527,3.921-1.924
						c1.497-0.414,3.07-0.467,4.422-0.264c1.364,0.201,2.514,0.619,3.499,1.086c1.953,0.955,3.311,2.1,4.489,3.232
						c1.166,1.143,2.129,2.307,3.001,3.488c0.886,1.213,1.607,2.32,2.415,3.725c1.329,2.309,0.533,5.26-1.777,6.588
						c-1.973,1.135-4.411,0.723-5.909-0.863L36.978,17.061z"/>
				</g>
			</g>
			<g>
				<g>
					<path fill="#723E2B" d="M86.238,17.061c1.333-1.406,3.11-2.994,4.623-3.857l0.5-0.279c0.085,0.35,0.288,1.043,0.44,1.854
						c0.268,1.688,0.24,3.422,0.197,5.795c-0.051,2.346-0.081,5.207,0.146,8.137c0.218,2.939,0.665,5.926,1.284,8.807
						c1.246,5.783,3.104,11.188,5.17,16.34l0.124,0.307c2.611,6.512,10.007,9.672,16.517,7.061
						c6.512-2.609,9.673-10.004,7.062-16.518c-0.444-1.107-1.066-2.164-1.76-3.066c-2.78-3.576-5.289-7.207-7.278-10.885
						c-0.994-1.846-1.853-3.693-2.59-5.66c-0.744-1.973-1.339-4.082-2.019-6.691c-0.673-2.574-1.558-5.801-3.069-8.795
						c-0.734-1.52-1.595-3.111-2.967-4.795c-0.69-0.838-1.527-1.705-2.608-2.51c-1.075-0.795-2.414-1.527-3.922-1.924
						c-1.496-0.414-3.07-0.467-4.422-0.264c-1.364,0.201-2.513,0.619-3.497,1.086c-1.952,0.955-3.312,2.1-4.489,3.232
						c-1.165,1.143-2.131,2.307-3.001,3.488c-0.889,1.213-1.609,2.32-2.417,3.725c-1.329,2.309-0.533,5.26,1.777,6.588
						c1.973,1.135,4.413,0.723,5.909-0.863L86.238,17.061z"/>
				</g>
			</g>
		</g>
		<g>
			<g>
				<g>
					<path fill="#B68472" d="M95.269,38.818c-0.563-3.029-1.941-9.057-1.941-9.057C90.72,15.42,78.091,4.338,61.71,4.338v90.811
						c21.633,0,37.217-15.029,37.217-33.574C98.927,52.785,96.813,47.146,95.269,38.818z"/>
				</g>
			</g>
			<g>
				<g>
					<g>
						<path fill="#8E6451" d="M28.172,38.818c0.562-3.029,1.937-9.057,1.937-9.057C32.717,15.42,45.347,4.338,61.732,4.338v90.811
							c-21.636,0-37.218-15.029-37.218-33.574C24.515,52.785,26.626,47.146,28.172,38.818z"/>
					</g>
				</g>
			</g>
		</g>
		<g>
			<g>
				<g>
					<g>
						<rect x="60.757" y="82.787" fill="#3C1312" width="1.342" height="7.736"/>
					</g>
				</g>
			</g>
		</g>
		<g>
			<g>
				<path fill="#723E2B" d="M81.354,69.424c0,7.381-8.785,13.363-19.621,13.363c-10.843,0-19.628-5.982-19.628-13.363
					s8.785-13.363,19.628-13.363C72.568,56.061,81.354,62.043,81.354,69.424z"/>
			</g>
		</g>
		<g>
			<g>
				<g>
					<path fill="#FAEDEB" d="M76.972,70.768c-0.468,0-0.924-0.246-1.169-0.684c-2.579-4.561-8.977-6.188-9.043-6.201
						c-0.72-0.176-1.158-0.904-0.981-1.623c0.177-0.721,0.907-1.164,1.623-0.982c0.31,0.076,7.595,1.928,10.738,7.486
						c0.364,0.646,0.137,1.465-0.509,1.828C77.423,70.711,77.195,70.768,76.972,70.768z"/>
				</g>
			</g>
		</g>
		<g>
			<g>
				<g>
					<path fill="#FAEDEB" d="M61.294,62.943h-1.057c-0.743,0-1.343-0.6-1.343-1.34c0-0.744,0.6-1.344,1.343-1.344h1.057
						c0.742,0,1.342,0.6,1.342,1.344C62.636,62.344,62.036,62.943,61.294,62.943z"/>
				</g>
			</g>
		</g>
		<g>
			<g>
				<g>
					<g>
						<path fill="#411611" d="M61.095,91.863c-7.278,0-10.207-2.754-10.327-2.871c-0.267-0.258-0.272-0.682-0.017-0.947
							c0.258-0.266,0.68-0.275,0.946-0.018l0,0c0.026,0.023,2.718,2.496,9.397,2.496c6.136,0,9.415-2.516,9.447-2.541
							c0.293-0.225,0.713-0.178,0.942,0.113c0.227,0.291,0.177,0.715-0.114,0.943C71.223,89.154,67.689,91.863,61.095,91.863z"/>
					</g>
				</g>
			</g>
		</g>
		<g>
			<g>
				<g>
					<g>
						<g>
							<path fill="#411611" d="M84.342,40.426c0,3.406-2.185,6.162-4.888,6.162c-2.701,0-4.891-2.756-4.891-6.162
								c0-3.4,2.189-6.158,4.891-6.158C82.157,34.268,84.342,37.025,84.342,40.426z"/>
						</g>
					</g>
				</g>
				<g>
					<g>
						<g>
							<path fill="#411611" d="M48.73,40.426c0,3.406-2.189,6.162-4.891,6.162c-2.703,0-4.888-2.756-4.888-6.162
								c0-3.4,2.185-6.158,4.888-6.158C46.541,34.268,48.73,37.025,48.73,40.426z"/>
						</g>
					</g>
				</g>
			</g>
			<g>
				<g>
					<ellipse fill="#FFFFFF" cx="45.598" cy="37.643" rx="1.757" ry="1.871"/>
				</g>
			</g>
			<g>
				<g>
					<ellipse fill="#FFFFFF" cx="81.354" cy="37.643" rx="1.757" ry="1.871"/>
				</g>
			</g>
		</g>
	</g>
</g>
</svg>
