<?xml version="1.0" encoding="utf-8"?>
<!-- Generator: Adobe Illustrator 16.0.0, SVG Export Plug-In . SVG Version: 6.00 Build 0)  -->
<!DOCTYPE svg PUBLIC "-//W3C//DTD SVG 1.1//EN" "http://www.w3.org/Graphics/SVG/1.1/DTD/svg11.dtd">
<svg version="1.1" id="Layer_1" xmlns="http://www.w3.org/2000/svg" xmlns:xlink="http://www.w3.org/1999/xlink" x="0px" y="0px"
	 width="200.106px" height="268.48px" viewBox="0 0 200.106 268.48" style="enable-background:new 0 0 200.106 268.48;"
	 xml:space="preserve">
<g>
	<path style="fill:#5D3D24;" d="M133.613,214.042c0,0,26.102-0.933,41.48,17.245c5.451-0.229,11.871-2.1,15.846-0.933
		c3.859,1.136,10.717,9.789,8.852,13.514c-1.861,3.731-8.139,3.327-11.182,4.193c-3.043,0.871-14.906-0.5-18.387-0.933
		c-2.723-1.593-15.619-5.018-22.145-5.018c-6.523,0-29.412,0.803-34.801,1.306c-5.385,0.51-7.391-9.566-3.914-13.914
		C112.844,225.15,121.031,212.643,133.613,214.042z"/>
	<path style="fill:#B8B0A7;" d="M175.094,231.288c9.316-2.332,16.313,2.332,18.641,4.66c2.33,2.331,5.055,7.602,4.195,9.321
		c-0.932,1.865-3.729,2.331-7.922,2.331c-2.332,0.934-17.711,3.727-22.371-1.402C164.477,242.726,170.098,232.536,175.094,231.288z"
		/>
	<path style="fill:#5D3D24;" d="M56.299,247.333c0,0,29.582-4.781,35.668-4.781c6.092,0,10.873-1.738,8.264-5.657
		c-2.609-3.915-31.75-9.567-38.713-6.523C54.563,233.417,53.689,246.031,56.299,247.333z"/>
	<path style="fill:#5D3D24;" d="M86.037,206.548c-6.93,0.088-12.295,1.72-16.426,4.141c-5.602-5.262-11.375-10.335-13.98-12.177
		c-5.945-4.197-10.656-23.274-10.656-23.274s-6.562,4.54-9.586,17.659c-1.356,5.88-3.052,8.663-4.109,17.703
		c-1.06,9.038,1.278,30.203,1.278,33.698c-11.536,13.284,9.44,12.936,11.188,13.632c1.746,0.702,11.531-3.495,13.982-7.339
		c1.676-2.638-0.705-4.894-0.705-6.99c0-1.432,1.748-2.448,3.609-3.627l0.451,6.492l2.938-6.359l1.043,4.541l3.143-4.541
		l0.703,3.146l3.848-4.894l-0.354,3.495l4.193-4.546l0.352,4.894l3.844-3.495l0.35,4.895l4.895-2.448c0,0,2.797,1.747,11.182,0
		c8.391-1.748,22.377-7.688,25.518-10.835C125.883,227.175,113.65,206.2,86.037,206.548z"/>
	<path style="fill:#DDD3C7;" d="M155.277,170.866c0,0,8.271,26.573,2.721,45.749c-1.906,6.586-5.527,20.91-5.053,22.827
		c0.479,1.912,6.656,9.794,5.695,12.667c-0.955,2.873-18.367,3.216-21.721,1.78c-3.354-1.438-5.406-8.323-5.893-10.717
		c-0.477-2.397,3.287-10.932,2.33-18.12c-0.955-7.185,1.912-33.47,6.703-38.74C144.857,181.045,154.193,168.111,155.277,170.866z"/>
	<path style="fill:#5D3D24;" d="M148.902,154.718c6.973,9.293-2.137,25.588-5.539,34.646c-3.396,9.061-9.053,40.884-23.209,45.409
		C106,239.304,77.863,235.442,65,220.797c-8.125-9.242-26.096-10.433-33.06-7.829c-2.607-1.305,3.327-14.163,3.482-18.701
		c0.433-12.614,6.867-17.72,12.181-26.029C56.822,153.819,72,145.391,88.881,143.96C115.496,141.694,143.809,147.92,148.902,154.718
		z"/>
	<path style="fill:#795134;" d="M76.377,136.724c-7.406,6.171-13.988,10.566-17.902,16.656
		c-2.203,3.435-19.134,15.937-15.223,20.444c-1.805,5.714,15.026,27.16,16.096,27.401c6.896,1.577,33.24,27.217,41.088,36.718
		c5.826,7.053,26.545,4.757,26.545,4.757s7.064-21.651,12.066-38.755c4.754-16.266,10.615-29.323,16.23-33.08
		c-1.467-3.354-9.408-17.933-17.814-24.399C122.736,135.141,83.174,131.062,76.377,136.724z"/>
	<path style="fill:#DDD3C7;" d="M81.396,154.223c-5.91,3.228-13.641,23.332-12.529,35.802c1.922,21.53,6.303,34.447,12.529,43.789
		c6.232,9.346,12.148,11.146,12.77,13.636c0.623,2.492,0.082,11.108,1.324,14.222c1.244,3.113,6.717,3.028,10.453,2.401
		c3.738-0.621,3.75-1.738,8.732-1.738c4.984,0,5.781,0.543,8.268-1.324c2.492-1.869,7.23,0.934,3.49-4.672s-6.203-7.914-6.203-7.914
		s-1.752-16.972-2.746-23.631c-1.668-11.103-6.096-23.529-9.02-26.819c-0.75-0.838,3.227-11.37,3.467-12.034
		c1.092-3.024,1.662-7.768,11.098-12.767C126.887,171.135,88.252,150.483,81.396,154.223z"/>
	<path style="fill:#B8B0A7;" d="M94.469,252.09c0.75-4.5,8.221-2.713,14.234-3.25c6.012-0.533,9.662-1.098,11.49-1.25
		c4.494,3.501,13.354,15.814,6.955,16.982c-6.387,1.169-26.777,3.297-28.936,1.996C96.965,265.826,92.377,264.647,94.469,252.09z"/>
	<path style="fill:#DDD3C7;" d="M98.521,258.704c-1.697,1.078-2.537,3.515-2.055,5.872c0.484,2.356,2.746,2.248,4.738,2.295
		c2.09,0.054,4.926,1.55,5.521-0.149c0.598-1.701,0.668-7.006-1.867-8.526C102.326,256.674,99.914,257.817,98.521,258.704z"/>
	<path style="fill:#DDD3C7;" d="M121.705,254.846c2.072-1.036,5.482,0.879,6.98,2.985c1.492,2.105,2.609,6.044,1.518,7.288
		c-1.088,1.243-3.17,2.412-5.479,2.231c-2.309-0.173-5.658-4.084-6.137-6.444C118.105,258.552,119.982,255.708,121.705,254.846z"/>
	<path style="fill:#DDD3C7;" d="M114.652,255.961c0.906-0.777,5.074-1.267,6.572,0.84c1.492,2.104,3.627,8.902,3.217,9.868
		c-0.4,0.966-3.119,1.747-5.428,1.572c-2.305-0.18-3.648,0.053-4.541-1.347C113.588,265.5,112.877,257.489,114.652,255.961z"/>
	<path style="fill:#DDD3C7;" d="M106.814,258.68c1.395-0.891,3.502-2.39,5.404-1.243c1.902,1.141,2.332,4.159,2.51,6.16
		c0.18,2.006,1.725,3.453,0,4.314c-1.723,0.862-7.688,0.735-8.602-0.328c-0.908-1.07-0.121-6.978,0.279-7.943"/>
	<path style="fill:#B8B0A7;" d="M131.818,249.438c-1.342-4.307-0.258-7.053,0.264-8.154c4.494-3.057,15.799,0.282,20.623-3.34
		c1.207,2.417,1.055,1.483,2.689,3.34c4.018,2.011,6.576,5.285,7.654,7.519c1.252,2.585,0.242,4.578-2.652,5.544
		s-16.75,1.78-21.225,1.568C133.984,255.674,130.518,252.862,131.818,249.438z"/>
	<path style="fill:#DDD3C7;" d="M156.535,245.306c1.088-0.104,4.104-0.245,5.912,1.928c1.049,1.261,1.926,4.822,1.809,6.028
		c-0.123,1.206-0.85,1.446-2.055,1.809c-0.771,0.231-2.406,0.844-3.01,0.363C158.59,254.95,155.211,245.425,156.535,245.306z"/>
	<path style="fill:#DDD3C7;" d="M153.162,244.944c1.926-0.363,4.824,0.604,5.545,1.808c0.725,1.207,1.445,2.051,1.568,3.735
		c0.121,1.692,0.602,3.859,0,4.463c-0.604,0.603-5.064,1.334-5.791,0.847c-0.719-0.484-3.008-3.856-3.008-6.151
		C151.477,247.356,152.088,245.143,153.162,244.944z"/>
	<path style="fill:#DDD3C7;" d="M146.285,245.184c0.867-0.154,4.945-0.725,5.67,0.48c0.721,1.206,2.412,5.789,2.291,7.357
		c-0.119,1.564,0.361,2.53-0.605,3.016c-0.965,0.479-7.355,1.687-9.164,0.246c-0.84-0.681-3.133-8.57-2.051-9.532
		C143.51,245.788,144.961,245.425,146.285,245.184z"/>
	<path style="fill:#DDD3C7;" d="M134.107,253.865c-0.461-1.625,1.688-6.269,3.256-6.631c1.566-0.363,3.98-1.207,4.701,0.479
		c0.725,1.69,2.293,7.721,1.932,8.57c-0.363,0.843-3.258,0.597-5.668,0C135.916,255.674,134.348,254.708,134.107,253.865z"/>
	<path style="fill:#B8B0A7;" d="M21.022,257.583c-1.102-2.944,5.94-10.623,11.536-10.836c9.087-0.352,19.223,5.593,17.825,9.786
		c-1.395,4.196-11.879,4.545-17.477,4.545C27.314,261.078,22.074,260.38,21.022,257.583z"/>
	<path style="fill:#DDD3C7;" d="M28.295,246.292c-2.412-0.399-8.391,1.399-9.439,7.344c-0.616,3.505,1.748,6.638,4.546,6.989
		c2.797,0.35,4.544,0.35,5.589-1.397C30.042,257.479,30.392,246.64,28.295,246.292z"/>
	<path style="fill:#DDD3C7;" d="M34.938,245.594c-2.098-0.701-6.294-1.4-8.739,2.444c-1.013,1.587,0,11.188,1.747,12.234
		c1.749,1.05,8.39,1.05,10.138,0.352c1.748-0.701,0.35-5.943,0-8.737C37.731,249.089,37.033,246.292,34.938,245.594z"/>
	<path style="fill:#DDD3C7;" d="M36.335,247.341c1.396-1.747,10.834-1.398,11.532,4.894c0.664,5.946,1.398,5.594-1.045,7.688
		c-2.251,1.932-6.642,2.1-8.739,0.701C35.814,259.108,33.972,250.291,36.335,247.341z"/>
	<path style="fill:#DDD3C7;" d="M177.008,238.971c0,0,12.191-4.659,19.111,1.399c3.73,3.26,2.332,7.456,2.332,7.456
		s-6.99,1.395-11.652,0.934c-4.66-0.472-9.791-0.472-10.252-2.337C176.082,244.563,174.217,238.971,177.008,238.971z"/>
	<path style="fill:#5D3D24;" d="M60.959,50.597c-0.281-1.27-12.154-16.286-23.963-21.055C21.4,23.248,4.507,27.318,0.702,30.356
		c-2.012,5.05-0.369,37.745,13.9,53.824c14.271,16.08,21.396,28.991,26.121,30.399c10.47,3.124,17-49.37,18.138-59.202
		C59.027,53.95,61.977,52.996,60.959,50.597z"/>
	<path style="fill:#DDD3C7;" d="M5.977,33.752c8.376-6.557,33.331-1.164,40.865,7.244c1.316,1.471,8.191,9.69,9.363,11.479
		l-14.32,22.762l-7.769,17.271c0,0-6.466-3.729-10.815-7.275c-5.717-6.15-6.838-7.202-11.843-18.686
		C6.461,55.062,2.345,36.588,5.977,33.752z"/>
	<path style="fill:#5D3D24;" d="M130.734,39.273c-0.314-2.995,3.703-11.433,8.234-19.124c9.426-19.432,34.492-22.084,42.527-19.134
		c3.504,4.148,6.273,22.191,4.965,36.869c-0.174,1.98-2.176,16.029-2.176,16.029s-9.969,36.751-14.117,39.657
		c-8.945,6.275-31.746-41.462-35.934-50.426C133.627,41.844,130.523,41.874,130.734,39.273z"/>
	<path style="fill:#DDD3C7;" d="M177.568,5.905c-10.025-3.571-31.99,9.438-36.48,19.792c-0.787,1.814-5.65,14.014-6.199,16.078
		l34.219,36.93c0,0,5.295-13.745,8.305-18.484c3.48-7.645,4.211-8.991,5.322-21.471C183.846,26.272,181.906,7.45,177.568,5.905z"/>
	<path style="fill:#795134;" d="M129.465,39.292c5.076,2.615,34.594,32.729,39.266,43.741c7.057,16.642,4.348,44.247-2.709,58.134
		c-12.346,20.457-33.5,32.427-52.141,26.543c-14.023,12.901-35.621,5.455-52.07-5.803c-16.449-11.253-21.979-35.917-24.764-57.435
		c-1.078-8.321,15.155-50.619,19.502-53.663c9.465-6.628,23.643-9.29,35.135-11.154C103.188,37.791,119.057,33.936,129.465,39.292z"
		/>
	<path style="fill:#DDD3C7;" d="M129.465,39.292c5.076,2.615,31.299,33.158,35.238,44.457c1.986,5.699,1.842,13.823,0.684,22.061
		c-8.574-6.684-24.74-5.859-26.813,0.307c-2.605,12.008-0.459,26.639-3.994,32.761c-3.699,6.392-13.281,3.952-25.264,0.688
		c-7.367,6.779-17.938,12.343-24.164,6.321c-5.627-5.44-8.498-21.095-15.178-30.213c-5.014-5.21-20.568-1.95-24.439,10.839
		c-4.191-6.594-7.131-13.689-8.489-22.04c-1.346-8.281,15.155-50.619,19.502-53.663c9.465-6.628,23.643-9.29,35.135-11.154
		C103.188,37.791,119.057,33.936,129.465,39.292z"/>
	<g>
		<g>
			<path style="fill:#795134;" d="M84.789,57.41c2.33-7.462,0.711-16.62,0.711-16.62c-11.697,1.937-20.496,4.386-28.951,10.02
				C38.469,62.85,27.188,79.445,36.175,113.77l-7.559-1.229l6.281,4.188l-4.614,1.149l5.907,1.846l-3.773,1.414l4.991,1.188
				l-5.784,1.343l6.168,0.998l-5.724,1.729l7.4,1.201l-6.113,1.796l7.337,0.81l-6.113,1.794c0,0,4.031,1.818,9.797,2.12
				c5.76,0.307,4.194-12.464,18.102-14.014c13.918-1.55,11.104,3.867,13.879,9.158c3.58,6.835-2.672,21.427,7.559,31.276
				c2.445-4.055-2.826-8.916-1.205-11.417c8.08-12.452-5.512-23.59-11.398-29.488c-6.945-6.953-6.883-19.827-5.818-27.256
				C67.533,78.191,82.457,64.871,84.789,57.41z"/>
		</g>
	</g>
	<g>
		<path style="fill:#795134;" d="M108.563,53.549c-4.57-6.339-5.93-15.538-5.93-15.538c11.705-1.861,20.83-2.324,30.637,0.349
			c20.951,5.703,36.723,19.996,39.234,53.285l6.783-3.557l-4.639,5.959l4.742-0.367l-5.018,3.617l4.029,0.146l-4.367,2.71
			l5.914-0.562l-5.533,2.902l5.977-0.171l-6.641,3.478l6.367-0.232l-6.701,3.091l6.367-0.229c0,0-3.254,3.001-8.629,5.11
			c-5.371,2.114-7.904-10.43-21.607-7.571c-5.756,1.202-10.947,6.75-11.904,12.648c-1.77,10.91,9.225,23.199,4.357,32.488
			c-3.602-3.071-1.949-8.408-3.941-10.621c-11.471-12.763,0.814-29.211,2.17-31.689c4.711-8.625-1.383-20.374-4.746-27.079
			C129.068,68.902,113.131,59.892,108.563,53.549z"/>
	</g>
	<path style="fill:#B8B0A7;" d="M141.518,152.377c1.658,10.236-12.779,20.708-26.592,22.944
		c-13.801,2.243-26.623-3.801-28.281-14.036c-1.658-10.228,8.465-20.769,22.271-23.011
		C122.723,136.032,139.854,142.151,141.518,152.377z"/>
	<path style="fill:#A85A58;" d="M129.984,153.871c1.203,7.391-5.91,14.696-15.887,16.313c-9.979,1.619-19.035-3.063-20.236-10.454
		c-1.195-7.39,5.916-14.696,15.893-16.316C119.727,141.798,128.787,146.475,129.984,153.871z"/>
	<path style="fill:#231F20;" d="M132.656,136.564c19.512,18.975-5.436,33.317-18.955,31.175
		c-9.486,5.874-35.285,2.246-27.133-21.646c4.932-14.446,3.896-11.391,20.52-14.084
		C123.197,129.391,120.438,124.684,132.656,136.564z"/>
	<path style="fill:#DDD3C7;" d="M136.033,135.801c18.816,16.99-3.17,39.775-22.766,29.261c-14.135,15.04-38.334-1.205-29.619-19.751
		c5.246-11.169,9.129-15.964,22.652-18.158C119.35,125.038,126.953,127.595,136.033,135.801z"/>
	<g>
		<path style="fill:#231F20;" d="M121.344,152.066c0.469,2.907-3.295,5.939-8.416,6.77c-5.119,0.834-9.65-0.857-10.121-3.763
			c-0.471-2.913,3.291-5.946,8.414-6.775C116.34,147.469,120.865,149.155,121.344,152.066z"/>
		<path style="fill:#231F20;" d="M120.965,154.036c-0.49,0.235-1.318,1.492-2.293,1.648c-1.225,0.202-3.463-0.508-3.754-2.304
			c-0.287-1.79,1.088-2.84,3.053-2.204c1.816,0.585,2.613,2.672,3.461,2.256c1.281-0.611,0.721-5.54,0.654-6.006
			c-0.258-1.837-1.637-3.707-4.768-4.832c-1.229-0.439-4.219-0.095-6.994,0.357c-2.764,0.446-6.209,1.384-6.93,1.979
			c-2.646,2.199-2.99,4.63-2.75,6.114c0.076,0.456,1.059,5.149,2.52,5.497c1.043,0.244,0.877-2.14,2.346-3.294
			c1.775-1.398,3.553-0.475,3.844,1.315c0.287,1.789-1.615,2.906-2.65,2.93c-1,0.02-2.139-0.659-2.658-0.721
			c-0.518-0.065-0.805,0.188-0.75,0.579c0.186,1.24,2.059,1.004,2.756,1.97c0.809,1.115,3.336,0.717,6.852,0.142
			c3.922-0.636,6.051-0.504,6.674-1.786c0.447-0.928,1.789-2.059,1.982-2.736C121.744,154.271,121.422,153.809,120.965,154.036z"/>
		<path style="fill:#231F20;" d="M120.965,154.036c-0.49,0.235-1.318,1.492-2.293,1.648c-1.225,0.202-3.463-0.508-3.754-2.304
			c-0.287-1.79,1.088-2.84,3.053-2.204c1.816,0.585,2.547,2.468,3.461,2.256c0.746-0.166,1.824-5.135-0.033-7.866
			c-0.207-0.301,0.184,0.866-0.795,1.7c-0.707,0.604-4.244,1.918-9.262,2.729c-5.361,0.872-8.945,0.423-9.75,0.188
			c-0.896-0.265-0.693-1.696-0.791-1.466c-1.342,3.066,1.371,7.655,2.363,7.825c1.051,0.18,0.877-2.14,2.346-3.294
			c1.775-1.398,3.553-0.475,3.844,1.315c0.287,1.789-1.615,2.906-2.65,2.93c-1,0.02-2.139-0.659-2.658-0.721
			c-0.518-0.065-0.805,0.188-0.75,0.579c0.186,1.24,2.059,1.004,2.756,1.97c0.809,1.115,3.336,0.717,6.852,0.142
			c3.922-0.636,6.051-0.504,6.674-1.786c0.447-0.928,1.789-2.059,1.982-2.736C121.744,154.271,121.422,153.809,120.965,154.036z"/>
	</g>
	<path style="fill:#DDD3C7;" d="M34.117,82.062"/>
	<path style="fill:#DDD3C7;" d="M167.379,119.38c0,10.336-9.547,18.714-21.324,18.714c-11.771,0-21.318-8.378-21.318-18.714
		c0-10.34,9.547-18.718,21.318-18.718C157.832,100.663,167.379,109.041,167.379,119.38z"/>
	<path style="fill:#DDD3C7;" d="M90.654,132.984c0,10.339-9.547,18.716-21.322,18.716s-21.32-8.377-21.32-18.716
		c0-10.34,9.545-18.718,21.32-18.718S90.654,122.644,90.654,132.984z"/>
	<g>
		<path style="fill:#FFFFFF;" d="M78.814,132.601c1.135,6.957-3.773,13.546-10.945,14.711c-7.18,1.163-13.91-3.533-15.041-10.495
			c-1.135-6.963,3.773-13.549,10.947-14.718C70.955,120.936,77.686,125.634,78.814,132.601z"/>
		<path style="fill:#1098A0;" d="M78.904,132.584c1.117,6.875-3.164,13.308-9.566,14.346c-6.402,1.037-12.498-3.708-13.613-10.585
			c-1.115-6.888,3.166-13.308,9.566-14.343C71.693,120.96,77.789,125.698,78.904,132.584z"/>
		<path style="fill:#231F20;" d="M73.248,133.505c0.518,3.175-1.723,6.186-4.998,6.716c-3.279,0.532-6.354-1.615-6.869-4.795
			c-0.518-3.18,1.721-6.188,4.998-6.718C69.658,128.172,72.73,130.321,73.248,133.505z"/>
		<path style="fill:#FFFFFF;" d="M65.734,131.483c0.301,1.867-1.012,3.632-2.93,3.943c-1.922,0.312-3.723-0.951-4.027-2.812
			c-0.303-1.866,1.012-3.623,2.93-3.934C63.629,128.37,65.434,129.623,65.734,131.483z"/>
	</g>
	<g>
		<path style="fill:#FFFFFF;" d="M163.568,119.785c1.131,6.964-3.773,13.548-10.947,14.711c-7.186,1.164-13.914-3.533-15.045-10.494
			c-1.131-6.968,3.773-13.553,10.951-14.716C155.701,108.122,162.438,112.819,163.568,119.785z"/>
		<path style="fill:#1098A0;" d="M163.652,119.765c1.117,6.884-3.166,13.309-9.563,14.35c-6.406,1.037-12.502-3.706-13.613-10.584
			c-1.121-6.886,3.16-13.308,9.566-14.35C156.441,108.145,162.537,112.88,163.652,119.765z"/>
		<path style="fill:#231F20;" d="M157.998,120.685c0.516,3.179-1.721,6.189-4.996,6.717c-3.283,0.533-6.355-1.615-6.873-4.791
			c-0.512-3.18,1.725-6.189,5.002-6.721C154.406,115.363,157.48,117.506,157.998,120.685z"/>
		<path style="fill:#FFFFFF;" d="M150.48,118.669c0.309,1.86-1.008,3.628-2.93,3.941c-1.918,0.311-3.721-0.95-4.021-2.812
			c-0.303-1.864,1.008-3.627,2.93-3.933C148.375,115.55,150.182,116.808,150.48,118.669z"/>
	</g>
	<path style="fill:#DDD3C7;" d="M168.223,241.169c0,0,12.189-4.655,19.111,1.4c3.729,3.261,2.328,7.457,2.328,7.457
		s-6.988,1.395-11.652,0.933c-4.658-0.473-9.787-0.473-10.25-2.336C167.293,246.763,165.428,241.169,168.223,241.169z"/>
</g>
</svg>
