<?xml version="1.0" encoding="utf-8"?>
<!-- Generator: Adobe Illustrator 16.0.0, SVG Export Plug-In . SVG Version: 6.00 Build 0)  -->
<!DOCTYPE svg PUBLIC "-//W3C//DTD SVG 1.1//EN" "http://www.w3.org/Graphics/SVG/1.1/DTD/svg11.dtd">
<svg version="1.1" id="Layer_1" xmlns="http://www.w3.org/2000/svg" xmlns:xlink="http://www.w3.org/1999/xlink" x="0px" y="0px"
	 width="195.011px" height="106.667px" viewBox="0 0 195.011 106.667" enable-background="new 0 0 195.011 106.667"
	 xml:space="preserve">
<g>
	<path fill="#658098" d="M10.347,50.35c-0.193,1.189-0.37,2.38-0.688,3.53c-0.458,1.66-1.413,3.137-2.741,4.234
		c-3.833,3.166-8.834,7.5-6.167,10.833s7.833,0.333,15.5-3.833c7.667-4.167,14.834-5.5,18.667-5.667s11.833-1.501,13.333-2.167
		c0.707-0.314,3.064,5.256,3.334,5.744c2.068,3.738,4.956,7.64,8.923,9.509c1.278,0.603,2.674,1.13,4.037,1.499
		c0.739,0.201,1.498,0.327,2.266,0.229c1.211-0.155,2.19-0.301,1.995-1.674c-0.205-1.448-1.096-2.575-2.221-3.474
		c-3.334-2.667-5.001-14.5-1.334-16.167s23.834-3.834,42.834,2.333s47.333,28.834,43.833,32.834s-7.667,10.333-4.5,15.833
		s2.259,1.5,4.796-1.833c2.312-3.037,6.158-5.063,9.701-6.252c5.019-1.686,10.521-1.662,15.759-1.419
		c3.019,0.14,12.517,1.247,14.214,1.438c1.983,0.225,4.779,0.439,1.864-1.602c-5-3.5-12.167-12.5-29.667-11.166
		c0,0-20.334-56.001-63.667-70.167c0,0-4.167-8.833,2.5-11.667c0,0,0.333-2-6-1s-11.834,4.833-15.167,10.5
		c0,0-16.833-2.333-35.833,6.333C41.893,18.95,28.436,23.5,18.377,34.468c-3.417,3.726-6.146,8.202-7.479,13.142
		C10.656,48.508,10.496,49.428,10.347,50.35z"/>
	<circle fill="#294E60" cx="21.862" cy="49.039" r="2.74"/>
</g>
</svg>
