<?xml version="1.0" encoding="utf-8"?>
<!-- Generator: Adobe Illustrator 16.0.0, SVG Export Plug-In . SVG Version: 6.00 Build 0)  -->
<!DOCTYPE svg PUBLIC "-//W3C//DTD SVG 1.1//EN" "http://www.w3.org/Graphics/SVG/1.1/DTD/svg11.dtd">
<svg version="1.1" id="Layer_1" xmlns="http://www.w3.org/2000/svg" xmlns:xlink="http://www.w3.org/1999/xlink" x="0px" y="0px"
	 width="81.976px" height="149.165px" viewBox="0 0 81.976 149.165" style="enable-background:new 0 0 81.976 149.165;"
	 xml:space="preserve">
<g>
	<g>
		<g>
			<g>
				<g>
					<path style="fill:#4E7796;" d="M60.892,46.306c0,0-4.238-20.594,1.002-42.806c0,0,1.951-8.08,6.1,0.807
						c4.151,8.885,15.159,33.804,7.782,52.768L60.892,46.306z"/>
				</g>
			</g>
			<g>
				<g>
					<path style="fill:#D76C79;" d="M64.533,44.113c0,0-2.307-14.078-0.816-31.662c0,0,1.091-9.035,3.604-2.713
						c5.766,14.51,9.317,32.107,6.021,41.128L64.533,44.113z"/>
				</g>
			</g>
		</g>
		<g>
			<g>
				<g>
					<path style="fill:#4E7796;" d="M39.555,46.306c0,0,5.911-20.178,2.508-42.743c0,0-1.283-8.213-6.146,0.303
						c-4.864,8.517-17.877,32.448-12.078,51.953L39.555,46.306z"/>
				</g>
			</g>
			<g>
				<g>
					<path style="fill:#D76C79;" d="M36.105,43.822c0,0,3.453-13.844,3.405-31.489c0,0-0.347-9.093-3.366-2.999
						c-6.936,13.988-11.855,31.252-9.311,40.516L36.105,43.822z"/>
				</g>
			</g>
		</g>
	</g>
	<g>
		<g>
			<g>
				<g style="opacity:0.39;">
					<g>
						<path style="fill:#C6CCD6;" d="M50.35,122.815c11.832,0,21.809-6,24.996-14.215C72.158,97.615,62.182,91.611,50.35,91.611
							c-11.834,0-21.811,6.004-24.995,16.989C28.539,116.815,38.516,122.815,50.35,122.815z"/>
					</g>
				</g>
				<g>
					<g>
						<path style="fill:#2D466A;" d="M50.35,122.815c11.832,0,21.809-6,24.996-14.215C72.158,97.615,62.182,91.611,50.35,91.611
							c-11.834,0-21.811,6.004-24.995,16.989C28.539,116.815,38.516,122.815,50.35,122.815z"/>
					</g>
				</g>
				<g>
					<g>
						<path style="fill:#2D466A;" d="M25.354,108.601c-0.694,2.384-1.081,4.992-1.081,7.836c0,10.952,6.773,19.831,26.076,19.831
							v-13.452C38.516,122.815,28.539,116.815,25.354,108.601z"/>
					</g>
				</g>
				<g>
					<g>
						<path style="fill:#4E7796;" d="M75.283,108.601c0.691,2.384,1.078,4.992,1.078,7.836c0,10.952-6.622,20.387-26.073,19.831
							v-13.452C62.12,122.815,72.097,116.815,75.283,108.601z"/>
					</g>
				</g>
			</g>
		</g>
		<g>
			<g>
				<g>
					<rect x="34.533" y="129.334" style="fill:#2D466A;" width="10.862" height="14.977"/>
				</g>
			</g>
			<g>
				<g>
					<rect x="55.301" y="129.334" style="fill:#4E7796;" width="10.864" height="14.977"/>
				</g>
			</g>
			<g>
				<g>
					<g>
						<path style="fill:#3C3C3B;" d="M39.852,146.252c0.459,0,0.831,0.373,0.831,0.833v2.08h8.739c0-5.222-4.234-9.453-9.457-9.453
							c-5.221,0-9.455,4.231-9.455,9.453h8.509v-2.08C39.019,146.625,39.39,146.252,39.852,146.252z"/>
					</g>
				</g>
			</g>
			<g>
				<g>
					<g>
						<path style="fill:#3C3C3B;" d="M60.617,146.252c0.46,0,0.833,0.373,0.833,0.833v2.08h8.736c0-5.222-4.231-9.453-9.454-9.453
							c-5.221,0-9.453,4.231-9.453,9.453h8.507v-2.08C59.786,146.625,60.156,146.252,60.617,146.252z"/>
					</g>
				</g>
			</g>
		</g>
	</g>
	<g>
		<g>
			<g>
				<g>
					<path style="fill:#2D466A;" d="M51.908,30.688c0.249,1.479,0.088,2.68-0.198,3.797c-0.304,1.105-0.767,2.104-1.372,3.006
						c-0.604,0.904-1.352,1.71-2.262,2.406c-0.928,0.687-1.98,1.287-3.449,1.608c-0.256-1.481-0.096-2.684,0.189-3.8
						c0.305-1.105,0.771-2.103,1.381-3.002c0.609-0.899,1.355-1.706,2.267-2.402C49.394,31.615,50.443,31.012,51.908,30.688z"/>
				</g>
			</g>
			<g>
				<g>
					<path style="fill:#4E7796;" d="M56.812,32.989c0.251,1.478,0.089,2.679-0.194,3.796c-0.307,1.105-0.771,2.104-1.375,3.007
						s-1.353,1.71-2.264,2.406c-0.926,0.686-1.979,1.288-3.447,1.608c-0.254-1.482-0.096-2.685,0.192-3.801
						c0.303-1.105,0.769-2.103,1.378-3.002c0.608-0.9,1.357-1.705,2.266-2.402C54.298,33.916,55.348,33.313,56.812,32.989z"/>
				</g>
			</g>
		</g>
		<g>
			<g>
				<g>
					<path style="fill:#4E7796;" d="M78.865,66.59c-0.479-2.581-1.652-7.708-1.652-7.708c-2.217-12.204-12.964-21.636-26.904-21.636
						v77.273c18.408,0,31.667-12.791,31.667-28.569C81.976,78.469,80.178,73.674,78.865,66.59z"/>
				</g>
			</g>
			<g>
				<g>
					<g>
						<path style="fill:#2D466A;" d="M21.771,66.59c0.478-2.581,1.65-7.708,1.65-7.708c2.22-12.204,12.964-21.636,26.905-21.636
							v77.273c-18.407,0-31.666-12.791-31.666-28.569C18.66,78.469,20.458,73.674,21.771,66.59z"/>
					</g>
				</g>
			</g>
		</g>
		<g>
			<g>
				<ellipse style="fill:#9C9B9B;" cx="50.308" cy="99.379" rx="26.074" ry="17.058"/>
			</g>
		</g>
		<g>
			<g>
				<g>
					<circle style="fill:#3C3C3B;" cx="34.75" cy="96.742" r="3.745"/>
				</g>
			</g>
			<g>
				<g>
					<circle style="fill:#3C3C3B;" cx="65.954" cy="96.742" r="3.745"/>
				</g>
			</g>
		</g>
		<g>
			<g>
				<g>
					<circle style="fill:#9C9B9B;" cx="36.079" cy="65.674" r="5.983"/>
				</g>
			</g>
		</g>
		<g>
			<g>
				<g>
					<circle style="fill:#9C9B9B;" cx="66.382" cy="65.674" r="5.983"/>
				</g>
			</g>
		</g>
		<g>
			<g>
				<g>
					<circle style="fill:#3C3C3B;" cx="36.079" cy="65.674" r="3.349"/>
				</g>
			</g>
		</g>
		<g>
			<g>
				<g>
					<circle style="fill:#3C3C3B;" cx="66.382" cy="65.674" r="3.349"/>
				</g>
			</g>
		</g>
		<g>
			<g>
				<circle style="fill:#FFFFFF;" cx="37.312" cy="64.611" r="1.183"/>
			</g>
		</g>
		<g>
			<g>
				<circle style="fill:#FFFFFF;" cx="67.566" cy="64.611" r="1.184"/>
			</g>
		</g>
		<g>
			<g>
				<g>
					<path style="fill:#F6E9E5;" d="M44.975,113.122c0,2.317,1.063,2.273,2.446,2.445l0,0c1.532,0.104,2.446,0.108,2.446-2.445
						v-1.557c0,0.263-4.893-0.361-4.893-0.361V113.122z"/>
				</g>
			</g>
			<g>
				<g>
					<path style="fill:#F6E9E5;" d="M55.661,113.122c0,2.317-1.063,2.273-2.446,2.445l0,0c-1.533,0.104-2.446,0.108-2.446-2.445
						v-1.557c0,0.263,4.893-0.361,4.893-0.361V113.122z"/>
				</g>
			</g>
		</g>
		<g>
			<g>
				<g>
					<path style="fill:#3C3C3B;" d="M50.68,112.565c-10.965,0-18.629-5.7-18.95-5.942c-0.245-0.186-0.293-0.533-0.108-0.777
						c0.185-0.245,0.532-0.293,0.778-0.109c0.074,0.058,7.702,5.719,18.28,5.719c10.559,0,17.467-5.645,17.535-5.701
						c0.236-0.195,0.586-0.166,0.783,0.07c0.195,0.236,0.164,0.586-0.07,0.782C68.635,106.85,61.659,112.565,50.68,112.565z"/>
				</g>
			</g>
		</g>
	</g>
	<g>
		<g>
			<g>
				<path style="fill:#3C3C3B;" d="M0,126.721c1.566-0.699,6.129-2.715,11.657,0.086c2.437,1.236,3.812,2.293,4.845,3.102
					c1.023,0.828,2.911,2.856,3.688,4.392c-1.568,0.706-1.828,1.003-3.832,1.646c-1.249,0.398-3.097,0.576-4.267,0.162
					c-1.172-0.416-2.423-0.891-3.949-2.223C7.115,133.051,3.145,127.467,0,126.721z"/>
			</g>
		</g>
		<g>
			<g>
				<g>
					<path style="fill:#2D466A;" d="M19.057,135.432c-0.711,0-1.449-0.059-2.218-0.184c-1.513-0.244-2.542-1.669-2.298-3.182
						c0.245-1.514,1.67-2.542,3.184-2.3c8.965,1.441,12.449-13.779,12.484-13.935c0.333-1.495,1.813-2.441,3.313-2.105
						c1.497,0.333,2.439,1.815,2.107,3.313C35.451,117.831,31.383,135.432,19.057,135.432z"/>
				</g>
			</g>
		</g>
	</g>
</g>
</svg>
