<?xml version="1.0" encoding="utf-8"?>
<!-- Generator: Adobe Illustrator 16.0.0, SVG Export Plug-In . SVG Version: 6.00 Build 0)  -->
<!DOCTYPE svg PUBLIC "-//W3C//DTD SVG 1.1//EN" "http://www.w3.org/Graphics/SVG/1.1/DTD/svg11.dtd">
<svg version="1.1" id="Layer_1" xmlns="http://www.w3.org/2000/svg" xmlns:xlink="http://www.w3.org/1999/xlink" x="0px" y="0px"
	 width="118.614px" height="141.711px" viewBox="0 0 118.614 141.711" enable-background="new 0 0 118.614 141.711"
	 xml:space="preserve">
<g>
	<g>
		<path fill="#D3C5C1" d="M59.29,0C41.795,0,27.457,13.422,25.963,30.529l-0.015-0.021c0,0,0.001,0.098,0.001,0.252
			c-0.07,0.898-0.136,1.801-0.136,2.715c0,0.281,0.026,0.555,0.035,0.834c-0.318,5.738-1.632,16.906-6.915,25.76
			C11.495,72.527-1.524,93.357,0.146,108.42c0,0,2.231,0.93,7.07-7.625c1.141-2.016,2.435-4.156,3.749-6.25
			c0.634,26.154,22.019,47.166,48.324,47.166l0.018-0.002V0H59.29z"/>
		<path fill="#F6E9E5" d="M107.614,94.482c1.325,2.115,2.634,4.277,3.786,6.313c4.838,8.555,7.067,7.625,7.067,7.625
			c1.673-15.063-11.346-35.893-18.782-48.352c-5.422-9.08-6.66-20.59-6.939-26.188c0.003-0.135,0.019-0.27,0.019-0.406
			c0-0.611-0.06-1.207-0.092-1.809c-0.011-0.721-0.003-1.158-0.003-1.158l-0.052,0.076C91.149,13.459,76.813,0.01,59.308,0v141.709
			C85.626,141.701,107.012,120.662,107.614,94.482z"/>
	</g>
	<g>
		<g>
			<g>
				<g>
					<g>
						<path fill="#F39E2B" d="M43.063,46.381c-1.453,0.959-1.912,2.965-1.021,4.459c0,0,11.027,10.607,17.266,10.607V43.281
							C58.348,43.281,43.063,46.381,43.063,46.381z"/>
					</g>
				</g>
				<g>
					<g>
						<path fill="#FBDD58" d="M76.574,50.84c0.891-1.494,0.43-3.5-1.021-4.459c0,0-15.289-3.1-16.246-3.1v18.166
							C65.068,61.447,76.574,50.84,76.574,50.84z"/>
					</g>
				</g>
			</g>
			<g>
				<g>
					<g>
						<g>
							<circle fill="#3C3C3B" cx="43.566" cy="31.072" r="4.014"/>
						</g>
					</g>
					<g>
						<g>
							<circle fill="#3C3C3B" cx="75.048" cy="31.072" r="4.013"/>
						</g>
					</g>
					<g>
						<g>
							<path fill="#FFFFFF" d="M46.131,29.428c0,0.908-0.734,1.643-1.643,1.643c-0.906,0-1.641-0.734-1.641-1.643
								c0-0.904,0.734-1.641,1.641-1.641C45.396,27.787,46.131,28.523,46.131,29.428z"/>
						</g>
					</g>
					<g>
						<g>
							<path fill="#FFFFFF" d="M77.629,29.428c0,0.908-0.736,1.643-1.643,1.643c-0.908,0-1.643-0.734-1.643-1.643
								c0-0.904,0.734-1.641,1.643-1.641C76.893,27.787,77.629,28.523,77.629,29.428z"/>
						</g>
					</g>
				</g>
			</g>
		</g>
		<g>
			<g>
				<g>
					<path fill="#CB8128" d="M52.314,141.711c0-7.602-6.162-13.764-13.763-13.764c-7.598,0-13.762,6.162-13.762,13.764H52.314z"/>
				</g>
			</g>
			<g>
				<g>
					<path fill="#F39E2B" d="M93.824,141.711c0-7.602-6.16-13.764-13.763-13.764c-7.601,0-13.764,6.162-13.764,13.764H93.824z"/>
				</g>
			</g>
		</g>
	</g>
</g>
</svg>
