<?xml version="1.0" encoding="utf-8"?>
<!-- Generator: Adobe Illustrator 16.0.0, SVG Export Plug-In . SVG Version: 6.00 Build 0)  -->
<!DOCTYPE svg PUBLIC "-//W3C//DTD SVG 1.1//EN" "http://www.w3.org/Graphics/SVG/1.1/DTD/svg11.dtd">
<svg version="1.1" id="Layer_1" xmlns="http://www.w3.org/2000/svg" xmlns:xlink="http://www.w3.org/1999/xlink" x="0px" y="0px"
	 width="101.955px" height="138.854px" viewBox="0 0 101.955 138.854" style="enable-background:new 0 0 101.955 138.854;"
	 xml:space="preserve">
<g>
	<path style="fill:#64443A;" d="M101.059,67.015C98.025,48.159,86.242,32.841,50.98,32.841c-32.76,0-46.432,15.799-49.984,35.06
		C0.314,71.591,0,75.406,0,79.265c0,2.646,0.115,5.43,0.359,8.28c1.975,22.985,24.803,50.591,50.621,50.591
		c25.68,0,48.699-28.217,50.652-51.35c0.219-2.585,0.322-5.109,0.322-7.521C101.955,75.097,101.695,70.979,101.059,67.015z"/>
	<g>
		<path style="fill:none;" d="M49.057,79.581c0.363,0.052,0.73,0.09,1.109,0.101c-0.379-0.011-0.744-0.049-1.105-0.101H49.057z"/>
		<path style="fill:#64443A;" d="M50.979,72.324l-6.842-5.812l-7.035,5.975l-7.031-5.975l-7.035,5.974L16,66.513l-6.334,5.379
			c-0.844,6.01-0.85,10.6-0.85,10.6c0.551,22.822,19.209,56.363,42.162,56.363V79.629V72.324z M49.057,79.581h0.004
			c0.361,0.052,0.727,0.09,1.105,0.101C49.787,79.671,49.42,79.633,49.057,79.581z"/>
		<path style="fill:#8C5C5D;" d="M79.313,72.485l-7.037-5.974l-7.033,5.976l-7.037-5.976l-7.033,5.976l-0.193-0.163v7.305v59.226
			c22.973,0,41.643-33.572,42.162-56.415c0,0-0.006-4.895-0.938-11.192l-5.846-4.737L79.313,72.485z"/>
		<path style="fill:#997779;" d="M23.035,72.486l7.035-5.974l7.031,5.975l7.035-5.975l6.842,5.812V56.7V0
			C35.717,0,23.203,11.712,21.9,26.638l-0.014-0.018c0,0,0.002,0.085,0.002,0.217c-0.061,0.784-0.117,1.57-0.117,2.371
			c0,0.242,0.023,0.481,0.029,0.725c-0.166,2.944-0.602,7.541-1.881,12.389c-0.904,3.4-2.215,6.924-4.156,10.088
			c-1.41,2.305-2.527,4.922-3.422,7.62c-1.33,4.005-2.158,8.197-2.676,11.862L16,66.513L23.035,72.486z"/>
		<path style="fill:#AA9FA0;" d="M86.225,52.409c-1.773-2.91-3.029-6.122-3.92-9.26c-1.521-5.359-1.982-10.511-2.131-13.589
			c0-0.118,0.012-0.235,0.012-0.353c0-0.532-0.051-1.054-0.078-1.579C80.096,27,80.105,26.62,80.105,26.62l-0.045,0.066
			C78.777,11.734,66.26,0,50.979,0v56.7v15.624l0.193,0.163l7.033-5.976l7.037,5.976l7.033-5.976l7.037,5.974l7.045-5.976
			l5.846,4.737c-0.496-3.361-1.256-7.122-2.42-10.753C88.869,57.635,87.711,54.852,86.225,52.409z"/>
	</g>
	<g>
		<g>
			<g>
				<g>
					<path style="fill:#3C3C3B;" d="M40.781,19.428c-1.369,2.397-1.803,5.343-0.5,7.529l8.281,13.906
						c0.652,1.101,1.512,1.648,2.373,1.648v-27.63C48.117,14.882,41.682,17.85,40.781,19.428z"/>
				</g>
			</g>
			<g>
				<g>
					<path style="fill:#6F6F6E;" d="M53.307,40.863l8.281-13.906c1.307-2.19,1.139-4.611-0.5-7.529
						c-0.682-1.215-7.801-4.546-10.152-4.546v27.63C51.793,42.512,52.656,41.964,53.307,40.863z"/>
				</g>
			</g>
		</g>
	</g>
	<g>
		<g>
			<path style="fill:#F39E2B;" d="M32.596,135.138c0,2.052-1.664,3.717-3.715,3.717l0,0c-2.055,0-3.719-1.665-3.719-3.717v-6.71
				c0-2.052,1.664-3.717,3.719-3.717l0,0c2.051,0,3.715,1.665,3.715,3.717V135.138z"/>
			<path style="fill:#F39E2B;" d="M40.035,135.138c0,2.052-1.666,3.717-3.719,3.717l0,0c-2.055,0-3.721-1.665-3.721-3.717v-6.71
				c0-2.052,1.666-3.717,3.721-3.717l0,0c2.053,0,3.719,1.665,3.719,3.717V135.138z"/>
			<path style="fill:#F39E2B;" d="M47.473,135.138c0,2.052-1.664,3.717-3.719,3.717l0,0c-2.055,0-3.719-1.665-3.719-3.717v-6.71
				c0-2.052,1.664-3.717,3.719-3.717l0,0c2.055,0,3.719,1.665,3.719,3.717V135.138z"/>
		</g>
		<g>
			<path style="fill:#FBDD58;" d="M61.918,135.138c0,2.052-1.664,3.717-3.719,3.717l0,0c-2.055,0-3.719-1.665-3.719-3.717v-6.71
				c0-2.052,1.664-3.717,3.719-3.717l0,0c2.055,0,3.719,1.665,3.719,3.717V135.138z"/>
			<path style="fill:#FBDD58;" d="M69.355,135.138c0,2.052-1.664,3.717-3.717,3.717l0,0c-2.057,0-3.721-1.665-3.721-3.717v-6.71
				c0-2.052,1.664-3.717,3.721-3.717l0,0c2.053,0,3.717,1.665,3.717,3.717V135.138z"/>
			<path style="fill:#FBDD58;" d="M76.795,135.138c0,2.052-1.666,3.717-3.721,3.717l0,0c-2.053,0-3.719-1.665-3.719-3.717v-6.71
				c0-2.052,1.666-3.717,3.719-3.717l0,0c2.055,0,3.721,1.665,3.721,3.717V135.138z"/>
		</g>
	</g>
	<g>
		<g>
			<path style="fill:#F39E2B;" d="M29.639,19.022c0,3.013,2.441,5.455,5.455,5.455c3.012,0,5.453-2.442,5.453-5.455
				c0-2.206-2.049-3.933-5.453-5.454C32.344,12.34,29.639,16.011,29.639,19.022z"/>
			<circle style="fill:#3C3C3B;" cx="35.094" cy="19.022" r="2.4"/>
		</g>
		<g>
			<path style="fill:#FBDD58;" d="M72.33,19.022c0,3.013-2.441,5.455-5.455,5.455c-3.012,0-5.453-2.442-5.453-5.455
				c0-2.206,2.049-3.933,5.453-5.454C69.625,12.34,72.33,16.011,72.33,19.022z"/>
		</g>
		<circle style="fill:#3C3C3B;" cx="66.875" cy="19.022" r="2.4"/>
	</g>
</g>
</svg>
