<?xml version="1.0" encoding="utf-8"?>
<!-- Generator: Adobe Illustrator 16.0.0, SVG Export Plug-In . SVG Version: 6.00 Build 0)  -->
<!DOCTYPE svg PUBLIC "-//W3C//DTD SVG 1.1//EN" "http://www.w3.org/Graphics/SVG/1.1/DTD/svg11.dtd">
<svg version="1.1" id="Layer_1" xmlns="http://www.w3.org/2000/svg" xmlns:xlink="http://www.w3.org/1999/xlink" x="0px" y="0px"
	 width="93.879px" height="200.813px" viewBox="16.422 -79.459 93.879 200.813"
	 style="enable-background:new 16.422 -79.459 93.879 200.813;" xml:space="preserve">
<g>
	<path style="fill:#F9BB14;" d="M63.266,42.888H50.877c-0.013,0.081-0.027,0.166-0.04,0.244h-1.386
		c-0.998,0-1.806,0.713-1.806,1.594c0,0,0.619,2.343,1.44,2.934h14.181V42.888z"/>
	<path style="fill:#774939;" d="M49.085,47.66c0.119,0.085,0.24,0.134,0.366,0.134h0.598c-1.882,9.819-5.984,20.859-10.701,31.336
		h13.625c0.723-2.744,4.52-17.313,4.763-21.419h5.465h0.064V47.66H49.085z"/>
	<path style="fill:#F9BB14;" d="M63.266-79.459h-0.064h-0.179v7.834c-0.276,0.109-0.474,0.359-0.474,0.651v7.287h-0.542
		c-0.711,0-1.286,0.508-1.286,1.131c0,0.197,0.054,0.381,0.148,0.546h-0.577c-1,0-1.811,0.713-1.811,1.59v1.112
		c0,0.261,0.077,0.508,0.203,0.725c-0.71,0.221-1.216,0.813-1.216,1.506c0,0,0.719,5.687,1.637,6.348h4.162V-79.459z"/>
	<path style="fill:#0D99A1;" d="M59.104-50.728c0.057,0.041,0.114,0.067,0.171,0.067h0.235c0.25,35.031-6.727,81.517-8.634,93.549
		h12.389v-93.616H59.104z"/>
	<path style="fill:#0D99A1;" d="M34.884,88.56c-9.028,18.243-18.461,32.794-18.461,32.794h18.797h0.905
		c0.331-13.712,12.312-24.728,27.078-24.808c0.021,0,0.043-0.001,0.064-0.001V88.56H34.884z"/>
	<path style="fill:#F9BB14;" d="M63.266,79.579h-0.064H52.855c0,0,0.042-0.16,0.119-0.449H39.348
		c-0.031,0.067-0.06,0.135-0.091,0.202h-4.313v9.106c-0.02,0.04-0.04,0.081-0.061,0.121h28.382V79.579z"/>
	<path style="fill:#E2AA15;" d="M91.654,88.183v-8.851h-4.189c-0.031-0.067-0.061-0.135-0.091-0.202H73.698
		c0.059,0.161,0.114,0.312,0.169,0.449H63.382h-0.116v8.98h28.576C91.779,88.434,91.717,88.309,91.654,88.183z"/>
	<path style="fill:#0B8C92;" d="M91.842,88.56H63.266v7.985c0.032,0,0.064-0.001,0.097-0.001c0.004,0,0.009,0,0.019,0
		c14.829,0.009,26.884,11.061,27.219,24.81h1.367h18.334C110.302,121.354,100.874,106.797,91.842,88.56z"/>
	<path style="fill:#E2AA15;" d="M69.253-57.076c0-0.693-0.504-1.285-1.212-1.506c0.128-0.217,0.197-0.463,0.197-0.725v-1.112
		c0-0.877-0.809-1.59-1.801-1.59h-0.584c0.092-0.165,0.148-0.349,0.148-0.546c0-0.624-0.572-1.131-1.29-1.131h-0.537v-7.287
		c0-0.292-0.192-0.542-0.472-0.651v-7.834h-0.321h-0.116v28.731h4.357C68.541-51.389,69.253-57.076,69.253-57.076z"/>
	<path style="fill:#0B8C92;" d="M75.849,42.888c-1.909-12.032-8.885-58.518-8.633-93.549h0.236c0.059,0,0.116-0.026,0.171-0.067
		h-4.357v93.616H75.849z"/>
	<path style="fill:#E2AA15;" d="M79.229,44.726c0-0.881-0.809-1.594-1.811-1.594h-1.53c-0.013-0.078-0.026-0.163-0.039-0.244H63.266
		v4.771h14.52C78.61,47.069,79.229,44.726,79.229,44.726z"/>
	<path style="fill:#694031;" d="M76.675,47.793h0.743c0.127,0,0.25-0.049,0.368-0.134h-14.52v10.051h0.116h5.465
		c0,0,3.059,16.373,4.852,21.419h13.676C82.662,68.652,78.556,57.612,76.675,47.793z"/>
</g>
</svg>
