<?xml version="1.0" encoding="utf-8"?>
<!-- Generator: Adobe Illustrator 16.0.0, SVG Export Plug-In . SVG Version: 6.00 Build 0)  -->
<!DOCTYPE svg PUBLIC "-//W3C//DTD SVG 1.1//EN" "http://www.w3.org/Graphics/SVG/1.1/DTD/svg11.dtd">
<svg version="1.1" id="Layer_1" xmlns="http://www.w3.org/2000/svg" xmlns:xlink="http://www.w3.org/1999/xlink" x="0px" y="0px"
	 width="120.924px" height="110.453px" viewBox="0 0 120.924 110.453" style="enable-background:new 0 0 120.924 110.453;"
	 xml:space="preserve">
<g>
	<g>
		<g>
			<path style="fill:#AEAED3;" d="M49.938,53.565c2.718-3.661,7.721-4.146,10.683-4.078V0.004C60.566,0.004,60.513,0,60.461,0
				C39.494,0,22.495,16.998,22.495,37.967c0,1.854,0.139,3.672,0.394,5.456c-2.09,2.884-3.25,6.057-3.25,9.391
				c0,6.745,4.746,12.836,12.381,17.191c0-0.001,0-0.002,0-0.004c2.763,1.577,5.902,2.925,9.332,3.997
				c0.077,0.023,0.155,0.05,0.234,0.073c1.283,0.395,2.607,0.748,3.969,1.063c0.15,0.034,0.303,0.068,0.456,0.102
				c0.667,0.149,1.341,0.29,2.024,0.421C43.905,62.904,45.918,58.979,49.938,53.565z"/>
		</g>
	</g>
	<g>
		<g>
			<path style="fill:#C6CCD6;" d="M91.37,78.48c-0.136,0.118-0.249,0.264-0.341,0.417c-0.549,0.6-1.813,1.72-4.074,2.552
				c-0.021,0.007-0.042,0.014-0.063,0.022c-0.264,0.096-0.542,0.186-0.834,0.273c-0.068,0.02-0.14,0.038-0.209,0.058
				c-0.253,0.071-0.514,0.138-0.786,0.199c-0.106,0.025-0.215,0.049-0.326,0.072c-0.249,0.052-0.509,0.099-0.774,0.142
				c-0.139,0.023-0.277,0.045-0.42,0.065c-0.258,0.036-0.525,0.066-0.796,0.093c-0.164,0.018-0.326,0.033-0.495,0.047
				c-0.275,0.021-0.564,0.033-0.855,0.044c-0.179,0.008-0.354,0.018-0.539,0.021c-0.32,0.006-0.656-0.001-0.992-0.009
				c-0.172-0.004-0.335-0.001-0.511-0.008c-0.521-0.021-1.06-0.057-1.622-0.11c-4.047-0.389-5.824-3.167-6.494-6.419
				c0.762-0.123,1.513-0.262,2.256-0.409c0.146-0.028,0.291-0.056,0.435-0.086c5.665-1.164,10.755-3.048,14.97-5.454
				c0.002,0.004,0.002,0.008,0.002,0.013c7.633-4.354,12.383-10.444,12.383-17.189c0-3.334-1.16-6.507-3.252-9.391
				c0.26-1.784,0.396-3.603,0.396-5.456c0-20.914-16.911-37.875-37.807-37.963v48.632c-2.962-0.067-8.907,0.715-11.624,4.374
				c-4.019,5.414-4.535,10.896-0.961,22.647c1.516,6.35,5.119,13.576,12.585,17.051c2.562,1.194,5.573,1.949,9.12,2.067
				c0.646,0.022,1.273,0.03,1.889,0.029c0.539,0,1.061-0.014,1.577-0.032c0.069-0.004,0.141-0.003,0.209-0.005
				c1.161-0.046,2.263-0.134,3.312-0.256c-0.002,0-0.002,0.001-0.004,0.001C92.039,92.729,95.584,83.33,95.584,83.33
				c0.981-0.854,0.836-2.631-0.329-3.969C94.095,78.02,92.355,77.629,91.37,78.48z M60.62,77.783c-0.88,0.431-1.771,0.894-2.71,1.38
				c-1.093,0.557-2.22,1.132-3.564,1.661c0.302-1.432,1.033-2.634,1.922-3.69c0.906-1.046,2.023-1.935,3.324-2.56
				c0.329-0.159,0.674-0.3,1.028-0.42V77.783z M60.62,69.956c-0.387,0.078-0.776,0.146-1.155,0.246
				c-1.238,0.32-2.459,0.761-3.713,1.312c-1.26,0.549-2.533,1.186-3.973,1.924c0.366-1.609,1.329-2.973,2.514-4.089
				c1.199-1.105,2.698-1.942,4.326-2.369c0.656-0.175,1.328-0.261,2.001-0.297V69.956z M60.62,60.957
				c-0.917,0.046-1.812,0.143-2.69,0.308c-1.492,0.285-2.951,0.753-4.416,1.407c-1.473,0.652-2.938,1.456-4.518,2.432
				c0.49-1.824,1.66-3.388,3.104-4.627c1.458-1.234,3.275-2.116,5.205-2.483c1.098-0.213,2.217-0.236,3.315-0.127V60.957z"/>
		</g>
	</g>
	<g>
		<g>
			<path style="fill:none;" d="M84.737,82.074c-0.249,0.052-0.509,0.099-0.774,0.142C84.229,82.173,84.488,82.126,84.737,82.074z"/>
		</g>
	</g>
	<g>
		<g>
			<path style="fill:none;" d="M85.85,81.803c-0.252,0.071-0.515,0.138-0.786,0.199C85.336,81.94,85.597,81.874,85.85,81.803z"/>
		</g>
	</g>
	<g>
		<g>
			<path style="fill:none;" d="M86.893,81.472c-0.264,0.096-0.543,0.186-0.834,0.273C86.351,81.657,86.629,81.567,86.893,81.472z"/>
		</g>
	</g>
	<g>
		<g>
			<path style="fill:none;" d="M73.494,75.53c0.146-0.028,0.291-0.056,0.435-0.086C73.785,75.475,73.641,75.502,73.494,75.53z"/>
		</g>
	</g>
	<g>
		<g>
			<path style="fill:none;" d="M79.354,82.469c-0.521-0.021-1.06-0.057-1.622-0.11C78.295,82.412,78.833,82.447,79.354,82.469z"/>
		</g>
	</g>
	<g>
		<g>
			<path style="fill:none;" d="M82.252,82.421c-0.275,0.021-0.564,0.033-0.855,0.044C81.688,82.454,81.977,82.442,82.252,82.421z"/>
		</g>
	</g>
	<g>
		<g>
			<path style="fill:none;" d="M83.543,82.281c-0.258,0.036-0.525,0.066-0.796,0.093C83.018,82.348,83.285,82.317,83.543,82.281z"/>
		</g>
	</g>
	<g>
		<g>
			<path style="fill:none;" d="M80.857,82.485c-0.318,0.006-0.656-0.001-0.992-0.009C80.201,82.484,80.537,82.491,80.857,82.485z"/>
		</g>
	</g>
	<g>
		<g>
			<path style="fill:none;" d="M73.206,94.772c0.069-0.004,0.141-0.003,0.209-0.005C73.347,94.77,73.275,94.769,73.206,94.772z"/>
		</g>
	</g>
	<g>
		<g>
			<path style="fill:none;" d="M71.629,94.805c-0.615,0.001-1.242-0.007-1.889-0.029C70.387,94.798,71.016,94.807,71.629,94.805z"/>
		</g>
	</g>
	<g>
		<g>
			<path style="fill:#C6CCD6;" d="M73.415,94.768c1.161-0.046,2.261-0.134,3.308-0.255c0.002,0,0.002-0.001,0.004-0.001
				C75.678,94.634,74.576,94.722,73.415,94.768z"/>
		</g>
	</g>
	<g>
		<g>
			<path style="fill:#C6CCD6;" d="M73.206,94.772c-0.517,0.019-1.038,0.032-1.577,0.032C72.168,94.805,72.689,94.791,73.206,94.772z
				"/>
		</g>
	</g>
	<g>
		<g>
			<path style="fill:#C6CCD6;" d="M86.059,81.745c-0.068,0.02-0.14,0.038-0.209,0.058C85.919,81.783,85.99,81.765,86.059,81.745z"/>
		</g>
	</g>
	<g>
		<g>
			<path style="fill:#C6CCD6;" d="M85.063,82.002c-0.106,0.025-0.215,0.049-0.326,0.072C84.849,82.051,84.957,82.027,85.063,82.002z
				"/>
		</g>
	</g>
	<g>
		<g>
			<path style="fill:#C6CCD6;" d="M81.396,82.465c-0.179,0.008-0.354,0.018-0.539,0.021C81.043,82.482,81.218,82.473,81.396,82.465z
				"/>
		</g>
	</g>
	<g>
		<g>
			<path style="fill:#C6CCD6;" d="M82.747,82.374c-0.164,0.018-0.326,0.033-0.495,0.047C82.421,82.407,82.583,82.392,82.747,82.374z
				"/>
		</g>
	</g>
	<g>
		<g>
			<path style="fill:#C6CCD6;" d="M71.238,75.939c0.762-0.123,1.512-0.262,2.256-0.409C72.751,75.678,72,75.816,71.238,75.939z"/>
		</g>
	</g>
	<g>
		<g>
			<path style="fill:#C6CCD6;" d="M86.955,81.449c-0.021,0.007-0.042,0.014-0.063,0.022C86.913,81.463,86.935,81.456,86.955,81.449z
				"/>
		</g>
	</g>
	<g>
		<g>
			<path style="fill:#C6CCD6;" d="M79.865,82.477c-0.172-0.004-0.335-0.001-0.511-0.008C79.53,82.476,79.693,82.473,79.865,82.477z"
				/>
		</g>
	</g>
	<g>
		<g>
			<path style="fill:#C6CCD6;" d="M73.929,75.444c5.665-1.163,10.757-3.037,14.972-5.441c0-0.005,0-0.009-0.002-0.013
				C84.684,72.396,79.594,74.28,73.929,75.444z"/>
		</g>
	</g>
	<g>
		<g>
			<path style="fill:#C6CCD6;" d="M83.963,82.216c-0.139,0.023-0.277,0.045-0.42,0.065C83.686,82.261,83.824,82.239,83.963,82.216z"
				/>
		</g>
	</g>
	<g>
		<g>
			<path style="fill:#918BC1;" d="M41.586,74.071c-0.079-0.023-0.157-0.05-0.234-0.073C41.429,74.022,41.507,74.048,41.586,74.071z"
				/>
		</g>
	</g>
	<g>
		<g>
			<path style="fill:#918BC1;" d="M46.011,75.236c-0.153-0.033-0.306-0.067-0.456-0.102C45.705,75.169,45.857,75.203,46.011,75.236z
				"/>
		</g>
	</g>
	<g>
		<g>
			<path style="fill:#918BC1;" d="M32.02,70.005c2.762,1.577,5.901,2.923,9.332,3.993c-3.43-1.072-6.569-2.42-9.332-3.997
				C32.02,70.003,32.02,70.004,32.02,70.005z"/>
		</g>
	</g>
	<g>
		<g>
			<path style="fill:#918BC1;" d="M45.555,75.135c-1.361-0.315-2.686-0.669-3.969-1.063C42.869,74.464,44.193,74.819,45.555,75.135z
				"/>
		</g>
	</g>
	<g>
		<g>
			<path style="fill:#918BC1;" d="M48.035,75.657c-0.684-0.131-1.357-0.271-2.024-0.421C46.678,75.386,47.352,75.526,48.035,75.657z
				"/>
		</g>
	</g>
	<g>
		<g>
			<g>
				<path style="fill:#C6CCD6;" d="M0.604,31.075C-2.457,46.942,6.419,61.997,20.43,64.699c1.644,0.318,3.284,0.436,4.906,0.397
					c-3.031-2.974-4.998-6.362-5.586-9.991c-0.123-0.754-0.201-1.518-0.201-2.292c0-3.334,1.158-6.507,3.25-9.391
					c-0.257-1.784-0.396-3.603-0.396-5.456c0-8.151,2.576-15.692,6.949-21.878c1.948-2.761,4.246-5.253,6.844-7.399
					c-1.484-0.635-3.046-1.135-4.684-1.45C17.502,4.537,3.666,15.208,0.604,31.075z"/>
			</g>
		</g>
		<g>
			<g>
				<path style="fill:#C6CCD6;" d="M120.32,31.075c-3.062-15.867-16.9-26.538-30.909-23.836c-1.638,0.315-3.198,0.815-4.684,1.45
					c2.596,2.146,4.896,4.639,6.845,7.399c4.371,6.186,6.947,13.727,6.947,21.878c0,1.854-0.139,3.672-0.395,5.456
					c2.092,2.884,3.252,6.057,3.252,9.391c0,0.774-0.079,1.538-0.203,2.292c-0.586,3.629-2.555,7.018-5.585,9.991
					c1.622,0.038,3.262-0.079,4.906-0.397C114.505,61.997,123.381,46.942,120.32,31.075z"/>
			</g>
		</g>
	</g>
	<g>
		<g>
			<path style="fill:#918BC1;" d="M63.049,58.36c-0.777-0.256-1.598-0.408-2.429-0.494c-1.099-0.109-2.218-0.086-3.315,0.127
				c-1.93,0.367-3.747,1.249-5.205,2.483c-1.443,1.239-2.613,2.803-3.104,4.627c1.58-0.976,3.045-1.779,4.518-2.432
				c1.465-0.654,2.924-1.122,4.416-1.407c0.879-0.165,1.773-0.262,2.69-0.308c0.638-0.032,1.284-0.043,1.948-0.02
				c1.619,0.042,3.295,0.256,5.162,0.404C66.478,59.949,64.854,58.96,63.049,58.36z"/>
		</g>
	</g>
	<g>
		<g>
			<path style="fill:#918BC1;" d="M60.62,66.683c-0.673,0.036-1.345,0.122-2.001,0.297c-1.628,0.427-3.127,1.264-4.326,2.369
				c-1.185,1.116-2.147,2.479-2.514,4.089c1.439-0.738,2.713-1.375,3.973-1.924c1.254-0.551,2.475-0.991,3.713-1.312
				c0.379-0.1,0.769-0.168,1.155-0.246c0.87-0.178,1.759-0.319,2.694-0.396c1.357-0.124,2.783-0.113,4.416-0.189
				C65.975,67.46,63.293,66.54,60.62,66.683z"/>
		</g>
	</g>
	<g>
		<g>
			<path style="fill:#918BC1;" d="M63.889,73.739c-1.117-0.104-2.236,0.066-3.269,0.415c-0.354,0.12-0.699,0.261-1.028,0.42
				c-1.301,0.625-2.418,1.514-3.324,2.56c-0.889,1.057-1.62,2.259-1.922,3.69c1.345-0.529,2.472-1.104,3.564-1.661
				c0.939-0.486,1.83-0.949,2.71-1.38c0.136-0.066,0.274-0.14,0.409-0.204c1.012-0.478,1.992-0.905,3.051-1.229
				c1.061-0.329,2.199-0.537,3.65-0.663C66.838,74.529,65.381,73.875,63.889,73.739z"/>
		</g>
	</g>
	<g>
		<g>
			<path style="fill:#918BC1;" d="M66.014,80.147c-1.133,0.135-2.259,0.598-3.194,1.348c-0.937,0.751-1.647,1.797-1.983,2.923
				c-0.32,1.134-0.311,2.324,0.201,3.415l2.098-2.158c0.612-0.602,1.181-1.097,1.777-1.588c0.602-0.484,1.238-0.962,1.963-1.475
				c0.73-0.521,1.515-1.065,2.461-1.788C68.313,80.168,67.146,80.026,66.014,80.147z"/>
		</g>
	</g>
	<g>
		<g>
			<path style="fill:#918BC1;" d="M71.207,84.058c-0.841,0.234-1.631,0.761-2.198,1.504c-0.567,0.741-0.878,1.696-0.837,2.606
				c0.055,0.91,0.402,1.769,1.164,2.398c0.619-0.77,1.021-1.337,1.387-1.801c0.363-0.462,0.66-0.812,0.941-1.192
				c0.287-0.379,0.575-0.794,0.928-1.303c0.353-0.521,0.742-1.104,1.239-1.941C72.965,83.836,72.051,83.832,71.207,84.058z"/>
		</g>
	</g>
	<g>
		<g>
			<path style="fill:#918BC1;" d="M77.684,85.833c-0.782,0.321-1.232,0.749-1.574,1.209c-0.329,0.458-0.519,0.959-0.578,1.486
				c-0.06,0.525,0.015,1.079,0.256,1.636c0.255,0.539,0.66,1.147,1.47,1.45c0.545-0.638,0.9-1.012,1.149-1.443
				c0.246-0.421,0.391-0.838,0.437-1.28c0.046-0.441-0.001-0.904-0.161-1.402C78.506,86.985,78.244,86.461,77.684,85.833z"/>
		</g>
	</g>
	<g>
		<g>
			<path style="fill:#918BC1;" d="M83.918,88.978c-0.022-0.444-0.069-0.854-0.158-1.278c-0.088-0.418-0.215-0.847-0.4-1.296
				c-0.198-0.451-0.428-0.915-0.842-1.447c-0.509,0.458-0.744,0.992-0.896,1.534c-0.136,0.542-0.148,1.106-0.035,1.661
				c0.111,0.552,0.356,1.098,0.746,1.559c0.397,0.45,0.941,0.835,1.629,0.859L83.918,88.978z"/>
		</g>
	</g>
	<g>
		<g>
			<g>
				<g>
					<circle style="fill:#3C3C3B;" cx="38.542" cy="45.962" r="4.567"/>
				</g>
			</g>
		</g>
		<g>
			<g>
				<g>
					<circle style="fill:#3C3C3B;" cx="82.38" cy="45.962" r="4.567"/>
				</g>
			</g>
		</g>
		<g>
			<g>
				<circle style="fill:#FFFFFF;" cx="40.13" cy="44.681" r="1.943"/>
			</g>
		</g>
		<g>
			<g>
				<circle style="fill:#FFFFFF;" cx="83.963" cy="44.681" r="1.943"/>
			</g>
		</g>
	</g>
	<g>
		<g>
			<path style="fill:#AEAED3;" d="M89.006,70.937c-0.035-0.311-0.063-0.624-0.105-0.934c-4.215,2.404-9.307,4.278-14.972,5.441
				c-0.144,0.03-0.288,0.058-0.435,0.086c-0.744,0.147-1.494,0.286-2.256,0.409c0.341,1.649,0.969,3.174,2.031,4.329
				c1.031,1.122,2.469,1.899,4.463,2.09c0.563,0.054,1.101,0.089,1.622,0.11c0.176,0.007,0.339,0.004,0.511,0.008
				c0.336,0.008,0.674,0.015,0.992,0.009c0.186-0.003,0.36-0.013,0.539-0.021c0.291-0.011,0.58-0.022,0.855-0.044
				c0.169-0.014,0.331-0.029,0.495-0.047c0.271-0.026,0.538-0.057,0.796-0.093c0.143-0.021,0.281-0.042,0.42-0.065
				c0.266-0.043,0.525-0.09,0.774-0.142c0.111-0.023,0.22-0.047,0.326-0.072c0.271-0.062,0.534-0.128,0.786-0.199
				c0.069-0.02,0.141-0.038,0.209-0.058c0.291-0.088,0.57-0.178,0.834-0.273c0.021-0.009,0.042-0.016,0.063-0.022
				c0.293-0.11,0.572-0.222,0.833-0.338c0.884-2.481,1.362-5.127,1.362-7.874C89.15,72.458,89.089,71.696,89.006,70.937z"/>
		</g>
	</g>
	<g>
		<g>
			<path style="fill:#AEAED3;" d="M76.489,102.617v-6.812v-1.142c0.081-0.048,0.157-0.101,0.233-0.151
				c-1.047,0.121-2.146,0.209-3.308,0.255c-0.068,0.002-0.14,0.001-0.209,0.005c-0.517,0.019-1.038,0.032-1.577,0.032
				c-0.613,0.002-1.242-0.007-1.889-0.029c-3.547-0.118-6.559-0.873-9.12-2.067c-7.466-3.475-11.069-10.701-12.585-17.051
				c-0.684-0.131-1.357-0.271-2.024-0.421c-0.153-0.033-0.306-0.067-0.456-0.102c-1.361-0.315-2.686-0.671-3.969-1.063
				c-0.079-0.023-0.157-0.049-0.234-0.073c-3.431-1.07-6.57-2.416-9.332-3.993c-0.147,1.062-0.248,2.137-0.248,3.232
				c0,8.921,5.023,16.786,12.661,21.427v7.956c-2.464,1.733-4.077,4.594-4.077,7.833h8.623h1.688h8.855
				c0-3.24-1.615-6.101-4.078-7.834v-3.968c1.631,0.26,3.302,0.418,5.018,0.418c0.053,0,0.104-0.007,0.159-0.007
				c0.651-0.01,1.294-0.045,1.933-0.09c0.318-0.021,0.639-0.046,0.957-0.078c0.669-0.065,1.325-0.148,1.97-0.243v3.969
				c-2.462,1.735-4.074,4.594-4.074,7.833h8.622h1.688h8.853C80.567,107.212,78.953,104.353,76.489,102.617z"/>
		</g>
	</g>
	<g>
		<g>
			<g>
				<path style="fill:#F6E9E5;" d="M45.145,72.498c-0.387,0.676-0.707,1.104-1.084,1.611c-0.369,0.482-0.756,0.946-1.164,1.391
					c-0.816,0.894-1.727,1.719-2.742,2.445c-1.018,0.72-2.151,1.337-3.385,1.746c-1.228,0.418-2.551,0.598-3.826,0.535
					c-1.146-0.054-2.032-1.028-1.977-2.176c0.047-0.976,0.758-1.761,1.674-1.941l0.146-0.027c1.487-0.293,2.721-1.142,3.757-2.336
					c0.514-0.6,0.978-1.272,1.377-1.998c0.198-0.36,0.385-0.732,0.55-1.108c0.154-0.354,0.335-0.802,0.384-1.042
					c0.388-1.916,2.256-3.155,4.173-2.767c1.915,0.389,3.153,2.257,2.766,4.173c-0.076,0.373-0.21,0.724-0.387,1.039L45.145,72.498z
					"/>
			</g>
		</g>
		<g>
			<g>
				<path style="fill:#F6E9E5;" d="M78.207,69.598c0.049,0.24,0.23,0.688,0.385,1.042c0.164,0.376,0.35,0.748,0.549,1.108
					c0.399,0.726,0.863,1.398,1.378,1.998c1.035,1.194,2.269,2.043,3.757,2.336l0.145,0.027c1.127,0.222,1.859,1.315,1.639,2.442
					c-0.189,0.958-1.008,1.632-1.939,1.675c-1.277,0.063-2.6-0.117-3.827-0.535c-1.233-0.409-2.366-1.026-3.386-1.746
					c-1.015-0.727-1.926-1.552-2.74-2.445c-0.409-0.444-0.797-0.908-1.165-1.391c-0.376-0.508-0.698-0.936-1.083-1.611l-0.253-0.441
					c-0.97-1.696-0.38-3.859,1.317-4.829s3.858-0.381,4.828,1.318C78.002,68.876,78.133,69.242,78.207,69.598z"/>
			</g>
		</g>
	</g>
</g>
</svg>
