<?xml version="1.0" encoding="utf-8"?>
<!-- Generator: Adobe Illustrator 16.0.0, SVG Export Plug-In . SVG Version: 6.00 Build 0)  -->
<!DOCTYPE svg PUBLIC "-//W3C//DTD SVG 1.1//EN" "http://www.w3.org/Graphics/SVG/1.1/DTD/svg11.dtd">
<svg version="1.1" id="Layer_1" xmlns="http://www.w3.org/2000/svg" xmlns:xlink="http://www.w3.org/1999/xlink" x="0px" y="0px"
	 width="76.217px" height="20.138px" viewBox="0 0 76.217 20.138" enable-background="new 0 0 76.217 20.138" xml:space="preserve">
<g>
	<path fill="#FCFCFC" d="M4.04,20.138V1.689C4.04,0.756,4.706,0,5.528,0l0,0C6.35,0,7.017,0.756,7.017,1.689v18.448"/>
	<path fill="#FCFCFC" d="M12.225,20.138V1.689C12.225,0.756,12.891,0,13.713,0l0,0c0.822,0,1.488,0.756,1.488,1.689v18.448"/>
	<path fill="#FCFCFC" d="M20.41,20.138V1.689C20.41,0.756,21.076,0,21.897,0l0,0c0.822,0,1.488,0.756,1.488,1.689v18.448"/>
	<path fill="#FCFCFC" d="M28.595,20.138V1.689C28.595,0.756,29.262,0,30.083,0l0,0c0.821,0,1.488,0.756,1.488,1.689v18.448"/>
	<path fill="#FCFCFC" d="M36.779,20.138V1.689C36.779,0.756,37.446,0,38.268,0l0,0c0.821,0,1.488,0.756,1.488,1.689v18.448"/>
	<path fill="#FCFCFC" d="M44.965,20.138V1.689C44.965,0.756,45.632,0,46.453,0l0,0c0.821,0,1.488,0.756,1.488,1.689v18.448"/>
	<path fill="#FCFCFC" d="M53.149,20.138V1.689C53.149,0.756,53.816,0,54.638,0l0,0c0.821,0,1.488,0.756,1.488,1.689v18.448"/>
	<path fill="#FCFCFC" d="M61.335,20.138V1.689C61.335,0.756,62.001,0,62.823,0l0,0c0.822,0,1.488,0.756,1.488,1.689v18.448"/>
	<path fill="#FCFCFC" d="M69.52,20.138V1.689C69.52,0.756,70.186,0,71.008,0l0,0c0.822,0,1.488,0.756,1.488,1.689v18.448"/>
	<path fill="#FCFCFC" d="M76.217,4.751c0,0.449-0.476,0.813-1.063,0.813H1.063C0.476,5.563,0,5.2,0,4.751l0,0
		c0-0.448,0.476-0.812,1.063-0.812h74.09C75.741,3.939,76.217,4.303,76.217,4.751L76.217,4.751z"/>
	<path fill="#FCFCFC" d="M76.217,12.473c0,0.448-0.476,0.812-1.063,0.812H1.063C0.476,13.284,0,12.921,0,12.473l0,0
		c0-0.448,0.476-0.813,1.063-0.813h74.09C75.741,11.66,76.217,12.024,76.217,12.473L76.217,12.473z"/>
</g>
</svg>
