<?xml version="1.0" encoding="utf-8"?>
<!-- Generator: Adobe Illustrator 16.0.0, SVG Export Plug-In . SVG Version: 6.00 Build 0)  -->
<!DOCTYPE svg PUBLIC "-//W3C//DTD SVG 1.1//EN" "http://www.w3.org/Graphics/SVG/1.1/DTD/svg11.dtd">
<svg version="1.1" id="Layer_1" xmlns="http://www.w3.org/2000/svg" xmlns:xlink="http://www.w3.org/1999/xlink" x="0px" y="0px"
	 width="78.172px" height="56.697px" viewBox="24.955 40.508 78.172 56.697"
	 style="enable-background:new 24.955 40.508 78.172 56.697;" xml:space="preserve">
<g>
	<g>
		<path style="fill:#3F4276;" d="M47.054,49.867c-13.348,5.906-22.099,18.46-22.099,18.46c0.071,0.079,6.633,6.636,12.064,4.655
			l0.183,1.344c-0.686,0.251-1.381,0.357-2.092,0.357c-3.756,0-7.678-2.151-9.7-4.038c2.865,3.583,10.619,12.403,20.689,17.194
			C53.622,75.016,48.227,54.016,47.054,49.867z M38.832,68.859c-2.239,0-4.068-1.825-4.068-4.069c0-2.249,1.829-4.071,4.068-4.071
			c2.25,0,4.072,1.819,4.072,4.071C42.903,67.034,41.082,68.859,38.832,68.859z"/>
	</g>
	<g>
		<path style="fill:#3F2B3B;" d="M91.297,64.193c-3.91-4.314-10.432-10.463-18.324-14.088c8.025-3.543,23.846,2.847,9.391-6.08
			c-7.148-4.416-13.593-4.055-18.575-2.27c-4.695,1.682-8.094,4.627-9.534,6.043c-1.643,0.367-3.253,0.856-4.807,1.473
			c1.159,3.912,6.95,25.506-0.965,39.197c3.057,1.303,6.322,2.181,9.706,2.445c1.572,1.461,3.549,2.717,5.6,3.717
			c6.846,3.332,14.563,3.787,11.198-0.771c-1.053-1.425-2.234-3.253-3.441-5.217c9.258-3.803,16.781-11.273,20.75-15.813
			l10.832,6.178V59.116L91.297,64.193z"/>
	</g>
	<g>
		<circle style="fill:#3F4276;" cx="38.836" cy="64.68" r="2.227"/>
	</g>
</g>
</svg>
