<?xml version="1.0" encoding="utf-8"?>
<!-- Generator: Adobe Illustrator 16.0.0, SVG Export Plug-In . SVG Version: 6.00 Build 0)  -->
<!DOCTYPE svg PUBLIC "-//W3C//DTD SVG 1.1//EN" "http://www.w3.org/Graphics/SVG/1.1/DTD/svg11.dtd">
<svg version="1.1" id="Layer_1" xmlns="http://www.w3.org/2000/svg" xmlns:xlink="http://www.w3.org/1999/xlink" x="0px" y="0px"
	 width="61.647px" height="87.472px" viewBox="0 0 61.647 87.472" enable-background="new 0 0 61.647 87.472" xml:space="preserve">
<path fill-rule="evenodd" clip-rule="evenodd" fill="#8CB036" d="M42.041,12.863C39.668,19.012,30.064,34.012,30.193,37.5
	C25.395,25.674,24.664,13.105,26.859,0c-6.382,12.191-7.54,24.355-3.277,36.498C20.189,29.512,11.691,26.238,0,25.299
	c9.396,3.703,17.428,9.242,22.207,19.23c-5.975-4.207-12.438-4.594-19.431-0.871c8.075,0.053,15.13,2.887,20.54,10.17
	c-11.572-2.031-15.33,3.514-18.039,10.063c5.746-4.764,11.324-10.176,20.352-2.488l11.66-0.357
	c0.058-6.607,1.738-15.129,0.18-16.605C37.359,32.881,38.827,23.152,42.041,12.863L42.041,12.863z"/>
<path fill-rule="evenodd" clip-rule="evenodd" fill="#8CB036" d="M36.215,40.041c3.914-5.225,9.115-10.135,18.106-14.104
	c-7.046,6.629-13.769,13.33-16.517,20.881c9.756-5.158,17.894-2.719,23.843,9.938c-7.078-6.277-15.424-7.518-24.548-5.543
	c7.069-0.387,12.129,3.727,15.12,12.457c-4.825-3.336-9.673-6.609-15.364-7.021L36.215,40.041L36.215,40.041z"/>
<path fill-rule="evenodd" clip-rule="evenodd" fill="#696978" d="M24.07,86.139c-7.177-7.449-9.105-17.615-5.238-28.268
	c-0.004,0.018-0.004,0.037-0.004,0.061c0-1.338,5.222-2.43,11.646-2.43c6.002,0,10.94,0.951,11.579,2.164
	c-0.003-0.012-0.003-0.025-0.01-0.025c0.033,0.006,0.06,0.02,0.079,0.029c3.972,10.725,2.059,20.975-5.158,28.477
	C35.223,87.869,25.961,87.959,24.07,86.139L24.07,86.139z M18.828,57.932c0,1.336,5.222,2.432,11.646,2.432
	C24.05,60.363,18.828,59.268,18.828,57.932L18.828,57.932z M42.137,57.932c0,1.336-5.23,2.432-11.662,2.432
	C36.906,60.363,42.137,59.268,42.137,57.932L42.137,57.932z M42.077,57.717c0.036,0.068,0.06,0.145,0.06,0.215
	C42.137,57.861,42.113,57.785,42.077,57.717L42.077,57.717z"/>
</svg>
