<?xml version="1.0" encoding="utf-8"?>
<!-- Generator: Adobe Illustrator 16.0.0, SVG Export Plug-In . SVG Version: 6.00 Build 0)  -->
<!DOCTYPE svg PUBLIC "-//W3C//DTD SVG 1.1//EN" "http://www.w3.org/Graphics/SVG/1.1/DTD/svg11.dtd">
<svg version="1.1" id="Layer_1" xmlns="http://www.w3.org/2000/svg" xmlns:xlink="http://www.w3.org/1999/xlink" x="0px" y="0px"
	 width="48.544px" height="89.048px" viewBox="0 0 48.544 89.048" style="enable-background:new 0 0 48.544 89.048;"
	 xml:space="preserve">
<path style="fill-rule:evenodd;clip-rule:evenodd;fill:#8CB036;" d="M22.767,34.752c0.47-10.116,4.759-19.478,10.354-16.305
	c4.547,2.902-1.979,9.732-8.69,17.304C23.425,36.894,22.505,35.91,22.767,34.752L22.767,34.752z"/>
<path style="fill-rule:evenodd;clip-rule:evenodd;fill:#8CB036;" d="M19.716,18.692c-5.613-8.42-11.143-16.083-6.248-18.333
	c5.986-2.381,8.955,7.481,8.038,17.558C21.608,19.1,20.56,19.95,19.716,18.692L19.716,18.692z"/>
<path style="fill-rule:evenodd;clip-rule:evenodd;fill:#8CB036;" d="M11.273,47.153C5.664,38.739,0.132,31.081,5.025,28.832
	c5.98-2.386,8.955,7.476,8.035,17.556C13.17,47.567,12.114,48.417,11.273,47.153L11.273,47.153z"/>
<path style="fill-rule:evenodd;clip-rule:evenodd;fill:#8CB036;" d="M0.449,43.786c2.962-4.087,9.063,1.195,12.681,8.246
	c0.569,0.74,0.226,1.74-0.854,1.262C5.032,50.079-1.844,47.331,0.449,43.786L0.449,43.786z"/>
<path style="fill-rule:evenodd;clip-rule:evenodd;fill:#8CB036;" d="M32.291,59.747c-1.182-0.016-1.072-1.069-0.255-1.51
	c6.23-4.893,13.978-7.143,14.967-2.205C47.612,60.214,40.216,59.845,32.291,59.747L32.291,59.747z"/>
<path style="fill-rule:evenodd;clip-rule:evenodd;fill:#8CB036;" d="M36.556,50.742c2.528-7.512,7.773-13.649,11.312-10.057
	c2.803,3.171-3.587,6.913-10.271,11.175C36.6,52.497,36.109,51.556,36.556,50.742L36.556,50.742z"/>
<path style="fill-rule:evenodd;clip-rule:evenodd;fill:#8CB036;" d="M31.146,56.185c-0.705-7.893-1.642-15.242,2.581-14.955
	c4.997,0.614,3.35,8.507-1.063,15.098C32.291,57.174,31.251,57.364,31.146,56.185L31.146,56.185z"/>
<path style="fill-rule:evenodd;clip-rule:evenodd;fill:#8CB036;" d="M23.398,44.148c1.82-7.717,6.477-14.313,10.328-11.064
	c3.088,2.894-2.932,7.214-9.189,12.077C23.61,45.883,23.038,44.999,23.398,44.148L23.398,44.148z"/>
<path style="fill-rule:evenodd;clip-rule:evenodd;fill:#8CB036;" d="M11.224,27.131c3.171-3.915,8.975,1.689,12.215,8.929
	c0.516,0.775,0.115,1.752-0.934,1.213C15.446,33.663,8.729,30.542,11.224,27.131L11.224,27.131z"/>
<path style="fill-rule:evenodd;clip-rule:evenodd;fill:#8CB036;" d="M9.06,14.708c3.181-3.914,8.979,1.697,12.218,8.932
	c0.513,0.773,0.112,1.749-0.933,1.209C13.286,21.24,6.571,18.123,9.06,14.708L9.06,14.708z"/>
<path style="fill-rule:evenodd;clip-rule:evenodd;fill:#8CB036;" d="M21.013,23.013c0.463-10.115,4.745-19.479,10.348-16.3
	c4.544,2.9-1.979,9.732-8.687,17.299C21.675,25.151,20.741,24.166,21.013,23.013L21.013,23.013z"/>
<path style="fill-rule:evenodd;clip-rule:evenodd;fill:#8CB036;" d="M22.012,76.651c3.65-10.918,9.058-21.127,17.768-29.918
	c0.493-0.495,1.301-0.508,1.804-0.007c0.489,0.498,0.5,1.299,0.003,1.8c-8.369,8.451-13.604,18.292-17.161,28.928
	c-0.222,0.669-0.94,1.031-1.602,0.805C22.151,78.038,21.79,77.319,22.012,76.651L22.012,76.651z"/>
<path style="fill-rule:evenodd;clip-rule:evenodd;fill:#8CB036;" d="M17.243,77.81c-0.215-0.277-0.308-0.611-0.277-0.967
	c-0.021-0.207-0.06-0.588-0.162-1.319c-0.116-0.786-0.281-1.837-0.486-3.087c-0.414-2.504-1-5.799-1.665-9.387
	c-1.344-7.18-3.021-15.5-4.431-20.973c-0.169-0.677,0.241-1.369,0.926-1.545c0.682-0.176,1.377,0.238,1.546,0.921
	c1.426,5.555,3.124,13.945,4.461,21.13c0.672,3.602,1.258,6.912,1.678,9.436c0.205,1.265,0.374,2.332,0.486,3.143
	c0.116,0.76,0.192,1.396,0.202,1.721l-0.014,0.242c0,0.046-0.017,0.142-0.053,0.246c-0.02,0.061-0.116,0.375-0.42,0.627
	C18.487,78.437,17.684,78.353,17.243,77.81L17.243,77.81z"/>
<path style="fill-rule:evenodd;clip-rule:evenodd;fill:#8CB036;" d="M20.046,76.771c3.588-19.844,2.926-39.684-0.916-59.521
	c-0.133-0.691,0.311-1.363,1.003-1.495c0.691-0.128,1.356,0.322,1.495,1.011c3.889,20.098,4.573,40.257,0.917,60.453
	c-0.122,0.698-0.781,1.158-1.479,1.031C20.377,78.126,19.917,77.466,20.046,76.771L20.046,76.771z"/>
<path style="fill-rule:evenodd;clip-rule:evenodd;fill:#8CB036;" d="M2.246,54.036c2.383-4.436,9.134-0.018,13.67,6.49
	c0.649,0.656,0.444,1.686-0.682,1.357C7.624,59.664,0.433,57.865,2.246,54.036L2.246,54.036z"/>
<path style="fill-rule:evenodd;clip-rule:evenodd;fill:#8CB036;" d="M14.643,54.839c-2.092-7.647-1.172-15.662,3.763-14.656
	c4.1,1.054,0.89,7.74-2.277,15.009C15.662,56.263,14.735,55.761,14.643,54.839L14.643,54.839z"/>
<polygon style="fill-rule:evenodd;clip-rule:evenodd;fill:#F04014;" points="21.287,89.048 21.287,89.048 8.709,89.048 
	6.664,72.155 21.356,72.155 21.356,72.155 35.98,72.155 33.936,89.048 21.287,89.048 "/>
</svg>
