<?xml version="1.0" encoding="utf-8"?>
<!-- Generator: Adobe Illustrator 16.0.0, SVG Export Plug-In . SVG Version: 6.00 Build 0)  -->
<!DOCTYPE svg PUBLIC "-//W3C//DTD SVG 1.1//EN" "http://www.w3.org/Graphics/SVG/1.1/DTD/svg11.dtd">
<svg version="1.1" id="Layer_1" xmlns="http://www.w3.org/2000/svg" xmlns:xlink="http://www.w3.org/1999/xlink" x="0px" y="0px"
	 width="98.654px" height="105.677px" viewBox="0 0 98.654 105.677" style="enable-background:new 0 0 98.654 105.677;"
	 xml:space="preserve">
<g>
	<g>
		<g>
			<path style="fill:#F6F3CF;" d="M96.49,66.006c-0.459-0.332-1.054-0.654-1.758-0.948c0.188,0.116,0.359,0.219,0.523,0.313
				C95.709,65.568,96.123,65.781,96.49,66.006z"/>
		</g>
	</g>
	<g>
		<g>
			<path style="fill:#F6F3CF;" d="M96.49,66.006c-0.367-0.225-0.781-0.438-1.234-0.636C96.002,65.799,96.49,66.006,96.49,66.006z"/>
		</g>
	</g>
	<g>
		<g>
			<path style="fill:#F6F3CF;" d="M22.906,65.058c-0.705,0.294-1.299,0.616-1.76,0.948c0.369-0.225,0.781-0.438,1.234-0.636
				C22.547,65.276,22.72,65.174,22.906,65.058z"/>
		</g>
	</g>
	<g>
		<g>
			<path style="fill:#F6F3CF;" d="M21.146,66.006c0,0,0.49-0.207,1.234-0.636C21.928,65.568,21.516,65.781,21.146,66.006z"/>
		</g>
	</g>
	<g>
		<g>
			<g>
				<path style="fill:#AF5B2B;" d="M58.735,87.336c-9.483,0-17.774-4.538-22.425-11.328c0.322,6.029,2.996,11.426,7.143,15.285
					v7.111c-2.166,1.688-3.564,4.314-3.564,7.272h18.447c0-2.958-1.396-5.585-3.564-7.272v-1.429c1.311,0.237,2.653,0.38,4.033,0.38
					V87.333C58.779,87.333,58.756,87.336,58.735,87.336z"/>
			</g>
		</g>
		<g>
			<g>
				<path style="fill:#EA8232;" d="M74.156,98.404v-7.111c4.197-3.908,6.889-9.391,7.154-15.513
					C76.703,82.68,68.363,87.31,58.805,87.333v10.022c1.379,0,2.721-0.143,4.033-0.38v1.429c-2.166,1.688-3.565,4.314-3.565,7.272
					h18.448C77.721,102.719,76.322,100.092,74.156,98.404z"/>
			</g>
		</g>
		<g>
			<g>
				<path style="fill:#AF5B2B;" d="M50.916,81.143c-0.002,0.004-0.006,0.008-0.008,0.012c1.508,0.754,3.076,1.603,4.705,2.558
					c1.041,0.611,2.1,1.25,3.191,1.952v-9.835V52.24c-12.459,0-22.557,10.1-22.557,22.558c0,0.409,0.041,0.808,0.063,1.21
					c2.379,3.473,5.713,6.352,9.67,8.339c-0.253-1.496-0.48-3.072-0.724-4.726C47.029,80.162,48.913,80.673,50.916,81.143z"/>
			</g>
		</g>
		<g>
			<g>
				<path style="fill:#AF5B2B;" d="M58.805,52.24v23.589c0,0,0,0,0.002,0v9.835c1.09-0.702,2.146-1.341,3.191-1.952
					c1.626-0.955,3.194-1.804,4.703-2.558c2.044-0.479,3.963-0.999,5.767-1.55c-0.235,1.601-0.449,3.14-0.687,4.595
					c3.913-2.025,7.199-4.93,9.529-8.419c0.014-0.327,0.051-0.651,0.051-0.982C81.361,62.34,71.264,52.24,58.805,52.24z"/>
			</g>
		</g>
		<g>
			<g>
				<path style="fill:#D5D2B1;" d="M58.805,87.333v-1.669c-1.092-0.702-2.15-1.341-3.191-1.952
					c-1.629-0.955-3.197-1.804-4.705-2.558c0.002-0.004,0.006-0.008,0.008-0.012c-2.003-0.47-3.887-0.98-5.659-1.521
					c0.243,1.653,0.471,3.229,0.724,4.726c3.777,1.899,8.121,2.989,12.755,2.989C58.756,87.336,58.779,87.333,58.805,87.333z"/>
			</g>
		</g>
		<g>
			<g>
				<path style="fill:#D5D2B1;" d="M66.701,81.154c-1.509,0.754-3.077,1.603-4.703,2.558c-1.045,0.611-2.102,1.25-3.191,1.952
					v-9.835c-0.002,0-0.002,0-0.002,0v9.835v1.669c4.725-0.012,9.151-1.153,12.977-3.134c0.237-1.455,0.451-2.994,0.687-4.595
					C70.664,80.155,68.745,80.676,66.701,81.154z"/>
			</g>
		</g>
		<g>
			<g>
				<path style="fill:#D5D2B1;" d="M58.735,87.336c-4.634,0-8.978-1.09-12.755-2.989c1.293,7.677,3.338,13.009,12.824,13.009V87.333
					C58.779,87.333,58.756,87.336,58.735,87.336z"/>
			</g>
		</g>
		<g>
			<g>
				<path style="fill:#F6F3CF;" d="M71.781,84.199c-3.825,1.98-8.252,3.122-12.977,3.134v10.022
					C68.567,97.355,70.516,91.959,71.781,84.199z"/>
			</g>
		</g>
	</g>
	<g>
		<g>
			<g>
				<path style="fill:#3C3C3B;" d="M70.084,31.828C75.898,8.252,95.071,0,95.071,0s13.706,35.779-12.493,44.311L70.084,31.828z"/>
			</g>
		</g>
		<g>
			<g>
				<path style="fill:#AF5B2B;" d="M72.882,33.998C80.371,11.604,92.365,7.697,92.365,7.697s10.365,21.385-12.406,34.429
					L72.882,33.998z"/>
			</g>
		</g>
		<g>
			<g>
				<path style="fill:#3C3C3B;" d="M47.525,31.828C41.711,8.252,22.537,0,22.537,0S8.832,35.779,35.031,44.311L47.525,31.828z"/>
			</g>
		</g>
		<g>
			<g>
				<path style="fill:#AF5B2B;" d="M44.729,33.998C37.238,11.604,25.244,7.697,25.244,7.697S14.88,29.082,37.65,42.126
					L44.729,33.998z"/>
			</g>
		</g>
	</g>
	<g>
		<g>
			<g>
				<path style="fill:#AF5B2B;" d="M44.715,88.203c-7.641,6.297-17.684,2.08-23.624-4.491c-0.464-0.513-0.991-0.975-1.546-1.413
					c-2.516-0.119-5.25,0.164-7.492,1.413c0,0,4.02,3.034,5.547,6.363c0,0-4.506,0.918-8.043-1.31c0,0,0.444,5.322,4.215,9.923
					c1.18,0.36,2.448,0.684,3.828,0.956c23.229,4.576,29.913-8.625,29.913-8.625L44.715,88.203z"/>
			</g>
		</g>
		<g>
			<g>
				<path style="fill:#D5D2B1;" d="M17.6,90.075c-1.527-3.329-5.547-6.363-5.547-6.363c2.242-1.249,4.977-1.532,7.492-1.413
					C12.988,77.12,0.82,76.924,0.82,76.924s-5.698,16.047,12.951,21.765c-3.771-4.601-4.215-9.923-4.215-9.923
					C13.094,90.993,17.6,90.075,17.6,90.075z"/>
			</g>
		</g>
	</g>
	<g>
		<g>
			<g>
				<g>
					<path style="fill:#EA8232;" d="M79.477,65.112c-8.08,2.096-15.189,8.861-16.59,11.812c-1.224-0.679-2.611-1.098-4.11-1.098
						V60.436V25.727c15.931,0,28.847,12.914,28.847,28.845c0,0.375-0.042,0.739-0.057,1.108c1.808,7.363,8.91,10.326,8.91,10.326
						C93.446,64.154,87.4,63.057,79.477,65.112z"/>
				</g>
			</g>
			<g>
				<g>
					<path style="fill:#F6F3CF;" d="M66.673,81.154c-0.735-1.813-2.089-3.288-3.786-4.23c1.4-2.272,6.076-8.305,16.59-11.812
						c7.766-2.589,14.433-0.958,17,0.894C96.477,66.006,88.635,76.008,66.673,81.154z"/>
				</g>
			</g>
			<g>
				<g>
					<g>
						<path style="fill:#3C3C3B;" d="M50.879,81.154c1.51,0.754,3.077,1.603,4.707,2.558c1.041,0.611,2.099,1.25,3.189,1.952v-9.838
							c-1.498,0-2.885,0.419-4.109,1.098C52.969,77.866,51.615,79.341,50.879,81.154z"/>
					</g>
				</g>
				<g>
					<g>
						<path style="fill:#3C3C3B;" d="M62.887,76.924c-1.224-0.679-2.611-1.098-4.11-1.098v9.838
							c1.091-0.702,2.149-1.341,3.192-1.952c1.628-0.955,3.194-1.804,4.704-2.558C65.938,79.341,64.584,77.866,62.887,76.924z"/>
					</g>
				</g>
			</g>
		</g>
		<g>
			<g>
				<g>
					<path style="fill:#AF5B2B;" d="M38.134,65.112c8.079,2.096,15.189,8.861,16.589,11.812c1.224-0.679,2.611-1.098,4.109-1.098
						V60.436V25.727c-15.931,0-28.846,12.914-28.846,28.845c0,0.375,0.042,0.739,0.057,1.108c-1.808,7.363-8.91,10.326-8.91,10.326
						C24.163,64.154,30.209,63.057,38.134,65.112z"/>
				</g>
			</g>
			<g>
				<g>
					<path style="fill:#D5D2B1;" d="M50.937,81.154c0.735-1.813,2.089-3.288,3.786-4.23c-1.399-2.272-6.076-8.305-16.589-11.812
						c-7.767-2.589-14.434-0.958-17.001,0.894C21.133,66.006,28.975,76.008,50.937,81.154z"/>
				</g>
			</g>
		</g>
	</g>
	<g>
		<g>
			<path style="fill:none;" d="M38.146,65.112c2.774,0.926,5.133,2.027,7.141,3.188c0.005-0.036,0.012-0.072,0.017-0.107
				C43.109,66.883,40.676,65.77,38.146,65.112z"/>
		</g>
	</g>
	<g>
		<g>
			<path style="fill:#E96332;" d="M58.791,25.727L58.791,25.727c0.01,0.001,0.02,0,0.028,0
				C58.811,25.727,58.801,25.727,58.791,25.727z"/>
		</g>
	</g>
	<g>
		<g>
			<path style="fill:#07171B;" d="M54.727,76.901c-0.001,0.001-0.002,0.001-0.002,0.001c0.004,0.007,0.01,0.016,0.014,0.021
				C54.736,76.916,54.729,76.909,54.727,76.901z"/>
		</g>
	</g>
	<g>
		<g>
			<path style="fill:#A84720;" d="M58.848,25.727c-0.01,0-0.02,0-0.028,0C58.828,25.727,58.838,25.728,58.848,25.727L58.848,25.727z
				"/>
		</g>
	</g>
	<g>
		<g>
			<path style="fill:#A84720;" d="M58.848,50.922V25.728c-0.01,0-0.02-0.001-0.028-0.001s-0.019,0.001-0.028,0.001v25.198
				C58.811,50.926,58.828,50.922,58.848,50.922z"/>
		</g>
	</g>
	<g>
		<g>
			<path style="fill:#A84720;" d="M58.791,75.826c0.01,0,0.02,0.001,0.028,0.001s0.019-0.001,0.028-0.001V60.436v-9.514
				c-0.02,0-0.037,0.004-0.057,0.004v9.51V75.826z"/>
		</g>
	</g>
	<g>
		<g>
			<path style="fill:#A84720;" d="M54.727,76.901c0.002,0.008,0.01,0.015,0.012,0.022c1.207-0.67,2.576-1.084,4.053-1.095v-0.003
				C57.311,75.826,55.939,76.238,54.727,76.901z"/>
		</g>
	</g>
	<g>
		<g>
			<path style="fill:#A84720;" d="M58.791,75.826v0.003c0.01,0,0.02-0.001,0.028-0.002C58.811,75.827,58.801,75.826,58.791,75.826z"
				/>
		</g>
	</g>
	<g>
		<g>
			<g>
				<path style="fill:#3C3C3B;" d="M58.367,105.677c0-5.101-4.135-9.235-9.235-9.235s-9.236,4.135-9.236,9.235H58.367z"/>
			</g>
		</g>
		<g>
			<g>
				<path style="fill:#3C3C3B;" d="M77.758,105.677c0-5.101-4.135-9.235-9.236-9.235c-5.1,0-9.236,4.135-9.236,9.235H77.758z"/>
			</g>
		</g>
	</g>
	<g>
		<g>
			<path style="fill:#F39E2B;" d="M36.369,51.108c0,0,12.354-3.582,12.076,8.981C48.445,60.09,36.369,64.475,36.369,51.108"/>
		</g>
	</g>
	<g>
		<g>
			<path style="fill:#F39E2B;" d="M68.688,60.09c0,0,12.076,4.385,12.076-8.981C80.765,51.108,68.41,47.526,68.688,60.09"/>
		</g>
	</g>
	<g>
		<g>
			<g>
				<circle style="fill:#FFFFFF;" cx="43.946" cy="54.392" r="2.247"/>
			</g>
		</g>
	</g>
	<g>
		<g>
			<g>
				<circle style="fill:#FFFFFF;" cx="76.359" cy="54.392" r="2.246"/>
			</g>
		</g>
	</g>
</g>
</svg>
