<?xml version="1.0" encoding="utf-8"?>
<!-- Generator: Adobe Illustrator 16.0.0, SVG Export Plug-In . SVG Version: 6.00 Build 0)  -->
<!DOCTYPE svg PUBLIC "-//W3C//DTD SVG 1.1//EN" "http://www.w3.org/Graphics/SVG/1.1/DTD/svg11.dtd">
<svg version="1.1" id="Layer_1" xmlns="http://www.w3.org/2000/svg" xmlns:xlink="http://www.w3.org/1999/xlink" x="0px" y="0px"
	 width="114.745px" height="114.919px" viewBox="5.607 11.662 114.745 114.919"
	 style="enable-background:new 5.607 11.662 114.745 114.919;" xml:space="preserve">
<g>
	<path style="fill:#FFFFFF;" d="M120.353,69.222c0-31.421-25.271-56.929-56.598-57.338v114.677
		C95.081,126.154,120.353,100.647,120.353,69.222z"/>
	<path style="fill:#E6E7E8;" d="M62.997,11.866c-31.68,0-57.356,25.679-57.356,57.355c0,31.681,25.677,57.359,57.356,57.359
		c0.252,0,0.502-0.018,0.758-0.021V11.884C63.499,11.881,63.249,11.866,62.997,11.866z"/>
	<polygon style="fill:#61AE46;" points="63.192,98.366 63.755,100.832 63.755,97.395 	"/>
	<path style="fill:#42D391;" d="M60.423,106.535l-1.145,2.102l-3.414,1.64l-2.246,0.339l-0.092,0.954l1.576,0.453l-0.193,1.024
		l-1.408,1.361l0.855,1.079l1.699,0.05l-0.098,1.313l-0.449,1.286l-0.146,1.049l2.516,2.116l-0.336,1.1l-3.42-0.064l-3.404-2.972
		l-2.646-4.659l0.369-4.496l-2.008-2.677l0.813-4.532l-1.189-0.336v-9.836c0,0-3.346-2.533-3.535-2.533
		c-0.191,0-1.768-0.427-1.768-0.427l-0.334-1.862l-4.346-5.444l0.43-1.956l0.145-3.2l3.006-2.099l-0.43-3.584l-4.391-0.329
		l-3.44-3.92l-2.434-0.667l-1.576-0.288l0.191-1.433l-2.007-0.285v0.811l-5.015-1.239l-2.016-3.089l0.823-1.494l-3.177-4.635
		l-0.548-3.39h-1.287l0.429,3.293l2.196,3.391l-0.24,1.341l-1.859-0.287l-2.293-3.907v-4.542l-2.388-1.149v-3.271
		C7.245,53.544,5.607,61.145,5.607,69.12c0,31.684,25.775,57.461,57.458,57.461c0.232,0,0.459-0.018,0.689-0.021v-24.287
		L60.423,106.535z"/>
	<path style="fill:#42B191;" d="M116.634,48.376l-2.994,0.048l-1.502-1.647l-0.291-2.647l-1.537,0.836l-0.826,3.241l-2.219-2.363
		l-0.09-2.236l-2.145-1.842l-0.795-0.787h-2.484l0.785,2.215l2.992,1.669l0.521,0.552l-0.648,0.326l0.027,1.752l-1.459,0.609
		l-1.244-0.275l-0.779-1.1l2.023,0.106l0.549-0.735l-4.486-3.025l-0.342-1.289l-1.822,1.648l-1.85-0.379l-2.813,3.654l-0.551,1.431
		l-1.799,0.166l-2.662,0.016l-1.592-0.744l-0.465-3.162l0.57-1.505l2.705-0.594l2.955,0.594l0.359-1.635l-1.256-0.295l0.428-2.547
		l2.973-0.464l2.08-2.938l2.146-0.359l1.938,0.287h0.715l-0.395-2.758l-2.354,0.95l-0.83-2.058l-1.363-0.188l-0.256-1.416
		l1.113-1.213l2.65-1.039l0.684-1.217c-9.969-8.782-22.99-14.173-37.246-14.342v10.584l0.539,0.237v2.051l1.717,0.432l-0.857,1.624
		h-1.398v7.825l0.629,0.385l-0.09,2.009l-0.539,0.184v1.841l1.109,0.505l-0.049,1.386l-0.732,0.061
		c-0.002-0.022-0.01-0.036-0.01-0.036l-0.318-0.101v38.559l0.871,0.335l5.061,0.049l1.484,2.43l2.242,0.719l-0.432,2.009
		l-2.457,3.122L69.806,94.8l-2.219,1.755l-3.293-0.098l-0.539,0.938v3.438l0.252,1.116l-0.252,0.325v24.287
		c17.682-0.212,33.465-8.438,43.875-21.22h-1.896v-3.82l-2.191-2.955v-4.591l-1.674-1.667l-0.146-1.915l2.129-4.058l-4.035-7.114
		l0.477-4.827l-3.627-0.377l-1.334-1.337h-2.439l-1.238,1.144h-4.297l-0.145,0.383h-2.391l-5.488-6.252l0.045-4.871l0.906-0.335
		l0.338-1.863h-1.289l-0.527-1.958l6.352-4.58v-3.248l3.109-1.725l1.258,0.125h2.559l2-1.075l6.447-0.505v3.301l5.086,1.286
		l1.004,0.718h0.932V51.43l2.938-0.285l2.793,2.079h4.582l0.324-0.294C117.731,51.382,117.214,49.864,116.634,48.376z
		 M89.501,32.021l0.525-0.811l1.889-0.38l0.475,2.292l1.006,1.623l0.666,0.766l1.217,0.476l-1.145,1.361l-2.219,0.215h-1.672
		l0.188-1.982l1.389-0.286l-0.117-0.933l-1.295-0.809l-0.906-0.62V32.021z M86.399,35.604l1.148-1.839l1.549-0.358l1.1,0.479
		l-0.096,1.241l-2.363,1.668h-1.338V35.604z"/>
	<path style="fill:#42D391;" d="M63.065,11.662c-12.607,0-24.27,4.092-33.757,11.003l2.896-0.023l1.293,0.715l2.434,0.525
		l0.189,0.957l3.871,0.142l-0.525-1.24l-3.439-0.097l0.809-0.762l-0.283-0.907h-3.104l3.387-2.533h3.248l1.527,2.103l2.533,0.144
		l1.525-1.483l1.15,0.574l-2.105,2.053c0,0-2.91,0.051-2.768,0.051s0.242,2.006,0.242,2.006l3.527-0.099l0.385-0.954l2.432-0.143
		l0.289-1.432l-1.43-0.243l0.473-1.288l1.102-0.331l3.818,0.188l-2.105,1.912l0.338,1.478l2.197,0.335l-0.143-2.672l2.102-1.099
		l3.727-0.432l4.855,2.152V11.677C63.524,11.672,63.298,11.662,63.065,11.662z"/>
	<polygon style="fill:#42D391;" points="62.718,26.604 61.997,28.466 56.431,27.15 60.804,24.821 59.138,23.403 55.362,23.882 
		55.032,24.224 55.019,24.217 54.96,24.3 53.876,25.428 52.079,25.579 52.224,26.474 52.851,26.729 52.827,27.027 51.366,27.235 
		51.257,28.082 49.862,28.156 49.612,26.474 47.104,27.235 41.981,30.232 42.556,32.345 43.989,33.278 46.851,33.673 46.851,36.929 
		48.177,36.713 49.394,34.173 52.44,33.205 52.44,29.302 54.134,28.024 58.228,28.989 57.94,31.57 59.04,31.57 62.05,30.088 
		62.192,33.478 63.755,34.43 63.755,26.604 	"/>
	<path style="fill:#42D391;" d="M60.884,39.777l-0.135-1.025h-0.006l0.936-0.637v-0.937l-1.006-0.25l-0.25,0.86l-1.758,0.271
		l-0.176-0.059v0.088l-0.607,0.091l-0.5-1.002l-0.576-0.25h-1.252l-0.57,0.465v1.037l1.072,0.359l1.059,0.148l-0.236,0.104
		l-0.967,1.071l-0.424-0.536l-0.936-0.245l-2.543,2.391l0.33,0.273l-3.758,2.084l-3.531,3.677l-0.242,1.635l-3.543,2.328
		l-1.756,1.767l0.195,3.531l-2.438-1.135l0.018-2.064h-6.776l-3.51,1.777l-1.524,2.811l-0.604,2.23l0.987,2.159l2.765,0.336
		l4.396-2.941l0.387,1.46l-1.342,2.531l3.344,0.572l0.334,5.168l4.584,0.773l2.912-3.365l3.535,0.72l1.24,1.727l3.393-0.2
		l0.094-1.003l1.863,0.909l2.1,3.294l3.627,0.048l1.336,2.342l0.193,2.861l3.139,1.193V40.662L60.884,39.777z M55.183,42.67
		l-1.195,0.101l0.064-0.831l0.535-0.667l0.719,0.564L55.183,42.67z M59.38,41.202l-0.818,0.07l-0.166,0.789l-0.629,0.394
		l-1.01,0.084c-0.033-0.236-0.057-0.417-0.057-0.417h-0.393v-0.85h1.645l0.344-0.876l0.654-0.015l0.748,0.156L59.38,41.202z"/>
	<polygon style="fill:#61AE46;" points="62.192,37.539 62.337,38.202 63.755,38.848 63.755,37.007 	"/>
</g>
</svg>
