<?xml version="1.0" encoding="utf-8"?>
<!-- Generator: Adobe Illustrator 16.0.0, SVG Export Plug-In . SVG Version: 6.00 Build 0)  -->
<!DOCTYPE svg PUBLIC "-//W3C//DTD SVG 1.1//EN" "http://www.w3.org/Graphics/SVG/1.1/DTD/svg11.dtd">
<svg version="1.1" id="Layer_1" xmlns="http://www.w3.org/2000/svg" xmlns:xlink="http://www.w3.org/1999/xlink" x="0px" y="0px"
	 width="174px" height="213.32px" viewBox="-24.156 -37.812 174 213.32" style="enable-background:new -24.156 -37.812 174 213.32;"
	 xml:space="preserve">
<g>
	<path style="fill:none;" d="M62.844-29.812c-3.791,0-6.875,3.084-6.875,6.875c0,0.214,0.013,0.425,0.032,0.635
		c2.251-0.201,4.533-0.308,6.843-0.308V-29.812z"/>
	<path style="fill:none;" d="M35.439,119.498l23.623,3.447V99.961c-5.172-0.254-10.184-1.035-14.985-2.266L35.439,119.498z"/>
	<path style="fill:#804F2A;" d="M55.969-22.937c0-3.791,3.084-6.875,6.875-6.875v-8c-8.202,0-14.875,6.673-14.875,14.875
		c0,0.604,0.047,1.195,0.117,1.779c2.588-0.512,5.226-0.904,7.915-1.145C55.982-22.512,55.969-22.723,55.969-22.937z"/>
	<path style="fill:#804F2A;" d="M59.062,99.961v22.984l-23.623-3.447l8.638-21.803c-2.617-0.672-5.177-1.465-7.655-2.4
		L6.953,169.688c-0.813,2.055,0.191,4.379,2.245,5.191c0.484,0.191,0.982,0.283,1.473,0.283c1.592,0,3.098-0.957,3.72-2.527
		l18.021-45.494l26.65,3.891v40.477c0,2.135,1.677,3.863,3.782,3.979v-75.428C61.575,100.059,60.315,100.021,59.062,99.961z"/>
	<path style="fill:#FF7845;" d="M60.505,35.851c0.104-0.087,0.203-0.183,0.315-0.259c0.008-0.005,0.016-0.009,0.023-0.014
		c0.082-0.055,0.176-0.095,0.263-0.144c0.128-0.071,0.251-0.151,0.386-0.208c0.02-0.009,0.039-0.014,0.059-0.021
		c0.015-0.006,0.027-0.016,0.042-0.021c0.083-0.033,0.168-0.044,0.251-0.071c0.131-0.042,0.258-0.091,0.392-0.12
		c0.024-0.004,0.049-0.006,0.072-0.011c0.121-0.023,0.241-0.028,0.361-0.041c0.059-0.006,0.117-0.01,0.175-0.016V-8.062
		c-7.599,0-13.875-5.73-14.758-13.096C18.457-15.293-3.952,7.838-5.371,35.896h65.822C60.47,35.881,60.488,35.866,60.505,35.851z"/>
	<path style="fill:#FF7845;" d="M-5.372,41.552c1.226,24.239,18.112,44.811,41.793,53.743l21.29-53.743H-5.372z"/>
	<path style="fill:#FF7845;" d="M56.001-22.302c0.321,3.494,3.266,6.24,6.843,6.24v-6.548C60.535-22.61,58.252-22.503,56.001-22.302
		z"/>
	<path style="fill:#FF7845;" d="M44.077,97.695c4.802,1.23,9.813,2.012,14.985,2.266V59.865L44.077,97.695z"/>
	<path style="fill:#FF7845;" d="M62.844-8.062v-8c-3.577,0-6.521-2.746-6.843-6.24c-2.689,0.24-5.327,0.633-7.915,1.145
		C48.969-13.792,55.246-8.062,62.844-8.062z"/>
	<path style="fill:#FF7845;" d="M59.062,59.865v40.096c1.253,0.061,2.513,0.098,3.782,0.098V41.552h-5.133l-21.29,53.743
		c2.479,0.936,5.038,1.729,7.655,2.4L59.062,59.865z"/>
	<path style="fill:#FF7845;" d="M62.844,34.925c-0.058,0.006-0.116,0.01-0.175,0.016c-0.12,0.013-0.24,0.018-0.361,0.041
		c-0.023,0.005-0.048,0.007-0.072,0.011c-0.134,0.029-0.261,0.078-0.392,0.12c-0.083,0.027-0.168,0.038-0.251,0.071
		c-0.015,0.006-0.027,0.016-0.042,0.021c-0.02,0.008-0.039,0.013-0.059,0.021c-0.135,0.057-0.258,0.137-0.386,0.208
		c-0.087,0.049-0.181,0.089-0.263,0.144c-0.008,0.005-0.016,0.009-0.023,0.014c-0.112,0.076-0.211,0.172-0.315,0.259
		c-0.018,0.015-0.035,0.03-0.054,0.045h2.393V34.925z"/>
	<path style="fill:#804F2A;" d="M-5.371,35.896h-0.08v-3.479h-18.705v12.615h18.705v-3.479h0.079
		c-0.047-0.938-0.079-1.879-0.079-2.827C-5.451,37.776-5.418,36.834-5.371,35.896z"/>
	<path style="fill:#804F2A;" d="M59.343,37.432c0.005-0.013,0.013-0.022,0.019-0.035c0.009-0.022,0.016-0.046,0.025-0.068
		c0.056-0.129,0.133-0.248,0.201-0.371c0.05-0.089,0.091-0.186,0.146-0.27c0.007-0.01,0.013-0.02,0.019-0.029
		c0.072-0.105,0.163-0.199,0.245-0.298c0.077-0.094,0.147-0.194,0.231-0.279c0.004-0.004,0.008-0.007,0.011-0.01
		c0.064-0.064,0.139-0.119,0.211-0.176H-5.371c-0.048,0.938-0.08,1.88-0.08,2.829c0,0.948,0.032,1.89,0.079,2.827h63.083
		L59.343,37.432z"/>
	<path style="fill:#804F2A;" d="M60.452,35.896c-0.072,0.057-0.146,0.111-0.211,0.176c-0.003,0.003-0.007,0.006-0.011,0.01
		c-0.084,0.085-0.154,0.186-0.231,0.279c-0.082,0.099-0.173,0.192-0.245,0.298c-0.006,0.01-0.012,0.02-0.019,0.029
		c-0.056,0.084-0.097,0.181-0.146,0.27c-0.068,0.123-0.146,0.242-0.201,0.371c-0.01,0.022-0.017,0.046-0.025,0.068
		c-0.006,0.013-0.014,0.022-0.019,0.035l-1.632,4.12h5.133v-5.656H60.452z"/>
	<path style="fill:#804F2A;" d="M62.844,175.508h0.218c-0.074,0-0.145-0.018-0.218-0.021V175.508z"/>
	<path style="fill:#673E20;" d="M69.719-22.937c0,0.214-0.012,0.425-0.031,0.635c2.689,0.24,5.326,0.633,7.914,1.145
		c0.07-0.584,0.117-1.176,0.117-1.779c0-8.202-6.672-14.875-14.875-14.875v8C66.635-29.812,69.719-26.728,69.719-22.937z"/>
	<path style="fill:#673E20;" d="M67.063,171.508v-40.479l26.521-3.885l17.979,45.555c0.621,1.572,2.127,2.531,3.723,2.531
		c0.488,0,0.984-0.09,1.467-0.279c2.055-0.811,3.063-3.135,2.252-5.189L89.572,95.18c-2.475,0.947-5.029,1.752-7.641,2.434
		l8.637,21.887l-23.506,3.443V99.932c-1.396,0.076-2.801,0.127-4.218,0.127v75.428c0.073,0.004,0.144,0.021,0.218,0.021
		C65.271,175.508,67.063,173.717,67.063,171.508z"/>
	<path style="fill:#EF3522;" d="M77.602-21.158c-2.588-0.512-5.225-0.904-7.914-1.145c-2.252-0.201-4.533-0.308-6.843-0.308v6.548v8
		v42.987c0.061-0.007,0.122-0.016,0.184-0.017c0.012,0,0.022-0.003,0.034-0.003c0.011,0,0.021,0.003,0.032,0.003
		c0.134,0.002,0.265,0.021,0.396,0.036c0.107,0.012,0.215,0.016,0.322,0.036c0.025,0.006,0.051,0.007,0.076,0.012
		c0.145,0.031,0.283,0.084,0.426,0.131c0.074,0.025,0.148,0.035,0.221,0.063c0.014,0.005,0.023,0.013,0.035,0.019
		c0.021,0.008,0.043,0.014,0.063,0.021c0.145,0.063,0.279,0.146,0.416,0.226c0.076,0.044,0.158,0.077,0.229,0.125
		c0.01,0.006,0.02,0.011,0.027,0.017c0.123,0.083,0.23,0.186,0.344,0.283c0.008,0.006,0.016,0.013,0.023,0.019h65.387
		C129.641,7.838,107.232-15.293,77.602-21.158z"/>
	<path style="fill:#804F2A;" d="M65.672,35.896c-0.008-0.006-0.016-0.013-0.023-0.019c-0.113-0.098-0.221-0.2-0.344-0.283
		c-0.008-0.006-0.018-0.011-0.027-0.017c-0.07-0.048-0.152-0.081-0.229-0.125c-0.137-0.079-0.271-0.163-0.416-0.226
		c-0.02-0.008-0.041-0.014-0.063-0.021c-0.012-0.006-0.021-0.014-0.035-0.019c-0.072-0.028-0.146-0.038-0.221-0.063
		c-0.143-0.047-0.281-0.1-0.426-0.131c-0.025-0.005-0.051-0.006-0.076-0.012c-0.107-0.021-0.215-0.024-0.322-0.036
		c-0.131-0.015-0.262-0.034-0.396-0.036c-0.011,0-0.021-0.003-0.032-0.003c-0.012,0-0.022,0.003-0.034,0.003
		c-0.062,0.001-0.123,0.01-0.184,0.017v0.971H65.672z"/>
	<path style="fill:#EF3522;" d="M68.406,41.552h-5.562v58.506c1.417,0,2.822-0.051,4.218-0.127
		c5.131-0.281,10.105-1.076,14.869-2.318c2.611-0.682,5.166-1.486,7.641-2.434c23.52-8.992,40.268-29.492,41.488-53.627H68.406z"/>
	<polygon style="fill:#673E20;" points="131.139,32.417 131.139,35.896 131.059,35.896 65.672,35.896 62.844,35.896 62.844,41.552 
		68.406,41.552 131.061,41.552 131.139,41.552 131.139,45.032 149.844,45.032 149.844,32.417 	"/>
</g>
</svg>
