<?xml version="1.0" encoding="utf-8"?>
<!-- Generator: Adobe Illustrator 16.0.0, SVG Export Plug-In . SVG Version: 6.00 Build 0)  -->
<!DOCTYPE svg PUBLIC "-//W3C//DTD SVG 1.1//EN" "http://www.w3.org/Graphics/SVG/1.1/DTD/svg11.dtd">
<svg version="1.1" id="Layer_1" xmlns="http://www.w3.org/2000/svg" xmlns:xlink="http://www.w3.org/1999/xlink" x="0px" y="0px"
	 width="141.082px" height="121.402px" viewBox="0 0 141.082 121.402" style="enable-background:new 0 0 141.082 121.402;"
	 xml:space="preserve">
<g>
	<g>
		<polygon style="fill:#67564F;" points="70.541,7.816 64.982,0 60.469,8.461 53.945,1.43 50.586,10.412 43.174,4.325 
			41.092,13.686 32.887,8.718 32.205,18.282 23.338,14.628 24.195,24.177 14.842,22.068 17.381,31.31 7.799,30.995 12.123,39.545 
			2.691,41.25 8.791,48.638 0,52.451 7.652,58.216 0,63.982 8.789,67.796 2.691,75.184 12.123,76.889 7.801,85.44 17.383,85.125 
			14.846,94.367 24.199,92.257 23.342,101.805 32.207,98.151 32.889,107.715 41.09,102.745 43.172,112.105 50.584,106.019 
			53.941,115.002 60.463,107.971 64.98,116.432 70.541,108.615 70.813,108.998 70.813,7.434 		"/>
		<polygon style="fill:#8C8281;" points="80.613,107.971 87.139,115.002 90.494,106.019 97.906,112.106 99.988,102.746 
			108.193,107.714 108.875,98.149 117.74,101.803 116.883,92.256 126.238,94.363 123.699,85.122 133.281,85.438 128.959,76.886 
			138.391,75.182 132.291,67.794 141.08,63.98 133.428,58.216 141.082,52.45 132.291,48.636 138.389,41.248 128.959,39.543 
			133.281,30.991 123.699,31.307 126.234,22.063 116.883,24.175 117.74,14.627 108.873,18.28 108.193,8.718 99.99,13.687 
			97.91,4.326 90.496,10.413 87.139,1.43 80.617,8.461 76.102,0 70.813,7.434 70.813,108.998 76.1,116.432 		"/>
	</g>
	<g>
		<g>
			<g>
				<g>
					<path style="fill:#D5D2B1;" d="M27.959,81.072c0,16.374,19.205,29.646,42.895,29.646V51.425
						C47.164,51.425,27.959,64.7,27.959,81.072z"/>
				</g>
			</g>
			<g>
				<g>
					<path style="fill:#F6F3CF;" d="M113.744,81.072c0-16.372-19.205-29.647-42.891-29.647v59.294
						C94.539,110.719,113.744,97.446,113.744,81.072z"/>
				</g>
			</g>
		</g>
		<g>
			<g>
				<path style="fill:#D5D2B1;" d="M70.678,37.22c-24.193,0-41.809,13.273-41.809,29.646c0,16.372,17.615,32.702,41.809,32.702
					s41.811-16.33,41.811-32.702C112.488,50.493,94.871,37.22,70.678,37.22z"/>
			</g>
		</g>
		<g>
			<g>
				<g>
					<rect x="50.496" y="103.47" style="fill:#D5D2B1;" width="14.879" height="12.972"/>
				</g>
			</g>
			<g>
				<g>
					<path style="fill:#8E6451;" d="M69.574,121.402c0-6.428-5.209-11.637-11.637-11.637s-11.641,5.209-11.641,11.637H69.574z"/>
				</g>
			</g>
			<g>
				<g>
					<rect x="76.248" y="103.47" style="fill:#F6F3CF;" width="14.881" height="12.972"/>
				</g>
			</g>
			<g>
				<g>
					<path style="fill:#B68472;" d="M95.326,121.402c0-6.428-5.209-11.637-11.639-11.637c-6.426,0-11.637,5.209-11.637,11.637
						H95.326z"/>
				</g>
			</g>
		</g>
	</g>
	<g>
		<g>
			<g>
				<g>
					<g>
						<path style="fill:#4B190D;" d="M54.498,27.937c0.109-0.043,0.213-0.082,0.318-0.125
							C54.707,27.853,54.607,27.896,54.498,27.937z"/>
					</g>
				</g>
			</g>
			<g>
				<g>
					<g>
						<path style="fill:#4B190D;" d="M86.078,27.812c0.098,0.043,0.203,0.08,0.303,0.121C86.277,27.894,86.182,27.851,86.078,27.812
							z"/>
					</g>
				</g>
			</g>
		</g>
		<g>
			<path style="fill:#8E6451;" d="M23.457,44.583c-3.309,5.881-0.77,17.021,4.436,19.948c5.205,2.928,12.107,0.534,15.414-5.347
				c3.307-5.882,1.77-13.021-3.436-15.948C34.664,40.309,26.764,38.702,23.457,44.583z"/>
			<path style="fill:#8E6451;" d="M117.625,44.583c3.309,5.881,0.77,17.021-4.436,19.948c-5.205,2.928-12.107,0.534-15.414-5.347
				c-3.307-5.882-1.77-13.021,3.436-15.948S114.318,38.704,117.625,44.583z"/>
		</g>
		<g>
			<g>
				<g>
					<g>
						<path style="fill:#F6F3CF;" d="M115.354,69.914c-2.629-10.016-8.627-21.248-8.627-21.248
							c-7.92-15.435-30.398-15.66-36.186-15.66v25.21v11.335c0.01,0,0.02,0.001,0.029,0.001c-0.01,0-0.02,0-0.029,0v24.23
							c0.037,0,0.07,0.003,0.107,0.003C104.063,93.785,115.354,69.914,115.354,69.914z"/>
					</g>
				</g>
			</g>
			<g>
				<g>
					<g>
						<path style="fill:#D5D2B1;" d="M34.355,48.666c0,0-7.131,15.258-8.627,21.248c0,0,12.834,23.868,44.813,23.868v-24.23
							c-0.027,0-0.053,0.001-0.078,0.001c0.025,0,0.051-0.002,0.078-0.002V58.216v-25.21C64.754,33.006,45.6,30.231,34.355,48.666z"
							/>
					</g>
				</g>
			</g>
		</g>
		<path style="fill:#B68472;" d="M100.963,64.537l-10.635-6.116l-19.799,5.526l-19.797-5.526l-10.635,6.116l-4.941,6.857
			c13.984,15.685,32.881,14.944,35.373,14.772c2.494,0.172,21.389,0.912,35.375-14.772L100.963,64.537z"/>
		<ellipse style="fill:#3C3C3B;" cx="70.813" cy="80.984" rx="6.99" ry="5.16"/>
		<g>
			<g>
				<g>
					<g>
						<path style="fill:#3C3C3B;" d="M54.086,68.425c0,0-8.555,2.65-11.432,0.419c-2.879-2.232-3.404-6.373-1.176-9.25
							c2.234-2.88,6.377-3.405,9.254-1.173C53.611,60.651,54.086,68.425,54.086,68.425z"/>
					</g>
				</g>
			</g>
			<g>
				<g>
					<circle style="fill:#FFFFFF;" cx="47.287" cy="61.925" r="2.027"/>
				</g>
			</g>
			<g>
				<g>
					<g>
						<g>
							<path style="fill:#3C3C3B;" d="M86.994,68.425c0,0,8.555,2.65,11.434,0.419c2.879-2.232,3.404-6.373,1.174-9.25
								c-2.232-2.88-6.375-3.405-9.254-1.173C87.469,60.651,86.994,68.425,86.994,68.425z"/>
						</g>
					</g>
				</g>
				<g>
					<g>
						<circle style="fill:#FFFFFF;" cx="97.558" cy="61.925" r="2.026"/>
					</g>
				</g>
			</g>
		</g>
	</g>
</g>
</svg>
