<?xml version="1.0" encoding="utf-8"?>
<!-- Generator: Adobe Illustrator 16.0.0, SVG Export Plug-In . SVG Version: 6.00 Build 0)  -->
<!DOCTYPE svg PUBLIC "-//W3C//DTD SVG 1.1//EN" "http://www.w3.org/Graphics/SVG/1.1/DTD/svg11.dtd">
<svg version="1.1" id="Layer_1" xmlns="http://www.w3.org/2000/svg" xmlns:xlink="http://www.w3.org/1999/xlink" x="0px" y="0px"
	 width="249.329px" height="182.073px" viewBox="-112.161 -33.075 249.329 182.073"
	 style="enable-background:new -112.161 -33.075 249.329 182.073;" xml:space="preserve">
<g>
	<path style="fill:#F36E5C;" d="M20.767-33.075h102.239c3.07,0,5.563,2.489,5.563,5.563c0,3.073-2.492,5.562-5.563,5.562H77.281
		v32.816c0,2.764-2.244,5.007-5.008,5.007s-5.006-2.243-5.006-5.007v-32.816H20.767c-3.072,0-5.562-2.489-5.562-5.562
		C15.205-30.586,17.695-33.075,20.767-33.075z"/>
	<path style="fill:#6E6D62;" d="M101.014,143.992c0,2.763,2.241,5.006,5.007,5.006l0,0c2.763,0,5.004-2.243,5.004-5.006V99.494
		c0-2.765-2.241-5.008-5.004-5.008l0,0c-2.766,0-5.007,2.243-5.007,5.008V143.992z"/>
	<path style="fill:#6E6D62;" d="M37.046,143.992c0,2.763,2.242,5.006,5.007,5.006l0,0c2.764,0,5.006-2.243,5.006-5.006V99.494
		c0-2.765-2.242-5.008-5.006-5.008l0,0c-2.766,0-5.007,2.243-5.007,5.008V143.992z"/>
	<path style="fill:#786872;" d="M-85.181,67.397l0.509-2.158c1.408-5.981,7.399-9.685,13.378-8.277l79.8,15.215
		c-1.213-4.973-1.87-10.165-1.87-15.513c0-36.048,29.222-65.268,65.268-65.268c36.045,0,65.265,29.22,65.265,65.268
		c0,36.046-29.22,65.266-65.265,65.266c-11.485,0-22.269-2.975-31.642-8.181L-76.902,80.776
		C-82.885,79.37-86.589,73.377-85.181,67.397z"/>
	<path style="fill:#F36E5C;" d="M15.205,143.436c0,3.073,2.49,5.563,5.562,5.563h108.547c3.068,0,5.561-2.489,5.561-5.563l0,0
		c0-3.073-2.492-5.563-5.561-5.563H20.767C17.695,137.873,15.205,140.362,15.205,143.436L15.205,143.436z"/>
	<g>
		<path style="fill:#B8E152;" d="M-112.161,65.239c0,15.158,12.33,27.488,27.489,27.488c15.156,0,27.487-12.33,27.487-27.488
			s-12.331-27.487-27.487-27.487C-99.831,37.751-112.161,50.081-112.161,65.239z M-107.71,65.239
			c0-12.705,10.335-23.039,23.039-23.039c12.702,0,23.037,10.334,23.037,23.039c0,12.707-10.335,23.039-23.037,23.039
			C-97.375,88.277-107.71,77.945-107.71,65.239z"/>
		<path style="fill:#B8E152;" d="M-69.278,65.239v-0.082l2.974,0.082c0,10.054-8.182,18.296-18.236,18.367l-0.021-2.972
			C-76.134,80.572-69.278,73.665-69.278,65.239z"/>
		<path style="fill:#B8E152;" d="M-84.718,46.87l0.007,2.974c-8.467,0.021-15.356,6.928-15.356,15.395v0.166l-2.974-0.166
			C-103.041,55.136-94.819,46.896-84.718,46.87z"/>
		<path style="fill:#B8E152;" d="M-84.744,52.86l0.016,2.972c-5.156,0.031-9.35,4.25-9.35,9.407c0,5.186,4.22,9.407,9.327,9.409
			l0.205-0.003l-0.126,2.972c-6.826,0-12.377-5.551-12.377-12.377C-97.049,58.455-91.529,52.901-84.744,52.86z"/>
	</g>
	<path style="fill:#6DC0CF;" d="M71.887-8.604c0.006,0,0.009,0,0.017,0c36.045,0,65.265,29.22,65.265,65.268
		c0,2.88-0.208,5.71-0.566,8.494H71.887V-8.604z"/>
	<path style="fill:#FFFFFF;" d="M92.342,5.781c-3.494,4.221-0.873,12.158,5.857,17.735c6.729,5.571,15.02,6.671,18.516,2.45
		s0.873-12.161-5.858-17.733C104.126,2.658,95.838,1.56,92.342,5.781z"/>
</g>
</svg>
