<?xml version="1.0" encoding="utf-8"?>
<!-- Generator: Adobe Illustrator 16.0.0, SVG Export Plug-In . SVG Version: 6.00 Build 0)  -->
<!DOCTYPE svg PUBLIC "-//W3C//DTD SVG 1.1//EN" "http://www.w3.org/Graphics/SVG/1.1/DTD/svg11.dtd">
<svg version="1.1" id="Layer_1" xmlns="http://www.w3.org/2000/svg" xmlns:xlink="http://www.w3.org/1999/xlink" x="0px" y="0px"
	 width="89.699px" height="163.111px" viewBox="0 0 89.699 163.111" style="enable-background:new 0 0 89.699 163.111;"
	 xml:space="preserve">
<g>
	<path style="fill:#A53302;" d="M51.857,109.176c0,0-6.16-35.144,2.502-42.138c19.82-16.004,20.428-52.319-5.125-63.764
		c-9.441-4.229-20.205-4.843-29.318,1.035C12.139,9.326,4.469,17.892,5.938,27.843C17.324,15.618,35.082,5.097,49.994,17.154
		c15.129,12.235,9.543,29.451-4.676,40.273c-15.697,11.944-1.037,56.218-1.037,56.218L51.857,109.176z"/>
	<g>
		<path style="fill:#DC6B08;" d="M82.83,135.963c0-22.185-14.754-40.336-32.789-40.336H39.654
			c-18.033,0-32.787,18.152-32.787,40.336v16.206H82.83V135.963z"/>
		<rect y="149.255" style="fill:#A53302;" width="89.699" height="13.855"/>
	</g>
</g>
</svg>
