<?xml version="1.0" encoding="utf-8"?>
<!-- Generator: Adobe Illustrator 16.0.0, SVG Export Plug-In . SVG Version: 6.00 Build 0)  -->
<!DOCTYPE svg PUBLIC "-//W3C//DTD SVG 1.1//EN" "http://www.w3.org/Graphics/SVG/1.1/DTD/svg11.dtd">
<svg version="1.1" id="Layer_1" xmlns="http://www.w3.org/2000/svg" xmlns:xlink="http://www.w3.org/1999/xlink" x="0px" y="0px"
	 width="91.175px" height="143.846px" viewBox="0 0 91.175 143.846" enable-background="new 0 0 91.175 143.846"
	 xml:space="preserve">
<g>
	<g>
		<g>
			<g>
				<path fill="#3C3C3B" d="M0,118.891c1.743-0.777,6.813-3.018,12.962,0.096c2.709,1.375,4.238,2.551,5.386,3.449
					c1.139,0.92,3.236,3.176,4.102,4.883c-1.743,0.785-2.032,1.113-4.261,1.828c-1.39,0.443-3.442,0.641-4.744,0.182
					c-1.302-0.463-2.693-0.99-4.392-2.473C7.911,125.93,3.498,119.721,0,118.891z"/>
			</g>
		</g>
		<g>
			<g>
				<g>
					<path fill="#82402A" d="M21.189,128.576c-0.791,0-1.612-0.064-2.467-0.205c-1.683-0.27-2.827-1.855-2.554-3.537
						c0.271-1.682,1.855-2.826,3.539-2.557c9.967,1.604,13.842-15.32,13.879-15.492c0.371-1.662,2.018-2.715,3.685-2.342
						c1.664,0.371,2.713,2.02,2.342,3.684C39.418,109.008,34.893,128.576,21.189,128.576z"/>
				</g>
			</g>
		</g>
	</g>
	<g>
		<g>
			<g>
				<g>
					<path fill="#AF5B2B" d="M70.346,28.768c0,0-2.633-12.794,0.622-26.594c0,0,1.213-5.02,3.789,0.501
						c2.578,5.521,9.419,21.001,4.834,32.782L70.346,28.768z"/>
				</g>
			</g>
			<g>
				<g>
					<path fill="#D76C79" d="M72.608,27.404c0,0-1.434-8.744-0.507-19.67c0,0,0.676-5.613,2.237-1.686
						c3.581,9.015,5.789,19.947,3.741,25.551L72.608,27.404z"/>
				</g>
			</g>
		</g>
		<g>
			<g>
				<g>
					<path fill="#82402A" d="M41.489,28.768c0,0,3.673-12.535,1.559-26.555c0,0-0.797-5.102-3.818,0.188
						c-3.022,5.291-11.105,20.158-7.503,32.275L41.489,28.768z"/>
				</g>
			</g>
			<g>
				<g>
					<path fill="#D76C79" d="M39.348,27.223c0,0,2.144-8.6,2.114-19.562c0,0-0.214-5.648-2.092-1.862
						c-4.308,8.689-7.365,19.414-5.783,25.17L39.348,27.223z"/>
				</g>
			</g>
		</g>
	</g>
	<g>
		<g>
			<g>
				<g opacity="0.39">
					<g>
						<path fill="#C6CCD6" d="M56.012,114.549c13.154,0,24.246-6.67,27.791-15.805c-3.545-12.213-14.637-18.889-27.791-18.889
							c-13.157,0-24.249,6.676-27.79,18.889C31.763,107.879,42.854,114.549,56.012,114.549z"/>
					</g>
				</g>
				<g>
					<g>
						<path fill="#82402A" d="M56.012,114.549c13.154,0,24.246-6.67,27.791-15.805c-3.545-12.213-14.637-18.889-27.791-18.889
							c-13.157,0-24.249,6.676-27.79,18.889C31.763,107.879,42.854,114.549,56.012,114.549z"/>
					</g>
				</g>
				<g>
					<g>
						<path fill="#82402A" d="M28.222,98.744c-0.771,2.65-1.2,5.551-1.2,8.713c0,12.178,7.528,22.049,28.99,22.049v-14.957
							C42.854,114.549,31.763,107.879,28.222,98.744z"/>
					</g>
				</g>
				<g>
					<g>
						<path fill="#AF5B2B" d="M83.734,98.744c0.77,2.65,1.197,5.551,1.197,8.713c0,12.178-7.361,22.666-28.988,22.049v-14.957
							C69.1,114.549,80.191,107.879,83.734,98.744z"/>
					</g>
				</g>
			</g>
		</g>
		<g>
			<g>
				<g>
					<rect x="38.428" y="121.797" fill="#82402A" width="12.076" height="16.652"/>
				</g>
			</g>
			<g>
				<g>
					<rect x="61.518" y="121.797" fill="#AF5B2B" width="12.079" height="16.652"/>
				</g>
			</g>
			<g>
				<g>
					<g>
						<path fill="#3C3C3B" d="M44.34,140.605c0.51,0,0.925,0.416,0.925,0.928v2.313h9.714c0-5.807-4.706-10.512-10.514-10.512
							c-5.804,0-10.512,4.705-10.512,10.512h9.461v-2.313C43.414,141.021,43.826,140.605,44.34,140.605z"/>
					</g>
				</g>
			</g>
			<g>
				<g>
					<g>
						<path fill="#3C3C3B" d="M67.427,140.605c0.513,0,0.928,0.416,0.928,0.928v2.313h9.713c0-5.807-4.706-10.512-10.512-10.512
							s-10.51,4.705-10.51,10.512h9.458v-2.313C66.504,141.021,66.916,140.605,67.427,140.605z"/>
					</g>
				</g>
			</g>
		</g>
	</g>
	<g>
		<path fill="#82402A" d="M62.486,26.373c0,1.285-0.889,2.326-1.982,2.326h-9.032c-1.095,0-1.983-1.041-1.983-2.326L47.23,4.178
			c0-1.285,0.889-2.325,1.983-2.325h13.548c1.095,0,1.982,1.04,1.982,2.325L62.486,26.373z"/>
		<g>
			<g>
				<g>
					<path fill="#82402A" d="M24.237,72.701c0.533,2.871,1.838,8.57,1.838,8.57c2.465,13.568,14.413,24.055,29.912,24.055V19.412
						c-20.465,0-35.208,14.221-35.208,31.764C20.779,59.494,22.778,64.826,24.237,72.701z"/>
				</g>
			</g>
			<g>
				<g>
					<g>
						<path fill="#AF5B2B" d="M87.718,72.701c-0.531,2.871-1.836,8.57-1.836,8.57c-2.467,13.568-14.413,24.055-29.915,24.055V19.412
							c20.467,0,35.208,14.221,35.208,31.764C91.175,59.494,89.177,64.826,87.718,72.701z"/>
					</g>
				</g>
			</g>
		</g>
		<g>
			<g>
				<g>
					<path fill="#F5C799" d="M46.798,51.018c0,3.725-2.332,6.654-6.652,6.654c-3.673,0-6.652-2.979-6.652-6.654
						c0-3.674,2.979-6.65,6.652-6.65C43.822,44.367,46.798,47.342,46.798,51.018z"/>
				</g>
			</g>
		</g>
		<g>
			<g>
				<g>
					<circle fill="#F5C799" cx="73.838" cy="51.018" r="6.652"/>
				</g>
			</g>
		</g>
		<g>
			<g>
				<g>
					<circle fill="#3C3C3B" cx="40.145" cy="51.018" r="3.723"/>
				</g>
			</g>
		</g>
		<g>
			<g>
				<g>
					<circle fill="#3C3C3B" cx="73.838" cy="51.018" r="3.723"/>
				</g>
			</g>
		</g>
		<g>
			<g>
				<circle fill="#FFFFFF" cx="41.517" cy="49.836" r="1.315"/>
			</g>
		</g>
		<g>
			<g>
				<circle fill="#FFFFFF" cx="75.153" cy="49.836" r="1.315"/>
			</g>
		</g>
		<g>
			<g>
				<g>
					<path fill="#F5C799" d="M82.341,92.979c0,9.479-11.747,17.164-26.234,17.164c-14.489,0-26.236-7.686-26.236-17.164
						c0-9.482,11.747-17.164,26.236-17.164C70.594,75.814,82.341,83.496,82.341,92.979z"/>
				</g>
			</g>
			<g>
				<g>
					<g>
						<path fill="#3C3C3B" d="M50.526,89.885c0,2.709-2.195,4.906-4.909,4.906c-2.706,0-4.901-2.197-4.901-4.906
							c0-2.711,2.195-4.904,4.901-4.904C48.331,84.98,50.526,87.174,50.526,89.885z"/>
					</g>
				</g>
				<g>
					<g>
						<path fill="#3C3C3B" d="M71.495,89.885c0,2.709-2.196,4.906-4.907,4.906c-2.706,0-4.905-2.197-4.905-4.906
							c0-2.711,2.199-4.904,4.905-4.904C69.299,84.98,71.495,87.174,71.495,89.885z"/>
					</g>
				</g>
			</g>
			<g>
				<g>
					<g>
						<path fill="#F6E9E5" d="M50.729,106.367c0,2.33,1.069,2.287,2.461,2.459l0,0c1.543,0.105,2.462,0.109,2.462-2.459v-1.566
							c0,0.264-4.923-0.363-4.923-0.363V106.367z"/>
					</g>
				</g>
				<g>
					<g>
						<path fill="#F6E9E5" d="M61.481,106.367c0,2.33-1.071,2.287-2.462,2.459l0,0c-1.542,0.105-2.461,0.109-2.461-2.459v-1.566
							c0,0.264,4.923-0.363,4.923-0.363V106.367z"/>
					</g>
				</g>
			</g>
			<g>
				<g>
					<g>
						<path fill="#3C3C3B" d="M56.472,105.807c-11.035,0-18.747-5.736-19.068-5.979c-0.247-0.188-0.296-0.539-0.11-0.783
							c0.186-0.248,0.536-0.295,0.783-0.109c0.075,0.057,7.751,5.754,18.396,5.754c10.623,0,17.573-5.68,17.643-5.736
							c0.236-0.197,0.588-0.168,0.787,0.07c0.198,0.238,0.165,0.59-0.07,0.787C74.538,100.055,67.518,105.807,56.472,105.807z"/>
					</g>
				</g>
			</g>
		</g>
		<g>
			<g>
				<path fill="#82402A" d="M49.433,15.234c4.368,0.813,7.967,2.258,11.21,3.416c0.796,0.293,1.571,0.539,2.231,0.738
					c0.353,0.107,0.618,0.125,0.934,0.215l1.273,0.352c1.84,0.521,4.068,1.422,6.068,2.736c4.095,2.639,6.9,6.689,8.295,10.715
					c1.395,4.082,1.726,8.283,0.598,12.621c-3.545-2.729-6.111-5.469-8.584-7.791c-2.449-2.359-4.6-4.166-6.803-5.611
					c-1.13-0.746-2.314-1.41-3.922-2.313l-1.31-0.746c-0.538-0.293-1.113-0.688-1.575-1.035c-0.975-0.703-1.778-1.469-2.517-2.246
					C52.462,23.137,50.434,19.615,49.433,15.234z"/>
			</g>
		</g>
	</g>
</g>
</svg>
