<?xml version="1.0" encoding="utf-8"?>
<!-- Generator: Adobe Illustrator 16.0.0, SVG Export Plug-In . SVG Version: 6.00 Build 0)  -->
<!DOCTYPE svg PUBLIC "-//W3C//DTD SVG 1.1//EN" "http://www.w3.org/Graphics/SVG/1.1/DTD/svg11.dtd">
<svg version="1.1" id="Layer_1" xmlns="http://www.w3.org/2000/svg" xmlns:xlink="http://www.w3.org/1999/xlink" x="0px" y="0px"
	 width="198.845px" height="94.03px" viewBox="-36.399 21.869 198.845 94.03"
	 style="enable-background:new -36.399 21.869 198.845 94.03;" xml:space="preserve">
<g>
	<path style="fill:#FFFE9A;" d="M-8.296,30.891c1.224,0.544,2.411,1.218,3.542,2.027c0.177,0.125,3.641,2.555,9.348,5.825
		c2.344-0.301,4.729-0.251,6.933,0.779c2.284,1.07,3.766,3.168,5.036,5.461c3.681,1.736,7.718,3.467,12,5.058
		c2.695-1.039,5.595-1.874,8.399-1.129c3.037,0.806,5.174,3.284,7.187,5.816c3.354,0.758,6.774,1.353,10.225,1.743
		c2.712-1.954,5.528-3.885,8.806-3.885v-2.688c-26.26,0-43.287-14.739-48.088-19.483c-3.662-5.166-9.675-8.547-16.488-8.547
		c-4.388,0-8.437,1.413-11.75,3.787c0.394,0.107,0.777,0.274,1.128,0.526C-9.995,27.638-8.912,29.283-8.296,30.891z"/>
	<path style="fill:#FF7845;" d="M-16.86,55.076c-2.961-3.513-4.753-8.039-4.753-12.992c0-4.611,1.562-8.848,4.161-12.249
		c-0.049-0.203-0.078-0.407-0.09-0.615c-5.813,0.336-11.431,3.188-15.095,8.284c-6.448,8.968-4.405,21.466,4.563,27.914
		c0.388,0.279,2.692,1.917,6.535,4.311c-0.044-0.543-0.074-1.09-0.074-1.645C-21.613,63.126-19.822,58.591-16.86,55.076z"/>
	<path style="fill:#FF7845;" d="M-1.398,47.869c6.813,0,12.826,3.381,16.488,8.547c4.801,4.744,21.828,19.483,48.088,19.483V59.587
		c-1.165,0-3.338,1.569-5.084,2.83c-2.979,2.151-6.362,4.59-10.181,4.041c-3.864-0.557-6.464-3.853-8.758-6.76
		c-1.247-1.581-2.955-3.745-3.99-4.021c-1.186-0.317-3.744,0.734-5.799,1.579c-3.301,1.355-7.045,2.889-10.505,1.604
		c-3.748-1.393-5.684-5.18-7.392-8.521c-0.833-1.629-2.092-4.092-2.914-4.478c-1.413-0.66-4.238-0.025-6.73,0.535
		c-3.408,0.767-6.93,1.558-9.821-0.074c-5.633-3.179-6.085-7.521-6.384-10.394c-0.236-2.267-0.386-3.1-1.727-4.063
		c-0.711-0.511-1.158-1.242-1.346-2.031c-2.6,3.401-4.161,7.638-4.161,12.249c0,4.953,1.792,9.479,4.753,12.992
		C-13.152,50.672-7.605,47.869-1.398,47.869z"/>
	<path style="fill:#FF7845;" d="M-4.556,40.227c0.691,0.278,3.29-0.31,4.846-0.659c1.382-0.311,2.835-0.637,4.304-0.824
		c-5.707-3.271-9.171-5.7-9.348-5.825c-1.131-0.81-2.318-1.483-3.542-2.027c0.587,1.536,0.747,3.04,0.879,4.313
		C-7.159,37.69-7.041,38.825-4.556,40.227z"/>
	<path style="fill:#FF7845;" d="M48.912,59.531c0.994,0.147,3.465-1.619,5.085-2.788c0.125-0.09,0.251-0.18,0.376-0.271
		c-3.45-0.391-6.87-0.985-10.225-1.743c0.168,0.212,0.336,0.423,0.503,0.634C45.986,57.055,47.814,59.373,48.912,59.531z"/>
	<path style="fill:#FF7845;" d="M21.299,52.298c0.894,0.33,3.613-0.78,5.408-1.517c0.603-0.247,1.225-0.498,1.854-0.74
		c-4.282-1.591-8.319-3.321-12-5.058c0.395,0.713,0.771,1.443,1.142,2.17C18.774,49.249,20.107,51.856,21.299,52.298z"/>
	<path style="fill:#FF9F00;" d="M-13.148,25.656c-1.368-0.371-2.881,0.105-3.757,1.325c-0.486,0.677-0.681,1.466-0.637,2.238
		c0.187-0.011,0.374-0.006,0.561-0.011C-15.868,27.861-14.571,26.675-13.148,25.656z"/>
	<path style="fill:#FF9F00;" d="M11.526,39.523c-2.204-1.03-4.589-1.08-6.933-0.779c3.304,1.893,7.36,4.066,11.969,6.24
		C15.292,42.691,13.81,40.593,11.526,39.523z"/>
	<path style="fill:#FF9F00;" d="M36.961,48.913c-2.805-0.745-5.704,0.09-8.399,1.129c4.92,1.827,10.163,3.464,15.586,4.688
		C42.135,52.197,39.999,49.718,36.961,48.913z"/>
	<path style="fill:#FF9F00;" d="M63.178,52.587c-3.277,0-6.094,1.931-8.806,3.885c2.922,0.332,5.863,0.522,8.806,0.522V52.587z"/>
	<path style="fill:#FF9F00;" d="M-16.981,29.208c2.935-0.088,5.903,0.447,8.685,1.683c-0.615-1.608-1.698-3.253-3.724-4.709
		c-0.351-0.252-0.734-0.419-1.128-0.526C-14.571,26.675-15.868,27.861-16.981,29.208z"/>
	<path style="fill:#FF9F00;" d="M-16.981,29.208c-0.187,0.005-0.374,0-0.561,0.011c0.012,0.208,0.041,0.412,0.09,0.615
		C-17.293,29.626-17.147,29.41-16.981,29.208z"/>
	<path style="fill:#FF9F00;" d="M-16.106,31.866c1.341,0.964,1.49,1.797,1.727,4.063c0.299,2.873,0.751,7.215,6.384,10.394
		c2.892,1.632,6.413,0.841,9.821,0.074c2.492-0.561,5.317-1.195,6.73-0.535c0.822,0.386,2.081,2.849,2.914,4.478
		c1.708,3.342,3.644,7.129,7.392,8.521c3.46,1.285,7.204-0.248,10.505-1.604c2.055-0.845,4.613-1.896,5.799-1.579
		c1.035,0.275,2.743,2.439,3.99,4.021c2.294,2.907,4.894,6.203,8.758,6.76c3.818,0.549,7.201-1.89,10.181-4.041
		c1.746-1.261,3.919-2.83,5.084-2.83v-2.593c-2.942,0-5.884-0.19-8.806-0.522c-0.125,0.091-0.251,0.181-0.376,0.271
		c-1.62,1.169-4.091,2.936-5.085,2.788c-1.098-0.158-2.926-2.476-4.261-4.168c-0.167-0.211-0.335-0.422-0.503-0.634
		c-5.423-1.224-10.666-2.86-15.586-4.688c-0.63,0.242-1.252,0.493-1.854,0.74c-1.795,0.736-4.515,1.847-5.408,1.517
		c-1.192-0.442-2.525-3.05-3.596-5.145c-0.371-0.727-0.747-1.457-1.142-2.17c-4.608-2.174-8.665-4.348-11.969-6.24
		c-1.469,0.188-2.922,0.514-4.304,0.824c-1.556,0.35-4.154,0.938-4.846,0.659c-2.484-1.402-2.603-2.537-2.861-5.022
		c-0.132-1.273-0.292-2.777-0.879-4.313c-2.781-1.235-5.75-1.771-8.685-1.683c-0.166,0.201-0.313,0.418-0.471,0.626
		C-17.264,30.624-16.817,31.355-16.106,31.866z"/>
	<path style="fill:#FFFE9A;" d="M-21.539,69.729c0.465,5.748,3.334,10.811,7.602,14.193c8.329,8.383,35.471,31.977,77.115,31.977
		V96.994C26.505,96.994-7.622,78.398-21.539,69.729z"/>
	<path style="fill:#FFFE9A;" d="M63.178,89.898c-41.645,0-68.786-23.593-77.115-31.977c-1.068-0.848-2.045-1.805-2.923-2.846
		c-2.962,3.516-4.753,8.051-4.753,13.008c0,0.555,0.03,1.102,0.074,1.645c13.917,8.67,48.044,27.266,84.717,27.266V89.898z"/>
	<path style="fill:#FFFE9A;" d="M15.09,56.416c-3.662-5.166-9.675-8.547-16.488-8.547c-6.207,0-11.754,2.804-15.462,7.207
		c0.878,1.041,1.854,1.998,2.923,2.846c8.329,8.384,35.471,31.977,77.115,31.977v-14C36.918,75.898,19.891,61.16,15.09,56.416z"/>
	<path style="fill:#FFD35F;" d="M71.959,56.47c3.438-0.394,6.848-0.991,10.191-1.752c2-2.523,4.125-4.988,7.146-5.791
		c2.783-0.743,5.658,0.08,8.332,1.109c4.295-1.602,8.34-3.346,12.023-5.093c1.254-2.268,2.721-4.336,4.979-5.398
		c2.176-1.022,4.531-1.084,6.85-0.796c5.691-3.271,9.121-5.688,9.225-5.764c1.164-0.844,2.389-1.536,3.652-2.096
		c0.607-1.601,1.68-3.237,3.684-4.69c0.359-0.26,0.754-0.433,1.158-0.54c-3.314-2.377-7.365-3.791-11.756-3.791
		c-6.861,0-12.916,3.428-16.57,8.655c-4.756,4.745-21.547,19.375-47.695,19.375v2.688C66.443,52.587,69.361,54.593,71.959,56.47z"/>
	<path style="fill:#EF3522;" d="M104.918,52.317c1.182-0.441,2.504-3.045,3.566-5.138c0.379-0.748,0.762-1.502,1.168-2.235
		c-3.684,1.747-7.729,3.491-12.023,5.093c0.648,0.249,1.287,0.507,1.906,0.762C101.324,51.534,104.023,52.65,104.918,52.317z"/>
	<path style="fill:#EF3522;" d="M107.363,58.875c-3.459,1.29-7.197-0.247-10.492-1.604c-2.049-0.844-4.598-1.896-5.775-1.579
		c-1.025,0.272-2.723,2.432-3.963,4.009c-2.287,2.909-4.879,6.206-8.738,6.762c-0.371,0.054-0.736,0.079-1.098,0.079
		c-3.367,0-6.373-2.18-9.057-4.125c-1.74-1.261-3.904-2.83-5.062-2.83v16.311c26.148,0,42.939-14.629,47.695-19.375
		c0.127-0.181,0.262-0.354,0.395-0.529C110.209,57.239,108.957,58.281,107.363,58.875z"/>
	<path style="fill:#EF3522;" d="M77.396,59.536c1.086-0.157,2.904-2.471,4.232-4.159c0.174-0.219,0.348-0.438,0.521-0.658
		c-3.344,0.761-6.754,1.358-10.191,1.752c0.129,0.094,0.262,0.188,0.389,0.28C73.957,57.917,76.365,59.657,77.396,59.536z"/>
	<path style="fill:#EF3522;" d="M130.697,40.222c2.436-1.385,2.549-2.516,2.793-4.993c0.127-1.28,0.279-2.792,0.867-4.339
		c-1.264,0.56-2.488,1.252-3.652,2.096c-0.104,0.076-3.533,2.492-9.225,5.764c1.492,0.186,2.967,0.515,4.369,0.829
		C127.398,39.926,129.994,40.506,130.697,40.222z"/>
	<path style="fill:#EF3522;" d="M158.637,37.441c-3.67-5.063-9.27-7.895-15.061-8.227c-0.012,0.207-0.039,0.409-0.086,0.609
		c-0.184,0.793-0.629,1.529-1.34,2.044c-1.324,0.96-1.471,1.791-1.693,4.051c-0.285,2.874-0.715,7.216-6.328,10.404
		c-2.887,1.638-6.406,0.85-9.813,0.086c-2.484-0.559-5.305-1.191-6.705-0.529c-0.813,0.382-2.061,2.841-2.885,4.467
		c-0.803,1.581-1.662,3.256-2.734,4.736c3.707-4.404,9.244-7.214,15.451-7.214s11.756,2.804,15.463,7.207
		c2.963,3.517,4.752,8.051,4.752,13.008c0,0.563-0.031,1.12-0.076,1.672c3.885-2.434,6.211-4.101,6.6-4.383
		C163.125,58.89,165.119,46.384,158.637,37.441z"/>
	<path style="fill:#FFFE9A;" d="M143.49,29.824c0.047-0.2,0.074-0.402,0.086-0.609c-0.184-0.01-0.367-0.002-0.551-0.008
		C143.189,29.405,143.334,29.62,143.49,29.824z"/>
	<path style="fill:#FF9F00;" d="M143.576,29.214c0.041-0.771-0.158-1.561-0.646-2.235c-0.873-1.206-2.371-1.68-3.73-1.319
		c-0.404,0.107-0.799,0.28-1.158,0.54c-2.004,1.453-3.076,3.09-3.684,4.69c-0.588,1.547-0.74,3.059-0.867,4.339
		c-0.244,2.478-0.357,3.608-2.793,4.993c-0.703,0.284-3.299-0.296-4.848-0.644c-1.402-0.314-2.877-0.644-4.369-0.829
		c-2.318-0.288-4.674-0.227-6.85,0.796c-2.258,1.063-3.725,3.131-4.979,5.398c-0.406,0.733-0.789,1.487-1.168,2.235
		c-1.063,2.093-2.385,4.696-3.566,5.138c-0.895,0.333-3.594-0.783-5.383-1.519c-0.619-0.255-1.258-0.513-1.906-0.762
		c-2.674-1.029-5.549-1.853-8.332-1.109c-3.021,0.803-5.146,3.268-7.146,5.791c-0.174,0.22-0.348,0.439-0.521,0.658
		c-1.328,1.688-3.146,4.002-4.232,4.159c-1.031,0.121-3.439-1.619-5.049-2.785c-0.127-0.093-0.26-0.187-0.389-0.28
		c-2.598-1.877-5.516-3.883-8.781-3.883v4.407v2.593c1.158,0,3.322,1.569,5.062,2.83c2.684,1.945,5.689,4.125,9.057,4.125
		c0.361,0,0.727-0.025,1.098-0.079c3.859-0.556,6.451-3.853,8.738-6.762c1.24-1.577,2.938-3.736,3.963-4.009
		c1.178-0.317,3.727,0.735,5.775,1.579c3.295,1.356,7.033,2.894,10.492,1.604c1.594-0.595,2.846-1.637,3.904-2.881
		c0.232-0.312,0.475-0.615,0.725-0.912c1.072-1.48,1.932-3.155,2.734-4.736c0.824-1.626,2.072-4.085,2.885-4.467
		c1.4-0.662,4.221-0.029,6.705,0.529c3.406,0.764,6.926,1.552,9.813-0.086c5.613-3.188,6.043-7.53,6.328-10.404
		c0.223-2.26,0.369-3.091,1.693-4.051c0.711-0.515,1.156-1.251,1.34-2.044c-0.156-0.204-0.301-0.419-0.465-0.617
		C143.209,29.212,143.393,29.205,143.576,29.214z"/>
	<path style="fill:#FFD35F;" d="M142.906,55.076c-3.707-4.403-9.256-7.207-15.463-7.207s-11.744,2.81-15.451,7.214
		c-0.23,0.316-0.475,0.616-0.725,0.912c-0.133,0.176-0.268,0.349-0.395,0.529c-4.756,4.745-21.547,19.375-47.695,19.375v14v7.096
		v18.904c41.648,0,68.574-23.59,76.875-32.029c4.223-3.379,7.061-8.408,7.529-14.113c0.045-0.553,0.076-1.109,0.076-1.672
		C147.658,63.126,145.869,58.592,142.906,55.076z"/>
	<path style="fill:#FFFE9A;" d="M111.992,55.083c-0.25,0.297-0.492,0.601-0.725,0.912C111.518,55.699,111.762,55.399,111.992,55.083
		z"/>
</g>
</svg>
