<?xml version="1.0" encoding="utf-8"?>
<!-- Generator: Adobe Illustrator 16.0.0, SVG Export Plug-In . SVG Version: 6.00 Build 0)  -->
<!DOCTYPE svg PUBLIC "-//W3C//DTD SVG 1.1//EN" "http://www.w3.org/Graphics/SVG/1.1/DTD/svg11.dtd">
<svg version="1.1" id="Layer_1" xmlns="http://www.w3.org/2000/svg" xmlns:xlink="http://www.w3.org/1999/xlink" x="0px" y="0px"
	 width="88.418px" height="177.93px" viewBox="0 0 88.418 177.93" style="enable-background:new 0 0 88.418 177.93;"
	 xml:space="preserve">
<g>
	<g>
		<rect x="1.819" y="53.489" style="fill:#A58D7C;" width="85.144" height="124.44"/>
	</g>
	<g>
		<rect y="12.008" style="fill:#C6818E;" width="88.418" height="41.481"/>
	</g>
	<g>
		<g>
			<rect x="10.553" y="61.129" style="fill:#86C1C5;" width="15.28" height="25.106"/>
			<path style="fill:#DEE0E2;" d="M26.561,86.965H9.823V60.402h16.737V86.965z M11.278,85.508h13.827v-23.65H11.278V85.508z"/>
		</g>
		<g>
			<rect x="16.845" y="61.141" style="fill:#DEE0E2;" width="1.455" height="25.191"/>
		</g>
		<g>
			<rect x="10.326" y="72.493" style="fill:#DEE0E2;" width="15.184" height="1.455"/>
		</g>
	</g>
	<g>
		<g>
			<rect x="37.123" y="61.129" style="fill:#86C1C5;" width="15.283" height="25.106"/>
			<path style="fill:#DEE0E2;" d="M53.133,86.965H36.396V60.402h16.737V86.965z M37.851,85.508h13.827v-23.65H37.851V85.508z"/>
		</g>
		<g>
			<rect x="43.416" y="61.141" style="fill:#DEE0E2;" width="1.458" height="25.191"/>
		</g>
		<g>
			<rect x="36.897" y="72.493" style="fill:#DEE0E2;" width="15.186" height="1.455"/>
		</g>
	</g>
	<g>
		<g>
			<rect x="63.35" y="61.129" style="fill:#86C1C5;" width="15.282" height="25.106"/>
			<path style="fill:#DEE0E2;" d="M79.36,86.965H62.622V60.402H79.36V86.965z M64.078,85.508h13.826v-23.65H64.078V85.508z"/>
		</g>
		<g>
			<rect x="69.644" y="61.141" style="fill:#DEE0E2;" width="1.456" height="25.191"/>
		</g>
		<g>
			<rect x="63.124" y="72.493" style="fill:#DEE0E2;" width="15.185" height="1.455"/>
		</g>
	</g>
	<g>
		<g>
			<rect x="10.553" y="92.533" style="fill:#86C1C5;" width="15.28" height="25.105"/>
			<path style="fill:#DEE0E2;" d="M26.561,118.368H9.823V91.805h16.737V118.368z M11.278,116.91h13.827V93.263H11.278V116.91z"/>
		</g>
		<g>
			<rect x="16.845" y="92.545" style="fill:#DEE0E2;" width="1.455" height="25.19"/>
		</g>
		<g>
			<rect x="10.326" y="103.895" style="fill:#DEE0E2;" width="15.184" height="1.455"/>
		</g>
	</g>
	<g>
		<g>
			<rect x="37.123" y="92.533" style="fill:#86C1C5;" width="15.283" height="25.105"/>
			<path style="fill:#DEE0E2;" d="M53.133,118.368H36.396V91.805h16.737V118.368z M37.851,116.91h13.827V93.263H37.851V116.91z"/>
		</g>
		<g>
			<rect x="43.416" y="92.545" style="fill:#DEE0E2;" width="1.458" height="25.19"/>
		</g>
		<g>
			<rect x="36.897" y="103.895" style="fill:#DEE0E2;" width="15.186" height="1.455"/>
		</g>
	</g>
	<g>
		<g>
			<rect x="63.35" y="92.533" style="fill:#86C1C5;" width="15.282" height="25.105"/>
			<path style="fill:#DEE0E2;" d="M79.36,118.368H62.622V91.805H79.36V118.368z M64.078,116.91h13.826V93.263H64.078V116.91z"/>
		</g>
		<g>
			<rect x="69.644" y="92.545" style="fill:#DEE0E2;" width="1.456" height="25.19"/>
		</g>
		<g>
			<rect x="63.124" y="103.895" style="fill:#DEE0E2;" width="15.185" height="1.455"/>
		</g>
	</g>
	<g>
		<g>
			<rect x="10.553" y="123.592" style="fill:#86C1C5;" width="15.28" height="25.105"/>
			<path style="fill:#DEE0E2;" d="M26.561,149.427H9.823v-26.563h16.737V149.427z M11.278,147.972h13.827v-23.652H11.278V147.972z"
				/>
		</g>
		<g>
			<rect x="16.845" y="123.604" style="fill:#DEE0E2;" width="1.455" height="25.189"/>
		</g>
		<g>
			<rect x="10.326" y="134.953" style="fill:#DEE0E2;" width="15.184" height="1.457"/>
		</g>
	</g>
	<g>
		<g>
			<rect x="37.123" y="123.592" style="fill:#86C1C5;" width="15.283" height="25.105"/>
			<path style="fill:#DEE0E2;" d="M53.133,149.427H36.396v-26.563h16.737V149.427z M37.851,147.972h13.827v-23.652H37.851V147.972z"
				/>
		</g>
		<g>
			<rect x="43.416" y="123.604" style="fill:#DEE0E2;" width="1.458" height="25.189"/>
		</g>
		<g>
			<rect x="36.897" y="134.953" style="fill:#DEE0E2;" width="15.186" height="1.457"/>
		</g>
	</g>
	<g>
		<g>
			<rect x="63.35" y="123.592" style="fill:#86C1C5;" width="15.282" height="25.105"/>
			<path style="fill:#DEE0E2;" d="M79.36,149.427H62.622v-26.563H79.36V149.427z M64.078,147.972h13.826v-23.652H64.078V147.972z"/>
		</g>
		<g>
			<rect x="69.644" y="123.604" style="fill:#DEE0E2;" width="1.456" height="25.189"/>
		</g>
		<g>
			<rect x="63.124" y="134.953" style="fill:#DEE0E2;" width="15.185" height="1.457"/>
		</g>
	</g>
	<g>
		<rect x="67.314" style="fill:#C6818E;" width="9.823" height="22.922"/>
	</g>
</g>
</svg>
