<?xml version="1.0" encoding="utf-8"?>
<!-- Generator: Adobe Illustrator 16.0.0, SVG Export Plug-In . SVG Version: 6.00 Build 0)  -->
<!DOCTYPE svg PUBLIC "-//W3C//DTD SVG 1.1//EN" "http://www.w3.org/Graphics/SVG/1.1/DTD/svg11.dtd">
<svg version="1.1" id="Layer_1" xmlns="http://www.w3.org/2000/svg" xmlns:xlink="http://www.w3.org/1999/xlink" x="0px" y="0px"
	 width="182.884px" height="133.887px" viewBox="0 0 182.884 133.887" style="enable-background:new 0 0 182.884 133.887;"
	 xml:space="preserve">
<g>
	<g>
		<polygon style="fill:#F8D9AD;" points="59.458,133.72 0,133.72 0,44.533 29.73,14.806 59.458,44.533 		"/>
	</g>
	<g>
		<circle style="fill:#AEA187;" cx="29.28" cy="40.479" r="6.756"/>
	</g>
	<g>
		<rect x="16.218" y="61.65" style="fill:#DEE0E2;" width="26.123" height="13.511"/>
	</g>
	<g>
		<rect x="16.218" y="83.269" style="fill:#DEE0E2;" width="26.123" height="13.517"/>
	</g>
	<g>
		<rect x="36.233" y="60.64" style="fill:#C67A1F;" width="15.02" height="16.144"/>
	</g>
	<g>
		<rect x="6.85" y="60.64" style="fill:#C67A1F;" width="15.016" height="16.144"/>
	</g>
	<g>
		<rect x="7.224" y="82.14" style="fill:#C67A1F;" width="15.018" height="16.147"/>
	</g>
	<g>
		<rect x="36.134" y="82.14" style="fill:#C67A1F;" width="15.02" height="16.147"/>
	</g>
	<g>
		<rect x="59.172" y="47.644" style="fill:#F8D9AD;" width="120.125" height="85.217"/>
	</g>
	<g>
		<rect y="111.197" style="fill:#783833;" width="179.583" height="22.522"/>
	</g>
	<g>
		<polygon style="fill:#FF8E7E;" points="30.754,14.806 147.47,14.806 182.884,50.219 60.484,50.219 		"/>
	</g>
	<g>
		<rect x="100.24" y="98.979" style="fill:#C67A1F;" width="35.935" height="34.908"/>
	</g>
	<g>
		<rect x="70.466" y="63.043" style="fill:#DEE0E2;" width="30.803" height="14.376"/>
		<path style="fill:#D46E34;" d="M102.293,78.444H69.439V62.017h32.854V78.444z M71.494,76.39h28.746V64.071H71.494V76.39z"/>
	</g>
	<g>
		<rect x="133.097" y="63.043" style="fill:#DEE0E2;" width="30.799" height="14.376"/>
		<path style="fill:#D46E34;" d="M164.924,78.444h-32.856V62.017h32.856V78.444z M134.122,76.39h28.749V64.071h-28.749V76.39z"/>
	</g>
	<g>
		<circle style="fill:#1D1D1B;" cx="130.7" cy="119.173" r="1.711"/>
	</g>
	<g>
		<rect x="103.505" style="fill:#FF8E7E;" width="20.019" height="20.02"/>
	</g>
	<g>
		<g>
			<line style="fill:#D14044;" x1="147.228" y1="62.151" x2="147.228" y2="76.799"/>
			<rect x="146.203" y="62.151" style="fill:#C67A1F;" width="2.053" height="14.647"/>
		</g>
		<g>
			<line style="fill:#D14044;" x1="132.206" y1="69.663" x2="164.129" y2="69.663"/>
			<rect x="132.206" y="68.637" style="fill:#C67A1F;" width="31.923" height="2.053"/>
		</g>
	</g>
	<g>
		<g>
			<line style="fill:#D14044;" x1="84.923" y1="62.151" x2="84.923" y2="76.799"/>
			<rect x="83.896" y="62.151" style="fill:#C67A1F;" width="2.053" height="14.647"/>
		</g>
		<g>
			<line style="fill:#D14044;" x1="69.901" y1="69.663" x2="101.822" y2="69.663"/>
			<rect x="69.901" y="68.637" style="fill:#C67A1F;" width="31.921" height="2.053"/>
		</g>
	</g>
</g>
</svg>
