<?xml version="1.0" encoding="utf-8"?>
<!-- Generator: Adobe Illustrator 16.0.0, SVG Export Plug-In . SVG Version: 6.00 Build 0)  -->
<!DOCTYPE svg PUBLIC "-//W3C//DTD SVG 1.1//EN" "http://www.w3.org/Graphics/SVG/1.1/DTD/svg11.dtd">
<svg version="1.1" id="Layer_1" xmlns="http://www.w3.org/2000/svg" xmlns:xlink="http://www.w3.org/1999/xlink" x="0px" y="0px"
	 width="75.998px" height="243.918px" viewBox="0 0 75.998 243.918" style="enable-background:new 0 0 75.998 243.918;"
	 xml:space="preserve">
<g>
	<g>
		<polygon style="fill:#DFD7CA;" points="59.11,27.444 59.11,16.587 50.063,16.587 50.063,23.243 0,0 0,243.372 75.998,243.372 
			75.998,35.284 		"/>
	</g>
	<g>
		<rect x="9.49" y="52.011" style="fill:#86C1C5;" width="56.601" height="18.095"/>
		<path style="fill:#FFFFFF;" d="M66.544,70.558H9.037V51.559h57.507V70.558z M9.943,69.653h55.694V52.464H9.943V69.653z"/>
	</g>
	<g>
		<rect x="18.495" y="51.956" style="fill:#FFFFFF;" width="0.905" height="17.65"/>
	</g>
	<g>
		<rect x="27.761" y="51.956" style="fill:#FFFFFF;" width="0.905" height="17.65"/>
	</g>
	<g>
		<rect x="37.027" y="51.956" style="fill:#FFFFFF;" width="0.904" height="17.65"/>
	</g>
	<g>
		<rect x="46.295" y="51.956" style="fill:#FFFFFF;" width="0.903" height="17.65"/>
	</g>
	<g>
		<rect x="55.56" y="51.956" style="fill:#FFFFFF;" width="0.906" height="17.65"/>
	</g>
	<g>
		<rect x="8.798" y="60.815" style="fill:#FFFFFF;" width="57.365" height="0.903"/>
	</g>
	<g>
		<rect x="9.49" y="80.692" style="fill:#86C1C5;" width="56.601" height="18.095"/>
		<path style="fill:#FFFFFF;" d="M66.544,99.24H9.037V80.241h57.507V99.24z M9.943,98.336h55.694v-17.19H9.943V98.336z"/>
	</g>
	<g>
		<rect x="18.495" y="80.639" style="fill:#FFFFFF;" width="0.905" height="17.65"/>
	</g>
	<g>
		<rect x="27.761" y="80.639" style="fill:#FFFFFF;" width="0.905" height="17.65"/>
	</g>
	<g>
		<rect x="37.027" y="80.639" style="fill:#FFFFFF;" width="0.904" height="17.65"/>
	</g>
	<g>
		<rect x="46.295" y="80.639" style="fill:#FFFFFF;" width="0.903" height="17.65"/>
	</g>
	<g>
		<rect x="55.56" y="80.639" style="fill:#FFFFFF;" width="0.906" height="17.65"/>
	</g>
	<g>
		<rect x="8.798" y="89.496" style="fill:#FFFFFF;" width="57.365" height="0.905"/>
	</g>
	<g>
		<rect x="9.49" y="109.375" style="fill:#86C1C5;" width="56.601" height="18.095"/>
		<path style="fill:#FFFFFF;" d="M66.544,127.922H9.037v-19h57.507V127.922z M9.943,127.017h55.694v-17.189H9.943V127.017z"/>
	</g>
	<g>
		<rect x="18.495" y="109.319" style="fill:#FFFFFF;" width="0.905" height="17.651"/>
	</g>
	<g>
		<rect x="27.761" y="109.319" style="fill:#FFFFFF;" width="0.905" height="17.651"/>
	</g>
	<g>
		<rect x="37.027" y="109.319" style="fill:#FFFFFF;" width="0.904" height="17.651"/>
	</g>
	<g>
		<rect x="46.295" y="109.319" style="fill:#FFFFFF;" width="0.903" height="17.651"/>
	</g>
	<g>
		<rect x="55.56" y="109.319" style="fill:#FFFFFF;" width="0.906" height="17.651"/>
	</g>
	<g>
		<rect x="8.798" y="118.179" style="fill:#FFFFFF;" width="57.365" height="0.904"/>
	</g>
	<g>
		<rect x="9.49" y="138.056" style="fill:#86C1C5;" width="56.601" height="18.095"/>
		<path style="fill:#FFFFFF;" d="M66.544,156.604H9.037v-18.999h57.507V156.604z M9.943,155.699h55.694v-17.19H9.943V155.699z"/>
	</g>
	<g>
		<rect x="18.495" y="138.002" style="fill:#FFFFFF;" width="0.905" height="17.651"/>
	</g>
	<g>
		<rect x="27.761" y="138.002" style="fill:#FFFFFF;" width="0.905" height="17.651"/>
	</g>
	<g>
		<rect x="37.027" y="138.002" style="fill:#FFFFFF;" width="0.904" height="17.651"/>
	</g>
	<g>
		<rect x="46.295" y="138.002" style="fill:#FFFFFF;" width="0.903" height="17.651"/>
	</g>
	<g>
		<rect x="55.56" y="138.002" style="fill:#FFFFFF;" width="0.906" height="17.651"/>
	</g>
	<g>
		<rect x="8.798" y="146.859" style="fill:#FFFFFF;" width="57.365" height="0.906"/>
	</g>
	<g>
		<rect x="9.49" y="166.738" style="fill:#86C1C5;" width="56.601" height="18.095"/>
		<path style="fill:#FFFFFF;" d="M66.544,185.286H9.037v-19h57.507V185.286z M9.943,184.381h55.694v-17.189H9.943V184.381z"/>
	</g>
	<g>
		<rect x="18.495" y="166.683" style="fill:#FFFFFF;" width="0.905" height="17.652"/>
	</g>
	<g>
		<rect x="27.761" y="166.683" style="fill:#FFFFFF;" width="0.905" height="17.652"/>
	</g>
	<g>
		<rect x="37.027" y="166.683" style="fill:#FFFFFF;" width="0.904" height="17.652"/>
	</g>
	<g>
		<rect x="46.295" y="166.683" style="fill:#FFFFFF;" width="0.903" height="17.652"/>
	</g>
	<g>
		<rect x="55.56" y="166.683" style="fill:#FFFFFF;" width="0.906" height="17.652"/>
	</g>
	<g>
		<rect x="8.798" y="175.542" style="fill:#FFFFFF;" width="57.365" height="0.904"/>
	</g>
	<g>
		<rect x="9.49" y="195.421" style="fill:#86C1C5;" width="56.601" height="18.094"/>
		<path style="fill:#FFFFFF;" d="M66.544,213.967H9.037v-18.999h57.507V213.967z M9.943,213.063h55.694v-17.19H9.943V213.063z"/>
	</g>
	<g>
		<rect x="18.495" y="195.365" style="fill:#FFFFFF;" width="0.905" height="17.651"/>
	</g>
	<g>
		<rect x="27.761" y="195.365" style="fill:#FFFFFF;" width="0.905" height="17.651"/>
	</g>
	<g>
		<rect x="37.027" y="195.365" style="fill:#FFFFFF;" width="0.904" height="17.651"/>
	</g>
	<g>
		<rect x="46.295" y="195.365" style="fill:#FFFFFF;" width="0.903" height="17.651"/>
	</g>
	<g>
		<rect x="55.56" y="195.365" style="fill:#FFFFFF;" width="0.906" height="17.651"/>
	</g>
	<g>
		<rect x="8.798" y="204.224" style="fill:#FFFFFF;" width="57.365" height="0.905"/>
	</g>
	<g>
		<rect x="24.242" y="224.05" style="fill:#D05A15;" width="26.476" height="19.415"/>
		<path style="fill:#7F4B00;" d="M51.17,243.918H23.789v-20.319H51.17V243.918z M24.693,243.014h25.571v-18.512H24.693V243.014z"/>
	</g>
</g>
</svg>
