<?xml version="1.0" encoding="utf-8"?>
<!-- Generator: Adobe Illustrator 16.0.0, SVG Export Plug-In . SVG Version: 6.00 Build 0)  -->
<!DOCTYPE svg PUBLIC "-//W3C//DTD SVG 1.1//EN" "http://www.w3.org/Graphics/SVG/1.1/DTD/svg11.dtd">
<svg version="1.1" id="Layer_1" xmlns="http://www.w3.org/2000/svg" xmlns:xlink="http://www.w3.org/1999/xlink" x="0px" y="0px"
	 width="148.99px" height="184.25px" viewBox="0 0 148.99 184.25" style="enable-background:new 0 0 148.99 184.25;"
	 xml:space="preserve">
<path style="fill:#FFD5BF;" d="M75,18.25L27.5,68.5c0,0-9.5,45-15,66.25S0,184.25,0,184.25h148.99c0,0-13.99-67.25-16.74-78.75
	s-8.5-36.75-8.5-36.75S92.25,34,89,30.25S78.25,17,75,18.25"/>
<polygon style="fill:#F02052;" points="58.5,34.25 43.75,22.25 50.75,12.5 39.25,3.75 28.25,20 48.75,44.75 "/>
<polygon style="fill:#9B0423;" points="35.5,1.75 55,16.75 55.25,0 "/>
<polygon style="fill:#F02052;" points="29.5,70 123.75,68.75 76.75,16.75 "/>
<path style="fill:none;stroke:#FFD5BF;stroke-width:2;stroke-miterlimit:10;" d="M38.25,54c4.25,4.292,16.734,15.516,18.25,17.542"
	/>
<path style="fill:none;stroke:#FFD5BF;stroke-width:2;stroke-miterlimit:10;" d="M48,44.75c4.052,5.335,22.659,23.98,24.5,26.542"/>
<path style="fill:none;stroke:#FFD5BF;stroke-width:2;stroke-miterlimit:10;" d="M58.5,34.75
	c4.625,4.292,31.33,34.838,32.625,36.167"/>
<path style="fill:none;stroke:#FFD5BF;stroke-width:2;stroke-miterlimit:10;" d="M67.25,24.5
	c5.525,5.415,42.357,41.854,47.25,46.417"/>
<path style="fill:none;stroke:#FFD5BF;stroke-width:2;stroke-miterlimit:10;" d="M42.5,71.916C55.708,57.504,72,41.083,85.5,27.416"
	/>
<path style="fill:none;stroke:#FFD5BF;stroke-width:2;stroke-miterlimit:10;" d="M62.25,70.916c7.516-7.768,29.874-30,33.249-33.417
	"/>
<path style="fill:none;stroke:#FFD5BF;stroke-width:2;stroke-miterlimit:10;" d="M84.625,70.791
	c2.75-3.75,20.852-21.897,20.625-21.792"/>
<path style="fill:none;stroke:#FFD5BF;stroke-width:2;stroke-miterlimit:10;" d="M103.125,70.791c2.25-2.125,9.125-9.333,11.5-12.25
	"/>
<path style="fill:#9B0423;" d="M141.707,51.944c-2.873-2.132-6.945-1.186-7.664,2.132s2.242,4.404,3.354,3.791
	c0.771-0.426,1.676-3.554,3.113-1.659c1.438,1.896-1.305,4.603-5.029,5.607c-6.586,1.776-13.293-0.355-13.293-0.355
	S77.708,14.249,76.439,14.013c-3.23,0.581-47.564,49.278-47.564,49.278s-7,2.25-13.875,0.375c-3.889-1.061-6.75-3.917-5.25-5.917
	s2.444,1.301,3.25,1.75c1.16,0.647,4.25-0.5,3.5-4s-5-4.5-8-2.25s-2.897,7.196-1.5,10c4.875,9.792,19.25,10.417,19.25,10.417
	S71,24.999,73.5,22.499c0.828-0.828,1.697-1.554,2.334-1.75c1.221-0.022,1.984,0.457,3.602,2.057
	c2.395,2.368,45.268,48.485,45.268,48.485s13.771-0.592,18.441-9.871C144.482,58.763,144.582,54.076,141.707,51.944"/>
<path style="fill:#F02052;" d="M90.5,118.5c0,0-1.916-11.833,1.75-23.5c3.189-10.147,8.344-13.327,15.5-9.583
	C113.167,88.25,115.25,99,116,105.5s0.25,14.5,0.25,14.5L90.5,118.5z"/>
<path style="fill:#FFFFFF;" d="M94.5,118.5c0,0-1.266-12.455,1.834-22.5c2.418-7.833,5.334-10.25,11.084-5.5S112.75,115.25,113,117
	S94.5,118.5,94.5,118.5"/>
<path style="fill:none;stroke:#F02052;stroke-width:2;stroke-miterlimit:10;" d="M104,87.25c-0.422,1.524,1.385,30.381,1.25,30"/>
<path style="fill:none;stroke:#F02052;stroke-width:2;stroke-miterlimit:10;" d="M114.75,106c-6.828,0.182-14-0.167-20.75,0"/>
<path style="fill:#9B0423;" d="M85.167,115.416l0.582,4.833l34,2l1-5.75c0,0-8.25-1.25-18.25-1.25S85.167,115.416,85.167,115.416"/>
<path style="fill:#F02052;" d="M38.25,118.5c0,0-4.25-12.5-1.5-22.25S45.126,81.521,51,81.417c7.312-0.13,11.833,9.666,12.583,16.25
	c0.601,5.269-0.084,22.083-0.084,22.083L38.25,118.5z"/>
<path style="fill:#FFFFFF;" d="M42.25,119.75c0,0-4.25-15.75,0.5-25.5s10.822-8.267,13.25-4.5c4.5,6.979,4.063,15.604,4.063,19.354
	s-0.813,10.313-0.813,10.313L42.25,119.75z"/>
<path style="fill:none;stroke:#F02052;stroke-width:2;stroke-miterlimit:10;" d="M51.25,85c0.297,11.72-0.309,23.486,0.019,35.222
	c-0.069-0.33-0.158-0.654-0.269-0.972"/>
<path style="fill:none;stroke:#F02052;stroke-width:2;stroke-miterlimit:10;" d="M61.75,105.75c-7.953,0.006-15.824,0.445-23.75,0.5
	"/>
<polygon style="fill:#9B0423;" points="31.5,116.5 32.5,123.75 66.5,122 66.5,117 "/>
<path style="fill:#9B0423;" d="M53.125,184.25c0,0-0.416-15.688,1.25-30.521c1.668-14.833,7.875-20.812,15.209-22.479
	s14.584,2.292,17.916,8.292c3.334,6,5.418,15.208,6.25,20.375c0.834,5.166,1.063,24.333,1.063,24.333H53.125z"/>
<path style="fill:#F02052;" d="M55.875,184.25c0,0-1.75-30.146,3.75-41.146s18.124-12.687,24.792-3.854
	c6.666,8.833,7,25.667,7.332,30.167c0.334,4.5-0.563,14.833-0.563,14.833H55.875z"/>
</svg>
