<?xml version="1.0" encoding="utf-8"?>
<!-- Generator: Adobe Illustrator 16.0.0, SVG Export Plug-In . SVG Version: 6.00 Build 0)  -->
<!DOCTYPE svg PUBLIC "-//W3C//DTD SVG 1.1//EN" "http://www.w3.org/Graphics/SVG/1.1/DTD/svg11.dtd">
<svg version="1.1" id="Layer_1" xmlns="http://www.w3.org/2000/svg" xmlns:xlink="http://www.w3.org/1999/xlink" x="0px" y="0px"
	 width="72.207px" height="111.462px" viewBox="27.499 12.739 72.207 111.462"
	 style="enable-background:new 27.499 12.739 72.207 111.462;" xml:space="preserve">
<g>
	<polygon style="fill:#3F4276;" points="40.731,62.454 64.646,123.929 64.646,62.911 	"/>
	<polygon style="fill:#3F2B3B;" points="88.678,63.37 64.646,62.911 64.646,123.929 64.75,124.201 	"/>
	<path style="fill:#FFFFFF;" d="M46.896,35.125c-10.713,0-19.397,8.685-19.397,19.397s8.685,19.398,19.397,19.398
		c7.934,0,14.744-4.77,17.75-11.592V46.718C61.64,39.894,54.83,35.125,46.896,35.125z"/>
	<path style="fill:#F8BA16;" d="M64.646,46.718v15.611c1.051-2.389,1.646-5.027,1.646-7.807
		C66.293,51.745,65.697,49.107,64.646,46.718z"/>
	<path style="fill:#D76427;" d="M60.909,55.892c0,4.27,1.397,8.207,3.738,11.412V44.479C62.306,47.683,60.909,51.618,60.909,55.892z
		"/>
	<path style="fill:#ED6D26;" d="M80.307,36.492c-6.441,0-12.133,3.153-15.66,7.986v22.825c3.527,4.832,9.219,7.984,15.66,7.984
		c10.713,0,19.398-8.686,19.398-19.396C99.705,45.177,91.02,36.492,80.307,36.492z"/>
	<path style="fill:#69E2DE;" d="M46.895,32.138c0,10.156,7.811,18.477,17.751,19.313V12.822
		C54.706,13.659,46.895,21.98,46.895,32.138z"/>
	<path style="fill:#00BEC5;" d="M66.293,12.739c-0.555,0-1.104,0.036-1.646,0.083v38.629c0.543,0.046,1.092,0.083,1.646,0.083
		c10.715,0,19.396-8.684,19.396-19.396C85.689,21.423,77.008,12.739,66.293,12.739z"/>
</g>
</svg>
