<?xml version="1.0" encoding="utf-8"?>
<!-- Generator: Adobe Illustrator 16.0.0, SVG Export Plug-In . SVG Version: 6.00 Build 0)  -->
<!DOCTYPE svg PUBLIC "-//W3C//DTD SVG 1.1//EN" "http://www.w3.org/Graphics/SVG/1.1/DTD/svg11.dtd">
<svg version="1.1" id="Layer_1" xmlns="http://www.w3.org/2000/svg" xmlns:xlink="http://www.w3.org/1999/xlink" x="0px" y="0px"
	 width="311.909px" height="272.815px" viewBox="0 0 311.909 272.815" style="enable-background:new 0 0 311.909 272.815;"
	 xml:space="preserve">
<g>
	<rect x="69.427" y="163.333" style="fill:#5D3D24;" width="165.006" height="109.482"/>
	<polygon style="fill:#F26E26;" points="155.148,0 0,114.927 16.133,131.604 155.121,32.309 295.749,133.091 311.909,116.438 	"/>
	<path style="fill:#795134;" d="M47.581,118.144v154.671h42.782v-28.02h0.06c-0.004-0.41-0.06-0.809-0.06-1.219
		c0-37.105,30.079-67.188,67.188-67.188c37.112,0,67.191,30.083,67.191,67.188c0,0.41-0.056,0.809-0.061,1.219h0.061v28.02h37.943
		V118.144L155.133,43.707L47.581,118.144z M180.016,124.032c0-6.055,4.913-10.97,10.961-10.97c6.064,0,10.972,4.915,10.972,10.97
		c0,3.439-1.618,6.477-4.105,8.489c2.487,2.01,4.105,5.05,4.105,8.489c0,6.055-4.907,10.97-10.972,10.97
		c-6.048,0-10.961-4.915-10.961-10.97c0-0.304,0.066-0.586,0.091-0.876h-17.781h-9.549h-17.781c0.028,0.291,0.093,0.572,0.093,0.876
		c0,6.055-4.911,10.97-10.969,10.97c-6.057,0-10.967-4.915-10.967-10.97c0-3.438,1.623-6.479,4.104-8.489
		c-2.481-2.012-4.104-5.05-4.104-8.489c0-6.055,4.91-10.97,10.967-10.97c6.058,0,10.969,4.915,10.969,10.97
		c0,0.84-0.114,1.647-0.295,2.434h17.983h9.549h17.981C180.134,125.679,180.016,124.872,180.016,124.032z"/>
	<path style="fill:#FDBB17;" d="M180.016,124.032c0-6.055,4.913-10.97,10.961-10.97c6.064,0,10.972,4.915,10.972,10.97
		c0,3.439-1.618,6.477-4.105,8.489c2.487,2.01,4.105,5.05,4.105,8.489c0,6.055-4.907,10.97-10.972,10.97
		c-6.048,0-10.961-4.915-10.961-10.97c0-0.304,0.066-0.586,0.091-0.876h-17.781h-9.549h-17.781c0.028,0.291,0.093,0.572,0.093,0.876
		c0,6.055-4.911,10.97-10.969,10.97c-6.057,0-10.967-4.915-10.967-10.97c0-3.438,1.623-6.479,4.104-8.489
		c-2.481-2.012-4.104-5.05-4.104-8.489c0-6.055,4.91-10.97,10.967-10.97c6.058,0,10.969,4.915,10.969,10.97
		c0,0.84-0.114,1.647-0.295,2.434h17.983h9.549h17.981C180.134,125.679,180.016,124.872,180.016,124.032z"/>
</g>
</svg>
