<?xml version="1.0" encoding="utf-8"?>
<!-- Generator: Adobe Illustrator 16.0.0, SVG Export Plug-In . SVG Version: 6.00 Build 0)  -->
<!DOCTYPE svg PUBLIC "-//W3C//DTD SVG 1.1//EN" "http://www.w3.org/Graphics/SVG/1.1/DTD/svg11.dtd">
<svg version="1.1" id="Layer_1" xmlns="http://www.w3.org/2000/svg" xmlns:xlink="http://www.w3.org/1999/xlink" x="0px" y="0px"
	 width="108.539px" height="64.785px" viewBox="0 0 108.539 64.785" style="enable-background:new 0 0 108.539 64.785;"
	 xml:space="preserve">
<g>
	<polygon style="fill-rule:evenodd;clip-rule:evenodd;fill:#8CB036;" points="0,0.063 0,64.785 53.791,64.785 53.791,0.063 0,0.063 
			"/>
	<polygon style="fill-rule:evenodd;clip-rule:evenodd;fill:#8CB036;" points="54.747,0 54.747,64.723 108.539,64.723 108.539,0 
		54.747,0 	"/>
	<polygon style="fill-rule:evenodd;clip-rule:evenodd;fill:#DEE359;" points="11.826,8.922 11.826,55.178 43.882,55.178 
		43.882,8.922 11.826,8.922 	"/>
	<polygon style="fill-rule:evenodd;clip-rule:evenodd;fill:#DEE359;" points="65.614,8.922 65.614,55.178 97.67,55.178 97.67,8.922 
		65.614,8.922 	"/>
	<polygon style="fill-rule:evenodd;clip-rule:evenodd;fill:#8CB036;" points="33.217,48.854 37.824,48.854 37.824,36.318 
		33.217,36.318 33.217,48.854 	"/>
	<polygon style="fill-rule:evenodd;clip-rule:evenodd;fill:#8CB036;" points="72.412,48.854 77.018,48.854 77.018,36.318 
		72.412,36.318 72.412,48.854 	"/>
	<polygon style="fill-rule:evenodd;clip-rule:evenodd;fill:#FFFFFF;" points="55.329,64.719 53.791,64.719 53.791,0.129 
		55.329,0.129 55.329,64.719 	"/>
</g>
</svg>
