<?xml version="1.0" encoding="utf-8"?>
<!-- Generator: Adobe Illustrator 16.0.0, SVG Export Plug-In . SVG Version: 6.00 Build 0)  -->
<!DOCTYPE svg PUBLIC "-//W3C//DTD SVG 1.1//EN" "http://www.w3.org/Graphics/SVG/1.1/DTD/svg11.dtd">
<svg version="1.1" id="Layer_1" xmlns="http://www.w3.org/2000/svg" xmlns:xlink="http://www.w3.org/1999/xlink" x="0px" y="0px"
	 width="249.503px" height="158.458px" viewBox="0 0 249.503 158.458" style="enable-background:new 0 0 249.503 158.458;"
	 xml:space="preserve">
<g>
	<polygon style="fill-rule:evenodd;clip-rule:evenodd;fill:#9EC2E8;" points="107.583,71.043 107.583,156.742 175.076,156.742 
		175.076,71.043 107.583,71.043 	"/>
	<path style="fill-rule:evenodd;clip-rule:evenodd;fill:#EB380D;" d="M175.076,157.158V11.086C175.076,4.967,180.046,0,186.164,0
		h52.26c6.115,0,11.08,4.967,11.08,11.086v146.072H175.076L175.076,157.158z"/>
	<polygon style="fill-rule:evenodd;clip-rule:evenodd;fill:#F55C5C;" points="175.076,58.66 175.076,55.367 249.503,55.367 
		249.503,58.66 175.076,58.66 	"/>
	<path style="fill-rule:evenodd;clip-rule:evenodd;fill:#FFFFFF;" d="M181.835,88.273h4.352c0.473,0,0.857-0.381,0.857-0.855V65.047
		c0-0.473-0.385-0.857-0.857-0.857h-4.352c-0.477,0-0.857,0.385-0.857,0.857v22.371C180.978,87.893,181.359,88.273,181.835,88.273
		L181.835,88.273z"/>
	<path style="fill-rule:evenodd;clip-rule:evenodd;fill:#FFFFFF;" d="M181.839,46.82h4.352c0.473,0,0.857-0.385,0.857-0.857V23.588
		c0-0.469-0.385-0.855-0.857-0.855h-4.352c-0.473,0-0.857,0.387-0.857,0.855v22.375C180.982,46.436,181.367,46.82,181.839,46.82
		L181.839,46.82z"/>
	<path style="fill-rule:evenodd;clip-rule:evenodd;fill:#FFD92E;" d="M213.011,9.703c5.055,0,9.164,1.672,9.164,3.727
		c0,2.059-4.109,3.729-9.164,3.729c-5.057,0-9.162-1.67-9.162-3.729C203.849,11.375,207.955,9.703,213.011,9.703L213.011,9.703z"/>
	<polygon style="fill-rule:evenodd;clip-rule:evenodd;fill:#8CB036;" points="0,71.047 0,156.742 53.792,156.742 53.792,71.047 
		0,71.047 	"/>
	<polygon style="fill-rule:evenodd;clip-rule:evenodd;fill:#DEE359;" points="53.792,130.486 53.792,156.742 107.583,156.742 
		107.583,130.486 53.792,130.486 	"/>
	<polygon style="fill-rule:evenodd;clip-rule:evenodd;fill:#696978;" points="117.365,96.781 117.365,149.73 165.296,149.73 
		165.296,96.781 117.365,96.781 	"/>
	<polygon style="fill-rule:evenodd;clip-rule:evenodd;fill:#8CB036;" points="53.795,104.229 53.795,130.482 107.587,130.482 
		107.587,104.229 53.795,104.229 	"/>
	<polygon style="fill-rule:evenodd;clip-rule:evenodd;fill:#DEE359;" points="53.795,77.969 53.795,104.229 107.587,104.229 
		107.587,77.969 53.795,77.969 	"/>
	<polygon style="fill-rule:evenodd;clip-rule:evenodd;fill:#EB380D;" points="114.837,100.654 114.837,103.689 167.828,103.689 
		167.828,100.654 114.837,100.654 	"/>
	<polygon style="fill-rule:evenodd;clip-rule:evenodd;fill:#6B99C9;" points="107.583,71.047 107.583,91.195 175.076,91.195 
		175.076,71.047 107.583,71.047 	"/>
	<path style="fill-rule:evenodd;clip-rule:evenodd;fill:#FFFFFF;" d="M141.537,76.209c2.303,0,4.172,1.869,4.172,4.17
		c0,2.303-1.869,4.172-4.172,4.172c-2.301,0-4.17-1.869-4.17-4.172C137.367,78.078,139.236,76.209,141.537,76.209L141.537,76.209z"
		/>
	<path style="fill-rule:evenodd;clip-rule:evenodd;fill:#FFFFFF;" d="M129.183,77.926c1.521,0,2.752,1.234,2.752,2.758
		c0,1.518-1.23,2.752-2.752,2.752c-1.523,0-2.758-1.234-2.758-2.752C126.425,79.16,127.66,77.926,129.183,77.926L129.183,77.926z"/>
	<path style="fill-rule:evenodd;clip-rule:evenodd;fill:#FFFFFF;" d="M119.775,77.93c1.521,0,2.756,1.234,2.756,2.756
		c0,1.52-1.234,2.754-2.756,2.754c-1.523,0-2.754-1.234-2.754-2.754C117.021,79.164,118.251,77.93,119.775,77.93L119.775,77.93z"/>
	<path style="fill-rule:evenodd;clip-rule:evenodd;fill:#FFFFFF;" d="M163.472,77.926c1.523,0,2.754,1.234,2.754,2.758
		c0,1.518-1.23,2.752-2.754,2.752c-1.521,0-2.756-1.234-2.756-2.752C160.716,79.16,161.951,77.926,163.472,77.926L163.472,77.926z"
		/>
	<path style="fill-rule:evenodd;clip-rule:evenodd;fill:#FFFFFF;" d="M154.064,77.93c1.523,0,2.758,1.234,2.758,2.756
		c0,1.52-1.234,2.754-2.758,2.754c-1.521,0-2.752-1.234-2.752-2.754C151.312,79.164,152.542,77.93,154.064,77.93L154.064,77.93z"/>
	<polygon style="fill-rule:evenodd;clip-rule:evenodd;fill:#696978;" points="0.004,77.967 0.004,71.039 107.576,71.039 
		107.576,77.967 0.004,77.967 	"/>
	<polygon style="fill-rule:evenodd;clip-rule:evenodd;fill:#8CB036;" points="74.421,82.576 74.421,87.182 86.957,87.182 
		86.957,82.576 74.421,82.576 	"/>
	<polygon style="fill-rule:evenodd;clip-rule:evenodd;fill:#8CB036;" points="74.421,135.093 74.421,139.699 86.957,139.699 
		86.957,135.093 74.421,135.093 	"/>
	<polygon style="fill-rule:evenodd;clip-rule:evenodd;fill:#DEE359;" points="74.421,109.287 74.421,113.895 86.957,113.895 
		86.957,109.287 74.421,109.287 	"/>
	<polygon style="fill-rule:evenodd;clip-rule:evenodd;fill:#DEE359;" points="10.867,84.998 10.867,145.626 42.924,145.626 
		42.924,84.998 10.867,84.998 	"/>
	<polygon style="fill-rule:evenodd;clip-rule:evenodd;fill:#8CB036;" points="32.266,103.957 36.872,103.957 36.872,91.424 
		32.266,91.424 32.266,103.957 	"/>
	<polygon style="fill-rule:evenodd;clip-rule:evenodd;fill:#FFFFFF;" points="54.381,158.458 52.839,158.458 52.839,77.945 
		54.381,77.945 54.381,158.458 	"/>
	<polygon style="fill-rule:evenodd;clip-rule:evenodd;fill:#FFFFFF;" points="107.599,158.457 106.06,158.457 106.06,77.939 
		107.599,77.939 107.599,158.457 	"/>
</g>
</svg>
