<?xml version="1.0" encoding="utf-8"?>
<!-- Generator: Adobe Illustrator 16.0.0, SVG Export Plug-In . SVG Version: 6.00 Build 0)  -->
<!DOCTYPE svg PUBLIC "-//W3C//DTD SVG 1.1//EN" "http://www.w3.org/Graphics/SVG/1.1/DTD/svg11.dtd">
<svg version="1.1" id="Layer_1" xmlns="http://www.w3.org/2000/svg" xmlns:xlink="http://www.w3.org/1999/xlink" x="0px" y="0px"
	 width="47.868px" height="55.849px" viewBox="0 0 47.868 55.849" enable-background="new 0 0 47.868 55.849" xml:space="preserve">
<path fill-rule="evenodd" clip-rule="evenodd" fill="#FFFFFF" d="M23.938,45.279c6.389,0,11.62-1.188,12.009-2.676V53.93
	c-8.633,2.684-16.584,2.43-24.018,0V42.604C12.319,44.092,17.551,45.279,23.938,45.279L23.938,45.279z"/>
<path fill-rule="evenodd" clip-rule="evenodd" fill="#9EC2E8" d="M25.296,20.871L25.107,0.377C25.101,0.168,24.538,0,23.843,0
	c-0.701,0-1.264,0.172-1.257,0.381l0.187,20.49c0,0.209,0.566,0.373,1.268,0.373C24.733,21.244,25.296,21.08,25.296,20.871
	L25.296,20.871z"/>
<path fill-rule="evenodd" clip-rule="evenodd" fill="#9EC2E8" d="M23.935,25.107C10.722,25.107,0,23.529,0,21.582
	c0-1.945,10.722-3.523,23.935-3.523c13.212,0,23.934,1.578,23.934,3.523C47.868,23.529,37.146,25.107,23.935,25.107L23.935,25.107z"
	/>
<path fill-rule="evenodd" clip-rule="evenodd" fill="#9EC2E8" d="M23.938,36.508c8.595,0,15.636-1.191,16.161-2.688v11.334
	c-11.612,2.684-22.309,2.432-32.322,0V33.82C8.304,35.316,15.341,36.508,23.938,36.508L23.938,36.508z"/>
<path fill-rule="evenodd" clip-rule="evenodd" fill="#FFFFFF" d="M23.979,25.104c12.52,0,22.797-1.42,23.846-3.223v13.893
	c-17.175,3.986-32.977,3.615-47.777,0V21.645C0.295,23.561,10.919,25.104,23.979,25.104L23.979,25.104z"/>
</svg>
