<?xml version="1.0" encoding="utf-8"?>
<!-- Generator: Adobe Illustrator 16.0.0, SVG Export Plug-In . SVG Version: 6.00 Build 0)  -->
<!DOCTYPE svg PUBLIC "-//W3C//DTD SVG 1.1//EN" "http://www.w3.org/Graphics/SVG/1.1/DTD/svg11.dtd">
<svg version="1.1" id="Layer_1" xmlns="http://www.w3.org/2000/svg" xmlns:xlink="http://www.w3.org/1999/xlink" x="0px" y="0px"
	 width="48.726px" height="115.439px" viewBox="0 0 48.726 115.439" enable-background="new 0 0 48.726 115.439"
	 xml:space="preserve">
<path fill-rule="evenodd" clip-rule="evenodd" fill="#FFFFFF" d="M19.59,24.908c-5.578,7.453-7.082,17.619-4.072,28.275
	c-0.007-0.027-0.007-0.047-0.007-0.07c0,1.343,4.065,2.429,9.063,2.429c4.663,0,8.505-0.949,9-2.162
	c-0.004,0.014-0.004,0.021-0.007,0.023c0.024-0.01,0.042-0.016,0.058-0.023c3.088-10.73,1.607-20.977-4.009-28.482
	C28.264,23.182,21.057,23.086,19.59,24.908L19.59,24.908z M15.511,53.113c0-1.33,4.065-2.426,9.063-2.426
	C19.576,50.688,15.511,51.783,15.511,53.113L15.511,53.113z M33.635,53.113c0-1.33-4.055-2.426-9.061-2.426
	C29.58,50.688,33.635,51.783,33.635,53.113L33.635,53.113z M33.592,53.336c0.03-0.074,0.043-0.146,0.043-0.223
	C33.635,53.189,33.622,53.262,33.592,53.336L33.592,53.336z"/>
<polygon fill-rule="evenodd" clip-rule="evenodd" fill="#9EC2E8" points="4.317,28.318 12.203,0 37.166,0 45.049,28.318 
	4.317,28.318 "/>
<path fill-rule="evenodd" clip-rule="evenodd" fill="#E6360A" d="M0,115.439V94.898h4.822v20.541H0L0,115.439z M43.91,115.439
	V94.898H0v-41.09h48.726v61.631H43.91L43.91,115.439z"/>
</svg>
