<?xml version="1.0" encoding="utf-8"?>
<!-- Generator: Adobe Illustrator 16.0.0, SVG Export Plug-In . SVG Version: 6.00 Build 0)  -->
<!DOCTYPE svg PUBLIC "-//W3C//DTD SVG 1.1//EN" "http://www.w3.org/Graphics/SVG/1.1/DTD/svg11.dtd">
<svg version="1.1" id="Layer_1" xmlns="http://www.w3.org/2000/svg" xmlns:xlink="http://www.w3.org/1999/xlink" x="0px" y="0px"
	 width="125.193px" height="331.476px" viewBox="1.215 -97.601 125.193 331.476"
	 style="enable-background:new 1.215 -97.601 125.193 331.476;" xml:space="preserve">
<g>
	<rect x="42.488" y="-48.154" style="fill:#FF7845;" width="21.325" height="13.07"/>
	<path style="fill:#FF7845;" d="M63.813-97.601c-11.737,0-21.244,9.512-21.244,21.244h21.244V-97.601z"/>
	<path style="fill:#FFFFFF;" d="M63.813-22.015H31.482c-1.088,0-2.11-0.27-3.012-0.739L27.185-4.2l36.627-9.638V-22.015z"/>
	<polygon style="fill:#FFFFFF;" points="63.813,161.342 55.971,163.405 63.813,163.405 	"/>
	<polygon style="fill:#FFFFFF;" points="63.813,12.761 25.312,22.891 23.695,46.243 63.813,35.689 	"/>
	<polygon style="fill:#FFFFFF;" points="63.813,62.289 21.822,73.337 20.208,96.689 63.813,85.217 	"/>
	<polygon style="fill:#FFFFFF;" points="63.813,111.815 18.332,123.782 16.716,147.136 63.813,134.743 	"/>
	<polygon style="fill:#FF7845;" points="63.813,-13.838 27.185,-4.2 25.312,22.891 63.813,12.761 	"/>
	<polygon style="fill:#FF7845;" points="63.813,35.689 23.695,46.243 21.822,73.337 63.813,62.289 	"/>
	<polygon style="fill:#FF7845;" points="63.813,85.217 20.208,96.689 18.332,123.782 63.813,111.815 	"/>
	<polygon style="fill:#FF7845;" points="63.813,161.342 63.813,134.743 16.716,147.136 15.59,163.405 55.971,163.405 	"/>
	<polygon style="fill:#FFFFFF;" points="42.569,-76.356 42.488,-76.356 42.488,-59.848 50.454,-59.848 63.813,-59.848 
		63.813,-76.356 	"/>
	<path style="fill:#69E2DE;" d="M42.488-35.084H31.482c-3.611,0-6.535,2.926-6.535,6.534c0,2.522,1.431,4.707,3.523,5.796
		c0.901,0.47,1.924,0.739,3.012,0.739h32.331v-9.63v-3.439H42.488z"/>
	<path style="fill:#69E2DE;" d="M50.454-59.848h-7.966h-1.376c-3.229,0-5.847,2.617-5.847,5.847s2.617,5.847,5.847,5.847h1.376
		h21.325v-5.847v-1.112v-4.734H50.454z"/>
	<path style="fill:#FF7845;" d="M63.813,187.1v-19.897h-22.27H15.328l0.263-3.797H1.215v70.47h44.712v-28.891
		C45.927,195.106,53.935,187.1,63.813,187.1z"/>
	<polygon style="fill:#FF7845;" points="55.971,163.405 41.542,167.202 63.813,167.202 63.813,163.405 	"/>
	<polygon style="fill:#FF7845;" points="41.542,167.202 55.971,163.405 15.59,163.405 15.328,167.202 	"/>
	<path style="fill:#FBC16C;" d="M45.927,204.984v28.891h17.885V187.1C53.935,187.1,45.927,195.106,45.927,204.984z"/>
	<rect x="63.813" y="-48.154" style="fill:#EF3522;" width="21.324" height="13.07"/>
	<path style="fill:#EF3522;" d="M85.055-76.356c0-11.732-9.512-21.244-21.242-21.244v21.244H85.055z"/>
	<polygon style="fill:#DCDCDC;" points="63.813,-22.015 63.813,-13.838 94.889,-22.015 	"/>
	<polygon style="fill:#DCDCDC;" points="63.813,163.405 112.033,163.405 111.031,148.917 63.813,161.342 	"/>
	<polygon style="fill:#DCDCDC;" points="63.813,35.689 102.494,25.514 100.936,2.993 63.813,12.761 	"/>
	<polygon style="fill:#DCDCDC;" points="63.813,85.217 105.859,74.153 104.301,51.637 63.813,62.289 	"/>
	<polygon style="fill:#DCDCDC;" points="63.813,134.743 109.225,122.794 107.666,100.276 63.813,111.815 	"/>
	<path style="fill:#EF3522;" d="M94.889-22.015l-31.076,8.177v26.599l37.123-9.768l-1.781-25.747
		c-0.902,0.47-1.926,0.739-3.012,0.739H94.889z"/>
	<polygon style="fill:#EF3522;" points="63.813,62.289 104.301,51.637 102.494,25.514 63.813,35.689 	"/>
	<polygon style="fill:#EF3522;" points="63.813,111.815 107.666,100.276 105.859,74.153 63.813,85.217 	"/>
	<polygon style="fill:#EF3522;" points="63.813,161.342 111.031,148.917 109.225,122.794 63.813,134.743 	"/>
	<polygon style="fill:#DCDCDC;" points="85.055,-76.356 63.813,-76.356 63.813,-59.848 77.168,-59.848 85.137,-59.848 
		85.137,-76.356 	"/>
	<path style="fill:#00BEC5;" d="M96.143-35.084H85.137H63.813v3.439v9.63h31.076h1.254c1.086,0,2.109-0.27,3.012-0.739
		c2.092-1.09,3.523-3.273,3.523-5.796C102.678-32.158,99.748-35.084,96.143-35.084z"/>
	<path style="fill:#00BEC5;" d="M86.512-59.848h-1.375h-7.969H63.813v4.734v1.112v5.847h21.324h1.375
		c3.23,0,5.848-2.617,5.848-5.847S89.742-59.848,86.512-59.848z"/>
	<path style="fill:#EF3522;" d="M112.297,167.202H63.813V187.1c9.877,0,17.885,8.007,17.885,17.885v28.891h44.711v-70.47h-14.375
		L112.297,167.202z"/>
	<polygon style="fill:#EF3522;" points="63.813,167.202 112.297,167.202 112.033,163.405 63.813,163.405 	"/>
	<path style="fill:#FF9F00;" d="M63.813,187.1v46.775h17.885v-28.891C81.697,195.106,73.689,187.1,63.813,187.1z"/>
</g>
</svg>
