<?xml version="1.0" encoding="utf-8"?>
<!-- Generator: Adobe Illustrator 16.0.0, SVG Export Plug-In . SVG Version: 6.00 Build 0)  -->
<!DOCTYPE svg PUBLIC "-//W3C//DTD SVG 1.1//EN" "http://www.w3.org/Graphics/SVG/1.1/DTD/svg11.dtd">
<svg version="1.1" id="Layer_1" xmlns="http://www.w3.org/2000/svg" xmlns:xlink="http://www.w3.org/1999/xlink" x="0px" y="0px"
	 width="98.227px" height="109.061px" viewBox="0 0 98.227 109.061" style="enable-background:new 0 0 98.227 109.061;"
	 xml:space="preserve">
<g>
	<g>
		<g>
			<g>
				<path style="fill:#D19C74;" d="M35.447,86.624c-1.859,0-3.367,1.506-3.367,3.366c0,6.802-5.534,12.337-12.337,12.337
					c-6.316,0-11.53-4.773-12.246-10.897c-3.34,1.509-5.558,0.681-6.759-0.169c0.658,9.922,8.918,17.8,19.005,17.8
					c10.516,0,19.07-8.555,19.07-19.07C38.813,88.13,37.306,86.624,35.447,86.624z"/>
			</g>
		</g>
		<g>
			<g>
				<path style="fill:#4B190D;" d="M7.497,91.43c-0.056-0.474-0.092-0.952-0.092-1.439c0-1.415,0.238-2.804,0.708-4.126
					c0.619-1.753-0.295-3.676-2.048-4.299c-1.753-0.622-3.675,0.294-4.298,2.047c-0.727,2.047-1.094,4.194-1.094,6.378
					c0,0.428,0.035,0.849,0.064,1.271C1.939,92.11,4.157,92.938,7.497,91.43z"/>
			</g>
		</g>
	</g>
	<g>
		<g>
			<g>
				<g>
					<circle style="fill:#AF5B2B;" cx="24.578" cy="14.566" r="14.568"/>
				</g>
			</g>
			<g>
				<g>
					<circle style="fill:#4B190D;" cx="24.577" cy="14.566" r="8.398"/>
				</g>
			</g>
		</g>
		<g>
			<g>
				<g>
					<circle style="fill:#F5C799;" cx="73.904" cy="14.566" r="14.567"/>
				</g>
			</g>
			<g>
				<g>
					<circle style="fill:#4B190D;" cx="73.905" cy="14.566" r="8.399"/>
				</g>
			</g>
		</g>
	</g>
	<g>
		<g>
			<g>
				<circle style="fill:#F5C799;" cx="24.578" cy="14.566" r="14.568"/>
			</g>
		</g>
		<g>
			<g>
				<circle style="fill:#4B190D;" cx="24.577" cy="14.566" r="8.398"/>
			</g>
		</g>
	</g>
	<g>
		<g>
			<g>
				<path style="fill:#F5C799;" d="M68.239,100.058v-8.625c5.091-4.737,8.354-11.385,8.675-18.81
					c-5.587,8.367-15.698,13.98-27.289,14.009v12.152c1.672,0,3.299-0.172,4.891-0.459v1.732c-2.626,2.046-4.324,5.229-4.324,8.817
					h22.37C72.562,105.287,70.864,102.104,68.239,100.058z"/>
			</g>
		</g>
		<g>
			<g>
				<path style="fill:#D19C74;" d="M49.625,44.081c-15.108,0-27.354,12.246-27.354,27.353c0,0.495,0.052,0.977,0.079,1.465
					c0.357,0.524,0.735,1.036,1.128,1.537c-0.393-0.501-0.771-1.013-1.128-1.537c0.392,7.312,3.633,13.854,8.659,18.534v8.625
					c-2.625,2.046-4.32,5.229-4.32,8.817h22.367c0-3.588-1.694-6.771-4.323-8.817v-1.732c0.212,0.036,0.427,0.054,0.636,0.088
					c0.518,0.098,1.066,0.172,1.639,0.229c0.062,0.006,0.121,0.016,0.183,0.021c0.768,0.073,1.567,0.121,2.436,0.121V86.632
					c5.729-0.014,11.098-1.397,15.736-3.799c4.744-2.457,8.727-5.979,11.553-10.21c0.018-0.397,0.063-0.788,0.063-1.189
					C76.978,56.327,64.731,44.081,49.625,44.081z M24.828,76.027c0.399,0.438,0.807,0.868,1.23,1.281
					C25.635,76.894,25.228,76.466,24.828,76.027z M23.635,74.62c0.348,0.438,0.707,0.869,1.082,1.289
					C24.342,75.489,23.982,75.059,23.635,74.62z M26.1,77.346c2.302,2.249,4.991,4.166,7.976,5.667l0,0
					C31.091,81.513,28.4,79.598,26.1,77.346z M49.625,77.875v-5.192h0.003l-0.003,11.926V77.875z"/>
			</g>
		</g>
		<g>
			<g>
				<path style="fill:#F5C799;" d="M65.361,82.833c-4.639,2.401-10.008,3.785-15.736,3.799v12.152
					C61.464,98.784,63.824,92.243,65.361,82.833z"/>
			</g>
		</g>
	</g>
	<g>
		<g>
			<path style="fill:none;" d="M24.577,59.689c3.362,1.121,6.221,2.457,8.656,3.864c0.006-0.044,0.014-0.086,0.022-0.129
				C30.593,61.834,27.643,60.484,24.577,59.689z"/>
		</g>
	</g>
	<g>
		<g>
			<path style="fill:#E96332;" d="M49.607,11.93v0.004c0.014,0,0.024-0.001,0.035-0.001C49.632,11.933,49.621,11.93,49.607,11.93z"
				/>
		</g>
	</g>
	<g>
		<g>
			<path style="fill:#07171B;" d="M44.68,73.984h-0.004c0.006,0.008,0.013,0.018,0.016,0.026
				C44.688,74.001,44.682,73.992,44.68,73.984z"/>
		</g>
	</g>
	<g>
		<g>
			<path style="fill:#A84720;" d="M49.677,11.93c-0.012,0-0.023,0.003-0.034,0.003c0.011,0,0.022,0.001,0.034,0.001V11.93z"/>
		</g>
	</g>
	<g>
		<g>
			<path style="fill:#A84720;" d="M49.677,42.48V11.934c-0.012,0-0.023-0.001-0.034-0.001s-0.021,0.001-0.035,0.001v30.554
				C49.632,42.487,49.653,42.48,49.677,42.48z"/>
		</g>
	</g>
	<g>
		<g>
			<path style="fill:#A84720;" d="M49.607,72.679c0.014,0,0.024,0.003,0.035,0.003s0.022-0.003,0.034-0.003v-18.66V42.48
				c-0.023,0-0.045,0.007-0.069,0.007v11.531V72.679z"/>
		</g>
	</g>
	<g>
		<g>
			<path style="fill:#A84720;" d="M49.607,72.679v0.004c0.014,0,0.024-0.001,0.035-0.001C49.632,72.682,49.621,72.679,49.607,72.679
				z"/>
		</g>
	</g>
	<g>
		<g>
			<path style="fill:#F5C799;" d="M92.03,58.767c0.108,0.063,0.222,0.126,0.329,0.192c0,0-4.576-6.421-6.768-15.35
				c0-19.317-8.672-37.065-35.98-37.065v42.088v9.529c-0.007,0.004-0.013,0.005-0.02,0.008l0.02,7.368v1.757c0,0,0.001,0,0.003,0
				l0.031,11.93C72.572,82.162,93.19,60.049,93.19,60.049C92.886,59.599,92.494,59.172,92.03,58.767z"/>
		</g>
	</g>
	<g>
		<g>
			<path style="fill:#D19C74;" d="M13.678,43.609c-2.193,8.929-6.77,15.35-6.77,15.35c0.107-0.066,0.219-0.13,0.329-0.192
				c-0.464,0.405-0.857,0.832-1.16,1.282c0,0,10.879,11.657,25.615,16.917c0-0.618,0-2.396,0-7.016c0-5.246,0.64-7.818,1.214-9.079
				c6,2.372,10.58,5.249,11.77,7.754c1.483-0.823,3.167-1.331,4.983-1.331V48.632V6.544C22.35,6.544,13.678,24.292,13.678,43.609z"
				/>
		</g>
	</g>
	<g>
		<g>
			<path style="fill:#D5D2B1;" d="M37.864,57.367c-1.472,0.605-2.881,1.359-4.066,2.322c0,0-2.105,0.751-2.105,10.261
				c0,4.619,0,6.397,0,7.016c5.555,1.982,11.32,3.604,17.933,3.604l0.052-22.4C43.483,55.122,41.013,56.372,37.864,57.367z"/>
		</g>
	</g>
	<g>
		<g>
			<path style="fill:#F6F3CF;" d="M61.374,57.367c1.473,0.605,2.884,1.359,4.071,2.322c0,0,2.103,0.751,2.103,10.261
				c0,4.619,0,6.397,0,7.016c-5.555,1.982-11.681,3.604-17.932,3.604l-0.052-22.4C55.757,55.122,58.229,56.372,61.374,57.367z"/>
		</g>
	</g>
	<g>
		<g>
			<g>
				<path style="fill:#4B190D;" d="M25.46,37.096c0,0,14.979-4.344,14.643,10.89C40.103,47.985,25.46,53.303,25.46,37.096z"/>
			</g>
		</g>
		<g>
			<g>
				<circle style="fill:#B66916;" cx="32.955" cy="42.833" r="5.555"/>
			</g>
		</g>
		<g>
			<g>
				<circle style="fill:#FFFFFF;" cx="34.812" cy="40.539" r="1.915"/>
			</g>
		</g>
		<g>
			<g>
				<path style="fill:#4B190D;" d="M73.904,37.096c0,0-14.98-4.344-14.641,10.89C59.264,47.985,73.904,53.303,73.904,37.096z"/>
			</g>
		</g>
		<g>
			<g>
				<circle style="fill:#B66916;" cx="66.313" cy="42.833" r="5.555"/>
			</g>
		</g>
		<g>
			<g>
				<circle style="fill:#FFFFFF;" cx="68.496" cy="40.539" r="1.916"/>
			</g>
		</g>
	</g>
	<g>
		<g>
			<g>
				<g>
					<path style="fill:#D76C79;" d="M48.737,63.532c-0.834-0.152-1.544-0.514-2.014-1.065c-2.21-2.59-5.128-4.386-6.683-5.264
						c1.518-0.459,4.655-1.173,9.551-1.173c4.83,0,7.996,0.718,9.524,1.176c-2.77,1.696-5.187,3.571-6.876,5.345
						c-0.475,0.5-1.107,0.829-1.879,0.981H48.737z"/>
				</g>
			</g>
			<g>
				<g>
					<path style="fill:#4B190D;" d="M49.592,56.586c3.723,0,6.435,0.432,8.149,0.829c-2.367,1.537-4.383,3.156-5.901,4.754
						c-0.387,0.403-0.901,0.674-1.535,0.808h-1.467c-0.754-0.145-1.322-0.437-1.69-0.87c-1.795-2.101-4.033-3.688-5.675-4.702
						C43.191,57.008,45.888,56.586,49.592,56.586 M49.592,55.474c-7.381,0-10.909,1.621-10.886,1.621l0.002-0.001
						c0.085,0.121,4.551,2.169,7.595,5.734c0.637,0.748,1.54,1.104,2.435,1.26h1.677c0.82-0.154,1.614-0.511,2.229-1.154
						c3.175-3.336,7.737-5.813,7.778-5.858C60.422,57.075,56.892,55.474,49.592,55.474L49.592,55.474z"/>
				</g>
			</g>
		</g>
		<g>
			<g>
				<path style="fill:#4B190D;" d="M48.918,67.783c-1.371,2.366-3.103,3.708-5.151,3.988c-4.637,0.622-9.561-4.234-9.608-4.282
					c-0.265-0.266-0.689-0.266-0.954-0.003c-0.263,0.263-0.263,0.687-0.002,0.953c0.206,0.205,4.778,4.734,9.707,4.734
					c0.345,0,0.689-0.021,1.035-0.067c2.237-0.306,4.132-1.605,5.647-3.863c1.517,2.258,3.411,3.558,5.645,3.863
					c0.349,0.047,0.694,0.067,1.039,0.067c4.93,0,9.499-4.529,9.704-4.734c0.264-0.267,0.263-0.69,0-0.953
					c-0.263-0.26-0.691-0.263-0.954,0.003c-0.049,0.048-4.965,4.9-9.604,4.282c-2.054-0.284-3.78-1.613-5.157-3.988v-3.664
					c0.052-0.005,0.1-0.022,0.15-0.031h-1.677c0.061,0.01,0.121,0.027,0.181,0.037V67.783z"/>
			</g>
		</g>
	</g>
	<g>
		<g>
			<circle style="fill:none;" cx="5.052" cy="84.608" r="3.941"/>
		</g>
	</g>
	<g>
		<g>
			<g>
				<g>
					<g>
						<path style="fill:#8E6451;" d="M0.674,68.157c-0.164,0-0.326-0.059-0.456-0.177c-0.272-0.251-0.293-0.677-0.041-0.951
							c13.3-14.511,33.944-6.388,34.15-6.306c0.346,0.141,0.513,0.531,0.373,0.878c-0.14,0.345-0.532,0.511-0.877,0.372
							c-0.199-0.081-19.991-7.848-32.654,5.964C1.036,68.083,0.854,68.157,0.674,68.157z"/>
					</g>
				</g>
			</g>
			<g>
				<g>
					<g>
						<path style="fill:#8E6451;" d="M5.053,72.39c-0.17,0-0.339-0.062-0.47-0.188c-0.267-0.26-0.273-0.687-0.015-0.952
							c12.455-12.842,28.705-8.519,28.866-8.475c0.357,0.1,0.569,0.469,0.468,0.829c-0.098,0.357-0.463,0.568-0.828,0.47
							c-0.154-0.045-15.651-4.142-27.54,8.112C5.403,72.322,5.228,72.39,5.053,72.39z"/>
					</g>
				</g>
			</g>
			<g>
				<g>
					<g>
						<path style="fill:#8E6451;" d="M10.646,77.104c-0.132,0-0.269-0.04-0.387-0.123c-0.303-0.214-0.375-0.634-0.163-0.938
							c8.63-12.261,23.08-11.065,23.221-11.055c0.37,0.035,0.643,0.363,0.608,0.732c-0.035,0.37-0.342,0.646-0.733,0.608
							c-0.137-0.012-13.821-1.123-21.993,10.489C11.067,77.004,10.859,77.104,10.646,77.104z"/>
					</g>
				</g>
			</g>
		</g>
		<g>
			<g>
				<g>
					<g>
						<path style="fill:#8E6451;" d="M97.555,68.157c-0.184,0-0.363-0.074-0.496-0.22c-12.663-13.812-32.455-6.043-32.656-5.964
							c-0.345,0.138-0.736-0.027-0.876-0.372c-0.14-0.347,0.027-0.737,0.371-0.878c0.206-0.082,20.854-8.205,34.152,6.306
							c0.251,0.274,0.232,0.7-0.042,0.951C97.88,68.099,97.717,68.157,97.555,68.157z"/>
					</g>
				</g>
			</g>
			<g>
				<g>
					<g>
						<path style="fill:#8E6451;" d="M93.174,72.39c-0.175,0-0.35-0.067-0.481-0.204c-11.906-12.271-27.383-8.157-27.54-8.112
							c-0.36,0.099-0.729-0.112-0.828-0.47c-0.101-0.359,0.11-0.729,0.468-0.829c0.162-0.044,16.408-4.368,28.867,8.475
							c0.257,0.266,0.25,0.692-0.017,0.952C93.512,72.328,93.344,72.39,93.174,72.39z"/>
					</g>
				</g>
			</g>
			<g>
				<g>
					<g>
						<path style="fill:#8E6451;" d="M87.579,77.104c-0.214,0-0.421-0.1-0.552-0.286c-8.173-11.615-21.859-10.503-21.993-10.489
							c-0.39,0.028-0.699-0.241-0.733-0.608c-0.033-0.369,0.238-0.697,0.608-0.732c0.145-0.011,14.592-1.206,23.221,11.055
							c0.212,0.305,0.141,0.725-0.165,0.938C87.85,77.063,87.713,77.104,87.579,77.104z"/>
					</g>
				</g>
			</g>
		</g>
	</g>
</g>
</svg>
