<?xml version="1.0" encoding="utf-8"?>
<!-- Generator: Adobe Illustrator 16.0.0, SVG Export Plug-In . SVG Version: 6.00 Build 0)  -->
<!DOCTYPE svg PUBLIC "-//W3C//DTD SVG 1.1//EN" "http://www.w3.org/Graphics/SVG/1.1/DTD/svg11.dtd">
<svg version="1.1" id="Layer_1" xmlns="http://www.w3.org/2000/svg" xmlns:xlink="http://www.w3.org/1999/xlink" x="0px" y="0px"
	 width="102.355px" height="120.377px" viewBox="0 0 102.355 120.377" style="enable-background:new 0 0 102.355 120.377;"
	 xml:space="preserve">
<g>
	<g>
		<g>
			<g>
				<path style="fill:#D19C74;" d="M41.628,90.443c-0.003,0.006-0.007,0.012-0.01,0.016c1.83,0.913,3.731,1.942,5.706,3.101
					c1.262,0.74,2.545,1.516,3.87,2.367V84.002V55.399c-15.107,0-27.352,12.246-27.352,27.353c0,0.495,0.049,0.977,0.074,1.466
					c2.886,4.21,6.931,7.701,11.729,10.112c-0.309-1.814-0.584-3.724-0.88-5.729C36.915,89.254,39.2,89.874,41.628,90.443z"/>
			</g>
		</g>
		<g>
			<g>
				<path style="fill:#D19C74;" d="M51.194,55.399v28.603h0.001v11.925c1.324-0.852,2.604-1.627,3.872-2.367
					c1.973-1.158,3.874-2.188,5.704-3.101c2.477-0.579,4.804-1.212,6.99-1.88c-0.287,1.941-0.545,3.808-0.831,5.572
					c4.744-2.456,8.727-5.978,11.552-10.208c0.019-0.398,0.064-0.79,0.064-1.191C78.547,67.646,66.302,55.399,51.194,55.399z"/>
			</g>
		</g>
		<g>
			<g>
				<path style="fill:#D19C74;" d="M51.194,97.95v-8.756c-1.325-0.852-2.608-1.625-3.87-2.367c-1.975-1.159-5.706,2.286-5.706,2.286
					c0-0.006-4.703,0.141-6.852-0.513c0.296,2.006,0.571,3.915,0.88,5.729c4.575,2.304,9.844,3.624,15.463,3.624
					C51.137,97.954,51.165,97.95,51.194,97.95z"/>
			</g>
		</g>
		<g>
			<g>
				<path style="fill:#D19C74;" d="M60.523,89.264c-1.828,0.913-3.483-3.596-5.456-2.437c-1.269,0.742-2.548,1.516-3.872,2.367
					v-5.192l0,0l-0.001,11.925v2.023c5.729-0.014,11.098-1.397,15.736-3.799c0.286-1.765,0.544-3.631,0.831-5.572
					C65.575,89.247,63.001,88.683,60.523,89.264z"/>
			</g>
		</g>
		<g>
			<g>
				<path style="fill:#D19C74;" d="M46.938,109.731c0.518,0.098,1.067,0.173,1.638,0.231c0.062,0.005,0.122,0.015,0.184,0.021
					c0.768,0.071,1.567,0.119,2.436,0.119V97.95c-0.029,0-0.058,0.004-0.085,0.004c-0.709,0-1.412-0.021-2.108-0.063
					c-0.37-0.021-0.729-0.064-1.092-0.096c-0.322-0.029-0.649-0.05-0.969-0.087c-0.495-0.06-0.982-0.139-1.471-0.216
					c-0.181-0.03-0.362-0.051-0.542-0.084c-0.574-0.102-1.141-0.223-1.704-0.354c-0.085-0.02-0.17-0.034-0.253-0.054
					c-0.624-0.148-1.241-0.316-1.851-0.5c-0.018-0.004-0.038-0.008-0.058-0.015c-1.89-0.568-3.702-1.293-5.416-2.156l0,0
					c-4.799-2.41-8.844-5.902-11.729-10.112c0.394,7.311,3.635,13.854,8.661,18.535v8.624c-2.625,2.044-4.32,5.229-4.32,8.816
					h22.367c0-3.587-1.694-6.772-4.321-8.816v-1.733C46.514,109.681,46.727,109.698,46.938,109.731z"/>
			</g>
		</g>
		<g>
			<g>
				<path style="fill:#F5C799;" d="M69.811,111.377v-8.624c5.088-4.739,8.351-11.389,8.672-18.81
					c-2.825,4.229-6.808,7.752-11.552,10.208l0,0c-2.319,1.2-4.82,2.146-7.457,2.793c-0.037,0.011-0.074,0.017-0.111,0.026
					c-0.622,0.149-1.25,0.287-1.888,0.403c-0.111,0.019-0.226,0.033-0.335,0.052c-0.567,0.098-1.139,0.191-1.713,0.262
					c-0.252,0.031-0.511,0.045-0.766,0.07c-0.441,0.047-0.885,0.095-1.329,0.124c-0.707,0.042-1.42,0.067-2.138,0.068v12.152
					c1.7,0,3.187-0.148,4.521-0.407c0.123-0.021,0.249-0.03,0.369-0.052v1.733c-2.627,2.044-4.323,5.229-4.323,8.816h22.371
					C74.132,116.606,72.435,113.421,69.811,111.377z"/>
			</g>
		</g>
	</g>
	<g>
		<g>
			<g>
				<path style="fill:#D19C74;" d="M37.018,97.942c-1.861,0-3.368,1.508-3.368,3.366c0,6.801-5.534,12.336-12.335,12.336
					c-6.316,0-11.532-4.771-12.248-10.896c-3.34,1.509-5.561,0.681-6.761-0.17c0.661,9.924,8.921,17.799,19.009,17.799
					c10.513,0,19.068-8.553,19.068-19.068C40.383,99.45,38.875,97.942,37.018,97.942z"/>
			</g>
		</g>
		<g>
			<g>
				<path style="fill:#4B190D;" d="M9.066,102.748c-0.056-0.473-0.092-0.952-0.092-1.439c0-1.416,0.238-2.804,0.708-4.125
					c0.621-1.754-0.297-3.679-2.048-4.299c-1.752-0.622-3.675,0.294-4.297,2.047c-0.728,2.049-1.094,4.193-1.094,6.377
					c0,0.429,0.036,0.848,0.062,1.27C3.506,103.429,5.727,104.257,9.066,102.748z"/>
			</g>
		</g>
	</g>
	<g>
		<g>
			<path style="fill:#AF5B2B;" d="M102.355,53.806c0,53.803-47.408,47.016-51.178,53.803l0,0C42.979,99.545,0,107.608,0,53.806
				C0,24.091,6.622,0,51.178,0C99.124,0,102.355,24.091,102.355,53.806z"/>
		</g>
	</g>
	<g>
		<g>
			<g>
				<g>
					<circle style="fill:#AF5B2B;" cx="26.146" cy="25.884" r="14.569"/>
				</g>
			</g>
			<g>
				<g>
					<circle style="fill:#4B190D;" cx="26.146" cy="25.884" r="8.397"/>
				</g>
			</g>
		</g>
		<g>
			<g>
				<g>
					<circle style="fill:#F5C799;" cx="75.475" cy="25.884" r="14.567"/>
				</g>
			</g>
			<g>
				<g>
					<circle style="fill:#4B190D;" cx="75.473" cy="25.884" r="8.398"/>
				</g>
			</g>
		</g>
	</g>
	<g>
		<g>
			<g>
				<circle style="fill:#F5C799;" cx="26.146" cy="25.884" r="14.569"/>
			</g>
		</g>
		<g>
			<g>
				<circle style="fill:#4B190D;" cx="26.146" cy="25.884" r="8.397"/>
			</g>
		</g>
	</g>
	<g>
		<g>
			<path style="fill:none;" d="M26.145,71.008c3.365,1.121,6.225,2.457,8.658,3.866c0.007-0.045,0.014-0.089,0.022-0.133
				C32.163,73.152,29.213,71.803,26.145,71.008z"/>
		</g>
	</g>
	<g>
		<g>
			<path style="fill:#E96332;" d="M51.178,23.249v0.003c0.013,0,0.022-0.002,0.033-0.002C51.2,23.25,51.19,23.249,51.178,23.249z"/>
		</g>
	</g>
	<g>
		<g>
			<path style="fill:#07171B;" d="M46.25,85.303c0,0.001-0.003,0.001-0.003,0.001c0.005,0.008,0.012,0.018,0.017,0.026
				C46.259,85.321,46.252,85.311,46.25,85.303z"/>
		</g>
	</g>
	<g>
		<g>
			<path style="fill:#A84720;" d="M51.246,23.249c-0.011,0-0.022,0.001-0.035,0.001c0.013,0,0.024,0.002,0.035,0.002V23.249z"/>
		</g>
	</g>
	<g>
		<g>
			<path style="fill:#A84720;" d="M51.246,53.8V23.252c-0.011,0-0.022-0.002-0.035-0.002c-0.011,0-0.021,0.002-0.033,0.002v30.554
				C51.2,53.806,51.224,53.8,51.246,53.8z"/>
		</g>
	</g>
	<g>
		<g>
			<path style="fill:#A84720;" d="M51.178,83.997c0.013,0,0.022,0.002,0.033,0.002c0.013,0,0.024-0.002,0.035-0.002v-18.66V53.8
				c-0.022,0-0.046,0.006-0.068,0.006v11.531V83.997z"/>
		</g>
	</g>
	<g>
		<g>
			<path style="fill:#A84720;" d="M51.178,83.997v0.005c0.013,0,0.022-0.003,0.033-0.003C51.2,83.999,51.19,83.997,51.178,83.997z"
				/>
		</g>
	</g>
	<g>
		<g>
			<path style="fill:#D19C74;" d="M15.248,54.927c0.039,9.248,2.501,25.034,2.501,25.034s0.776,3.063,15.513,8.323
				c0-0.618,0-2.396,0-7.016c0-5.246,0.642-7.817,1.214-9.078c6.001,2.372,10.581,5.248,11.771,7.753
				c1.481-0.822,3.164-1.333,4.98-1.333V59.949V17.862C23.917,17.862,15.164,35.609,15.248,54.927z"/>
		</g>
	</g>
	<g>
		<g>
			<path style="fill:#D5D2B1;" d="M39.434,68.687c-1.471,0.604-2.881,1.356-4.066,2.321c0,0-2.105,0.752-2.105,10.261
				c0,4.62,0,6.397,0,7.016c5.556,1.982,11.32,3.603,17.933,3.603l0.052-22.398C45.053,66.441,42.582,67.69,39.434,68.687z"/>
		</g>
	</g>
	<g>
		<g>
			<g>
				<path style="fill:#F5C799;" d="M84.654,79.95c0,0,2.43-16.082,2.504-25.023c0.165-19.316-8.671-37.064-35.978-37.064v42.087
					v9.516c6.155-3.016,8.626-1.771,11.763-0.778c1.473,0.604,2.884,1.356,4.07,2.321c0,0,2.104,0.752,2.104,10.261
					c0,4.597,0,6.378,0,7.003C83.863,83.016,84.654,79.95,84.654,79.95z"/>
			</g>
		</g>
		<g>
			<g>
				<path style="fill:#F6F3CF;" d="M51.214,90.541l-0.03-11.931h-0.003v-1.754l-0.02-7.368c0.007-0.004,0.013-0.007,0.02-0.009
					v-0.015c-0.016,0.009-0.032,0.015-0.047,0.023l0.054,22.398c5.624,0,11.146-1.316,16.243-3.023
					C62.345,90.466,56.851,91.264,51.214,90.541z"/>
			</g>
		</g>
		<g>
			<g>
				<path style="fill:#F6F3CF;" d="M67.014,71.008c-1.187-0.965-2.598-1.717-4.07-2.321c-3.137-0.992-5.607-2.237-11.763,0.778
					v0.015c-0.007,0.002-0.013,0.005-0.02,0.009l0.02,7.368v1.754h0.003l0.03,11.931c5.637,0.723,11.131-0.075,16.217-1.678
					c0.572-0.182,1.126-0.393,1.687-0.592c0-0.625,0-2.406,0-7.003C69.117,71.76,67.014,71.008,67.014,71.008z"/>
			</g>
		</g>
		<g>
			<g>
				<path style="fill:#F6F3CF;" d="M69.117,88.284c0-0.005,0-0.009,0-0.013c-0.561,0.199-1.114,0.41-1.687,0.592
					C67.998,88.673,68.563,88.48,69.117,88.284z"/>
			</g>
		</g>
	</g>
	<g>
		<g>
			<g>
				<path style="fill:#4B190D;" d="M27.029,48.415c0,0,14.979-4.345,14.642,10.889C41.671,59.304,27.029,64.622,27.029,48.415z"/>
			</g>
		</g>
		<g>
			<g>
				<circle style="fill:#B66916;" cx="34.525" cy="54.151" r="5.554"/>
			</g>
		</g>
		<g>
			<g>
				<circle style="fill:#FFFFFF;" cx="36.381" cy="51.856" r="1.915"/>
			</g>
		</g>
		<g>
			<g>
				<path style="fill:#4B190D;" d="M75.475,48.415c0,0-14.979-4.345-14.645,10.889C60.83,59.304,75.475,64.622,75.475,48.415z"/>
			</g>
		</g>
		<g>
			<g>
				<circle style="fill:#B66916;" cx="67.882" cy="54.151" r="5.553"/>
			</g>
		</g>
		<g>
			<g>
				<circle style="fill:#FFFFFF;" cx="70.066" cy="51.856" r="1.915"/>
			</g>
		</g>
	</g>
	<g>
		<g>
			<g>
				<g>
					<path style="fill:#D76C79;" d="M50.307,74.851c-0.834-0.151-1.542-0.514-2.014-1.063c-2.21-2.591-5.128-4.388-6.684-5.265
						c1.517-0.462,4.655-1.172,9.552-1.172c4.832,0,7.996,0.716,9.524,1.174c-2.8,1.711-5.164,3.547-6.876,5.345
						c-0.476,0.498-1.108,0.828-1.881,0.981H50.307z"/>
				</g>
			</g>
			<g>
				<g>
					<path style="fill:#4B190D;" d="M51.161,67.905c3.723,0,6.435,0.431,8.149,0.831c-2.369,1.536-4.387,3.157-5.901,4.749
						c-0.385,0.403-0.901,0.677-1.535,0.809h-1.467c-0.753-0.143-1.322-0.435-1.69-0.866c-1.796-2.105-4.033-3.691-5.674-4.704
						C44.761,68.326,47.456,67.905,51.161,67.905 M51.161,66.795c-7.38,0-10.91,1.618-10.886,1.618c0,0,0,0,0.002,0
						c0.085,0.121,4.551,2.168,7.595,5.734c0.637,0.747,1.539,1.104,2.435,1.259h1.676c0.823-0.153,1.615-0.511,2.23-1.153
						c3.174-3.335,7.739-5.814,7.777-5.859C61.99,68.394,58.463,66.795,51.161,66.795L51.161,66.795z"/>
				</g>
			</g>
		</g>
		<g>
			<g>
				<path style="fill:#4B190D;" d="M50.488,79.103c-1.371,2.367-3.104,3.708-5.152,3.987c-4.637,0.622-9.561-4.234-9.608-4.281
					c-0.265-0.267-0.691-0.267-0.954-0.003c-0.263,0.263-0.263,0.688-0.001,0.952c0.204,0.205,4.775,4.735,9.706,4.735
					c0.345,0,0.689-0.021,1.036-0.068c2.234-0.306,4.129-1.604,5.646-3.863c1.515,2.259,3.411,3.558,5.646,3.863
					c0.345,0.047,0.694,0.068,1.037,0.068c4.93,0,9.501-4.53,9.708-4.735c0.261-0.265,0.26-0.689-0.003-0.955
					c-0.265-0.26-0.692-0.26-0.954,0.006c-0.049,0.047-4.965,4.897-9.604,4.281c-2.056-0.284-3.78-1.612-5.156-3.987v-3.663
					c0.05-0.009,0.099-0.023,0.148-0.033h-1.676c0.061,0.01,0.121,0.028,0.182,0.037V79.103z"/>
			</g>
		</g>
	</g>
	<g>
		<g>
			<circle style="fill:none;" cx="6.623" cy="95.927" r="3.941"/>
		</g>
	</g>
	<g>
		<g>
			<g>
				<g>
					<g>
						<path style="fill:#8E6451;" d="M2.244,79.476c-0.165,0-0.327-0.059-0.457-0.178c-0.273-0.251-0.292-0.677-0.041-0.95
							c13.3-14.51,33.945-6.39,34.15-6.304c0.346,0.139,0.512,0.53,0.373,0.875c-0.141,0.347-0.532,0.51-0.878,0.372
							c-0.195-0.079-19.989-7.846-32.652,5.966C2.604,79.401,2.425,79.476,2.244,79.476z"/>
					</g>
				</g>
			</g>
			<g>
				<g>
					<g>
						<path style="fill:#8E6451;" d="M6.622,83.709c-0.169,0-0.339-0.062-0.47-0.189c-0.268-0.259-0.273-0.686-0.017-0.952
							c12.46-12.842,28.704-8.518,28.868-8.476c0.358,0.101,0.568,0.471,0.471,0.829c-0.101,0.36-0.466,0.569-0.83,0.469
							c-0.155-0.041-15.654-4.14-27.541,8.114C6.973,83.641,6.798,83.709,6.622,83.709z"/>
					</g>
				</g>
			</g>
			<g>
				<g>
					<g>
						<path style="fill:#8E6451;" d="M12.219,88.423c-0.135,0-0.27-0.04-0.39-0.124c-0.304-0.213-0.375-0.633-0.162-0.937
							c8.629-12.262,23.078-11.066,23.219-11.057c0.37,0.034,0.644,0.363,0.609,0.733c-0.033,0.367-0.34,0.646-0.733,0.608
							c-0.132-0.014-13.821-1.124-21.993,10.489C12.637,88.323,12.43,88.423,12.219,88.423z"/>
					</g>
				</g>
			</g>
		</g>
		<g>
			<g>
				<g>
					<g>
						<path style="fill:#8E6451;" d="M99.124,79.476c-0.184,0-0.363-0.074-0.498-0.219c-12.663-13.812-32.455-6.045-32.652-5.966
							c-0.345,0.138-0.738-0.027-0.877-0.372c-0.141-0.345,0.027-0.736,0.372-0.875c0.206-0.086,20.851-8.206,34.15,6.304
							c0.25,0.273,0.232,0.699-0.042,0.95C99.448,79.417,99.287,79.476,99.124,79.476z"/>
					</g>
				</g>
			</g>
			<g>
				<g>
					<g>
						<path style="fill:#8E6451;" d="M94.743,83.709c-0.177,0-0.35-0.068-0.48-0.205c-11.909-12.271-27.387-8.157-27.541-8.114
							c-0.361,0.102-0.729-0.11-0.828-0.468c-0.101-0.359,0.108-0.729,0.468-0.83c0.161-0.042,16.408-4.366,28.868,8.476
							c0.257,0.267,0.25,0.693-0.016,0.952C95.081,83.646,94.913,83.709,94.743,83.709z"/>
					</g>
				</g>
			</g>
			<g>
				<g>
					<g>
						<path style="fill:#8E6451;" d="M89.148,88.423c-0.213,0-0.421-0.1-0.55-0.286c-8.177-11.615-21.86-10.502-21.997-10.489
							c-0.385,0.027-0.697-0.241-0.731-0.608c-0.033-0.37,0.239-0.699,0.611-0.733c0.139-0.01,14.587-1.206,23.218,11.057
							c0.213,0.304,0.141,0.724-0.164,0.937C89.419,88.383,89.281,88.423,89.148,88.423z"/>
					</g>
				</g>
			</g>
		</g>
	</g>
	<g>
		<g>
			<polygon style="fill:#AF5B2B;" points="51.134,33.553 39.116,19.261 51.134,12.343 62.589,19.084 			"/>
		</g>
	</g>
</g>
</svg>
