<?xml version="1.0" encoding="utf-8"?>
<!-- Generator: Adobe Illustrator 16.0.0, SVG Export Plug-In . SVG Version: 6.00 Build 0)  -->
<!DOCTYPE svg PUBLIC "-//W3C//DTD SVG 1.1//EN" "http://www.w3.org/Graphics/SVG/1.1/DTD/svg11.dtd">
<svg version="1.1" id="Layer_1" xmlns="http://www.w3.org/2000/svg" xmlns:xlink="http://www.w3.org/1999/xlink" x="0px" y="0px"
	 width="96.855px" height="124.244px" viewBox="0 0 96.855 124.244" style="enable-background:new 0 0 96.855 124.244;"
	 xml:space="preserve">
<g>
	<g>
		<g>
			<g>
				<rect x="32.359" y="104.753" style="fill:#723E2B;" width="13.824" height="14.974"/>
			</g>
		</g>
		<g>
			<g>
				<rect x="52.764" y="104.753" style="fill:#8E6451;" width="13.827" height="14.974"/>
			</g>
		</g>
		<g>
			<g>
				<path style="fill:#F5C799;" d="M39.271,114.498c-5.383,0-9.745,4.362-9.745,9.746h19.489
					C49.016,118.86,44.653,114.498,39.271,114.498z"/>
			</g>
		</g>
		<g>
			<g>
				<path style="fill:#F5C799;" d="M59.676,114.498c-5.381,0-9.745,4.362-9.745,9.746h19.493
					C69.424,118.86,65.06,114.498,59.676,114.498z"/>
			</g>
		</g>
	</g>
	<g>
		<g>
			<g>
				<path style="fill:#723E2B;" d="M27.477,82.964c-0.719,2.211-1.12,4.564-1.12,7.016c0,12.516,10.146,22.661,22.659,22.661V93.684
					C39.912,93.684,31.956,89.39,27.477,82.964z"/>
			</g>
		</g>
		<g>
			<g>
				<path style="fill:#8E6451;" d="M49.016,93.684v18.957c12.515,0,22.661-10.146,22.661-22.661c0-2.451-0.4-4.805-1.118-7.016
					C66.076,89.39,58.12,93.684,49.016,93.684z"/>
			</g>
		</g>
		<g>
			<g>
				<path style="fill:#723E2B;" d="M49.016,67.321c-10.061,0-18.583,6.563-21.539,15.643c4.479,6.426,12.436,10.72,21.539,10.72
					c9.104,0,17.061-4.294,21.543-10.72C67.6,73.885,59.079,67.321,49.016,67.321z"/>
			</g>
		</g>
	</g>
	<g>
		<g>
			<g>
				<g>
					<g>
						<circle style="fill:#723E2B;" cx="12.005" cy="49.917" r="12.005"/>
					</g>
				</g>
				<g>
					<g>
						<circle style="fill:#D76C79;" cx="12.005" cy="49.917" r="7.824"/>
					</g>
				</g>
			</g>
			<g>
				<g>
					<g>
						<circle style="fill:#8E6451;" cx="84.849" cy="49.917" r="12.006"/>
					</g>
				</g>
				<g>
					<g>
						<circle style="fill:#D76C79;" cx="84.848" cy="49.917" r="7.824"/>
					</g>
				</g>
			</g>
		</g>
		<g>
			<g>
				<g>
					<path style="fill:#723E2B;" d="M54.094,0c0.242,1.438-0.242,5.067-3.729,9.019c-1.537,1.741-1.397,1.387-1.985,2.263
						c-0.589,0.879-1.315,1.664-2.201,2.344c-0.901,0.667-1.204,1.061-2.634,1.373c-0.247-1.442-0.435-1.719-0.535-3.506
						c-0.062-1.113,0.187-2.672,0.777-3.546c0.594-0.875,1.251-1.804,2.674-2.774C47.365,4.504,52.811,2.428,54.094,0z"/>
				</g>
			</g>
			<g>
				<g>
					<path style="fill:#723E2B;" d="M58.501,3.878c0.245,1.437-0.798,7.957-3.435,8.954c-0.294,1.074-2.023,0.6-2.611,1.479
						c-0.586,0.878-1.316,1.662-2.201,2.341c-0.899,0.667-1.925,1.253-3.355,1.564c-0.247-1.44-0.094-2.61,0.188-3.697
						c0.296-1.074,0.657-3.978,3.547-5.257C54.82,7.408,56.593,6.307,58.501,3.878z"/>
				</g>
			</g>
		</g>
		<g>
			<g>
				<g>
					<path style="fill:#723E2B;" d="M11.699,48.362c0,20.608,16.708,37.316,37.316,37.316V11.046
						C28.407,11.046,11.699,27.753,11.699,48.362z"/>
				</g>
			</g>
			<g>
				<g>
					<path style="fill:#8E6451;" d="M86.332,48.362c0-20.609-16.706-37.316-37.316-37.316v74.633
						C69.626,85.679,86.332,68.971,86.332,48.362z"/>
				</g>
			</g>
		</g>
		<g>
			<g>
				<g>
					<path style="fill:#F5C799;" d="M81.933,45.6c0-9.237-7.49-16.727-16.729-16.727c-7.804,0-14.338,5.351-16.188,12.577
						c-1.848-7.227-8.384-12.577-16.187-12.577c-9.238,0-16.729,7.489-16.729,16.727c0,9.239,7.49,16.728,16.729,16.728v8.633
						c0,9.239,7.489,16.727,16.728,16.727s16.728-7.487,16.728-16.727v-8.688C75.016,61.714,81.933,54.474,81.933,45.6z"/>
				</g>
			</g>
			<g>
				<g>
					<g>
						<circle style="fill:#411611;" cx="44.701" cy="62.058" r="2.427"/>
					</g>
				</g>
				<g>
					<g>
						<circle style="fill:#411611;" cx="53.332" cy="62.058" r="2.428"/>
					</g>
				</g>
			</g>
			<g>
				<g>
					<g>
						<g>
							<path style="fill:#411611;" d="M38.356,47.221c0,3.313-2.686,5.998-5.997,5.998c-3.314,0-6.003-2.686-6.003-5.998
								c0-3.314,2.688-6.003,6.003-6.003C35.671,41.218,38.356,43.906,38.356,47.221z"/>
						</g>
					</g>
				</g>
				<g>
					<g>
						<g>
							<circle style="fill:#411611;" cx="65.676" cy="47.221" r="6"/>
						</g>
					</g>
				</g>
				<g>
					<g>
						<circle style="fill:#FFFFFF;" cx="34.383" cy="45.218" r="2"/>
					</g>
				</g>
				<g>
					<g>
						<circle style="fill:#FFFFFF;" cx="67.675" cy="45.218" r="2.001"/>
					</g>
				</g>
			</g>
			<g>
				<g>
					<g>
						<g>
							<path style="fill:#411611;" d="M49.016,82.361c-6.091,0-8.519-3.426-8.618-3.571c-0.175-0.253-0.111-0.599,0.141-0.773
								c0.253-0.175,0.599-0.109,0.771,0.144c0.099,0.135,2.243,3.091,7.706,3.091c5.016,0,7.715-3.104,7.74-3.137
								c0.2-0.232,0.551-0.261,0.783-0.063c0.232,0.2,0.262,0.55,0.062,0.783C57.479,78.979,54.54,82.361,49.016,82.361z"/>
						</g>
					</g>
				</g>
			</g>
		</g>
	</g>
	<g>
		<g>
			<g>
				<path style="fill:#F5C799;" d="M60.012,103.335c-3.129,0-5.666-2.536-5.666-5.666c0-3.129,2.537-5.665,5.666-5.665"/>
			</g>
		</g>
		<g>
			<g>
				<path style="fill:#F5C799;" d="M38.021,103.335c3.128,0,5.664-2.536,5.664-5.666c0-3.129-2.536-5.665-5.664-5.665"/>
			</g>
		</g>
	</g>
	<g>
		<g>
			<g>
				<path style="fill:#723E2B;" d="M32.721,91.521c-1.788,0-3.236,1.449-3.236,3.236c0,5.468-4.449,9.917-9.916,9.917
					c-5.468,0-9.913-4.449-9.913-9.917c0-3.698,2.039-6.925,5.049-8.631c-2.676-1.979-2.229-5.123-1.956-6.253
					C7.111,82.468,3.18,88.156,3.18,94.758c0,9.036,7.351,16.392,16.389,16.392c9.036,0,16.391-7.355,16.391-16.392
					C35.959,92.971,34.508,91.521,32.721,91.521z"/>
			</g>
		</g>
		<g>
			<g>
				<path style="fill:#F5C799;" d="M14.704,86.127c1.438-0.814,3.095-1.283,4.864-1.283c1.787,0,3.238-1.45,3.238-3.238
					s-1.451-3.238-3.238-3.238c-2.435,0-4.74,0.55-6.82,1.507C12.475,81.004,12.028,84.148,14.704,86.127z"/>
			</g>
		</g>
	</g>
</g>
</svg>
