<?xml version="1.0" encoding="utf-8"?>
<!-- Generator: Adobe Illustrator 16.0.0, SVG Export Plug-In . SVG Version: 6.00 Build 0)  -->
<!DOCTYPE svg PUBLIC "-//W3C//DTD SVG 1.1//EN" "http://www.w3.org/Graphics/SVG/1.1/DTD/svg11.dtd">
<svg version="1.1" id="Layer_1" xmlns="http://www.w3.org/2000/svg" xmlns:xlink="http://www.w3.org/1999/xlink" x="0px" y="0px"
	 width="96.855px" height="113.684px" viewBox="0 0 96.855 113.684" style="enable-background:new 0 0 96.855 113.684;"
	 xml:space="preserve">
<g>
	<g>
		<g>
			<g>
				<rect x="31.312" y="93.704" style="fill:#AF5B2B;" width="13.824" height="14.974"/>
			</g>
		</g>
		<g>
			<g>
				<rect x="51.717" y="93.704" style="fill:#EA8232;" width="13.827" height="14.974"/>
			</g>
		</g>
		<g>
			<g>
				<path style="fill:#F5C799;" d="M38.224,103.45c-5.379,0-9.744,4.362-9.744,9.746h19.491
					C47.971,107.813,43.608,103.45,38.224,103.45z"/>
			</g>
		</g>
		<g>
			<g>
				<path style="fill:#F5C799;" d="M58.629,103.45c-5.38,0-9.744,4.362-9.744,9.746h19.491
					C68.376,107.813,64.013,103.45,58.629,103.45z"/>
			</g>
		</g>
	</g>
	<g>
		<g>
			<g>
				<path style="fill:#AF5B2B;" d="M23.238,66.286c-0.841,2.584-1.31,5.337-1.31,8.204c0,14.636,11.865,28.721,26.5,28.721V78.82
					C37.782,78.82,28.477,73.8,23.238,66.286z"/>
			</g>
		</g>
		<g>
			<g>
				<path style="fill:#EA8232;" d="M48.429,78.82v24.391c14.633,0,26.499-14.085,26.499-28.721c0-2.867-0.469-5.62-1.31-8.204
					C68.378,73.8,59.073,78.82,48.429,78.82z"/>
			</g>
		</g>
		<g>
			<g>
				<path style="fill:#AF5B2B;" d="M48.429,47.992c-11.768,0-21.732,7.676-25.19,18.294c5.238,7.514,14.544,14.756,25.19,14.756
					c13.249,0,19.949-7.242,25.189-14.756C70.159,55.668,60.195,47.992,48.429,47.992z"/>
			</g>
		</g>
	</g>
	<g>
		<g>
			<g>
				<circle style="fill:#F5C799;" cx="32.356" cy="36.171" r="11.329"/>
			</g>
		</g>
		<g>
			<g>
				<g>
					<g>
						<circle style="fill:#AF5B2B;" cx="12.006" cy="38.869" r="12.006"/>
					</g>
				</g>
				<g>
					<g>
						<path style="fill:#575756;" d="M19.829,38.869c0,4.32-3.504,7.823-7.822,7.823c-4.323,0-7.826-3.503-7.826-7.823
							c0-4.321,3.503-7.824,7.826-7.824C16.325,31.045,19.829,34.548,19.829,38.869z"/>
					</g>
				</g>
			</g>
			<g>
				<g>
					<g>
						<path style="fill:#EA8232;" d="M96.855,38.869c0,6.63-5.376,12.006-12.005,12.006c-6.635,0-12.007-5.376-12.007-12.006
							c0-6.631,5.372-12.005,12.007-12.005C91.479,26.864,96.855,32.238,96.855,38.869z"/>
					</g>
				</g>
				<g>
					<g>
						<circle style="fill:#575756;" cx="84.848" cy="38.869" r="7.824"/>
					</g>
				</g>
			</g>
		</g>
		<g>
			<g>
				<g>
					<path style="fill:#AF5B2B;" d="M11.701,37.316c0,20.606,16.708,37.314,37.316,37.314V0C28.409,0,11.701,16.705,11.701,37.316z"
						/>
				</g>
			</g>
			<g>
				<g>
					<path style="fill:#EA8232;" d="M86.332,37.316C86.332,16.705,69.627,0,49.018,0v74.631
						C69.627,74.631,86.332,57.923,86.332,37.316z"/>
				</g>
			</g>
		</g>
		<g>
			<g>
				<g>
					<path style="fill:#575756;" d="M66.284,51.224c8.731-0.557,15.646-7.798,15.646-16.67c0-9.24-7.488-16.728-16.727-16.728
						c-7.803,0-14.339,5.351-16.187,12.578c-1.848-7.228-8.386-12.578-16.188-12.578c-9.237,0-16.729,7.487-16.729,16.728
						c0,9.235,7.491,16.726,16.729,16.726v8.633c0,1.396,0.19,2.742,0.512,4.038c3.771-4.813,9.626-7.919,16.215-7.919
						c6.59,0,12.443,3.106,16.216,7.922c0.324-1.298,0.513-2.645,0.513-4.041V51.224z"/>
				</g>
			</g>
			<g>
				<g>
					<path style="fill:#F5C799;" d="M49.556,56.031c-6.589,0-12.443,3.106-16.215,7.919c1.81,7.282,8.374,12.689,16.215,12.689
						c7.845,0,14.407-5.405,16.216-12.687C61.999,59.138,56.146,56.031,49.556,56.031z"/>
				</g>
			</g>
		</g>
		<g>
			<g>
				<g>
					<circle style="fill:#411611;" cx="44.702" cy="51.01" r="2.428"/>
				</g>
			</g>
			<g>
				<g>
					<circle style="fill:#411611;" cx="53.332" cy="51.01" r="2.428"/>
				</g>
			</g>
		</g>
		<g>
			<g>
				<g>
					<circle style="fill:#F5C799;" cx="32.356" cy="35.06" r="11.062"/>
				</g>
			</g>
			<g>
				<g>
					<circle style="fill:#F5C799;" cx="65.673" cy="35.06" r="11.062"/>
				</g>
			</g>
			<g>
				<g>
					<g>
						<g>
							<circle style="fill:#411611;" cx="32.357" cy="35.06" r="6"/>
						</g>
					</g>
				</g>
				<g>
					<g>
						<g>
							<circle style="fill:#411611;" cx="65.677" cy="35.06" r="6"/>
						</g>
					</g>
				</g>
				<g>
					<g>
						<circle style="fill:#FFFFFF;" cx="34.383" cy="33.06" r="2.001"/>
					</g>
				</g>
				<g>
					<g>
						<circle style="fill:#FFFFFF;" cx="67.674" cy="33.06" r="2.001"/>
					</g>
				</g>
			</g>
		</g>
		<g>
			<g>
				<g>
					<g>
						<path style="fill:#411611;" d="M49.018,71.313c-6.093,0-8.52-3.426-8.621-3.571c-0.174-0.253-0.108-0.599,0.145-0.771
							c0.25-0.177,0.596-0.112,0.771,0.14c0.096,0.138,2.241,3.093,7.706,3.093c5.015,0,7.711-3.104,7.738-3.137
							c0.198-0.232,0.551-0.262,0.782-0.062c0.234,0.198,0.261,0.549,0.063,0.782C57.479,67.93,54.538,71.313,49.018,71.313z"/>
					</g>
				</g>
			</g>
		</g>
		<g>
			<g>
				<g>
					<path style="fill:#AF5B2B;" d="M50.442,35.359c0.736-1.816,1.156-6.715-2.27-12.913c-1.508-2.731-1.43-2.225-1.945-3.55
						c-0.515-1.322-1.241-2.561-2.207-3.708c-0.985-1.139-1.268-1.744-3.052-2.568c-0.743,1.82-1.073,2.128-1.722,4.442
						c-0.402,1.443-0.533,3.557-0.011,4.875c0.523,1.321,1.114,2.73,2.697,4.419C42.927,27.494,49.467,31.801,50.442,35.359z"/>
				</g>
			</g>
			<g>
				<g>
					<path style="fill:#AF5B2B;" d="M55.218,28.915c2.379-9.255-6.139-18.004-7.104-19.154c-0.984-1.136-2.158-2.201-3.942-3.026
						c-0.746,1.821-0.882,3.398-0.83,4.904c0.073,1.496-0.296,5.409,3.12,7.927C51.418,23.217,53.421,25.175,55.218,28.915z"/>
				</g>
			</g>
		</g>
	</g>
	<g>
		<g>
			<g>
				<g>
					<path style="fill:#F5C799;" d="M80.275,110.582c-1.232,2.876-5.171,3.942-8.797,2.385c-3.624-1.559-5.56-5.152-4.324-8.025"/>
				</g>
			</g>
			<g>
				<g>
					<g>
						<path style="fill:#EA8232;" d="M80.146,111.358c9.354-23.381,11.436-40.57,6.187-51.09c-2.59-5.193-6.61-7.886-9.508-8.67
							l-3.779,13.933c-0.514-0.139-0.703-0.252-0.713-0.256c2.238,1.346,6.014,11.712-5.591,40.722L80.146,111.358z"/>
					</g>
				</g>
			</g>
		</g>
		<g>
			<g>
				<g>
					<path style="fill:#F5C799;" d="M16.578,110.582c1.235,2.876,5.175,3.942,8.799,2.385c3.624-1.559,5.558-5.152,4.325-8.025"/>
				</g>
			</g>
			<g>
				<g>
					<g>
						<path style="fill:#AF5B2B;" d="M16.71,111.358c-9.354-23.381-11.437-40.57-6.189-51.09c2.592-5.193,6.612-7.886,9.51-8.67
							l3.778,13.933c0.514-0.139,0.704-0.252,0.714-0.256c-2.237,1.346-6.016,11.712,5.591,40.722L16.71,111.358z"/>
					</g>
				</g>
			</g>
		</g>
	</g>
</g>
</svg>
