<?xml version="1.0" encoding="utf-8"?>
<!-- Generator: Adobe Illustrator 16.0.0, SVG Export Plug-In . SVG Version: 6.00 Build 0)  -->
<!DOCTYPE svg PUBLIC "-//W3C//DTD SVG 1.1//EN" "http://www.w3.org/Graphics/SVG/1.1/DTD/svg11.dtd">
<svg version="1.1" id="Layer_1" xmlns="http://www.w3.org/2000/svg" xmlns:xlink="http://www.w3.org/1999/xlink" x="0px" y="0px"
	 width="89.311px" height="107.204px" viewBox="0 0 89.311 107.204" style="enable-background:new 0 0 89.311 107.204;"
	 xml:space="preserve">
<g>
	<g>
		<g>
			<g>
				<g>
					<path style="fill:#D3C5C1;" d="M74.898,0L58,5.528l5.086,9.642C63.086,15.17,70.104,10.68,74.898,0z"/>
				</g>
			</g>
		</g>
		<g>
			<g>
				<g>
					<path style="fill:#9C9B9B;" d="M14.943,0l16.898,5.528l-5.086,9.642C26.756,15.17,19.736,10.68,14.943,0z"/>
				</g>
			</g>
		</g>
	</g>
	<g>
		<g>
			<path style="fill:#6F6F6E;" d="M89.311,52.334c0,21.907-19.992,54.102-44.654,54.102C19.993,106.436,0,74.241,0,52.334
				c0-21.905,19.993-39.665,44.656-39.665C69.318,12.669,89.311,30.429,89.311,52.334z"/>
		</g>
	</g>
	<g>
		<g>
			<path style="fill:#D3C5C1;" d="M66.27,94.823c8.755-13.768,12.967-40.32,12.066-51.705C76.071,14.435,63.992,5.921,50.627,3.396
				c-2.006-0.379-4.002-0.542-5.971-0.544v104.353h0.904C57.371,106.921,59.445,105.558,66.27,94.823z"/>
		</g>
	</g>
	<g>
		<g>
			<path style="fill:#9C9B9B;" d="M23.039,94.823c-8.752-13.768-12.964-40.32-12.064-51.705
				C13.239,14.435,25.318,5.921,38.684,3.396c2.007-0.379,4.002-0.542,5.971-0.544v104.353h-0.903
				C31.939,106.921,29.864,105.558,23.039,94.823z"/>
		</g>
	</g>
	<g>
		<g>
			<g>
				<path style="fill:#F9F4F0;" d="M58.28,14.435c-6.124,0-11.378,3.539-13.624,8.575c-2.25-5.036-7.502-8.575-13.627-8.575
					c-8.166,0-14.791,6.293-14.791,14.057c0,7.76,6.625,14.051,14.791,14.051c6.125,0,11.377,0.896,13.627-4.145
					c2.246,5.041,7.5,4.145,13.624,4.145c8.168,0,14.792-6.291,14.792-14.051C73.072,20.728,66.448,14.435,58.28,14.435z"/>
			</g>
		</g>
		<g>
			<g>
				<g>
					<path style="fill:#3C3C3B;" d="M42.033,39.124l-3.58,2.365c-1.44,0.951-1.898,2.944-1.014,4.43l5.609,9.416
						c0.44,0.741,1.023,1.113,1.607,1.113V38.411C43.706,38.411,42.756,38.648,42.033,39.124z"/>
				</g>
			</g>
			<g>
				<g>
					<path style="fill:#3C3C3B;" d="M46.262,55.335l5.607-9.416c0.885-1.485,0.429-3.479-1.012-4.43l-3.582-2.365
						c-0.72-0.476-1.67-0.713-2.619-0.713v18.037C45.237,56.448,45.82,56.076,46.262,55.335z"/>
				</g>
			</g>
		</g>
		<g>
			<g>
				<path style="fill:#EA8232;" d="M40.633,28.397c0,5.527-4.482,10.014-10.01,10.014c-5.53,0-10.014-4.486-10.014-10.014
					c0-5.531,4.483-10.014,10.014-10.014C36.15,18.386,40.633,22.866,40.633,28.397z"/>
			</g>
		</g>
		<g>
			<g>
				<path style="fill:#3C3C3B;" d="M36.299,28.397c0,3.136-2.541,5.678-5.676,5.678c-3.139,0-5.678-2.542-5.678-5.678
					c0-3.135,2.539-5.678,5.678-5.678C33.758,22.72,36.299,25.263,36.299,28.397z"/>
			</g>
		</g>
		<g>
			<g>
				<path style="fill:#EA8232;" d="M68.699,28.397c0,5.527-4.482,10.014-10.012,10.014c-5.528,0-10.013-4.486-10.013-10.014
					c0-5.531,4.484-10.012,10.013-10.012C64.217,18.386,68.699,22.866,68.699,28.397z"/>
			</g>
		</g>
		<g>
			<g>
				<circle style="fill:#3C3C3B;" cx="58.847" cy="28.397" r="5.679"/>
			</g>
		</g>
		<g>
			<g>
				<circle style="fill:#FFFFFF;" cx="32.949" cy="26.433" r="1.964"/>
			</g>
		</g>
		<g>
			<g>
				<circle style="fill:#FFFFFF;" cx="61.117" cy="26.433" r="1.964"/>
			</g>
		</g>
	</g>
	<g>
		<g>
			<g>
				<path style="fill:#6F6F6E;" d="M37.561,54.469c0.717,1.87,0.227,4.215-1.155,5.938c-1.388,1.741-3.603,2.838-5.981,2.82
					c-2.213,0.022-4.551-1.076-5.901-2.817c-1.384-1.724-1.874-4.071-1.152-5.941c0.703,1.851,1.746,3.194,3.005,4.091
					c1.268,0.902,2.621,1.336,4.133,1.34c1.343,0,2.82-0.435,4.054-1.336C35.822,57.667,36.863,56.319,37.561,54.469z"/>
			</g>
		</g>
		<g>
			<g>
				<path style="fill:#6F6F6E;" d="M51.752,54.469c0.715,1.87,0.227,4.215-1.155,5.938c-1.388,1.741-3.603,2.838-5.981,2.82
					c-2.213,0.022-4.551-1.076-5.902-2.817c-1.384-1.724-1.871-4.071-1.152-5.941c0.703,1.851,1.747,3.194,3.006,4.091
					c1.268,0.902,2.621,1.336,4.133,1.34c1.342,0,2.82-0.435,4.055-1.336C50.013,57.667,51.055,56.319,51.752,54.469z"/>
			</g>
		</g>
		<g>
			<g>
				<path style="fill:#6F6F6E;" d="M30.49,63.44c0.715,1.871,0.227,4.215-1.157,5.939c-1.386,1.741-3.603,2.839-5.981,2.82
					c-2.211,0.021-4.55-1.075-5.9-2.816c-1.383-1.725-1.875-4.072-1.152-5.943c0.703,1.853,1.744,3.195,3.002,4.091
					c1.271,0.9,2.625,1.337,4.135,1.341c1.344,0,2.82-0.435,4.053-1.338C28.749,66.639,29.791,65.293,30.49,63.44z"/>
			</g>
		</g>
		<g>
			<g>
				<path style="fill:#6F6F6E;" d="M44.681,63.44c0.716,1.871,0.227,4.215-1.156,5.939c-1.387,1.741-3.603,2.839-5.981,2.82
					c-2.211,0.021-4.551-1.075-5.9-2.816c-1.384-1.725-1.873-4.072-1.152-5.943c0.702,1.853,1.744,3.195,3.002,4.091
					c1.271,0.9,2.625,1.337,4.136,1.341c1.342,0,2.819-0.435,4.052-1.338C42.941,66.639,43.981,65.293,44.681,63.44z"/>
			</g>
		</g>
		<g>
			<g>
				<path style="fill:#6F6F6E;" d="M58.825,63.44c0.716,1.871,0.225,4.215-1.159,5.939c-1.386,1.741-3.6,2.839-5.98,2.82
					c-2.211,0.021-4.551-1.075-5.899-2.816c-1.384-1.724-1.874-4.072-1.154-5.943c0.703,1.853,1.747,3.195,3.005,4.091
					c1.27,0.9,2.624,1.337,4.134,1.341c1.343,0,2.819-0.435,4.052-1.338C57.082,66.639,58.124,65.293,58.825,63.44z"/>
			</g>
		</g>
		<g>
			<g>
				<path style="fill:#6F6F6E;" d="M73.016,63.44c0.716,1.871,0.227,4.215-1.155,5.939c-1.388,1.741-3.603,2.839-5.982,2.82
					c-2.212,0.021-4.55-1.075-5.901-2.816c-1.385-1.724-1.875-4.072-1.151-5.943c0.702,1.853,1.743,3.195,3.001,4.091
					c1.271,0.9,2.625,1.337,4.136,1.341c1.344,0,2.82-0.435,4.052-1.338C71.275,66.639,72.314,65.293,73.016,63.44z"/>
			</g>
		</g>
		<g>
			<g>
				<path style="fill:#6F6F6E;" d="M44.656,81.509c0.715,1.87,0.228,4.216-1.156,5.938c-1.386,1.742-3.602,2.839-5.981,2.821
					c-2.21,0.023-4.551-1.076-5.9-2.818c-1.384-1.723-1.873-4.071-1.153-5.941c0.703,1.851,1.746,3.195,3.004,4.093
					c1.271,0.899,2.625,1.333,4.134,1.339c1.343,0,2.82-0.437,4.054-1.336C42.917,84.707,43.957,83.359,44.656,81.509z"/>
			</g>
		</g>
		<g>
			<g>
				<path style="fill:#6F6F6E;" d="M51.752,90.329c0.717,1.87,0.227,4.215-1.156,5.938c-1.387,1.742-3.602,2.839-5.98,2.822
					c-2.212,0.022-4.551-1.076-5.901-2.818c-1.384-1.723-1.873-4.071-1.153-5.941c0.703,1.85,1.746,3.195,3.004,4.092
					c1.271,0.9,2.625,1.334,4.135,1.34c1.342,0,2.82-0.437,4.053-1.337C50.012,93.527,51.054,92.179,51.752,90.329z"/>
			</g>
		</g>
		<g>
			<g>
				<path style="fill:#6F6F6E;" d="M58.848,81.509c0.717,1.87,0.227,4.216-1.154,5.938c-1.389,1.742-3.604,2.839-5.984,2.821
					c-2.21,0.023-4.551-1.076-5.899-2.818c-1.384-1.723-1.874-4.071-1.153-5.941c0.702,1.851,1.746,3.195,3.004,4.093
					c1.271,0.899,2.625,1.333,4.135,1.339c1.344,0,2.819-0.437,4.051-1.336C57.108,84.707,58.148,83.359,58.848,81.509z"/>
			</g>
		</g>
		<g>
			<g>
				<path style="fill:#6F6F6E;" d="M65.943,54.469c0.715,1.87,0.225,4.215-1.156,5.938c-1.389,1.741-3.603,2.838-5.982,2.82
					c-2.21,0.022-4.551-1.076-5.899-2.817c-1.384-1.724-1.873-4.071-1.153-5.941c0.702,1.851,1.745,3.194,3.004,4.091
					c1.269,0.902,2.624,1.336,4.134,1.34c1.343,0,2.819-0.435,4.054-1.336C64.203,57.667,65.244,56.319,65.943,54.469z"/>
			</g>
		</g>
		<g>
			<g>
				<path style="fill:#6F6F6E;" d="M37.561,72.688c0.717,1.871,0.227,4.217-1.155,5.94c-1.388,1.741-3.603,2.837-5.981,2.817
					c-2.213,0.023-4.551-1.072-5.901-2.814c-1.384-1.723-1.874-4.072-1.152-5.943c0.703,1.852,1.746,3.195,3.005,4.094
					c1.268,0.899,2.621,1.332,4.133,1.34c1.343-0.002,2.82-0.436,4.054-1.338C35.822,75.888,36.863,74.54,37.561,72.688z"/>
			</g>
		</g>
		<g>
			<g>
				<path style="fill:#6F6F6E;" d="M51.752,72.688c0.715,1.871,0.227,4.217-1.155,5.94c-1.388,1.741-3.603,2.837-5.981,2.817
					c-2.213,0.023-4.551-1.072-5.902-2.814c-1.384-1.723-1.871-4.072-1.152-5.943c0.703,1.852,1.747,3.195,3.006,4.094
					c1.268,0.899,2.621,1.332,4.133,1.34c1.342-0.002,2.82-0.436,4.055-1.338C50.013,75.888,51.055,74.54,51.752,72.688z"/>
			</g>
		</g>
		<g>
			<g>
				<path style="fill:#6F6F6E;" d="M65.943,72.688c0.715,1.871,0.225,4.217-1.156,5.94c-1.389,1.741-3.603,2.837-5.982,2.817
					c-2.21,0.023-4.551-1.072-5.899-2.814c-1.384-1.723-1.873-4.072-1.153-5.943c0.702,1.852,1.745,3.195,3.004,4.094
					c1.269,0.899,2.624,1.332,4.134,1.34c1.343-0.002,2.819-0.436,4.054-1.338C64.203,75.888,65.244,74.54,65.943,72.688z"/>
			</g>
		</g>
	</g>
</g>
</svg>
