<?xml version="1.0" encoding="utf-8"?>
<!-- Generator: Adobe Illustrator 16.0.0, SVG Export Plug-In . SVG Version: 6.00 Build 0)  -->
<!DOCTYPE svg PUBLIC "-//W3C//DTD SVG 1.1//EN" "http://www.w3.org/Graphics/SVG/1.1/DTD/svg11.dtd">
<svg version="1.1" id="Layer_1" xmlns="http://www.w3.org/2000/svg" xmlns:xlink="http://www.w3.org/1999/xlink" x="0px" y="0px"
	 width="184.045px" height="208.566px" viewBox="0 0 184.045 208.566" enable-background="new 0 0 184.045 208.566"
	 xml:space="preserve">
<g>
	<path fill="#658098" d="M23.439,208.566h160.605C184.045,208.566,103.665,128.341,23.439,208.566z"/>
	<path fill="#466277" d="M111.868,190.738c0,0-3.854-112.907-77.329-142.621l-3.729,7.845c0,0,67.352,38.134,49.027,132.227
		L111.868,190.738z"/>
	<path fill="#466277" d="M132.049,194.263c0,0,31.979-78.377-1.054-135.321l-11.269,3.829c0,0,38.091,67.822-22.546,126.798
		L132.049,194.263z"/>
	<g>
		<g>
			<path fill="#DA832E" d="M127.381,67.353c0,0-40.343-36.647-23.638-67.353C103.743,0,138.275,13.371,127.381,67.353z"/>
			<path fill="#DA832E" d="M125.011,65.67c0,0-1.998-54.467,31.635-63.987C156.646,1.683,171.226,35.723,125.011,65.67z"/>
			<path fill="#DA832E" d="M127.029,68.134c0,0-54.308-4.593-59.699-39.129C67.33,29.005,102.883,18.641,127.029,68.134z"/>
			<path fill="#DA832E" d="M125.19,59.681c0,0-28.699,36.853-56.021,24.571C69.169,84.252,78.354,53.873,125.19,59.681z"/>
			<path fill="#DA832E" d="M128.044,58.942c0,0,3.78,46.557-24.652,55.987C103.392,114.929,89.614,86.338,128.044,58.942z"/>
			<path fill="#DA832E" d="M121.567,59.702c0,0,36.988,3.097,40.681,26.615C162.248,86.317,138.041,93.394,121.567,59.702z"/>
			<path fill="#DA832E" d="M124.42,58.819c0,0,29.294-14.961,43.07,1.017C167.49,59.836,152.575,76.484,124.42,58.819z"/>
		</g>
	</g>
	<g>
		<g>
			<path fill="#DA832E" d="M30.994,53.774c0,0,31.174-28.318,18.265-52.044C49.259,1.73,22.574,12.063,30.994,53.774z"/>
			<path fill="#DA832E" d="M32.824,52.475c0,0,1.546-42.089-24.444-49.443C8.38,3.031-2.887,29.334,32.824,52.475z"/>
			<path fill="#DA832E" d="M31.266,54.379c0,0,41.965-3.55,46.13-30.237C77.396,24.142,49.924,16.134,31.266,54.379z"/>
			<path fill="#DA832E" d="M32.686,47.846c0,0,22.177,28.478,43.29,18.987C75.976,66.833,68.878,43.358,32.686,47.846z"/>
			<path fill="#DA832E" d="M30.482,47.275c0,0-2.923,35.977,19.049,43.262C49.531,90.537,60.177,68.443,30.482,47.275z"/>
			<path fill="#DA832E" d="M35.485,47.862c0,0-28.581,2.394-31.435,20.566C4.051,68.429,22.757,73.896,35.485,47.862z"/>
			<path fill="#DA832E" d="M33.282,47.181c0,0-22.637-11.561-33.282,0.786C0,47.967,11.525,60.83,33.282,47.181z"/>
		</g>
	</g>
</g>
</svg>
