<?xml version="1.0" encoding="utf-8"?>
<!-- Generator: Adobe Illustrator 16.0.0, SVG Export Plug-In . SVG Version: 6.00 Build 0)  -->
<!DOCTYPE svg PUBLIC "-//W3C//DTD SVG 1.1//EN" "http://www.w3.org/Graphics/SVG/1.1/DTD/svg11.dtd">
<svg version="1.1" id="Layer_1" xmlns="http://www.w3.org/2000/svg" xmlns:xlink="http://www.w3.org/1999/xlink" x="0px" y="0px"
	 width="170.735px" height="284.575px" viewBox="0 0 170.735 284.575" style="enable-background:new 0 0 170.735 284.575;"
	 xml:space="preserve">
<g>
	<g>
		<path style="fill:#EEA767;" d="M131.345,232.632c-3.625-22.502-21.481-115.593-75.989-170.755l-6.483,11.048
			c0,0,42.336,39.805,54.633,159.707H131.345z"/>
		<path style="fill:#EEA767;" d="M117.478,232.632h24.391c5.048-27.879,4.391-96.835-10.155-154.82l-3.921,5.751
			C127.792,83.563,145.193,130.614,117.478,232.632z"/>
	</g>
	<g>
		<path style="fill:#689800;" d="M46.719,66.238c0,0,9.797-42.394,44.045-46.496C90.764,19.742,73.902,71.593,46.719,66.238z"/>
		<path style="fill:#689800;" d="M49.961,64.782c0,0,36.621-23.494,63.997-2.507C113.958,62.275,65.672,87.602,49.961,64.782z"/>
		<path style="fill:#689800;" d="M53.074,71.407c0,0-43.426-2.729-53.074-35.845C0,35.562,53.91,43.714,53.074,71.407z"/>
		<path style="fill:#689800;" d="M49.65,63.635c0,0-26.143-34.783-7.239-63.635C42.411,0,71.245,46.277,49.65,63.635z"/>
		<path style="fill:#689800;" d="M52.887,65.023c0,0-23.077,45.065-47.171,45.833C5.716,110.857,13.887,56.45,52.887,65.023z"/>
		<path style="fill:#689800;" d="M52.245,66.329c0,0,13.823,45.972-3.373,62.864C48.872,129.193,34.921,74.973,52.245,66.329z"/>
		<path style="fill:#689800;" d="M53.41,67.175c0,0,31.27,19.483,31.115,36.735C84.525,103.91,49.018,80.317,53.41,67.175z"/>
	</g>
	<g>
		<path style="fill:#689800;" d="M126.372,84.825c0,0,4.749-20.553,21.354-22.542C147.726,62.284,139.549,87.422,126.372,84.825z"/>
		<path style="fill:#689800;" d="M127.942,84.12c0,0,17.757-11.39,31.028-1.216C158.971,82.904,135.561,95.183,127.942,84.12z"/>
		<path style="fill:#689800;" d="M129.453,87.332c0,0-21.053-1.323-25.731-17.378C103.722,69.954,129.858,73.906,129.453,87.332z"/>
		<path style="fill:#689800;" d="M127.792,83.563c0,0-12.673-16.863-3.508-30.851C124.284,52.712,138.262,75.148,127.792,83.563z"/>
		<path style="fill:#689800;" d="M129.362,84.236c0,0-4.559,14.02-16.24,14.392C113.122,98.628,120.347,81.626,129.362,84.236z"/>
		<path style="fill:#689800;" d="M129.052,84.869c0,0,6.147,13.398-2.189,21.588C126.862,106.457,120.651,89.06,129.052,84.869z"/>
		<path style="fill:#689800;" d="M129.616,85.28c0,0,9.891,3.669,9.816,12.033C139.433,97.313,127.487,91.651,129.616,85.28z"/>
	</g>
	<path style="fill:#8A4215;" d="M49.961,284.575h120.774v-73.308C170.735,211.267,77.779,222.73,49.961,284.575z"/>
</g>
</svg>
