<?xml version="1.0" encoding="utf-8"?>
<!-- Generator: Adobe Illustrator 16.0.0, SVG Export Plug-In . SVG Version: 6.00 Build 0)  -->
<!DOCTYPE svg PUBLIC "-//W3C//DTD SVG 1.1//EN" "http://www.w3.org/Graphics/SVG/1.1/DTD/svg11.dtd">
<svg version="1.1" id="Layer_1" xmlns="http://www.w3.org/2000/svg" xmlns:xlink="http://www.w3.org/1999/xlink" x="0px" y="0px"
	 width="81.645px" height="119.469px" viewBox="0 0 81.645 119.469" style="enable-background:new 0 0 81.645 119.469;"
	 xml:space="preserve">
<g>
	<g>
		<g>
			<path style="fill:none;" d="M64.993,90.592c-0.249,0.052-0.51,0.099-0.775,0.142C64.484,90.69,64.744,90.644,64.993,90.592z"/>
		</g>
	</g>
	<g>
		<g>
			<path style="fill:none;" d="M66.105,90.322c-0.252,0.07-0.515,0.136-0.787,0.199C65.591,90.458,65.854,90.393,66.105,90.322z"/>
		</g>
	</g>
	<g>
		<g>
			<path style="fill:none;" d="M67.148,89.987c-0.264,0.098-0.544,0.188-0.834,0.274C66.605,90.176,66.884,90.085,67.148,89.987z"/>
		</g>
	</g>
	<g>
		<g>
			<path style="fill:none;" d="M53.749,84.048c0.146-0.028,0.292-0.058,0.437-0.086C54.041,83.99,53.895,84.02,53.749,84.048z"/>
		</g>
	</g>
	<g>
		<g>
			<path style="fill:none;" d="M59.61,90.986c-0.521-0.021-1.06-0.057-1.622-0.11C58.551,90.93,59.089,90.965,59.61,90.986z"/>
		</g>
	</g>
	<g>
		<g>
			<path style="fill:none;" d="M62.509,90.939c-0.276,0.021-0.565,0.033-0.855,0.044C61.943,90.973,62.232,90.96,62.509,90.939z"/>
		</g>
	</g>
	<g>
		<g>
			<path style="fill:none;" d="M63.798,90.8c-0.256,0.035-0.524,0.064-0.795,0.093C63.273,90.864,63.542,90.835,63.798,90.8z"/>
		</g>
	</g>
	<g>
		<g>
			<path style="fill:none;" d="M61.113,91.005c-0.318,0.004-0.656-0.003-0.994-0.01C60.457,91.002,60.793,91.009,61.113,91.005z"/>
		</g>
	</g>
	<g>
		<g>
			<path style="fill:none;" d="M53.461,103.29c0.069-0.002,0.143-0.002,0.208-0.005C53.604,103.288,53.53,103.288,53.461,103.29z"/>
		</g>
	</g>
	<g>
		<g>
			<path style="fill:none;" d="M51.885,103.322c-0.615,0.003-1.244-0.007-1.888-0.027C50.641,103.315,51.27,103.325,51.885,103.322z
				"/>
		</g>
	</g>
	<g>
		<g>
			<path style="fill:#C6CCD6;" d="M53.669,103.285c1.163-0.046,2.262-0.132,3.311-0.256c0,0,0.001,0,0.003,0
				C55.934,103.151,54.83,103.238,53.669,103.285z"/>
		</g>
	</g>
	<g>
		<g>
			<path style="fill:#C6CCD6;" d="M53.461,103.29c-0.516,0.019-1.037,0.03-1.576,0.032C52.424,103.32,52.944,103.307,53.461,103.29z
				"/>
		</g>
	</g>
	<g>
		<g>
			<path style="fill:#C6CCD6;" d="M66.314,90.262c-0.069,0.021-0.141,0.04-0.209,0.061C66.174,90.302,66.245,90.282,66.314,90.262z"
				/>
		</g>
	</g>
	<g>
		<g>
			<path style="fill:#C6CCD6;" d="M65.318,90.521c-0.106,0.023-0.215,0.048-0.325,0.07C65.104,90.569,65.212,90.545,65.318,90.521z"
				/>
		</g>
	</g>
	<g>
		<g>
			<path style="fill:#C6CCD6;" d="M61.653,90.983c-0.181,0.007-0.355,0.019-0.54,0.021C61.298,91.002,61.473,90.99,61.653,90.983z"
				/>
		</g>
	</g>
	<g>
		<g>
			<path style="fill:#C6CCD6;" d="M63.003,90.893c-0.165,0.016-0.326,0.033-0.494,0.047C62.677,90.926,62.838,90.909,63.003,90.893z
				"/>
		</g>
	</g>
	<g>
		<g>
			<path style="fill:#C6CCD6;" d="M51.494,84.457c0.764-0.121,1.512-0.262,2.255-0.409C53.008,84.195,52.258,84.336,51.494,84.457z"
				/>
		</g>
	</g>
	<g>
		<g>
			<path style="fill:#C6CCD6;" d="M67.21,89.966c-0.021,0.008-0.041,0.015-0.062,0.021C67.169,89.98,67.189,89.974,67.21,89.966z"/>
		</g>
	</g>
	<g>
		<g>
			<path style="fill:#C6CCD6;" d="M60.119,90.995c-0.171-0.003-0.334-0.002-0.509-0.009C59.785,90.993,59.948,90.992,60.119,90.995z
				"/>
		</g>
	</g>
	<g>
		<g>
			<path style="fill:#C6CCD6;" d="M54.186,83.962c5.662-1.163,10.756-3.037,14.971-5.44c0-0.004,0-0.008-0.001-0.014
				C64.939,80.915,59.848,82.796,54.186,83.962z"/>
		</g>
	</g>
	<g>
		<g>
			<path style="fill:#C6CCD6;" d="M64.218,90.733c-0.138,0.023-0.276,0.045-0.42,0.066C63.941,90.778,64.08,90.757,64.218,90.733z"
				/>
		</g>
	</g>
	<g>
		<g>
			<path style="fill:#918BC1;" d="M21.841,82.587c-0.078-0.023-0.156-0.047-0.235-0.072C21.685,82.54,21.763,82.563,21.841,82.587z"
				/>
		</g>
	</g>
	<g>
		<g>
			<path style="fill:#918BC1;" d="M26.266,83.755c-0.152-0.034-0.304-0.068-0.457-0.104C25.962,83.687,26.113,83.72,26.266,83.755z"
				/>
		</g>
	</g>
	<g>
		<g>
			<path style="fill:#918BC1;" d="M12.275,78.524c2.761,1.575,5.9,2.921,9.33,3.99c-3.428-1.069-6.568-2.419-9.33-3.996
				C12.275,78.521,12.275,78.522,12.275,78.524z"/>
		</g>
	</g>
	<g>
		<g>
			<path style="fill:#918BC1;" d="M25.809,83.65c-1.359-0.313-2.684-0.668-3.968-1.063C23.126,82.982,24.449,83.338,25.809,83.65z"
				/>
		</g>
	</g>
	<g>
		<g>
			<path style="fill:#918BC1;" d="M28.291,84.174c-0.684-0.128-1.358-0.271-2.025-0.419C26.933,83.902,27.607,84.046,28.291,84.174z
				"/>
		</g>
	</g>
	<g>
		<g>
			<g>
				<g>
					<rect x="24.165" y="99.976" style="fill:#3C3C3B;" width="13.824" height="14.972"/>
				</g>
			</g>
			<g>
				<g>
					<rect x="44.569" y="99.976" style="fill:#3C3C3B;" width="13.827" height="14.972"/>
				</g>
			</g>
			<g>
				<g>
					<path style="fill:#3C3C3B;" d="M31.077,109.721c-5.381,0-9.745,4.364-9.745,9.748h19.49
						C40.822,114.085,36.461,109.721,31.077,109.721z"/>
				</g>
			</g>
			<g>
				<g>
					<path style="fill:#3C3C3B;" d="M51.481,109.721c-5.381,0-9.743,4.364-9.743,9.748h19.491
						C61.229,114.085,56.864,109.721,51.481,109.721z"/>
				</g>
			</g>
		</g>
		<g>
			<g>
				<g>
					<path style="fill:#D3C5C1;" d="M19.282,78.188c-0.719,2.209-1.119,4.562-1.119,7.015c0,12.517,10.145,22.663,22.659,22.663
						v-18.96C31.72,88.905,23.762,84.613,19.282,78.188z"/>
				</g>
			</g>
			<g>
				<g>
					<path style="fill:#F5F0F2;" d="M40.822,88.905v18.96c12.514,0,22.66-10.146,22.66-22.663c0-2.453-0.4-4.806-1.119-7.015
						C57.882,84.613,49.924,88.905,40.822,88.905z"/>
				</g>
			</g>
			<g>
				<g>
					<path style="fill:#D3C5C1;" d="M40.822,62.544c-10.062,0-18.584,6.564-21.54,15.644c4.479,6.426,12.438,10.718,21.54,10.718
						c9.102,0,17.06-4.292,21.541-10.718C59.405,69.108,50.886,62.544,40.822,62.544z"/>
				</g>
			</g>
		</g>
		<g>
			<g>
				<g>
					<path style="fill:#3C3C3B;" d="M51.816,98.558c-3.129,0-5.665-2.535-5.665-5.666c0-3.13,2.536-5.665,5.665-5.665"/>
				</g>
			</g>
			<g>
				<g>
					<path style="fill:#3C3C3B;" d="M29.828,98.558c3.127,0,5.662-2.535,5.662-5.666c0-3.13-2.535-5.665-5.662-5.665"/>
				</g>
			</g>
		</g>
	</g>
	<g>
		<g>
			<g>
				<path style="fill:#3C3C3B;" d="M62.758,0c-6.432,0-11.644,6.323-11.644,12.755c0,6.431,5.212,11.644,11.644,11.644
					c6.431,0,11.646-5.213,11.646-11.644C74.404,6.323,69.188,0,62.758,0z"/>
			</g>
		</g>
		<g>
			<g>
				<path style="fill:#3C3C3B;" d="M18.886,0C12.455,0,7.241,6.323,7.241,12.755c0,6.431,5.214,11.644,11.645,11.644
					c6.434,0,11.645-5.213,11.645-11.644C30.53,6.323,25.319,0,18.886,0z"/>
			</g>
		</g>
	</g>
	<g>
		<g>
			<g>
				<path style="fill:#F5F0F2;" d="M78.392,51.94c0.26-1.782,0.397-3.602,0.397-5.456c0-20.915-16.913-37.875-37.809-37.963
					c-0.052,0-0.104-0.003-0.158-0.003v77.033c0.129,0.003,0.27,0.009,0.391,0.009c5.413,0,12.642-1.513,12.642-1.513
					c0.145-0.028,0.291-0.058,0.437-0.086c5.663-1.166,10.752-3.047,14.969-5.454c0,0.006,0,0.01,0,0.014
					c7.636-4.355,12.385-10.445,12.385-17.189C81.645,57.999,80.485,54.824,78.392,51.94z"/>
			</g>
		</g>
		<g>
			<g>
				<path style="fill:#D3C5C1;" d="M40.822,8.519c-20.967,0-37.965,16.997-37.965,37.966c0,1.854,0.139,3.674,0.393,5.456
					C1.161,54.824,0,57.999,0,61.332c0,6.743,4.746,12.835,12.381,17.192c0-0.002,0-0.003,0-0.006
					c2.764,1.577,5.901,2.927,9.331,3.996c0.078,0.025,0.155,0.049,0.236,0.072c1.281,0.396,2.607,0.75,3.967,1.063
					c0.151,0.036,0.304,0.07,0.456,0.104c0.668,0.147,2.025,0.419,2.025,0.419s8.154,1.303,12.426,1.378V8.519L40.822,8.519z"/>
			</g>
		</g>
	</g>
	<g>
		<g>
			<g>
				<path style="fill:#3C3C3B;" d="M12.836,44.701c-5.433,7.354-4.896,16.968,1.2,21.473c6.096,4.501,11.776,0.599,17.21-6.757
					c5.434-7.357,8.563-15.382,2.467-19.883C27.618,35.032,18.27,37.344,12.836,44.701z"/>
			</g>
		</g>
		<g>
			<g>
				<path style="fill:#3C3C3B;" d="M68.808,44.701c5.433,7.354,4.896,16.968-1.2,21.473c-6.096,4.501-11.777,0.599-17.21-6.757
					c-5.433-7.357-8.563-15.382-2.467-19.883C54.025,35.032,63.373,37.344,68.808,44.701z"/>
			</g>
		</g>
	</g>
	<g>
		<g>
			<g>
				<circle style="fill:#F5F0F2;" cx="57.254" cy="50.69" r="6.417"/>
			</g>
		</g>
		<g>
			<g>
				<g>
					<circle style="fill:#3C3C3B;" cx="57.255" cy="50.69" r="4.513"/>
				</g>
			</g>
		</g>
		<g>
			<g>
				<circle style="fill:#D3C5C1;" cx="24.39" cy="50.69" r="6.417"/>
			</g>
		</g>
		<g>
			<g>
				<g>
					<circle style="fill:#3C3C3B;" cx="24.39" cy="50.69" r="4.512"/>
				</g>
			</g>
		</g>
		<g>
			<g>
				<circle style="fill:#FFFFFF;" cx="26.071" cy="49.337" r="1.656"/>
			</g>
		</g>
		<g>
			<g>
				<circle style="fill:#FFFFFF;" cx="58.634" cy="49.337" r="1.656"/>
			</g>
		</g>
	</g>
	<g>
		<g>
			<path style="fill:#3C3C3B;" d="M48.483,69.756c0-0.024-0.005-0.051-0.008-0.074c0-0.002,0-0.004,0-0.007
				c0-0.001-0.003-0.002-0.003-0.005c-0.098-1.917-3.482-3.456-7.65-3.456c-4.166,0-7.551,1.539-7.651,3.456
				c0,0.003-0.003,0.004-0.003,0.005c0,0.003,0.003,0.005,0.003,0.007c-0.003,0.023-0.01,0.05-0.01,0.074
				c0,1.771,2.809,4.139,6.476,4.576v5.273c-0.364,0.431-1.206,1.244-2.063,0.786c-0.542-0.293-1.215-0.09-1.504,0.451
				c-0.29,0.539-0.089,1.213,0.45,1.505c0.545,0.292,1.077,0.413,1.581,0.413c1.073,0,2.019-0.556,2.71-1.185
				c0.679,0.63,1.615,1.186,2.701,1.186c0.505,0,1.04-0.118,1.596-0.407c0.544-0.282,0.758-0.952,0.477-1.497
				s-0.954-0.757-1.499-0.475c-0.917,0.472-1.728-0.328-2.076-0.762v-5.289C45.676,73.895,48.483,71.527,48.483,69.756z"/>
		</g>
	</g>
</g>
</svg>
