<?xml version="1.0" encoding="utf-8"?>
<!-- Generator: Adobe Illustrator 16.0.0, SVG Export Plug-In . SVG Version: 6.00 Build 0)  -->
<!DOCTYPE svg PUBLIC "-//W3C//DTD SVG 1.1//EN" "http://www.w3.org/Graphics/SVG/1.1/DTD/svg11.dtd">
<svg version="1.1" id="Layer_1" xmlns="http://www.w3.org/2000/svg" xmlns:xlink="http://www.w3.org/1999/xlink" x="0px" y="0px"
	 width="88.455px" height="105.678px" viewBox="0 0 88.455 105.678" style="enable-background:new 0 0 88.455 105.678;"
	 xml:space="preserve">
<g>
	<g>
		<g>
			<path style="fill:#2D466A;" d="M74.339,44.795c-4.043-6.771-4.967-15.355-5.175-19.529c0.002-0.101,0.013-0.201,0.013-0.303
				c0-0.456-0.043-0.9-0.066-1.349c-0.01-0.537-0.004-0.864-0.004-0.864l-0.039,0.058C67.973,10.031,57.274,0,44.216,0
				C31.169,0,20.476,10.009,19.36,22.767l-0.01-0.017c0,0,0.002,0.073,0.002,0.188c-0.055,0.669-0.102,1.342-0.102,2.024
				c0,0.21,0.02,0.414,0.025,0.621c-0.238,4.28-1.217,12.608-5.158,19.211C8.573,54.086-1.138,69.619,0.11,80.853
				c0,0,1.664,0.693,5.271-5.687c0.851-1.504,1.815-3.1,2.796-4.661c0.474,19.504,16.419,35.173,36.038,35.173
				c19.633,0,35.587-15.692,36.036-35.22c0.988,1.577,1.964,3.189,2.823,4.708c3.607,6.38,5.271,5.687,5.271,5.687
				C89.593,69.619,79.885,54.086,74.339,44.795z"/>
		</g>
	</g>
	<g>
		<g>
			<g>
				<path style="fill:#D3C5C1;" d="M23.948,24.823h-1.063c0,0-0.584,11.232-2.527,17.059c-1.941,5.824-6.916,19.244-7.152,23.585
					h0.033c-0.291,1.67-0.477,3.375-0.477,5.123c0,16.919,14.088,30.634,31.465,30.634v-76.4H23.948z"/>
			</g>
		</g>
		<g>
			<g>
				<path style="fill:#F6E9E5;" d="M75.694,70.59c0-1.748-0.184-3.453-0.475-5.123h0.032c-0.336-4.289-5.214-17.761-7.155-23.585
					c-1.941-5.826-2.523-17.059-2.523-17.059h-1.066H44.228v76.4C61.606,101.224,75.694,87.509,75.694,70.59z"/>
			</g>
		</g>
	</g>
	<g>
		<g>
			<g>
				<path style="fill:#F6E9E5;" d="M54.463,14.269c-4.601,0-8.546,2.655-10.235,6.441c-1.688-3.786-5.635-6.441-10.232-6.441
					c-6.137,0-11.109,4.726-11.109,10.555c0,5.831,4.973,10.556,11.109,10.556c4.598,0,8.545,0.671,10.232-3.113
					c1.689,3.784,5.635,3.113,10.235,3.113c6.134,0,11.11-4.725,11.11-10.556C65.573,18.994,60.597,14.269,54.463,14.269z"/>
			</g>
		</g>
		<g>
			<g>
				<g>
					<path style="fill:#F39E2B;" d="M42.261,32.812l-2.689,1.776c-1.083,0.714-1.425,2.211-0.762,3.325l4.212,7.073
						c0.333,0.557,0.771,0.836,1.206,0.836V32.275C43.515,32.275,42.801,32.454,42.261,32.812z"/>
				</g>
			</g>
			<g>
				<g>
					<path style="fill:#FBDD58;" d="M45.436,44.986l4.213-7.073c0.663-1.114,0.32-2.611-0.762-3.325l-2.688-1.776
						c-0.544-0.357-1.257-0.536-1.971-0.536v13.547C44.667,45.822,45.104,45.543,45.436,44.986z"/>
				</g>
			</g>
		</g>
		<g>
			<g>
				<g>
					<g>
						<circle style="fill:#FBDD58;" cx="54.769" cy="24.755" r="7.52"/>
					</g>
				</g>
			</g>
			<g>
				<g>
					<g>
						<circle style="fill:#FBDD58;" cx="33.688" cy="24.755" r="7.521"/>
					</g>
				</g>
				<g>
					<g>
						<circle style="fill:#3C3C3B;" cx="33.688" cy="24.755" r="4.578"/>
					</g>
				</g>
				<g>
					<g>
						<circle style="fill:#3C3C3B;" cx="54.768" cy="24.755" r="4.578"/>
					</g>
				</g>
				<g>
					<g>
						<circle style="fill:#FFFFFF;" cx="34.74" cy="22.881" r="1.874"/>
					</g>
				</g>
				<g>
					<g>
						<circle style="fill:#FFFFFF;" cx="55.838" cy="22.881" r="1.874"/>
					</g>
				</g>
			</g>
		</g>
	</g>
	<g>
		<g>
			<g>
				<path style="fill:#CB8128;" d="M39.013,105.678c0-5.669-4.595-10.264-10.262-10.264c-5.668,0-10.264,4.595-10.264,10.264H39.013
					z"/>
			</g>
		</g>
		<g>
			<g>
				<path style="fill:#F39E2B;" d="M69.968,105.678c0-5.669-4.594-10.264-10.262-10.264s-10.264,4.595-10.264,10.264H69.968z"/>
			</g>
		</g>
	</g>
</g>
</svg>
