<?xml version="1.0" encoding="utf-8"?>
<!-- Generator: Adobe Illustrator 16.0.0, SVG Export Plug-In . SVG Version: 6.00 Build 0)  -->
<!DOCTYPE svg PUBLIC "-//W3C//DTD SVG 1.1//EN" "http://www.w3.org/Graphics/SVG/1.1/DTD/svg11.dtd">
<svg version="1.1" id="Layer_1" xmlns="http://www.w3.org/2000/svg" xmlns:xlink="http://www.w3.org/1999/xlink" x="0px" y="0px"
	 width="81.881px" height="41.496px" viewBox="0 0 81.881 41.496" style="enable-background:new 0 0 81.881 41.496;"
	 xml:space="preserve">
<polygon style="fill-rule:evenodd;clip-rule:evenodd;fill:#CC6666;" points="0,0 0,41.496 81.881,41.496 81.881,0 0,0 "/>
<polygon style="fill-rule:evenodd;clip-rule:evenodd;fill:#FFFFFF;" points="3.346,3.793 3.346,37.707 78.537,37.707 78.537,3.793 
	3.346,3.793 "/>
<path style="fill-rule:evenodd;clip-rule:evenodd;fill:#9EC2E8;" d="M72.516,20.072c2.063,0,4.078,0.176,6.021,0.496v17.137H44.365
	C47.144,27.635,58.699,20.072,72.516,20.072L72.516,20.072z"/>
<path style="fill-rule:evenodd;clip-rule:evenodd;fill:#8CB036;" d="M3.35,37.705L3.346,22.213
	c7.323-3.152,17.306-3.438,27.313-0.105c9.594,3.191,17.18,9.031,21.297,15.598H3.35L3.35,37.705z"/>
<path style="fill-rule:evenodd;clip-rule:evenodd;fill:#FFC405;" d="M56.188,7.141c2.779,0,5.037,2.256,5.037,5.036
	c0,2.778-2.258,5.036-5.037,5.036c-2.777,0-5.035-2.258-5.035-5.036C51.152,9.396,53.41,7.141,56.188,7.141L56.188,7.141z"/>
</svg>
