<?xml version="1.0" encoding="utf-8"?>
<!-- Generator: Adobe Illustrator 16.0.0, SVG Export Plug-In . SVG Version: 6.00 Build 0)  -->
<!DOCTYPE svg PUBLIC "-//W3C//DTD SVG 1.1//EN" "http://www.w3.org/Graphics/SVG/1.1/DTD/svg11.dtd">
<svg version="1.1" id="Layer_1" xmlns="http://www.w3.org/2000/svg" xmlns:xlink="http://www.w3.org/1999/xlink" x="0px" y="0px"
	 width="111.227px" height="124.106px" viewBox="0 0 111.227 124.106" enable-background="new 0 0 111.227 124.106"
	 xml:space="preserve">
<g>
	<g>
		<g>
			<g>
				<g>
					<g>
						<path fill="#F29E9F" d="M109.104,2.228c0,0,7.874,32.189-6.705,36.501c-14.549,4.301-22.602,4.03-22.602,4.03
							S79.372,15.238,93.299,9.144C107.227,3.049,109.104,2.228,109.104,2.228z"/>
					</g>
				</g>
				<g>
					<g>
						<path fill="#D76C79" d="M104.62,9.411c0,0,5.348,23.379-4.33,25.021c-10.633,1.806-14.01,1.147-14.01,1.147
							s-0.854-17.771,8.139-21.705C103.407,9.939,104.62,9.411,104.62,9.411z"/>
					</g>
				</g>
			</g>
		</g>
		<g>
			<g>
				<g>
					<g>
						<path fill="#F29E9F" d="M6.817,2.228c0,0-7.873,32.189,6.705,36.501c14.549,4.301,22.602,4.03,22.602,4.03
							s0.426-27.521-13.502-33.615C8.694,3.049,6.817,2.228,6.817,2.228z"/>
					</g>
				</g>
				<g>
					<g>
						<path fill="#D76C79" d="M11.301,9.411c0,0-5.348,23.379,4.33,25.021c10.633,1.806,14.01,1.147,14.01,1.147
							s0.854-17.771-8.139-21.705C12.514,9.939,11.301,9.411,11.301,9.411z"/>
					</g>
				</g>
			</g>
		</g>
	</g>
	<g>
		<g>
			<g>
				<rect x="39.002" y="100.333" fill="#D87C80" width="13.023" height="17.956"/>
			</g>
		</g>
		<g>
			<g>
				<rect x="63.897" y="100.333" fill="#F29E9F" width="13.023" height="17.956"/>
			</g>
		</g>
		<g>
			<g>
				<g>
					<path fill="#FACCB7" d="M45.376,120.616c0.551,0,0.999,0.447,0.999,0.998v2.492h10.473c0-6.258-5.078-11.332-11.334-11.332
						c-6.258,0-11.336,5.074-11.336,11.332h10.2v-2.492C44.378,121.063,44.824,120.616,45.376,120.616z"/>
				</g>
			</g>
		</g>
		<g>
			<g>
				<g>
					<path fill="#FACCB7" d="M70.272,120.616c0.55,0,0.999,0.447,0.999,0.998v2.492h10.474c0-6.258-5.072-11.332-11.338-11.332
						c-6.253,0-11.33,5.074-11.33,11.332h10.198v-2.492C69.275,121.063,69.719,120.616,70.272,120.616z"/>
				</g>
			</g>
		</g>
	</g>
	<g>
		<g>
			<g>
				<path fill="#D87C80" d="M24.39,76.362c-0.086,0.983-0.147,1.976-0.147,2.983c0,18.843,15.106,34.118,33.748,34.118V96.938
					C42.936,96.938,30.014,88.464,24.39,76.362z"/>
			</g>
		</g>
		<g>
			<g>
				<path fill="#D87C80" d="M57.991,96.938V45.226c-17.641,0-32.105,13.69-33.601,31.136C30.014,88.464,42.936,96.938,57.991,96.938
					z"/>
			</g>
		</g>
		<g>
			<g>
				<path fill="#D87C80" d="M57.991,45.226v51.712c15.058,0,27.979-8.474,33.603-20.576C90.098,58.917,75.634,45.226,57.991,45.226z
					"/>
			</g>
		</g>
		<g>
			<g>
				<path fill="#F29E9F" d="M91.743,79.345c0-1.008,0-4.423-1.43-9.787C85.53,88.9,73.048,96.938,57.991,96.938v16.525
					C76.633,113.463,91.743,98.188,91.743,79.345z"/>
			</g>
		</g>
		<g>
			<g>
				<g>
					<path fill="#F29E9F" d="M91.885,84.06c3.164,2.669,8.41,3.189,12.141,1.463c2.203-1.016,7.573-5.499,2.727-6.886
						c-2.628-0.751-5.13,0.981-4.84,3.699c0.407,3.824,4.346,5.709,7.766,5.532c1.219-0.063,3.931-2.01,1.479-1.884
						c-2.987,0.152-5.954-2.442-5.592-5.604c0.024-0.11,0.057-0.221,0.087-0.333c-1.709-0.005-1.902,0.397-0.58,1.21
						c0.435,1.028-1.707,2.475-2.29,2.856c-2.096,1.377-5.742,0.033-7.473-1.429C94.393,81.916,91.013,83.325,91.885,84.06
						L91.885,84.06z"/>
				</g>
			</g>
		</g>
	</g>
	<g>
		<g>
			<g>
				<path fill="#D87C80" d="M28.678,61.431c0.492,2.645,1.695,7.905,1.695,7.905c2.275,12.52,13.299,22.192,27.598,22.192V12.262
					c-18.883,0-32.486,13.12-32.486,29.306C25.485,49.241,27.331,54.162,28.678,61.431z"/>
			</g>
		</g>
		<g>
			<g>
				<g>
					<path fill="#F29E9F" d="M87.245,61.431c-0.49,2.645-1.689,7.905-1.689,7.905c-2.277,12.52-13.301,22.192-27.604,22.192V12.262
						c18.885,0,32.486,13.12,32.486,29.306C90.438,49.241,88.594,54.162,87.245,61.431z"/>
				</g>
			</g>
		</g>
	</g>
	<g>
		<g>
			<g>
				<g>
					<path fill="#D76C79" d="M57.958,81.131c-8.683,5.039-15.605-1.903-15.605-7.674c0-5.772,6.854-10.294,15.605-10.294
						c8.754,0,15.611,4.521,15.611,10.294C73.57,79.228,65.743,86.17,57.958,81.131z"/>
				</g>
			</g>
		</g>
		<g>
			<g>
				<g>
					<circle fill="#3C3C3B" cx="50.914" cy="73.095" r="3.259"/>
				</g>
			</g>
			<g>
				<g>
					<circle fill="#3C3C3B" cx="65.348" cy="73.095" r="3.258"/>
				</g>
			</g>
		</g>
	</g>
	<g>
		<g>
			<g>
				<g>
					<path fill="#3C3C3B" d="M40.983,42.633c0,1.984-1.605,3.593-3.594,3.593c-1.982,0-3.588-1.608-3.588-3.593
						c0-1.982,1.605-3.592,3.588-3.592C39.377,39.042,40.983,40.651,40.983,42.633z"/>
				</g>
			</g>
		</g>
		<g>
			<g>
				<g>
					<path fill="#3C3C3B" d="M82.122,42.633c0,1.984-1.605,3.593-3.588,3.593c-1.988,0-3.592-1.608-3.592-3.593
						c0-1.982,1.604-3.592,3.592-3.592C80.516,39.042,82.122,40.651,82.122,42.633z"/>
				</g>
			</g>
		</g>
		<g>
			<g>
				<circle fill="#FFFFFF" cx="38.512" cy="41.697" r="1.355"/>
			</g>
		</g>
		<g>
			<g>
				<circle fill="#FFFFFF" cx="79.887" cy="41.697" r="1.357"/>
			</g>
		</g>
	</g>
</g>
</svg>
