<?xml version="1.0" encoding="utf-8"?>
<!-- Generator: Adobe Illustrator 16.0.0, SVG Export Plug-In . SVG Version: 6.00 Build 0)  -->
<!DOCTYPE svg PUBLIC "-//W3C//DTD SVG 1.1//EN" "http://www.w3.org/Graphics/SVG/1.1/DTD/svg11.dtd">
<svg version="1.1" id="Layer_1" xmlns="http://www.w3.org/2000/svg" xmlns:xlink="http://www.w3.org/1999/xlink" x="0px" y="0px"
	 width="151.431px" height="205.395px" viewBox="0 0 151.431 205.395" enable-background="new 0 0 151.431 205.395"
	 xml:space="preserve">
<g>
	<path fill="#25292C" d="M35.69,14.421v80.556c0,0,17.593-19.444,60.186,0c42.592,19.444,55.555-16.667,55.555-16.667V23.236
		c0,0-32.407,16.667-57.87-9.259C68.098-11.949,44.023,4.236,35.69,14.421z"/>
	<rect x="32.449" y="3.259" fill="#DA832E" width="6.482" height="194.935"/>
	<path fill="#25292C" d="M0,205.395h73.381C73.381,205.395,36.69,167.435,0,205.395z"/>
</g>
<path fill="#32373A" d="M67.783,29.825c0,1.199-0.034,2.393,0.033,3.499c0.064,1.05-0.599,4.207,0.604,4.913
	c2.033,1.191,3.243-2.776,5.603-2.751c2.755,0.03,1.696,1.433,3.405,2.863c3.978,3.329,6.972,6.455,9.858-0.175
	c0.979-2.245,1.534-6.586,0.527-8.895c-1.821-4.173-1.31-0.958-3.737-2.632c-0.717-0.494-2.332-1.06-2.964-1.494
	c-0.616-0.423-0.037-2.644-0.855-3.08c-2.548-1.358-3.006,1.139-5.466,0.746c-5.317-0.849-1.975-4.646-4.449-8.456
	c-5.344,4.812-3.939-4.095-6.502-5.697c-5.89-3.682-7.113,8.053-7.621,11.141c-1.575-1.709-1.583-7.544-5.403-6.432
	c-7.325,2.135-3.901,19.583,6.099,17.37c4.147-0.918,5.839-5.837,8.389-8.494C67.588,24.025,67.784,26.939,67.783,29.825z"/>
<g>
	<g>
		
			<ellipse transform="matrix(0.9098 0.4151 -0.4151 0.9098 31.3918 -18.465)" fill="#658098" cx="58.173" cy="62.982" rx="5.417" ry="5.881"/>
		<path fill="#658098" d="M59.774,59.472c0,0,34.79,16.839,60.704-24.304c0,0-8.719,40.862-63.852,31.204L59.774,59.472z"/>
		<path fill="#658098" d="M66.154,63.759c0,0,1.388-8.695,6.36-7.418c4.976,1.277-0.101,8.488-0.101,8.488
			c2.21-1.06,3.756-3.43,3.782-5.87c0.052-5.056-4.664-6.966-8.556-4.086c-3.202,2.369-3.341,6.707-2.731,10.303L66.154,63.759z"/>
		<path fill="#658098" d="M71.588,66.158c0,0-0.735,7.268-5.64,5.838c-4.905-1.429-0.495-7.181-0.495-7.181
			c-2.064,0.744-3.396,2.642-3.251,4.707c0.303,4.278,5.002,6.225,8.568,4.059c2.936-1.782,2.765-5.446,1.923-8.535L71.588,66.158z"
			/>
	</g>
	<g>
		
			<ellipse transform="matrix(-0.9476 -0.3194 0.3194 -0.9476 188.4319 201.6003)" fill="#658098" cx="110.745" cy="85.351" rx="5.417" ry="5.881"/>
		<path fill="#658098" d="M111.977,81.696c0,0-36.898-11.505-27.67-59.246c0,0-21.583,35.777,25.248,66.432L111.977,81.696z"/>
		<path fill="#658098" d="M104.39,80.46c0,0,4.936-7.292,0.433-9.763c-4.504-2.47-5.73,6.264-5.73,6.264
			c-0.888-2.286-0.395-5.073,1.254-6.87c3.42-3.725,8.167-1.893,9.038,2.87c0.717,3.918-2.149,7.176-5.054,9.384L104.39,80.46z"/>
		<path fill="#658098" d="M98.785,78.494c0,0-4.434,5.806,0.123,8.117c4.556,2.312,5.271-4.901,5.271-4.901
			c0.998,1.956,0.672,4.25-0.845,5.657c-3.147,2.915-7.907,1.121-9.029-2.898c-0.921-3.307,1.709-5.864,4.434-7.543L98.785,78.494z"
			/>
	</g>
</g>
</svg>
