<?xml version="1.0" encoding="utf-8"?>
<!-- Generator: Adobe Illustrator 16.0.0, SVG Export Plug-In . SVG Version: 6.00 Build 0)  -->
<!DOCTYPE svg PUBLIC "-//W3C//DTD SVG 1.1//EN" "http://www.w3.org/Graphics/SVG/1.1/DTD/svg11.dtd">
<svg version="1.1" id="Layer_1" xmlns="http://www.w3.org/2000/svg" xmlns:xlink="http://www.w3.org/1999/xlink" x="0px" y="0px"
	 width="235.423px" height="150.255px" viewBox="0 0 235.423 150.255" style="enable-background:new 0 0 235.423 150.255;"
	 xml:space="preserve">
<g>
	<g>
		<path style="fill:#8D5C50;" d="M1.018,129.37c3.603,11.322,17.5,17.5,31.397,10.809c14.385-6.924,50.958-35.516,106.033-18.529
			c55.074,16.985,65.885,33.457,83.385,27.28s20.588-38.091-5.662-57.65c-26.251-19.558-52.945-36.511-62.797-62.28
			c-13.381-35.001-58.467-43.641-79.266,4.118C60.21,65.029,47.857,73.779,30.872,85.619C18.561,94.199-5.196,109.835,1.018,129.37z
			"/>
		<path style="fill:#D7DAC3;" d="M214.392,145.622c-5.818,0-12.484-3.139-22.572-7.894c-11.572-5.452-27.416-12.922-52.006-20.507
			c-11.865-3.66-23.781-5.518-35.414-5.518c-30.983,0-53.535,12.829-67.007,20.489c-2.755,1.568-5.132,2.918-6.986,3.811
			c-3.177,1.531-6.409,2.307-9.603,2.307c-7.226,0-13.403-4.16-15.372-10.344c-4.96-15.597,14.896-29.383,26.757-37.619l1.332-0.928
			C50.463,77.61,63.846,68.281,78.353,34.967c8.398-19.279,21.846-30.333,36.902-30.333c14.482,0,27.748,10.213,33.791,26.021
			c9.139,23.903,31.316,40.125,54.795,57.301c3.172,2.319,6.369,4.658,9.559,7.039c14.861,11.068,18.568,25.479,17.085,35.275
			c-1.072,7.074-4.884,12.416-10.19,14.289C218.269,145.276,216.337,145.622,214.392,145.622L214.392,145.622z"/>
		<path style="fill:#8D5C50;" d="M214.392,142.534c-5.146,0-11.551-3.021-21.25-7.599c-11.763-5.538-27.705-13.042-52.416-20.665
			c-12.172-3.753-24.395-5.655-36.327-5.655c-31.79,0-54.786,13.073-68.525,20.885c-2.58,1.471-5.003,2.85-6.806,3.719
			c-2.756,1.326-5.539,2.001-8.267,2.001c-5.874,0-10.866-3.294-12.429-8.194c-4.265-13.418,14.415-26.391,25.574-34.144l1.337-0.93
			C52.628,79.867,66.329,70.32,81.185,36.204c7.885-18.1,20.303-28.481,34.071-28.481c13.19,0,25.321,9.437,30.904,24.032
			c9.468,24.758,31.999,41.245,55.86,58.696c3.163,2.313,6.35,4.645,9.531,7.02c13.766,10.251,17.23,23.426,15.881,32.342
			c-0.899,5.922-3.951,10.346-8.168,11.837C217.577,142.245,215.98,142.534,214.392,142.534L214.392,142.534z"/>
	</g>
	<g>
		<path style="fill:#D7DAC3;" d="M80.751,85.751c1.436-0.478,4.607-0.544,5.477-0.555c-0.837-1.045-2.355-1.988-4.919-2.645
			c0,0-1.81-1.671,0.834-2.922c1.995-0.946,4.941,1.048,6.745,5.552c4.349-1.113,30.797-8.789,36.666-32.268
			c0,0,10.018-0.556,10.854-10.018c0,0,2.771,43.308-46.865,44.239c0.279,0.985,0.512,2.048,0.671,3.208
			c1.113,8.069-5.983,6.261-5.147,2.087c0,0,1.922-2.131,2.037-4.503c-1.406,0.425-4.434,1.304-5.794,1.441
			c-2.784,0.278-2.68-1.163-2.745-1.675C78.435,86.659,79.081,86.308,80.751,85.751z"/>
		<path style="fill:#D7DAC3;" d="M147.615,85.751c-1.436-0.478-4.608-0.544-5.477-0.555c0.837-1.045,2.354-1.988,4.919-2.645
			c0,0,1.81-1.671-0.834-2.922c-1.995-0.946-4.941,1.048-6.745,5.552c-4.349-1.113-30.798-8.789-36.667-32.268
			c0,0-10.017-0.556-10.852-10.018c0,0-2.772,43.308,46.863,44.239c-0.278,0.985-0.511,2.048-0.67,3.208
			c-1.113,8.069,5.983,6.261,5.148,2.087c0,0-1.924-2.131-2.038-4.503c1.405,0.425,4.434,1.304,5.794,1.441
			c2.783,0.278,2.68-1.163,2.744-1.675C149.932,86.659,149.284,86.308,147.615,85.751z"/>
	</g>
</g>
</svg>
