<?xml version="1.0" encoding="utf-8"?>
<!-- Generator: Adobe Illustrator 16.0.0, SVG Export Plug-In . SVG Version: 6.00 Build 0)  -->
<!DOCTYPE svg PUBLIC "-//W3C//DTD SVG 1.1//EN" "http://www.w3.org/Graphics/SVG/1.1/DTD/svg11.dtd">
<svg version="1.1" id="Layer_1" xmlns="http://www.w3.org/2000/svg" xmlns:xlink="http://www.w3.org/1999/xlink" x="0px" y="0px"
	 width="261.594px" height="113.078px" viewBox="-123.691 -11.719 261.594 113.078"
	 style="enable-background:new -123.691 -11.719 261.594 113.078;" xml:space="preserve">
<g>
	<path style="fill:#786872;" d="M-108.654,95.58c0,3.193-2.588,5.779-5.779,5.779l0,0c-3.191,0-5.779-2.586-5.779-5.779V4.23
		c0-3.193,2.587-5.78,5.779-5.78l0,0c3.191,0,5.779,2.587,5.779,5.78V95.58z"/>
	<path style="fill:#988A92;" d="M-79.168,49.534c0,5.407-4.383,9.79-9.788,9.79h-24.947c-5.405,0-9.788-4.383-9.788-9.79l0,0
		c0-5.405,4.383-9.788,9.788-9.788h24.947C-83.551,39.746-79.168,44.129-79.168,49.534L-79.168,49.534z"/>
	<circle style="fill:#6DC0CF;" cx="-19.224" cy="18.909" r="30.628"/>
	<path style="fill:#B8E152;" d="M137.902,49.904c0,18.573-15.06,25.093-33.634,25.093l-178.693,8.539
		c-18.575,0-33.634-15.059-33.634-33.632l0,0c0-18.576,15.059-33.634,33.634-33.634l178.693,8.538
		C122.843,24.808,137.902,31.328,137.902,49.904L137.902,49.904z"/>
	<path style="fill:#B8E152;" d="M121.337,36.351c0,13.305-10.789,24.095-24.095,24.095l0,0c-13.309,0-24.095-10.79-24.095-24.095
		V13.062c0-13.307,10.786-24.093,24.095-24.093l0,0c13.306,0,24.095,10.786,24.095,24.093V36.351z"/>
	<path style="fill:#F36E5C;" d="M-74.425,16.271c-18.575,0-33.634,15.058-33.634,33.634c0,18.573,15.059,33.632,33.634,33.632
		l14.104-0.673V16.944L-74.425,16.271z"/>
	<path style="fill:#B8E152;" d="M-15.703,37.481v-48.982c-1.156-0.132-2.329-0.218-3.521-0.218c-2.149,0-4.244,0.227-6.268,0.646
		v48.553H-15.703z"/>
	<path style="fill:#B8E152;" d="M39.263,51.978c0,4.058-3.287,7.346-7.344,7.346h-55.308c-4.057,0-7.346-3.289-7.346-7.346l0,0
		c0-4.057,3.289-7.344,7.346-7.344h55.308C35.976,44.633,39.263,47.92,39.263,51.978L39.263,51.978z"/>
	<path style="opacity:0.35;fill:#B8E152;" d="M39.263,51.978c0,4.058-3.287,7.346-7.344,7.346h-55.308
		c-4.057,0-7.346-3.289-7.346-7.346l0,0c0-4.057,3.289-7.344,7.346-7.344h55.308C35.976,44.633,39.263,47.92,39.263,51.978
		L39.263,51.978z"/>
</g>
</svg>
