<?xml version="1.0" encoding="utf-8"?>
<!-- Generator: Adobe Illustrator 16.0.0, SVG Export Plug-In . SVG Version: 6.00 Build 0)  -->
<!DOCTYPE svg PUBLIC "-//W3C//DTD SVG 1.1//EN" "http://www.w3.org/Graphics/SVG/1.1/DTD/svg11.dtd">
<svg version="1.1" id="Layer_1" xmlns="http://www.w3.org/2000/svg" xmlns:xlink="http://www.w3.org/1999/xlink" x="0px" y="0px"
	 width="92.237px" height="118.88px" viewBox="26.024 264.409 92.237 118.88"
	 style="enable-background:new 26.024 264.409 92.237 118.88;" xml:space="preserve">
<g>
	<path style="fill:#CED8D8;" d="M47.792,340.88c-11.385,0-20.647,9.263-20.647,20.647s9.262,20.646,20.647,20.646
		c11.384,0,20.646-9.262,20.646-20.646S59.176,340.88,47.792,340.88z M66.723,361.101H50.428c-0.073-0.456-0.261-0.868-0.533-1.217
		l11.055-11.964C64.416,351.273,66.607,355.935,66.723,361.101z M49.277,359.297c-0.312-0.209-0.673-0.346-1.06-0.407v-16.294
		c4.636,0.103,8.864,1.877,12.107,4.745L49.277,359.297z M47.365,358.89c-0.356,0.057-0.687,0.182-0.981,0.364l-11.06-11.971
		c3.234-2.834,7.437-4.585,12.041-4.688V358.89z M46.313,363.761c0.311,0.206,0.669,0.342,1.053,0.403v16.295
		c-4.632-0.104-8.858-1.875-12.101-4.74L46.313,363.761z M48.217,364.164c0.414-0.066,0.796-0.223,1.123-0.456l11.044,11.953
		c-3.251,2.899-7.503,4.694-12.167,4.798V364.164z M34.697,347.858l11.046,11.956c-0.303,0.362-0.512,0.8-0.59,1.286H28.859
		C28.975,355.902,31.192,351.217,34.697,347.858z M28.859,361.953h16.293c0.073,0.459,0.264,0.875,0.54,1.224L34.639,375.14
		C31.168,371.786,28.974,367.123,28.859,361.953z M61.007,375.08l-11.062-11.972c0.246-0.335,0.415-0.727,0.482-1.155h16.295
		C66.608,367.092,64.44,371.729,61.007,375.08z"/>
	<g>
		<polygon style="fill:#CED8D8;" points="117.686,330.877 100.24,330.877 100.24,275.396 45.67,275.396 45.67,358.181 
			90.023,358.181 90.023,383.289 92.776,383.289 92.776,358.181 97.549,358.181 97.549,383.289 100.24,383.289 100.24,358.181 
			100.24,343.939 114.131,338.787 		"/>
		<rect x="45.224" y="274.337" style="fill-rule:evenodd;clip-rule:evenodd;fill:#D64752;" width="55.345" height="81.9"/>
	</g>
	<rect x="48.202" y="283.52" style="fill-rule:evenodd;clip-rule:evenodd;fill:#FFFFFF;" width="49.636" height="57.968"/>
	<circle style="fill-rule:evenodd;clip-rule:evenodd;fill:#F9F9F9;" cx="70.062" cy="316.962" r="1.675"/>
	<g>
		<polygon style="fill-rule:evenodd;clip-rule:evenodd;fill:#333333;" points="41.874,274.337 103.919,274.337 98.955,264.409 
			46.34,264.409 		"/>
		<g>
			<rect x="97.838" y="356.237" style="fill:#D64752;" width="2.73" height="24.84"/>
			<rect x="90.206" y="356.237" style="fill:#D64752;" width="2.793" height="24.84"/>
			<rect x="45.224" y="356.237" style="fill:#D64752;" width="2.979" height="5.045"/>
			<rect x="45.224" y="274.337" style="fill-rule:evenodd;clip-rule:evenodd;fill:#FFCE85;" width="2.979" height="67.15"/>
			<rect x="97.715" y="274.337" style="fill-rule:evenodd;clip-rule:evenodd;fill:#FFCE85;" width="2.979" height="67.15"/>
			<polyline style="fill:#D64752;" points="100.287,329.226 118.262,329.226 114.656,337.051 100.287,342.25 			"/>
		</g>
	</g>
	<g>
		<g>
			<path style="fill-rule:evenodd;clip-rule:evenodd;fill:#EFE8CE;" d="M94.815,314.551c-0.43-0.546-1.078-0.902-1.816-0.902
				c-0.284,0-0.552,0.059-0.804,0.154c-0.411-0.687-1.145-1.149-1.989-1.149c-0.975,0-1.809,0.612-2.158,1.481
				c-0.24-0.648-0.847-1.111-1.563-1.111c-0.756,0-1.388,0.517-1.596,1.22c-0.411-0.365-0.941-0.595-1.528-0.595
				c-0.42,0-0.809,0.122-1.148,0.32c-0.314-0.941-1.177-1.622-2.202-1.622c-0.945,0-1.755,0.576-2.124,1.403
				c-0.293-0.258-0.668-0.418-1.085-0.418c-0.388,0-0.739,0.14-1.024,0.366c-0.414-1.151-1.487-1.977-2.756-1.977
				c-1.629,0-2.948,1.351-2.948,3.017c0,0.214,0.023,0.421,0.064,0.623h-0.075c0-1.32-1.047-2.39-2.337-2.39
				c-0.419,0-0.806,0.122-1.146,0.318c-0.171-1.149-1.132-2.031-2.303-2.031c-1.254,0-2.269,1.011-2.326,2.278
				c-0.234-0.127-0.497-0.205-0.781-0.205c-0.442,0-0.841,0.178-1.14,0.463c-0.412-0.682-1.143-1.142-1.985-1.142
				c-0.31,0-0.603,0.065-0.874,0.177c-0.285-0.531-0.83-0.896-1.464-0.896c-0.129,0-0.253,0.019-0.375,0.047
				c-0.501-0.934-1.459-1.573-2.574-1.573c-1.628,0-2.948,1.351-2.948,3.016c0,0.126,0.021,0.244,0.036,0.365
				c-0.404-0.466-0.988-0.766-1.646-0.766v2.338v2.18v0.889v22.017h49.513v-22.388v-2.697v-3.332
				C96.252,312.029,95.047,313.121,94.815,314.551z"/>
			<path style="fill-rule:evenodd;clip-rule:evenodd;fill:#FAF5DC;" d="M94.815,316.17c-0.43-0.534-1.078-0.883-1.816-0.883
				c-0.284,0-0.552,0.058-0.804,0.15c-0.411-0.671-1.145-1.123-1.989-1.123c-0.975,0-1.809,0.599-2.158,1.447
				c-0.24-0.633-0.847-1.085-1.563-1.085c-0.756,0-1.388,0.504-1.596,1.191c-0.411-0.357-0.941-0.581-1.528-0.581
				c-0.42,0-0.809,0.119-1.148,0.313c-0.314-0.92-1.177-1.585-2.202-1.585c-0.945,0-1.755,0.563-2.124,1.371
				c-0.293-0.251-0.668-0.408-1.085-0.408c-0.388,0-0.739,0.137-1.024,0.357c-0.414-1.125-1.487-1.932-2.756-1.932
				c-1.629,0-2.948,1.32-2.948,2.948c0,0.21,0.023,0.413,0.064,0.61h-0.075c0-1.291-1.047-2.337-2.337-2.337
				c-0.419,0-0.806,0.119-1.146,0.312c-0.171-1.123-1.132-1.986-2.303-1.986c-1.254,0-2.269,0.989-2.326,2.229
				c-0.234-0.125-0.497-0.201-0.781-0.201c-0.442,0-0.841,0.174-1.14,0.453c-0.412-0.667-1.143-1.116-1.985-1.116
				c-0.31,0-0.603,0.063-0.874,0.173c-0.285-0.52-0.83-0.876-1.464-0.876c-0.129,0-0.253,0.018-0.375,0.046
				c-0.501-0.912-1.459-1.538-2.574-1.538c-1.628,0-2.948,1.32-2.948,2.948c0,0.123,0.021,0.239,0.036,0.357
				c-0.404-0.455-0.988-0.748-1.646-0.748v2.285v2.131v0.869v21.525h49.513V319.6v-2.638v-3.258
				C96.252,313.704,95.047,314.771,94.815,316.17z"/>
		</g>
		
			<rect x="48.078" y="283.52" style="opacity:0.1;fill-rule:evenodd;clip-rule:evenodd;fill:#F2F4F4;" width="49.637" height="57.968"/>
	</g>
	<g>
		<circle style="fill:none;stroke:#333333;stroke-width:2;stroke-miterlimit:10;" cx="46.819" cy="361.282" r="19.795"/>
		<circle style="fill:#333333;" cx="46.819" cy="361.282" r="2.681"/>
		<line style="fill:none;stroke:#333333;stroke-miterlimit:10;" x1="46.819" y1="341.487" x2="46.819" y2="381.077"/>
		<line style="fill:none;stroke:#333333;stroke-miterlimit:10;" x1="27.024" y1="361.282" x2="66.614" y2="361.282"/>
		<line style="fill:none;stroke:#333333;stroke-miterlimit:10;" x1="33.448" y1="346.687" x2="60.311" y2="375.761"/>
		<line style="fill:none;stroke:#333333;stroke-miterlimit:10;" x1="60.311" y1="346.687" x2="33.448" y2="375.761"/>
	</g>
</g>
</svg>
