<?xml version="1.0" encoding="utf-8"?>
<!-- Generator: Adobe Illustrator 16.0.0, SVG Export Plug-In . SVG Version: 6.00 Build 0)  -->
<!DOCTYPE svg PUBLIC "-//W3C//DTD SVG 1.1//EN" "http://www.w3.org/Graphics/SVG/1.1/DTD/svg11.dtd">
<svg version="1.1" id="Layer_1" xmlns="http://www.w3.org/2000/svg" xmlns:xlink="http://www.w3.org/1999/xlink" x="0px" y="0px"
	 width="90.482px" height="157.911px" viewBox="0 0 90.482 157.911" enable-background="new 0 0 90.482 157.911"
	 xml:space="preserve">
<g>
	<g>
		<g>
			<g>
				<path fill="#F6E9E5" d="M67.559,80.976c5.181-6.805,27.168-22.383,20.24-51.383C80.872,0.595,68.331-13.122,59.73,16.708
					c-8.604,29.824,1.937,58.928,1.937,58.928L67.559,80.976z"/>
			</g>
		</g>
		<g>
			<g>
				<path fill="#F29E9F" d="M72.744,11.487c0,0,0.011,6.021-1.606,13.643c-1.613,7.621,6.169,25.424-1.627,44.381
					C69.511,69.511,98.575,48.634,72.744,11.487z"/>
			</g>
		</g>
		<g>
			<g>
				<path fill="#F6E9E5" d="M25.607,80.976c-5.179-6.805-27.166-22.383-20.24-51.383c6.926-28.998,19.467-42.715,28.07-12.885
					C42.039,46.532,31.5,75.636,31.5,75.636L25.607,80.976z"/>
			</g>
		</g>
		<g>
			<g>
				<path fill="#F29E9F" d="M20.423,11.487c0,0-0.01,6.021,1.604,13.643s-6.168,25.424,1.628,44.381
					C23.655,69.511-5.408,48.634,20.423,11.487z"/>
			</g>
		</g>
	</g>
	<g>
		<g>
			<g>
				<g>
					<path fill="#D3C5C1" d="M16.313,122.485c0,14.383,12.951,26.041,28.929,26.041V96.442
						C29.264,96.442,16.313,108.103,16.313,122.485z"/>
				</g>
			</g>
			<g>
				<g>
					<path fill="#F6E9E5" d="M74.171,122.485c0-14.383-12.955-26.043-28.93-26.043v52.084
						C61.216,148.526,74.171,136.868,74.171,122.485z"/>
				</g>
			</g>
		</g>
		<g>
			<g>
				<path fill="#D3C5C1" d="M45.123,83.964c-18.506,0-33.512,11.66-33.512,26.041c0,14.383,15.006,28.727,33.512,28.727
					c18.509,0,33.515-14.344,33.515-28.727C78.638,95.624,63.632,83.964,45.123,83.964z"/>
			</g>
		</g>
		<g>
			<g>
				<g>
					<rect x="27.395" y="142.159" fill="#D3C5C1" width="13.071" height="11.396"/>
				</g>
			</g>
			<g>
				<g>
					<path fill="#D3C5C1" d="M44.153,157.911c0-5.646-4.576-10.223-10.223-10.223c-5.645,0-10.223,4.576-10.223,10.223H44.153z"/>
				</g>
			</g>
			<g>
				<g>
					<rect x="50.017" y="142.159" fill="#F6E9E5" width="13.072" height="11.396"/>
				</g>
			</g>
			<g>
				<g>
					<path fill="#F6E9E5" d="M66.774,157.911c0-5.646-4.575-10.223-10.223-10.223c-5.645,0-10.223,4.576-10.223,10.223H66.774z"/>
				</g>
			</g>
		</g>
	</g>
	<g>
		<g>
			<g>
				<g>
					<g>
						<path fill="#4B190D" d="M29.829,61.694c0.104-0.043,0.205-0.08,0.307-0.123C30.031,61.61,29.933,61.653,29.829,61.694z"/>
					</g>
				</g>
			</g>
			<g>
				<g>
					<g>
						<path fill="#4B190D" d="M60.349,61.571c0.095,0.043,0.196,0.078,0.293,0.117C60.542,61.651,60.448,61.61,60.349,61.571z"/>
					</g>
				</g>
			</g>
		</g>
		<g>
			<g>
				<g>
					<g>
						<path fill="#F6E9E5" d="M90.482,114.847c-4.691-2.346-7.37-19.771-7.37-19.771C80.43,76.978,72.052,65.919,62,62.231
							c-0.464-0.17-0.91-0.357-1.358-0.543c-0.097-0.039-0.198-0.074-0.293-0.117c-4.318-1.639-9.515-2.592-15.107-2.592v30.682
							v13.793c0.01,0,0.019,0,0.028,0c-0.01,0-0.019,0-0.028,0v29.488c0.035,0,0.068,0.002,0.104,0.002
							c11.096,0,17.995-2.15,22.621-5.697c2.109-1.615,4.127-3.367,6.308-4.762c-0.003-0.021-0.01-0.039-0.012-0.059
							C82.258,117.329,90.482,114.847,90.482,114.847z"/>
					</g>
				</g>
			</g>
			<g>
				<g>
					<g>
						<path fill="#D3C5C1" d="M30.136,61.571c-0.102,0.043-0.203,0.08-0.307,0.123c-0.441,0.184-0.885,0.369-1.348,0.537
							C18.431,65.919,10.053,76.978,7.37,95.075c0,0-2.679,17.426-7.37,19.771c0,0,8.288,2.5,16.313,7.639
							c0,0,4.304,3.146,6.413,4.762c4.606,3.535,12.345,5.678,22.516,5.695v-29.488c-0.026,0-0.05,0.002-0.075,0.002
							c0.025,0,0.049-0.002,0.075-0.002V89.661V58.979C39.648,58.979,34.458,59.933,30.136,61.571z"/>
					</g>
				</g>
			</g>
		</g>
		<g>
			<g>
				<g>
					<g>
						<path fill="#B6382F" d="M29.156,92.563c0,3.049-2.478,5.525-5.531,5.525s-5.53-2.477-5.53-5.525
							c0-3.057,2.477-5.531,5.53-5.531S29.156,89.507,29.156,92.563z"/>
					</g>
				</g>
			</g>
			<g>
				<g>
					<g>
						<path fill="#B6382F" d="M72.385,92.563c0,3.049-2.474,5.525-5.53,5.525c-3.052,0-5.528-2.477-5.528-5.525
							c0-3.057,2.477-5.531,5.528-5.531C69.911,87.032,72.385,89.507,72.385,92.563z"/>
					</g>
				</g>
			</g>
			<g>
				<g>
					<circle fill="#FFFFFF" cx="25.942" cy="90.862" r="1.699"/>
				</g>
			</g>
			<g>
				<g>
					<circle fill="#FFFFFF" cx="69.511" cy="90.862" r="1.699"/>
				</g>
			</g>
		</g>
		<g>
			<g>
				<path fill="#F29E9F" d="M52.913,105.853l-7.762,0.889l-7.764-0.889c-0.726-0.092-1.4,0.445-1.486,1.182
					c-0.083,0.736,0.445,1.4,1.182,1.484l6.636,0.76v9.752c-0.441,0.521-1.46,1.506-2.494,0.949
					c-0.656-0.352-1.468-0.105-1.817,0.547c-0.352,0.652-0.105,1.467,0.547,1.818c0.657,0.354,1.299,0.5,1.905,0.5
					c1.299,0,2.44-0.672,3.278-1.434c0.821,0.764,1.951,1.436,3.262,1.436c0.61,0,1.257-0.145,1.93-0.494
					c0.658-0.34,0.915-1.15,0.573-1.809c-0.34-0.656-1.149-0.914-1.808-0.572c-1.109,0.57-2.089-0.398-2.512-0.922v-9.771
					l6.637-0.76c0.734-0.084,1.263-0.748,1.18-1.484C54.314,106.296,53.649,105.757,52.913,105.853z"/>
			</g>
		</g>
	</g>
</g>
</svg>
