<?xml version="1.0" encoding="utf-8"?>
<!-- Generator: Adobe Illustrator 16.0.0, SVG Export Plug-In . SVG Version: 6.00 Build 0)  -->
<!DOCTYPE svg PUBLIC "-//W3C//DTD SVG 1.1//EN" "http://www.w3.org/Graphics/SVG/1.1/DTD/svg11.dtd">
<svg version="1.1" id="Layer_1" xmlns="http://www.w3.org/2000/svg" xmlns:xlink="http://www.w3.org/1999/xlink" x="0px" y="0px"
	 width="110.477px" height="123.074px" viewBox="0 0 110.477 123.074" enable-background="new 0 0 110.477 123.074"
	 xml:space="preserve">
<g>
	<g>
		<g>
			<g>
				<g>
					<path fill="#F6E9E5" d="M0,10.001c0,0,3.369,23.167,16.418,23.167c13.05,0,17.431,0,17.431,0s-5.993-23.167-19.042-23.167
						C1.756,10.001,0,10.001,0,10.001z"/>
				</g>
			</g>
			<g>
				<g>
					<path fill="#D76C79" d="M5.996,14.107c0,0,2.177,14.955,10.602,14.955c8.424,0,11.253,0,11.253,0s-3.871-14.955-12.294-14.955
						C7.133,14.107,5.996,14.107,5.996,14.107z"/>
				</g>
			</g>
		</g>
		<g>
			<g>
				<g>
					<path fill="#F6E9E5" d="M110.477,10.001c0,0-3.372,23.167-16.421,23.167c-13.052,0-17.431,0-17.431,0
						s5.993-23.167,19.044-23.167C108.715,10.001,110.477,10.001,110.477,10.001z"/>
				</g>
			</g>
			<g>
				<g>
					<path fill="#D76C79" d="M104.479,14.107c0,0-2.179,14.955-10.599,14.955c-8.425,0-11.257,0-11.257,0s3.87-14.955,12.297-14.955
						C103.346,14.107,104.479,14.107,104.479,14.107z"/>
				</g>
			</g>
		</g>
	</g>
	<g>
		<g>
			<g>
				<path fill="#D3C5C1" d="M52.021,1.177c-0.789,0.791-1.239,1.897-1.239,3.016c0,0.08,0.02,0.159,0.023,0.24
					c-0.059,0.007-0.118,0.015-0.177,0.021c-0.013-0.081-0.013-0.158-0.029-0.238c-0.498-2.298-2.772-3.745-5.069-3.234
					c-2.299,0.498-3.745,2.772-3.234,5.07c0.017,0.081,0.05,0.152,0.072,0.229c-0.056,0.019-0.108,0.04-0.162,0.058
					c-0.032-0.082-0.052-0.169-0.093-0.25c-1.021-2.114-3.574-2.989-5.678-1.957c-2.117,1.021-2.991,3.575-1.968,5.69
					c0.041,0.082,0.09,0.155,0.134,0.234c-0.042,0.029-0.085,0.057-0.13,0.085c-0.057-0.075-0.1-0.161-0.165-0.235
					c-1.529-1.773-4.219-1.968-6.005-0.437c-1.775,1.544-1.969,4.219-0.438,6.006c0.065,0.074,0.144,0.127,0.212,0.195
					c-0.036,0.041-0.072,0.088-0.109,0.129c-0.078-0.062-0.146-0.135-0.236-0.19c-1.967-1.287-4.607-0.742-5.883,1.229
					c-1.29,1.968-0.741,4.605,1.227,5.896c0.089,0.058,0.184,0.101,0.273,0.149c-0.021,0.047-0.045,0.093-0.066,0.142
					c-0.098-0.039-0.188-0.092-0.292-0.12c-2.249-0.669-4.618,0.62-5.288,2.869c-0.667,2.261,0.619,4.619,2.883,5.287
					c0.099,0.031,0.201,0.046,0.305,0.069c-0.008,0.052-0.016,0.105-0.021,0.156c-0.104-0.008-0.203-0.029-0.31-0.029
					c-2.357,0.012-4.255,1.92-4.242,4.266c0,2.347,1.906,4.245,4.254,4.245h0.015c0.072,0,0.142-0.02,0.213-0.024
					c0.005,0.054,0.012,0.106,0.018,0.159c-0.056,0.006-0.105,0.002-0.158,0.011c-2.324,0.401-3.879,2.601-3.49,4.911v0.012
					c0.364,2.068,2.152,3.538,4.193,3.538c0.233,0,0.477-0.023,0.719-0.074c0.041-0.005,0.074-0.021,0.112-0.029
					c0.01,0.048,0.019,0.098,0.031,0.145c-2.288,0.506-3.741,2.773-3.244,5.065h0.013c0.426,1.995,2.187,3.343,4.146,3.343
					c0.284,0,0.571-0.024,0.855-0.086c0.006,0.049,0.019,0.103,0.028,0.155c-0.015,0.003-0.028,0.001-0.043,0.005
					c-2.301,0.498-3.759,2.759-3.249,5.058c0.426,1.995,2.191,3.354,4.147,3.354c0.304,0,0.608-0.036,0.911-0.096
					c0.007,0,0.011-0.005,0.019-0.005c0.01,0.069,0.021,0.14,0.036,0.21c-0.743,0.169-1.443,0.514-1.986,1.059
					c-0.804,0.79-1.256,1.896-1.256,3.016s0.452,2.213,1.256,3.004c0.284,0.284,0.618,0.509,0.973,0.703
					c-0.055-0.016-0.104-0.045-0.159-0.06c-2.275-0.597-4.61,0.755-5.217,3.015c-0.596,2.273,0.742,4.596,3.004,5.204
					c-2.336-0.024-4.255,1.836-4.303,4.171c-0.049,2.346,1.824,4.291,4.17,4.34c0.036,0,0.07,0,0.121,0
					c-0.062,0.024-0.121,0.048-0.172,0.061c-2.176,0.9-3.221,3.379-2.334,5.556h0.012c0.889,2.177,3.37,3.21,5.546,2.323
					c0.048-0.012,0.096-0.037,0.144-0.062c-0.023,0.024-0.048,0.05-0.07,0.062c-1.714,1.617-1.801,4.303-0.195,6.017
					c1.606,1.715,4.303,1.8,6.017,0.195c0.012-0.012,0.024-0.023,0.04-0.023c-1.205,2.019-0.537,4.619,1.492,5.824
					c2.006,1.19,4.609,0.534,5.814-1.472c-0.671,2.224,0.581,4.583,2.807,5.275c2.225,0.694,4.583-0.533,5.313-2.735
					c-0.182,2.311,1.521,4.341,3.829,4.56c0.135,0.012,0.278,0.012,0.414,0.012c1.756,0,3.303-1.096,3.936-2.688V0.009
					C53.924,0.009,52.816,0.388,52.021,1.177z"/>
			</g>
		</g>
		<g>
			<g>
				<path fill="#F6E9E5" d="M59.961,115.427c2.309-0.231,4-2.263,3.816-4.56c0.741,2.188,3.102,3.392,5.326,2.699
					c2.212-0.706,3.453-3.064,2.785-5.29c1.214,1.996,3.817,2.639,5.821,1.435c2.008-1.203,2.665-3.817,1.459-5.834
					c0.013,0.012,0.024,0.023,0.036,0.034c1.729,1.595,4.427,1.485,6.021-0.241c1.59-1.726,1.481-4.414-0.246-6.007
					c-0.023-0.024-0.047-0.049-0.085-0.072c0.062,0.023,0.109,0.036,0.158,0.06c2.191,0.864,4.657-0.193,5.534-2.381
					c0.862-2.178-0.211-4.659-2.384-5.533c-0.063-0.024-0.122-0.036-0.185-0.062c0.051,0,0.099,0,0.148,0
					c2.358-0.061,4.205-2.017,4.146-4.365c-0.063-2.333-1.994-4.183-4.318-4.145c2.263-0.632,3.586-2.967,2.967-5.217
					c-0.619-2.272-2.967-3.609-5.227-2.99c-0.102,0.027-0.188,0.074-0.285,0.108c-0.004-0.009-0.008-0.024-0.015-0.034
					c0.383-0.197,0.745-0.438,1.052-0.743c0.792-0.791,1.24-1.884,1.24-3.016c0-1.118-0.448-2.211-1.24-3.001
					c-0.55-0.555-1.262-0.9-2.017-1.067c0.004-0.034,0.014-0.068,0.018-0.103c0,0,0.005-0.024,0.015-0.068
					c0.009,0.002,0.02,0.009,0.029,0.009c0.304,0.062,0.606,0.097,0.899,0.097c1.956,0,3.719-1.361,4.157-3.355
					c0.485-2.297-0.961-4.571-3.257-5.069c-0.017-0.003-0.031-0.001-0.045-0.006c0.001-0.015,0.006-0.03,0.009-0.044
					c0.005-0.027,0.01-0.048,0.014-0.073c0.283,0.062,0.578,0.087,0.859,0.087c1.947,0,3.708-1.35,4.146-3.344
					c0.497-2.294-0.945-4.553-3.236-5.055c0.01-0.043,0.018-0.086,0.025-0.131c0.039,0.009,0.072,0.023,0.11,0.03
					c0.243,0.049,0.475,0.061,0.718,0.061c2.041,0,3.842-1.471,4.181-3.536c0.401-2.322-1.166-4.524-3.477-4.913
					c-0.054-0.01-0.111-0.005-0.167-0.011c0.004-0.045,0.011-0.09,0.012-0.135c0.078,0.005,0.15,0.023,0.229,0.023
					c2.346-0.011,4.244-1.92,4.244-4.266c0-2.348-1.908-4.256-4.256-4.245c-0.104,0-0.205,0.023-0.306,0.031
					c-0.007-0.045-0.012-0.091-0.019-0.136c0.1-0.023,0.201-0.035,0.3-0.066c2.262-0.68,3.536-3.052,2.869-5.299
					c-0.681-2.25-3.052-3.527-5.299-2.857c-0.103,0.03-0.194,0.08-0.29,0.118c-0.02-0.043-0.039-0.084-0.06-0.122
					c0.093-0.054,0.185-0.096,0.274-0.155c1.958-1.288,2.505-3.927,1.216-5.885c-1.288-1.968-3.927-2.517-5.885-1.229
					c-0.086,0.058-0.155,0.133-0.236,0.192c-0.033-0.037-0.065-0.076-0.097-0.113c0.067-0.071,0.148-0.124,0.212-0.198
					c1.532-1.777,1.337-4.463-0.45-5.994c-1.773-1.533-4.461-1.339-5.994,0.438c-0.066,0.074-0.108,0.161-0.167,0.239
					c-0.039-0.025-0.076-0.051-0.117-0.076c0.045-0.08,0.099-0.153,0.138-0.238c1.034-2.113,0.146-4.656-1.957-5.688
					c-2.116-1.033-4.669-0.146-5.701,1.969c-0.037,0.079-0.058,0.163-0.091,0.242c-0.044-0.016-0.085-0.031-0.127-0.045
					c0.021-0.079,0.054-0.152,0.07-0.233c0.513-2.298-0.936-4.572-3.231-5.07c-2.298-0.511-4.56,0.937-5.071,3.234
					c-0.017,0.08-0.016,0.159-0.029,0.238c-0.06-0.006-0.12-0.015-0.179-0.021c0.005-0.08,0.025-0.16,0.025-0.24
					c0-1.118-0.463-2.225-1.252-3.016c-0.816-0.814-1.967-1.202-3.108-1.176C55.102,0,55.065,0.009,55.033,0.009v112.766
					c0.133-0.335,0.239-0.684,0.281-1.056C55.595,114.005,57.648,115.658,59.961,115.427z"/>
			</g>
		</g>
	</g>
	<g>
		<g>
			<g>
				<rect x="37.923" y="101.361" fill="#D3C5C1" width="11.892" height="16.399"/>
			</g>
		</g>
		<g>
			<g>
				<rect x="60.66" y="101.361" fill="#F6E9E5" width="11.896" height="16.399"/>
			</g>
		</g>
		<g>
			<g>
				<g>
					<path fill="#D76C79" d="M43.742,119.883c0.505,0,0.913,0.408,0.913,0.913v2.277h9.564c0-5.718-4.635-10.352-10.351-10.352
						c-5.715,0-10.352,4.634-10.352,10.352h9.313v-2.277C42.831,120.292,43.24,119.883,43.742,119.883z"/>
				</g>
			</g>
		</g>
		<g>
			<g>
				<g>
					<path fill="#D76C79" d="M66.48,119.883c0.504,0,0.91,0.408,0.91,0.913v2.277h9.567c0-5.718-4.637-10.352-10.352-10.352
						s-10.351,4.634-10.351,10.352h9.313v-2.277C65.568,120.292,65.977,119.883,66.48,119.883z"/>
				</g>
			</g>
		</g>
	</g>
	<g>
		<g>
			<g>
				<path fill="#D3C5C1" d="M55.239,94.469c19.253,0,26.185-11.092,30.197-21.437c0,0-12.114,16.678-29.674,16.039
					C40.868,88.53,24.666,73.141,24.666,73.141C28.68,83.486,40.337,94.469,55.239,94.469z"/>
			</g>
		</g>
	</g>
	<g>
		<g>
			<g>
				<path fill="#F5C799" d="M87.139,42.199c0-8.953-7.255-16.211-16.211-16.211c-7.563,0-13.896,5.184-15.688,12.191
					c-1.791-7.008-8.128-12.191-15.688-12.191c-8.955,0-16.217,7.256-16.217,16.211c0,8.956,6.046,16.213,14.999,16.213
					c0,0,1.065,6.26,1.218,8.368c0.646,8.932,4.318,22.292,16.212,22.292c10.844,0,15.57-13.36,16.212-22.292
					c0.154-2.123,1.216-8.421,1.216-8.421C81.654,57.818,87.139,50.799,87.139,42.199z"/>
			</g>
		</g>
		<g>
			<g>
				<g>
					<g>
						<circle fill="#411611" cx="39.092" cy="43.769" r="5.814"/>
					</g>
				</g>
			</g>
			<g>
				<g>
					<g>
						<circle fill="#411611" cx="71.386" cy="43.769" r="5.816"/>
					</g>
				</g>
			</g>
			<g>
				<g>
					<circle fill="#FFFFFF" cx="41.056" cy="41.83" r="1.938"/>
				</g>
			</g>
			<g>
				<g>
					<circle fill="#FFFFFF" cx="73.323" cy="41.83" r="1.938"/>
				</g>
			</g>
		</g>
	</g>
	<g>
		<g>
			<path fill="#F29E9F" d="M62.27,69.713l-7.033,0.804l-7.032-0.804c-0.658-0.083-1.271,0.401-1.349,1.07
				c-0.074,0.667,0.405,1.269,1.068,1.345l6.016,0.689v8.837c-0.398,0.474-1.322,1.363-2.26,0.86
				c-0.595-0.319-1.33-0.096-1.646,0.494c-0.317,0.592-0.097,1.33,0.494,1.647c0.596,0.32,1.178,0.455,1.728,0.455
				c1.175,0,2.211-0.609,2.967-1.3c0.744,0.692,1.771,1.3,2.96,1.3c0.552,0,1.139-0.131,1.747-0.447
				c0.597-0.308,0.828-1.042,0.52-1.638c-0.306-0.597-1.043-0.829-1.639-0.52c-1.004,0.515-1.892-0.36-2.274-0.836v-8.854
				l6.011-0.689c0.669-0.076,1.145-0.678,1.07-1.345C63.541,70.114,62.938,69.627,62.27,69.713z"/>
		</g>
	</g>
</g>
<g>
	<g>
		<g>
			<g>
				<g>
					<path fill="#F6E9E5" d="M0,10.001c0,0,3.369,23.167,16.418,23.167c13.05,0,17.431,0,17.431,0s-5.993-23.167-19.042-23.167
						C1.756,10.001,0,10.001,0,10.001z"/>
				</g>
			</g>
			<g>
				<g>
					<path fill="#D76C79" d="M5.996,14.107c0,0,2.177,14.955,10.602,14.955c8.424,0,11.253,0,11.253,0s-3.871-14.955-12.294-14.955
						C7.133,14.107,5.996,14.107,5.996,14.107z"/>
				</g>
			</g>
		</g>
		<g>
			<g>
				<g>
					<path fill="#F6E9E5" d="M110.477,10.001c0,0-3.372,23.167-16.421,23.167c-13.052,0-17.431,0-17.431,0
						s5.993-23.167,19.044-23.167C108.715,10.001,110.477,10.001,110.477,10.001z"/>
				</g>
			</g>
			<g>
				<g>
					<path fill="#D76C79" d="M104.479,14.107c0,0-2.179,14.955-10.599,14.955c-8.425,0-11.257,0-11.257,0s3.87-14.955,12.297-14.955
						C103.346,14.107,104.479,14.107,104.479,14.107z"/>
				</g>
			</g>
		</g>
	</g>
	<g>
		<g>
			<g>
				<path fill="#D3C5C1" d="M52.021,1.177c-0.789,0.791-1.239,1.897-1.239,3.016c0,0.08,0.02,0.159,0.023,0.24
					c-0.059,0.007-0.118,0.015-0.177,0.021c-0.013-0.081-0.013-0.158-0.029-0.238c-0.498-2.298-2.772-3.745-5.069-3.234
					c-2.299,0.498-3.745,2.772-3.234,5.07c0.017,0.081,0.05,0.152,0.072,0.229c-0.056,0.019-0.108,0.04-0.162,0.058
					c-0.032-0.082-0.052-0.169-0.093-0.25c-1.021-2.114-3.574-2.989-5.678-1.957c-2.117,1.021-2.991,3.575-1.968,5.69
					c0.041,0.082,0.09,0.155,0.134,0.234c-0.042,0.029-0.085,0.057-0.13,0.085c-0.057-0.075-0.1-0.161-0.165-0.235
					c-1.529-1.773-4.219-1.968-6.005-0.437c-1.775,1.544-1.969,4.219-0.438,6.006c0.065,0.074,0.144,0.127,0.212,0.195
					c-0.036,0.041-0.072,0.088-0.109,0.129c-0.078-0.062-0.146-0.135-0.236-0.19c-1.967-1.287-4.607-0.742-5.883,1.229
					c-1.29,1.968-0.741,4.605,1.227,5.896c0.089,0.058,0.184,0.101,0.273,0.149c-0.021,0.047-0.045,0.093-0.066,0.142
					c-0.098-0.039-0.188-0.092-0.292-0.12c-2.249-0.669-4.618,0.62-5.288,2.869c-0.667,2.261,0.619,4.619,2.883,5.287
					c0.099,0.031,0.201,0.046,0.305,0.069c-0.008,0.052-0.016,0.105-0.021,0.156c-0.104-0.008-0.203-0.029-0.31-0.029
					c-2.357,0.012-4.255,1.92-4.242,4.266c0,2.347,1.906,4.245,4.254,4.245h0.015c0.072,0,0.142-0.02,0.213-0.024
					c0.005,0.054,0.012,0.106,0.018,0.159c-0.056,0.006-0.105,0.002-0.158,0.011c-2.324,0.401-3.879,2.601-3.49,4.911v0.012
					c0.364,2.068,2.152,3.538,4.193,3.538c0.233,0,0.477-0.023,0.719-0.074c0.041-0.005,0.074-0.021,0.112-0.029
					c0.01,0.048,0.019,0.098,0.031,0.145c-2.288,0.506-3.741,2.773-3.244,5.065h0.013c0.426,1.995,2.187,3.343,4.146,3.343
					c0.284,0,0.571-0.024,0.855-0.086c0.006,0.049,0.019,0.103,0.028,0.155c-0.015,0.003-0.028,0.001-0.043,0.005
					c-2.301,0.498-3.759,2.759-3.249,5.058c0.426,1.995,2.191,3.354,4.147,3.354c0.304,0,0.608-0.036,0.911-0.096
					c0.007,0,0.011-0.005,0.019-0.005c0.01,0.069,0.021,0.14,0.036,0.21c-0.743,0.169-1.443,0.514-1.986,1.059
					c-0.804,0.79-1.256,1.896-1.256,3.016s0.452,2.213,1.256,3.004c0.284,0.284,0.618,0.509,0.973,0.703
					c-0.055-0.016-0.104-0.045-0.159-0.06c-2.275-0.597-4.61,0.755-5.217,3.015c-0.596,2.273,0.742,4.596,3.004,5.204
					c-2.336-0.024-4.255,1.836-4.303,4.171c-0.049,2.346,1.824,4.291,4.17,4.34c0.036,0,0.07,0,0.121,0
					c-0.062,0.024-0.121,0.048-0.172,0.061c-2.176,0.9-3.221,3.379-2.334,5.556h0.012c0.889,2.177,3.37,3.21,5.546,2.323
					c0.048-0.012,0.096-0.037,0.144-0.062c-0.023,0.024-0.048,0.05-0.07,0.062c-1.714,1.617-1.801,4.303-0.195,6.017
					c1.606,1.715,4.303,1.8,6.017,0.195c0.012-0.012,0.024-0.023,0.04-0.023c-1.205,2.019-0.537,4.619,1.492,5.824
					c2.006,1.19,4.609,0.534,5.814-1.472c-0.671,2.224,0.581,4.583,2.807,5.275c2.225,0.694,4.583-0.533,5.313-2.735
					c-0.182,2.311,1.521,4.341,3.829,4.56c0.135,0.012,0.278,0.012,0.414,0.012c1.756,0,3.303-1.096,3.936-2.688V0.009
					C53.924,0.009,52.816,0.388,52.021,1.177z"/>
			</g>
		</g>
		<g>
			<g>
				<path fill="#F6E9E5" d="M59.961,115.427c2.309-0.231,4-2.263,3.816-4.56c0.741,2.188,3.102,3.392,5.326,2.699
					c2.212-0.706,3.453-3.064,2.785-5.29c1.214,1.996,3.817,2.639,5.821,1.435c2.008-1.203,2.665-3.817,1.459-5.834
					c0.013,0.012,0.024,0.023,0.036,0.034c1.729,1.595,4.427,1.485,6.021-0.241c1.59-1.726,1.481-4.414-0.246-6.007
					c-0.023-0.024-0.047-0.049-0.085-0.072c0.062,0.023,0.109,0.036,0.158,0.06c2.191,0.864,4.657-0.193,5.534-2.381
					c0.862-2.178-0.211-4.659-2.384-5.533c-0.063-0.024-0.122-0.036-0.185-0.062c0.051,0,0.099,0,0.148,0
					c2.358-0.061,4.205-2.017,4.146-4.365c-0.063-2.333-1.994-4.183-4.318-4.145c2.263-0.632,3.586-2.967,2.967-5.217
					c-0.619-2.272-2.967-3.609-5.227-2.99c-0.102,0.027-0.188,0.074-0.285,0.108c-0.004-0.009-0.008-0.024-0.015-0.034
					c0.383-0.197,0.745-0.438,1.052-0.743c0.792-0.791,1.24-1.884,1.24-3.016c0-1.118-0.448-2.211-1.24-3.001
					c-0.55-0.555-1.262-0.9-2.017-1.067c0.004-0.034,0.014-0.068,0.018-0.103c0,0,0.005-0.024,0.015-0.068
					c0.009,0.002,0.02,0.009,0.029,0.009c0.304,0.062,0.606,0.097,0.899,0.097c1.956,0,3.719-1.361,4.157-3.355
					c0.485-2.297-0.961-4.571-3.257-5.069c-0.017-0.003-0.031-0.001-0.045-0.006c0.001-0.015,0.006-0.03,0.009-0.044
					c0.005-0.027,0.01-0.048,0.014-0.073c0.283,0.062,0.578,0.087,0.859,0.087c1.947,0,3.708-1.35,4.146-3.344
					c0.497-2.294-0.945-4.553-3.236-5.055c0.01-0.043,0.018-0.086,0.025-0.131c0.039,0.009,0.072,0.023,0.11,0.03
					c0.243,0.049,0.475,0.061,0.718,0.061c2.041,0,3.842-1.471,4.181-3.536c0.401-2.322-1.166-4.524-3.477-4.913
					c-0.054-0.01-0.111-0.005-0.167-0.011c0.004-0.045,0.011-0.09,0.012-0.135c0.078,0.005,0.15,0.023,0.229,0.023
					c2.346-0.011,4.244-1.92,4.244-4.266c0-2.348-1.908-4.256-4.256-4.245c-0.104,0-0.205,0.023-0.306,0.031
					c-0.007-0.045-0.012-0.091-0.019-0.136c0.1-0.023,0.201-0.035,0.3-0.066c2.262-0.68,3.536-3.052,2.869-5.299
					c-0.681-2.25-3.052-3.527-5.299-2.857c-0.103,0.03-0.194,0.08-0.29,0.118c-0.02-0.043-0.039-0.084-0.06-0.122
					c0.093-0.054,0.185-0.096,0.274-0.155c1.958-1.288,2.505-3.927,1.216-5.885c-1.288-1.968-3.927-2.517-5.885-1.229
					c-0.086,0.058-0.155,0.133-0.236,0.192c-0.033-0.037-0.065-0.076-0.097-0.113c0.067-0.071,0.148-0.124,0.212-0.198
					c1.532-1.777,1.337-4.463-0.45-5.994c-1.773-1.533-4.461-1.339-5.994,0.438c-0.066,0.074-0.108,0.161-0.167,0.239
					c-0.039-0.025-0.076-0.051-0.117-0.076c0.045-0.08,0.099-0.153,0.138-0.238c1.034-2.113,0.146-4.656-1.957-5.688
					c-2.116-1.033-4.669-0.146-5.701,1.969c-0.037,0.079-0.058,0.163-0.091,0.242c-0.044-0.016-0.085-0.031-0.127-0.045
					c0.021-0.079,0.054-0.152,0.07-0.233c0.513-2.298-0.936-4.572-3.231-5.07c-2.298-0.511-4.56,0.937-5.071,3.234
					c-0.017,0.08-0.016,0.159-0.029,0.238c-0.06-0.006-0.12-0.015-0.179-0.021c0.005-0.08,0.025-0.16,0.025-0.24
					c0-1.118-0.463-2.225-1.252-3.016c-0.816-0.814-1.967-1.202-3.108-1.176C55.102,0,55.065,0.009,55.033,0.009v112.766
					c0.133-0.335,0.239-0.684,0.281-1.056C55.595,114.005,57.648,115.658,59.961,115.427z"/>
			</g>
		</g>
	</g>
	<g>
		<g>
			<g>
				<rect x="37.923" y="101.361" fill="#D3C5C1" width="11.892" height="16.399"/>
			</g>
		</g>
		<g>
			<g>
				<rect x="60.66" y="101.361" fill="#F6E9E5" width="11.896" height="16.399"/>
			</g>
		</g>
		<g>
			<g>
				<g>
					<path fill="#D76C79" d="M43.742,119.883c0.505,0,0.913,0.408,0.913,0.913v2.277h9.564c0-5.718-4.635-10.352-10.351-10.352
						c-5.715,0-10.352,4.634-10.352,10.352h9.313v-2.277C42.831,120.292,43.24,119.883,43.742,119.883z"/>
				</g>
			</g>
		</g>
		<g>
			<g>
				<g>
					<path fill="#D76C79" d="M66.48,119.883c0.504,0,0.91,0.408,0.91,0.913v2.277h9.567c0-5.718-4.637-10.352-10.352-10.352
						s-10.351,4.634-10.351,10.352h9.313v-2.277C65.568,120.292,65.977,119.883,66.48,119.883z"/>
				</g>
			</g>
		</g>
	</g>
	<g>
		<g>
			<g>
				<path fill="#D3C5C1" d="M55.239,94.469c19.253,0,26.185-11.092,30.197-21.437c0,0-12.114,16.678-29.674,16.039
					C40.868,88.53,24.666,73.141,24.666,73.141C28.68,83.486,40.337,94.469,55.239,94.469z"/>
			</g>
		</g>
	</g>
	<g>
		<g>
			<g>
				<path fill="#F5C799" d="M87.139,42.199c0-8.953-7.255-16.211-16.211-16.211c-7.563,0-13.896,5.184-15.688,12.191
					c-1.791-7.008-8.128-12.191-15.688-12.191c-8.955,0-16.217,7.256-16.217,16.211c0,8.956,6.046,16.213,14.999,16.213
					c0,0,1.065,6.26,1.218,8.368c0.646,8.932,4.318,22.292,16.212,22.292c10.844,0,15.57-13.36,16.212-22.292
					c0.154-2.123,1.216-8.421,1.216-8.421C81.654,57.818,87.139,50.799,87.139,42.199z"/>
			</g>
		</g>
		<g>
			<g>
				<g>
					<g>
						<circle fill="#411611" cx="39.092" cy="43.769" r="5.814"/>
					</g>
				</g>
			</g>
			<g>
				<g>
					<g>
						<circle fill="#411611" cx="71.386" cy="43.769" r="5.816"/>
					</g>
				</g>
			</g>
			<g>
				<g>
					<circle fill="#FFFFFF" cx="41.056" cy="41.83" r="1.938"/>
				</g>
			</g>
			<g>
				<g>
					<circle fill="#FFFFFF" cx="73.323" cy="41.83" r="1.938"/>
				</g>
			</g>
		</g>
	</g>
	<g>
		<g>
			<path fill="#F29E9F" d="M62.27,69.713l-7.033,0.804l-7.032-0.804c-0.658-0.083-1.271,0.401-1.349,1.07
				c-0.074,0.667,0.405,1.269,1.068,1.345l6.016,0.689v8.837c-0.398,0.474-1.322,1.363-2.26,0.86
				c-0.595-0.319-1.33-0.096-1.646,0.494c-0.317,0.592-0.097,1.33,0.494,1.647c0.596,0.32,1.178,0.455,1.728,0.455
				c1.175,0,2.211-0.609,2.967-1.3c0.744,0.692,1.771,1.3,2.96,1.3c0.552,0,1.139-0.131,1.747-0.447
				c0.597-0.308,0.828-1.042,0.52-1.638c-0.306-0.597-1.043-0.829-1.639-0.52c-1.004,0.515-1.892-0.36-2.274-0.836v-8.854
				l6.011-0.689c0.669-0.076,1.145-0.678,1.07-1.345C63.541,70.114,62.938,69.627,62.27,69.713z"/>
		</g>
	</g>
</g>
</svg>
