<?xml version="1.0" encoding="utf-8"?>
<!-- Generator: Adobe Illustrator 16.0.0, SVG Export Plug-In . SVG Version: 6.00 Build 0)  -->
<!DOCTYPE svg PUBLIC "-//W3C//DTD SVG 1.1//EN" "http://www.w3.org/Graphics/SVG/1.1/DTD/svg11.dtd">
<svg version="1.1" id="Layer_1" xmlns="http://www.w3.org/2000/svg" xmlns:xlink="http://www.w3.org/1999/xlink" x="0px" y="0px"
	 width="82.201px" height="167.113px" viewBox="0 0 82.201 167.113" style="enable-background:new 0 0 82.201 167.113;"
	 xml:space="preserve">
<polygon style="fill-rule:evenodd;clip-rule:evenodd;fill:#8CB036;" points="1.922,130.151 1.922,167.113 82.201,167.113 
	82.201,130.151 1.922,130.151 "/>
<polygon style="fill-rule:evenodd;clip-rule:evenodd;fill:#9EC2E8;" points="81.844,0 81.844,126.046 11.069,126.046 11.069,0 
	81.844,0 "/>
<polygon style="fill-rule:evenodd;clip-rule:evenodd;fill:#FFFFFF;" points="6.171,0 6.171,126.046 13.875,126.046 13.875,0 
	6.171,0 "/>
<polygon style="fill-rule:evenodd;clip-rule:evenodd;fill:#FFFFFF;" points="0,123.517 0,133.941 80.281,133.941 80.281,123.517 
	0,123.517 "/>
<polygon style="fill-rule:evenodd;clip-rule:evenodd;fill:#FFFFFF;" points="42.477,79.364 63.202,66.962 63.871,68.61 
	43.152,81.017 42.477,79.364 "/>
<path style="fill-rule:evenodd;clip-rule:evenodd;fill:#FFFFFF;" d="M69.159,98.503l-20.561,12.303l-0.665-1.635l20.554-12.313
	L69.159,98.503L69.159,98.503z M42.288,114.585l-4.857,2.906l-0.669-1.645l4.854-2.902L42.288,114.585L42.288,114.585z"/>
<path style="fill-rule:evenodd;clip-rule:evenodd;fill:#FFFFFF;" d="M59.797,84.981l-8.422,5.033l-0.665-1.643l8.412-5.039
	L59.797,84.981L59.797,84.981z M47.652,92.241l-22.811,13.654l-0.672-1.643l22.814-13.65L47.652,92.241L47.652,92.241z"/>
</svg>
