<?xml version="1.0" encoding="utf-8"?>
<!-- Generator: Adobe Illustrator 16.0.0, SVG Export Plug-In . SVG Version: 6.00 Build 0)  -->
<!DOCTYPE svg PUBLIC "-//W3C//DTD SVG 1.1//EN" "http://www.w3.org/Graphics/SVG/1.1/DTD/svg11.dtd">
<svg version="1.1" id="Layer_1" xmlns="http://www.w3.org/2000/svg" xmlns:xlink="http://www.w3.org/1999/xlink" x="0px" y="0px"
	 width="167.635px" height="313.291px" viewBox="0 0 167.635 313.291" style="enable-background:new 0 0 167.635 313.291;"
	 xml:space="preserve">
<g>
	<rect x="75.948" y="37.617" style="fill:#A55D2B;" width="19.561" height="275.673"/>
	<path style="fill:#B1672F;" d="M167.635,33.972v-18.36L18.416,0c0.185,1.301,0.211,2.621-0.02,3.962c-0.001,0-0.002,0-0.002,0
		c1.742,1.988,4.937,3.315,7.456,4.827c-3.265,0.562-6.441,1.144-6.441,1.144l0.462,3.476l11.175,4.182
		c-2.71,1.324-6.079,1.703-9.608,1.712c-0.036,0.614-1.946,16.109-1.848,16.461c3.473,1.879,8.053,3.638,10.32,5.141l-8.417,0.99
		v5.327l4.958,1.798c-3.352,1.424-8.319,3.068-8.957,3.329c0.197,0.615,0.375,1.239,0.528,1.865
		c4.316,1.321,10.25,1.692,12.673,5.453c-4.069,1.229-8.441,0.494-12.77,0.103c0.412,0.834,0.814,1.674,1.208,2.519
		c4.792,1.612,9.866,2.537,14.02,5.282c-1.582,3.057-10.633,5.909-17.415,7.143v7.526L165.97,97.957
		c-2.393-5.406-5.392-20.222-6.243-25.507c2.794,0.431,5.402,2.178,7.908,3.851v-5.998c-1.521-2.276-3.269-4.493-4.729-6.49
		l3.604-2.467l-1.969-6.021h2.432l0.101-2.702c0.015-0.255,0.412-11.073,0.412-11.073l-5.629-13.845
		C163.619,29.835,165.561,32.232,167.635,33.972z"/>
	<path style="fill:#B1672F;" d="M145.768,155.842l8.507-6.024l-3.474-14.668l-10.469,0.384c4.353-3.826,7.908-7.427,11.564-9.854
		v-3.099L0,138.474v16.503l15.433,4.89L0,167.201c0,0,0.222,2.54,0.562,6.51l5.646,5.826l-4.594,6.616
		c0.123,1.472,0.248,2.979,0.373,4.501h13.752l-13.341,5.015c0.098,1.209,0.195,2.413,0.29,3.603l4.425,2.246l-3.897,4.486
		c0.107,1.402,0.209,2.748,0.303,4.02l14.733,1.322L3.999,217.13c0.102,1.768,0.147,2.98,0.119,3.43l147.778-15.46v-7.425v-2.001
		l-12.444-2.935l12.444-2.855l1.605-17.216c0,0-7.885,0.651-9.608,0.574c0.008-0.108,0.03-0.203,0.044-0.307l9.643-3.973
		l0.077-12.97C153.657,155.993,147.309,155.765,145.768,155.842z"/>
</g>
</svg>
