<?xml version="1.0" encoding="utf-8"?>
<!-- Generator: Adobe Illustrator 16.0.0, SVG Export Plug-In . SVG Version: 6.00 Build 0)  -->
<!DOCTYPE svg PUBLIC "-//W3C//DTD SVG 1.1//EN" "http://www.w3.org/Graphics/SVG/1.1/DTD/svg11.dtd">
<svg version="1.1" id="Layer_1" xmlns="http://www.w3.org/2000/svg" xmlns:xlink="http://www.w3.org/1999/xlink" x="0px" y="0px"
	 width="48.018px" height="92.325px" viewBox="0 0 48.018 92.325" style="enable-background:new 0 0 48.018 92.325;"
	 xml:space="preserve">
<path style="fill-rule:evenodd;clip-rule:evenodd;fill:#FFFFFF;" d="M10.259,92.313c5.979-18.615,9.465-37.395,2.386-56.867
	l12.115,0.314l-0.728,56.559L10.259,92.313L10.259,92.313z"/>
<path style="fill-rule:evenodd;clip-rule:evenodd;fill:#FFFFFF;" d="M37.004,92.313c-5.977-18.615-9.461-37.389-2.379-56.867
	l-12.122,0.318l0.734,56.561L37.004,92.313L37.004,92.313z"/>
<path style="fill-rule:evenodd;clip-rule:evenodd;fill:#FFFFFF;" d="M2.273,30.228v3.65c0,3.83,3.111,6.939,6.939,6.939h29.588
	c3.832,0,6.943-3.109,6.943-6.939v-3.65c0-3.832-3.111-6.941-6.943-6.941H9.213C5.385,23.286,2.273,26.396,2.273,30.228
	L2.273,30.228z"/>
<path style="fill-rule:evenodd;clip-rule:evenodd;fill:#9EC2E8;" d="M24.283,25.255c-1.111-0.137-1.899-1.145-1.761-2.254
	c0.609-4.934,0.467-9.057-0.112-12.219c-0.586-3.215-1.585-5.215-2.495-6.148c-0.437-0.449-0.754-0.563-0.927-0.584
	c-0.146-0.018-0.38-0.008-0.758,0.258c-0.877,0.625-2.107,2.352-3.13,5.969c-0.298,1.07-1.417,1.701-2.492,1.395
	c-1.072-0.303-1.697-1.42-1.399-2.49c1.092-3.875,2.647-6.736,4.692-8.18c2.359-1.66,4.986-1.162,6.906,0.811
	c1.724,1.768,2.932,4.68,3.584,8.244c0.658,3.633,0.791,8.17,0.148,13.436C26.401,24.599,25.392,25.388,24.283,25.255L24.283,25.255
	z"/>
<path style="fill-rule:evenodd;clip-rule:evenodd;fill:#9EC2E8;" d="M35.714,14.433c-2.151-0.768-4.521,0.355-5.289,2.51
	c-0.768,2.15,0.357,4.52,2.509,5.283c2.151,0.771,4.521-0.354,5.288-2.508C38.989,17.567,37.864,15.198,35.714,14.433L35.714,14.433
	z"/>
<polygon style="fill-rule:evenodd;clip-rule:evenodd;fill:#9EC2E8;" points="36.031,19.151 33.88,25.192 30.117,23.854 
	32.269,17.812 36.031,19.151 "/>
<path style="fill-rule:evenodd;clip-rule:evenodd;fill:#9EC2E8;" d="M11.917,14.433c2.154-0.768,4.521,0.355,5.288,2.51
	c0.768,2.15-0.357,4.52-2.509,5.283c-2.15,0.771-4.521-0.354-5.284-2.508C8.641,17.567,9.766,15.198,11.917,14.433L11.917,14.433z"
	/>
<polygon style="fill-rule:evenodd;clip-rule:evenodd;fill:#9EC2E8;" points="11.603,19.151 13.753,25.192 17.516,23.854 
	15.365,17.812 11.603,19.151 "/>
<polygon style="fill-rule:evenodd;clip-rule:evenodd;fill:#9EC2E8;" points="0,23.288 0,28.183 48.018,28.183 48.018,23.288 
	0,23.288 "/>
</svg>
