<?xml version="1.0" encoding="utf-8"?>
<!-- Generator: Adobe Illustrator 16.0.0, SVG Export Plug-In . SVG Version: 6.00 Build 0)  -->
<!DOCTYPE svg PUBLIC "-//W3C//DTD SVG 1.1//EN" "http://www.w3.org/Graphics/SVG/1.1/DTD/svg11.dtd">
<svg version="1.1" id="Layer_1" xmlns="http://www.w3.org/2000/svg" xmlns:xlink="http://www.w3.org/1999/xlink" x="0px" y="0px"
	 width="134.031px" height="212.504px" viewBox="0 0 134.031 212.504" enable-background="new 0 0 134.031 212.504"
	 xml:space="preserve">
<g>
	<g>
		
			<ellipse transform="matrix(0.3075 -0.9516 0.9516 0.3075 -117.0216 104.2158)" fill="#FFFFFF" cx="13.087" cy="132.503" rx="9.446" ry="13.407"/>
		
			<ellipse transform="matrix(0.939 -0.3438 0.3438 0.939 -41.2252 14.8281)" fill="#FFFFFF" cx="21.202" cy="123.668" rx="9.446" ry="13.408"/>
		
			<ellipse transform="matrix(-0.3076 0.9515 -0.9515 -0.3076 310.3533 163.5014)" fill="#FFFFFF" cx="95.685" cy="194.676" rx="7.711" ry="10.942"/>
		
			<ellipse transform="matrix(-0.9391 0.3438 -0.3438 -0.9391 242.0985 360.8562)" fill="#FFFFFF" cx="89.062" cy="201.889" rx="7.711" ry="10.945"/>
		<polygon fill="#FFFFFF" points="92.729,191.741 85.796,199.287 11.851,133.849 21.256,123.611 		"/>
	</g>
	<g>
		
			<ellipse transform="matrix(0.9206 0.3905 -0.3905 0.9206 57.4664 -34.1698)" fill="#FFFFFF" cx="112.769" cy="124.245" rx="9.446" ry="13.407"/>
		
			<ellipse transform="matrix(0.2593 0.9658 -0.9658 0.2593 218.0665 -18.1263)" fill="#FFFFFF" cx="120.851" cy="133.11" rx="9.446" ry="13.408"/>
		
			<ellipse transform="matrix(-0.9206 -0.3904 0.3904 -0.9206 5.1283 403.0815)" fill="#FFFFFF" cx="43.531" cy="201.02" rx="7.711" ry="10.944"/>
		
			<ellipse transform="matrix(-0.2593 -0.9658 0.9658 -0.2593 -140.6394 279.7093)" fill="#FFFFFF" cx="36.934" cy="193.782" rx="7.712" ry="10.944"/>
		<polygon fill="#FFFFFF" points="46.718,198.333 39.813,190.761 111.536,122.894 120.904,133.168 		"/>
	</g>
	<g>
		<path fill="#FFFFFF" d="M88.087,115.919l-3.508-3.51h-6.553l-3.51,3.51l-3.507-3.51h-6.867l-3.508,3.51l-3.509-3.51H51.54
			l-3.509,3.51l-3.508-3.51h-3.986c1.777,8.301,7.354,16.051,16.253,17.609c3.185,0.558,6.703,0.721,10.227,0.517
			c3.521,0.204,7.041,0.041,10.226-0.517c8.9-1.559,14.476-9.309,16.254-17.609h-1.9L88.087,115.919z"/>
		<path fill="#FFFFFF" d="M110.188,39.042c-0.375-4.667-0.531-10.153-2.375-14.474C103.391,14.202,93.313,5.702,82.547,2.114
			c-5.035-1.679-10.292-2.305-15.53-2.064c-5.239-0.24-10.496,0.386-15.532,2.064C41.528,5.433,32.169,12.957,27.318,22.27
			c-0.394,0.756-0.768,1.52-1.1,2.298c-1.843,4.321-2.001,9.807-2.375,14.474c-0.447,5.565-0.594,11.348,0.661,16.827
			c0.832,3.633,2.032,7.334,2.041,11.091c0.009,3.643-0.341,7.267,0.278,10.9c0.436,2.558,1.005,5.5,2.575,7.582
			c1.739,2.306,3.74,4.418,5.689,6.552c2.816,3.084,4.832,7.484,5.047,11.641c0.082,1.569-0.082,3.187-0.079,4.776h4.84l3.146-3.146
			l3.144,3.146h6.313l3.146-3.146l3.144,3.146h7.594l3.146-3.146l3.144,3.146h7.281l3.144-3.146l3.145,3.146h2.733
			c0.003-1.59-0.161-3.207-0.078-4.776c0.214-4.157,2.23-8.557,5.047-11.641c1.949-2.134,3.949-4.247,5.689-6.552
			c1.571-2.082,2.14-5.024,2.575-7.582c0.619-3.634,0.27-7.258,0.278-10.9c0.004-2.02,0.357-4.023,0.808-6.009
			c0.388-1.708,0.85-3.402,1.233-5.082C110.781,50.389,110.636,44.606,110.188,39.042z M55.765,71.14
			c-3.29,3.665-7.96,7.695-13.161,7.796c-2.236,0.044-4.011-0.301-5.414-1c-3.23-1.61-5.156-5.632-5.263-9.135
			c-0.101-3.336-0.074-7.869,2.762-10.17c3.628-2.945,8.666-4.406,13.306-3.9c3.604,0.392,8.899,3.065,10.129,6.773
			C59.2,64.758,58.045,68.599,55.765,71.14z M66.292,94.035c-3.635-0.727-10.178-3.816-5.271-16.356
			c4.907-12.541,10.541-1.818,10.541-1.818C80.469,89.309,69.927,94.762,66.292,94.035z M101.394,69.709
			c-0.106,3.503-2.032,7.525-5.264,9.135c-1.401,0.699-3.177,1.044-5.412,1c-5.201-0.102-9.871-4.131-13.163-7.796
			c-2.279-2.541-3.434-6.382-2.356-9.636c1.228-3.708,6.525-6.381,10.128-6.773c4.64-0.505,9.679,0.955,13.308,3.9
			C101.469,61.84,101.494,66.374,101.394,69.709z"/>
	</g>
</g>
</svg>
