<?xml version="1.0" encoding="utf-8"?>
<!-- Generator: Adobe Illustrator 16.0.0, SVG Export Plug-In . SVG Version: 6.00 Build 0)  -->
<!DOCTYPE svg PUBLIC "-//W3C//DTD SVG 1.1//EN" "http://www.w3.org/Graphics/SVG/1.1/DTD/svg11.dtd">
<svg version="1.1" id="Layer_1" xmlns="http://www.w3.org/2000/svg" xmlns:xlink="http://www.w3.org/1999/xlink" x="0px" y="0px"
	 width="106.346px" height="68.254px" viewBox="0 0 106.346 68.254" style="enable-background:new 0 0 106.346 68.254;"
	 xml:space="preserve">
<path style="fill-rule:evenodd;clip-rule:evenodd;fill:#8CADCF;" d="M3.233,7.547l3.822,30.189c0,4.165,3.385,7.551,7.548,7.551
	h77.138c4.17,0,7.552-3.386,7.552-7.551l3.822-30.189C103.115,3.382,99.73,0,95.567,0H10.781C6.618,0,3.233,3.382,3.233,7.547
	L3.233,7.547z"/>
<polygon style="fill-rule:evenodd;clip-rule:evenodd;fill:#696978;" points="14.074,43.738 14.074,68.254 19.382,68.254 
	19.382,43.738 14.074,43.738 "/>
<polygon style="fill-rule:evenodd;clip-rule:evenodd;fill:#696978;" points="84.825,43.738 84.825,68.254 90.13,68.254 
	90.13,43.738 84.825,43.738 "/>
<path style="fill-rule:evenodd;clip-rule:evenodd;fill:#6B99C9;" d="M0.003,45.212v2.697c0,4.165,3.382,7.546,7.545,7.546H98.8
	c4.163,0,7.546-3.381,7.546-7.546v-2.697c0-4.165-3.383-7.546-7.546-7.546H7.548C3.385,37.666,0.003,41.047,0.003,45.212
	L0.003,45.212z"/>
<path style="fill-rule:evenodd;clip-rule:evenodd;fill:#9EC2E8;" d="M0,33.291v2.697c0,4.164,3.382,7.546,7.545,7.546h5.579
	c4.163,0,7.545-3.382,7.545-7.546v-2.697c0-4.165-3.382-7.547-7.545-7.547H7.545C3.382,25.744,0,29.126,0,33.291L0,33.291z"/>
<path style="fill-rule:evenodd;clip-rule:evenodd;fill:#9EC2E8;" d="M85.421,33.291v2.697c0,4.164,3.382,7.546,7.545,7.546h5.58
	c4.162,0,7.545-3.382,7.545-7.546v-2.697c0-4.165-3.383-7.547-7.545-7.547h-5.58C88.803,25.744,85.421,29.126,85.421,33.291
	L85.421,33.291z"/>
<path style="fill-rule:evenodd;clip-rule:evenodd;fill:#FFFFFF;" d="M90.187,23.04c-7.886-4.222-14.961-5.205-22.734-5.151
	c-3.696,6.846-5.652,13.446-4.683,21.01c6.33,2.24,13.789,3.779,22.728,4.388C88.532,36.848,90.21,30.119,90.187,23.04L90.187,23.04
	z"/>
</svg>
