<?xml version="1.0" encoding="utf-8"?>
<!-- Generator: Adobe Illustrator 16.0.0, SVG Export Plug-In . SVG Version: 6.00 Build 0)  -->
<!DOCTYPE svg PUBLIC "-//W3C//DTD SVG 1.1//EN" "http://www.w3.org/Graphics/SVG/1.1/DTD/svg11.dtd">
<svg version="1.1" id="Layer_1" xmlns="http://www.w3.org/2000/svg" xmlns:xlink="http://www.w3.org/1999/xlink" x="0px" y="0px"
	 width="125.617px" height="136.996px" viewBox="0 0 125.617 136.996" style="enable-background:new 0 0 125.617 136.996;"
	 xml:space="preserve">
<g>
	<path style="fill:#695A42;" d="M89.805,46.974c0,0,2.988-46.974-48.967-46.974C2.662,0-0.338,40.122,0.025,46.974
		c0,0,0.25,29.828,31.637,29.828c0,0-1.475,41.112,36.246,41.112"/>
	<g>
		<g>
			<g>
				<g>
					<path style="fill:#695A42;" d="M115.945,104.759c0,13.088-11.785,23.697-26.324,23.697V81.062
						C104.16,81.062,115.945,91.672,115.945,104.759z"/>
				</g>
			</g>
			<g>
				<g>
					<path style="fill:#877B58;" d="M63.297,104.759c0-13.087,11.789-23.697,26.324-23.697v47.395
						C75.086,128.456,63.297,117.847,63.297,104.759z"/>
				</g>
			</g>
		</g>
		<g>
			<g>
				<path style="fill:#695A42;" d="M89.729,69.708c16.838,0,30.494,10.609,30.494,23.695c0,13.087-13.656,26.14-30.494,26.14
					c-16.84,0-30.496-13.053-30.496-26.14C59.232,80.317,72.889,69.708,89.729,69.708z"/>
			</g>
		</g>
		<g>
			<g>
				<g>
					<rect x="93.967" y="122.662" style="fill:#695A42;" width="11.893" height="10.368"/>
				</g>
			</g>
			<g>
				<g>
					<path style="fill:#695A42;" d="M90.611,136.996c0-5.14,4.162-9.303,9.303-9.303c5.137,0,9.301,4.163,9.301,9.303H90.611z"/>
				</g>
			</g>
			<g>
				<g>
					<rect x="73.381" y="122.662" style="fill:#877B58;" width="11.895" height="10.368"/>
				</g>
			</g>
			<g>
				<g>
					<path style="fill:#877B58;" d="M70.027,136.996c0-5.14,4.162-9.303,9.303-9.303c5.135,0,9.299,4.163,9.299,9.303H70.027z"/>
				</g>
			</g>
		</g>
	</g>
	<g>
		<g>
			<path style="fill:#877B58;" d="M53.836,97.809c0-5.765,1.43-17.989,1.43-17.989c2.441-16.469,10.066-26.532,19.211-29.886
				c0.422-0.155,0.83-0.325,1.236-0.493c0.088-0.039,0.182-0.069,0.268-0.108c3.928-1.49,8.656-2.358,13.746-2.358v27.917v10.41
				c-11.26,0.062-20.371,9.879-20.371,21.982c0,0.708,0.035,1.409,0.096,2.101c-0.135-0.098-0.271-0.192-0.402-0.292
				c-1.92-1.471-3.756-3.064-5.74-4.333c0.002-0.018,0.008-0.035,0.01-0.053C56.043,100.068,53.836,97.809,53.836,97.809z"/>
			<path style="fill:#695A42;" d="M89.832,85.298c-0.035,0-0.07,0.003-0.105,0.003v-10.41V46.974c5.09,0,9.813,0.868,13.744,2.358
				c0.094,0.039,0.186,0.071,0.279,0.11c0.402,0.17,0.807,0.338,1.227,0.491c9.145,3.354,16.77,13.417,19.211,29.886
				c0,0,1.43,11.638,1.43,17.989c0,0-2.266,2.276-9.566,6.95c0,0-3.887,2.842-5.814,4.316c0.045-0.592,0.074-1.188,0.074-1.792
				C110.311,95.142,101.143,85.298,89.832,85.298z"/>
			<path style="fill:#DDDBD9;" d="M89.727,85.301v2.142c-0.008,0-0.018,0-0.025,0c0.008,0,0.018,0,0.025,0v26.831
				c-0.033,0-0.063,0.002-0.094,0.002c-9.785,0-15.979-1.839-20.182-4.892c-0.061-0.691-0.096-1.393-0.096-2.101
				C69.355,95.18,78.467,85.362,89.727,85.301z"/>
			<path style="fill:#C4BAAB;" d="M89.727,114.273V87.442c0.023,0,0.047,0.001,0.068,0.001c-0.021,0-0.045-0.001-0.068-0.001v-2.142
				c0.035,0,0.07-0.003,0.105-0.003c11.311,0,20.479,9.844,20.479,21.985c0,0.604-0.029,1.2-0.074,1.792
				c-0.006,0.006-0.016,0.012-0.021,0.017C106.023,112.309,98.982,114.26,89.727,114.273z"/>
		</g>
		<g>
			<g>
				<g>
					<g>
						<g>
							<path style="fill:#4B190D;" d="M103.746,49.442c-0.096-0.039-0.188-0.071-0.279-0.11
								C103.563,49.368,103.65,49.405,103.746,49.442z"/>
						</g>
					</g>
				</g>
				<g>
					<g>
						<g>
							<path style="fill:#4B190D;" d="M75.975,49.332c-0.086,0.039-0.18,0.069-0.268,0.108
								C75.799,49.403,75.885,49.367,75.975,49.332z"/>
						</g>
					</g>
				</g>
			</g>
			<g>
				<g>
					<path style="fill:#723E2B;" d="M82.74,89.625l7.064,0.808l7.064-0.808c0.658-0.085,1.273,0.404,1.352,1.075
						c0.076,0.67-0.406,1.274-1.076,1.35l-6.039,0.692v8.875c0.402,0.475,1.33,1.368,2.271,0.863
						c0.596-0.32,1.334-0.098,1.654,0.497c0.318,0.594,0.096,1.334-0.498,1.653c-0.598,0.321-1.182,0.456-1.734,0.456
						c-1.182,0-2.221-0.611-2.982-1.304c-0.748,0.693-1.775,1.306-2.971,1.306c-0.555,0-1.141-0.133-1.752-0.448
						c-0.602-0.312-0.836-1.048-0.523-1.646c0.309-0.599,1.045-0.832,1.646-0.521c1.008,0.517,1.898-0.362,2.283-0.841v-8.89
						l-6.039-0.692c-0.666-0.075-1.148-0.68-1.072-1.35C81.465,90.028,82.072,89.538,82.74,89.625z"/>
				</g>
			</g>
		</g>
		<g>
			<path style="fill:#877B58;" d="M76.641,49.442L61.764,28.977c0,0-9.029,21.393,0.609,32.44L76.641,49.442z"/>
			<path style="fill:#695A42;" d="M102.813,49.442l14.879-20.466c0,0,9.029,21.393-0.609,32.44L102.813,49.442z"/>
		</g>
		<g>
			<ellipse style="fill:#CB8128;" cx="113.132" cy="74.481" rx="4.468" ry="6.182"/>
			<circle style="fill:#DDDBD9;" cx="113.582" cy="72.094" r="2.387"/>
			<ellipse style="fill:#CB8128;" cx="66.322" cy="74.481" rx="4.467" ry="6.182"/>
			<circle style="fill:#DDDBD9;" cx="66.772" cy="72.094" r="2.388"/>
		</g>
	</g>
</g>
</svg>
