<?xml version="1.0" encoding="utf-8"?>
<!-- Generator: Adobe Illustrator 16.0.0, SVG Export Plug-In . SVG Version: 6.00 Build 0)  -->
<!DOCTYPE svg PUBLIC "-//W3C//DTD SVG 1.1//EN" "http://www.w3.org/Graphics/SVG/1.1/DTD/svg11.dtd">
<svg version="1.1" id="Layer_1" xmlns="http://www.w3.org/2000/svg" xmlns:xlink="http://www.w3.org/1999/xlink" x="0px" y="0px"
	 width="73.678px" height="111.434px" viewBox="26.972 278.535 73.678 111.434"
	 style="enable-background:new 26.972 278.535 73.678 111.434;" xml:space="preserve">
<g>
	<path style="fill:#CED8D8;" d="M100.65,316.342v-31.345H73.385c-0.486-2.729-3.623-4.839-7.43-4.839
		c-3.805,0-6.941,2.109-7.427,4.839H31.054v31.345h2.291v31.764h-3.75v41.863h71.055v-41.863h-2.502v-31.764H100.65z
		 M94.607,348.105H37.304v-31.764h57.303V348.105z"/>
	<g>
		<rect x="26.972" y="346.298" style="fill:#D64752;" width="71.54" height="41.749"/>
		<g>
			<rect x="30.749" y="311.473" style="fill:#ED8E98;" width="3.986" height="34.825"/>
			<rect x="92.428" y="311.473" style="fill:#ED8E98;" width="3.566" height="34.825"/>
		</g>
		<g>
			<rect x="28.441" y="283.359" style="fill:#D64752;" width="70.071" height="31.26"/>
			<path style="fill:#D64752;" d="M56.029,284.094c0-3.07,3.381-5.559,7.552-5.559s7.553,2.488,7.553,5.559"/>
		</g>
		<g>
			<circle style="fill:#EFC12E;" cx="32.742" cy="286.822" r="1.783"/>
			<circle style="fill:#EFC12E;" cx="40.226" cy="286.822" r="1.783"/>
			<circle style="fill:#EFC12E;" cx="48.011" cy="286.822" r="1.783"/>
			<circle style="fill:#EFC12E;" cx="55.796" cy="286.822" r="1.783"/>
			<circle style="fill:#EFC12E;" cx="63.582" cy="286.822" r="1.784"/>
			<circle style="fill:#EFC12E;" cx="71.366" cy="286.822" r="1.783"/>
			<circle style="fill:#EFC12E;" cx="79.151" cy="286.822" r="1.784"/>
			<circle style="fill:#EFC12E;" cx="86.936" cy="286.822" r="1.784"/>
			<circle style="fill:#EFC12E;" cx="40.226" cy="311.473" r="1.783"/>
			<circle style="fill:#EFC12E;" cx="48.011" cy="311.473" r="1.783"/>
			<circle style="fill:#EFC12E;" cx="55.796" cy="311.473" r="1.783"/>
			<circle style="fill:#EFC12E;" cx="63.582" cy="311.473" r="1.784"/>
			<circle style="fill:#EFC12E;" cx="71.366" cy="311.473" r="1.783"/>
			<circle style="fill:#EFC12E;" cx="79.151" cy="311.473" r="1.784"/>
			<circle style="fill:#EFC12E;" cx="86.936" cy="311.473" r="1.784"/>
			<circle style="fill:#EFC12E;" cx="94.721" cy="286.822" r="1.783"/>
			<circle style="fill:#EFC12E;" cx="94.721" cy="294.986" r="1.783"/>
			<circle style="fill:#EFC12E;" cx="94.721" cy="303.152" r="1.783"/>
			<circle style="fill:#EFC12E;" cx="94.721" cy="311.316" r="1.783"/>
			<circle style="fill:#EFC12E;" cx="32.441" cy="294.986" r="1.783"/>
			<circle style="fill:#EFC12E;" cx="32.441" cy="303.152" r="1.783"/>
			<circle style="fill:#EFC12E;" cx="32.441" cy="311.316" r="1.783"/>
		</g>
		<rect x="36.369" y="290.357" style="fill:#ED8E98;" width="54.25" height="17.339"/>
	</g>
</g>
</svg>
