<?xml version="1.0" encoding="utf-8"?>
<!-- Generator: Adobe Illustrator 16.0.0, SVG Export Plug-In . SVG Version: 6.00 Build 0)  -->
<!DOCTYPE svg PUBLIC "-//W3C//DTD SVG 1.1//EN" "http://www.w3.org/Graphics/SVG/1.1/DTD/svg11.dtd">
<svg version="1.1" id="Layer_1" xmlns="http://www.w3.org/2000/svg" xmlns:xlink="http://www.w3.org/1999/xlink" x="0px" y="0px"
	 width="85.734px" height="81.938px" viewBox="20.078 25.765 85.734 81.938"
	 style="enable-background:new 20.078 25.765 85.734 81.938;" xml:space="preserve">
<g>
	<path style="fill:#FBC16C;" d="M61.079,69.867c0.006-1.067,0.815-1.931,1.853-2.043v-5.253c-0.006,0-0.011,0.001-0.017,0.001
		c-1.147-0.007-2.071-0.944-2.063-2.093c0.008-1.143,0.935-2.063,2.079-2.061v-5.204c-1.125-0.031-2.026-0.951-2.021-2.087
		c0.006-1.119,0.904-2.023,2.021-2.057v-5.084c-1.098-0.06-1.968-0.966-1.961-2.08c0.01-1.104,0.874-1.99,1.961-2.052V34.12
		c-1.11-0.051-1.994-0.962-1.988-2.085c0.006-1.11,0.888-2.007,1.988-2.056v-4.201c-7.789,0.255-4.458,25.218-10.873,29.848
		c-6.451,4.655-29.323-6.542-31.808,1.015s22.567,12.113,25.002,19.69c2.43,7.574-15.284,25.859-8.863,30.559
		c6.417,4.699,18.492-17.721,26.45-17.691c0.03,0,0.062,0.006,0.092,0.008V71.934C61.881,71.82,61.07,70.941,61.079,69.867z
		 M55.537,64.605c1.147,0.006,2.071,0.943,2.063,2.09c-0.007,1.147-0.942,2.072-2.091,2.065c-1.149-0.005-2.071-0.945-2.064-2.092
		C53.45,65.522,54.387,64.597,55.537,64.605z M25.298,60.252c-1.146-0.009-2.07-0.945-2.064-2.092
		c0.008-1.147,0.944-2.072,2.093-2.065c1.146,0.005,2.07,0.945,2.063,2.091C27.385,59.333,26.447,60.258,25.298,60.252z
		 M35.02,63.56c-1.146-0.005-2.073-0.941-2.066-2.088c0.008-1.147,0.946-2.075,2.094-2.067s2.071,0.948,2.063,2.094
		S36.168,63.567,35.02,63.56z M45.259,66.617c-1.146-0.009-2.071-0.946-2.063-2.095c0.01-1.146,0.941-2.071,2.09-2.063
		c1.15,0.008,2.075,0.942,2.069,2.089C47.346,65.697,46.409,66.624,45.259,66.617z M39.942,103.404
		c-1.149-0.006-2.075-0.943-2.067-2.09c0.007-1.15,0.944-2.074,2.091-2.066c1.148,0.008,2.073,0.943,2.065,2.092
		C42.023,102.486,41.085,103.414,39.942,103.404z M45.985,95.594c-1.147-0.008-2.076-0.945-2.067-2.092
		c0.009-1.148,0.943-2.072,2.091-2.066c1.148,0.008,2.074,0.945,2.064,2.094C48.066,94.676,47.13,95.602,45.985,95.594z
		 M52.532,87.063c-1.148-0.01-2.073-0.943-2.064-2.094c0.007-1.146,0.944-2.07,2.094-2.064c1.147,0.008,2.068,0.947,2.062,2.094
		C54.617,86.146,53.681,87.068,52.532,87.063z M57.521,78.779c-1.146-0.004-2.071-0.943-2.063-2.09
		c0.006-1.148,0.943-2.072,2.089-2.063c1.151,0.002,2.075,0.941,2.068,2.09C59.609,77.863,58.667,78.789,57.521,78.779z"/>
	<path style="fill:#FFFFFF;" d="M60.943,32.035c-0.006,1.123,0.878,2.034,1.988,2.085v-4.141
		C61.831,30.028,60.949,30.924,60.943,32.035z"/>
	<path style="fill:#FFFFFF;" d="M60.97,41.907c-0.007,1.114,0.863,2.021,1.961,2.08v-4.132C61.844,39.917,60.98,40.803,60.97,41.907
		z"/>
	<path style="fill:#FFFFFF;" d="M60.911,51.127c-0.006,1.136,0.896,2.056,2.021,2.087v-4.144
		C61.815,49.104,60.917,50.008,60.911,51.127z"/>
	<path style="fill:#FFFFFF;" d="M60.852,60.479c-0.009,1.148,0.915,2.086,2.063,2.093c0.006,0,0.011-0.001,0.017-0.001v-4.152
		C61.787,58.417,60.86,59.336,60.852,60.479z"/>
	<circle style="fill:#FFFFFF;" cx="55.523" cy="66.683" r="2.078"/>
	<path style="fill:#FFFFFF;" d="M47.356,64.548c0.006-1.146-0.919-2.081-2.069-2.089c-1.148-0.009-2.08,0.917-2.09,2.063
		c-0.009,1.148,0.916,2.086,2.063,2.095C46.409,66.624,47.346,65.697,47.356,64.548z"/>
	<path style="fill:#FFFFFF;" d="M35.047,59.405c-1.147-0.008-2.086,0.92-2.094,2.067c-0.007,1.146,0.92,2.083,2.066,2.088
		c1.148,0.007,2.083-0.916,2.091-2.062S36.195,59.413,35.047,59.405z"/>
	<circle style="fill:#FFFFFF;" cx="25.313" cy="58.174" r="2.079"/>
	<path style="fill:#FFFFFF;" d="M57.547,74.627c-1.146-0.01-2.083,0.914-2.089,2.063c-0.009,1.146,0.916,2.086,2.063,2.09
		c1.146,0.01,2.088-0.916,2.095-2.063C59.623,75.568,58.699,74.629,57.547,74.627z"/>
	<circle style="fill:#FFFFFF;" cx="52.546" cy="84.983" r="2.079"/>
	<path style="fill:#FFFFFF;" d="M46.008,91.436c-1.147-0.006-2.082,0.918-2.091,2.066c-0.009,1.146,0.92,2.084,2.067,2.092
		c1.146,0.008,2.081-0.918,2.088-2.064C48.083,92.381,47.157,91.443,46.008,91.436z"/>
	<path style="fill:#FFFFFF;" d="M39.965,99.248c-1.146-0.008-2.084,0.916-2.091,2.066c-0.008,1.146,0.918,2.084,2.067,2.09
		c1.144,0.01,2.081-0.918,2.089-2.064C42.039,100.191,41.114,99.256,39.965,99.248z"/>
	<path style="fill:#FFFFFF;" d="M61.079,69.867c-0.009,1.074,0.803,1.953,1.853,2.066v-4.11
		C61.894,67.936,61.084,68.8,61.079,69.867z"/>
	<path style="fill:#DCDCDC;" d="M62.931,25.765v0.013c0.044-0.002,0.084-0.013,0.129-0.013H62.931z"/>
	<path style="fill:#FF9F00;" d="M89.162,107.068c6.451-4.652-11.137-23.064-8.652-30.621c2.484-7.557,27.568-11.939,25.137-19.515
		c-2.434-7.574-25.379,3.467-31.797-1.232C67.43,51,71.012,25.794,63.06,25.765c-0.045,0-0.085,0.011-0.129,0.013v4.201
		c0.035-0.002,0.068-0.01,0.104-0.01c1.145,0.01,2.071,0.945,2.065,2.092c-0.006,1.147-0.947,2.075-2.091,2.066
		c-0.026,0-0.051-0.008-0.077-0.008v5.735c0.044-0.003,0.086-0.013,0.131-0.013c1.147,0.01,2.073,0.945,2.067,2.091
		c-0.006,1.148-0.947,2.073-2.095,2.064c-0.035,0-0.067-0.009-0.103-0.011v5.084c0.024-0.001,0.047-0.007,0.071-0.007
		c1.148,0.007,2.074,0.943,2.066,2.092s-0.945,2.073-2.092,2.063c-0.016,0-0.029-0.004-0.045-0.005v5.204
		c0.004,0,0.007-0.001,0.011-0.001c1.146,0.006,2.074,0.943,2.068,2.09c-0.01,1.145-0.939,2.063-2.079,2.063v5.253
		c0.079-0.009,0.157-0.022,0.239-0.022c1.146,0.008,2.07,0.944,2.064,2.091c-0.008,1.148-0.947,2.074-2.09,2.064
		c-0.073,0-0.142-0.016-0.213-0.023v17.271C70.885,89.4,82.738,111.705,89.162,107.068z M85.816,99.543
		c1.146,0.008,2.068,0.943,2.063,2.096c-0.006,1.146-0.943,2.07-2.092,2.064c-1.148-0.008-2.072-0.945-2.064-2.092
		C83.73,100.461,84.666,99.535,85.816,99.543z M101.014,56.583c1.148,0.007,2.072,0.946,2.066,2.093
		c-0.008,1.15-0.943,2.072-2.094,2.065c-1.148-0.009-2.074-0.944-2.064-2.093C98.93,57.501,99.867,56.578,101.014,56.583z
		 M91.248,59.769c1.15,0.006,2.076,0.943,2.068,2.089c-0.008,1.149-0.945,2.074-2.094,2.064c-1.146-0.004-2.072-0.94-2.066-2.088
		C89.166,60.685,90.104,59.76,91.248,59.769z M80.971,62.689c1.146,0.008,2.07,0.946,2.064,2.09
		c-0.008,1.151-0.945,2.074-2.092,2.064c-1.148-0.004-2.074-0.941-2.066-2.089C78.887,63.606,79.822,62.682,80.971,62.689z
		 M79.875,91.654c1.146,0.008,2.072,0.945,2.064,2.09c-0.008,1.146-0.945,2.074-2.092,2.068c-1.15-0.008-2.074-0.943-2.066-2.094
		C77.789,92.572,78.725,91.646,79.875,91.654z M68.525,78.85c-1.148-0.004-2.072-0.943-2.064-2.09
		c0.006-1.148,0.943-2.072,2.09-2.064c1.146,0.006,2.074,0.943,2.066,2.09C70.609,77.934,69.674,78.857,68.525,78.85z
		 M68.604,66.767c0.006-1.146,0.945-2.072,2.094-2.065c1.145,0.009,2.07,0.944,2.063,2.092c-0.008,1.146-0.943,2.07-2.09,2.065
		C69.521,68.851,68.596,67.913,68.604,66.767z M71.342,85.105c0.008-1.146,0.945-2.072,2.092-2.064
		c1.148,0.008,2.072,0.943,2.066,2.09c-0.008,1.15-0.943,2.072-2.092,2.066C72.26,87.189,71.336,86.254,71.342,85.105z"/>
	<path style="fill:#FFFFFF;" d="M63.008,34.127c1.144,0.009,2.085-0.919,2.091-2.066c0.006-1.146-0.92-2.082-2.065-2.092
		c-0.035,0-0.068,0.008-0.104,0.01v4.141C62.958,34.12,62.982,34.127,63.008,34.127z"/>
	<path style="fill:#FFFFFF;" d="M63.034,43.998c1.148,0.009,2.089-0.916,2.095-2.064c0.006-1.146-0.92-2.081-2.067-2.091
		c-0.045,0-0.087,0.01-0.131,0.013v4.132C62.966,43.989,62.999,43.998,63.034,43.998z"/>
	<path style="fill:#FFFFFF;" d="M62.976,53.219c1.147,0.01,2.084-0.915,2.092-2.063s-0.918-2.085-2.066-2.092
		c-0.024,0-0.047,0.006-0.071,0.007v4.144C62.947,53.215,62.96,53.219,62.976,53.219z"/>
	<path style="fill:#FFFFFF;" d="M65.01,60.507c0.006-1.146-0.922-2.084-2.068-2.09c-0.004,0-0.007,0.001-0.011,0.001v4.152
		C64.07,62.571,65,61.652,65.01,60.507z"/>
	<circle style="fill:#FFFFFF;" cx="70.682" cy="66.78" r="2.078"/>
	<path style="fill:#FFFFFF;" d="M80.943,66.843c1.146,0.01,2.084-0.913,2.092-2.064c0.006-1.144-0.918-2.082-2.064-2.09
		c-1.148-0.007-2.084,0.917-2.094,2.065C78.869,65.902,79.795,66.839,80.943,66.843z"/>
	<path style="fill:#FFFFFF;" d="M91.223,63.922c1.148,0.01,2.086-0.915,2.094-2.064c0.008-1.146-0.918-2.083-2.068-2.089
		c-1.145-0.009-2.082,0.916-2.092,2.065C89.15,62.982,90.076,63.918,91.223,63.922z"/>
	<circle style="fill:#FFFFFF;" cx="101" cy="58.662" r="2.079"/>
	<circle style="fill:#FFFFFF;" cx="68.538" cy="76.772" r="2.077"/>
	<circle style="fill:#FFFFFF;" cx="73.421" cy="85.118" r="2.079"/>
	<path style="fill:#FFFFFF;" d="M79.848,95.813c1.146,0.006,2.084-0.922,2.092-2.068c0.008-1.145-0.918-2.082-2.064-2.09
		c-1.15-0.008-2.086,0.918-2.094,2.064C77.773,94.869,78.697,95.805,79.848,95.813z"/>
	<path style="fill:#FFFFFF;" d="M85.787,103.703c1.148,0.006,2.086-0.918,2.092-2.064c0.006-1.152-0.916-2.088-2.063-2.096
		c-1.15-0.008-2.086,0.918-2.094,2.068C83.715,102.758,84.639,103.695,85.787,103.703z"/>
	<path style="fill:#FFFFFF;" d="M63.144,71.957c1.143,0.01,2.083-0.916,2.09-2.064c0.006-1.147-0.918-2.083-2.064-2.091
		c-0.082,0-0.16,0.014-0.239,0.022v4.11C63.002,71.941,63.071,71.957,63.144,71.957z"/>
</g>
</svg>
