<?xml version="1.0" encoding="utf-8"?>
<!-- Generator: Adobe Illustrator 16.0.0, SVG Export Plug-In . SVG Version: 6.00 Build 0)  -->
<!DOCTYPE svg PUBLIC "-//W3C//DTD SVG 1.1//EN" "http://www.w3.org/Graphics/SVG/1.1/DTD/svg11.dtd">
<svg version="1.1" id="Layer_1" xmlns="http://www.w3.org/2000/svg" xmlns:xlink="http://www.w3.org/1999/xlink" x="0px" y="0px"
	 width="78.731px" height="217.868px" viewBox="3.238 -32.869 78.731 217.868"
	 style="enable-background:new 3.238 -32.869 78.731 217.868;" xml:space="preserve">
<g>
	<path style="fill:#E2AA15;" d="M51.676,30.654c3.182-0.084,9.542-1.134,9.298-1.22c-0.268-0.092-6.125-1.289-9.187-1.81
		l-0.216,3.317C51.608,30.863,51.647,30.779,51.676,30.654z"/>
	<path style="fill:#E2AA15;" d="M49.657,23.281c0.952-1.122,5.225-8.231,4.821-7.954c-1.515,1.033-7.02,5.922-7.783,6.451
		c-0.02-0.009-0.04-0.012-0.064-0.022L49.657,23.281z"/>
	<polygon style="fill:#E2AA15;" points="51.616,26.889 60.199,22.45 50.148,24.269 50.417,24.852 	"/>
	<polygon style="fill:#8E488F;" points="50.7,24.226 50.632,24.237 50.968,24.809 	"/>
	<path style="fill:#E2AA15;" d="M79.619,166.308c0,0-23.846-0.155-23.782-0.396l-15.629-0.174l-0.266,19.262h39.117L79.619,166.308z
		"/>
	<path style="fill:#DA6426;" d="M43.118,166.016l15.63,0.174c0.188-0.755,0.704-2.459,1.727-3.784
		c1.343-1.793,0.312-35.526,0.312-35.526s1.351-3.454,2.338-4.09c1.003-0.651-1.403-22.467-0.919-22.788
		c0.504-0.282,3.729-1.984,5.568-2.908c1.823-0.941,5.461-10.883,5.461-10.883s1.151-1.357,2.803-2.459
		c1.663-1.115,3.222-4.513,3.901-6.13c0.708-1.641-0.563-3.465-0.563-3.465l2.595-5.527l-0.932-1.488l-9.754-4.815l-4.233,5.963
		c0,0-3.723-2.228-5.641-4.563c-1.923-2.34-1.295-7.903-3.346-11.56c-0.932-1.637-2.93-2.806-4.877-3.601
		c-0.651-2.027-1.667-5.112-1.955-6.395c-0.444-1.979-0.212-5.76,0.332-6.894c0.324-0.743,0.064-2.769-0.148-4.085
		c0.188-0.402,0.368-0.46,0.487-0.739c0,0,0.044-3.081-0.339-4.359c-0.384-1.279-1.679-3.206-2.199-3.565
		c0.008-0.007-3.09-1.367-3.09-1.367c-0.375-0.121-0.771-0.193-1.159-0.273l-0.06,4.227c0.627,0.252,1.963-0.007,2.986,0.875
		c1.075,0.862,1.643,2.858,1.467,3.361c-0.176,0.479-3.989-2.456-4.421-2.509c-0.016-0.002-0.04-0.009-0.052-0.011l-0.028,1.819
		c0.788,0.683,1.619,1.5,1.619,1.5s-0.888,0.15-1.643,0.354l-0.044,3.06c0.016,0,0.016-0.02,0.032-0.02c0,0,2.027,0.104,2.055,0.611
		c0.048,0.494-0.62,2.332-1.139,2.481c-0.264,0.085-0.708-0.784-0.967-1.626L43.118,166.016z M71.703,64.201l8.184,4.121
		l-1.819,3.898c0,0-1.982-0.257-3.102,0.586c-1.092,0.843-2.914,3.854-2.931,4.729c-0.023,0.882,0.372,2.855,0.372,2.855
		l-6.592,11.004l-1.292-1.112L63.796,74.98L71.703,64.201z"/>
	<path style="fill:#F9BB14;" d="M21.867-19.909c-0.004-0.633,0.136-1.608,0.596-1.886c0.691-0.382,2.035-1.205,2.061-2.892
		c0.02-1.698,0.164-2.689,0.596-3.258c0.422-0.563,1.409-1.351,1.409-1.351l-3.605,1.237l3.658-4.81c0,0-6.258,1.4-8.451,3.03
		c-1.567,1.191-2.612,2.677-1.801,6.051c0.334,1.411,0.755,2.703,1.457,3.511c-0.114,0-0.218,0.011-0.328,0.013l5.103,0.507
		C22.333-19.808,22.108-19.865,21.867-19.909z"/>
	<path style="fill:#F9BB14;" d="M44.948,20.959L44.112,9.453l-2.273,11.242c-0.046,0.002-0.076,0.002-0.116,0.002l3.293,0.284
		C44.992,20.974,44.972,20.965,44.948,20.959z"/>
	<path style="fill:#F9BB14;" d="M29.278,25.858c0.144,0.781,0.32,1.485,0.558,2.169c1.383,0.296,3.554,0.872,3.554,0.872
		s0.036,0.066,0.092,0.169l0.154-2.878C33.412,26.161,31.037,25.838,29.278,25.858z"/>
	<path style="fill:#F9BB14;" d="M32.32,13.029c-0.366-0.368,3.844,9.005,3.844,9.005l-0.02,0.027l-0.012,0.02l3.486-1.009
		C39.198,20.604,32.698,13.37,32.32,13.029z"/>
	<path style="fill:#F9BB14;" d="M29.33,21.084c-0.148,0.439-0.293,0.904-0.445,1.404l5.022,2.728l1.374-2.037L29.33,21.084z"/>
	<path style="fill:#F26E25;" d="M44.92,35.01c-0.216-0.718-0.284-1.396,0.02-1.446l0.044-3.06c-0.456,0.121-0.868,0.267-1,0.41
		c-0.319,0.371-0.108,2.731-0.176,3.166c-0.063,0.43-0.287,0.63-0.767,0.619c-0.5-0.008-1.031,0.161-1.031,0.161l0.653,1.052
		l-0.016,0.576c0,0-0.154,0.072-0.635,0.063c-0.502-0.013-0.678,0.367-0.782,0.644c-0.138,0.252,0.646,0.074,1.095,0.085
		c0.426,0.009,0.598,0.617,0.598,0.617s-0.026,1.191-0.038,1.692c-0.01,0.489-0.362,0.543-0.95,0.465
		c-0.602-0.062-2.406-0.224-2.996-1.325c-0.568-1.127-0.616-3.807-0.33-4.271c0.286-0.475,2.44-1.367,2.828-1.462
		c0.374-0.103,0.52-1.186,0.414-1.748c-0.1-0.56-1.883-0.977-1.883-0.977c-0.905-0.909,3.236-2.666,3.78-2.525
		c0.219,0.039,0.727,0.44,1.258,0.906l0.028-1.819c-0.508-0.108-2.063-0.687-2.959-0.196c-0.958,0.547-3.73,2.498-4.721,3.195
		c-1.012,0.689-1.211-1.949-1.211-1.949c1.133-1.827,4.06-3.227,5.245-3.315c1.231-0.09,2.967,0.184,3.563,0.522
		c0.028,0.016,0.076,0.014,0.104,0.027l0.06-4.227c-0.248-0.054-6.299-0.765-8.902,1.111c-1.151,0.853-3.837,4.605-2.878,7.465
		c0.108,0.21,0.118,0.196,0.198,0.338c0.276,0.455,0.676,1.164,0.958,1.677c0.092,3.221,0.764,4.504,0.764,4.504l-0.58,4.73
		c0,0-1.357-0.336-2.152-1.205c-0.813-0.822-2.891-3.318-3.008-5.6c-0.084-1.966-0.506-4.454-1.137-5.295
		c-0.2-0.411-1.117-3.437-1.237-4.783c-0.086-0.653-0.144-1.295-0.154-1.877c0.006-0.252,0.01-0.501,0.018-0.732l-0.044-0.015
		c0.006-0.297,0.014-0.589,0.018-0.908c-0.07-5.092-3.476-13.707-3.44-15.515c0.044-1.801-0.03-5.73,0.198-8.695
		c0.224-2.951-2.169-5.634-2.169-5.634s0.336-0.807,1.199-1.762c0.338-0.387,0.436-0.854,0.446-1.282
		c2.135-0.401,3.598-1.167,3.618-2.091c0.008-0.281-0.15-0.582-0.414-0.833l0.04-1.975c0.28-0.239,0.452-0.529,0.459-0.83
		c0.026-1.053-1.837-1.959-4.457-2.405l-5.125-0.206c-2.968,0.25-5.167,1.151-5.191,2.265c-0.006,0.267,0.13,0.555,0.364,0.792
		l-0.044,2.102c-0.246,0.239-0.386,0.51-0.392,0.762c-0.02,0.814,1.101,1.547,2.812,2.061c-0.13,1.346,0.958,2.612,0.958,2.612
		c0,0.009,0,0.009,0,0.009c-0.034,0.039-0.855,1.176-1.087,4.074c-0.229,2.959,1.515,5.151,1.515,5.151s0.152,0.979,0.112,2.786
		c-0.044,1.81,1.527,5.129,1.527,5.129s0.418,2.782-0.014,7.852c-0.456,5.082,1.967,14.172,1.967,14.172s-2.218,3.719-4.104,7.935
		c-1.909,4.222,3.37,10.255,3.37,10.255s3.232,9.777,3.438,13.698c0.25,3.956,0.845,34.603-0.136,41.152
		c-0.967,6.533-2.254,27.422-2.15,30.05c0.096,2.621,1.681,13.69,0.662,22.356c-0.398,3.36-0.662,7.574-0.842,11.478l23.02,0.254
		L44.92,35.01z"/>
	<polygon style="fill:#F9BB14;" points="43.118,166.016 3.238,165.289 3.594,184.999 42.858,184.999 	"/>
</g>
</svg>
