<?xml version="1.0" encoding="utf-8"?>
<!-- Generator: Adobe Illustrator 16.0.0, SVG Export Plug-In . SVG Version: 6.00 Build 0)  -->
<!DOCTYPE svg PUBLIC "-//W3C//DTD SVG 1.1//EN" "http://www.w3.org/Graphics/SVG/1.1/DTD/svg11.dtd">
<svg version="1.1" id="Layer_1" xmlns="http://www.w3.org/2000/svg" xmlns:xlink="http://www.w3.org/1999/xlink" x="0px" y="0px"
	 width="231.849px" height="115.842px" viewBox="-131.691 3.129 231.849 115.842"
	 style="enable-background:new -131.691 3.129 231.849 115.842;" xml:space="preserve">
<g>
	<path style="fill:#0D99A1;" d="M-14.296,100.179c-4,0.097-7.102,0.145-8.113,0.163c0.149-21.003,0.063-57.647-1.849-67.743
		l-18.861,0.021c-2.469,6.188-4.608,22.315-5.302,35.987c-0.478,9.355-1.497,22.868-1.71,33.174
		c-2.15,0.151-2.295,0.397-4.325,0.566c0.699-7.838-1.021-17.637-3.303-25.097c-4.008-12.947,0.586-30.186,0.578-31.357
		c-0.006-1.943-3.198-9.901-6.517-14.25c2.367-1.547,8.448-8.292,0.129-14.144c-2.316-1.627-29.473,2.674-33.296,2.691
		c-3.758,0.017-16.787,7.182-17.742,9.318c-0.862,1.948,3.169,3.942,6.792,5.228c-0.145,0.096-0.278,0.207-0.386,0.344
		c-0.518,0.547-2.279,13.909-6.073,17.314c-3.217,2.912-1.416,46.343,0.519,58.585c-10.873,3.032-15.819,6.192-17.936,7.99
		l117.39-0.05L-14.296,100.179z M-83.491,105.443c-0.915,0.12-8.1,0.262-8.925,0.384c-0.575-17.409,1.611-58.431,1.101-62.405
		c-0.614-4.601,2.444-7.449-1.928-9.21c3.555-0.196,7.422-0.422,11.207-0.705C-83.359,45.333-83.109,86.123-83.491,105.443z"/>
	<path style="fill:#F9BB14;" d="M-24.268,32.526c1.309,0.021,4.824,0.029,8.423,0.049l-0.404-28.139
		c-12.069,0.748-23.223,1.542-24.892,1.55c-3.314,0.017-8.024,12.717-6.188,17.348c1.883,4.624,0.45,8.385,4.387,8.825
		c-0.062,0.139-0.122,0.31-0.179,0.461l18.861-0.021C-24.262,32.579-24.268,32.548-24.268,32.526z"/>
	<path style="fill:#E2AA15;" d="M18.27,32.992c2.563-1.423,5.663-10.459,5.946-15.911c0.386-5.921,0.679-13.519-10.042-13.925
		C8.948,2.984-3.661,3.663-15.554,4.395c-0.234,0.013-0.466,0.026-0.694,0.042l0.404,28.139c0.145,0.003,0.284,0.003,0.426,0.003
		c3.683,0.014,7.359,0.042,8.769,0.054c0,0.056-0.003,0.145-0.006,0.214l24.975,0.344C18.303,33.129,18.288,33.054,18.27,32.992z"/>
	<path style="fill:#0B8C92;" d="M69.951,106.863c-2.258-11.435-8.038-37.303-6.032-43.157c2.511-7.193,1.708-12.968,0.975-20.634
		c-0.75-7.66,2.775-15.839-2.24-19.15c-5.077-3.325-13.781-2.139-18.408-1.678c-4.682,0.529-5.021,0.532-5.694,12.507
		c-0.647,11.974-3.911,27.195-3.146,29.134c0.506,1.313,2.351,23.784,3.375,37.116c-6.261-0.588-14.105-1.275-14.398-1.275
		c-1.299-18.025-3.504-48.252-4.429-56.386c-0.444-4.071-0.95-7.406-1.635-10.149l-24.975-0.344
		c-0.173,4.648-2.403,46.963-2.208,67.319c-1.613,0.008-3.821,0.034-6.002,0.056l0.268,18.75h114.755
		C98.887,117.539,92.585,111.793,69.951,106.863z"/>
</g>
</svg>
