<?xml version="1.0" encoding="utf-8"?>
<!-- Generator: Adobe Illustrator 16.0.0, SVG Export Plug-In . SVG Version: 6.00 Build 0)  -->
<!DOCTYPE svg PUBLIC "-//W3C//DTD SVG 1.1//EN" "http://www.w3.org/Graphics/SVG/1.1/DTD/svg11.dtd">
<svg version="1.1" id="Layer_1" xmlns="http://www.w3.org/2000/svg" xmlns:xlink="http://www.w3.org/1999/xlink" x="0px" y="0px"
	 width="163.355px" height="187.436px" viewBox="0 0 163.355 187.436" enable-background="new 0 0 163.355 187.436"
	 xml:space="preserve">
<g>
	<g>
		<rect x="70.867" y="42.297" fill="#D8695D" width="2.117" height="12.376"/>
	</g>
	<g>
		<g>
			<g>
				<rect x="5.126" y="62.055" fill="#EABF6C" width="70.199" height="125.357"/>
			</g>
			<g>
				<rect x="2.081" y="114.512" fill="#D6A450" width="77.255" height="5.013"/>
			</g>
			<g>
				<rect x="2.712" y="58.582" fill="#E48172" width="77.626" height="3.474"/>
			</g>
			<g>
				<rect x="0.67" y="54.34" fill="#E48172" width="81.713" height="4.241"/>
			</g>
			<g>
				<rect x="60.469" y="42.297" fill="#E48172" width="10.398" height="12.043"/>
			</g>
			<g>
				<ellipse fill="#D8695D" cx="8.986" cy="143.922" rx="8.986" ry="6.461"/>
			</g>
			<g>
				<ellipse fill="#D8695D" cx="25.049" cy="143.922" rx="8.35" ry="6.461"/>
			</g>
			<g>
				<path fill="#D8695D" d="M50.097,143.922c0,3.568-4.101,6.461-9.159,6.461c-5.062,0-9.165-2.893-9.165-6.461
					c0-3.57,4.104-6.462,9.165-6.462C45.996,137.46,50.097,140.352,50.097,143.922z"/>
			</g>
			<g>
				<ellipse fill="#D8695D" cx="58.011" cy="143.922" rx="8.786" ry="6.461"/>
			</g>
			<g>
				<ellipse fill="#D8695D" cx="74.629" cy="143.922" rx="8.867" ry="6.461"/>
			</g>
			<g>
				<polygon fill="#E48172" points="2.218,119.525 79.063,119.525 83.496,142.669 0,142.669 				"/>
			</g>
			<g>
				<path fill="none" stroke="#D8695D" stroke-width="1.1695" stroke-miterlimit="10" d="M16.504,142.669"/>
			</g>
			<g>
				<path fill="none" stroke="#D8695D" stroke-width="1.1695" stroke-miterlimit="10" d="M16.504,119.525"/>
			</g>
			<g>
				<path fill="none" stroke="#D8695D" stroke-width="1.1695" stroke-miterlimit="10" d="M31.674,142.669"/>
			</g>
			<g>
				<path fill="none" stroke="#D8695D" stroke-width="1.1695" stroke-miterlimit="10" d="M31.498,119.525"/>
			</g>
			<g>
				<path fill="none" stroke="#D8695D" stroke-width="1.1695" stroke-miterlimit="10" d="M49.044,142.669"/>
			</g>
			<g>
				<path fill="none" stroke="#D8695D" stroke-width="1.1695" stroke-miterlimit="10" d="M48.628,119.525"/>
			</g>
			<g>
				<path fill="none" stroke="#D8695D" stroke-width="1.1695" stroke-miterlimit="10" d="M66.256,142.669"/>
			</g>
			<g>
				<path fill="none" stroke="#D8695D" stroke-width="1.1695" stroke-miterlimit="10" d="M63.1,119.525"/>
			</g>
			<g>
				<path fill="#D6A450" d="M19.611,101.594H9.955c-0.323,0-0.585-0.262-0.585-0.585s0.262-0.585,0.585-0.585h9.656
					c0.323,0,0.585,0.262,0.585,0.585S19.935,101.594,19.611,101.594z"/>
			</g>
			<g>
				<path fill="#D6A450" d="M33.727,101.594H24.07c-0.323,0-0.585-0.262-0.585-0.585s0.262-0.585,0.585-0.585h9.656
					c0.323,0,0.585,0.262,0.585,0.585S34.05,101.594,33.727,101.594z"/>
			</g>
			<g>
				<path fill="#D6A450" d="M72.353,180.249H53.025c-0.457,0-0.827-0.371-0.827-0.828s0.37-0.826,0.827-0.826h19.327
					c0.457,0,0.827,0.369,0.827,0.826S72.81,180.249,72.353,180.249z"/>
			</g>
			<g>
				<path fill="#D6A450" d="M57.867,101.594h-9.655c-0.323,0-0.585-0.262-0.585-0.585s0.262-0.585,0.585-0.585h9.655
					c0.323,0,0.585,0.262,0.585,0.585S58.19,101.594,57.867,101.594z"/>
			</g>
			<g>
				<path fill="#D6A450" d="M72.353,101.594h-9.655c-0.323,0-0.585-0.262-0.585-0.585s0.262-0.585,0.585-0.585h9.655
					c0.323,0,0.585,0.262,0.585,0.585S72.676,101.594,72.353,101.594z"/>
			</g>
			<g>
				<rect x="0.67" y="57.997" fill="#D8695D" width="81.713" height="1.17"/>
			</g>
			<g>
				<rect x="5.126" y="65.728" fill="#D1A45D" width="70.199" height="0.5"/>
			</g>
			<g>
				<rect x="5.126" y="70.606" fill="#D1A45D" width="70.199" height="0.5"/>
			</g>
			<g>
				<rect x="5.126" y="75.484" fill="#D1A45D" width="70.199" height="0.5"/>
			</g>
			<g>
				<rect x="5.126" y="80.362" fill="#D1A45D" width="70.199" height="0.5"/>
			</g>
			<g>
				<rect x="5.126" y="85.24" fill="#D1A45D" width="70.199" height="0.5"/>
			</g>
			<g>
				<rect x="5.126" y="90.118" fill="#D1A45D" width="70.199" height="0.5"/>
			</g>
			<g>
				<rect x="5.126" y="94.996" fill="#D1A45D" width="70.199" height="0.5"/>
			</g>
			<g>
				<rect x="5.126" y="99.874" fill="#D1A45D" width="70.199" height="0.5"/>
			</g>
			<g>
				<rect x="5.126" y="153.99" fill="#D1A45D" width="70.199" height="0.5"/>
			</g>
			<g>
				<rect x="5.126" y="158.868" fill="#D1A45D" width="70.199" height="0.5"/>
			</g>
			<g>
				<rect x="5.126" y="163.746" fill="#D1A45D" width="70.199" height="0.5"/>
			</g>
			<g>
				<rect x="5.126" y="168.624" fill="#D1A45D" width="70.199" height="0.5"/>
			</g>
			<g>
				<rect x="5.126" y="173.501" fill="#D1A45D" width="70.199" height="0.5"/>
			</g>
			<g>
				<rect x="5.126" y="178.379" fill="#D1A45D" width="70.199" height="0.5"/>
			</g>
			<g>
				<rect x="5.126" y="183.092" fill="#D1A45D" width="70.199" height="0.5"/>
			</g>
			<g>
				<rect x="5.126" y="104.751" fill="#D1A45D" width="70.199" height="0.5"/>
			</g>
			<g>
				<rect x="5.126" y="109.629" fill="#D1A45D" width="70.199" height="0.5"/>
			</g>
			<g>
				<rect x="32.352" y="151.926" fill="#E48172" width="16.715" height="35.486"/>
			</g>
			<g>
				<rect x="53.041" y="157.489" fill="#D4EAE5" width="19.312" height="21.159"/>
			</g>
			<g>
				<rect x="8.986" y="157.489" fill="#D4EAE5" width="19.313" height="21.742"/>
			</g>
			<g>
				<ellipse fill="#D8695D" cx="45.521" cy="169.201" rx="1.076" ry="1.03"/>
			</g>
			<g>
				<polygon fill="#D8695D" points="47.73,187.413 47.201,187.413 47.201,154.301 34.061,154.301 34.061,187.413 33.531,187.413 
					33.531,153.772 47.73,153.772 				"/>
			</g>
			<g>
				<rect x="9.955" y="72.083" fill="#D4EAE5" width="9.656" height="28.427"/>
			</g>
			<g>
				<rect x="24.07" y="72.083" fill="#D4EAE5" width="9.656" height="28.427"/>
			</g>
			<g>
				<rect x="48.212" y="72.083" fill="#D4EAE5" width="9.655" height="28.525"/>
			</g>
			<g>
				<rect x="62.697" y="72.083" fill="#D4EAE5" width="9.655" height="28.525"/>
			</g>
			<g>
				<path fill="#D6A450" d="M28.307,180.249H8.979c-0.457,0-0.827-0.371-0.827-0.828s0.37-0.826,0.827-0.826h19.327
					c0.457,0,0.827,0.369,0.827,0.826S28.764,180.249,28.307,180.249z"/>
			</g>
		</g>
		<polygon opacity="0.2" fill="#826941" points="67.146,42.297 5.126,173.492 5.126,187.436 75.325,187.436 75.325,54.34 
			72.984,54.312 72.984,42.297 		"/>
	</g>
</g>
<g>
	<g>
		<rect x="75.083" y="32.062" fill="#92ADA6" width="83.806" height="155.273"/>
	</g>
	<g>
		<rect x="81.559" y="45.175" fill="#524F4F" width="13.874" height="20.333"/>
	</g>
	<g>
		<rect x="109.308" y="45.175" fill="#524F4F" width="13.875" height="20.333"/>
	</g>
	<g>
		<rect x="137.058" y="45.175" fill="#524F4F" width="13.874" height="20.333"/>
	</g>
	<g>
		<rect x="81.559" y="79.912" fill="#524F4F" width="13.874" height="20.334"/>
	</g>
	<g>
		<rect x="109.308" y="79.912" fill="#524F4F" width="13.875" height="20.334"/>
	</g>
	<g>
		<rect x="137.058" y="79.912" fill="#524F4F" width="13.874" height="20.334"/>
	</g>
	<g>
		<rect x="81.559" y="111.681" fill="#524F4F" width="13.874" height="20.333"/>
	</g>
	<g>
		<rect x="109.308" y="111.681" fill="#524F4F" width="13.875" height="20.333"/>
	</g>
	<g>
		<rect x="137.058" y="111.681" fill="#524F4F" width="13.874" height="20.333"/>
	</g>
	<g>
		<rect x="79.476" y="12.138" fill="#92ADA6" width="74.926" height="21.035"/>
	</g>
	<g>
		<rect x="79.476" fill="#92ADA6" width="12.362" height="13.25"/>
	</g>
	<g>
		<polygon fill="#638478" points="163.355,187.334 158.91,187.334 158.91,34.284 154.422,34.284 154.422,12.138 158.867,12.138 
			158.867,29.839 163.355,29.839 		"/>
	</g>
	<g>
		<rect x="89.615" fill="#638478" width="4.445" height="13.685"/>
	</g>
	<g>
		<path fill="#638478" d="M158.89,14.361H91.838c-1.228,0-2.223-0.995-2.223-2.223s0.995-2.223,2.223-2.223h67.052
			c1.228,0,2.223,0.995,2.223,2.223S160.117,14.361,158.89,14.361z"/>
	</g>
	<g>
		<rect x="75.083" y="136.991" fill="#709288" width="83.806" height="50.344"/>
	</g>
	<g>
		<path fill="#D4EAE5" d="M106.541,187.219v-32.077c0-5.454,4.642-9.878,10.371-9.878l0,0c5.729,0,10.369,4.424,10.369,9.878v32.077
			"/>
		<path fill="#5E7C71" d="M128.393,187.219h-2.223v-32.077c0-4.835-4.153-8.767-9.258-8.767c-5.105,0-9.26,3.932-9.26,8.767v32.077
			h-2.223v-32.077c0-6.06,5.151-10.989,11.482-10.989c6.33,0,11.48,4.93,11.48,10.989V187.219z"/>
	</g>
	<g>
		<rect x="79.476" y="153.132" fill="#D4EAE5" width="20.813" height="20.571"/>
	</g>
	<g>
		<rect x="133.591" y="152.82" fill="#D4EAE5" width="20.811" height="20.571"/>
	</g>
</g>
</svg>
