<?xml version="1.0" encoding="utf-8"?>
<!-- Generator: Adobe Illustrator 16.0.0, SVG Export Plug-In . SVG Version: 6.00 Build 0)  -->
<!DOCTYPE svg PUBLIC "-//W3C//DTD SVG 1.1//EN" "http://www.w3.org/Graphics/SVG/1.1/DTD/svg11.dtd">
<svg version="1.1" id="Layer_1" xmlns="http://www.w3.org/2000/svg" xmlns:xlink="http://www.w3.org/1999/xlink" x="0px" y="0px"
	 width="216.53px" height="159.834px" viewBox="0 0 216.53 159.834" enable-background="new 0 0 216.53 159.834"
	 xml:space="preserve">
<g>
	<g>
		<g>
			<rect x="114.68" y="22.504" fill="#5CB29E" width="5.493" height="137.001"/>
		</g>
		<g>
			<rect y="25.924" fill="#A1D4C8" width="116.417" height="133.582"/>
		</g>
		<g>
			<rect x="14.265" y="35.819" fill="#524F4F" width="14.431" height="11.616"/>
		</g>
		<g>
			<rect x="14.265" y="109.629" fill="#524F4F" width="14.431" height="11.613"/>
		</g>
		<g>
			<rect x="38.797" y="109.629" fill="#524F4F" width="14.431" height="11.613"/>
		</g>
		<g>
			<rect x="63.33" y="109.629" fill="#524F4F" width="14.431" height="11.613"/>
		</g>
		<g>
			<rect x="87.862" y="109.629" fill="#524F4F" width="14.432" height="11.613"/>
		</g>
		<g>
			<rect x="14.265" y="72.724" fill="#524F4F" width="14.431" height="11.614"/>
		</g>
		<g>
			<rect x="38.797" y="72.724" fill="#524F4F" width="14.431" height="11.614"/>
		</g>
		<g>
			<rect x="63.33" y="72.724" fill="#524F4F" width="14.431" height="11.614"/>
		</g>
		<g>
			<rect x="87.862" y="72.724" fill="#524F4F" width="14.432" height="11.614"/>
		</g>
		<g>
			<rect x="38.797" y="35.819" fill="#524F4F" width="14.431" height="11.616"/>
		</g>
		<g>
			<rect x="63.33" y="35.819" fill="#524F4F" width="14.431" height="11.616"/>
		</g>
		<g>
			<rect x="87.862" y="35.819" fill="#524F4F" width="14.432" height="11.616"/>
		</g>
		<g>
			<polyline fill="#D4EAE5" points="35.307,159.516 35.307,134.402 78.247,134.402 78.247,159.516 			"/>
			<polygon fill="#5CB29E" points="79.426,159.516 77.067,159.516 77.067,135.582 36.486,135.582 36.486,159.516 34.128,159.516 
				34.128,133.223 79.426,133.223 			"/>
		</g>
		<g>
			<rect x="56.385" y="134.379" fill="#5CB29E" width="0.784" height="25.275"/>
		</g>
		<g>
			<path fill="#5CB29E" d="M29.7,48.16H13.581c-0.4,0-0.725-0.324-0.725-0.725s0.324-0.725,0.725-0.725H29.7
				c0.4,0,0.725,0.324,0.725,0.725S30.1,48.16,29.7,48.16z"/>
		</g>
		<g>
			<path fill="#5CB29E" d="M54.072,48.16H37.953c-0.4,0-0.725-0.324-0.725-0.725s0.324-0.725,0.725-0.725h16.119
				c0.4,0,0.725,0.324,0.725,0.725S54.472,48.16,54.072,48.16z"/>
		</g>
		<g>
			<path fill="#5CB29E" d="M78.786,48.16h-16.12c-0.4,0-0.725-0.324-0.725-0.725s0.324-0.725,0.725-0.725h16.12
				c0.4,0,0.725,0.324,0.725,0.725S79.186,48.16,78.786,48.16z"/>
		</g>
		<g>
			<path fill="#5CB29E" d="M103.497,48.16H87.378c-0.4,0-0.725-0.324-0.725-0.725s0.324-0.725,0.725-0.725h16.118
				c0.4,0,0.725,0.324,0.725,0.725S103.897,48.16,103.497,48.16z"/>
		</g>
		<g>
			<path fill="#5CB29E" d="M29.541,85.063H13.422c-0.4,0-0.725-0.324-0.725-0.725s0.324-0.725,0.725-0.725h16.119
				c0.4,0,0.725,0.324,0.725,0.725S29.941,85.063,29.541,85.063z"/>
		</g>
		<g>
			<path fill="#5CB29E" d="M53.912,85.063H37.793c-0.4,0-0.725-0.324-0.725-0.725s0.324-0.725,0.725-0.725h16.119
				c0.4,0,0.725,0.324,0.725,0.725S54.312,85.063,53.912,85.063z"/>
		</g>
		<g>
			<path fill="#5CB29E" d="M78.624,85.063H62.504c-0.4,0-0.725-0.324-0.725-0.725s0.324-0.725,0.725-0.725h16.119
				c0.4,0,0.725,0.324,0.725,0.725S79.024,85.063,78.624,85.063z"/>
		</g>
		<g>
			<path fill="#5CB29E" d="M103.336,85.063H87.217c-0.4,0-0.725-0.324-0.725-0.725s0.324-0.725,0.725-0.725h16.119
				c0.4,0,0.725,0.324,0.725,0.725S103.737,85.063,103.336,85.063z"/>
		</g>
		<g>
			<path fill="#5CB29E" d="M29.379,121.966H14.505c-0.4,0-0.725-0.324-0.725-0.725s0.324-0.725,0.725-0.725h14.874
				c0.4,0,0.725,0.324,0.725,0.725S29.78,121.966,29.379,121.966z"/>
		</g>
		<g>
			<path fill="#5CB29E" d="M53.751,121.966H37.632c-0.4,0-0.725-0.324-0.725-0.725s0.324-0.725,0.725-0.725h16.119
				c0.4,0,0.725,0.324,0.725,0.725S54.151,121.966,53.751,121.966z"/>
		</g>
		<g>
			<path fill="#5CB29E" d="M78.464,121.966H62.346c-0.4,0-0.725-0.324-0.725-0.725s0.324-0.725,0.725-0.725h16.119
				c0.4,0,0.725,0.324,0.725,0.725S78.865,121.966,78.464,121.966z"/>
		</g>
		<g>
			<path fill="#5CB29E" d="M103.176,121.966H87.057c-0.4,0-0.725-0.324-0.725-0.725s0.324-0.725,0.725-0.725h16.119
				c0.4,0,0.725,0.324,0.725,0.725S103.577,121.966,103.176,121.966z"/>
		</g>
		<g>
			<polygon fill="#77BBAA" points="0.026,25.908 2.973,22.504 120.173,22.504 116.417,25.924 			"/>
		</g>
		<g>
			<g>
				<polygon fill="#E9D75B" points="32.62,0 33.832,2.457 36.544,2.851 34.581,4.763 35.046,7.463 32.62,6.188 30.196,7.463 
					30.658,4.763 28.696,2.851 31.408,2.457 				"/>
			</g>
			<g>
				<path fill="#D3BB45" d="M32.62,0l1.286,2.42l-0.062-0.045l2.72,0.337l0.281,0.035l-0.203,0.204l-1.934,1.942l0.053-0.161
					l0.48,2.697l0.07,0.394l-0.356-0.185l-2.433-1.261h0.198l-2.431,1.262l-0.357,0.185l0.07-0.394l0.478-2.697l0.052,0.161
					l-1.933-1.941l-0.204-0.205l0.282-0.035l2.72-0.337L31.333,2.42L32.62,0z M32.62,0l-1.138,2.494l-0.017,0.039L31.419,2.54
					L28.716,2.99l0.078-0.24l1.991,1.881l0.069,0.065l-0.016,0.097l-0.447,2.703l-0.287-0.208L32.521,6l0.099-0.053L32.719,6
					l2.418,1.289l-0.287,0.208l-0.449-2.703l-0.016-0.097l0.068-0.064l1.993-1.881l0.078,0.239L33.82,2.539l-0.045-0.007
					l-0.017-0.038L32.62,0z"/>
			</g>
		</g>
		<g>
			<g>
				<polygon fill="#E9D75B" points="40.468,0 41.68,2.457 44.392,2.851 42.43,4.763 42.893,7.463 40.468,6.188 38.043,7.463 
					38.505,4.763 36.544,2.851 39.255,2.457 				"/>
			</g>
			<g>
				<path fill="#D3BB45" d="M40.468,0l1.287,2.42l-0.062-0.045l2.72,0.337l0.281,0.035L44.49,2.951l-1.933,1.942l0.053-0.161
					l0.478,2.697l0.069,0.393l-0.356-0.185l-2.432-1.261h0.198l-2.432,1.262l-0.357,0.185l0.07-0.394l0.478-2.697l0.052,0.161
					l-1.932-1.941l-0.204-0.205l0.282-0.035l2.719-0.337L39.181,2.42L40.468,0z M40.468,0L39.33,2.494l-0.017,0.039L39.267,2.54
					L36.565,2.99l0.078-0.24l1.99,1.881l0.068,0.065l-0.016,0.097l-0.447,2.703l-0.287-0.208L40.369,6l0.099-0.053L40.567,6
					l2.417,1.289l-0.287,0.208L42.25,4.793l-0.016-0.097l0.068-0.064l1.992-1.881l0.078,0.239l-2.704-0.451l-0.045-0.007
					l-0.017-0.038L40.468,0z"/>
			</g>
		</g>
		<g>
			<g>
				<polygon fill="#E9D75B" points="48.315,0 49.529,2.457 52.238,2.851 50.278,4.763 50.74,7.463 48.315,6.188 45.89,7.463 
					46.353,4.763 44.392,2.851 47.103,2.457 				"/>
			</g>
			<g>
				<path fill="#D3BB45" d="M48.315,0l1.288,2.42l-0.063-0.045l2.717,0.337l0.282,0.035l-0.204,0.205l-1.931,1.941l0.052-0.161
					l0.477,2.697l0.07,0.394l-0.357-0.185l-2.432-1.262h0.198l-2.433,1.261l-0.356,0.185l0.069-0.393l0.478-2.697l0.053,0.161
					l-1.932-1.942l-0.203-0.204l0.28-0.035l2.719-0.337L47.029,2.42L48.315,0z M48.315,0l-1.138,2.494L47.16,2.532l-0.045,0.007
					L44.412,2.99l0.078-0.239l1.99,1.881l0.068,0.064l-0.016,0.097l-0.448,2.703l-0.287-0.208L48.216,6l0.099-0.053L48.415,6
					l2.417,1.288l-0.287,0.208l-0.446-2.703l-0.016-0.097l0.068-0.065L52.14,2.75l0.078,0.24L49.517,2.54l-0.046-0.007l-0.017-0.038
					L48.315,0z"/>
			</g>
		</g>
	</g>
	<polyline opacity="0.2" fill="#467769" points="1.367,159.367 94.133,22.449 120.124,22.504 120.392,159.367 	"/>
	<rect x="29.7" y="7.463" fill="#E9D75B" width="59.371" height="16.397"/>
	<g>
		<path fill="#F4EDCE" d="M41.948,22.449h-3.601v-4.951h-3.061v4.951h-3.601V9.665h3.601v4.861h3.061V9.665h3.601V22.449z"/>
		<path fill="#F4EDCE" d="M50.083,9.395c2.629,0,4.735,1.513,4.826,4.394c0.036,1.188,0.036,3.187,0,4.555
			c-0.072,2.899-2.233,4.376-4.844,4.376c-2.628,0-4.699-1.477-4.825-4.412c-0.054-1.296-0.054-3.114,0-4.519
			C45.347,10.908,47.454,9.395,50.083,9.395z M50.064,19.748c0.702,0,1.188-0.396,1.243-1.35c0.054-1.045,0.054-3.583,0-4.771
			c-0.036-0.883-0.522-1.261-1.225-1.261s-1.188,0.378-1.242,1.261c-0.072,1.098-0.072,3.637,0,4.771
			C48.895,19.352,49.362,19.748,50.064,19.748z"/>
		<path fill="#F4EDCE" d="M60.054,12.636h-2.863V9.665h9.327v2.972h-2.863v9.813h-3.601V12.636z"/>
		<path fill="#F4EDCE" d="M69.125,9.665h7.635v2.972h-4.033v1.89h3.654v2.881h-3.654v2.071h4.033v2.971h-7.635V9.665z"/>
		<path fill="#F4EDCE" d="M80.178,9.665h3.601v9.813h3.728v2.971h-7.328V9.665z"/>
	</g>
</g>
<g>
	<g>
		<g>
			<path fill="#CEB836" d="M203.711,79.238c-12.148-7.707-21.191-0.563-21.282-0.488l-0.818-1.008
				c0.097-0.079,9.866-7.802,22.796,0.4L203.711,79.238z"/>
		</g>
		<g>
			<path fill="#CEB836" d="M215.99,97.23c0,0-0.076-1.894-0.209-5.206c-0.054-1.656-0.12-3.667-0.195-5.974
				c-0.034-1.154-0.071-2.381-0.109-3.676c-0.008-0.323-0.016-0.65-0.023-0.982l-0.006-0.221l-0.021-0.242
				c-0.02-0.1-0.048-0.221-0.094-0.348c-0.182-0.484-0.592-0.898-1.104-1.105c-0.256-0.105-0.535-0.16-0.818-0.16
				c-0.356,0.006-0.717,0.012-1.08,0.019c-0.738,0.013-1.49,0.026-2.256,0.039c-1.531,0.022-3.113,0.046-4.74,0.069
				c-3.253,0.037-6.684,0.076-10.232,0.117c-7.099,0.08-14.67,0.084-22.242,0.1c-7.57-0.016-15.143-0.039-22.24-0.119
				c-3.55-0.047-6.98-0.091-10.234-0.133c-3.253-0.059-6.328-0.115-9.168-0.167c-5.679-0.112-10.41-0.282-13.723-0.364
				c-0.836-0.004-1.572-0.121-2.148,0.105c-0.584,0.203-1.007,0.57-1.25,0.928c-0.496,0.732-0.4,1.273-0.43,1.256
				c0.033,0.016-0.111-0.512,0.343-1.313c0.226-0.391,0.639-0.814,1.255-1.084c0.301-0.133,0.682-0.221,1.055-0.232
				c0.369-0.01,0.762-0.021,1.176-0.033c3.313-0.083,8.044-0.252,13.723-0.364c2.84-0.052,5.915-0.108,9.168-0.167
				c3.254-0.042,6.685-0.086,10.234-0.132c7.098-0.081,14.67-0.104,22.24-0.12c7.572,0.016,15.144,0.02,22.242,0.1
				c3.549,0.041,6.979,0.08,10.232,0.118c1.627,0.024,3.209,0.047,4.74,0.069c0.766,0.013,1.518,0.026,2.256,0.039
				c0.375,0.009,0.746,0.018,1.113,0.026c0.441,0.019,0.875,0.123,1.269,0.305c0.788,0.359,1.413,1.037,1.675,1.84
				c0.063,0.197,0.108,0.406,0.133,0.639l0.01,0.258l-0.003,0.279c-0.008,0.332-0.016,0.659-0.023,0.982
				c-0.038,1.295-0.075,2.521-0.109,3.676c-0.075,2.307-0.142,4.317-0.195,5.974C216.066,95.337,215.99,97.23,215.99,97.23z"/>
		</g>
		<g>
			<rect x="205.052" y="99.666" fill="#9C815B" width="7.762" height="60.168"/>
		</g>
		<g>
			<rect x="117.008" y="99.666" fill="#AA9B71" width="93.476" height="59.955"/>
		</g>
		<g>
			<path fill="#E9D75B" d="M215.99,97.458c0,1.22-0.864,2.208-1.93,2.208h-98.442c-1.064,0-1.93-0.988-1.93-2.208v-16.56
				c0-1.219,0.865-2.208,1.93-2.208h98.442c1.065,0,1.93,0.989,1.93,2.208V97.458z"/>
		</g>
		<g>
			<path fill="#E9D75B" d="M193.284,93.145c-0.209,0.704-0.848,1.135-1.428,0.963l-14.678-4.369
				c-0.578-0.172-0.878-0.882-0.668-1.585l0,0c0.208-0.704,0.848-1.134,1.427-0.962l14.677,4.367
				C193.194,91.732,193.493,92.442,193.284,93.145L193.284,93.145z"/>
		</g>
		<g>
			<path fill="#E9D75B" d="M211.127,98.748c-0.209,0.703-0.844,1.135-1.418,0.965l-14.545-4.33
				c-0.573-0.169-0.869-0.879-0.659-1.582l0,0c0.209-0.703,0.844-1.135,1.417-0.965l14.546,4.33
				C211.042,97.336,211.336,98.045,211.127,98.748L211.127,98.748z"/>
		</g>
		<g>
			<g>
				<path fill="#E9D75B" d="M207.965,106.958c-0.129,0.447-0.955,0.59-1.846,0.317l-30.869-9.47
					c-0.89-0.273-1.506-0.858-1.377-1.306l0.625-2.162c0.129-0.449,0.955-0.59,1.845-0.316l30.869,9.469
					c0.891,0.273,1.507,0.857,1.376,1.307L207.965,106.958z"/>
			</g>
			<g>
				<path fill="#E9D75B" d="M177.528,84.949c2.141-7.41,11.383-11.822,20.964-8.883c9.581,2.94,15.251,11.793,13.112,19.204
					L177.528,84.949z"/>
			</g>
			<g>
				<path fill="#E9D75B" d="M208.524,102.99c-0.236,0.822-1.197,1.252-2.143,0.96l-29.369-9.009
					c-0.945-0.291-1.521-1.191-1.283-2.012l0.787-2.727c0.236-0.82,1.195-1.249,2.143-0.959l29.368,9.01
					c0.946,0.291,1.521,1.191,1.284,2.012L208.524,102.99z"/>
			</g>
			<g>
				<path fill="#E9D75B" d="M177.528,84.949c-4.684,5.822,3.283,3.354,4.738,4.53c1.742,1.409,1.156,3.21,3.934,2.95
					c2.161-0.205,2.566-1.544,4.461,0.068c1.504,1.28,1.448,2.828,3.738,2.906c1.729,0.059,3.332-1.598,5.063-0.691
					c1.547,0.811,1.352,2.841,3.361,3.104c1.852,0.241,2.893-1.582,4.749-0.557c1.368,0.756,1.882,3.6,4.003,2.796
					c1.658-0.626,1.338-2.64,0.652-3.88c-0.173-0.313-0.395-0.635-0.623-0.906L177.528,84.949z"/>
			</g>
		</g>
		<g>
			<polyline fill="#D4EAE5" points="145.676,159.324 145.676,114.771 183.364,114.771 183.364,159.324 			"/>
			<polygon fill="#D8695D" points="184.345,159.324 182.383,159.324 182.383,115.753 146.657,115.753 146.657,159.324 
				144.696,159.324 144.696,113.791 184.345,113.791 			"/>
		</g>
		<g>
			<path fill="#D6A450" d="M206.227,104.27c-0.114,0.384-0.843,0.506-1.629,0.271l-27.268-8.115
				c-0.785-0.232-1.329-0.734-1.215-1.118l0.551-1.853c0.114-0.385,0.844-0.506,1.631-0.271l27.266,8.114
				c0.786,0.233,1.33,0.735,1.216,1.118L206.227,104.27z"/>
		</g>
		<g>
			<path fill="#D6A450" d="M179.343,85.41c1.892-6.35,10.054-10.13,18.517-7.611c8.462,2.518,13.471,10.105,11.583,16.455
				L179.343,85.41z"/>
		</g>
		<g>
			<path fill="#A0804F" d="M206.722,100.869c-0.21,0.705-1.058,1.072-1.894,0.823l-25.941-7.72c-0.835-0.249-1.344-1.02-1.134-1.725
				l0.694-2.336c0.21-0.702,1.057-1.07,1.893-0.822l25.941,7.721c0.836,0.249,1.344,1.021,1.136,1.725L206.722,100.869z"/>
		</g>
		<g>
			<path fill="#E84329" d="M193.26,92.929c-0.183,0.614-0.74,0.991-1.246,0.841l-12.822-3.817c-0.506-0.149-0.768-0.771-0.585-1.384
				l0,0c0.183-0.615,0.741-0.99,1.246-0.841l12.823,3.815C193.182,91.694,193.444,92.314,193.26,92.929L193.26,92.929z"/>
		</g>
		<g>
			<path fill="#E84329" d="M208.85,97.823c-0.184,0.614-0.738,0.991-1.24,0.843l-12.706-3.782c-0.501-0.147-0.759-0.769-0.575-1.382
				l0,0c0.182-0.614,0.736-0.992,1.238-0.844l12.706,3.783C208.774,96.59,209.033,97.209,208.85,97.823L208.85,97.823z"/>
		</g>
		<g>
			<path fill="#B8B819" d="M179.343,85.41c-4.138,4.99,2.898,2.873,4.185,3.881c1.539,1.207,1.021,2.752,3.475,2.528
				c1.91-0.175,2.267-1.323,3.94,0.06c1.327,1.098,1.278,2.424,3.302,2.49c1.527,0.051,2.942-1.369,4.472-0.592
				c1.366,0.693,1.193,2.434,2.969,2.658c1.636,0.208,2.557-1.355,4.196-0.477c1.208,0.648,1.66,3.084,3.535,2.396
				c1.465-0.537,1.182-2.264,0.576-3.326c-0.153-0.267-0.35-0.543-0.55-0.775L179.343,85.41z"/>
		</g>
		<g>
			<rect x="145.676" y="114.771" fill="#D8695D" width="37.688" height="5.201"/>
		</g>
		<g>
			<rect x="163.85" y="119.973" fill="#D8695D" width="1.34" height="39.352"/>
		</g>
		<g>
			<path fill="none" stroke="#CEB836" stroke-width="0.649" stroke-miterlimit="10" d="M181.802,78.69"/>
		</g>
	</g>
	<g>
		<g>
			<path fill="#F4EDCE" d="M121.142,83.934c0,0,1.919-0.015,3.319-0.015c2.172,0,3.923,0.448,3.923,2.493
				c0,1.121-0.868,1.947-1.919,2.228v0.042c0.056,0,2.003,0.196,2.003,2.283c0,1.513-0.952,2.928-3.978,2.928
				c-1.64,0-3.349-0.014-3.349-0.014V83.934z M123.944,87.995c0.084,0,0.364,0.015,0.658,0.015c0.561,0,0.98-0.252,0.98-0.925
				c0-0.575-0.336-0.854-1.078-0.854c-0.336,0-0.477,0.014-0.561,0.014V87.995z M123.944,91.567c0.084,0,0.28,0.014,0.602,0.014
				c0.604,0,1.121-0.183,1.121-0.952c0-0.617-0.336-0.967-1.106-0.967c-0.322,0-0.56,0.014-0.616,0.014V91.567z"/>
		</g>
		<g>
			<path fill="#F4EDCE" d="M137.456,93.879c-0.925,0.308-2.213,0.209-2.857-0.673c-0.07,0.126-0.532,0.882-1.723,0.882
				c-1.303,0-2.242-0.826-2.242-2.66v-4.133l2.521-0.42v4.469c0,0.504,0.211,0.714,0.519,0.714s0.505-0.21,0.532-0.532v-4.244
				l2.521-0.406v4.58c0,0.547,0.112,0.672,0.729,0.672V93.879z"/>
		</g>
		<g>
			<path fill="#F4EDCE" d="M139.901,89.424c0-0.532-0.168-0.729-0.699-0.729v-1.681c0,0,0.462-0.21,1.021-0.21
				c0.771,0,1.555,0.28,1.808,1.625h0.042c0-0.883,0.561-1.695,1.414-1.695c0.52,0,0.827,0.196,0.967,0.351l-0.14,1.891
				c-0.168-0.014-0.322-0.014-0.477-0.014c-0.798,0-1.387,0.183-1.415,1.064v3.853h-2.521V89.424z"/>
		</g>
		<g>
			<path fill="#F4EDCE" d="M148.78,91.707c-0.127,0.057-0.225,0.168-0.225,0.28c0,0.183,0.084,0.253,0.252,0.28
				c0.631,0.111,1.527,0.182,2.297,0.336c1.289,0.266,2.115,1.051,2.115,2.27c0,1.723-1.484,2.717-3.516,2.717
				c-1.975,0-3.712-0.729-3.712-2.129c0-0.561,0.238-0.784,0.813-0.952c0.351-0.099,0.757-0.168,0.757-0.168l0.686-0.07v-0.069
				l-0.462-0.07c-0.7-0.141-1.331-0.547-1.331-1.373c0-0.756,0.519-1.177,1.177-1.457c-0.644-0.393-1.106-1.036-1.106-2.045
				c0-1.667,1.429-2.521,3.025-2.521c0.729,0,1.247,0.211,1.247,0.211h2.353c0.043,0.406,0.029,1.26-0.014,1.68
				c-0.546-0.027-1.316-0.084-1.526-0.125v0.041c0.42,0.154,0.771,0.52,0.771,1.191c0,1.205-1.079,2.045-2.787,2.045
				C149.326,91.777,149.045,91.764,148.78,91.707z M150.053,94.425l-1.134,0.308c-0.253,0.07-0.393,0.141-0.393,0.322
				c0,0.336,0.477,0.574,1.106,0.574c0.715,0,1.079-0.252,1.079-0.588C150.712,94.719,150.516,94.537,150.053,94.425z
				 M149.059,89.242c0,0.336,0.154,0.574,0.49,0.574c0.322,0,0.504-0.211,0.504-0.574c0-0.336-0.168-0.547-0.504-0.547
				C149.284,88.695,149.059,88.863,149.059,89.242z"/>
		</g>
		<g>
			<path fill="#F4EDCE" d="M158.145,92.058c0.281,0,0.505-0.196,0.519-0.561l2.312,0.07c-0.057,1.555-1.261,2.521-2.83,2.521
				c-1.555,0-2.928-0.826-3.012-2.619c-0.027-0.686-0.027-1.303,0-2.031c0.057-1.625,1.387-2.703,3.082-2.703
				c1.541,0,2.844,0.813,2.844,2.479c0,0.98-0.477,1.274-1.555,1.499c-0.854,0.182-1.863,0.322-1.863,0.322v0.434
				C157.641,91.834,157.837,92.058,158.145,92.058z M157.641,89.928c0,0,0.238-0.014,0.477-0.069c0.322-0.07,0.42-0.154,0.42-0.575
				c0-0.35-0.168-0.518-0.434-0.518c-0.267,0-0.463,0.168-0.463,0.49V89.928z"/>
		</g>
		<g>
			<path fill="#F4EDCE" d="M163.645,89.424c0-0.532-0.168-0.729-0.699-0.729v-1.681c0,0,0.462-0.21,1.021-0.21
				c0.771,0,1.555,0.28,1.808,1.625h0.042c0-0.883,0.561-1.695,1.414-1.695c0.52,0,0.827,0.196,0.967,0.351l-0.14,1.891
				c-0.168-0.014-0.322-0.014-0.477-0.014c-0.798,0-1.387,0.183-1.415,1.064v3.853h-2.521V89.424z"/>
		</g>
	</g>
</g>
</svg>
