<?xml version="1.0" encoding="utf-8"?>
<!-- Generator: Adobe Illustrator 16.0.0, SVG Export Plug-In . SVG Version: 6.00 Build 0)  -->
<!DOCTYPE svg PUBLIC "-//W3C//DTD SVG 1.1//EN" "http://www.w3.org/Graphics/SVG/1.1/DTD/svg11.dtd">
<svg version="1.1" id="Layer_1" xmlns="http://www.w3.org/2000/svg" xmlns:xlink="http://www.w3.org/1999/xlink" x="0px" y="0px"
	 width="151.904px" height="133.796px" viewBox="-12.622 1.393 151.904 133.796"
	 style="enable-background:new -12.622 1.393 151.904 133.796;" xml:space="preserve">
<g>
	<rect x="95.297" y="18.841" style="fill:#FF9F00;" width="16.441" height="4.5"/>
	<rect x="17.91" y="18.841" style="fill:#FBC16C;" width="16.441" height="4.5"/>
	<g>
		<rect x="63.96" y="25.083" style="fill:#4F4F51;" width="0.495" height="4.428"/>
		<path style="fill:#B2805F;" d="M64.455,10.666V1.393H42.429c-4.545,0-8.241,3.667-8.241,8.168v18.965
			c0,1.449,1.188,2.627,2.648,2.627c1.108,0,2.057-0.682,2.449-1.642h7.971c0.126,0.029,0.256,0.043,0.395,0.043
			c0.133,0,0.262-0.014,0.389-0.043H63.96v-4.428H45.442c0,0,0.059-11.935,0.106-14.438L64.455,10.666z"/>
		<path style="fill:#804F2A;" d="M87.739,1.393H64.455v9.273l21.181,0.027c0.04,2.666,0.189,14.39,0.189,14.39h-21.37v4.428h18.113
			c0.125,0.029,0.256,0.043,0.391,0.043s0.266-0.014,0.393-0.043h7.529c0.393,0.96,1.343,1.642,2.452,1.642s2.056-0.682,2.45-1.642
			h0.093v-0.299c0.062-0.221,0.103-0.447,0.103-0.687V9.561C95.979,5.06,92.284,1.393,87.739,1.393z"/>
	</g>
	<path style="fill:#B2805F;" d="M13.82,22.638H-8.407c-2.327,0-4.215,1.885-4.215,4.214V48.73v61.671v20.551
		c0,2.327,1.888,4.218,4.215,4.218h20.552H63.96V22.638H13.82z"/>
	<path style="fill:#804F2A;" d="M135.065,22.638h-20.551H63.96V135.17h50.555h20.551c2.331,0,4.217-1.891,4.217-4.218v-20.551
		V47.404V26.852C139.282,24.522,137.396,22.638,135.065,22.638z"/>
	<path style="fill:#FF5B45;" d="M8.456,23.743c0-0.372-0.013-0.739-0.032-1.105H-9.266c-1.854,0-3.356,1.502-3.356,3.354v17.413
		c0.451,0.031,0.904,0.054,1.364,0.054C-0.369,43.458,8.456,34.631,8.456,23.743z"/>
	<path style="fill:#EF3522;" d="M139.282,43.717V26.224c0-1.981-1.604-3.586-3.585-3.586h-17.495
		C118.202,34.278,127.641,43.717,139.282,43.717z"/>
	<path style="fill:#EF3522;" d="M139.282,131.583v-17.492c-11.642,0-21.08,9.437-21.08,21.079h17.495
		C137.678,135.17,139.282,133.563,139.282,131.583z"/>
	<path style="fill:#FF5B45;" d="M-12.622,114.108v17.492c0,1.98,1.604,3.588,3.587,3.588H8.456
		C8.456,123.545-0.982,114.108-12.622,114.108z"/>
	<rect x="21.659" y="22.638" style="fill:#FBC16C;" width="9.054" height="112.532"/>
	<rect x="99.564" y="22.638" style="fill:#FF9F00;" width="9.055" height="112.532"/>
	<rect x="13.594" y="72.381" style="fill:#42D391;" width="25.745" height="15.601"/>
	<rect x="91.221" y="72.382" style="fill:#42B191;" width="25.744" height="15.599"/>
</g>
</svg>
