<?xml version="1.0" encoding="utf-8"?>
<!-- Generator: Adobe Illustrator 16.0.0, SVG Export Plug-In . SVG Version: 6.00 Build 0)  -->
<!DOCTYPE svg PUBLIC "-//W3C//DTD SVG 1.1//EN" "http://www.w3.org/Graphics/SVG/1.1/DTD/svg11.dtd">
<svg version="1.1" id="Layer_1" xmlns="http://www.w3.org/2000/svg" xmlns:xlink="http://www.w3.org/1999/xlink" x="0px" y="0px"
	 width="117.314px" height="113.936px" viewBox="0 0 117.314 113.936" style="enable-background:new 0 0 117.314 113.936;"
	 xml:space="preserve">
<g>
	<path style="fill:#F9C770;" d="M69.213,24.404c30.486,6.738,34.603,52.609,4.465,63.113c-16.292,5.848-37.301,3.442-46.643-12.072
		c-7.047-12.137-7.481-32.623,3.492-41.611C37.658,27.688,57.874,22.25,69.213,24.404L69.213,24.404z"/>
	<g>
		<path style="fill:#F9C770;" d="M50.654,3.27c-2.365,4.469-6.198,24.682,6.151,18.631c6.48-3.246-2.198-19.274-5.005-21.9
			L50.654,3.27z"/>
	</g>
	<g>
		<path style="fill:#F9C770;" d="M85.411,14.083c-3.074,1.905-12.733,12.995-2.927,13.718c5.17,0.336,5.598-12.688,4.813-15.32
			L85.411,14.083z"/>
	</g>
	<g>
		<path style="fill:#F9C770;" d="M33.338,103.209c3.071-1.906,12.73-12.995,2.927-13.719c-5.17-0.336-5.598,12.688-4.815,15.32
			L33.338,103.209z"/>
	</g>
	<g>
		<path style="fill:#F9C770;" d="M12.646,32.564c1.905,3.072,12.994,12.73,13.718,2.926c0.336-5.17-12.688-5.598-15.321-4.814
			L12.646,32.564z"/>
	</g>
	<g>
		<path style="fill:#F9C770;" d="M105.726,79.933c-1.902-3.071-12.993-12.731-13.716-2.927c-0.336,5.17,12.688,5.599,15.319,4.814
			L105.726,79.933z"/>
	</g>
	<g>
		<path style="fill:#F9C770;" d="M77.912,110.479c1.085-4.938-0.612-25.439-10.9-16.314c-5.381,4.856,7.262,17.989,10.666,19.771
			L77.912,110.479z"/>
	</g>
	<g>
		<path style="fill:#F9C770;" d="M114.046,44.195c-4.471-2.363-24.683-6.196-18.631,6.153c3.244,6.481,19.271-2.199,21.899-5.005
			L114.046,44.195z"/>
	</g>
	<g>
		<path style="fill:#F9C770;" d="M3.457,76.945c4.937,1.084,25.441-0.612,16.314-10.9C14.917,60.664,1.784,73.306,0,76.71
			L3.457,76.945z"/>
	</g>
</g>
</svg>
