<?xml version="1.0" encoding="utf-8"?>
<!-- Generator: Adobe Illustrator 16.0.0, SVG Export Plug-In . SVG Version: 6.00 Build 0)  -->
<!DOCTYPE svg PUBLIC "-//W3C//DTD SVG 1.1//EN" "http://www.w3.org/Graphics/SVG/1.1/DTD/svg11.dtd">
<svg version="1.1" id="Layer_1" xmlns="http://www.w3.org/2000/svg" xmlns:xlink="http://www.w3.org/1999/xlink" x="0px" y="0px"
	 width="76.285px" height="76.283px" viewBox="25.336 30.888 76.285 76.283"
	 style="enable-background:new 25.336 30.888 76.285 76.283;" xml:space="preserve">
<g>
	<path style="fill:#FBC16C;" d="M41.387,51.843c1.362,1.36,3.561,1.382,4.926,0.017c1.354-1.351,1.36-3.538-0.025-4.925
		l-4.851-4.854c-1.371-1.365-3.563-1.385-4.929-0.021c-1.351,1.357-1.36,3.54,0.027,4.929L41.387,51.843z"/>
	<path style="fill:#FBC16C;" d="M42.679,69.019c0,11.455,9.266,20.745,20.709,20.795V48.226
		C51.945,48.272,42.679,57.563,42.679,69.019z"/>
	<path style="fill:#FF9F00;" d="M63.479,48.221c-0.029,0-0.061,0.005-0.09,0.005v41.588c0.029,0,0.061,0.004,0.09,0.004
		c11.49,0,20.797-9.313,20.797-20.799S74.969,48.221,63.479,48.221z"/>
	<path style="fill:#FBC16C;" d="M39.203,69.028c0-1.912-1.537-3.466-3.499-3.466h-6.869c-1.929,0-3.498,1.541-3.498,3.466
		c0,1.916,1.537,3.465,3.498,3.465h6.869C37.636,72.493,39.203,70.96,39.203,69.028z"/>
	<path style="fill:#FF9F00;" d="M98.123,65.563h-6.865c-1.938,0-3.506,1.541-3.506,3.466c0,1.916,1.545,3.465,3.506,3.465h6.865
		c1.928,0,3.498-1.533,3.498-3.465C101.621,67.116,100.078,65.563,98.123,65.563z"/>
	<path style="fill:#FBC16C;" d="M41.384,86.22l-4.854,4.853c-1.365,1.368-1.386,3.567-0.021,4.927
		c1.354,1.347,3.537,1.356,4.923-0.022l4.854-4.856c1.367-1.367,1.388-3.561,0.022-4.926C44.954,84.844,42.771,84.831,41.384,86.22z
		"/>
	<path style="fill:#FBC16C;" d="M60.012,34.39v6.864c0,1.901,1.493,3.441,3.376,3.49V30.897
		C61.513,30.946,60.012,32.457,60.012,34.39z"/>
	<path style="fill:#FF9F00;" d="M63.479,30.888c-0.031,0-0.059,0.009-0.09,0.01v13.847c0.031,0.003,0.059,0.01,0.09,0.01
		c1.916,0,3.465-1.537,3.465-3.5V34.39C66.943,32.456,65.408,30.888,63.479,30.888z"/>
	<path style="fill:#FBC16C;" d="M60.012,96.807v6.866c0,1.905,1.493,3.438,3.376,3.488V93.313
		C61.513,93.361,60.012,94.88,60.012,96.807z"/>
	<path style="fill:#FF9F00;" d="M63.479,93.304c-0.031,0-0.059,0.01-0.09,0.01v13.848c0.031,0,0.059,0.01,0.09,0.01
		c1.916,0,3.465-1.535,3.465-3.498v-6.866C66.943,94.87,65.408,93.304,63.479,93.304z"/>
	<path style="fill:#FF9F00;" d="M85.57,51.843l4.854-4.854c1.367-1.372,1.385-3.562,0.025-4.929
		c-1.357-1.352-3.539-1.361-4.926,0.027l-4.857,4.851c-1.365,1.364-1.385,3.564-0.021,4.926
		C82.004,53.217,84.182,53.225,85.57,51.843z"/>
	<path style="fill:#FF9F00;" d="M85.57,86.22c-1.371-1.369-3.561-1.389-4.926-0.025c-1.352,1.357-1.363,3.538,0.021,4.926
		l4.857,4.856c1.367,1.366,3.561,1.384,4.926,0.022c1.346-1.351,1.355-3.538-0.025-4.927L85.57,86.22z"/>
</g>
</svg>
