<?xml version="1.0" encoding="utf-8"?>
<!-- Generator: Adobe Illustrator 16.0.0, SVG Export Plug-In . SVG Version: 6.00 Build 0)  -->
<!DOCTYPE svg PUBLIC "-//W3C//DTD SVG 1.1//EN" "http://www.w3.org/Graphics/SVG/1.1/DTD/svg11.dtd">
<svg version="1.1" id="Layer_1" xmlns="http://www.w3.org/2000/svg" xmlns:xlink="http://www.w3.org/1999/xlink" x="0px" y="0px"
	 width="201.774px" height="208.504px" viewBox="-37.567 -35.024 201.774 208.504"
	 style="enable-background:new -37.567 -35.024 201.774 208.504;" xml:space="preserve">
<g>
	<circle style="fill:#FFD56A;" cx="63.325" cy="69.307" r="56.951"/>
	<path style="fill:#FFA100;" d="M82.291,15.593c6.326,9.235,10.006,20.425,9.938,32.468c-0.18,31.453-25.822,56.806-57.276,56.628
		c-6.535-0.037-12.808-1.178-18.644-3.238C26.507,116.338,43.591,126.148,63,126.258c31.455,0.18,57.097-25.174,57.275-56.627
		C120.418,44.712,104.535,23.446,82.291,15.593z"/>
	<path style="fill:#FFA100;" d="M9.506,100.148c-1.907-3.359-3.509-6.791-4.798-10.313l-22.753,26.131l34.027-6.473
		C13.608,106.611,11.427,103.506,9.506,100.148z"/>
	<path style="fill:#CE7C06;" d="M23.013,116.576l-6.633,34.012l26.242-22.613c-3.493-1.309-6.937-2.934-10.272-4.859
		C29.001,121.156,25.888,118.971,23.013,116.576z"/>
	<path style="fill:#CE7C06;" d="M118,37.906c1.914,3.358,3.52,6.805,4.799,10.313l22.752-26.131l-34.035,6.461
		C113.898,31.436,116.064,34.543,118,37.906z"/>
	<path style="fill:#CE7C06;" d="M104.494,21.478l6.635-34.012L84.885,10.08c3.508,1.307,6.949,2.934,10.293,4.857
		C98.51,16.883,101.617,19.071,104.494,21.478z"/>
	<path style="fill:#FFA100;" d="M78.645,8.546l-14.963-43.57L48.486,8.467c4.893-0.838,9.939-1.259,15.081-1.235
		C68.688,7.241,73.738,7.699,78.645,8.546z"/>
	<path style="fill:#FFA100;" d="M32.647,14.785c3.337-1.918,6.783-3.515,10.305-4.805L16.818-12.786l6.461,34.037
		C26.163,18.882,29.275,16.708,32.647,14.785z"/>
	<path style="fill:#FFA100;" d="M9.677,37.609c1.962-3.329,4.134-6.439,6.529-9.309l-33.999-6.643L4.826,47.9
		C6.121,44.403,7.734,40.955,9.677,37.609z"/>
	<path style="fill:#CE7C06;" d="M94.875,123.268c-3.352,1.92-6.805,3.518-10.322,4.822l26.143,22.748l-6.459-34.035
		C101.346,119.18,98.232,121.346,94.875,123.268z"/>
	<path style="fill:#CE7C06;" d="M117.83,100.447c-1.945,3.338-4.127,6.438-6.521,9.32l34.004,6.627l-22.609-26.23
		C121.393,93.65,119.779,97.092,117.83,100.447z"/>
	<path style="fill:#CE7C06;" d="M126.426,69.643c-0.023,4.582-0.428,9.09-1.188,13.473l38.969-13.359l-38.902-13.6
		C126.055,60.541,126.43,65.046,126.426,69.643z"/>
	<path style="fill:#FFA100;" d="M1.488,58.457l-39.055,13.159L1.249,85.414c-0.71-4.389-1.062-8.9-1.033-13.484
		C0.261,67.335,0.687,62.833,1.488,58.457z"/>
	<path style="fill:#CE7C06;" d="M62.968,131.227c-5.142-0.035-10.184-0.512-15.066-1.406l14.7,43.66l15.457-43.396
		C73.145,130.875,68.09,131.275,62.968,131.227z"/>
</g>
</svg>
