<?xml version="1.0" encoding="utf-8"?>
<!-- Generator: Adobe Illustrator 16.0.0, SVG Export Plug-In . SVG Version: 6.00 Build 0)  -->
<!DOCTYPE svg PUBLIC "-//W3C//DTD SVG 1.1//EN" "http://www.w3.org/Graphics/SVG/1.1/DTD/svg11.dtd">
<svg version="1.1" id="Layer_1" xmlns="http://www.w3.org/2000/svg" xmlns:xlink="http://www.w3.org/1999/xlink" x="0px" y="0px"
	 width="234.623px" height="119.488px" viewBox="0 0 234.623 119.488" enable-background="new 0 0 234.623 119.488"
	 xml:space="preserve">
<g>
	<path fill="#647545" d="M234.623,119.438c0-9.046-7.333-16.379-16.378-16.379s-16.377,7.333-16.377,16.379"/>
	<path fill="#7E9B50" d="M218.245,119.438c0-10.631-8.619-19.25-19.249-19.25c-10.632,0-19.25,8.619-19.25,19.25"/>
</g>
<g>
	<g>
		<g>
			<g>
				<rect x="180.526" y="12.946" fill="#BE8C3C" width="5.038" height="106.487"/>
			</g>
			<g>
				<rect x="0.293" y="15.107" fill="#EABF6C" width="180.233" height="104.351"/>
			</g>
			<g>
				<polyline fill="#D4EAE5" points="19.09,119.488 19.09,63.756 61.661,63.756 61.661,119.488 				"/>
				<polygon fill="#524F4F" points="62.743,119.488 60.58,119.488 60.58,64.837 20.172,64.837 20.172,119.488 18.009,119.488 
					18.009,62.675 62.743,62.675 				"/>
			</g>
			<g>
				<polyline fill="#D4EAE5" points="74.1,119.433 74.1,63.702 161.729,63.702 161.729,119.433 				"/>
				<polygon fill="#524F4F" points="162.812,119.433 160.647,119.433 160.647,64.783 75.181,64.783 75.181,119.433 73.018,119.433 
					73.018,62.621 162.812,62.621 				"/>
			</g>
			<g>
				<g>
					<rect x="116.415" y="62.839" fill="#524F4F" width="3" height="56.648"/>
				</g>
			</g>
			<g>
				<rect x="74.1" y="63.702" fill="#524F4F" width="87.63" height="4.573"/>
			</g>
			<g>
				<polygon fill="#D3A34C" points="0,15.866 4.551,12.744 185.564,12.744 180.52,15.866 				"/>
			</g>
		</g>
		<g>
			<rect x="37.702" y="33.329" fill="#F9F7F7" width="111" height="15.86"/>
		</g>
	</g>
	<g>
		<path fill="#E56951" d="M50.929,43.124c0-0.371-0.324-0.647-1.631-1.079c-1.247-0.407-2.243-1.127-2.243-2.614
			c0-1.799,1.487-2.675,3.106-2.675c1.643,0,3.07,0.863,2.986,2.938l-2.219,0.06c0-0.707-0.288-1.019-0.792-1.019
			c-0.372,0-0.684,0.18-0.684,0.527c0,0.432,0.24,0.647,1.631,1.14c1.319,0.468,2.243,1.043,2.243,2.662
			c0,1.583-1.343,2.566-3.13,2.566c-1.715,0-3.298-0.888-3.203-2.938l2.219-0.06c0,0.743,0.443,1.02,0.971,1.02
			C50.653,43.652,50.929,43.484,50.929,43.124z"/>
		<path fill="#E56951" d="M61.523,36.935c0,0,0.036,3.034,0,5.938c-0.024,1.799-1.5,2.758-3.154,2.758
			c-1.631,0-3.07-0.936-3.094-2.782c-0.036-2.662,0-5.913,0-5.913h2.291c-0.012,0.731-0.024,4.989,0,5.745
			c0.012,0.611,0.36,0.972,0.852,0.972c0.504,0,0.792-0.372,0.815-0.972c0.024-0.695,0.012-4.953,0-5.745H61.523z"/>
		<path fill="#E56951" d="M63.83,45.451v-8.516c0,0,1.031-0.012,2.039-0.012c2.051,0,4.317,0.252,4.317,2.927
			c0,1.703-1.307,2.854-3.31,2.854c-0.444,0-0.647-0.024-0.647-0.024v2.771H63.83z M66.229,40.833c0,0,0.144,0.012,0.408,0.012
			c0.611,0,1.151-0.252,1.151-0.995c0-0.6-0.348-0.948-1.235-0.948c-0.18,0-0.324,0.013-0.324,0.013V40.833z"/>
		<path fill="#E56951" d="M71.99,36.935h5.085v1.979h-2.687v1.259h2.435v1.919h-2.435v1.38h2.687v1.979H71.99V36.935z"/>
		<path fill="#E56951" d="M81.816,42.249v3.202h-2.398v-8.516c0,0,1.151-0.023,2.423-0.023c2.135,0,3.826,0.396,3.826,2.387
			c0,1.223-0.696,1.942-1.571,2.314c0.18,0.096,0.384,0.288,0.6,0.72c0.48,0.983,1.368,3.118,1.368,3.118h-2.555l-1.332-3.202
			H81.816z M82.152,38.783c-0.312,0-0.336,0.012-0.336,0.012v1.775c0,0,0.036,0.023,0.264,0.023c0.552,0,1.199-0.12,1.199-0.911
			C83.28,39.094,82.944,38.783,82.152,38.783z"/>
		<path fill="#E56951" d="M91.272,43.891l-0.948-2.183l-0.42-1.151l-0.024,0.013l0.12,1.175l0.024,3.706h-2.279v-8.516h2.339
			l1.271,3.179l0.372,0.947h0.024l0.348-0.936l1.392-3.19h2.267v8.516h-2.399l0.024-3.729l0.12-1.151l-0.024-0.013l-0.456,1.164
			l-0.996,2.17H91.272z"/>
		<path fill="#E56951" d="M102.168,43.952h-2.039l-0.288,1.499h-2.339l1.919-8.012v-0.504h3.538l1.943,8.516h-2.458L102.168,43.952z
			 M100.513,42.033h1.308l-0.456-2.519l-0.18-1.104l-0.18,1.104L100.513,42.033z"/>
		<path fill="#E56951" d="M109.104,42.249v3.202h-2.398v-8.516c0,0,1.151-0.023,2.423-0.023c2.135,0,3.826,0.396,3.826,2.387
			c0,1.223-0.696,1.942-1.571,2.314c0.18,0.096,0.384,0.288,0.6,0.72c0.48,0.983,1.368,3.118,1.368,3.118h-2.555l-1.332-3.202
			H109.104z M109.44,38.783c-0.312,0-0.336,0.012-0.336,0.012v1.775c0,0,0.036,0.023,0.264,0.023c0.552,0,1.199-0.12,1.199-0.911
			C110.568,39.094,110.232,38.783,109.44,38.783z"/>
		<path fill="#E56951" d="M117.433,45.451h-2.399v-8.516h2.399V45.451z M119.4,45.451l-1.907-4.33l1.907-4.186h2.531l-1.991,3.922
			l2.099,4.594H119.4z"/>
		<path fill="#E56951" d="M123.782,36.935h5.085v1.979h-2.687v1.259h2.435v1.919h-2.435v1.38h2.687v1.979h-5.085V36.935z"/>
		<path fill="#E56951" d="M132.397,38.915h-1.907v-1.979h6.213v1.979h-1.907v6.536h-2.398V38.915z"/>
	</g>
</g>
<g>
	<g>
		<path fill="none" stroke="#ADB2B1" stroke-width="3.3041" stroke-miterlimit="10" d="M192.249,119.09c0,0,0-66.331,0-88.442
			c0-8.49,0-28.996-17.689-28.996c-17.688,0-17.688,14.209-17.688,14.209"/>
		<path fill="#ADB2B1" d="M169.341,28.33c0-6.886-5.583-12.469-12.469-12.469s-12.469,5.583-12.469,12.469"/>
	</g>
	<polygon opacity="0.4" fill="#F2F7F6" points="144.403,28.33 128.867,119.488 185.564,119.433 169.341,28.33 	"/>
</g>
</svg>
