<?xml version="1.0" encoding="utf-8"?>
<!-- Generator: Adobe Illustrator 16.0.0, SVG Export Plug-In . SVG Version: 6.00 Build 0)  -->
<!DOCTYPE svg PUBLIC "-//W3C//DTD SVG 1.1//EN" "http://www.w3.org/Graphics/SVG/1.1/DTD/svg11.dtd">
<svg version="1.1" id="Layer_1" xmlns="http://www.w3.org/2000/svg" xmlns:xlink="http://www.w3.org/1999/xlink" x="0px" y="0px"
	 width="106.396px" height="74.789px" viewBox="0 0 106.396 74.789" style="enable-background:new 0 0 106.396 74.789;"
	 xml:space="preserve">
<polygon style="fill-rule:evenodd;clip-rule:evenodd;fill:#F55C5C;" points="20.121,46.945 5.795,74.492 11.094,74.789 
	25.422,47.246 20.121,46.945 "/>
<polygon style="fill-rule:evenodd;clip-rule:evenodd;fill:#F55C5C;" points="80.24,46.945 94.568,74.492 89.268,74.789 
	74.941,47.246 80.24,46.945 "/>
<path style="fill-rule:evenodd;clip-rule:evenodd;fill:#8CADCF;" d="M53.199,35.783c29.363,0,53.197,5.662,53.197,12.639
	c0,6.973-23.834,12.635-53.197,12.635S0,55.395,0,48.422C0,41.445,23.836,35.783,53.199,35.783L53.199,35.783z"/>
<path style="fill-rule:evenodd;clip-rule:evenodd;fill:#FFFFFF;" d="M52.531,22.477c-8.689,0-15.74,5.375-15.74,11.996
	s7.051,11.996,15.74,11.996c8.688,0,15.74-5.375,15.74-11.996S61.219,22.477,52.531,22.477L52.531,22.477z"/>
<path style="fill-rule:evenodd;clip-rule:evenodd;fill:#F04014;" d="M50.82,30.23c1.016,0.934,2.367,1.506,3.852,1.506
	c3.098,0,5.623-2.477,5.707-5.553c1.061,0.982,2.484,1.584,4.043,1.584c3.283,0,5.943-2.66,5.943-5.945
	c0-2.172-1.169-4.068-2.906-5.109c0.751-0.9,1.206-2.059,1.206-3.326c0-2.787-2.196-5.061-4.954-5.184
	c-0.055-3.828-3.184-6.922-7.025-6.922c-2.195,0-4.154,1.01-5.439,2.588C50.125,1.578,47.777,0,45.059,0
	c-3.791,0-6.875,3.078-6.875,6.873c0,0.924,0.188,1.805,0.515,2.615c-2.474,0.152-4.446,2.211-4.446,4.734
	c0,1.854,1.076,3.463,2.629,4.244c-1.367,1.084-2.238,2.766-2.238,4.648c0,3.289,2.671,5.961,5.953,5.961
	c1.01,0,1.956-0.252,2.787-0.695c0.205,2.051,1.94,3.662,4.052,3.662C48.844,32.043,50.086,31.326,50.82,30.23L50.82,30.23z"/>
</svg>
