<?xml version="1.0" encoding="utf-8"?>
<!-- Generator: Adobe Illustrator 16.0.0, SVG Export Plug-In . SVG Version: 6.00 Build 0)  -->
<!DOCTYPE svg PUBLIC "-//W3C//DTD SVG 1.1//EN" "http://www.w3.org/Graphics/SVG/1.1/DTD/svg11.dtd">
<svg version="1.1" id="Layer_1" xmlns="http://www.w3.org/2000/svg" xmlns:xlink="http://www.w3.org/1999/xlink" x="0px" y="0px"
	 width="152.263px" height="113.062px" viewBox="0 0 152.263 113.062" style="enable-background:new 0 0 152.263 113.062;"
	 xml:space="preserve">
<path style="fill-rule:evenodd;clip-rule:evenodd;fill:#FFFFFF;" d="M44.509,3.02v36.671c0,1.668,1.357,3.02,3.02,3.02h59.922
	c1.668,0,3.02-1.352,3.02-3.02V3.02c0-1.665-1.352-3.02-3.02-3.02H47.529C45.867,0,44.509,1.355,44.509,3.02L44.509,3.02z"/>
<path style="fill-rule:evenodd;clip-rule:evenodd;fill:#6B3B40;" d="M69.169,50.794V33.588c0-1.667,1.352-3.02,3.019-3.02h11.399
	c1.667,0,3.021,1.353,3.021,3.02v17.206c0,1.665-1.354,3.02-3.021,3.02H72.188C70.521,53.814,69.169,52.459,69.169,50.794
	L69.169,50.794z"/>
<polygon style="fill-rule:evenodd;clip-rule:evenodd;fill:#B3B3B3;" points="48.208,2.738 48.208,36.541 106.776,36.541 
	106.776,2.738 48.208,2.738 "/>
<path style="fill-rule:evenodd;clip-rule:evenodd;fill:#6B3B40;" d="M62.089,53.685L62.089,53.685c0,1.326,1.354,2.402,3.02,2.402
	h25.558c1.665,0,3.02-1.076,3.02-2.402l0,0c0-1.323-1.354-2.402-3.02-2.402H65.109C63.443,51.283,62.089,52.362,62.089,53.685
	L62.089,53.685z"/>
<polygon style="fill-rule:evenodd;clip-rule:evenodd;fill:#8CADCF;" points="0,54.623 0,60.307 152.263,60.307 152.263,54.623 
	0,54.623 "/>
<polygon style="fill-rule:evenodd;clip-rule:evenodd;fill:#C2D9F5;" points="7.793,60.304 7.793,76.678 50.122,76.678 
	50.122,60.304 7.793,60.304 "/>
<polygon style="fill-rule:evenodd;clip-rule:evenodd;fill:#8CADCF;" points="7.793,76.675 7.793,93.048 50.122,93.048 
	50.122,76.675 7.793,76.675 "/>
<polygon style="fill-rule:evenodd;clip-rule:evenodd;fill:#C2D9F5;" points="7.793,93.046 7.793,109.419 50.122,109.419 
	50.122,93.046 7.793,93.046 "/>
<polygon style="fill-rule:evenodd;clip-rule:evenodd;fill:#8CADCF;" points="7.793,109.419 7.793,112.495 50.122,112.495 
	50.122,109.419 7.793,109.419 "/>
<path style="fill-rule:evenodd;clip-rule:evenodd;fill:#FFFFFF;" d="M28.933,63.789c1.352,0,2.452,1.101,2.452,2.452
	c0,1.353-1.1,2.454-2.452,2.454c-1.352,0-2.454-1.102-2.454-2.454C26.479,64.889,27.581,63.789,28.933,63.789L28.933,63.789z"/>
<path style="fill-rule:evenodd;clip-rule:evenodd;fill:#FFFFFF;" d="M28.936,80.89c1.352,0,2.454,1.102,2.454,2.453
	c0,1.354-1.102,2.453-2.454,2.453c-1.352,0-2.454-1.1-2.454-2.453C26.482,81.992,27.584,80.89,28.936,80.89L28.936,80.89z"/>
<path style="fill-rule:evenodd;clip-rule:evenodd;fill:#FFFFFF;" d="M28.936,96.983c1.352,0,2.454,1.1,2.454,2.451
	c0,1.354-1.102,2.455-2.454,2.455c-1.352,0-2.454-1.102-2.454-2.455C26.482,98.083,27.584,96.983,28.936,96.983L28.936,96.983z"/>
<polygon style="fill-rule:evenodd;clip-rule:evenodd;fill:#C2D9F5;" points="102.443,60.304 102.443,76.678 144.771,76.678 
	144.771,60.304 102.443,60.304 "/>
<polygon style="fill-rule:evenodd;clip-rule:evenodd;fill:#8CADCF;" points="102.443,76.675 102.443,93.048 144.771,93.048 
	144.771,76.675 102.443,76.675 "/>
<polygon style="fill-rule:evenodd;clip-rule:evenodd;fill:#C2D9F5;" points="102.443,93.046 102.443,109.419 144.771,109.419 
	144.771,93.046 102.443,93.046 "/>
<polygon style="fill-rule:evenodd;clip-rule:evenodd;fill:#8CADCF;" points="102.443,109.419 102.443,112.495 144.771,112.495 
	144.771,109.419 102.443,109.419 "/>
<path style="fill-rule:evenodd;clip-rule:evenodd;fill:#FFFFFF;" d="M123.58,63.789c1.354,0,2.454,1.101,2.454,2.452
	c0,1.353-1.101,2.454-2.454,2.454c-1.352,0-2.451-1.102-2.451-2.454C121.128,64.889,122.228,63.789,123.58,63.789L123.58,63.789z"/>
<path style="fill-rule:evenodd;clip-rule:evenodd;fill:#FFFFFF;" d="M123.58,80.894c1.354,0,2.454,1.1,2.454,2.453
	c0,1.353-1.101,2.453-2.454,2.453c-1.352,0-2.451-1.101-2.451-2.453C121.128,81.994,122.228,80.894,123.58,80.894L123.58,80.894z"/>
<path style="fill-rule:evenodd;clip-rule:evenodd;fill:#FFFFFF;" d="M123.583,96.987c1.354,0,2.453,1.1,2.453,2.451
	c0,1.354-1.1,2.453-2.453,2.453c-1.352,0-2.452-1.1-2.452-2.453C121.131,98.087,122.232,96.987,123.583,96.987L123.583,96.987z"/>
<polygon style="fill-rule:evenodd;clip-rule:evenodd;fill:#696978;" points="78.508,73.937 78.508,103.784 82.408,103.784 
	82.408,73.937 78.508,73.937 "/>
<polygon style="fill-rule:evenodd;clip-rule:evenodd;fill:#696978;" points="71.049,107.075 71.049,102.769 89.88,102.769 
	89.88,107.075 71.049,107.075 "/>
<path style="fill-rule:evenodd;clip-rule:evenodd;fill:#696978;" d="M70.141,104.489c2.366,0,4.287,1.92,4.287,4.287
	c0,2.363-1.921,4.285-4.287,4.285c-2.364,0-4.286-1.922-4.286-4.285C65.855,106.409,67.777,104.489,70.141,104.489L70.141,104.489z"
	/>
<path style="fill-rule:evenodd;clip-rule:evenodd;fill:#696978;" d="M91.093,104.489c2.366,0,4.287,1.92,4.287,4.287
	c0,2.363-1.921,4.285-4.287,4.285c-2.364,0-4.287-1.922-4.287-4.285C86.806,106.409,88.729,104.489,91.093,104.489L91.093,104.489z"
	/>
<path style="fill-rule:evenodd;clip-rule:evenodd;fill:#696978;" d="M80.562,104.485c2.365,0,4.287,1.922,4.287,4.287
	s-1.922,4.285-4.287,4.285c-2.366,0-4.287-1.92-4.287-4.285S78.196,104.485,80.562,104.485L80.562,104.485z"/>
<path style="fill-rule:evenodd;clip-rule:evenodd;fill:#F04014;" d="M80.226,69.207c13.57,0,24.589,2.992,24.589,6.676
	s-11.019,6.675-24.589,6.675c-13.571,0-24.588-2.991-24.588-6.675S66.655,69.207,80.226,69.207L80.226,69.207z"/>
<path style="fill-rule:evenodd;clip-rule:evenodd;fill:#696978;" d="M74.435,77.36l0.006-22.925h12.045v22.88
	c-1.885,0.316-3.965,0.495-6.164,0.495C78.234,77.81,76.245,77.651,74.435,77.36L74.435,77.36z"/>
<path style="fill-rule:evenodd;clip-rule:evenodd;fill:#F04014;" d="M80.229,26.974c13.573,0,24.589,7.313,24.589,16.318
	c0,9.008-11.016,16.32-24.589,16.32c-13.571,0-24.587-7.313-24.587-16.32C55.642,34.287,66.658,26.974,80.229,26.974L80.229,26.974z
	"/>
<polygon style="fill-rule:evenodd;clip-rule:evenodd;fill:#F04014;" points="7.726,39.525 7.726,45.672 33.855,45.672 
	33.855,39.525 7.726,39.525 "/>
<polygon style="fill-rule:evenodd;clip-rule:evenodd;fill:#FFFFFF;" points="4.544,45.679 4.544,50.46 30.677,50.46 30.677,45.679 
	4.544,45.679 "/>
<polygon style="fill-rule:evenodd;clip-rule:evenodd;fill:#DEE359;" points="7.615,50.455 7.615,54.648 33.745,54.648 
	33.745,50.455 7.615,50.455 "/>
</svg>
