<?xml version="1.0" encoding="utf-8"?>
<!-- Generator: Adobe Illustrator 16.0.0, SVG Export Plug-In . SVG Version: 6.00 Build 0)  -->
<!DOCTYPE svg PUBLIC "-//W3C//DTD SVG 1.1//EN" "http://www.w3.org/Graphics/SVG/1.1/DTD/svg11.dtd">
<svg version="1.1" id="Layer_1" xmlns="http://www.w3.org/2000/svg" xmlns:xlink="http://www.w3.org/1999/xlink" x="0px" y="0px"
	 width="93.679px" height="97.163px" viewBox="0 0 93.679 97.163" enable-background="new 0 0 93.679 97.163" xml:space="preserve">
<g>
	
		<ellipse transform="matrix(0.7407 0.6719 -0.6719 0.7407 27.2103 -55.6202)" fill="#25292C" cx="85.652" cy="7.437" rx="10.332" ry="3.594"/>
	<polygon fill="#25292C" points="83.865,3.389 70.239,15.29 79.336,23.539 90.075,9.022 	"/>
	<polygon fill="#25292C" points="72.019,10.029 50.693,27.48 68.351,43.496 84.075,20.964 	"/>
	<polygon fill="#25292C" points="59.751,17.905 28.118,43.794 54.311,67.553 77.638,34.129 	"/>
	<polygon fill="#25292C" points="39.736,31.667 0,62.361 38.223,97.029 65.589,55.117 	"/>
	<path fill="#658098" d="M0,62.361c0,0,1.602,37.309,38.223,34.668C38.223,97.029,31.835,56.645,0,62.361z"/>
</g>
</svg>
