<?xml version="1.0" encoding="utf-8"?>
<!-- Generator: Adobe Illustrator 16.0.0, SVG Export Plug-In . SVG Version: 6.00 Build 0)  -->
<!DOCTYPE svg PUBLIC "-//W3C//DTD SVG 1.1//EN" "http://www.w3.org/Graphics/SVG/1.1/DTD/svg11.dtd">
<svg version="1.1" id="Layer_1" xmlns="http://www.w3.org/2000/svg" xmlns:xlink="http://www.w3.org/1999/xlink" x="0px" y="0px"
	 width="98.227px" height="109.062px" viewBox="0 0 98.227 109.062" style="enable-background:new 0 0 98.227 109.062;"
	 xml:space="preserve">
<g>
	<g>
		<g>
			<g>
				<path style="fill:#AF5B2B;" d="M11.523,99.179c-1.352-1.212-2.434-2.72-3.147-4.418c-1.198,0.323-2.405,0.501-3.592,0.491
					c1.138-0.412,2.223-0.983,3.168-1.669c-0.212-0.693-0.368-1.412-0.454-2.152c-3.34,1.512-5.56,0.682-6.761-0.168
					c0.194,2.904,1.052,5.625,2.403,8.033c0.635,0.006,1.278-0.033,1.924-0.127c1.399-0.198,2.796-0.64,4.113-1.326
					c-1.051,1.049-2.31,1.944-3.714,2.611c-0.409,0.198-0.833,0.369-1.264,0.529c0.409,0.577,0.841,1.137,1.312,1.665
					c1.36-0.227,2.72-0.799,3.943-1.667C10.189,100.46,10.883,99.852,11.523,99.179z"/>
			</g>
		</g>
		<g>
			<g>
				<path style="fill:#AF5B2B;" d="M38.813,89.992c0-1.859-1.506-3.366-3.367-3.366c-1.857,0-3.366,1.507-3.366,3.366
					c0,4.875-2.851,9.089-6.967,11.091c0.144,0.687,0.263,1.38,0.335,2.074c0.168,1.62,0.135,3.304-0.388,4.805
					c0.076-1.581-0.348-3.082-0.918-4.485c-0.237-0.576-0.523-1.131-0.817-1.681c-1.133,0.344-2.337,0.532-3.581,0.532
					c-1.585,0-3.098-0.299-4.489-0.845c-0.252,0.309-0.496,0.62-0.768,0.905c-0.881,0.926-1.852,1.729-2.875,2.407
					c0.714-1,1.3-2.06,1.753-3.15c0.126-0.304,0.216-0.616,0.32-0.926c-0.565-0.322-1.107-0.687-1.614-1.09
					c-0.494,0.824-1.061,1.617-1.718,2.354c-0.841,0.94-1.877,1.768-3.042,2.42c2.115,1.832,4.631,3.208,7.405,3.969
					c0.912-1.157,1.622-2.578,1.992-4.138c0.258,1.448,0.214,2.999-0.128,4.545c0.73,0.124,1.478,0.2,2.233,0.235
					c0.572-1.721,0.89-3.633,0.96-5.566c0.63,1.746,1.086,3.588,1.248,5.549C30.938,108.333,38.813,100.074,38.813,89.992z"/>
			</g>
		</g>
		<g>
			<g>
				<path style="fill:#4B190D;" d="M7.498,91.431c-0.057-0.471-0.092-0.952-0.092-1.438c0-1.415,0.238-2.804,0.707-4.126
					c0.62-1.754-0.295-3.678-2.047-4.298c-1.752-0.623-3.677,0.296-4.3,2.046c-0.725,2.049-1.094,4.193-1.094,6.378
					c0,0.43,0.036,0.847,0.064,1.271C1.938,92.112,4.158,92.942,7.498,91.431z"/>
			</g>
		</g>
		<g>
			<g>
				<path style="fill:#4B190D;" d="M8.376,94.761c-0.162-0.385-0.303-0.775-0.424-1.178c-0.945,0.686-2.03,1.257-3.168,1.669
					C5.971,95.262,7.178,95.084,8.376,94.761z"/>
			</g>
		</g>
		<g>
			<g>
				<path style="fill:#4B190D;" d="M9.178,97.843c-1.317,0.687-2.714,1.128-4.113,1.326c-0.646,0.094-1.289,0.133-1.924,0.127
					c0.326,0.579,0.676,1.145,1.06,1.688c0.431-0.16,0.854-0.331,1.264-0.529C6.868,99.787,8.127,98.892,9.178,97.843z"/>
			</g>
		</g>
		<g>
			<g>
				<path style="fill:#4B190D;" d="M12.071,99.63c-0.185-0.147-0.371-0.293-0.548-0.451c-0.641,0.673-1.334,1.281-2.068,1.803
					c-1.224,0.868-2.583,1.44-3.943,1.667c0.556,0.629,1.165,1.205,1.8,1.756c1.165-0.652,2.201-1.479,3.042-2.42
					C11.011,101.247,11.577,100.454,12.071,99.63z"/>
			</g>
		</g>
		<g>
			<g>
				<path style="fill:#4B190D;" d="M11.612,104.796c1.023-0.678,1.994-1.481,2.875-2.407c0.271-0.285,0.516-0.597,0.768-0.905
					c-0.543-0.215-1.064-0.477-1.569-0.764c-0.104,0.31-0.194,0.622-0.32,0.926C12.912,102.736,12.326,103.796,11.612,104.796z"/>
			</g>
		</g>
		<g>
			<g>
				<path style="fill:#4B190D;" d="M16.709,104.235c-0.37,1.56-1.08,2.98-1.992,4.138c0.609,0.167,1.231,0.302,1.864,0.407
					C16.923,107.234,16.967,105.684,16.709,104.235z"/>
			</g>
		</g>
		<g>
			<g>
				<path style="fill:#4B190D;" d="M18.814,109.016c0.311,0.016,0.617,0.046,0.93,0.046c0.431,0,0.852-0.037,1.278-0.063
					c-0.162-1.961-0.618-3.803-1.248-5.549C19.704,105.383,19.387,107.295,18.814,109.016z"/>
			</g>
		</g>
		<g>
			<g>
				<path style="fill:#4B190D;" d="M25.061,107.962c0.522-1.501,0.556-3.185,0.388-4.805c-0.072-0.694-0.191-1.388-0.335-2.074
					c-0.574,0.277-1.169,0.522-1.788,0.713c0.294,0.55,0.58,1.104,0.817,1.681C24.713,104.88,25.137,106.381,25.061,107.962z"/>
			</g>
		</g>
	</g>
	<g>
		<g>
			<g>
				<g>
					<path style="fill:#EA8232;" d="M68.24,100.06v-8.624c5.09-4.739,8.353-11.386,8.674-18.809
						c-5.586,8.366-15.698,13.979-27.29,14.006v12.152c1.673,0,3.301-0.171,4.892-0.459v1.733c-2.628,2.044-4.323,5.232-4.323,8.817
						h22.369C72.562,105.292,70.865,102.104,68.24,100.06z"/>
				</g>
			</g>
		</g>
		<g>
			<g>
				<path style="fill:#AF5B2B;" d="M22.271,71.436c0,0.495,0.051,0.977,0.077,1.465c0.359,0.523,0.735,1.036,1.13,1.537
					c-0.395-0.501-0.771-1.014-1.13-1.537c0.393,7.312,3.635,13.854,8.661,18.535v8.624c-2.625,2.044-4.323,5.232-4.323,8.817
					h22.368c0-3.585-1.692-6.773-4.32-8.817v-1.733c1.59,0.288,3.217,0.459,4.89,0.459V86.633c-0.028,0-0.058,0.006-0.085,0.006
					c-9.273,0-17.604-3.584-23.439-9.29c2.302,2.247,4.994,4.165,7.977,5.664c-0.308-1.814-0.582-3.726-0.879-5.729
					c2.148,0.654,4.435,1.273,6.861,1.842c-0.003,0.007-0.006,0.012-0.009,0.017c1.829,0.912,3.73,1.941,5.706,3.1
					c1.262,0.742,2.545,1.517,3.868,2.368V72.687V44.081C34.517,44.081,22.271,56.33,22.271,71.436z M24.831,76.03
					c0.396,0.436,0.804,0.866,1.229,1.281C25.635,76.896,25.227,76.466,24.831,76.03z M23.634,74.623
					c0.35,0.437,0.707,0.867,1.084,1.288C24.341,75.49,23.983,75.06,23.634,74.623z"/>
			</g>
		</g>
		<g>
			<g>
				<g>
					<path style="fill:#AF5B2B;" d="M49.624,44.081v28.605h0.003V84.61c1.324-0.852,2.604-1.626,3.872-2.368
						c1.972-1.158,3.873-2.188,5.702-3.1c2.479-0.579,4.806-1.212,6.991-1.881c-0.286,1.941-0.545,3.809-0.831,5.574
						c4.745-2.458,8.729-5.979,11.553-10.209c0.019-0.399,0.063-0.79,0.063-1.191C76.977,56.33,64.732,44.081,49.624,44.081z"/>
				</g>
			</g>
		</g>
		<g>
			<g>
				<path style="fill:#D5D2B1;" d="M49.627,77.878l-0.003,1.346v-1.346c-1.323-0.852-14.278,0.061-16.427-0.594
					c0.297,2.003,0.571,3.914,0.879,5.729c1.567,9.311,4.047,15.772,15.548,15.772V86.633c5.73-0.013,11.099-1.396,15.737-3.797
					c0.286-1.766,0.545-3.633,0.831-5.574C64.007,77.931,50.951,77.026,49.627,77.878z"/>
			</g>
		</g>
		<g>
			<g>
				<g>
					<path style="fill:#F6F3CF;" d="M65.361,82.836c-4.639,2.4-10.007,3.784-15.737,3.797v12.152
						C61.465,98.785,63.824,92.242,65.361,82.836z"/>
				</g>
			</g>
		</g>
	</g>
	<g>
		<g>
			<g>
				<g>
					<g>
						<g>
							<circle style="fill:#AF5B2B;" cx="24.578" cy="14.57" r="14.567"/>
						</g>
					</g>
				</g>
				<g>
					<g>
						<g>
							<path style="fill:#4B190D;" d="M32.976,14.57c0,4.637-3.76,8.396-8.399,8.396c-4.637,0-8.397-3.76-8.397-8.396
								c0-4.641,3.761-8.4,8.397-8.4C29.216,6.17,32.976,9.93,32.976,14.57z"/>
						</g>
					</g>
				</g>
			</g>
			<g>
				<g>
					<g>
						<g>
							<circle style="fill:#EA8232;" cx="73.905" cy="14.57" r="14.567"/>
						</g>
					</g>
				</g>
				<g>
					<g>
						<g>
							<path style="fill:#4B190D;" d="M82.304,14.57c0,4.637-3.761,8.396-8.399,8.396c-4.638,0-8.396-3.76-8.396-8.396
								c0-4.641,3.759-8.4,8.396-8.4C78.543,6.17,82.304,9.93,82.304,14.57z"/>
						</g>
					</g>
				</g>
			</g>
		</g>
		<g>
			<g>
				<g>
					<g>
						<circle style="fill:#EA8232;" cx="24.578" cy="14.57" r="14.567"/>
					</g>
				</g>
			</g>
			<g>
				<g>
					<g>
						<path style="fill:#4B190D;" d="M32.976,14.57c0,4.637-3.76,8.396-8.399,8.396c-4.637,0-8.397-3.76-8.397-8.396
							c0-4.641,3.761-8.4,8.397-8.4C29.216,6.17,32.976,9.93,32.976,14.57z"/>
					</g>
				</g>
			</g>
		</g>
		<g>
			<g>
				<path style="fill:#AF5B2B;" d="M13.679,43.611c-0.84,3.424-2.031,6.472-3.182,8.937c-0.263,0.063-0.522,0.131-0.775,0.215
					c-1.144,0.379-2.174,0.981-3.062,1.764c-0.876,0.797-1.648,1.752-2.071,3.056c1.289,0.079,2.341-0.038,3.34-0.207
					c-0.616,1.015-1.02,1.585-1.02,1.585c3.675-2.244,8.059-3.281,17.667-0.789c9.797,2.541,18.403,6.878,20.103,10.455
					c1.481-0.822,3.164-1.332,4.98-1.332V48.636V6.547C22.349,6.547,13.679,24.295,13.679,43.611z"/>
			</g>
		</g>
		<g>
			<g>
				<g>
					<path style="fill:#D5D2B1;" d="M49.624,79.224l0.053-21.053c-11.166-5.495-10.233,2.986-22.981-1.263
						c-9.418-3.14-18.037-0.671-20.618,3.143C6.077,60.051,26.695,82.163,49.624,79.224z"/>
				</g>
			</g>
		</g>
		<g>
			<g>
				<g>
					<path style="fill:none;" d="M24.576,59.691c3.364,1.121,6.223,2.457,8.658,3.866c0.004-0.044,0.014-0.088,0.021-0.134
						C30.593,61.836,27.643,60.488,24.576,59.691z"/>
				</g>
			</g>
		</g>
		<g>
			<g>
				<g>
					<path style="fill:#E96332;" d="M49.607,11.932v0.003c0.015,0,0.025-0.002,0.035-0.002
						C49.633,11.933,49.622,11.932,49.607,11.932z"/>
				</g>
			</g>
		</g>
		<g>
			<g>
				<g>
					<path style="fill:#07171B;" d="M44.68,73.986L44.68,73.986c0.001,0.007,0.011,0.018,0.013,0.026
						C44.69,74.004,44.681,73.993,44.68,73.986z"/>
				</g>
			</g>
		</g>
		<g>
			<g>
				<g>
					<path style="fill:#A84720;" d="M49.677,11.932c-0.011,0-0.023,0.001-0.034,0.001c0.011,0,0.023,0.002,0.034,0.002V11.932z"/>
				</g>
			</g>
		</g>
		<g>
			<g>
				<g>
					<path style="fill:#A84720;" d="M49.677,42.484v-30.55c-0.011,0-0.023-0.002-0.034-0.002c-0.01,0-0.021,0.002-0.035,0.002
						v30.554C49.633,42.488,49.653,42.484,49.677,42.484z"/>
				</g>
			</g>
		</g>
		<g>
			<g>
				<g>
					<path style="fill:#A84720;" d="M49.607,72.682c0.015,0,0.025,0,0.035,0c0.011,0,0.023,0,0.034,0V54.019V42.484
						c-0.023,0-0.044,0.004-0.069,0.004v11.53V72.682z"/>
				</g>
			</g>
		</g>
		<g>
			<g>
				<path style="fill:#EA8232;" d="M94.68,57.582c-0.424-1.304-1.195-2.259-2.072-3.056c-0.886-0.782-1.918-1.385-3.061-1.764
					c-0.252-0.084-0.514-0.152-0.776-0.215c-1.15-2.465-2.339-5.513-3.18-8.937c0-19.316-8.672-37.064-35.98-37.064v42.089v18.658
					c1.815,0,3.498,0.51,4.982,1.332c1.697-3.577,10.302-7.914,20.099-10.455c9.61-2.492,13.994-1.455,17.667,0.789
					c0,0-0.401-0.57-1.018-1.585C92.34,57.544,93.392,57.661,94.68,57.582z"/>
			</g>
		</g>
		<g>
			<g>
				<g>
					<path style="fill:#A84720;" d="M49.607,72.682v0.005c0.015,0,0.025-0.003,0.035-0.005
						C49.633,72.682,49.622,72.682,49.607,72.682z"/>
				</g>
			</g>
		</g>
		<g>
			<g>
				<g>
					<path style="fill:#F6F3CF;" d="M49.645,79.224l-0.052-21.053c11.165-5.495,10.233,2.986,22.98-1.263
						c9.417-3.14,18.038-0.671,20.618,3.143C93.191,60.051,72.573,82.163,49.645,79.224z"/>
				</g>
			</g>
		</g>
		<g>
			<g>
				<g>
					<g>
						<path style="fill:#4B190D;" d="M25.461,37.097c0,0,14.979-4.342,14.643,10.891C40.104,47.987,25.461,53.307,25.461,37.097z"/>
					</g>
				</g>
			</g>
			<g>
				<g>
					<g>
						<circle style="fill:#F39E2B;" cx="32.956" cy="42.835" r="5.555"/>
					</g>
				</g>
			</g>
			<g>
				<g>
					<g>
						<circle style="fill:#FFFFFF;" cx="34.813" cy="40.543" r="1.914"/>
					</g>
				</g>
			</g>
			<g>
				<g>
					<g>
						<path style="fill:#4B190D;" d="M73.906,37.097c0,0-14.98-4.342-14.643,10.891C59.264,47.987,73.906,53.307,73.906,37.097z"/>
					</g>
				</g>
			</g>
			<g>
				<g>
					<g>
						<circle style="fill:#F39E2B;" cx="66.313" cy="42.835" r="5.555"/>
					</g>
				</g>
			</g>
			<g>
				<g>
					<g>
						<circle style="fill:#FFFFFF;" cx="68.496" cy="40.543" r="1.915"/>
					</g>
				</g>
			</g>
		</g>
		<g>
			<g>
				<g>
					<g>
						<g>
							<path style="fill:#D76C79;" d="M48.738,63.416c-0.785-0.146-1.472-0.493-1.923-1.022c-2.115-2.477-4.865-4.229-6.474-5.152
								c1.596-0.457,4.646-1.093,9.251-1.093c4.563,0,7.635,0.643,9.234,1.099c-2.706,1.674-4.997,3.467-6.673,5.225
								c-0.457,0.478-1.062,0.796-1.804,0.944H48.738z"/>
						</g>
					</g>
				</g>
				<g>
					<g>
						<g>
							<path style="fill:#4B190D;" d="M49.593,56.824c3.332,0,5.848,0.347,7.552,0.704c-2.181,1.453-4.045,2.977-5.477,4.479
								c-0.348,0.363-0.811,0.611-1.389,0.736h-1.42c-0.688-0.135-1.202-0.399-1.532-0.787c-1.646-1.928-3.654-3.423-5.249-4.448
								C43.773,57.158,46.262,56.824,49.593,56.824 M49.593,55.478c-7.384,0-10.911,1.62-10.887,1.62c0,0,0-0.002,0.003-0.002
								c0.085,0.122,4.553,2.168,7.594,5.734c0.638,0.748,1.54,1.104,2.436,1.26h1.677c0.822-0.154,1.614-0.509,2.228-1.154
								c3.177-3.335,7.738-5.814,7.779-5.859C60.422,57.076,56.893,55.478,49.593,55.478L49.593,55.478z"/>
						</g>
					</g>
				</g>
			</g>
			<g>
				<g>
					<g>
						<path style="fill:#4B190D;" d="M48.92,67.785c-1.37,2.366-3.105,3.708-5.152,3.989c-4.637,0.623-9.561-4.236-9.611-4.283
							c-0.263-0.268-0.688-0.268-0.952-0.003c-0.262,0.264-0.262,0.688-0.001,0.952c0.204,0.206,4.777,4.735,9.706,4.735
							c0.347,0,0.689-0.02,1.037-0.067c2.234-0.307,4.129-1.605,5.646-3.864c1.515,2.259,3.409,3.558,5.646,3.864
							c0.345,0.048,0.693,0.067,1.036,0.067c4.93,0,9.498-4.529,9.706-4.735c0.263-0.265,0.262-0.688-0.001-0.952
							c-0.266-0.26-0.691-0.263-0.955,0.003c-0.05,0.047-4.964,4.9-9.604,4.283c-2.054-0.287-3.782-1.613-5.156-3.989v-3.662
							c0.05-0.009,0.099-0.023,0.149-0.033h-1.677c0.06,0.011,0.12,0.03,0.182,0.037V67.785z"/>
					</g>
				</g>
			</g>
		</g>
		<g>
			<g>
				<g>
					<g>
						<polygon style="fill:#4B190D;" points="13.541,44.158 24.576,50.512 12.068,48.806 						"/>
					</g>
				</g>
			</g>
			<g>
				<g>
					<g>
						<path style="fill:#4B190D;" d="M14.68,32.918c0.695,1.212,1.399,2.261,2.254,3.404c1.713,2.276,3.748,4.38,6.169,6.133
							c-2.897-0.733-5.745-1.996-8.409-3.622l-0.786-0.494C14.043,35.447,14.68,32.918,14.68,32.918z"/>
					</g>
				</g>
			</g>
			<g>
				<g>
					<g>
						<path style="fill:#4B190D;" d="M37.896,14.57c1.458-1.528,3.336-2.719,5.317-3.711c1.995-0.984,4.145-1.736,6.367-2.292v6.739
							c-1.809-0.565-3.729-0.981-5.686-1.149C41.94,14.003,39.908,14.025,37.896,14.57z"/>
					</g>
				</g>
			</g>
			<g>
				<g>
					<g>
						<path style="fill:#4B190D;" d="M35.947,22.967c1.84-1.604,3.997-2.898,6.231-4.049c2.246-1.142,4.953-2.097,7.401-2.896
							l0.03,6.662c-2.249-0.344-4.281-0.507-6.613-0.5C40.665,22.202,38.292,22.367,35.947,22.967z"/>
					</g>
				</g>
			</g>
			<g>
				<g>
					<g>
						<path style="fill:#4B190D;" d="M40.107,29.136c1.306-1.124,2.708-2.162,4.256-3.103c1.575-0.913,2.87-1.649,5.217-2.004v6.529
							c-0.894-0.664-2.879-1.046-4.456-1.248C43.515,29.115,41.816,29.058,40.107,29.136z"/>
					</g>
				</g>
			</g>
			<g>
				<g>
					<g>
						<path style="fill:#4B190D;" d="M22.577,75.064c0.831,0.831,1.808,1.624,2.695,2.398c0.89,0.774,1.811,1.515,2.782,2.19
							c0.973,0.671,1.989,1.288,3.134,1.721c-1.221,0.126-2.494,0.026-3.739-0.151c-1.251-0.182-2.379-0.424-3.604-0.738
							C22.789,77.442,22.577,75.064,22.577,75.064z"/>
					</g>
				</g>
			</g>
			<g>
				<g>
					<g>
						<path style="fill:#4B190D;" d="M24.875,83.013c0,0,0.832,0.512,1.784,1.143c1.904,1.256,3.904,2.4,6.125,3.219
							c-2.354,0.299-2.833,0.376-5.265,0.121C27.52,87.495,26.512,86.279,24.875,83.013z"/>
					</g>
				</g>
			</g>
		</g>
		<g>
			<g>
				<g>
					<g>
						<polygon style="fill:#4B190D;" points="85.635,44.158 74.599,50.512 87.105,48.806 						"/>
					</g>
				</g>
			</g>
			<g>
				<g>
					<g>
						<path style="fill:#4B190D;" d="M84.497,32.918c-0.699,1.212-1.4,2.261-2.256,3.404c-1.712,2.276-3.748,4.38-6.17,6.133
							c2.899-0.733,5.746-1.996,8.411-3.622l0.787-0.494C85.132,35.447,84.497,32.918,84.497,32.918z"/>
					</g>
				</g>
			</g>
			<g>
				<g>
					<g>
						<path style="fill:#4B190D;" d="M61.28,14.57c-1.458-1.528-3.336-2.719-5.317-3.711c-1.995-0.984-4.145-1.736-6.367-2.292
							v6.739c1.808-0.565,3.729-0.981,5.686-1.149C57.234,14.003,59.269,14.025,61.28,14.57z"/>
					</g>
				</g>
			</g>
			<g>
				<g>
					<g>
						<path style="fill:#4B190D;" d="M63.228,22.967c-1.839-1.604-3.996-2.898-6.23-4.049c-2.248-1.142-4.952-2.097-7.401-2.896
							l-0.032,6.662c2.25-0.344,4.282-0.507,6.615-0.5C58.51,22.202,60.884,22.367,63.228,22.967z"/>
					</g>
				</g>
			</g>
			<g>
				<g>
					<g>
						<path style="fill:#4B190D;" d="M59.066,29.136c-1.306-1.124-2.709-2.162-4.254-3.103c-1.575-0.913-2.87-1.649-5.217-2.004
							v6.529c0.895-0.664,2.878-1.046,4.456-1.248C55.661,29.115,57.359,29.058,59.066,29.136z"/>
					</g>
				</g>
			</g>
			<g>
				<g>
					<g>
						<path style="fill:#4B190D;" d="M76.598,75.064c-0.831,0.831-1.807,1.624-2.695,2.398c-0.891,0.774-1.811,1.515-2.779,2.19
							c-0.976,0.671-1.992,1.288-3.137,1.721c1.222,0.126,2.494,0.026,3.74-0.151c1.251-0.182,2.378-0.424,3.606-0.738
							C76.387,77.442,76.598,75.064,76.598,75.064z"/>
					</g>
				</g>
			</g>
			<g>
				<g>
					<g>
						<path style="fill:#4B190D;" d="M74.3,83.013c0,0-0.831,0.512-1.782,1.143c-1.905,1.256-3.907,2.4-6.128,3.219
							c2.355,0.299,2.833,0.376,5.265,0.121C71.654,87.495,72.662,86.279,74.3,83.013z"/>
					</g>
				</g>
			</g>
		</g>
		<g>
			<g>
				<g>
					<g>
						<path style="fill:#8E6451;" d="M0.673,68.158c-0.164,0-0.325-0.058-0.455-0.175c-0.272-0.253-0.292-0.68-0.04-0.953
							c13.3-14.508,33.944-6.39,34.151-6.304c0.345,0.139,0.511,0.53,0.372,0.877c-0.142,0.343-0.535,0.511-0.878,0.372
							c-0.199-0.08-19.992-7.847-32.653,5.964C1.036,68.085,0.854,68.158,0.673,68.158z"/>
					</g>
				</g>
			</g>
			<g>
				<g>
					<g>
						<path style="fill:#8E6451;" d="M5.054,72.393c-0.171,0-0.339-0.063-0.471-0.189c-0.266-0.262-0.272-0.687-0.016-0.95
							c12.456-12.844,28.704-8.52,28.869-8.476c0.356,0.1,0.566,0.47,0.467,0.828c-0.101,0.358-0.466,0.568-0.829,0.47
							c-0.153-0.046-15.653-4.142-27.541,8.113C5.403,72.324,5.227,72.393,5.054,72.393z"/>
					</g>
				</g>
			</g>
			<g>
				<g>
					<g>
						<path style="fill:#8E6451;" d="M10.647,77.106c-0.134,0-0.27-0.04-0.387-0.125c-0.304-0.212-0.377-0.633-0.163-0.936
							C18.727,63.782,33.177,64.98,33.316,64.99c0.37,0.032,0.643,0.361,0.608,0.731c-0.034,0.371-0.337,0.649-0.731,0.609
							c-0.137-0.013-13.823-1.124-21.994,10.489C11.068,77.006,10.86,77.106,10.647,77.106z"/>
					</g>
				</g>
			</g>
		</g>
		<g>
			<g>
				<g>
					<g>
						<path style="fill:#8E6451;" d="M97.554,68.158c-0.182,0-0.363-0.073-0.495-0.219c-12.665-13.811-32.456-6.044-32.655-5.964
							c-0.346,0.136-0.736-0.029-0.878-0.372c-0.139-0.347,0.029-0.738,0.374-0.877c0.205-0.086,20.851-8.204,34.151,6.304
							c0.25,0.273,0.232,0.7-0.042,0.953C97.88,68.101,97.716,68.158,97.554,68.158z"/>
					</g>
				</g>
			</g>
			<g>
				<g>
					<g>
						<path style="fill:#8E6451;" d="M93.175,72.393c-0.175,0-0.352-0.068-0.483-0.204c-11.906-12.271-27.383-8.159-27.538-8.113
							c-0.363,0.096-0.73-0.111-0.828-0.47c-0.101-0.357,0.108-0.729,0.468-0.828c0.159-0.044,16.408-4.371,28.866,8.476
							c0.258,0.264,0.251,0.688-0.016,0.95C93.513,72.33,93.344,72.393,93.175,72.393z"/>
					</g>
				</g>
			</g>
			<g>
				<g>
					<g>
						<path style="fill:#8E6451;" d="M87.579,77.106c-0.212,0-0.42-0.101-0.553-0.286c-8.171-11.614-21.862-10.504-21.993-10.489
							c-0.387,0.03-0.698-0.238-0.731-0.609c-0.034-0.37,0.236-0.699,0.606-0.731c0.145-0.01,14.592-1.208,23.223,11.056
							c0.212,0.303,0.139,0.724-0.165,0.936C87.849,77.066,87.713,77.106,87.579,77.106z"/>
					</g>
				</g>
			</g>
		</g>
	</g>
</g>
</svg>
