<?xml version="1.0" encoding="utf-8"?>
<!-- Generator: Adobe Illustrator 16.0.0, SVG Export Plug-In . SVG Version: 6.00 Build 0)  -->
<!DOCTYPE svg PUBLIC "-//W3C//DTD SVG 1.1//EN" "http://www.w3.org/Graphics/SVG/1.1/DTD/svg11.dtd">
<svg version="1.1" id="Layer_1" xmlns="http://www.w3.org/2000/svg" xmlns:xlink="http://www.w3.org/1999/xlink" x="0px" y="0px"
	 width="48.944px" height="83.652px" viewBox="0 0 48.944 83.652" style="enable-background:new 0 0 48.944 83.652;"
	 xml:space="preserve">
<path style="fill-rule:evenodd;clip-rule:evenodd;fill:#FFFFFF;" d="M25.127,83.652l-13.772-0.012
	c3.455-10.742,6.065-21.537,6.308-32.49h7.882L25.127,83.652L25.127,83.652z"/>
<path style="fill-rule:evenodd;clip-rule:evenodd;fill:#FFFFFF;" d="M24.33,83.652L23.909,51.15h7.887
	c0.238,10.953,2.853,21.748,6.307,32.492L24.33,83.652L24.33,83.652z"/>
<path style="fill-rule:evenodd;clip-rule:evenodd;fill:#FFFFFF;" d="M4.709,51.15h38.629c-0.439,9.275-8.922,16.678-19.31,16.678
	C13.635,67.828,5.153,60.426,4.709,51.15L4.709,51.15z"/>
<path style="fill-rule:evenodd;clip-rule:evenodd;fill:#FFFFFF;" d="M4.567,6.604v33.494c0,3.646,2.958,6.605,6.604,6.605h25.203
	c3.644,0,6.605-2.959,6.605-6.605V6.604C42.98,2.961,40.019,0,36.375,0H11.172C7.525,0,4.567,2.961,4.567,6.604L4.567,6.604z"/>
<path style="fill-rule:evenodd;clip-rule:evenodd;fill:#9EC2E8;" d="M8.452,24.623c0-12.135,6.979-21.986,15.58-21.986
	s15.58,9.852,15.58,21.986s-6.979,21.982-15.58,21.982S8.452,36.758,8.452,24.623L8.452,24.623z"/>
<polygon style="fill-rule:evenodd;clip-rule:evenodd;fill:#9EC2E8;" points="0,41.275 0,51.695 48.944,51.695 48.944,41.275 
	0,41.275 "/>
</svg>
