<?xml version="1.0" encoding="utf-8"?>
<!-- Generator: Adobe Illustrator 16.0.0, SVG Export Plug-In . SVG Version: 6.00 Build 0)  -->
<!DOCTYPE svg PUBLIC "-//W3C//DTD SVG 1.1//EN" "http://www.w3.org/Graphics/SVG/1.1/DTD/svg11.dtd">
<svg version="1.1" id="Layer_1" xmlns="http://www.w3.org/2000/svg" xmlns:xlink="http://www.w3.org/1999/xlink" x="0px" y="0px"
	 width="109.953px" height="158.617px" viewBox="8.363 -10.009 109.953 158.617"
	 style="enable-background:new 8.363 -10.009 109.953 158.617;" xml:space="preserve">
<g>
	<path style="fill:#42D391;" d="M61.989,100.924c-22.242-0.266-40.019-6.06-40.019-13.172V15.177h40.019V2.731H18.106
		c-4.482,0-8.116,3.634-8.116,8.116v106.864c0,4.482,3.634,8.116,8.116,8.116h28.919l14.964-5.15V100.924z M26.753,116.009
		c-3.719,0-6.733-3.015-6.733-6.733s3.015-6.733,6.733-6.733c3.72,0,6.733,3.015,6.733,6.733S30.473,116.009,26.753,116.009z
		 M44.109,116.009c-2.814,0-5.094-2.28-5.094-5.093c0-2.813,2.279-5.094,5.094-5.094c2.813,0,5.092,2.28,5.092,5.094
		C49.201,113.729,46.922,116.009,44.109,116.009z"/>
	<path style="fill:#FFFFFF;" d="M21.971,15.177v72.575c0,7.112,17.776,12.906,40.019,13.172V87.752V74.579V15.177H21.971z"/>
	<polygon style="fill:#42D391;" points="47.025,125.828 8.363,139.136 11.617,148.591 61.989,131.253 61.989,125.828 	"/>
	<polygon style="fill:#42D391;" points="61.989,120.678 47.025,125.828 61.989,125.828 	"/>
	<circle style="fill:#FBC16C;" cx="26.753" cy="109.275" r="6.733"/>
	<circle style="fill:#FBC16C;" cx="44.109" cy="110.916" r="5.093"/>
	<path style="fill:#EFE9D5;" d="M61.989,15.177v59.402v13.173v13.172c0.528,0.006,1.058,0.013,1.591,0.013
		c22.98,0,41.609-5.903,41.609-13.185V15.177H61.989z"/>
	<path style="fill:#42B191;" d="M78.263,125.828h30.363c4.482,0,8.116-3.634,8.116-8.116V10.848c0-4.482-3.634-8.116-8.116-8.116
		H61.989v12.445h43.2v72.575c0,7.281-18.629,13.185-41.609,13.185c-0.533,0-1.063-0.007-1.591-0.013v19.754v5.15v5.425l0.427-0.147
		l52.752,17.503l3.148-9.49L78.263,125.828z M80.803,105.822c2.812,0,5.092,2.28,5.092,5.094c0,2.813-2.28,5.093-5.092,5.093
		c-2.814,0-5.094-2.28-5.094-5.093C75.709,108.103,77.988,105.822,80.803,105.822z"/>
	<circle style="fill:#FF9F00;" cx="80.803" cy="110.916" r="5.093"/>
	<circle style="fill:#FF9F00;" cx="99.714" cy="109.275" r="6.733"/>
	<rect x="21.971" y="-10.009" style="fill:#42D391;" width="40.019" height="4.657"/>
	<rect x="61.989" y="-10.009" style="fill:#42B191;" width="40.019" height="4.657"/>
	<rect x="61.989" y="-5.352" style="fill:#42B191;" width="3.693" height="8.083"/>
	<rect x="58.296" y="-5.352" style="fill:#42D391;" width="3.693" height="8.083"/>
</g>
</svg>
