<?xml version="1.0" encoding="utf-8"?>
<!-- Generator: Adobe Illustrator 16.0.0, SVG Export Plug-In . SVG Version: 6.00 Build 0)  -->
<!DOCTYPE svg PUBLIC "-//W3C//DTD SVG 1.1//EN" "http://www.w3.org/Graphics/SVG/1.1/DTD/svg11.dtd">
<svg version="1.1" id="Layer_1" xmlns="http://www.w3.org/2000/svg" xmlns:xlink="http://www.w3.org/1999/xlink" x="0px" y="0px"
	 width="27.621px" height="37.584px" viewBox="0 0 27.621 37.584" style="enable-background:new 0 0 27.621 37.584;"
	 xml:space="preserve">
<path style="fill-rule:evenodd;clip-rule:evenodd;fill:#FFFFFF;" d="M3.102,11.275c-0.523-0.244-0.896-0.488-1.086-0.729
	C0.502,8.578-0.336,5.207,0.127,2.711c0.11-0.621,1.348-1.94,1.889-2.276c0.838-0.508,2.65-0.647,3.285,0
	C6.402,1.55,6.334,5.543,7.327,6.25c0.596,0.428,2.199,0.59,2.903,0.379c1.481-0.437,0.65-3.137,0.885-3.411
	c0.176-0.214,0.494-0.181,0.759-0.251c5.534-1.553,4.644,2.165,5.814,3.158c0.265,0.22,0.933-0.105,1.137-0.252
	c0.907-0.674,2.483-2.655,3.788-2.785c0.154-0.013,0.444,0.309,0.504,0.379c1.248,1.4,0.691,4.793,1.012,5.057
	c0.482,0.396,2.642-1.681,3.16-2.023c0.18,2.881-0.697,3.428-1.136,5.812c-0.165,0.898-0.172,1.962-1.138,2.407
	C23.896,15.227,7.719,13.396,3.102,11.275L3.102,11.275z"/>
<polygon style="fill-rule:evenodd;clip-rule:evenodd;fill:#8CB036;" points="14.125,37.584 14.125,37.577 2.565,37.577 
	0.692,10.229 14.192,10.229 14.192,10.229 27.621,10.229 25.744,37.584 14.125,37.584 "/>
</svg>
