<?xml version="1.0" encoding="utf-8"?>
<!-- Generator: Adobe Illustrator 16.0.0, SVG Export Plug-In . SVG Version: 6.00 Build 0)  -->
<!DOCTYPE svg PUBLIC "-//W3C//DTD SVG 1.1//EN" "http://www.w3.org/Graphics/SVG/1.1/DTD/svg11.dtd">
<svg version="1.1" id="Layer_1" xmlns="http://www.w3.org/2000/svg" xmlns:xlink="http://www.w3.org/1999/xlink" x="0px" y="0px"
	 width="40.732px" height="75.039px" viewBox="0 0 40.732 75.039" enable-background="new 0 0 40.732 75.039" xml:space="preserve">
<g>
	<g>
		<path fill="#999950" d="M18.697,1.499c0.918-1.999,2.42-1.999,3.338,0l7.514,16.358c0.918,1.999,2.42,5.271,3.339,7.27
			l7.512,16.357c0.919,2-0.13,3.635-2.33,3.635H24.366c-2.2,0-5.8,0-8,0H2.663c-2.2,0-3.249-1.635-2.33-3.635l7.512-16.357
			c0.919-1.999,2.421-5.271,3.339-7.27L18.697,1.499z"/>
	</g>
	<g>
		<g>
			<g>
				<g>
					<path fill="#967432" d="M28.169,40.652H14.798c-0.553,0-1-0.447-1-1V24.128c0-0.552,0.447-1,1-1s1,0.448,1,1v14.524h11.371
						v-6.945c0-0.552,0.447-1,1-1s1,0.448,1,1v7.945C29.169,40.205,28.722,40.652,28.169,40.652z"/>
				</g>
			</g>
		</g>
		<g>
			<path fill="#967432" d="M22.602,73.921c0,0.617-0.5,1.118-1.118,1.118l0,0c-0.617,0-1.117-0.501-1.117-1.118V31.58
				c0-0.617,0.5-1.118,1.117-1.118l0,0c0.618,0,1.118,0.5,1.118,1.118V73.921z"/>
		</g>
	</g>
</g>
</svg>
