<?xml version="1.0" encoding="utf-8"?>
<!-- Generator: Adobe Illustrator 16.0.0, SVG Export Plug-In . SVG Version: 6.00 Build 0)  -->
<!DOCTYPE svg PUBLIC "-//W3C//DTD SVG 1.1//EN" "http://www.w3.org/Graphics/SVG/1.1/DTD/svg11.dtd">
<svg version="1.1" id="Layer_1" xmlns="http://www.w3.org/2000/svg" xmlns:xlink="http://www.w3.org/1999/xlink" x="0px" y="0px"
	 width="54.876px" height="75.039px" viewBox="0 0 54.876 75.039" enable-background="new 0 0 54.876 75.039" xml:space="preserve">
<g>
	<path fill="#647545" d="M54.876,73.953c0-9.046-7.332-16.379-16.378-16.379c-9.045,0-16.377,7.333-16.377,16.379"/>
	<path fill="#7E9B50" d="M38.499,73.953c0-10.631-8.618-19.25-19.249-19.25C8.618,54.703,0,63.322,0,73.953"/>
</g>
<g>
	<g>
		<path fill="#999950" d="M20.034,1.499c0.918-1.998,2.42-1.998,3.338,0l7.514,16.359c0.918,1.998,2.42,5.27,3.338,7.27
			l7.512,16.357c0.92,1.999-0.129,3.635-2.33,3.635H25.703c-2.2,0-5.8,0-8,0H4c-2.2,0-3.249-1.636-2.33-3.635l7.512-16.357
			c0.919-2,2.421-5.271,3.339-7.27L20.034,1.499z"/>
	</g>
	<g>
		<g>
			<g>
				<g>
					<path fill="#967432" d="M29.506,40.653H16.135c-0.552,0-1-0.447-1-1V24.128c0-0.553,0.448-1,1-1s1,0.447,1,1v14.524h11.371
						v-6.945c0-0.553,0.448-1,1-1s1,0.447,1,1v7.945C30.506,40.206,30.058,40.653,29.506,40.653z"/>
				</g>
			</g>
		</g>
		<g>
			<path fill="#967432" d="M23.938,73.92c0,0.617-0.5,1.118-1.118,1.118l0,0c-0.617,0-1.117-0.501-1.117-1.118v-42.34
				c0-0.617,0.5-1.118,1.117-1.118l0,0c0.618,0,1.118,0.501,1.118,1.118V73.92z"/>
		</g>
	</g>
</g>
</svg>
