<?xml version="1.0" encoding="utf-8"?>
<!-- Generator: Adobe Illustrator 16.0.0, SVG Export Plug-In . SVG Version: 6.00 Build 0)  -->
<!DOCTYPE svg PUBLIC "-//W3C//DTD SVG 1.1//EN" "http://www.w3.org/Graphics/SVG/1.1/DTD/svg11.dtd">
<svg version="1.1" id="Layer_1" xmlns="http://www.w3.org/2000/svg" xmlns:xlink="http://www.w3.org/1999/xlink" x="0px" y="0px"
	 width="93.874px" height="156.719px" viewBox="0 0 93.874 156.719" style="enable-background:new 0 0 93.874 156.719;"
	 xml:space="preserve">
<path style="fill:#853402;" d="M22.056,66.7c0,1.015,0.15,12.186,5.902,16.924c5.752,4.736,12.031,7.777,14.738,5.408
	c2.707-2.368,2.029-5.414,1.354-12.182c-0.678-6.767-2.369-15.902-1.016-18.271s3.385,1.015,3.385,4.061
	c0,3.045-0.34,14.889,2.707,20.641c3.045,5.752,4.736,5.076,7.781,1.354c3.047-3.723,7.783-9.136,12.52-11.505
	c4.738-2.369,5.752-1.692,5.076,0.677c-0.676,2.368-16.295,10.151-17.211,18.401c-0.525,4.72-0.385,15.098,1.984,22.542
	c2.367,7.443,6.43,25.039,7.105,33.837s-1.016,8.121-1.016,8.121l-22.658-0.167c0,0,5.74-26.565,6.078-34.348
	c0.34-7.783,1.016-18.949-5.752-23.686c-6.768-4.737-18.271-8.121-20.641-14.889c-2.367-6.768-4.061-11.842-4.061-15.903
	C18.333,63.655,22.056,66.7,22.056,66.7"/>
<path style="fill:#009D85;" d="M12.919,49.781c-5.961-1.847-9.789-7.176-8.443-13.336c0.971-4.446,3.9-10.084,8.814-11.072
	c-9.498-11.38,3.936-27.676,16.791-19.61c0.721-4.666,6.188-6.002,10.238-5.729c6.707,0.453,11.018,5.379,12.805,11.423
	c2.75-4,5.371-10.59,16.084-6.334c6.084,2.417,7.959,7.009,5.869,12.579c5.131,0.005,8.836,0.182,10.715,6.755
	c1.385,4.847,0.037,9.072-4.459,11.374c12.801,2.594,6.039,25.885-5.193,18.387c0.701,4.948-2.625,9.364-7.205,11.107
	c-5.574,2.121-8.393,0.048-11.668-4.104c0.158,4.686-1.219,9.651-6.205,11.043c-5.16,1.44-11.002-1.033-11.402-6.85
	C31.874,77.623,14.058,66.03,23.36,54.786C17.409,59.96,10.185,54.242,12.919,49.781"/>
<path style="fill:#46CBAE;" d="M68.413,75.497c-7.504,1.131-10.039-10.957-1.789-12.291c-1.338-8.312,12.971-9.096,14.709-1.537
	c8.729-5.476,11.965,8.863,6.445,8.782c10.666-0.433,5.596,16.652-1.982,13.206c2.014,7.869-9.479,11.744-11.609,3.717
	c-3.123,5.938-11.25,3.863-13.148-2.395C59.792,80.874,65.378,74.718,68.413,75.497"/>
<path style="fill:#46CBAE;" d="M17.657,50.796c-5.084-9.316-14.527-1.867-12.971,6.412c-3.953-2.63-5.492,4.473-4.283,7.166
	c2.805,6.25,10.746,4.463,13.686,0.254c-1.666,7.742,10.537,11.193,10.389,1.686c3.086,3.42,7.756-0.854,9.129-3.803
	c2.146-4.614,1.143-10.235-2.084-13.973C28.005,44.466,17.042,42.452,17.657,50.796"/>
</svg>
