<?xml version="1.0" encoding="utf-8"?>
<!-- Generator: Adobe Illustrator 16.0.0, SVG Export Plug-In . SVG Version: 6.00 Build 0)  -->
<!DOCTYPE svg PUBLIC "-//W3C//DTD SVG 1.1//EN" "http://www.w3.org/Graphics/SVG/1.1/DTD/svg11.dtd">
<svg version="1.1" id="Layer_1" xmlns="http://www.w3.org/2000/svg" xmlns:xlink="http://www.w3.org/1999/xlink" x="0px" y="0px"
	 width="100.383px" height="164.963px" viewBox="0 0 100.383 164.963" style="enable-background:new 0 0 100.383 164.963;"
	 xml:space="preserve">
<path style="fill:#94A27B;" d="M50.706,76.585c-5.1,6.14-23.189,7.763-21.102-3.907c-5.59,0.619-11.611,2.047-16.475-2.645
	c-5.069-4.891-1.701-11.94,3.455-15.457C8.148,54.83,1.021,51.149,0.127,42.465c-1.255-12.198,6.928-18.261,18.504-19.278
	C8.686,15.307,20.588,3.107,29.4,0.795C34.717-0.6,42.012-0.506,45.668,3.943c1.99,2.424,2.832,6,3.578,8.833
	C53.823,7.69,62.631,6.597,68.87,8.393c9.264,2.668,11.362,10.827,10.948,19.504c15.837-1.222,29.633,17.704,13.05,28.02
	c8.84,3.156,8.396,13.923,2.207,19.477c-6.191,5.555-15.001,4.905-22.186,2.255C71.34,89.015,49.655,90.159,50.706,76.585"/>
<path style="fill:#834D6E;" d="M29.834,162.026c-0.502-5.729,4.509-12.385,6.838-17.301c3.178-6.707,6.025-13.475,7.894-20.665
	c2.211-8.508,6.284-22.712-4.688-26.668c-7.332-2.644-8.844-0.218-11.26-8.782c-0.979-3.476-1.776-6.839-1.42-10.453
	c3.299,1.678,2.991,8.282,5.311,11.479c2.357,3.249,8.455,5.547,11.879,2.501c6.047-5.382-0.2-22.343-1.336-28.728
	c-1.008-5.667-1.363-12.595-0.696-18.13c0.116-0.965,1.371-1.53,1.704-0.746c2.872,6.751-0.098,21.315,6.648,26.444
	c4.688-5.849,4.312-22.481,14.492-21.926c-0.357,3.082-4.406,5.531-5.97,8.248c-1.991,3.461-2.47,6.763-3.03,10.778
	c-1.344,9.643-1.033,18.66,0.654,28.301c2.605,14.868,1.436,25.357-4.115,39.308c-3.82,9.6-3.615,18.493-1.988,28.257
	c-4.375,0.658-7.32,1.123-11.75,1C34.631,164.821,31.571,165.257,29.834,162.026"/>
<path style="fill:#6A7F44;" d="M62.252,50.982c-8.281,3.55-10.525-6.497-0.229-6.089c-6.119-6.038,13.957-12.495,13.759-3
	c4.864-0.339,9.629-1.244,10.301,4.467c0.533,4.525-0.583,7.25-5.687,5.53c10.437,7.803-14.777,16.594-16.112,4.252
	C60.278,63.812,60.204,51.156,62.252,50.982"/>
<path style="fill:#6A7F44;" d="M30.314,87.497c0.157-0.236,0.297-0.455,0.416-0.651c1.229,9.578,15.583-3.651,5.19-3.569
	c7.836-0.167,4.711-11.035-1.582-5.664c5.642-5.569-4.178-9.929-5.069-0.866c-0.802-0.256-3.892-3.662-5.978-2.942
	c-2.793,0.964-1.379,4.296,0.393,5.38c-9.208,1.449-8.826,10.851-0.555,7.182c-2.248,0.779-3.903,4.484-1.612,6.256
	C24.543,94.963,28.551,90.147,30.314,87.497"/>
</svg>
