<?xml version="1.0" encoding="utf-8"?>
<!-- Generator: Adobe Illustrator 16.0.0, SVG Export Plug-In . SVG Version: 6.00 Build 0)  -->
<!DOCTYPE svg PUBLIC "-//W3C//DTD SVG 1.1//EN" "http://www.w3.org/Graphics/SVG/1.1/DTD/svg11.dtd">
<svg version="1.1" id="Layer_1" xmlns="http://www.w3.org/2000/svg" xmlns:xlink="http://www.w3.org/1999/xlink" x="0px" y="0px"
	 width="135.555px" height="170.11px" viewBox="0 0 135.555 170.11" style="enable-background:new 0 0 135.555 170.11;"
	 xml:space="preserve">
<path style="fill:#C3B900;" d="M56.822,91.329c-11.426-2.424-24.548-8.454-34.227-15.009C5.664,64.854-7.91,40.325,8.238,22.548
	C27.481,1.366,62.392-4.907,89.008,3.792c12.589,4.115,24.324,11.436,33.837,20.983c7.444,7.474,12.257,17.177,12.677,27.426
	c1.229,30.074-32.036,47.955-58.877,46.553C70.156,98.416,60.203,95.276,56.822,91.329"/>
<path style="fill:#FF6D5E;" d="M36.355,110.383l20.113,18.7l0.705-46.929c0,0-6.496-7.045-11.645-15.173
	c-4.907-7.751-7.409-14.82-7.409-14.82S48,64.159,52.234,67.688c4.234,3.528,7.41,5.998,7.41,5.998l2.117-40.226l5.082,63.482
	L80.178,82.11l-12.771,26.156l1.25,61.844H56.322l0.146-31.499L33.18,112.5L36.355,110.383z"/>
<path style="fill:#A0A200;" d="M43.413,93.093c-3.901-4.484-13.569-6.786-22.435-5.959c-9.849,0.918-28.703,11.979-17.567,23.7
	c7.808,8.217,29.622,5.953,37.896-0.576C45.867,106.66,48.145,98.529,43.413,93.093"/>
<path style="fill:#A0A200;" d="M45.178,57.943c-9.059,1.066-18.081-1.964-22.545-5.602C10.11,42.137,27.336,34.005,36.609,32.75
	c9.211-1.247,20.027,3.79,19.409,14.365C55.678,52.943,49.453,57.44,45.178,57.943"/>
<path style="fill:#A0A200;" d="M87.873,90.624c-4.73-0.464-11.924-2.342-14.213-6.614c-5.653-10.55,18.689-11.244,24.894-11.012
	c3.3,0.123,10.122,0.063,10.938,4.248c0.572,2.936-2.286,5.994-4.283,7.705C100.699,88.817,91.656,90.993,87.873,90.624"/>
</svg>
