<?xml version="1.0" encoding="utf-8"?>
<!-- Generator: Adobe Illustrator 16.0.0, SVG Export Plug-In . SVG Version: 6.00 Build 0)  -->
<!DOCTYPE svg PUBLIC "-//W3C//DTD SVG 1.1//EN" "http://www.w3.org/Graphics/SVG/1.1/DTD/svg11.dtd">
<svg version="1.1" id="Layer_1" xmlns="http://www.w3.org/2000/svg" xmlns:xlink="http://www.w3.org/1999/xlink" x="0px" y="0px"
	 width="181.981px" height="181.5px" viewBox="-27.178 -21.631 181.981 181.5"
	 style="enable-background:new -27.178 -21.631 181.981 181.5;" xml:space="preserve">
<g>
	<ellipse style="fill:#C94757;" cx="64.121" cy="141.178" rx="82.298" ry="18.691"/>
	<polygon style="fill:#CECCC2;" points="-22.679,-10.633 69.601,-14.965 150.101,32.45 148.934,42.202 138.101,43.202 
		128.434,46.702 101.601,44.159 82.601,35.702 49.434,33.869 22.419,18.744 -7.232,11.082 -17.732,-1.631 	"/>
	<g>
		<path style="fill:#7BCCC2;" d="M-21.895-11.231c0,0-8.817,5.996-3.671,12.267c0,0,4.604,3.833,7.833-2.667
			c0,0-3.499,11.666,10.834,19.5c0,0,12.802,5.75,29.317,0.875C22.419,18.744-20.274,5.411-21.895-11.231z"/>
		<path style="fill:#EBE9D3;" d="M-17.335-2.427c-1.5-2.208-4.162-4.715-4.56-8.804c0,0-8.817,5.996-3.671,12.267
			c0,0,4.604,3.833,7.833-2.667L-17.335-2.427z"/>
		<path style="fill:#EBE9D3;" d="M22.419,18.744c0,0,35.682,14.624,60.182,16.958C82.601,35.702,43.101,54.036,22.419,18.744z"/>
		<path style="fill:#7BCCC2;" d="M151.976,35.702c0,0,2.125,11.917-7.41,14.646c0,0-8.215,1.146-6.84-6.197
			c0,0-9.25,10.594-27.125,8.08c0,0-21.875-3.111-28-16.528C82.601,35.702,126.101,54.119,151.976,35.702z"/>
	</g>
	<g>
		<g>
			<path style="fill:#726128;" d="M25.381,142.6C38.15,99.406,50.92,56.212,63.689,13.018c0.008-0.027,0.017-0.056,0.024-0.084
				c0.55-1.859-2.346-2.648-2.893-0.797c-12.77,43.193-25.539,86.388-38.309,129.582c-0.008,0.027-0.017,0.057-0.024,0.084
				C21.938,143.662,24.834,144.451,25.381,142.6L25.381,142.6z"/>
		</g>
		<g>
			<path style="fill:#726128;" d="M59.243,23.398C44.489,13.894,29.734,4.391,14.98-5.112c-0.816-0.526-1.567,0.773-0.758,1.295
				c14.755,9.503,29.51,19.007,44.265,28.51C59.303,25.218,60.054,23.919,59.243,23.398L59.243,23.398z"/>
		</g>
		<g>
			<path style="fill:#726128;" d="M27.945-5.351c10.13,9.976,20.26,19.951,30.39,29.927c0.689,0.679,1.751-0.381,1.061-1.061
				c-10.13-9.976-20.26-19.951-30.39-29.927C28.316-7.091,27.255-6.031,27.945-5.351L27.945-5.351z"/>
		</g>
		<g>
			<path style="fill:#726128;" d="M54.128,8.193c1.338,5.351,2.676,10.701,4.014,16.052c0.235,0.938,1.682,0.54,1.447-0.398
				c-1.339-5.351-2.677-10.701-4.016-16.052C55.339,6.856,53.893,7.254,54.128,8.193L54.128,8.193z"/>
		</g>
		<g>
			<path style="fill:#726128;" d="M60.979,23.516c4.708-2.75,9.416-5.5,14.125-8.25c0.834-0.487,0.08-1.784-0.758-1.295
				c-4.708,2.75-9.416,5.5-14.125,8.25C59.388,22.708,60.142,24.005,60.979,23.516L60.979,23.516z"/>
		</g>
		<g>
			<path style="fill:#726128;" d="M60.55,24.769c14.834-2.143,29.667-4.285,44.5-6.427c0.955-0.139,0.547-1.583-0.398-1.447
				c-14.834,2.143-29.667,4.285-44.5,6.427C59.196,23.46,59.604,24.905,60.55,24.769L60.55,24.769z"/>
		</g>
		<g>
			<path style="fill:#726128;" d="M60.351,25.536c18.417,0.361,36.833,0.722,55.25,1.083c0.968,0.019,0.966-1.481,0-1.5
				c-18.417-0.361-36.833-0.722-55.25-1.083C59.383,24.017,59.385,25.517,60.351,25.536L60.351,25.536z"/>
		</g>
	</g>
	<path style="fill:#7BCCC2;" d="M73.602-21.631l-93.876,5.125c0,0-4.5,7.105,1.5,9.876c0,0,6.625,1.395,8.376-4.501L73.602-21.631z"
		/>
	<path style="fill:#EBE9D3;" d="M73.602-21.631L35.934-5.235c0,0-32.997,13.104-46.332-5.896L73.602-21.631z"/>
	<path style="fill:#7BCCC2;" d="M100.601,12.703c0,0-39.766,13.1-65.3-17.7l38.301-16.634L100.601,12.703z"/>
	<path style="fill:#EBE9D3;" d="M147.601,31.036L73.602-21.631l26.999,34.334C100.601,12.703,117.768,38.703,147.601,31.036z"/>
	<path style="fill:#EBE9D3;" d="M138.194,42.007c3.138-0.432,9.939-4.243,13.858-7.139c0,0,2.75,15.958-9.391,15.517
		c0,0-5.812,0.358-5.197-5.958L138.194,42.007z"/>
	<path style="fill:#7BCCC2;" d="M73.481-21.466l81.119,54.835c0,0,1.719,6.924-4.875,6.5c0,0-3.395-2.815-2.125-8.833L73.481-21.466
		z"/>
</g>
</svg>
