<?xml version="1.0" encoding="utf-8"?>
<!-- Generator: Adobe Illustrator 16.0.0, SVG Export Plug-In . SVG Version: 6.00 Build 0)  -->
<!DOCTYPE svg PUBLIC "-//W3C//DTD SVG 1.1//EN" "http://www.w3.org/Graphics/SVG/1.1/DTD/svg11.dtd">
<svg version="1.1" id="Layer_1" xmlns="http://www.w3.org/2000/svg" xmlns:xlink="http://www.w3.org/1999/xlink" x="0px" y="0px"
	 width="470.106px" height="51.913px" viewBox="0 0 470.106 51.913" style="enable-background:new 0 0 470.106 51.913;"
	 xml:space="preserve">
<path style="fill:#8CD9FB;" d="M455.686,0c-5.72,0-10.646,3.339-12.979,8.166C440.375,3.339,435.449,0,429.729,0
	c-5.72,0-10.646,3.339-12.978,8.166C414.419,3.339,409.492,0,403.772,0c-5.721,0-10.646,3.339-12.979,8.166
	C388.462,3.339,383.536,0,377.815,0s-10.646,3.339-12.979,8.166C362.505,3.339,357.579,0,351.858,0
	c-5.72,0-10.646,3.339-12.979,8.166C336.548,3.339,331.622,0,325.901,0c-5.72,0-10.646,3.339-12.978,8.166
	C310.592,3.339,305.665,0,299.945,0c-5.721,0-10.647,3.339-12.979,8.166c-1.487-3.08-4.038-5.541-7.17-6.93
	C278.02,0.449,276.059,0,273.988,0c-5.721,0-10.647,3.339-12.979,8.166C258.679,3.339,253.752,0,248.031,0
	c-5.72,0-10.646,3.339-12.979,8.166C232.722,3.339,227.795,0,222.074,0c-5.72,0-10.646,3.339-12.978,8.166
	C206.765,3.339,201.838,0,196.118,0c-5.721,0-10.647,3.339-12.979,8.166c-0.333-0.688-0.731-1.337-1.165-1.96
	C179.373,2.464,175.065,0,170.161,0c-5.72,0-10.647,3.339-12.979,8.166C154.852,3.339,149.924,0,144.204,0
	c-5.72,0-10.647,3.339-12.979,8.166C128.895,3.339,123.968,0,118.248,0s-10.647,3.339-12.979,8.166C102.938,3.339,98.011,0,92.291,0
	S81.644,3.339,79.312,8.166C76.981,3.339,72.054,0,66.334,0c-5.721,0-10.647,3.339-12.979,8.166C51.024,3.339,46.097,0,40.377,0
	S29.73,3.339,27.398,8.166C25.067,3.339,20.141,0,14.42,0C6.456,0,0,6.455,0,14.42c0,2.245,0.527,4.36,1.442,6.254v31.239h467.222
	V20.674c0.915-1.894,1.442-4.009,1.442-6.254C470.106,6.455,463.65,0,455.686,0z"/>
</svg>
