<?xml version="1.0" encoding="utf-8"?>
<!-- Generator: Adobe Illustrator 16.0.0, SVG Export Plug-In . SVG Version: 6.00 Build 0)  -->
<!DOCTYPE svg PUBLIC "-//W3C//DTD SVG 1.1//EN" "http://www.w3.org/Graphics/SVG/1.1/DTD/svg11.dtd">
<svg version="1.1" id="Layer_1" xmlns="http://www.w3.org/2000/svg" xmlns:xlink="http://www.w3.org/1999/xlink" x="0px" y="0px"
	 width="130.124px" height="130.14px" viewBox="60.619 206.783 130.124 130.14"
	 style="enable-background:new 60.619 206.783 130.124 130.14;" xml:space="preserve">
<path style="fill:#CED8D8;" d="M186.867,333.948v-9.984h2.868c0.496,0,0.897-0.401,0.897-0.896s-0.401-0.897-0.897-0.897h-47.708
	c-0.494,0-0.896,0.402-0.896,0.897s0.402,0.896,0.896,0.896h2.87v9.984h-38.241v-9.984h3.157c0.495,0,0.896-0.401,0.896-0.896
	s-0.401-0.897-0.896-0.897H62.106c-0.496,0-0.897,0.402-0.897,0.897s0.401,0.896,0.897,0.896h2.58v9.984h-3.368v2.975h129.424
	v-2.975H186.867z M185.073,323.964v9.984h-3.229v-9.984H185.073z M180.051,323.964v9.984h-3.228v-9.984H180.051z M175.029,323.964
	v9.984h-3.229v-9.984H175.029z M170.008,323.964v9.984h-3.229v-9.984H170.008z M164.985,323.964v9.984h-3.229v-9.984H164.985z
	 M159.963,323.964v9.984h-3.229v-9.984H159.963z M154.941,323.964v9.984h-3.229v-9.984H154.941z M146.69,323.964h3.229v9.984h-3.229
	V323.964z M104.863,323.964v9.984h-3.229v-9.984H104.863z M99.841,323.964v9.984h-3.229v-9.984H99.841z M94.818,323.964v9.984H91.59
	v-9.984H94.818z M89.797,323.964v9.984h-3.229v-9.984H89.797z M84.774,323.964v9.984h-3.229v-9.984H84.774z M79.752,323.964v9.984
	h-3.229v-9.984H79.752z M74.73,323.964v9.984h-3.229v-9.984H74.73z M66.479,323.964h3.229v9.984h-3.229V323.964z"/>
<g>
	<g>
		<g>
			<g>
				<circle style="fill:none;stroke:#CCCCCC;stroke-miterlimit:10;" cx="125.428" cy="260.62" r="10.918"/>
				<line style="fill:none;stroke:#CCCCCC;stroke-miterlimit:10;" x1="125.429" y1="212.198" x2="125.429" y2="309.043"/>
				<line style="fill:none;stroke:#CCCCCC;stroke-miterlimit:10;" x1="77.006" y1="261.095" x2="173.851" y2="261.095"/>
				<line style="fill:none;stroke:#CCCCCC;stroke-miterlimit:10;" x1="159.596" y1="294.931" x2="92.144" y2="225.438"/>
				<line style="fill:none;stroke:#CCCCCC;stroke-miterlimit:10;" x1="91.796" y1="295.439" x2="159.172" y2="225.896"/>
			</g>
			<g>
				<g>
					<g>
						<path style="fill:#9BA3A3;" d="M126.365,310.76c-27.756,0-50.338-22.581-50.338-50.337s22.582-50.337,50.338-50.337
							s50.336,22.581,50.336,50.337S154.121,310.76,126.365,310.76z M126.365,213.685c-25.772,0-46.739,20.967-46.739,46.738
							c0,25.772,20.967,46.739,46.739,46.739c25.771,0,46.738-20.967,46.738-46.739
							C173.104,234.651,152.137,213.685,126.365,213.685z"/>
					</g>
					<g>
						<path style="fill:#9BA3A3;" d="M126.365,305.394c-24.797,0-44.971-20.174-44.971-44.971s20.174-44.969,44.971-44.969
							c24.796,0,44.97,20.172,44.97,44.969S151.161,305.394,126.365,305.394z M126.365,216.995
							c-23.946,0-43.429,19.482-43.429,43.428c0,23.946,19.482,43.428,43.429,43.428c23.945,0,43.427-19.481,43.427-43.428
							C169.792,236.478,150.311,216.995,126.365,216.995z"/>
					</g>
					<g>
						<polygon style="fill:#9BA3A3;" points="164.172,335.351 126.364,262.52 88.558,335.351 85.82,333.929 126.364,255.825 
							166.908,333.929 						"/>
					</g>
					<g>
						<g>
							<circle style="fill:#9BA3A3;" cx="126.365" cy="260.423" r="5.71"/>
						</g>
						<g>
							<circle style="fill:#CED8D8;" cx="126.365" cy="260.423" r="2.011"/>
						</g>
					</g>
				</g>
				<circle style="fill:none;stroke:#B3B3B3;stroke-width:7;stroke-miterlimit:10;" cx="125.428" cy="260.62" r="48.422"/>
				<circle style="fill:none;stroke:#B3B3B3;stroke-width:3;stroke-miterlimit:10;" cx="125.428" cy="260.62" r="44.093"/>
				<g>
					<g>
						<polygon style="fill:#B3B3B3;" points="163.146,335.369 125.428,262.712 87.711,335.369 84.98,333.951 125.428,256.033 
							165.876,333.951 						"/>
					</g>
					<g>
						<circle style="fill:#B3B3B3;" cx="125.428" cy="260.62" r="5.697"/>
						<circle style="fill:#999999;" cx="125.428" cy="260.62" r="2.006"/>
					</g>
				</g>
			</g>
		</g>
		<g>
			<g>
				<g>
					<g>
						<g style="opacity:0.15;">
							<path d="M118.9,210.251L118.9,210.251c0-1.362,1.104-2.468,2.467-2.468h9.743c1.362,0,2.467,1.105,2.467,2.468l0,0"/>
						</g>
						<g>
							<path style="fill:#D64752;" d="M117.9,209.251L117.9,209.251c0-1.362,1.104-2.468,2.467-2.468h9.743
								c1.362,0,2.467,1.105,2.467,2.468l0,0"/>
						</g>
					</g>
					<rect x="124.859" y="209.251" style="fill:#D64752;" width="0.633" height="6.137"/>
					<g>
						<g style="opacity:0.15;">
							<path d="M133.577,216.388c0,3.284-3.285,5.946-7.339,5.946c-4.053,0-7.338-2.662-7.338-5.946"/>
						</g>
						<g>
							<path style="fill:#D64752;" d="M132.577,215.388c0,3.284-3.285,5.946-7.339,5.946c-4.053,0-7.338-2.662-7.338-5.946"/>
						</g>
					</g>
					<rect x="117.9" y="214.629" style="fill:#ED8E98;" width="4.049" height="0.759"/>
					<rect x="128.528" y="214.629" style="fill:#ED8E98;" width="4.049" height="0.759"/>
				</g>
				<g style="opacity:0.2;">
					<g style="opacity:0.15;">
						<rect x="118.937" y="210.251" width="14.614" height="6.137"/>
					</g>
					<g>
						<rect x="117.937" y="209.251" style="fill:#65C8D0;" width="14.614" height="6.137"/>
					</g>
				</g>
			</g>
			<g>
				<g>
					<g>
						<g style="opacity:0.15;">
							<path d="M85.741,225.518L85.741,225.518c0-1.362,1.105-2.468,2.468-2.468h9.743c1.362,0,2.467,1.105,2.467,2.468l0,0"/>
						</g>
						<g>
							<path style="fill:#D64752;" d="M84.741,224.518L84.741,224.518c0-1.362,1.105-2.468,2.468-2.468h9.743
								c1.362,0,2.467,1.105,2.467,2.468l0,0"/>
						</g>
					</g>
					<rect x="91.701" y="224.518" style="fill:#D64752;" width="0.633" height="6.137"/>
					<g>
						<g style="opacity:0.15;">
							<path d="M100.419,231.654c0,3.284-3.285,5.946-7.339,5.946c-4.053,0-7.339-2.662-7.339-5.946"/>
						</g>
						<g>
							<path style="fill:#D64752;" d="M99.419,230.654c0,3.284-3.285,5.946-7.339,5.946c-4.053,0-7.339-2.662-7.339-5.946"/>
						</g>
					</g>
					<rect x="84.741" y="229.896" style="fill:#ED8E98;" width="4.049" height="0.759"/>
					<rect x="95.37" y="229.896" style="fill:#ED8E98;" width="4.049" height="0.759"/>
				</g>
				<g style="opacity:0.2;">
					<g style="opacity:0.15;">
						<rect x="85.741" y="225.518" width="14.678" height="6.137"/>
					</g>
					<g>
						<rect x="84.741" y="224.518" style="fill:#65C8D0;" width="14.678" height="6.137"/>
					</g>
				</g>
			</g>
			<g>
				<g>
					<g>
						<g style="opacity:0.15;">
							<path d="M152.706,225.518L152.706,225.518c0-1.362,1.105-2.468,2.468-2.468h9.742c1.363,0,2.468,1.105,2.468,2.468l0,0"/>
						</g>
						<g>
							<path style="fill:#D64752;" d="M151.706,224.518L151.706,224.518c0-1.362,1.105-2.468,2.468-2.468h9.742
								c1.363,0,2.468,1.105,2.468,2.468l0,0"/>
						</g>
					</g>
					<rect x="158.666" y="224.518" style="fill:#D64752;" width="0.632" height="6.137"/>
					<g>
						<g style="opacity:0.15;">
							<path d="M167.384,231.654c0,3.284-3.285,5.946-7.339,5.946c-4.053,0-7.339-2.662-7.339-5.946"/>
						</g>
						<g>
							<path style="fill:#D64752;" d="M166.384,230.654c0,3.284-3.285,5.946-7.339,5.946c-4.053,0-7.339-2.662-7.339-5.946"/>
						</g>
					</g>
					<rect x="151.706" y="229.896" style="fill:#ED8E98;" width="4.049" height="0.759"/>
					<rect x="162.336" y="229.896" style="fill:#ED8E98;" width="4.048" height="0.759"/>
				</g>
				<g style="opacity:0.2;">
					<g style="opacity:0.15;">
						<rect x="152.706" y="225.518" width="14.678" height="6.137"/>
					</g>
					<g>
						<rect x="151.706" y="224.518" style="fill:#65C8D0;" width="14.678" height="6.137"/>
					</g>
				</g>
			</g>
			<g>
				<g>
					<g>
						<rect x="173.211" y="258.304" style="fill:#D64752;" width="0.632" height="6.136"/>
						<rect x="166.251" y="263.681" style="fill:#ED8E98;" width="4.049" height="0.759"/>
						<rect x="176.88" y="263.681" style="fill:#ED8E98;" width="4.049" height="0.759"/>
					</g>
					<g>
						<g style="opacity:0.15;">
							<path d="M179.461,256.836h-9.742c-1.363,0-2.468,1.104-2.468,2.468h14.678C181.929,257.94,180.824,256.836,179.461,256.836z"
								/>
						</g>
						<g>
							<path style="fill:#D64752;" d="M178.461,255.836h-9.742c-1.363,0-2.468,1.104-2.468,2.468h14.678
								C180.929,256.94,179.824,255.836,178.461,255.836z"/>
						</g>
					</g>
					<g>
						<g style="opacity:0.15;">
							<path d="M174.59,271.387c4.053,0,7.339-2.662,7.339-5.947h-14.678C167.251,268.725,170.537,271.387,174.59,271.387z"/>
						</g>
						<g>
							<path style="fill:#D64752;" d="M173.59,270.387c4.053,0,7.339-2.662,7.339-5.947h-14.678
								C166.251,267.725,169.537,270.387,173.59,270.387z"/>
						</g>
					</g>
				</g>
				<g style="opacity:0.2;">
					<g style="opacity:0.15;">
						<rect x="167.251" y="259.304" width="14.678" height="6.136"/>
					</g>
					<g>
						<rect x="166.251" y="258.304" style="fill:#65C8D0;" width="14.678" height="6.136"/>
					</g>
				</g>
			</g>
			<g>
				<g>
					<g>
						<g style="opacity:0.15;">
							<path d="M152.297,293.435L152.297,293.435c0-1.362,1.105-2.467,2.469-2.467h9.742c1.362,0,2.468,1.104,2.468,2.467l0,0"/>
						</g>
						<g>
							<path style="fill:#D64752;" d="M151.297,292.435L151.297,292.435c0-1.362,1.105-2.467,2.469-2.467h9.742
								c1.362,0,2.468,1.104,2.468,2.467l0,0"/>
						</g>
					</g>
					<rect x="158.257" y="292.435" style="fill:#D64752;" width="0.632" height="6.137"/>
					<g>
						<g style="opacity:0.15;">
							<path d="M166.976,299.571c0,3.284-3.286,5.946-7.339,5.946c-4.054,0-7.34-2.662-7.34-5.946"/>
						</g>
						<g>
							<path style="fill:#D64752;" d="M165.976,298.571c0,3.284-3.286,5.946-7.339,5.946c-4.054,0-7.34-2.662-7.34-5.946"/>
						</g>
					</g>
					<rect x="151.297" y="297.813" style="fill:#ED8E98;" width="4.05" height="0.759"/>
					<rect x="161.927" y="297.813" style="fill:#ED8E98;" width="4.049" height="0.759"/>
				</g>
				<g style="opacity:0.2;">
					<g style="opacity:0.15;">
						<rect x="152.327" y="293.435" width="14.677" height="6.137"/>
					</g>
					<g>
						<rect x="151.327" y="292.435" style="fill:#65C8D0;" width="14.677" height="6.137"/>
					</g>
				</g>
			</g>
			<g>
				<g>
					<g>
						<g style="opacity:0.15;">
							<path d="M118.9,305.234L118.9,305.234c0-1.362,1.104-2.468,2.467-2.468h9.743c1.362,0,2.467,1.105,2.467,2.468l0,0"/>
						</g>
						<g>
							<path style="fill:#D64752;" d="M117.9,304.234L117.9,304.234c0-1.362,1.104-2.468,2.467-2.468h9.743
								c1.362,0,2.467,1.105,2.467,2.468l0,0"/>
						</g>
					</g>
					<rect x="124.859" y="304.234" style="fill:#D64752;" width="0.633" height="6.137"/>
					<g>
						<g style="opacity:0.15;">
							<path d="M133.577,311.371c0,3.284-3.285,5.947-7.339,5.947c-4.053,0-7.338-2.663-7.338-5.947"/>
						</g>
						<g>
							<path style="fill:#D64752;" d="M132.577,310.371c0,3.284-3.285,5.947-7.339,5.947c-4.053,0-7.338-2.663-7.338-5.947"/>
						</g>
					</g>
					<rect x="117.9" y="309.612" style="fill:#ED8E98;" width="4.049" height="0.759"/>
					<rect x="128.528" y="309.612" style="fill:#ED8E98;" width="4.049" height="0.759"/>
				</g>
				<g style="opacity:0.2;">
					<g style="opacity:0.15;">
						<rect x="118.837" y="305.234" width="14.678" height="6.137"/>
					</g>
					<g>
						<rect x="117.837" y="304.234" style="fill:#65C8D0;" width="14.678" height="6.137"/>
					</g>
				</g>
			</g>
			<g>
				<g>
					<g>
						<g style="opacity:0.15;">
							<path d="M85.078,293.435L85.078,293.435c0-1.362,1.104-2.467,2.467-2.467h9.743c1.362,0,2.467,1.104,2.467,2.467l0,0"/>
						</g>
						<g>
							<path style="fill:#D64752;" d="M84.078,292.435L84.078,292.435c0-1.362,1.104-2.467,2.467-2.467h9.743
								c1.362,0,2.467,1.104,2.467,2.467l0,0"/>
						</g>
					</g>
					<rect x="91.037" y="292.435" style="fill:#D64752;" width="0.633" height="6.137"/>
					<g>
						<g style="opacity:0.15;">
							<path d="M99.755,299.571c0,3.284-3.285,5.946-7.338,5.946c-4.054,0-7.339-2.662-7.339-5.946"/>
						</g>
						<g>
							<path style="fill:#D64752;" d="M98.755,298.571c0,3.284-3.285,5.946-7.338,5.946c-4.054,0-7.339-2.662-7.339-5.946"/>
						</g>
					</g>
					<rect x="84.078" y="297.813" style="fill:#ED8E98;" width="4.049" height="0.759"/>
					<rect x="94.707" y="297.813" style="fill:#ED8E98;" width="4.048" height="0.759"/>
				</g>
				<g style="opacity:0.2;">
					<g style="opacity:0.15;">
						<rect x="85.153" y="293.401" width="14.678" height="6.137"/>
					</g>
					<g>
						<rect x="84.153" y="292.401" style="fill:#65C8D0;" width="14.678" height="6.137"/>
					</g>
				</g>
			</g>
			<g>
				<g>
					<g>
						<g style="opacity:0.15;">
							<path d="M70.541,259.304L70.541,259.304c0-1.363,1.104-2.468,2.467-2.468h9.743c1.362,0,2.468,1.104,2.468,2.468l0,0"/>
						</g>
						<g>
							<path style="fill:#D64752;" d="M69.541,258.304L69.541,258.304c0-1.363,1.104-2.468,2.467-2.468h9.743
								c1.362,0,2.468,1.104,2.468,2.468l0,0"/>
						</g>
					</g>
					<rect x="76.5" y="258.304" style="fill:#D64752;" width="0.633" height="6.136"/>
					<g>
						<g style="opacity:0.15;">
							<path d="M85.219,265.439c0,3.285-3.286,5.947-7.339,5.947s-7.339-2.662-7.339-5.947"/>
						</g>
						<g>
							<path style="fill:#D64752;" d="M84.219,264.439c0,3.285-3.286,5.947-7.339,5.947s-7.339-2.662-7.339-5.947"/>
						</g>
					</g>
					<rect x="69.541" y="263.681" style="fill:#ED8E98;" width="4.049" height="0.759"/>
					<rect x="80.17" y="263.681" style="fill:#ED8E98;" width="4.049" height="0.759"/>
				</g>
				<g style="opacity:0.2;">
					<g style="opacity:0.15;">
						<rect x="70.541" y="259.304" width="14.678" height="6.136"/>
					</g>
					<g>
						<rect x="69.541" y="258.304" style="fill:#65C8D0;" width="14.678" height="6.136"/>
					</g>
				</g>
			</g>
		</g>
	</g>
	<g>
		<path style="fill:#FFCE85;" d="M109.751,322.384c0,0.492-0.399,0.891-0.891,0.891H61.509c-0.492,0-0.89-0.398-0.89-0.891l0,0
			c0-0.491,0.398-0.891,0.89-0.891h47.352C109.352,321.493,109.751,321.893,109.751,322.384L109.751,322.384z"/>
		<path style="fill:#FFCE85;" d="M189.076,322.384c0,0.492-0.398,0.891-0.891,0.891h-47.351c-0.492,0-0.891-0.398-0.891-0.891l0,0
			c0-0.491,0.398-0.891,0.891-0.891h47.351C188.678,321.493,189.076,321.893,189.076,322.384L189.076,322.384z"/>
		<rect x="60.727" y="333.185" style="fill:#FFCE85;" width="128.458" height="2.952"/>
		<g>
			<rect x="64.07" y="323.274" style="fill:#FFCE85;" width="1.78" height="11.279"/>
			<rect x="69.055" y="323.274" style="fill:#FFCE85;" width="1.78" height="11.279"/>
			<rect x="74.039" y="323.274" style="fill:#FFCE85;" width="1.78" height="11.279"/>
			<rect x="79.023" y="323.274" style="fill:#FFCE85;" width="1.78" height="11.279"/>
			<rect x="84.008" y="323.274" style="fill:#FFCE85;" width="1.78" height="11.279"/>
			<rect x="88.993" y="323.274" style="fill:#FFCE85;" width="1.78" height="11.279"/>
			<rect x="93.978" y="323.274" style="fill:#FFCE85;" width="1.78" height="11.279"/>
			<rect x="98.962" y="323.274" style="fill:#FFCE85;" width="1.78" height="11.279"/>
			<rect x="103.947" y="323.274" style="fill:#FFCE85;" width="1.78" height="11.279"/>
		</g>
		<g>
			<rect x="143.683" y="323.274" style="fill:#FFCE85;" width="1.779" height="11.279"/>
			<rect x="148.667" y="323.274" style="fill:#FFCE85;" width="1.78" height="11.279"/>
			<rect x="153.651" y="323.274" style="fill:#FFCE85;" width="1.78" height="11.279"/>
			<rect x="158.637" y="323.274" style="fill:#FFCE85;" width="1.779" height="11.279"/>
			<rect x="163.62" y="323.274" style="fill:#FFCE85;" width="1.781" height="11.279"/>
			<rect x="168.605" y="323.274" style="fill:#FFCE85;" width="1.779" height="11.279"/>
			<rect x="173.59" y="323.274" style="fill:#FFCE85;" width="1.78" height="11.279"/>
			<rect x="178.575" y="323.274" style="fill:#FFCE85;" width="1.779" height="11.279"/>
			<rect x="183.56" y="323.274" style="fill:#FFCE85;" width="1.78" height="11.279"/>
		</g>
	</g>
</g>
</svg>
