<?xml version="1.0" encoding="utf-8"?>
<!-- Generator: Adobe Illustrator 16.0.0, SVG Export Plug-In . SVG Version: 6.00 Build 0)  -->
<!DOCTYPE svg PUBLIC "-//W3C//DTD SVG 1.1//EN" "http://www.w3.org/Graphics/SVG/1.1/DTD/svg11.dtd">
<svg version="1.1" id="Layer_1" xmlns="http://www.w3.org/2000/svg" xmlns:xlink="http://www.w3.org/1999/xlink" x="0px" y="0px"
	 width="133.486px" height="133.486px" viewBox="-3.208 2.02 133.486 133.486"
	 style="enable-background:new -3.208 2.02 133.486 133.486;" xml:space="preserve">
<g>
	<path style="fill:none;" d="M51.319,33.052C40.31,36.818,31.6,45.523,27.83,56.53c-1.314,3.838-2.038,7.95-2.038,12.233
		c0,4.278,0.722,8.383,2.033,12.217c3.766,11.008,12.471,19.717,23.478,23.488c3.838,1.314,7.95,2.037,12.233,2.037V31.02
		C59.258,31.02,55.152,31.742,51.319,33.052z"/>
	<path style="fill:#FFFFFF;" d="M27.825,80.98L0.386,90.367c6.659,19.465,22.053,34.867,41.516,41.535l9.4-27.434
		C40.295,100.697,31.59,91.988,27.825,80.98z"/>
	<path style="fill:#FFFFFF;" d="M51.319,33.052L41.932,5.615C22.465,12.273,7.064,27.667,0.397,47.13L27.83,56.53
		C31.6,45.523,40.31,36.818,51.319,33.052z"/>
	<path style="fill:#FF7845;" d="M63.535,31.02v-29c-7.563,0-14.825,1.276-21.603,3.595l9.387,27.438
		C55.152,31.742,59.258,31.02,63.535,31.02z"/>
	<path style="fill:#FF7845;" d="M25.792,68.763c0-4.283,0.724-8.396,2.038-12.233L0.397,47.13
		c-2.325,6.786-3.605,14.058-3.605,21.633c0,7.563,1.276,14.825,3.595,21.604l27.438-9.387
		C26.513,77.146,25.792,73.041,25.792,68.763z"/>
	<path style="fill:#FF7845;" d="M51.302,104.469l-9.4,27.434c6.787,2.324,14.059,3.604,21.633,3.604v-29
		C59.252,106.506,55.14,105.783,51.302,104.469z"/>
	<path style="fill:#DCDCDC;" d="M99.246,56.547l27.438-9.386c-6.658-19.468-22.053-34.869-41.516-41.537L75.77,33.058
		C86.775,36.83,95.48,45.539,99.246,56.547z"/>
	<path style="fill:#DCDCDC;" d="M75.752,104.475l9.385,27.438c19.467-6.658,34.869-22.053,41.535-41.516l-27.434-9.398
		C95.469,92.004,86.76,100.709,75.752,104.475z"/>
	<path style="fill:#EF3522;" d="M75.77,33.058l9.398-27.434C78.383,3.3,71.111,2.02,63.535,2.02v29
		C67.818,31.02,71.932,31.744,75.77,33.058z"/>
	<path style="fill:#EF3522;" d="M75.752,104.475c-3.834,1.311-7.939,2.031-12.217,2.031v29c7.564,0,14.824-1.275,21.602-3.594
		L75.752,104.475z"/>
	<path style="fill:#EF3522;" d="M99.246,56.547c1.311,3.833,2.031,7.938,2.031,12.216c0,4.284-0.723,8.397-2.039,12.235
		l27.434,9.398c2.326-6.785,3.605-14.059,3.605-21.633c0-7.563-1.275-14.824-3.594-21.602L99.246,56.547z"/>
</g>
</svg>
