<?xml version="1.0" encoding="utf-8"?>
<!-- Generator: Adobe Illustrator 16.0.0, SVG Export Plug-In . SVG Version: 6.00 Build 0)  -->
<!DOCTYPE svg PUBLIC "-//W3C//DTD SVG 1.1//EN" "http://www.w3.org/Graphics/SVG/1.1/DTD/svg11.dtd">
<svg version="1.1" id="Layer_1" xmlns="http://www.w3.org/2000/svg" xmlns:xlink="http://www.w3.org/1999/xlink" x="0px" y="0px"
	 width="178.985px" height="178.986px" viewBox="0 0 178.985 178.986" enable-background="new 0 0 178.985 178.986"
	 xml:space="preserve">
<g>
	<g>
		<path fill="#25292C" d="M89.558,27.081c-34.256,0-62.127,27.871-62.127,62.127c0,34.257,27.871,62.126,62.127,62.126
			c34.257,0,62.126-27.869,62.126-62.126C151.684,54.952,123.814,27.081,89.558,27.081z M89.558,143.61
			c-30.044,0-54.4-24.356-54.4-54.401c0-30.044,24.356-54.401,54.4-54.401c30.045,0,54.401,24.356,54.401,54.401
			C143.959,119.253,119.603,143.61,89.558,143.61z"/>
		<g>
			<rect x="85.551" y="15.454" fill="#25292C" width="8.013" height="151.942"/>
			<ellipse fill="#25292C" cx="89.558" cy="10.731" rx="8.481" ry="10.731"/>
			<ellipse fill="#25292C" cx="89.493" cy="168.253" rx="8.481" ry="10.732"/>
		</g>
		<g>
			<rect x="15.452" y="85.203" fill="#25292C" width="151.943" height="8.012"/>
			<ellipse fill="#25292C" cx="10.73" cy="89.209" rx="10.73" ry="8.48"/>
			<ellipse fill="#25292C" cx="168.254" cy="89.273" rx="10.731" ry="8.481"/>
		</g>
		<g>
			
				<rect x="88.237" y="11.25" transform="matrix(-0.7072 -0.707 0.707 -0.7072 95.8045 214.1206)" fill="#25292C" width="8.012" height="151.943"/>
			<path fill="#25292C" d="M29.188,138.284c4.189-4.19,10.272-4.903,13.584-1.593c3.312,3.314,2.599,9.395-1.592,13.585
				c-4.19,4.192-10.272,4.904-13.584,1.593S24.997,142.474,29.188,138.284z"/>
			<path fill="#25292C" d="M140.62,26.944c4.19-4.192,10.271-4.904,13.583-1.592c3.313,3.312,2.601,9.394-1.589,13.585
				c-4.192,4.19-10.273,4.904-13.585,1.592S136.43,31.135,140.62,26.944z"/>
		</g>
		<g>
			
				<rect x="85.505" y="11.296" transform="matrix(-0.7071 0.7071 -0.7071 -0.7071 214.514 85.6766)" fill="#25292C" width="8.013" height="151.945"/>
			
				<ellipse transform="matrix(-0.7071 0.7071 -0.7071 -0.7071 352.2659 142.7494)" fill="#25292C" cx="146.57" cy="144.327" rx="8.481" ry="10.731"/>
			
				<ellipse transform="matrix(-0.7071 0.7071 -0.7071 -0.7071 83.4012 31.2378)" fill="#25292C" cx="35.23" cy="32.893" rx="8.48" ry="10.729"/>
		</g>
	</g>
</g>
</svg>
