<?xml version="1.0" encoding="utf-8"?>
<!-- Generator: Adobe Illustrator 16.0.0, SVG Export Plug-In . SVG Version: 6.00 Build 0)  -->
<!DOCTYPE svg PUBLIC "-//W3C//DTD SVG 1.1//EN" "http://www.w3.org/Graphics/SVG/1.1/DTD/svg11.dtd">
<svg version="1.1" id="Layer_1" xmlns="http://www.w3.org/2000/svg" xmlns:xlink="http://www.w3.org/1999/xlink" x="0px" y="0px"
	 width="325.19px" height="268.324px" viewBox="-181.984 -45.326 325.19 268.324"
	 style="enable-background:new -181.984 -45.326 325.19 268.324;" xml:space="preserve">
<g>
	<path style="fill:#F26E25;" d="M-18.912,195.058l-0.198-0.004l-6.08-0.061l0.21-20.364c0,0,1.251-3.941,5.797-3.896
		c0.114,0.002,0.216,0.017,0.324,0.022c0.062,0.006,0.106,0.023,0.167,0.027l0.17-19.021l-97.256-1.048l-0.006,0.187l-65.451-0.682
		l-0.75,72.78h162.82L-18.912,195.058z M-154.963,204.326l-11.423-0.116l0.166-16.049l11.423,0.115L-154.963,204.326z
		 M-154.698,178.948l-11.426-0.121l0.169-16.053l11.421,0.117L-154.698,178.948z M-130.575,204.58l-11.428-0.117l0.165-16.053
		l11.429,0.121L-130.575,204.58z M-130.315,179.199l-11.427-0.116l0.166-16.055l11.428,0.114L-130.315,179.199z M-93.977,194.294
		l-10.762-0.113l0.399-38.632l10.763,0.109L-93.977,194.294z M-73.459,194.506l-10.761-0.113l0.401-38.634l10.76,0.113
		L-73.459,194.506z M-52.925,194.72l-10.729-0.113l0.4-38.632l10.729,0.109L-52.925,194.72z M-32.359,194.93l-10.774-0.111
		l0.397-38.636l10.776,0.115L-32.359,194.93z"/>
	<path style="fill:#F26E25;" d="M-18.43,129.352l-3.759-0.042l0.28-27.366c0,0-0.229-3.834,3.347-3.799
		c0.163,0,0.307,0.021,0.456,0.036c0.027,0.004,0.047,0.016,0.075,0.02l0.006-0.849l-56.391-0.476l-0.329,31.803l6.353,0.091
		l0.28-27.305c0,0-0.207-3.833,3.347-3.795c3.548,0.035,3.509,3.864,3.509,3.864l-0.284,27.328l8.553,0.117l0.282-27.354
		c0,0-0.215-3.832,3.327-3.799c3.531,0.04,3.488,3.868,3.488,3.868l-0.283,27.37l-3.344-0.036l31.2,0.434l0.002-0.108
		L-18.43,129.352z M-37.59,129.153l0.283-27.37c0,0-0.216-3.834,3.313-3.799c3.547,0.042,3.504,3.87,3.504,3.87l-0.281,27.368
		L-37.59,129.153z"/>
	<path style="fill:#785033;" d="M-17.211,7.487l0.475-52.777l-1.851-0.019l-0.289,27.922c-1.736,0.38-3.175,1.37-4.015,2.708
		l-0.776-0.006c-1.469-0.017-2.686,1.161-2.701,2.641c-0.011,1.033,0.602,1.964,1.452,2.385l-0.176,17.029L-17.211,7.487z"/>
	<path style="fill:#F26E25;" d="M-73.757,86.972l55.819,0.45v-0.046h-0.059l-3.152-0.033l0.204-19.82c0,0-0.181-2.77,2.726-2.738
		c0.174,0.002,0.305,0.046,0.458,0.062c0.01,0,0.018,0.004,0.026,0.006l0.436-47.775l-12.86-0.091
		c0.018,0.027,0.026,0.059,0.045,0.086c-6.521,2.984-14.213,7.96-20.042,16.146c-5.628,7.893-7.531,19.762-8.101,25.482
		l-5.288-0.055c-2.389-0.024-4.283,1.875-4.307,4.259c-0.019,1.477,0.685,2.759,1.791,3.561l-0.212,20.504l-6.721-0.066
		C-73.257,86.898-73.505,86.935-73.757,86.972z M-30.836,64.654c2.881,0.03,2.852,2.797,2.852,2.797l-0.204,19.82l-5.564-0.06
		l0.203-19.818C-33.549,67.394-33.742,64.623-30.836,64.654z M-43.418,64.523c2.873,0.03,2.843,2.797,2.843,2.797l-0.205,19.82
		l-5.561-0.058l0.205-19.822C-46.136,67.261-46.332,64.494-43.418,64.523z M-58.742,67.133c0,0-0.195-2.77,2.728-2.74
		c2.868,0.029,2.835,2.795,2.835,2.795l-0.201,19.82l-5.567-0.058L-58.742,67.133z"/>
	<path style="fill:#F9BB14;" d="M-17.211,7.487l-7.882-0.117l-0.002,0.183l-2.873-0.029l-0.037,3.529
		c-1.618,0.493-2.835,1.946-2.854,3.751c-0.01,0.808,0.287,1.555,0.698,2.18l12.86,0.091L-17.211,7.487z"/>
	<path style="fill:#DA6426;" d="M31.121,102.49l-0.281,27.016l6.321,0.023l0.327-31.584c0.123-0.032,0.233-0.083,0.353-0.123
		l-55.866-0.471l-0.006,0.849c2.963,0.404,2.945,3.814,2.945,3.814l-0.285,27.307l8.584,0.034l0.281-27.251
		c0,0-0.246-3.835,3.298-3.799c3.533,0.018,3.492,3.866,3.492,3.866l-0.281,27.211l8.58,0.034l0.281-27.156
		c-0.016,0-0.216-3.851,3.346-3.813c3.549,0.035,3.508,3.872,3.508,3.872l-0.281,27.122l8.552,0.035l0.281-27.057
		c0,0-0.218-3.832,3.328-3.795C31.157,98.66,31.121,102.49,31.121,102.49z"/>
	<path style="fill:#69462C;" d="M-9.944,7.596l0.178-17.081c0.843-0.405,1.475-1.304,1.485-2.354c0.016-1.462-1.2-2.684-2.641-2.697
		l-0.78-0.011c-0.784-1.369-2.249-2.392-3.965-2.808l0.291-27.92l-1.247-0.014l-0.605-0.038l0.018,52.813L-9.944,7.596z"/>
	<path style="fill:#E2AA15;" d="M-4.395,15.062c0.018-1.791-1.11-3.282-2.757-3.777l0.035-3.53l-2.831-0.029l0.004-0.129
		l-7.267-0.109l-0.089,9.589l12.222,0.086C-4.666,16.573-4.405,15.851-4.395,15.062z"/>
	<path style="fill:#DA6426;" d="M22.46,67.972l-0.204,19.774l7.295,0.056l0.211-20.37c1.121-0.772,1.883-2.047,1.898-3.543
		c0.024-2.372-1.851-4.314-4.268-4.34l-5.264-0.055c-0.477-5.74-2.134-17.615-7.534-25.617C8.914,25.569,1.289,20.432-5.149,17.294
		c0.032-0.039,0.042-0.09,0.071-0.132L-17.3,17.077l-0.436,47.775c2.372,0.334,2.387,2.728,2.387,2.728l-0.206,19.819l-2.384-0.023
		v0.046l21.993,0.176l0.208-19.813c0,0-0.164-2.768,2.683-2.74c2.941,0.032,2.914,2.795,2.914,2.795L9.654,87.644l7.004,0.057
		l0.209-19.786c0,0-0.196-2.77,2.728-2.74C22.494,65.207,22.46,67.972,22.46,67.972z M-2.952,87.528l-5.61-0.056l0.204-19.819
		c0,0-0.18-2.768,2.729-2.74c2.91,0.032,2.884,2.797,2.884,2.797L-2.952,87.528z"/>
	<path style="fill:#DA6426;" d="M143.201,153.702l-161.723-1.611l-0.17,18.691c4.096,0.331,5.153,3.967,5.153,3.967l-0.21,20.364
		l-5.164-0.056l-0.252,27.94h161.652L143.201,153.702z M4.196,195.308l-10.775-0.113l0.396-38.632l10.781,0.111L4.196,195.308z
		 M24.735,195.523l-10.761-0.113l0.396-38.632l10.765,0.109L24.735,195.523z M45.237,195.733l-10.711-0.111l0.4-38.634l10.709,0.113
		L45.237,195.733z M65.819,195.947l-10.761-0.111l0.4-38.634l10.757,0.111L65.819,195.947z M101.1,206.979l-11.395-0.117
		l0.166-16.051l11.393,0.117L101.1,206.979z M101.361,181.601l-11.393-0.12l0.164-16.057l11.395,0.12L101.361,181.601z
		 M125.48,207.232l-11.363-0.116l0.166-16.053l11.363,0.118L125.48,207.232z M114.379,181.733l0.166-16.057l11.369,0.119
		l-0.169,16.053L114.379,181.733z"/>
	<polygon style="fill:#E2AA15;" points="143.206,153.562 77.756,152.885 77.898,139.152 47.32,138.836 47.407,130.284 
		37.151,130.177 37.161,129.529 30.84,129.506 30.836,129.86 23.982,129.791 23.986,129.478 15.435,129.442 15.435,129.684 
		8.581,129.612 8.581,129.417 0.001,129.383 -0.002,129.543 -6.79,129.472 -6.788,129.355 -15.372,129.321 -15.372,129.381 
		-18.317,129.354 -18.521,152.091 143.201,153.702 	"/>
	<polygon style="fill:#F9BB14;" points="-18.278,129.304 -49.482,128.87 -52.946,128.835 -52.946,128.823 -61.501,128.704 
		-61.501,128.747 -68.351,128.674 -68.351,128.609 -74.704,128.521 -74.71,128.878 -84.946,128.771 -85.033,137.323 
		-115.596,137.007 -115.736,150.557 -18.448,152.043 	"/>
	<path style="fill:#F9BB14;" d="M-17.973,87.243l-55.881-0.57c-2.408,0.349-4.248,2.519-4.271,5.038
		c-0.026,2.351,1.545,4.29,3.671,4.914l-0.003,0.075l56.464,0.667L-17.973,87.243z"/>
	<path style="fill:#E2AA15;" d="M41.28,93.106c0.028-2.783-2.245-5.063-5.024-5.089l-6.707-0.071l0.002-0.145l-7.295-0.056
		l0.002,0.046l-5.6-0.058V87.7l-7.004-0.057v0.02l-5.596-0.06l-0.002-0.006l-22.217-0.358l0.135,10.112l55.866,0.471
		C39.823,97.136,41.254,95.328,41.28,93.106z"/>
</g>
</svg>
