<?xml version="1.0" encoding="utf-8"?>
<!-- Generator: Adobe Illustrator 16.0.0, SVG Export Plug-In . SVG Version: 6.00 Build 0)  -->
<!DOCTYPE svg PUBLIC "-//W3C//DTD SVG 1.1//EN" "http://www.w3.org/Graphics/SVG/1.1/DTD/svg11.dtd">
<svg version="1.1" id="Layer_1" xmlns="http://www.w3.org/2000/svg" xmlns:xlink="http://www.w3.org/1999/xlink" x="0px" y="0px"
	 width="138.17px" height="131.533px" viewBox="0 0 138.17 131.533" style="enable-background:new 0 0 138.17 131.533;"
	 xml:space="preserve">
<g>
	<g>
		<g>
			<path style="fill:#67564F;" d="M48.762,51.354c-18.693,0-33.844,15.154-33.844,33.847c0,0.614,0.063,1.211,0.096,1.814
				c0.482,9.048,4.496,17.145,10.717,22.937v10.67c-3.248,2.532-5.348,6.474-5.348,10.912h27.678c0-4.438-2.096-8.38-5.348-10.912
				v-2.144c1.967,0.355,3.982,0.569,6.049,0.569v-15.039c7.092-0.015,13.736-1.729,19.473-4.701
				c5.873-3.04,10.803-7.397,14.297-12.632c0.023-0.491,0.08-0.977,0.08-1.475C82.611,66.508,67.457,51.354,48.762,51.354z"/>
			<path style="fill:#8C8281;" d="M71.799,120.621v-10.67c6.297-5.863,10.336-14.091,10.732-23.276
				c-3.496,5.237-8.432,9.598-14.309,12.638c-2.146,1.112-4.422,2.047-6.799,2.782c-0.021,0.007-0.045,0.015-0.07,0.021
				c-0.768,0.236-1.547,0.453-2.338,0.647c-0.096,0.024-0.195,0.04-0.293,0.063c-0.721,0.172-1.445,0.333-2.18,0.467
				c-0.213,0.039-0.43,0.064-0.643,0.101c-0.629,0.104-1.256,0.211-1.895,0.289c-0.408,0.05-0.824,0.077-1.234,0.115
				c-0.453,0.041-0.9,0.096-1.359,0.125c-0.875,0.055-1.758,0.084-2.65,0.085v15.039c2.209,0,4.143-0.186,5.855-0.536
				c0.064-0.013,0.133-0.022,0.197-0.033v2.144c-3.25,2.532-5.348,6.474-5.348,10.912h27.68
				C77.146,127.095,75.049,123.153,71.799,120.621z"/>
		</g>
		<g>
			<g>
				<g>
					<path style="fill:#D5D2B1;" d="M48.109,131.533c0-7.654-6.207-13.858-13.857-13.858c-7.654,0-13.859,6.204-13.859,13.858
						H48.109z"/>
				</g>
			</g>
			<g>
				<g>
					<path style="fill:#F6F3CF;" d="M77.201,131.533c0-7.654-6.201-13.858-13.855-13.858s-13.859,6.204-13.859,13.858H77.201z"/>
				</g>
			</g>
		</g>
		<path style="fill:#D5D2B1;" d="M48.762,119.047c0,0-4.025-5.204-10.197-8.875c-6.172-3.67-13.982-10.521-11.803-19.976
			c2.182-9.455,21.982,0,21.982,0L48.762,119.047z"/>
		<path style="fill:#F6F3CF;" d="M48.744,119.047c0,0,4.027-5.204,10.197-8.875c6.172-3.67,13.982-10.521,11.803-19.976
			s-21.982,0-21.982,0L48.744,119.047z"/>
	</g>
	<g>
		<g>
			<g>
				<path style="fill:#8C8281;" d="M71.078,105.314c11.467,9.448,26.533,3.121,35.445-6.738c0.697-0.77,1.488-1.464,2.322-2.123
					c3.773-0.178,7.875,0.25,11.24,2.123c0,0-6.029,4.551-8.32,9.547c0,0,6.76,1.377,12.066-1.964c0,0-0.668,7.984-6.322,14.887
					c-1.771,0.542-3.678,1.026-5.744,1.435c-34.855,6.867-44.885-12.939-44.885-12.939L71.078,105.314z"/>
			</g>
		</g>
		<g>
			<g>
				<path style="fill:#F6F3CF;" d="M111.766,108.123c2.291-4.996,8.32-9.547,8.32-9.547c-3.365-1.873-7.467-2.301-11.24-2.123
					c9.838-7.768,28.094-8.062,28.094-8.062s8.549,24.078-19.43,32.654c5.654-6.902,6.322-14.887,6.322-14.887
					C118.525,109.5,111.766,108.123,111.766,108.123z"/>
			</g>
		</g>
	</g>
	<g>
		<g>
			<path style="fill:#67564F;" d="M48.754,64.696v-1.038v-46.27c-21.234,0-38.453,17.217-38.453,38.452
				c0,0.502,0.057,0.987,0.076,1.479c0,0-8.115,10.099-10.352,25.641C8.402,72.194,27.061,64.696,48.754,64.696z"/>
			<path style="fill:#8C8281;" d="M97.506,82.995C95.281,67.434,87.152,57.32,87.152,57.32c0.02-0.492,0.078-0.978,0.078-1.479
				c0-21.235-17.221-38.452-38.455-38.452v46.27v1.038C70.48,64.701,89.146,72.214,97.506,82.995z"/>
			<path style="fill:#D5D2B1;" d="M9.955,82.228c7.641,2.961,23.301,13.456,38.799,13.456V84.177v-19.48
				c-21.693,0-40.352,7.498-48.729,18.265C0.018,83.018,0.008,83.073,0,83.132C0,83.132,3.523,79.733,9.955,82.228z"/>
			<path style="fill:#F6F3CF;" d="M48.775,95.684c15.498,0,31.156-10.495,38.799-13.456c6.43-2.494,9.953,0.904,9.953,0.904
				c-0.006-0.047-0.016-0.091-0.021-0.137c-8.359-10.781-27.025-18.294-48.73-18.299v19.48V95.684z"/>
		</g>
		<g>
			<g>
				<path style="fill:#67564F;" d="M39.492,23.216L15.68,0c0,0-12.309,22.075,1.498,34.941l16.086-8.451L39.492,23.216z"/>
				<path style="fill:#D5D2B1;" d="M18.244,12.628c0,0-5.018,10.417,4.865,19.198l10.154-5.336L18.244,12.628z"/>
			</g>
			<g>
				<path style="fill:#8C8281;" d="M58.033,23.216L81.846,0c0,0,12.309,22.075-1.496,34.941L64.264,26.49L58.033,23.216z"/>
				<path style="fill:#F6F3CF;" d="M79.279,12.628c0,0,5.021,10.417-4.861,19.198L64.264,26.49L79.279,12.628z"/>
			</g>
		</g>
		<g>
			<g>
				<path style="fill:#D5D2B1;" d="M26.35,47.976c-3.059,0-5.445,0.667-5.705,0.741l-2.207,0.64v2.296
					c0,14.239,9.398,15.775,13.439,15.775c3.447,0,6.24-0.977,6.549-1.088l1.963-0.712l0.045-2.092
					c0.113-5.08-1.17-9.028-3.822-11.736C34.166,49.297,30.617,47.976,26.35,47.976L26.35,47.976z"/>
				<path style="fill:#B68472;" d="M31.092,63.256c-3.014,0-8.07-1.256-8.07-9.651v-0.777l0.748-0.217
					c0.064-0.018,1.617-0.462,3.576-0.462c2.605,0,4.756,0.788,6.213,2.278c1.594,1.628,2.363,4.054,2.295,7.204l-0.016,0.708
					l-0.666,0.241C35.096,62.608,33.287,63.256,31.092,63.256L31.092,63.256z"/>
			</g>
			<g>
				<g>
					<g>
						<circle style="fill:#FFFFFF;" cx="30.811" cy="56.53" r="2.002"/>
					</g>
				</g>
			</g>
			<g>
				<g>
					<path style="fill:#F6F3CF;" d="M71.18,47.976c-4.27,0-7.82,1.321-10.266,3.824c-2.648,2.708-3.934,6.656-3.82,11.736
						l0.047,2.092l1.961,0.712c0.309,0.111,3.102,1.088,6.549,1.088c4.041,0,13.439-1.536,13.439-15.775v-2.296l-2.207-0.64
						C76.623,48.643,74.236,47.976,71.18,47.976L71.18,47.976z"/>
					<path style="fill:#B68472;" d="M66.438,63.256c3.014,0,8.066-1.256,8.066-9.651v-0.777l-0.746-0.217
						c-0.066-0.018-1.615-0.462-3.576-0.462c-2.605,0-4.754,0.788-6.215,2.278c-1.59,1.628-2.361,4.054-2.293,7.204l0.016,0.708
						l0.666,0.241C62.432,62.608,64.238,63.256,66.438,63.256L66.438,63.256z"/>
				</g>
				<g>
					<g>
						<g>
							<circle style="fill:#FFFFFF;" cx="71.316" cy="56.53" r="2.002"/>
						</g>
					</g>
				</g>
			</g>
		</g>
		<ellipse style="fill:#3C3C3B;" cx="48.764" cy="84.673" rx="7.203" ry="4.419"/>
	</g>
</g>
</svg>
