<?xml version="1.0" encoding="utf-8"?>
<!-- Generator: Adobe Illustrator 16.0.0, SVG Export Plug-In . SVG Version: 6.00 Build 0)  -->
<!DOCTYPE svg PUBLIC "-//W3C//DTD SVG 1.1//EN" "http://www.w3.org/Graphics/SVG/1.1/DTD/svg11.dtd">
<svg version="1.1" id="Layer_1" xmlns="http://www.w3.org/2000/svg" xmlns:xlink="http://www.w3.org/1999/xlink" x="0px" y="0px"
	 width="98.226px" height="109.617px" viewBox="0 0 98.226 109.617" style="enable-background:new 0 0 98.226 109.617;"
	 xml:space="preserve">
<g>
	<g>
		<g>
			<g>
				<path style="fill:#AF5B2B;" d="M35.447,87.181c-1.859,0-3.368,1.506-3.368,3.366c0,6.802-5.534,12.337-12.335,12.337
					c-6.316,0-11.531-4.772-12.246-10.899c-3.34,1.511-5.561,0.683-6.762-0.168c0.66,9.923,8.92,17.801,19.008,17.801
					c10.514,0,19.069-8.554,19.069-19.07C38.813,88.687,37.307,87.181,35.447,87.181z"/>
			</g>
		</g>
		<g>
			<g>
				<path style="fill:#4B190D;" d="M7.498,91.984c-0.058-0.472-0.094-0.949-0.094-1.438c0-1.415,0.238-2.803,0.708-4.126
					c0.62-1.752-0.296-3.675-2.048-4.297c-1.751-0.622-3.674,0.294-4.297,2.046c-0.727,2.049-1.096,4.194-1.096,6.377
					c0,0.429,0.039,0.849,0.064,1.271C1.938,92.667,4.158,93.495,7.498,91.984z"/>
			</g>
		</g>
	</g>
	<g>
		<g>
			<g>
				<path style="fill:#EA8232;" d="M68.24,100.614V91.99c5.09-4.739,8.352-11.388,8.672-18.809
					c-5.584,8.364-15.695,13.979-27.289,14.007v12.154c1.672,0,3.301-0.174,4.892-0.463v1.734c-2.628,2.045-4.323,5.229-4.323,8.817
					h22.369C72.561,105.844,70.865,102.659,68.24,100.614z"/>
			</g>
		</g>
		<g>
			<g>
				<path style="fill:#AF5B2B;" d="M22.271,71.99c0,0.495,0.051,0.977,0.077,1.467c0.358,0.522,0.734,1.033,1.13,1.535
					c-0.396-0.502-0.771-1.013-1.13-1.535c0.392,7.311,3.634,13.853,8.66,18.533v8.624c-2.625,2.045-4.321,5.229-4.321,8.817h22.368
					c0-3.588-1.694-6.772-4.321-8.817V98.88c1.588,0.289,3.216,0.463,4.889,0.463V87.188c-0.029,0-0.059,0.004-0.084,0.004
					c-9.274,0-17.605-3.582-23.439-9.289c2.303,2.248,4.992,4.166,7.977,5.666c-0.309-1.816-0.583-3.728-0.879-5.732
					c2.147,0.655,4.434,1.277,6.861,1.846c-0.002,0.005-0.006,0.011-0.008,0.016c1.826,0.911,3.729,1.941,5.703,3.099
					c1.264,0.741,2.545,1.518,3.869,2.368V73.239V44.636C34.516,44.636,22.271,56.884,22.271,71.99z M24.83,76.584
					c0.397,0.438,0.804,0.868,1.229,1.282C25.634,77.45,25.228,77.021,24.83,76.584z M23.633,75.177
					c0.352,0.438,0.709,0.869,1.084,1.287C24.342,76.046,23.984,75.614,23.633,75.177z"/>
			</g>
		</g>
		<g>
			<g>
				<path style="fill:#AF5B2B;" d="M49.623,44.636v28.604h0.003v11.926c1.323-0.851,2.604-1.627,3.87-2.368
					c1.973-1.157,3.874-2.188,5.705-3.099c2.479-0.58,4.805-1.213,6.991-1.882c-0.288,1.942-0.545,3.809-0.831,5.573
					c4.744-2.457,8.728-5.979,11.551-10.208c0.02-0.399,0.064-0.79,0.064-1.191C76.977,56.884,64.732,44.636,49.623,44.636z"/>
			</g>
		</g>
		<g>
			<g>
				<path style="fill:#D5D2B1;" d="M49.626,78.432L49.626,78.432h-0.003l0,0c-1.324-0.851-14.278,0.061-16.426-0.595
					c0.296,2.005,0.57,3.916,0.879,5.732c1.566,9.309,4.047,15.773,15.547,15.773V87.188c5.73-0.014,11.098-1.396,15.738-3.799
					c0.286-1.765,0.543-3.631,0.831-5.573C64.006,78.485,50.949,77.581,49.626,78.432z"/>
			</g>
		</g>
		<g>
			<g>
				<path style="fill:#F6F3CF;" d="M65.361,83.39c-4.641,2.402-10.008,3.785-15.738,3.799v12.154
					C61.463,99.343,63.824,92.798,65.361,83.39z"/>
			</g>
		</g>
	</g>
	<g>
		<g>
			<path style="fill:none;" d="M24.577,60.246c3.362,1.121,6.222,2.457,8.656,3.864c0.006-0.044,0.014-0.086,0.021-0.131
				C30.594,62.391,27.641,61.041,24.577,60.246z"/>
		</g>
	</g>
	<g>
		<g>
			<path style="fill:#07171B;" d="M44.678,74.541l-0.002,0.001c0.006,0.007,0.014,0.018,0.016,0.025
				C44.689,74.559,44.682,74.549,44.678,74.541z"/>
		</g>
	</g>
	<g>
		<g>
			<path style="fill:#A84720;" d="M49.607,73.235c0.014,0,0.023,0.003,0.033,0.003c0.011,0,0.023-0.003,0.035-0.003V54.573V43.039
				c-0.024,0-0.045,0.005-0.068,0.005v11.529V73.235z"/>
		</g>
	</g>
	<g>
		<g>
			<path style="fill:#A84720;" d="M49.607,73.235v0.004c0.014,0,0.023-0.001,0.033-0.001C49.631,73.238,49.621,73.235,49.607,73.235
				z"/>
		</g>
	</g>
	<g>
		<g>
			<g>
				<g>
					<circle style="fill:#AF5B2B;" cx="24.577" cy="14.566" r="14.567"/>
				</g>
			</g>
			<g>
				<g>
					<circle style="fill:#4B190D;" cx="24.577" cy="14.566" r="8.398"/>
				</g>
			</g>
		</g>
		<g>
			<g>
				<g>
					<circle style="fill:#EA8232;" cx="73.904" cy="14.566" r="14.568"/>
				</g>
			</g>
			<g>
				<g>
					<circle style="fill:#4B190D;" cx="73.904" cy="14.566" r="8.398"/>
				</g>
			</g>
		</g>
	</g>
	<g>
		<g>
			<g>
				<circle style="fill:#EA8232;" cx="24.577" cy="14.566" r="14.567"/>
			</g>
		</g>
		<g>
			<g>
				<circle style="fill:#4B190D;" cx="24.577" cy="14.566" r="8.398"/>
			</g>
		</g>
	</g>
	<g>
		<g>
			<path style="fill:none;" d="M24.577,59.688c3.362,1.123,6.222,2.459,8.656,3.866c0.006-0.044,0.014-0.089,0.021-0.132
				C30.594,61.834,27.641,60.484,24.577,59.688z"/>
		</g>
	</g>
	<g>
		<g>
			<path style="fill:#E96332;" d="M49.607,11.93v0.003c0.014,0,0.023-0.001,0.033-0.001C49.631,11.932,49.621,11.93,49.607,11.93z"
				/>
		</g>
	</g>
	<g>
		<g>
			<path style="fill:#A84720;" d="M49.676,11.93c-0.012,0-0.024,0.002-0.035,0.002c0.011,0,0.023,0.001,0.035,0.001V11.93z"/>
		</g>
	</g>
	<g>
		<g>
			<path style="fill:#A84720;" d="M49.676,42.481V11.933c-0.012,0-0.024-0.001-0.035-0.001c-0.01,0-0.02,0.001-0.033,0.001v30.555
				C49.631,42.487,49.651,42.481,49.676,42.481z"/>
		</g>
	</g>
	<g>
		<g>
			<path style="fill:#A84720;" d="M49.607,72.68c0.014,0,0.023,0.001,0.033,0.001c0.011,0,0.023-0.001,0.035-0.001V54.018V42.481
				c-0.024,0-0.045,0.006-0.068,0.006v11.53V72.68z"/>
		</g>
	</g>
	<g>
		<g>
			<path style="fill:#AF5B2B;" d="M13.606,41.788c0.038,9.248,2.501,25.034,2.501,25.034s0.777,3.062,15.514,8.321
				c0-0.616,0-2.395,0-7.014c0-5.245,0.641-7.819,1.214-9.078c6,2.373,10.581,5.247,11.771,7.753
				c1.482-0.824,3.166-1.332,4.98-1.332V46.812V4.724C22.277,4.724,13.523,22.472,13.606,41.788z"/>
		</g>
	</g>
	<g>
		<g>
			<path style="fill:#EA8232;" d="M49.539,4.724v42.088v9.515c-0.017,0.009-0.029,0.016-0.047,0.022l0.054,22.399
				c5.626,0,11.147-1.315,16.245-3.025c0.566-0.188,1.13-0.38,1.686-0.579c0-0.002,0-0.007,0-0.012
				c14.746-5.257,15.537-8.322,15.537-8.322s2.428-16.081,2.506-25.021C85.684,22.472,76.848,4.724,49.539,4.724z"/>
		</g>
	</g>
	<g>
		<g>
			<path style="fill:#D5D2B1;" d="M37.865,57.366c-1.473,0.605-2.882,1.359-4.068,2.322c0,0-2.105,0.752-2.105,10.264
				c0,4.617,0,6.396,0,7.014c5.555,1.981,11.32,3.604,17.932,3.604l0.053-22.4C43.482,55.122,41.011,56.373,37.865,57.366z"/>
		</g>
	</g>
	<g>
		<g>
			<path style="fill:#F6F3CF;" d="M61.375,57.366c1.471,0.605,2.883,1.358,4.067,2.322c0,0,2.104,0.752,2.104,10.264
				c0,4.617,0,6.396,0,7.014c-5.555,1.981-11.681,3.604-17.93,3.604l-0.053-22.4C55.756,55.122,58.227,56.373,61.375,57.366z"/>
		</g>
	</g>
	<g>
		<g>
			<g>
				<path style="fill:#4B190D;" d="M25.459,37.097c0,0,14.98-4.345,14.644,10.888C40.103,47.984,25.459,53.305,25.459,37.097z"/>
			</g>
		</g>
		<g>
			<g>
				<circle style="fill:#F5C799;" cx="32.955" cy="42.834" r="5.554"/>
			</g>
		</g>
		<g>
			<g>
				<circle style="fill:#FFFFFF;" cx="34.812" cy="40.539" r="1.915"/>
			</g>
		</g>
		<g>
			<g>
				<path style="fill:#4B190D;" d="M73.904,37.097c0,0-14.979-4.345-14.643,10.888C59.262,47.984,73.904,53.305,73.904,37.097z"/>
			</g>
		</g>
		<g>
			<g>
				<circle style="fill:#F5C799;" cx="66.313" cy="42.834" r="5.555"/>
			</g>
		</g>
		<g>
			<g>
				<circle style="fill:#FFFFFF;" cx="68.495" cy="40.539" r="1.914"/>
			</g>
		</g>
	</g>
	<g>
		<g>
			<g>
				<g>
					<path style="fill:#D76C79;" d="M48.736,63.533c-0.832-0.153-1.542-0.514-2.013-1.063c-2.212-2.594-5.126-4.388-6.684-5.265
						c1.518-0.462,4.654-1.173,9.552-1.173c4.832,0,7.997,0.717,9.525,1.175c-2.769,1.694-5.188,3.573-6.877,5.345
						c-0.477,0.498-1.109,0.83-1.881,0.981H48.736z"/>
				</g>
			</g>
			<g>
				<g>
					<path style="fill:#4B190D;" d="M49.592,56.586c3.723,0,6.434,0.433,8.15,0.831c-2.367,1.536-4.382,3.155-5.902,4.75
						c-0.387,0.404-0.902,0.678-1.535,0.81h-1.469c-0.75-0.143-1.32-0.436-1.689-0.868c-1.795-2.104-4.031-3.689-5.673-4.705
						C43.191,57.007,45.889,56.586,49.592,56.586 M49.592,55.476c-7.382,0-10.91,1.62-10.885,1.62v-0.002
						c0.086,0.123,4.552,2.17,7.596,5.736c0.637,0.745,1.539,1.104,2.434,1.257h1.677c0.822-0.151,1.614-0.509,2.229-1.152
						c3.178-3.335,7.739-5.814,7.78-5.859C60.423,57.075,56.893,55.476,49.592,55.476L49.592,55.476z"/>
				</g>
			</g>
		</g>
		<g>
			<g>
				<path style="fill:#4B190D;" d="M48.919,67.785c-1.371,2.365-3.104,3.705-5.152,3.986c-4.637,0.624-9.56-4.233-9.61-4.282
					c-0.264-0.267-0.688-0.267-0.951-0.001c-0.264,0.262-0.264,0.687-0.004,0.949c0.205,0.208,4.777,4.737,9.707,4.737
					c0.346,0,0.689-0.021,1.037-0.067c2.236-0.306,4.131-1.607,5.646-3.865c1.516,2.258,3.41,3.56,5.646,3.865
					c0.346,0.047,0.692,0.067,1.035,0.067c4.93,0,9.502-4.529,9.705-4.737c0.264-0.263,0.263-0.688-0.001-0.95
					c-0.265-0.262-0.688-0.262-0.952,0.002c-0.049,0.049-4.965,4.899-9.604,4.282c-2.055-0.286-3.78-1.611-5.156-3.986v-3.663
					c0.05-0.009,0.099-0.023,0.148-0.035h-1.677c0.061,0.012,0.121,0.03,0.183,0.039V67.785z"/>
			</g>
		</g>
	</g>
	<g>
		<g>
			<g>
				<g>
					<g>
						<path style="fill:#F5C799;" d="M0.672,68.157c-0.162,0-0.324-0.058-0.455-0.178c-0.273-0.25-0.291-0.677-0.04-0.951
							c13.3-14.508,33.944-6.386,34.15-6.304c0.345,0.141,0.511,0.531,0.372,0.877c-0.141,0.345-0.533,0.509-0.877,0.372
							c-0.199-0.079-19.99-7.848-32.652,5.965C1.035,68.084,0.854,68.157,0.672,68.157z"/>
					</g>
				</g>
			</g>
			<g>
				<g>
					<g>
						<path style="fill:#F5C799;" d="M5.052,72.392c-0.169,0-0.338-0.063-0.468-0.191c-0.268-0.257-0.273-0.684-0.016-0.952
							c12.455-12.84,28.701-8.519,28.867-8.474c0.357,0.1,0.566,0.471,0.468,0.828c-0.1,0.359-0.468,0.573-0.829,0.471
							c-0.154-0.044-15.655-4.14-27.54,8.115C5.402,72.323,5.229,72.392,5.052,72.392z"/>
					</g>
				</g>
			</g>
			<g>
				<g>
					<g>
						<path style="fill:#F5C799;" d="M10.648,77.104c-0.134,0-0.27-0.04-0.389-0.122c-0.304-0.216-0.376-0.633-0.163-0.937
							c8.631-12.265,23.079-11.069,23.22-11.057c0.371,0.034,0.643,0.362,0.608,0.732s-0.339,0.644-0.731,0.609
							c-0.137-0.011-13.822-1.124-21.996,10.487C11.067,77.005,10.859,77.104,10.648,77.104z"/>
					</g>
				</g>
			</g>
		</g>
		<g>
			<g>
				<g>
					<g>
						<path style="fill:#F5C799;" d="M97.553,68.157c-0.182,0-0.362-0.073-0.496-0.219c-12.664-13.813-32.455-6.044-32.652-5.965
							c-0.348,0.137-0.737-0.027-0.879-0.372c-0.138-0.346,0.028-0.736,0.373-0.877c0.206-0.082,20.852-8.204,34.15,6.304
							c0.251,0.274,0.232,0.701-0.041,0.951C97.879,68.1,97.716,68.157,97.553,68.157z"/>
					</g>
				</g>
			</g>
			<g>
				<g>
					<g>
						<path style="fill:#F5C799;" d="M93.174,72.392c-0.176,0-0.35-0.068-0.482-0.203c-11.907-12.274-27.385-8.16-27.541-8.115
							c-0.361,0.101-0.729-0.111-0.828-0.471c-0.1-0.357,0.111-0.729,0.469-0.828c0.162-0.045,16.407-4.368,28.867,8.474
							c0.258,0.269,0.252,0.695-0.016,0.952C93.512,72.328,93.343,72.392,93.174,72.392z"/>
					</g>
				</g>
			</g>
			<g>
				<g>
					<g>
						<path style="fill:#F5C799;" d="M87.578,77.104c-0.212,0-0.42-0.099-0.551-0.286C78.853,65.203,65.164,66.316,65.033,66.33
							c-0.386,0.026-0.699-0.241-0.732-0.609c-0.033-0.37,0.238-0.698,0.607-0.732c0.143-0.013,14.59-1.208,23.221,11.057
							c0.213,0.304,0.141,0.721-0.163,0.937C87.846,77.063,87.711,77.104,87.578,77.104z"/>
					</g>
				</g>
			</g>
		</g>
	</g>
</g>
</svg>
