<?xml version="1.0" encoding="utf-8"?>
<!-- Generator: Adobe Illustrator 16.0.0, SVG Export Plug-In . SVG Version: 6.00 Build 0)  -->
<!DOCTYPE svg PUBLIC "-//W3C//DTD SVG 1.1//EN" "http://www.w3.org/Graphics/SVG/1.1/DTD/svg11.dtd">
<svg version="1.1" id="Layer_1" xmlns="http://www.w3.org/2000/svg" xmlns:xlink="http://www.w3.org/1999/xlink" x="0px" y="0px"
	 width="81.779px" height="131.206px" viewBox="0 0 81.779 131.206" style="enable-background:new 0 0 81.779 131.206;"
	 xml:space="preserve">
<g>
	<g>
		<g>
			<path style="fill:#3C3C3B;" d="M50.984,0c1.529,2.39,2.332,4.594,3.083,6.486c0.374,0.985,0.685,1.55,1.081,2.479
				c0.389,0.978,0.787,2.155,1.018,3.396c0.492,2.488,0.375,5.271-0.505,7.758c-0.905,2.485-2.458,4.711-4.944,6.139
				c-0.896-2.716-1.371-4.837-1.854-6.772c-0.466-1.935-0.873-3.628-1.225-5.494c-0.184-0.942-0.332-1.916-0.473-3.091
				c-0.168-1.223-0.191-2.862,0.105-4.098C47.844,4.257,48.946,2.017,50.984,0z"/>
		</g>
	</g>
	<g>
		<g>
			<g>
				<path style="fill:#3C3C3B;" d="M0,108.572c1.566-0.7,6.129-2.715,11.656,0.085c2.438,1.237,3.813,2.293,4.845,3.102
					c1.025,0.829,2.912,2.856,3.69,4.393c-1.568,0.706-1.828,1.003-3.834,1.646c-1.248,0.396-3.095,0.577-4.266,0.161
					c-1.171-0.415-2.422-0.89-3.949-2.224C7.115,114.901,3.146,109.318,0,108.572z"/>
			</g>
		</g>
		<g>
			<g>
				<g>
					<path style="fill:#D3C5C1;" d="M19.058,117.282c-0.712,0-1.45-0.058-2.218-0.182c-1.514-0.244-2.543-1.67-2.298-3.184
						c0.245-1.513,1.669-2.541,3.183-2.299c8.965,1.442,12.45-13.778,12.484-13.934c0.334-1.496,1.814-2.442,3.313-2.106
						c1.498,0.333,2.44,1.815,2.107,3.313C35.451,99.682,31.383,117.282,19.058,117.282z"/>
				</g>
			</g>
		</g>
	</g>
	<g>
		<g>
			<g>
				<path style="fill:#F6E9E5;" d="M70.201,99.243c-3.744,1.511-7.642,2.221-11.49,2.468c3.699-1.085,7.246-2.625,10.278-4.731
					c1.517-1.044,2.892-2.251,4.058-3.564c0.467-0.532,3.102-3.674,4.164-5.122c-0.258-1.032-0.561-2.05-0.947-3.035
					c3.514-4.491,5.516-9.932,5.516-15.807c0-1.927-0.033-4.184-0.152-6.658l-10.449,1.378l10.125-6.07
					c-0.271-3.058-0.688-6.3-1.332-9.577l-10.428,7.226l9.144-12.606c-2.551-9.097-7.171-17.693-15.493-22.208l-6.729,10.55
					l2.462-12.379c-2.862-0.937-6.069-1.467-9.69-1.467v102.056c1.715,0,3.387-0.162,5.02-0.421v7.013h11.008v-10.998
					c4.002-2.433,7.275-5.753,9.495-9.643c-0.039,0.025-0.075,0.049-0.116,0.074c-1.645,1.018-3.367,1.85-5.128,2.513
					c-3.526,1.326-7.198,1.956-10.804,2.043c3.487-0.934,6.775-2.383,9.631-4.329c3.271-1.925,7.011-5.403,9.162-7.711
					c0.225-1.179,0.355-2.387,0.395-3.616c-0.818,0.649-1.852,1.357-2.295,1.678C73.894,97.521,72.074,98.491,70.201,99.243z"/>
			</g>
		</g>
		<g>
			<g>
				<path style="fill:#3C3C3B;" d="M79.971,48.523c-0.354-1.796-0.783-3.595-1.284-5.381l-9.144,12.606L79.971,48.523z"/>
			</g>
		</g>
		<g>
			<g>
				<path style="fill:#3C3C3B;" d="M81.627,62.793c-0.07-1.491-0.18-3.067-0.324-4.692l-10.125,6.07L81.627,62.793z"/>
			</g>
		</g>
		<g>
			<g>
				<path style="fill:#3C3C3B;" d="M63.193,20.935c-1.324-0.72-2.746-1.332-4.267-1.829l-2.462,12.379L63.193,20.935z"/>
			</g>
		</g>
		<g>
			<g>
				<path style="fill:#3C3C3B;" d="M73.047,93.415c-1.166,1.313-2.541,2.521-4.058,3.564c-3.032,2.106-6.579,3.646-10.278,4.731
					c3.849-0.247,7.746-0.957,11.49-2.468c1.873-0.752,3.692-1.722,5.402-2.946c0.443-0.32,1.477-1.028,2.295-1.678
					c0.01-0.254,0.028-0.505,0.028-0.761c0-1.917-0.268-3.771-0.716-5.565C76.148,89.741,73.514,92.883,73.047,93.415z"/>
			</g>
		</g>
		<g>
			<g>
				<path style="fill:#3C3C3B;" d="M68.342,105.946c-2.855,1.946-6.144,3.396-9.631,4.329c3.605-0.087,7.277-0.717,10.804-2.043
					c1.761-0.663,3.483-1.495,5.128-2.513c0.041-0.025,0.077-0.049,0.116-0.074c1.309-2.292,2.247-4.782,2.745-7.41
					C75.353,100.543,71.612,104.021,68.342,105.946z"/>
			</g>
		</g>
		<g>
			<g>
				<path style="fill:#D3C5C1;" d="M39.771,18.883l2.506,12.602l-6.803-10.666c-6.864,4.158-10.018,9.068-10.018,9.068
					c-2.582,3.839-4.402,8.278-5.692,12.855l9.435,13.007l-10.746-7.445c-0.636,3.288-1.047,6.546-1.31,9.621l10.421,6.246
					l-10.73-1.415c-0.109,2.483-0.141,4.762-0.141,6.695c0,5.875,2.002,11.315,5.517,15.807c-0.351,0.896-0.632,1.818-0.879,2.756
					c0.876,1.266,3.864,4.833,4.365,5.401c1.166,1.313,2.54,2.521,4.058,3.564c3.033,2.106,6.578,3.646,10.276,4.731
					c-3.847-0.247-7.743-0.957-11.489-2.468c-1.873-0.752-3.691-1.722-5.402-2.946c-0.495-0.355-1.729-1.199-2.574-1.902
					c0.027,1.181,0.144,2.343,0.342,3.479c2.078,2.288,6.049,6.044,9.494,8.072c2.855,1.946,6.145,3.396,9.63,4.329
					c-3.604-0.087-7.276-0.717-10.803-2.043c-1.761-0.663-3.483-1.495-5.128-2.513c-0.189-0.12-0.367-0.236-0.539-0.349
					c2.221,4.008,5.553,7.429,9.646,9.917v10.998h11.011v-7.013c1.632,0.259,3.304,0.421,5.019,0.421V17.639
					C45.742,17.639,42.551,18.024,39.771,18.883z"/>
			</g>
		</g>
		<g>
			<g>
				<path style="fill:#3C3C3B;" d="M29.199,55.749l-9.435-13.007c-0.52,1.843-0.95,3.704-1.312,5.562L29.199,55.749z"/>
			</g>
		</g>
		<g>
			<g>
				<path style="fill:#3C3C3B;" d="M27.564,64.171l-10.421-6.246c-0.142,1.676-0.243,3.293-0.31,4.831L27.564,64.171z"/>
			</g>
		</g>
		<g>
			<g>
				<path style="fill:#3C3C3B;" d="M35.475,20.818l6.803,10.666l-2.506-12.602c-1.35,0.417-2.61,0.938-3.744,1.599
					C35.836,20.595,35.66,20.707,35.475,20.818z"/>
			</g>
		</g>
		<g>
			<g>
				<path style="fill:#3C3C3B;" d="M20.564,94.395c0.846,0.703,2.079,1.547,2.574,1.902c1.711,1.225,3.529,2.194,5.402,2.946
					c3.746,1.511,7.643,2.221,11.489,2.468c-3.698-1.085-7.243-2.625-10.276-4.731c-1.518-1.044-2.892-2.251-4.058-3.564
					c-0.501-0.568-3.489-4.136-4.365-5.401c-0.493,1.879-0.785,3.827-0.785,5.845C20.546,94.038,20.561,94.216,20.564,94.395z"/>
			</g>
		</g>
		<g>
			<g>
				<path style="fill:#3C3C3B;" d="M24.1,105.72c1.645,1.018,3.367,1.85,5.128,2.513c3.526,1.326,7.198,1.956,10.803,2.043
					c-3.485-0.934-6.774-2.383-9.63-4.329c-3.445-2.028-7.416-5.784-9.494-8.072c0.459,2.654,1.367,5.175,2.654,7.497
					C23.732,105.483,23.91,105.6,24.1,105.72z"/>
			</g>
		</g>
	</g>
	<g>
		<g>
			<path style="fill:none;stroke:#1D1D1B;stroke-miterlimit:10;" d="M63.113,36.284"/>
		</g>
	</g>
	<g>
		<g>
			<g>
				<path style="fill:#1D1D1B;" d="M34.321,50.466c0,1.578,1.276,2.857,2.854,2.857l0,0c1.576,0,2.854-1.279,2.854-2.857v-4.282
					c0-1.574-1.278-2.853-2.854-2.853l0,0c-1.578,0-2.854,1.278-2.854,2.853V50.466z"/>
			</g>
		</g>
		<g>
			<g>
				<path style="fill:#1D1D1B;" d="M58.441,50.466c0,1.578,1.277,2.857,2.855,2.857l0,0c1.577,0,2.855-1.279,2.855-2.857v-4.282
					c0-1.574-1.278-2.853-2.855-2.853l0,0c-1.578,0-2.855,1.278-2.855,2.853V50.466z"/>
			</g>
		</g>
	</g>
	<g>
		<g>
			<g>
				<g>
					<path style="fill:#F6E9E5;" d="M24,17.05c-0.639-1.429,0-3.104,1.432-3.744c1.428-0.639,3.104,0.001,3.744,1.429l3.455,7.732
						c1.057-0.74,2.193-1.399,3.396-1.985l-4.023-8.996c-1.521-3.401-5.508-4.924-8.91-3.405c-3.4,1.521-4.924,5.512-3.402,8.909
						l5.766,12.897c0.828-1.228,1.733-2.394,2.725-3.485L24,17.05z"/>
				</g>
			</g>
			<g>
				<g>
					<path style="fill:#D76C79;" d="M25.432,13.306C24,13.945,23.361,15.621,24,17.05l4.182,9.352
						c1.323-1.464,2.805-2.783,4.449-3.935l-3.455-7.732C28.535,13.307,26.859,12.667,25.432,13.306z"/>
				</g>
			</g>
		</g>
		<g>
			<g>
				<g>
					<path style="fill:#F6E9E5;" d="M74.627,17.05c0.641-1.429,0-3.104-1.43-3.744c-1.429-0.639-3.104,0.001-3.745,1.429
						l-3.454,7.732c-1.061-0.74-2.194-1.399-3.397-1.985l4.022-8.996c1.521-3.401,5.509-4.924,8.912-3.405
						c3.398,1.521,4.922,5.512,3.402,8.909l-5.767,12.897c-0.826-1.228-1.733-2.394-2.724-3.485L74.627,17.05z"/>
				</g>
			</g>
			<g>
				<g>
					<path style="fill:#D76C79;" d="M73.197,13.306c1.43,0.64,2.07,2.315,1.43,3.744l-4.18,9.352
						c-1.324-1.464-2.805-2.783-4.449-3.935l3.454-7.732C70.094,13.307,71.769,12.667,73.197,13.306z"/>
				</g>
			</g>
		</g>
	</g>
	<g>
		<g>
			<g>
				<g>
					<path style="fill:#3C3C3B;" d="M38.598,128.256c0.462,0,0.843,0.376,0.843,0.841v2.109h8.854c0-5.292-4.293-9.58-9.582-9.58
						c-5.292,0-9.583,4.288-9.583,9.58h8.624v-2.109C37.754,128.632,38.129,128.256,38.598,128.256z"/>
				</g>
			</g>
		</g>
		<g>
			<g>
				<g>
					<path style="fill:#3C3C3B;" d="M59.644,128.256c0.465,0,0.845,0.376,0.845,0.841v2.109h8.854c0-5.292-4.289-9.58-9.584-9.58
						c-5.288,0-9.577,4.288-9.577,9.58H58.8v-2.109C58.8,128.632,59.176,128.256,59.644,128.256z"/>
				</g>
			</g>
		</g>
	</g>
	<g>
		<g>
			<polygon style="fill:#3C3C3B;" points="46.666,61.315 49.236,45.835 51.807,61.315 			"/>
		</g>
	</g>
	<g>
		<g>
			<g>
				<path style="fill:#3C3C3B;" d="M78.11,79.703c0,10.434-12.927,21.112-28.872,21.112S20.363,90.137,20.363,79.703
					c0-10.431,12.93-18.888,28.875-18.888S78.11,69.272,78.11,79.703z"/>
			</g>
		</g>
		<g>
			<g>
				<g>
					<circle style="fill:#9C9B9B;" cx="32.009" cy="76.787" r="4.147"/>
				</g>
			</g>
			<g>
				<g>
					<circle style="fill:#9C9B9B;" cx="66.564" cy="76.787" r="4.146"/>
				</g>
			</g>
		</g>
		<g>
			<g>
				<g>
					<path style="fill:#F6E9E5;" d="M43.331,94.924c0,2.567,1.178,2.519,2.709,2.708l0,0c1.697,0.115,2.708,0.12,2.708-2.708V93.2
						c0,0.289-5.417-0.4-5.417-0.4V94.924z"/>
				</g>
			</g>
			<g>
				<g>
					<path style="fill:#F6E9E5;" d="M55.164,94.924c0,2.567-1.177,2.519-2.708,2.708l0,0c-1.698,0.115-2.708,0.12-2.708-2.708V93.2
						c0,0.289,5.416-0.4,5.416-0.4V94.924z"/>
				</g>
			</g>
		</g>
		<g>
			<g>
				<g>
					<path style="fill:#F6E9E5;" d="M49.648,94.307c-12.143,0-20.63-6.312-20.984-6.579c-0.271-0.204-0.326-0.591-0.121-0.861
						c0.205-0.271,0.59-0.323,0.861-0.118c0.084,0.062,8.531,6.33,20.244,6.33c11.693,0,19.343-6.252,19.42-6.313
						c0.26-0.217,0.646-0.184,0.864,0.079c0.219,0.261,0.184,0.648-0.077,0.864C69.531,87.978,61.807,94.307,49.648,94.307z"/>
				</g>
			</g>
		</g>
	</g>
	<g>
		<g>
			<path style="fill:#3C3C3B;" d="M42.577,1.292c2.212,1.775,3.679,3.608,4.994,5.162c0.67,0.813,1.146,1.247,1.817,2.001
				c0.682,0.803,1.434,1.79,2.05,2.894c1.263,2.201,2.04,4.873,2.001,7.512c-0.063,2.644-0.824,5.251-2.723,7.396
				c-1.717-2.286-2.846-4.144-3.921-5.825c-1.061-1.684-1.989-3.157-2.917-4.813c-0.476-0.834-0.928-1.707-1.438-2.778
				c-0.549-1.103-1.096-2.649-1.208-3.917C40.962,6.33,41.29,3.854,42.577,1.292z"/>
		</g>
	</g>
	<g>
		<g>
			<ellipse style="fill:#FFFFFF;" cx="61.824" cy="45.835" rx="1.48" ry="1.665"/>
		</g>
	</g>
	<g>
		<g>
			<ellipse style="fill:#FFFFFF;" cx="37.671" cy="45.835" rx="1.48" ry="1.665"/>
		</g>
	</g>
</g>
</svg>
