<?xml version="1.0" encoding="utf-8"?>
<!-- Generator: Adobe Illustrator 16.0.0, SVG Export Plug-In . SVG Version: 6.00 Build 0)  -->
<!DOCTYPE svg PUBLIC "-//W3C//DTD SVG 1.1//EN" "http://www.w3.org/Graphics/SVG/1.1/DTD/svg11.dtd">
<svg version="1.1" id="Layer_1" xmlns="http://www.w3.org/2000/svg" xmlns:xlink="http://www.w3.org/1999/xlink" x="0px" y="0px"
	 width="266.054px" height="56.778px" viewBox="0 0 266.054 56.778" style="enable-background:new 0 0 266.054 56.778;"
	 xml:space="preserve">
<path style="fill:#333;stroke:#333;stroke-width:2;stroke-miterlimit:10;" d="M21.219,19.539V2.92c0-1.08,0.84-1.92,1.92-1.92
	c1.08,0,1.92,0.84,1.92,1.92v29.759c0,7.919-4.92,11.819-11.76,11.819C5.56,44.498,1,39.878,1,30.039
	c0-9.839,4.32-14.399,12.059-14.399C16.899,15.639,19.839,17.619,21.219,19.539z M21.219,24.399c0,0-2.28-5.28-7.92-5.28
	c-5.46,0-8.459,3.54-8.459,10.919c0,7.5,2.94,10.98,8.459,10.98c4.62,0,7.92-2.64,7.92-8.34V24.399z"/>
<path style="fill:#333;stroke:#333;stroke-width:2;stroke-miterlimit:10;" d="M32.439,8.08c0-1.74,0.84-2.4,2.28-2.4
	s2.28,0.66,2.28,2.4c0,1.44-0.84,2.28-2.28,2.28S32.439,9.52,32.439,8.08z M36.639,42.278c0,1.08-0.84,1.92-1.92,1.92
	s-1.92-0.84-1.92-1.92V17.919c0-1.08,0.84-1.92,1.92-1.92s1.92,0.84,1.92,1.92V42.278z"/>
<path style="fill:#333;stroke:#333;stroke-width:2;stroke-miterlimit:10;" d="M47.619,22.959c0,6.3,15.779,3.96,15.779,13.56
	c0,5.46-4.5,7.919-10.199,7.919c-4.92,0-8.7-2.34-10.26-4.319c-0.3-0.42-0.42-0.72-0.42-1.14c0-0.96,0.78-1.74,1.74-1.74
	c0.36,0,0.84,0.12,1.32,0.6c1.86,1.86,4.26,2.94,7.62,2.94c3.42,0,6.359-1.14,6.359-4.26c0-6.18-15.779-3.72-15.779-13.56
	c0-4.979,4.08-7.26,9.18-7.26c4.08,0,7.26,1.38,9.12,3.84c0.18,0.24,0.42,0.6,0.42,1.14c0,0.96-0.78,1.74-1.74,1.74
	c-0.3,0-0.78-0.06-1.26-0.54c-1.62-1.56-3.42-2.52-6.54-2.52C50.259,19.359,47.619,20.199,47.619,22.959z"/>
<path style="fill:#333;stroke:#333;stroke-width:2;stroke-miterlimit:10;" d="M72.939,22.299c-0.6,0.66-1.02,0.84-1.56,0.84
	c-0.96,0-1.74-0.78-1.74-1.74c0-0.42,0.12-0.72,0.3-1.02c1.68-2.64,4.92-4.74,9.959-4.74c6.959,0,10.799,4.08,10.799,10.2v16.5
	c0,1.02-0.84,1.86-1.86,1.86s-1.86-0.84-1.86-1.86v-2.16c-1.5,2.82-4.979,4.32-8.58,4.32c-6.36,0-10.379-3.06-10.379-8.58
	c0-5.28,4.02-8.459,10.5-8.459h8.459v-1.62c0-4.08-2.7-6.6-7.08-6.6C76.719,19.239,74.799,20.199,72.939,22.299z M86.978,33.339
	v-2.52h-8.459c-3.9,0-6.6,1.62-6.6,5.1c0,3.12,2.16,5.1,6.839,5.1C82.958,41.019,86.978,38.438,86.978,33.339z"/>
<path style="fill:#333;stroke:#333;stroke-width:2;stroke-miterlimit:10;" d="M101.738,17.919v1.92
	c1.14-2.04,4.14-4.2,8.16-4.2c7.8,0,12.54,4.56,12.54,14.399c0,9.84-4.74,14.459-12.54,14.459c-4.02,0-6.9-2.16-8.16-4.2v13.56
	c0,1.02-0.9,1.92-1.92,1.92s-1.92-0.9-1.92-1.92V17.919c0-1.08,0.9-1.92,1.92-1.92S101.738,16.839,101.738,17.919z M109.898,41.019
	c5.52,0,8.64-3.48,8.64-10.98c0-7.5-3.24-10.919-8.76-10.919c-4.44,0-8.16,3.12-8.16,10.919
	C101.618,37.778,105.218,41.019,109.898,41.019z"/>
<path style="fill:#333;stroke:#333;stroke-width:2;stroke-miterlimit:10;" d="M131.498,22.299c-0.6,0.66-1.02,0.84-1.56,0.84
	c-0.96,0-1.74-0.78-1.74-1.74c0-0.42,0.12-0.72,0.3-1.02c1.68-2.64,4.92-4.74,9.959-4.74c6.959,0,10.799,4.08,10.799,10.2v16.5
	c0,1.02-0.84,1.86-1.86,1.86s-1.86-0.84-1.86-1.86v-2.16c-1.5,2.82-4.979,4.32-8.58,4.32c-6.36,0-10.379-3.06-10.379-8.58
	c0-5.28,4.02-8.459,10.5-8.459h8.459v-1.62c0-4.08-2.7-6.6-7.08-6.6C135.277,19.239,133.357,20.199,131.498,22.299z M145.537,33.339
	v-2.52h-8.459c-3.9,0-6.6,1.62-6.6,5.1c0,3.12,2.16,5.1,6.839,5.1C141.517,41.019,145.537,38.438,145.537,33.339z"/>
<path style="fill:#333;stroke:#333;stroke-width:2;stroke-miterlimit:10;" d="M156.038,8.08c0-1.74,0.84-2.4,2.28-2.4
	s2.28,0.66,2.28,2.4c0,1.44-0.84,2.28-2.28,2.28S156.038,9.52,156.038,8.08z M160.237,42.278c0,1.08-0.84,1.92-1.92,1.92
	s-1.92-0.84-1.92-1.92V17.919c0-1.08,0.84-1.92,1.92-1.92s1.92,0.84,1.92,1.92V42.278z"/>
<path style="fill:#333;stroke:#333;stroke-width:2;stroke-miterlimit:10;" d="M190.896,26.259v16.02
	c0,1.08-0.84,1.92-1.92,1.92s-1.92-0.84-1.92-1.92V27.039c0-4.74-1.38-7.98-7.2-7.98c-5.939,0-7.979,3.6-7.979,8.4v14.819
	c0,1.08-0.84,1.92-1.92,1.92s-1.92-0.84-1.92-1.92V17.919c0-1.08,0.84-1.92,1.92-1.92s1.92,0.84,1.92,1.92v1.92
	c1.14-2.28,4.08-4.2,7.979-4.2C189.096,15.639,190.896,21.159,190.896,26.259z"/>
<path style="fill:#333;stroke:#333;stroke-width:2;stroke-miterlimit:10;" d="M199.597,10.18c0-1.02,0.9-1.92,1.92-1.92
	c1.08,0,1.92,0.9,1.92,1.92v6.3h3.9c1.02,0,1.8,0.78,1.8,1.8s-0.78,1.8-1.8,1.8h-3.9v16.56c0,2.58,1.44,3.959,3.48,3.959
	c1.02,0,1.86,0.78,1.86,1.8s-0.84,1.8-1.86,1.8c-4.74,0-7.32-3.18-7.32-7.56v-16.56h-2.34c-1.02,0-1.8-0.78-1.8-1.8
	s0.78-1.8,1.8-1.8h2.34V10.18z"/>
<path style="fill:#333;stroke:#333;stroke-width:2;stroke-miterlimit:10;" d="M225.396,15.639c9.6,0,11.459,7.62,11.459,11.7
	c0,1.74,0,3.84-2.4,3.84h-17.519c0,5.94,3.419,9.78,9.06,9.78c3.479,0,5.52-1.32,7.2-2.58c0.36-0.24,0.6-0.36,1.08-0.36
	c0.96,0,1.74,0.78,1.74,1.74c0,0.66-0.3,1.02-0.66,1.38c-0.9,0.9-4.02,3.36-9.359,3.36c-7.98,0-12.959-4.379-12.959-14.459
	C213.036,20.799,217.596,15.639,225.396,15.639z M225.396,19.119c-5.22,0-8.1,3.36-8.459,8.7h16.139
	C233.075,23.499,231.575,19.119,225.396,19.119z"/>
<path style="fill:#333;stroke:#333;stroke-width:2;stroke-miterlimit:10;" d="M261.214,19.539V2.92
	c0-1.08,0.84-1.92,1.92-1.92c1.08,0,1.92,0.84,1.92,1.92v29.759c0,7.919-4.919,11.819-11.759,11.819
	c-7.74,0-12.299-4.62-12.299-14.459c0-9.839,4.32-14.399,12.06-14.399C256.895,15.639,259.834,17.619,261.214,19.539z
	 M261.214,24.399c0,0-2.28-5.28-7.919-5.28c-5.46,0-8.459,3.54-8.459,10.919c0,7.5,2.939,10.98,8.459,10.98
	c4.62,0,7.919-2.64,7.919-8.34V24.399z"/>
<circle style="fill:#FFC107;" cx="158.483" cy="7.885" r="4.917"/>
<circle style="fill:#E91E63;" cx="34.483" cy="7.885" r="4.917"/>
</svg>
